ISO-10303-21;
HEADER;
/* Generated by software containing ST-Developer
 * from STEP Tools, Inc. (www.steptools.com) 
 */

FILE_DESCRIPTION(
/* description */ (''),
/* implementation_level */ '2;1');

FILE_NAME(
/* name */ 'Phone stand.step',
/* time_stamp */ '2025-07-10T14:02:01+05:30',
/* author */ (''),
/* organization */ (''),
/* preprocessor_version */ 'ST-DEVELOPER v20.1',
/* originating_system */ 'Autodesk Translation Framework v14.10.0.0',
/* authorisation */ '');

FILE_SCHEMA (('AUTOMOTIVE_DESIGN { 1 0 10303 214 3 1 1 }'));
ENDSEC;

DATA;
#10=MECHANICAL_DESIGN_GEOMETRIC_PRESENTATION_REPRESENTATION('',(#13),#1596);
#11=SHAPE_REPRESENTATION_RELATIONSHIP('SRR','None',#1603,#12);
#12=ADVANCED_BREP_SHAPE_REPRESENTATION('',(#14),#1595);
#13=STYLED_ITEM('',(#1613),#14);
#14=MANIFOLD_SOLID_BREP('Body1',#710);
#15=ELLIPSE('',#738,11.8310079157625,5.);
#16=ELLIPSE('',#739,5.51688959481246,5.);
#17=ELLIPSE('',#740,5.51688959481246,5.);
#18=ELLIPSE('',#741,11.8310079157625,5.);
#19=ELLIPSE('',#752,5.70359075304051,5.);
#20=ELLIPSE('',#753,5.70359075304051,5.);
#21=ELLIPSE('',#756,6.43245683737469,5.);
#22=ELLIPSE('',#770,6.43245683737469,5.);
#23=ELLIPSE('',#779,5.71677033936682,5.);
#24=ELLIPSE('',#781,5.71677033936682,5.);
#25=FACE_BOUND('',#101,.T.);
#26=FACE_BOUND('',#104,.T.);
#27=(
BOUNDED_SURFACE()
B_SPLINE_SURFACE(1,2,((#1181,#1182,#1183,#1184,#1185,#1186,#1187,#1188,
#1189),(#1190,#1191,#1192,#1193,#1194,#1195,#1196,#1197,#1198)),
 .UNSPECIFIED.,.F.,.T.,.F.)
B_SPLINE_SURFACE_WITH_KNOTS((2,2),(3,2,2,2,3),(0.0789473684210519,0.111854270955085),
(-3.14159265358979,-1.5707963267949,0.,1.5707963267949,3.14159265358979),
 .UNSPECIFIED.)
GEOMETRIC_REPRESENTATION_ITEM()
RATIONAL_B_SPLINE_SURFACE(((1.,0.707106781186548,1.,0.707106781186548,1.,
0.707106781186548,1.,0.707106781186548,1.),(1.,0.707106781186548,1.,0.707106781186548,
1.,0.707106781186548,1.,0.707106781186548,1.)))
REPRESENTATION_ITEM('')
SURFACE()
);
#28=B_SPLINE_CURVE_WITH_KNOTS('',3,(#1139,#1140,#1141,#1142,#1143,#1144,
#1145,#1146,#1147,#1148,#1149,#1150,#1151,#1152,#1153,#1154,#1155,#1156,
#1157,#1158,#1159),.UNSPECIFIED.,.T.,.F.,(4,1,1,1,1,1,1,1,1,1,1,1,1,1,1,
1,1,1,4),(-3.14159265358979,-2.91719317833338,-2.69279370307697,-2.24399475256414,
-1.79519580205131,-1.34639685153848,-1.0471975511966,-0.747998250854713,
-0.448798950512828,-0.149599650170943,0.149599650170943,0.448798950512828,
0.747998250854713,1.34639685153848,1.64559615188037,2.24399475256414,2.69279370307697,
2.91719317833338,3.14159265358979),.UNSPECIFIED.);
#29=B_SPLINE_CURVE_WITH_KNOTS('',3,(#1160,#1161,#1162,#1163,#1164,#1165,
#1166,#1167,#1168,#1169,#1170,#1171,#1172,#1173,#1174,#1175,#1176,#1177,
#1178,#1179,#1180),.UNSPECIFIED.,.T.,.F.,(4,1,1,1,1,1,1,1,1,1,1,1,1,1,1,
1,1,1,4),(-3.14159265358979,-2.91719317833338,-2.69279370307697,-2.24399475256414,
-1.64559615188037,-1.34639685153848,-0.747998250854713,-0.448798950512828,
-0.149599650170943,0.149599650170943,0.448798950512828,0.747998250854713,
1.0471975511966,1.34639685153848,1.79519580205131,2.24399475256414,2.69279370307697,
2.91719317833338,3.14159265358979),.UNSPECIFIED.);
#30=B_SPLINE_CURVE_WITH_KNOTS('',3,(#1200,#1201,#1202,#1203,#1204,#1205,
#1206,#1207,#1208,#1209,#1210,#1211,#1212,#1213,#1214,#1215,#1216,#1217,
#1218,#1219,#1220),.UNSPECIFIED.,.T.,.F.,(4,1,1,1,1,1,1,1,1,1,1,1,1,1,1,
1,1,1,4),(-3.14159265358979,-2.91719317833338,-2.69279370307697,-2.24399475256414,
-1.79519580205131,-1.34639685153848,-1.0471975511966,-0.747998250854713,
-0.448798950512828,-0.149599650170943,0.149599650170943,0.448798950512828,
0.747998250854713,1.34639685153848,1.64559615188037,2.24399475256414,2.69279370307697,
2.91719317833338,3.14159265358979),.UNSPECIFIED.);
#31=B_SPLINE_CURVE_WITH_KNOTS('',3,(#1335,#1336,#1337,#1338,#1339,#1340,
#1341,#1342,#1343,#1344,#1345,#1346,#1347,#1348,#1349,#1350,#1351,#1352,
#1353,#1354,#1355),.UNSPECIFIED.,.T.,.F.,(4,1,1,1,1,1,1,1,1,1,1,1,1,1,1,
1,1,1,4),(-3.14159265358979,-2.91719317833338,-2.69279370307697,-2.24399475256414,
-1.64559615188037,-1.34639685153848,-0.747998250854713,-0.448798950512828,
-0.149599650170943,0.149599650170943,0.448798950512828,0.747998250854713,
1.0471975511966,1.34639685153848,1.79519580205131,2.24399475256414,2.69279370307697,
2.91719317833338,3.14159265358979),.UNSPECIFIED.);
#32=B_SPLINE_CURVE_WITH_KNOTS('',3,(#1421,#1422,#1423,#1424,#1425,#1426,
#1427,#1428,#1429,#1430,#1431,#1432,#1433,#1434,#1435,#1436),
 .UNSPECIFIED.,.F.,.F.,(4,2,2,2,2,2,2,4),(1.02296602158643,1.1661486736486,
1.32167281764431,1.47719696164002,1.63272110563573,1.78824524963145,1.94887788210162,
2.01947428287884),.UNSPECIFIED.);
#33=B_SPLINE_CURVE_WITH_KNOTS('',3,(#1478,#1479,#1480,#1481,#1482,#1483,
#1484,#1485,#1486,#1487,#1488,#1489,#1490,#1491,#1492,#1493),
 .UNSPECIFIED.,.F.,.F.,(4,2,2,2,2,2,2,4),(3.88931356368125,3.95990996445847,
4.12054259692864,4.27606674092436,4.43159088492007,4.58711502891578,4.74263917291149,
4.88582182497366),.UNSPECIFIED.);
#34=B_SPLINE_CURVE_WITH_KNOTS('',3,(#1500,#1501,#1502,#1503,#1504,#1505,
#1506,#1507,#1508,#1509,#1510,#1511,#1512,#1513,#1514,#1515),
 .UNSPECIFIED.,.F.,.F.,(4,2,2,2,2,2,2,4),(0.785900181788083,0.84529951137363,
1.00615637190871,1.16701323244379,1.32276312107795,1.47851300971211,1.63426289834628,
1.6958719640023),.UNSPECIFIED.);
#35=B_SPLINE_CURVE_WITH_KNOTS('',3,(#1516,#1517,#1518,#1519,#1520,#1521,
#1522,#1523,#1524,#1525,#1526,#1527,#1528,#1529,#1530,#1531),
 .UNSPECIFIED.,.F.,.F.,(4,2,2,2,2,2,2,4),(4.21818007484616,4.27978914050218,
4.43553902913634,4.59128891777051,4.74703880640467,4.90789566693975,5.06875252747483,
5.12815185706037),.UNSPECIFIED.);
#36=B_SPLINE_CURVE_WITH_KNOTS('',3,(#1539,#1540,#1541,#1542,#1543,#1544,
#1545,#1546,#1547,#1548,#1549,#1550,#1551,#1552,#1553,#1554,#1555,#1556,
#1557,#1558),.UNSPECIFIED.,.F.,.F.,(4,2,2,2,2,2,2,2,2,4),(0.766970830118707,
0.785870015217026,0.919068867981836,1.05226772074665,1.18390785979793,1.31554799884922,
1.44718813790051,1.5788282769518,1.71202712971661,1.82951692134067),
 .UNSPECIFIED.);
#37=B_SPLINE_CURVE_WITH_KNOTS('',3,(#1561,#1562,#1563,#1564,#1565,#1566,
#1567,#1568,#1569,#1570,#1571,#1572,#1573,#1574,#1575,#1576,#1577,#1578,
#1579,#1580),.UNSPECIFIED.,.F.,.F.,(4,2,2,2,2,2,2,2,2,4),(3.43267507405621,
3.55016486568028,3.68336371844509,3.81500385749638,3.94664399654766,4.07828413559895,
4.20992427465024,4.34312312741505,4.47632198017986,4.49522116527818),
 .UNSPECIFIED.);
#38=B_SPLINE_SURFACE_WITH_KNOTS('',3,3,((#1031,#1032,#1033,#1034,#1035,
#1036,#1037,#1038,#1039,#1040,#1041,#1042,#1043,#1044,#1045,#1046,#1047,
#1048,#1049,#1050,#1051),(#1052,#1053,#1054,#1055,#1056,#1057,#1058,#1059,
#1060,#1061,#1062,#1063,#1064,#1065,#1066,#1067,#1068,#1069,#1070,#1071,
#1072),(#1073,#1074,#1075,#1076,#1077,#1078,#1079,#1080,#1081,#1082,#1083,
#1084,#1085,#1086,#1087,#1088,#1089,#1090,#1091,#1092,#1093),(#1094,#1095,
#1096,#1097,#1098,#1099,#1100,#1101,#1102,#1103,#1104,#1105,#1106,#1107,
#1108,#1109,#1110,#1111,#1112,#1113,#1114),(#1115,#1116,#1117,#1118,#1119,
#1120,#1121,#1122,#1123,#1124,#1125,#1126,#1127,#1128,#1129,#1130,#1131,
#1132,#1133,#1134,#1135)),.UNSPECIFIED.,.F.,.T.,.F.,(4,1,4),(4,1,1,1,1,
1,1,1,1,1,1,1,1,1,1,1,1,1,4),(0.,0.571428571428571,1.),(-3.14159265358979,
-2.91719317833338,-2.69279370307697,-2.24399475256414,-1.79519580205131,
-1.34639685153848,-1.0471975511966,-0.747998250854713,-0.448798950512828,
-0.149599650170943,0.149599650170943,0.448798950512828,0.747998250854713,
1.34639685153848,1.64559615188037,2.24399475256414,2.69279370307697,2.91719317833338,
3.14159265358979),.UNSPECIFIED.);
#39=B_SPLINE_SURFACE_WITH_KNOTS('',3,3,((#1228,#1229,#1230,#1231,#1232,
#1233,#1234,#1235,#1236,#1237,#1238,#1239,#1240,#1241,#1242,#1243,#1244,
#1245,#1246,#1247,#1248),(#1249,#1250,#1251,#1252,#1253,#1254,#1255,#1256,
#1257,#1258,#1259,#1260,#1261,#1262,#1263,#1264,#1265,#1266,#1267,#1268,
#1269),(#1270,#1271,#1272,#1273,#1274,#1275,#1276,#1277,#1278,#1279,#1280,
#1281,#1282,#1283,#1284,#1285,#1286,#1287,#1288,#1289,#1290),(#1291,#1292,
#1293,#1294,#1295,#1296,#1297,#1298,#1299,#1300,#1301,#1302,#1303,#1304,
#1305,#1306,#1307,#1308,#1309,#1310,#1311),(#1312,#1313,#1314,#1315,#1316,
#1317,#1318,#1319,#1320,#1321,#1322,#1323,#1324,#1325,#1326,#1327,#1328,
#1329,#1330,#1331,#1332)),.UNSPECIFIED.,.F.,.T.,.F.,(4,1,4),(4,1,1,1,1,
1,1,1,1,1,1,1,1,1,1,1,1,1,4),(0.,0.571428571428571,1.),(-3.14159265358979,
-2.91719317833338,-2.69279370307697,-2.24399475256414,-1.79519580205131,
-1.34639685153848,-1.0471975511966,-0.747998250854713,-0.448798950512828,
-0.149599650170943,0.149599650170943,0.448798950512828,0.747998250854713,
1.34639685153848,1.64559615188037,2.24399475256414,2.69279370307697,2.91719317833338,
3.14159265358979),.UNSPECIFIED.);
#40=PLANE('',#727);
#41=PLANE('',#728);
#42=PLANE('',#735);
#43=PLANE('',#737);
#44=PLANE('',#742);
#45=PLANE('',#746);
#46=PLANE('',#747);
#47=PLANE('',#751);
#48=PLANE('',#755);
#49=PLANE('',#757);
#50=PLANE('',#758);
#51=PLANE('',#761);
#52=PLANE('',#763);
#53=PLANE('',#769);
#54=PLANE('',#774);
#55=PLANE('',#785);
#56=PLANE('',#786);
#57=PLANE('',#787);
#58=FACE_OUTER_BOUND('',#95,.T.);
#59=FACE_OUTER_BOUND('',#96,.T.);
#60=FACE_OUTER_BOUND('',#97,.T.);
#61=FACE_OUTER_BOUND('',#98,.T.);
#62=FACE_OUTER_BOUND('',#99,.T.);
#63=FACE_OUTER_BOUND('',#100,.T.);
#64=FACE_OUTER_BOUND('',#102,.T.);
#65=FACE_OUTER_BOUND('',#103,.T.);
#66=FACE_OUTER_BOUND('',#105,.T.);
#67=FACE_OUTER_BOUND('',#106,.T.);
#68=FACE_OUTER_BOUND('',#107,.T.);
#69=FACE_OUTER_BOUND('',#108,.T.);
#70=FACE_OUTER_BOUND('',#109,.T.);
#71=FACE_OUTER_BOUND('',#110,.T.);
#72=FACE_OUTER_BOUND('',#111,.T.);
#73=FACE_OUTER_BOUND('',#112,.T.);
#74=FACE_OUTER_BOUND('',#113,.T.);
#75=FACE_OUTER_BOUND('',#114,.T.);
#76=FACE_OUTER_BOUND('',#115,.T.);
#77=FACE_OUTER_BOUND('',#116,.T.);
#78=FACE_OUTER_BOUND('',#117,.T.);
#79=FACE_OUTER_BOUND('',#118,.T.);
#80=FACE_OUTER_BOUND('',#119,.T.);
#81=FACE_OUTER_BOUND('',#120,.T.);
#82=FACE_OUTER_BOUND('',#121,.T.);
#83=FACE_OUTER_BOUND('',#122,.T.);
#84=FACE_OUTER_BOUND('',#123,.T.);
#85=FACE_OUTER_BOUND('',#124,.T.);
#86=FACE_OUTER_BOUND('',#125,.T.);
#87=FACE_OUTER_BOUND('',#126,.T.);
#88=FACE_OUTER_BOUND('',#127,.T.);
#89=FACE_OUTER_BOUND('',#128,.T.);
#90=FACE_OUTER_BOUND('',#129,.T.);
#91=FACE_OUTER_BOUND('',#130,.T.);
#92=FACE_OUTER_BOUND('',#131,.T.);
#93=FACE_OUTER_BOUND('',#132,.T.);
#94=FACE_OUTER_BOUND('',#133,.T.);
#95=EDGE_LOOP('',(#451,#452,#453,#454));
#96=EDGE_LOOP('',(#455,#456,#457,#458));
#97=EDGE_LOOP('',(#459,#460,#461,#462,#463,#464,#465,#466,#467,#468,#469,
#470,#471,#472,#473,#474,#475,#476,#477));
#98=EDGE_LOOP('',(#478,#479,#480,#481));
#99=EDGE_LOOP('',(#482,#483,#484,#485));
#100=EDGE_LOOP('',(#486,#487,#488,#489));
#101=EDGE_LOOP('',(#490));
#102=EDGE_LOOP('',(#491,#492,#493,#494));
#103=EDGE_LOOP('',(#495,#496,#497,#498,#499,#500,#501,#502));
#104=EDGE_LOOP('',(#503));
#105=EDGE_LOOP('',(#504,#505,#506,#507,#508,#509,#510,#511));
#106=EDGE_LOOP('',(#512,#513,#514,#515));
#107=EDGE_LOOP('',(#516,#517,#518,#519,#520,#521,#522,#523));
#108=EDGE_LOOP('',(#524,#525,#526,#527,#528,#529,#530,#531,#532,#533));
#109=EDGE_LOOP('',(#534,#535,#536,#537));
#110=EDGE_LOOP('',(#538,#539,#540,#541,#542));
#111=EDGE_LOOP('',(#543,#544,#545,#546));
#112=EDGE_LOOP('',(#547,#548,#549,#550));
#113=EDGE_LOOP('',(#551,#552,#553,#554));
#114=EDGE_LOOP('',(#555,#556,#557,#558));
#115=EDGE_LOOP('',(#559,#560,#561,#562));
#116=EDGE_LOOP('',(#563,#564,#565,#566,#567,#568,#569,#570,#571,#572,#573,
#574,#575,#576,#577,#578,#579,#580,#581));
#117=EDGE_LOOP('',(#582,#583,#584,#585));
#118=EDGE_LOOP('',(#586,#587,#588,#589,#590));
#119=EDGE_LOOP('',(#591,#592,#593,#594));
#120=EDGE_LOOP('',(#595,#596,#597,#598));
#121=EDGE_LOOP('',(#599,#600,#601,#602,#603,#604));
#122=EDGE_LOOP('',(#605,#606,#607,#608));
#123=EDGE_LOOP('',(#609,#610,#611));
#124=EDGE_LOOP('',(#612,#613,#614));
#125=EDGE_LOOP('',(#615,#616,#617,#618));
#126=EDGE_LOOP('',(#619,#620,#621,#622));
#127=EDGE_LOOP('',(#623,#624,#625,#626));
#128=EDGE_LOOP('',(#627,#628,#629,#630));
#129=EDGE_LOOP('',(#631,#632,#633,#634));
#130=EDGE_LOOP('',(#635,#636,#637,#638,#639,#640,#641,#642));
#131=EDGE_LOOP('',(#643,#644,#645,#646));
#132=EDGE_LOOP('',(#647,#648,#649,#650,#651,#652));
#133=EDGE_LOOP('',(#653,#654,#655,#656));
#134=LINE('',#987,#197);
#135=LINE('',#990,#198);
#136=LINE('',#993,#199);
#137=LINE('',#995,#200);
#138=LINE('',#996,#201);
#139=LINE('',#999,#202);
#140=LINE('',#1001,#203);
#141=LINE('',#1005,#204);
#142=LINE('',#1007,#205);
#143=LINE('',#1009,#206);
#144=LINE('',#1011,#207);
#145=LINE('',#1015,#208);
#146=LINE('',#1019,#209);
#147=LINE('',#1021,#210);
#148=LINE('',#1023,#211);
#149=LINE('',#1025,#212);
#150=LINE('',#1029,#213);
#151=LINE('',#1221,#214);
#152=LINE('',#1224,#215);
#153=LINE('',#1226,#216);
#154=LINE('',#1227,#217);
#155=LINE('',#1359,#218);
#156=LINE('',#1363,#219);
#157=LINE('',#1367,#220);
#158=LINE('',#1373,#221);
#159=LINE('',#1375,#222);
#160=LINE('',#1379,#223);
#161=LINE('',#1383,#224);
#162=LINE('',#1385,#225);
#163=LINE('',#1389,#226);
#164=LINE('',#1391,#227);
#165=LINE('',#1392,#228);
#166=LINE('',#1395,#229);
#167=LINE('',#1399,#230);
#168=LINE('',#1401,#231);
#169=LINE('',#1405,#232);
#170=LINE('',#1409,#233);
#171=LINE('',#1413,#234);
#172=LINE('',#1414,#235);
#173=LINE('',#1417,#236);
#174=LINE('',#1420,#237);
#175=LINE('',#1439,#238);
#176=LINE('',#1441,#239);
#177=LINE('',#1445,#240);
#178=LINE('',#1446,#241);
#179=LINE('',#1448,#242);
#180=LINE('',#1449,#243);
#181=LINE('',#1452,#244);
#182=LINE('',#1456,#245);
#183=LINE('',#1457,#246);
#184=LINE('',#1459,#247);
#185=LINE('',#1463,#248);
#186=LINE('',#1467,#249);
#187=LINE('',#1468,#250);
#188=LINE('',#1470,#251);
#189=LINE('',#1474,#252);
#190=LINE('',#1475,#253);
#191=LINE('',#1494,#254);
#192=LINE('',#1532,#255);
#193=LINE('',#1534,#256);
#194=LINE('',#1560,#257);
#195=LINE('',#1588,#258);
#196=LINE('',#1589,#259);
#197=VECTOR('',#794,10.);
#198=VECTOR('',#797,10.);
#199=VECTOR('',#800,10.);
#200=VECTOR('',#801,10.);
#201=VECTOR('',#802,10.);
#202=VECTOR('',#805,10.);
#203=VECTOR('',#806,10.);
#204=VECTOR('',#809,10.);
#205=VECTOR('',#810,10.);
#206=VECTOR('',#811,10.);
#207=VECTOR('',#812,10.);
#208=VECTOR('',#815,10.);
#209=VECTOR('',#818,10.);
#210=VECTOR('',#819,10.);
#211=VECTOR('',#820,10.);
#212=VECTOR('',#821,10.);
#213=VECTOR('',#824,10.);
#214=VECTOR('',#829,19.);
#215=VECTOR('',#832,10.);
#216=VECTOR('',#833,10.);
#217=VECTOR('',#834,10.);
#218=VECTOR('',#839,5.);
#219=VECTOR('',#842,10.);
#220=VECTOR('',#845,5.);
#221=VECTOR('',#852,10.);
#222=VECTOR('',#853,10.);
#223=VECTOR('',#856,10.);
#224=VECTOR('',#859,10.);
#225=VECTOR('',#860,10.);
#226=VECTOR('',#865,10.);
#227=VECTOR('',#866,10.);
#228=VECTOR('',#867,10.);
#229=VECTOR('',#870,10.);
#230=VECTOR('',#873,10.);
#231=VECTOR('',#874,10.);
#232=VECTOR('',#877,10.);
#233=VECTOR('',#882,5.);
#234=VECTOR('',#885,10.);
#235=VECTOR('',#886,10.);
#236=VECTOR('',#889,5.);
#237=VECTOR('',#892,5.);
#238=VECTOR('',#895,10.);
#239=VECTOR('',#896,10.);
#240=VECTOR('',#901,10.);
#241=VECTOR('',#902,10.);
#242=VECTOR('',#905,10.);
#243=VECTOR('',#906,10.);
#244=VECTOR('',#909,10.);
#245=VECTOR('',#914,10.);
#246=VECTOR('',#915,10.);
#247=VECTOR('',#918,10.);
#248=VECTOR('',#925,10.);
#249=VECTOR('',#928,10.);
#250=VECTOR('',#929,10.);
#251=VECTOR('',#930,10.);
#252=VECTOR('',#933,10.);
#253=VECTOR('',#934,10.);
#254=VECTOR('',#937,5.);
#255=VECTOR('',#948,5.);
#256=VECTOR('',#951,10.);
#257=VECTOR('',#958,5.);
#258=VECTOR('',#973,10.);
#259=VECTOR('',#974,10.);
#260=CIRCLE('',#725,3.);
#261=CIRCLE('',#726,3.);
#262=CIRCLE('',#729,5.);
#263=CIRCLE('',#730,5.);
#264=CIRCLE('',#731,2.);
#265=CIRCLE('',#732,5.);
#266=CIRCLE('',#733,5.);
#267=CIRCLE('',#734,1.5);
#268=CIRCLE('',#736,1.5);
#269=CIRCLE('',#743,5.);
#270=CIRCLE('',#744,2.);
#271=CIRCLE('',#745,5.);
#272=CIRCLE('',#748,5.);
#273=CIRCLE('',#749,2.);
#274=CIRCLE('',#750,5.);
#275=CIRCLE('',#760,2.);
#276=CIRCLE('',#764,5.);
#277=CIRCLE('',#765,5.);
#278=CIRCLE('',#766,5.);
#279=CIRCLE('',#767,5.);
#280=VERTEX_POINT('',#983);
#281=VERTEX_POINT('',#984);
#282=VERTEX_POINT('',#986);
#283=VERTEX_POINT('',#988);
#284=VERTEX_POINT('',#992);
#285=VERTEX_POINT('',#994);
#286=VERTEX_POINT('',#998);
#287=VERTEX_POINT('',#1000);
#288=VERTEX_POINT('',#1002);
#289=VERTEX_POINT('',#1004);
#290=VERTEX_POINT('',#1006);
#291=VERTEX_POINT('',#1008);
#292=VERTEX_POINT('',#1010);
#293=VERTEX_POINT('',#1012);
#294=VERTEX_POINT('',#1014);
#295=VERTEX_POINT('',#1016);
#296=VERTEX_POINT('',#1018);
#297=VERTEX_POINT('',#1020);
#298=VERTEX_POINT('',#1022);
#299=VERTEX_POINT('',#1024);
#300=VERTEX_POINT('',#1026);
#301=VERTEX_POINT('',#1028);
#302=VERTEX_POINT('',#1136);
#303=VERTEX_POINT('',#1137);
#304=VERTEX_POINT('',#1199);
#305=VERTEX_POINT('',#1223);
#306=VERTEX_POINT('',#1225);
#307=VERTEX_POINT('',#1333);
#308=VERTEX_POINT('',#1357);
#309=VERTEX_POINT('',#1358);
#310=VERTEX_POINT('',#1360);
#311=VERTEX_POINT('',#1362);
#312=VERTEX_POINT('',#1364);
#313=VERTEX_POINT('',#1366);
#314=VERTEX_POINT('',#1371);
#315=VERTEX_POINT('',#1372);
#316=VERTEX_POINT('',#1374);
#317=VERTEX_POINT('',#1376);
#318=VERTEX_POINT('',#1378);
#319=VERTEX_POINT('',#1380);
#320=VERTEX_POINT('',#1382);
#321=VERTEX_POINT('',#1384);
#322=VERTEX_POINT('',#1388);
#323=VERTEX_POINT('',#1390);
#324=VERTEX_POINT('',#1394);
#325=VERTEX_POINT('',#1396);
#326=VERTEX_POINT('',#1398);
#327=VERTEX_POINT('',#1400);
#328=VERTEX_POINT('',#1402);
#329=VERTEX_POINT('',#1404);
#330=VERTEX_POINT('',#1408);
#331=VERTEX_POINT('',#1410);
#332=VERTEX_POINT('',#1412);
#333=VERTEX_POINT('',#1415);
#334=VERTEX_POINT('',#1419);
#335=VERTEX_POINT('',#1438);
#336=VERTEX_POINT('',#1440);
#337=VERTEX_POINT('',#1444);
#338=VERTEX_POINT('',#1451);
#339=VERTEX_POINT('',#1455);
#340=VERTEX_POINT('',#1464);
#341=VERTEX_POINT('',#1466);
#342=VERTEX_POINT('',#1469);
#343=VERTEX_POINT('',#1471);
#344=VERTEX_POINT('',#1473);
#345=VERTEX_POINT('',#1477);
#346=VERTEX_POINT('',#1538);
#347=VERTEX_POINT('',#1559);
#348=EDGE_CURVE('',#280,#281,#260,.T.);
#349=EDGE_CURVE('',#281,#282,#134,.T.);
#350=EDGE_CURVE('',#282,#283,#261,.T.);
#351=EDGE_CURVE('',#283,#280,#135,.T.);
#352=EDGE_CURVE('',#284,#281,#136,.T.);
#353=EDGE_CURVE('',#285,#284,#137,.T.);
#354=EDGE_CURVE('',#285,#282,#138,.T.);
#355=EDGE_CURVE('',#280,#286,#139,.T.);
#356=EDGE_CURVE('',#286,#287,#140,.T.);
#357=EDGE_CURVE('',#288,#287,#262,.T.);
#358=EDGE_CURVE('',#289,#288,#141,.T.);
#359=EDGE_CURVE('',#289,#290,#142,.T.);
#360=EDGE_CURVE('',#291,#290,#143,.T.);
#361=EDGE_CURVE('',#291,#292,#144,.T.);
#362=EDGE_CURVE('',#293,#292,#263,.T.);
#363=EDGE_CURVE('',#293,#294,#145,.T.);
#364=EDGE_CURVE('',#295,#294,#264,.T.);
#365=EDGE_CURVE('',#295,#296,#146,.T.);
#366=EDGE_CURVE('',#296,#297,#147,.T.);
#367=EDGE_CURVE('',#298,#297,#148,.T.);
#368=EDGE_CURVE('',#298,#299,#149,.T.);
#369=EDGE_CURVE('',#300,#299,#265,.T.);
#370=EDGE_CURVE('',#300,#301,#150,.T.);
#371=EDGE_CURVE('',#284,#301,#266,.T.);
#372=EDGE_CURVE('',#302,#303,#267,.T.);
#373=EDGE_CURVE('',#303,#303,#28,.T.);
#374=EDGE_CURVE('',#302,#302,#29,.T.);
#375=EDGE_CURVE('',#304,#304,#30,.T.);
#376=EDGE_CURVE('',#304,#303,#151,.T.);
#377=EDGE_CURVE('',#301,#305,#152,.T.);
#378=EDGE_CURVE('',#306,#300,#153,.T.);
#379=EDGE_CURVE('',#306,#305,#154,.T.);
#380=EDGE_CURVE('',#307,#304,#268,.T.);
#381=EDGE_CURVE('',#307,#307,#31,.T.);
#382=EDGE_CURVE('',#308,#309,#155,.T.);
#383=EDGE_CURVE('',#310,#308,#15,.T.);
#384=EDGE_CURVE('',#310,#311,#156,.T.);
#385=EDGE_CURVE('',#312,#311,#16,.T.);
#386=EDGE_CURVE('',#313,#312,#157,.T.);
#387=EDGE_CURVE('',#290,#313,#17,.T.);
#388=EDGE_CURVE('',#309,#289,#18,.T.);
#389=EDGE_CURVE('',#314,#315,#158,.T.);
#390=EDGE_CURVE('',#314,#316,#159,.T.);
#391=EDGE_CURVE('',#317,#316,#269,.T.);
#392=EDGE_CURVE('',#318,#317,#160,.T.);
#393=EDGE_CURVE('',#319,#318,#270,.T.);
#394=EDGE_CURVE('',#320,#319,#161,.T.);
#395=EDGE_CURVE('',#321,#320,#162,.T.);
#396=EDGE_CURVE('',#315,#321,#271,.T.);
#397=EDGE_CURVE('',#322,#314,#163,.T.);
#398=EDGE_CURVE('',#323,#322,#164,.T.);
#399=EDGE_CURVE('',#316,#323,#165,.T.);
#400=EDGE_CURVE('',#324,#322,#166,.T.);
#401=EDGE_CURVE('',#325,#324,#272,.T.);
#402=EDGE_CURVE('',#326,#325,#167,.T.);
#403=EDGE_CURVE('',#327,#326,#168,.T.);
#404=EDGE_CURVE('',#328,#327,#273,.T.);
#405=EDGE_CURVE('',#329,#328,#169,.T.);
#406=EDGE_CURVE('',#323,#329,#274,.T.);
#407=EDGE_CURVE('',#330,#315,#170,.T.);
#408=EDGE_CURVE('',#331,#330,#19,.T.);
#409=EDGE_CURVE('',#331,#332,#171,.T.);
#410=EDGE_CURVE('',#299,#332,#172,.T.);
#411=EDGE_CURVE('',#333,#298,#20,.T.);
#412=EDGE_CURVE('',#324,#333,#173,.T.);
#413=EDGE_CURVE('',#321,#334,#174,.T.);
#414=EDGE_CURVE('',#334,#330,#32,.T.);
#415=EDGE_CURVE('',#335,#320,#175,.T.);
#416=EDGE_CURVE('',#336,#335,#176,.T.);
#417=EDGE_CURVE('',#334,#336,#21,.T.);
#418=EDGE_CURVE('',#337,#319,#177,.T.);
#419=EDGE_CURVE('',#337,#335,#178,.T.);
#420=EDGE_CURVE('',#326,#296,#179,.T.);
#421=EDGE_CURVE('',#327,#295,#180,.T.);
#422=EDGE_CURVE('',#318,#338,#181,.T.);
#423=EDGE_CURVE('',#338,#337,#275,.T.);
#424=EDGE_CURVE('',#339,#317,#182,.T.);
#425=EDGE_CURVE('',#339,#338,#183,.T.);
#426=EDGE_CURVE('',#294,#328,#184,.T.);
#427=EDGE_CURVE('',#305,#285,#276,.T.);
#428=EDGE_CURVE('',#332,#306,#277,.T.);
#429=EDGE_CURVE('',#336,#331,#185,.T.);
#430=EDGE_CURVE('',#340,#339,#278,.T.);
#431=EDGE_CURVE('',#341,#340,#186,.T.);
#432=EDGE_CURVE('',#311,#341,#187,.T.);
#433=EDGE_CURVE('',#342,#310,#188,.T.);
#434=EDGE_CURVE('',#343,#342,#279,.T.);
#435=EDGE_CURVE('',#344,#343,#189,.T.);
#436=EDGE_CURVE('',#283,#344,#190,.T.);
#437=EDGE_CURVE('',#333,#345,#33,.T.);
#438=EDGE_CURVE('',#345,#325,#191,.T.);
#439=EDGE_CURVE('',#297,#345,#22,.T.);
#440=EDGE_CURVE('',#342,#308,#34,.T.);
#441=EDGE_CURVE('',#309,#288,#35,.T.);
#442=EDGE_CURVE('',#287,#343,#192,.T.);
#443=EDGE_CURVE('',#344,#286,#193,.T.);
#444=EDGE_CURVE('',#312,#346,#36,.T.);
#445=EDGE_CURVE('',#346,#347,#194,.T.);
#446=EDGE_CURVE('',#347,#313,#37,.T.);
#447=EDGE_CURVE('',#347,#291,#23,.T.);
#448=EDGE_CURVE('',#341,#346,#24,.T.);
#449=EDGE_CURVE('',#329,#293,#195,.T.);
#450=EDGE_CURVE('',#292,#340,#196,.T.);
#451=ORIENTED_EDGE('',*,*,#348,.T.);
#452=ORIENTED_EDGE('',*,*,#349,.T.);
#453=ORIENTED_EDGE('',*,*,#350,.T.);
#454=ORIENTED_EDGE('',*,*,#351,.T.);
#455=ORIENTED_EDGE('',*,*,#349,.F.);
#456=ORIENTED_EDGE('',*,*,#352,.F.);
#457=ORIENTED_EDGE('',*,*,#353,.F.);
#458=ORIENTED_EDGE('',*,*,#354,.T.);
#459=ORIENTED_EDGE('',*,*,#348,.F.);
#460=ORIENTED_EDGE('',*,*,#355,.T.);
#461=ORIENTED_EDGE('',*,*,#356,.T.);
#462=ORIENTED_EDGE('',*,*,#357,.F.);
#463=ORIENTED_EDGE('',*,*,#358,.F.);
#464=ORIENTED_EDGE('',*,*,#359,.T.);
#465=ORIENTED_EDGE('',*,*,#360,.F.);
#466=ORIENTED_EDGE('',*,*,#361,.T.);
#467=ORIENTED_EDGE('',*,*,#362,.F.);
#468=ORIENTED_EDGE('',*,*,#363,.T.);
#469=ORIENTED_EDGE('',*,*,#364,.F.);
#470=ORIENTED_EDGE('',*,*,#365,.T.);
#471=ORIENTED_EDGE('',*,*,#366,.T.);
#472=ORIENTED_EDGE('',*,*,#367,.F.);
#473=ORIENTED_EDGE('',*,*,#368,.T.);
#474=ORIENTED_EDGE('',*,*,#369,.F.);
#475=ORIENTED_EDGE('',*,*,#370,.T.);
#476=ORIENTED_EDGE('',*,*,#371,.F.);
#477=ORIENTED_EDGE('',*,*,#352,.T.);
#478=ORIENTED_EDGE('',*,*,#372,.T.);
#479=ORIENTED_EDGE('',*,*,#373,.T.);
#480=ORIENTED_EDGE('',*,*,#372,.F.);
#481=ORIENTED_EDGE('',*,*,#374,.T.);
#482=ORIENTED_EDGE('',*,*,#375,.F.);
#483=ORIENTED_EDGE('',*,*,#376,.T.);
#484=ORIENTED_EDGE('',*,*,#373,.F.);
#485=ORIENTED_EDGE('',*,*,#376,.F.);
#486=ORIENTED_EDGE('',*,*,#377,.F.);
#487=ORIENTED_EDGE('',*,*,#370,.F.);
#488=ORIENTED_EDGE('',*,*,#378,.F.);
#489=ORIENTED_EDGE('',*,*,#379,.T.);
#490=ORIENTED_EDGE('',*,*,#374,.F.);
#491=ORIENTED_EDGE('',*,*,#380,.T.);
#492=ORIENTED_EDGE('',*,*,#375,.T.);
#493=ORIENTED_EDGE('',*,*,#380,.F.);
#494=ORIENTED_EDGE('',*,*,#381,.T.);
#495=ORIENTED_EDGE('',*,*,#382,.F.);
#496=ORIENTED_EDGE('',*,*,#383,.F.);
#497=ORIENTED_EDGE('',*,*,#384,.T.);
#498=ORIENTED_EDGE('',*,*,#385,.F.);
#499=ORIENTED_EDGE('',*,*,#386,.F.);
#500=ORIENTED_EDGE('',*,*,#387,.F.);
#501=ORIENTED_EDGE('',*,*,#359,.F.);
#502=ORIENTED_EDGE('',*,*,#388,.F.);
#503=ORIENTED_EDGE('',*,*,#381,.F.);
#504=ORIENTED_EDGE('',*,*,#389,.F.);
#505=ORIENTED_EDGE('',*,*,#390,.T.);
#506=ORIENTED_EDGE('',*,*,#391,.F.);
#507=ORIENTED_EDGE('',*,*,#392,.F.);
#508=ORIENTED_EDGE('',*,*,#393,.F.);
#509=ORIENTED_EDGE('',*,*,#394,.F.);
#510=ORIENTED_EDGE('',*,*,#395,.F.);
#511=ORIENTED_EDGE('',*,*,#396,.F.);
#512=ORIENTED_EDGE('',*,*,#397,.F.);
#513=ORIENTED_EDGE('',*,*,#398,.F.);
#514=ORIENTED_EDGE('',*,*,#399,.F.);
#515=ORIENTED_EDGE('',*,*,#390,.F.);
#516=ORIENTED_EDGE('',*,*,#400,.F.);
#517=ORIENTED_EDGE('',*,*,#401,.F.);
#518=ORIENTED_EDGE('',*,*,#402,.F.);
#519=ORIENTED_EDGE('',*,*,#403,.F.);
#520=ORIENTED_EDGE('',*,*,#404,.F.);
#521=ORIENTED_EDGE('',*,*,#405,.F.);
#522=ORIENTED_EDGE('',*,*,#406,.F.);
#523=ORIENTED_EDGE('',*,*,#398,.T.);
#524=ORIENTED_EDGE('',*,*,#400,.T.);
#525=ORIENTED_EDGE('',*,*,#397,.T.);
#526=ORIENTED_EDGE('',*,*,#389,.T.);
#527=ORIENTED_EDGE('',*,*,#407,.F.);
#528=ORIENTED_EDGE('',*,*,#408,.F.);
#529=ORIENTED_EDGE('',*,*,#409,.T.);
#530=ORIENTED_EDGE('',*,*,#410,.F.);
#531=ORIENTED_EDGE('',*,*,#368,.F.);
#532=ORIENTED_EDGE('',*,*,#411,.F.);
#533=ORIENTED_EDGE('',*,*,#412,.F.);
#534=ORIENTED_EDGE('',*,*,#396,.T.);
#535=ORIENTED_EDGE('',*,*,#413,.T.);
#536=ORIENTED_EDGE('',*,*,#414,.T.);
#537=ORIENTED_EDGE('',*,*,#407,.T.);
#538=ORIENTED_EDGE('',*,*,#395,.T.);
#539=ORIENTED_EDGE('',*,*,#415,.F.);
#540=ORIENTED_EDGE('',*,*,#416,.F.);
#541=ORIENTED_EDGE('',*,*,#417,.F.);
#542=ORIENTED_EDGE('',*,*,#413,.F.);
#543=ORIENTED_EDGE('',*,*,#394,.T.);
#544=ORIENTED_EDGE('',*,*,#418,.F.);
#545=ORIENTED_EDGE('',*,*,#419,.T.);
#546=ORIENTED_EDGE('',*,*,#415,.T.);
#547=ORIENTED_EDGE('',*,*,#403,.T.);
#548=ORIENTED_EDGE('',*,*,#420,.T.);
#549=ORIENTED_EDGE('',*,*,#365,.F.);
#550=ORIENTED_EDGE('',*,*,#421,.F.);
#551=ORIENTED_EDGE('',*,*,#393,.T.);
#552=ORIENTED_EDGE('',*,*,#422,.T.);
#553=ORIENTED_EDGE('',*,*,#423,.T.);
#554=ORIENTED_EDGE('',*,*,#418,.T.);
#555=ORIENTED_EDGE('',*,*,#392,.T.);
#556=ORIENTED_EDGE('',*,*,#424,.F.);
#557=ORIENTED_EDGE('',*,*,#425,.T.);
#558=ORIENTED_EDGE('',*,*,#422,.F.);
#559=ORIENTED_EDGE('',*,*,#404,.T.);
#560=ORIENTED_EDGE('',*,*,#421,.T.);
#561=ORIENTED_EDGE('',*,*,#364,.T.);
#562=ORIENTED_EDGE('',*,*,#426,.T.);
#563=ORIENTED_EDGE('',*,*,#350,.F.);
#564=ORIENTED_EDGE('',*,*,#354,.F.);
#565=ORIENTED_EDGE('',*,*,#427,.F.);
#566=ORIENTED_EDGE('',*,*,#379,.F.);
#567=ORIENTED_EDGE('',*,*,#428,.F.);
#568=ORIENTED_EDGE('',*,*,#409,.F.);
#569=ORIENTED_EDGE('',*,*,#429,.F.);
#570=ORIENTED_EDGE('',*,*,#416,.T.);
#571=ORIENTED_EDGE('',*,*,#419,.F.);
#572=ORIENTED_EDGE('',*,*,#423,.F.);
#573=ORIENTED_EDGE('',*,*,#425,.F.);
#574=ORIENTED_EDGE('',*,*,#430,.F.);
#575=ORIENTED_EDGE('',*,*,#431,.F.);
#576=ORIENTED_EDGE('',*,*,#432,.F.);
#577=ORIENTED_EDGE('',*,*,#384,.F.);
#578=ORIENTED_EDGE('',*,*,#433,.F.);
#579=ORIENTED_EDGE('',*,*,#434,.F.);
#580=ORIENTED_EDGE('',*,*,#435,.F.);
#581=ORIENTED_EDGE('',*,*,#436,.F.);
#582=ORIENTED_EDGE('',*,*,#401,.T.);
#583=ORIENTED_EDGE('',*,*,#412,.T.);
#584=ORIENTED_EDGE('',*,*,#437,.T.);
#585=ORIENTED_EDGE('',*,*,#438,.T.);
#586=ORIENTED_EDGE('',*,*,#402,.T.);
#587=ORIENTED_EDGE('',*,*,#438,.F.);
#588=ORIENTED_EDGE('',*,*,#439,.F.);
#589=ORIENTED_EDGE('',*,*,#366,.F.);
#590=ORIENTED_EDGE('',*,*,#420,.F.);
#591=ORIENTED_EDGE('',*,*,#437,.F.);
#592=ORIENTED_EDGE('',*,*,#411,.T.);
#593=ORIENTED_EDGE('',*,*,#367,.T.);
#594=ORIENTED_EDGE('',*,*,#439,.T.);
#595=ORIENTED_EDGE('',*,*,#414,.F.);
#596=ORIENTED_EDGE('',*,*,#417,.T.);
#597=ORIENTED_EDGE('',*,*,#429,.T.);
#598=ORIENTED_EDGE('',*,*,#408,.T.);
#599=ORIENTED_EDGE('',*,*,#440,.T.);
#600=ORIENTED_EDGE('',*,*,#382,.T.);
#601=ORIENTED_EDGE('',*,*,#441,.T.);
#602=ORIENTED_EDGE('',*,*,#357,.T.);
#603=ORIENTED_EDGE('',*,*,#442,.T.);
#604=ORIENTED_EDGE('',*,*,#434,.T.);
#605=ORIENTED_EDGE('',*,*,#442,.F.);
#606=ORIENTED_EDGE('',*,*,#356,.F.);
#607=ORIENTED_EDGE('',*,*,#443,.F.);
#608=ORIENTED_EDGE('',*,*,#435,.T.);
#609=ORIENTED_EDGE('',*,*,#441,.F.);
#610=ORIENTED_EDGE('',*,*,#388,.T.);
#611=ORIENTED_EDGE('',*,*,#358,.T.);
#612=ORIENTED_EDGE('',*,*,#440,.F.);
#613=ORIENTED_EDGE('',*,*,#433,.T.);
#614=ORIENTED_EDGE('',*,*,#383,.T.);
#615=ORIENTED_EDGE('',*,*,#444,.T.);
#616=ORIENTED_EDGE('',*,*,#445,.T.);
#617=ORIENTED_EDGE('',*,*,#446,.T.);
#618=ORIENTED_EDGE('',*,*,#386,.T.);
#619=ORIENTED_EDGE('',*,*,#446,.F.);
#620=ORIENTED_EDGE('',*,*,#447,.T.);
#621=ORIENTED_EDGE('',*,*,#360,.T.);
#622=ORIENTED_EDGE('',*,*,#387,.T.);
#623=ORIENTED_EDGE('',*,*,#444,.F.);
#624=ORIENTED_EDGE('',*,*,#385,.T.);
#625=ORIENTED_EDGE('',*,*,#432,.T.);
#626=ORIENTED_EDGE('',*,*,#448,.T.);
#627=ORIENTED_EDGE('',*,*,#427,.T.);
#628=ORIENTED_EDGE('',*,*,#353,.T.);
#629=ORIENTED_EDGE('',*,*,#371,.T.);
#630=ORIENTED_EDGE('',*,*,#377,.T.);
#631=ORIENTED_EDGE('',*,*,#428,.T.);
#632=ORIENTED_EDGE('',*,*,#378,.T.);
#633=ORIENTED_EDGE('',*,*,#369,.T.);
#634=ORIENTED_EDGE('',*,*,#410,.T.);
#635=ORIENTED_EDGE('',*,*,#406,.T.);
#636=ORIENTED_EDGE('',*,*,#449,.T.);
#637=ORIENTED_EDGE('',*,*,#362,.T.);
#638=ORIENTED_EDGE('',*,*,#450,.T.);
#639=ORIENTED_EDGE('',*,*,#430,.T.);
#640=ORIENTED_EDGE('',*,*,#424,.T.);
#641=ORIENTED_EDGE('',*,*,#391,.T.);
#642=ORIENTED_EDGE('',*,*,#399,.T.);
#643=ORIENTED_EDGE('',*,*,#405,.T.);
#644=ORIENTED_EDGE('',*,*,#426,.F.);
#645=ORIENTED_EDGE('',*,*,#363,.F.);
#646=ORIENTED_EDGE('',*,*,#449,.F.);
#647=ORIENTED_EDGE('',*,*,#445,.F.);
#648=ORIENTED_EDGE('',*,*,#448,.F.);
#649=ORIENTED_EDGE('',*,*,#431,.T.);
#650=ORIENTED_EDGE('',*,*,#450,.F.);
#651=ORIENTED_EDGE('',*,*,#361,.F.);
#652=ORIENTED_EDGE('',*,*,#447,.F.);
#653=ORIENTED_EDGE('',*,*,#351,.F.);
#654=ORIENTED_EDGE('',*,*,#436,.T.);
#655=ORIENTED_EDGE('',*,*,#443,.T.);
#656=ORIENTED_EDGE('',*,*,#355,.F.);
#657=CYLINDRICAL_SURFACE('',#724,3.);
#658=CYLINDRICAL_SURFACE('',#754,5.);
#659=CYLINDRICAL_SURFACE('',#759,2.);
#660=CYLINDRICAL_SURFACE('',#762,2.);
#661=CYLINDRICAL_SURFACE('',#768,5.);
#662=CYLINDRICAL_SURFACE('',#771,5.);
#663=CYLINDRICAL_SURFACE('',#772,5.);
#664=CYLINDRICAL_SURFACE('',#773,5.);
#665=CYLINDRICAL_SURFACE('',#775,5.);
#666=CYLINDRICAL_SURFACE('',#776,5.);
#667=CYLINDRICAL_SURFACE('',#777,5.00000000000001);
#668=CYLINDRICAL_SURFACE('',#778,5.);
#669=CYLINDRICAL_SURFACE('',#780,5.);
#670=CYLINDRICAL_SURFACE('',#782,5.);
#671=CYLINDRICAL_SURFACE('',#783,5.);
#672=CYLINDRICAL_SURFACE('',#784,5.);
#673=ADVANCED_FACE('',(#58),#657,.T.);
#674=ADVANCED_FACE('',(#59),#40,.T.);
#675=ADVANCED_FACE('',(#60),#41,.T.);
#676=ADVANCED_FACE('',(#61),#38,.F.);
#677=ADVANCED_FACE('',(#62),#27,.T.);
#678=ADVANCED_FACE('',(#63,#25),#42,.T.);
#679=ADVANCED_FACE('',(#64),#39,.F.);
#680=ADVANCED_FACE('',(#65,#26),#43,.T.);
#681=ADVANCED_FACE('',(#66),#44,.F.);
#682=ADVANCED_FACE('',(#67),#45,.F.);
#683=ADVANCED_FACE('',(#68),#46,.F.);
#684=ADVANCED_FACE('',(#69),#47,.T.);
#685=ADVANCED_FACE('',(#70),#658,.T.);
#686=ADVANCED_FACE('',(#71),#48,.T.);
#687=ADVANCED_FACE('',(#72),#49,.T.);
#688=ADVANCED_FACE('',(#73),#50,.T.);
#689=ADVANCED_FACE('',(#74),#659,.T.);
#690=ADVANCED_FACE('',(#75),#51,.T.);
#691=ADVANCED_FACE('',(#76),#660,.T.);
#692=ADVANCED_FACE('',(#77),#52,.T.);
#693=ADVANCED_FACE('',(#78),#661,.T.);
#694=ADVANCED_FACE('',(#79),#53,.T.);
#695=ADVANCED_FACE('',(#80),#662,.T.);
#696=ADVANCED_FACE('',(#81),#663,.T.);
#697=ADVANCED_FACE('',(#82),#664,.T.);
#698=ADVANCED_FACE('',(#83),#54,.T.);
#699=ADVANCED_FACE('',(#84),#665,.T.);
#700=ADVANCED_FACE('',(#85),#666,.T.);
#701=ADVANCED_FACE('',(#86),#667,.T.);
#702=ADVANCED_FACE('',(#87),#668,.T.);
#703=ADVANCED_FACE('',(#88),#669,.T.);
#704=ADVANCED_FACE('',(#89),#670,.F.);
#705=ADVANCED_FACE('',(#90),#671,.F.);
#706=ADVANCED_FACE('',(#91),#672,.F.);
#707=ADVANCED_FACE('',(#92),#55,.T.);
#708=ADVANCED_FACE('',(#93),#56,.T.);
#709=ADVANCED_FACE('',(#94),#57,.T.);
#710=CLOSED_SHELL('',(#673,#674,#675,#676,#677,#678,#679,#680,#681,#682,
#683,#684,#685,#686,#687,#688,#689,#690,#691,#692,#693,#694,#695,#696,#697,
#698,#699,#700,#701,#702,#703,#704,#705,#706,#707,#708,#709));
#711=DERIVED_UNIT_ELEMENT(#713,1.);
#712=DERIVED_UNIT_ELEMENT(#1598,-3.);
#713=(
MASS_UNIT()
NAMED_UNIT(*)
SI_UNIT(.KILO.,.GRAM.)
);
#714=DERIVED_UNIT((#711,#712));
#715=MEASURE_REPRESENTATION_ITEM('density measure',
POSITIVE_RATIO_MEASURE(7850.),#714);
#716=PROPERTY_DEFINITION_REPRESENTATION(#721,#718);
#717=PROPERTY_DEFINITION_REPRESENTATION(#722,#719);
#718=REPRESENTATION('material name',(#720),#1595);
#719=REPRESENTATION('density',(#715),#1595);
#720=DESCRIPTIVE_REPRESENTATION_ITEM('Steel','Steel');
#721=PROPERTY_DEFINITION('material property','material name',#1605);
#722=PROPERTY_DEFINITION('material property','density of part',#1605);
#723=AXIS2_PLACEMENT_3D('',#981,#788,#789);
#724=AXIS2_PLACEMENT_3D('',#982,#790,#791);
#725=AXIS2_PLACEMENT_3D('',#985,#792,#793);
#726=AXIS2_PLACEMENT_3D('',#989,#795,#796);
#727=AXIS2_PLACEMENT_3D('',#991,#798,#799);
#728=AXIS2_PLACEMENT_3D('',#997,#803,#804);
#729=AXIS2_PLACEMENT_3D('',#1003,#807,#808);
#730=AXIS2_PLACEMENT_3D('',#1013,#813,#814);
#731=AXIS2_PLACEMENT_3D('',#1017,#816,#817);
#732=AXIS2_PLACEMENT_3D('',#1027,#822,#823);
#733=AXIS2_PLACEMENT_3D('',#1030,#825,#826);
#734=AXIS2_PLACEMENT_3D('',#1138,#827,#828);
#735=AXIS2_PLACEMENT_3D('',#1222,#830,#831);
#736=AXIS2_PLACEMENT_3D('',#1334,#835,#836);
#737=AXIS2_PLACEMENT_3D('',#1356,#837,#838);
#738=AXIS2_PLACEMENT_3D('',#1361,#840,#841);
#739=AXIS2_PLACEMENT_3D('',#1365,#843,#844);
#740=AXIS2_PLACEMENT_3D('',#1368,#846,#847);
#741=AXIS2_PLACEMENT_3D('',#1369,#848,#849);
#742=AXIS2_PLACEMENT_3D('',#1370,#850,#851);
#743=AXIS2_PLACEMENT_3D('',#1377,#854,#855);
#744=AXIS2_PLACEMENT_3D('',#1381,#857,#858);
#745=AXIS2_PLACEMENT_3D('',#1386,#861,#862);
#746=AXIS2_PLACEMENT_3D('',#1387,#863,#864);
#747=AXIS2_PLACEMENT_3D('',#1393,#868,#869);
#748=AXIS2_PLACEMENT_3D('',#1397,#871,#872);
#749=AXIS2_PLACEMENT_3D('',#1403,#875,#876);
#750=AXIS2_PLACEMENT_3D('',#1406,#878,#879);
#751=AXIS2_PLACEMENT_3D('',#1407,#880,#881);
#752=AXIS2_PLACEMENT_3D('',#1411,#883,#884);
#753=AXIS2_PLACEMENT_3D('',#1416,#887,#888);
#754=AXIS2_PLACEMENT_3D('',#1418,#890,#891);
#755=AXIS2_PLACEMENT_3D('',#1437,#893,#894);
#756=AXIS2_PLACEMENT_3D('',#1442,#897,#898);
#757=AXIS2_PLACEMENT_3D('',#1443,#899,#900);
#758=AXIS2_PLACEMENT_3D('',#1447,#903,#904);
#759=AXIS2_PLACEMENT_3D('',#1450,#907,#908);
#760=AXIS2_PLACEMENT_3D('',#1453,#910,#911);
#761=AXIS2_PLACEMENT_3D('',#1454,#912,#913);
#762=AXIS2_PLACEMENT_3D('',#1458,#916,#917);
#763=AXIS2_PLACEMENT_3D('',#1460,#919,#920);
#764=AXIS2_PLACEMENT_3D('',#1461,#921,#922);
#765=AXIS2_PLACEMENT_3D('',#1462,#923,#924);
#766=AXIS2_PLACEMENT_3D('',#1465,#926,#927);
#767=AXIS2_PLACEMENT_3D('',#1472,#931,#932);
#768=AXIS2_PLACEMENT_3D('',#1476,#935,#936);
#769=AXIS2_PLACEMENT_3D('',#1495,#938,#939);
#770=AXIS2_PLACEMENT_3D('',#1496,#940,#941);
#771=AXIS2_PLACEMENT_3D('',#1497,#942,#943);
#772=AXIS2_PLACEMENT_3D('',#1498,#944,#945);
#773=AXIS2_PLACEMENT_3D('',#1499,#946,#947);
#774=AXIS2_PLACEMENT_3D('',#1533,#949,#950);
#775=AXIS2_PLACEMENT_3D('',#1535,#952,#953);
#776=AXIS2_PLACEMENT_3D('',#1536,#954,#955);
#777=AXIS2_PLACEMENT_3D('',#1537,#956,#957);
#778=AXIS2_PLACEMENT_3D('',#1581,#959,#960);
#779=AXIS2_PLACEMENT_3D('',#1582,#961,#962);
#780=AXIS2_PLACEMENT_3D('',#1583,#963,#964);
#781=AXIS2_PLACEMENT_3D('',#1584,#965,#966);
#782=AXIS2_PLACEMENT_3D('',#1585,#967,#968);
#783=AXIS2_PLACEMENT_3D('',#1586,#969,#970);
#784=AXIS2_PLACEMENT_3D('',#1587,#971,#972);
#785=AXIS2_PLACEMENT_3D('',#1590,#975,#976);
#786=AXIS2_PLACEMENT_3D('',#1591,#977,#978);
#787=AXIS2_PLACEMENT_3D('',#1592,#979,#980);
#788=DIRECTION('axis',(0.,0.,1.));
#789=DIRECTION('refdir',(1.,0.,0.));
#790=DIRECTION('center_axis',(-1.,0.,0.));
#791=DIRECTION('ref_axis',(0.,0.707106781186548,0.707106781186547));
#792=DIRECTION('center_axis',(1.,0.,0.));
#793=DIRECTION('ref_axis',(0.,0.707106781186548,0.707106781186547));
#794=DIRECTION('',(1.,0.,0.));
#795=DIRECTION('center_axis',(-1.,0.,0.));
#796=DIRECTION('ref_axis',(0.,0.707106781186548,0.707106781186547));
#797=DIRECTION('',(-1.,0.,0.));
#798=DIRECTION('center_axis',(0.,0.,1.));
#799=DIRECTION('ref_axis',(0.,1.,0.));
#800=DIRECTION('',(0.,1.,0.));
#801=DIRECTION('',(-1.,0.,0.));
#802=DIRECTION('',(0.,1.,0.));
#803=DIRECTION('center_axis',(-1.,0.,0.));
#804=DIRECTION('ref_axis',(0.,0.,1.));
#805=DIRECTION('',(0.,0.,-1.));
#806=DIRECTION('',(0.,-1.,3.55840713020883E-18));
#807=DIRECTION('center_axis',(1.,0.,0.));
#808=DIRECTION('ref_axis',(0.,0.,-1.));
#809=DIRECTION('',(0.,0.,-1.));
#810=DIRECTION('',(0.,0.422618261740699,0.90630778703665));
#811=DIRECTION('',(0.,-1.,0.));
#812=DIRECTION('',(0.,0.484809620246398,-0.874619707139362));
#813=DIRECTION('center_axis',(-1.,0.,0.));
#814=DIRECTION('ref_axis',(0.,-0.0610485395348222,-0.998134798421869));
#815=DIRECTION('',(0.,0.587785252292473,0.809016994374947));
#816=DIRECTION('center_axis',(1.,0.,0.));
#817=DIRECTION('ref_axis',(0.,-0.156434465040231,0.987688340595138));
#818=DIRECTION('',(0.,0.80901699437495,-0.587785252292469));
#819=DIRECTION('',(0.,-0.629120268030878,-0.777307975227809));
#820=DIRECTION('',(0.,1.,0.));
#821=DIRECTION('',(0.,-0.481145527495789,0.876640736773508));
#822=DIRECTION('center_axis',(-1.,0.,0.));
#823=DIRECTION('ref_axis',(0.,-0.0328084391128359,0.999461658255573));
#824=DIRECTION('',(0.,-0.422618261740699,-0.90630778703665));
#825=DIRECTION('center_axis',(-1.,0.,0.));
#826=DIRECTION('ref_axis',(0.,-0.843391445812886,-0.537299608346824));
#827=DIRECTION('center_axis',(-1.,-1.4320086606762E-15,3.93441145967133E-15));
#828=DIRECTION('ref_axis',(-2.96059473233375E-15,0.906307787036649,-0.4226182617407));
#829=DIRECTION('',(0.,0.90630778703665,-0.422618261740699));
#830=DIRECTION('center_axis',(0.,0.90630778703665,-0.422618261740699));
#831=DIRECTION('ref_axis',(0.,-0.422618261740699,-0.90630778703665));
#832=DIRECTION('',(1.,0.,0.));
#833=DIRECTION('',(-1.,0.,0.));
#834=DIRECTION('',(0.,-0.422618261740699,-0.90630778703665));
#835=DIRECTION('center_axis',(1.,-6.61762151984508E-15,-1.80807261178647E-16));
#836=DIRECTION('ref_axis',(-5.92118946466751E-15,-0.906307787036652,0.422618261740695));
#837=DIRECTION('center_axis',(0.,-0.90630778703665,0.422618261740699));
#838=DIRECTION('ref_axis',(0.,0.422618261740699,0.90630778703665));
#839=DIRECTION('',(-1.,0.,0.));
#840=DIRECTION('center_axis',(0.,0.90630778703665,-0.422618261740699));
#841=DIRECTION('ref_axis',(0.,-0.422618261740699,-0.90630778703665));
#842=DIRECTION('',(0.,0.422618261740699,0.90630778703665));
#843=DIRECTION('center_axis',(0.,0.90630778703665,-0.422618261740699));
#844=DIRECTION('ref_axis',(0.,0.422618261740699,0.90630778703665));
#845=DIRECTION('',(1.,0.,0.));
#846=DIRECTION('center_axis',(0.,0.90630778703665,-0.422618261740699));
#847=DIRECTION('ref_axis',(0.,0.422618261740699,0.90630778703665));
#848=DIRECTION('center_axis',(0.,0.90630778703665,-0.422618261740699));
#849=DIRECTION('ref_axis',(0.,-0.422618261740699,-0.90630778703665));
#850=DIRECTION('center_axis',(1.,0.,0.));
#851=DIRECTION('ref_axis',(0.,0.629120268030877,0.77730797522781));
#852=DIRECTION('',(0.,0.481145527495789,-0.876640736773508));
#853=DIRECTION('',(0.,0.629120268030877,0.77730797522781));
#854=DIRECTION('center_axis',(-1.,0.,0.));
#855=DIRECTION('ref_axis',(0.,-0.0610485395348222,-0.998134798421869));
#856=DIRECTION('',(0.,-0.587785252292473,-0.809016994374947));
#857=DIRECTION('center_axis',(1.,0.,0.));
#858=DIRECTION('ref_axis',(0.,-0.156434465040231,0.987688340595138));
#859=DIRECTION('',(0.,-0.80901699437495,0.587785252292469));
#860=DIRECTION('',(0.,0.629120268030878,0.777307975227809));
#861=DIRECTION('center_axis',(1.,0.,0.));
#862=DIRECTION('ref_axis',(0.,0.777307975227809,-0.629120268030877));
#863=DIRECTION('center_axis',(0.,-0.777307975227809,0.629120268030878));
#864=DIRECTION('ref_axis',(1.,0.,0.));
#865=DIRECTION('',(1.,0.,0.));
#866=DIRECTION('',(0.,-0.629120268030878,-0.777307975227809));
#867=DIRECTION('',(-1.,0.,0.));
#868=DIRECTION('center_axis',(-1.,0.,0.));
#869=DIRECTION('ref_axis',(0.,-0.629120268030878,-0.777307975227809));
#870=DIRECTION('',(0.,-0.481145527495789,0.876640736773508));
#871=DIRECTION('center_axis',(-1.,0.,0.));
#872=DIRECTION('ref_axis',(0.,0.777307975227809,-0.629120268030877));
#873=DIRECTION('',(0.,-0.629120268030878,-0.777307975227809));
#874=DIRECTION('',(0.,0.80901699437495,-0.587785252292469));
#875=DIRECTION('center_axis',(-1.,0.,0.));
#876=DIRECTION('ref_axis',(0.,-0.156434465040231,0.987688340595138));
#877=DIRECTION('',(0.,0.587785252292473,0.809016994374947));
#878=DIRECTION('center_axis',(1.,0.,0.));
#879=DIRECTION('ref_axis',(0.,-0.0610485395348222,-0.998134798421869));
#880=DIRECTION('center_axis',(0.,-0.876640736773508,-0.481145527495789));
#881=DIRECTION('ref_axis',(0.,-0.481145527495789,0.876640736773508));
#882=DIRECTION('',(-1.,0.,0.));
#883=DIRECTION('center_axis',(0.,0.876640736773508,0.481145527495789));
#884=DIRECTION('ref_axis',(0.,0.481145527495789,-0.876640736773508));
#885=DIRECTION('',(0.,-0.481145527495789,0.876640736773508));
#886=DIRECTION('',(1.,0.,0.));
#887=DIRECTION('center_axis',(0.,0.876640736773508,0.481145527495789));
#888=DIRECTION('ref_axis',(0.,0.481145527495789,-0.876640736773508));
#889=DIRECTION('',(-1.,0.,0.));
#890=DIRECTION('center_axis',(-1.,0.,0.));
#891=DIRECTION('ref_axis',(0.,0.777307975227809,-0.629120268030877));
#892=DIRECTION('',(1.,0.,0.));
#893=DIRECTION('center_axis',(0.,0.777307975227809,-0.629120268030878));
#894=DIRECTION('ref_axis',(0.,-0.629120268030878,-0.777307975227809));
#895=DIRECTION('',(-1.,0.,0.));
#896=DIRECTION('',(0.,0.629120268030878,0.777307975227809));
#897=DIRECTION('center_axis',(0.,-0.777307975227809,0.629120268030878));
#898=DIRECTION('ref_axis',(0.,-0.629120268030878,-0.777307975227809));
#899=DIRECTION('center_axis',(0.,0.587785252292469,0.80901699437495));
#900=DIRECTION('ref_axis',(0.,0.80901699437495,-0.587785252292469));
#901=DIRECTION('',(-1.,0.,0.));
#902=DIRECTION('',(0.,0.80901699437495,-0.587785252292469));
#903=DIRECTION('center_axis',(0.,0.587785252292469,0.80901699437495));
#904=DIRECTION('ref_axis',(0.,0.80901699437495,-0.587785252292469));
#905=DIRECTION('',(-1.,0.,0.));
#906=DIRECTION('',(-1.,0.,0.));
#907=DIRECTION('center_axis',(-1.,0.,0.));
#908=DIRECTION('ref_axis',(0.,-0.156434465040231,0.987688340595138));
#909=DIRECTION('',(1.,0.,0.));
#910=DIRECTION('center_axis',(-1.,0.,0.));
#911=DIRECTION('ref_axis',(0.,-0.156434465040231,0.987688340595138));
#912=DIRECTION('center_axis',(0.,-0.809016994374948,0.587785252292473));
#913=DIRECTION('ref_axis',(0.,0.587785252292473,0.809016994374947));
#914=DIRECTION('',(-1.,0.,0.));
#915=DIRECTION('',(0.,0.587785252292473,0.809016994374947));
#916=DIRECTION('center_axis',(-1.,0.,0.));
#917=DIRECTION('ref_axis',(0.,-0.156434465040231,0.987688340595138));
#918=DIRECTION('',(1.,0.,0.));
#919=DIRECTION('center_axis',(1.,0.,0.));
#920=DIRECTION('ref_axis',(0.,1.,0.));
#921=DIRECTION('center_axis',(1.,0.,0.));
#922=DIRECTION('ref_axis',(0.,-0.843391445812886,-0.537299608346824));
#923=DIRECTION('center_axis',(1.,0.,0.));
#924=DIRECTION('ref_axis',(0.,-0.0328084391128359,0.999461658255573));
#925=DIRECTION('',(0.,-1.,0.));
#926=DIRECTION('center_axis',(1.,0.,0.));
#927=DIRECTION('ref_axis',(0.,-0.0610485395348222,-0.998134798421869));
#928=DIRECTION('',(0.,0.484809620246398,-0.874619707139362));
#929=DIRECTION('',(0.,1.,0.));
#930=DIRECTION('',(0.,0.,1.));
#931=DIRECTION('center_axis',(-1.,0.,0.));
#932=DIRECTION('ref_axis',(0.,0.,-1.));
#933=DIRECTION('',(0.,-1.,3.55840713020883E-18));
#934=DIRECTION('',(0.,0.,-1.));
#935=DIRECTION('center_axis',(-1.,0.,0.));
#936=DIRECTION('ref_axis',(0.,0.777307975227809,-0.629120268030877));
#937=DIRECTION('',(1.,0.,0.));
#938=DIRECTION('center_axis',(0.,0.777307975227809,-0.629120268030878));
#939=DIRECTION('ref_axis',(0.,-0.629120268030878,-0.777307975227809));
#940=DIRECTION('center_axis',(0.,-0.777307975227809,0.629120268030878));
#941=DIRECTION('ref_axis',(0.,-0.629120268030878,-0.777307975227809));
#942=DIRECTION('center_axis',(0.,-1.,0.));
#943=DIRECTION('ref_axis',(-0.707106781186547,0.,-0.707106781186547));
#944=DIRECTION('center_axis',(0.,1.,0.));
#945=DIRECTION('ref_axis',(0.707106781186547,0.,-0.707106781186547));
#946=DIRECTION('center_axis',(-1.,0.,0.));
#947=DIRECTION('ref_axis',(0.,0.,-1.));
#948=DIRECTION('',(1.,0.,0.));
#949=DIRECTION('center_axis',(0.,-3.55840713020883E-18,-1.));
#950=DIRECTION('ref_axis',(0.,-1.,3.55840713020883E-18));
#951=DIRECTION('',(-1.,0.,0.));
#952=DIRECTION('center_axis',(0.,0.,1.));
#953=DIRECTION('ref_axis',(-0.707106781186547,-0.707106781186547,0.));
#954=DIRECTION('center_axis',(0.,0.,1.));
#955=DIRECTION('ref_axis',(0.707106781186547,-0.707106781186547,0.));
#956=DIRECTION('center_axis',(-1.,0.,0.));
#957=DIRECTION('ref_axis',(0.,-0.90630778703665,0.4226182617407));
#958=DIRECTION('',(-1.,0.,0.));
#959=DIRECTION('center_axis',(0.,1.,0.));
#960=DIRECTION('ref_axis',(-0.707106781186547,0.,0.707106781186547));
#961=DIRECTION('center_axis',(0.,-0.874619707139362,-0.484809620246398));
#962=DIRECTION('ref_axis',(0.,-0.484809620246398,0.874619707139362));
#963=DIRECTION('center_axis',(0.,1.,0.));
#964=DIRECTION('ref_axis',(0.707106781186547,0.,0.707106781186547));
#965=DIRECTION('center_axis',(0.,-0.874619707139362,-0.484809620246398));
#966=DIRECTION('ref_axis',(0.,-0.484809620246398,0.874619707139362));
#967=DIRECTION('center_axis',(-1.,0.,0.));
#968=DIRECTION('ref_axis',(0.,-0.843391445812886,-0.537299608346824));
#969=DIRECTION('center_axis',(-1.,0.,0.));
#970=DIRECTION('ref_axis',(0.,-0.0328084391128359,0.999461658255573));
#971=DIRECTION('center_axis',(-1.,0.,0.));
#972=DIRECTION('ref_axis',(0.,-0.0610485395348222,-0.998134798421869));
#973=DIRECTION('',(-1.,0.,0.));
#974=DIRECTION('',(1.,0.,0.));
#975=DIRECTION('center_axis',(0.,-0.809016994374948,0.587785252292473));
#976=DIRECTION('ref_axis',(0.,0.587785252292473,0.809016994374947));
#977=DIRECTION('center_axis',(0.,0.874619707139362,0.484809620246398));
#978=DIRECTION('ref_axis',(0.,0.484809620246398,-0.874619707139362));
#979=DIRECTION('center_axis',(0.,1.,0.));
#980=DIRECTION('ref_axis',(0.,0.,-1.));
#981=CARTESIAN_POINT('',(0.,0.,0.));
#982=CARTESIAN_POINT('Origin',(0.,36.,-1.));
#983=CARTESIAN_POINT('',(-80.,39.,-1.));
#984=CARTESIAN_POINT('',(-80.,36.,2.));
#985=CARTESIAN_POINT('Origin',(-80.,36.,-1.));
#986=CARTESIAN_POINT('',(0.,36.,2.));
#987=CARTESIAN_POINT('',(0.,36.,2.));
#988=CARTESIAN_POINT('',(0.,39.,-1.));
#989=CARTESIAN_POINT('Origin',(0.,36.,-1.));
#990=CARTESIAN_POINT('',(0.,39.,-1.));
#991=CARTESIAN_POINT('Origin',(0.,-35.,2.));
#992=CARTESIAN_POINT('',(-80.,-27.1515721144125,2.));
#993=CARTESIAN_POINT('',(-80.,-39.,2.));
#994=CARTESIAN_POINT('',(0.,-27.1515721144125,2.));
#995=CARTESIAN_POINT('',(0.,-27.1515721144125,2.));
#996=CARTESIAN_POINT('',(0.,-39.,2.));
#997=CARTESIAN_POINT('Origin',(-80.,2.45053442808101,39.8775426296126));
#998=CARTESIAN_POINT('',(-80.,39.,-2.));
#999=CARTESIAN_POINT('',(-80.,39.,2.));
#1000=CARTESIAN_POINT('',(-80.,-33.0168027470325,-2.));
#1001=CARTESIAN_POINT('',(-80.,39.,-2.));
#1002=CARTESIAN_POINT('',(-80.,-34.,-1.90237933678711));
#1003=CARTESIAN_POINT('Origin',(-80.,-33.0168027470325,3.));
#1004=CARTESIAN_POINT('',(-80.,-34.,12.7225346025478));
#1005=CARTESIAN_POINT('',(-80.,-34.,18.9387713148063));
#1006=CARTESIAN_POINT('',(-80.,-4.14113125759345,76.7550852592252));
#1007=CARTESIAN_POINT('',(-80.,-39.,2.));
#1008=CARTESIAN_POINT('',(-80.,4.96195229044584,76.7550852592252));
#1009=CARTESIAN_POINT('',(-80.,0.320470730631278,76.7550852592252));
#1010=CARTESIAN_POINT('',(-80.,29.1365941319708,33.1428769105386));
#1011=CARTESIAN_POINT('',(-80.,2.19040703318154,81.7550852592252));
#1012=CARTESIAN_POINT('',(-80.,37.5547776395424,32.6279987503082));
#1013=CARTESIAN_POINT('Origin',(-80.,33.5096926676676,35.5669250117706));
#1014=CARTESIAN_POINT('',(-80.,39.4894303740773,35.2908197965122));
#1015=CARTESIAN_POINT('',(-80.,30.6726515896902,23.1555648808879));
#1016=CARTESIAN_POINT('',(-80.,42.2830348674121,35.7332832806771));
#1017=CARTESIAN_POINT('Origin',(-80.,41.1074643628272,34.1152492919272));
#1018=CARTESIAN_POINT('',(-80.,43.901068856162,34.5577127760922));
#1019=CARTESIAN_POINT('',(-80.,40.6650008786622,36.9088537852621));
#1020=CARTESIAN_POINT('',(-80.,38.7194405593164,28.1555648808879));
#1021=CARTESIAN_POINT('',(-80.,34.6726515896902,23.1555648808879));
#1022=CARTESIAN_POINT('',(-80.,27.9283944081984,28.1555648808879));
#1023=CARTESIAN_POINT('',(-80.,18.5615930088856,28.1555648808879));
#1024=CARTESIAN_POINT('',(-80.,5.24596230801733,69.4826537797696));
#1025=CARTESIAN_POINT('',(-80.,30.6726515896902,23.1555648808879));
#1026=CARTESIAN_POINT('',(-80.,-3.66878031103345,69.1900174509941));
#1027=CARTESIAN_POINT('Origin',(-80.,0.862758624149793,67.0769261422906));
#1028=CARTESIAN_POINT('',(-80.,-31.6831110495958,9.1130913087035));
#1029=CARTESIAN_POINT('',(-80.,2.19040703318154,81.7550852592252));
#1030=CARTESIAN_POINT('Origin',(-80.,-27.1515721144125,7.00000000000001));
#1031=CARTESIAN_POINT('Ctrl Pts',(-40.,-10.2328490894634,58.6626289036791));
#1032=CARTESIAN_POINT('Ctrl Pts',(-41.1291402185771,-10.2328490894634,58.6626289036791));
#1033=CARTESIAN_POINT('Ctrl Pts',(-43.3846764453147,-10.4174079857566,58.2668410733367));
#1034=CARTESIAN_POINT('Ctrl Pts',(-47.4272691319909,-11.4465880406932,56.0597573230749));
#1035=CARTESIAN_POINT('Ctrl Pts',(-51.0485243569223,-13.5857808204273,51.4722436026309));
#1036=CARTESIAN_POINT('Ctrl Pts',(-53.0829455609541,-16.6583248664705,44.8831516323209));
#1037=CARTESIAN_POINT('Ctrl Pts',(-53.0865983294163,-19.5101963114893,38.7672935820743));
#1038=CARTESIAN_POINT('Ctrl Pts',(-51.7604831076771,-21.9168083078692,33.6062975008564));
#1039=CARTESIAN_POINT('Ctrl Pts',(-49.6496958246173,-23.815981940697,29.5335065020079));
#1040=CARTESIAN_POINT('Ctrl Pts',(-46.4888705077931,-25.3822878132908,26.1745527185958));
#1041=CARTESIAN_POINT('Ctrl Pts',(-42.318422144118,-26.3322414451176,24.13737058098));
#1042=CARTESIAN_POINT('Ctrl Pts',(-37.6826062713727,-26.3296452241289,24.1429381948573));
#1043=CARTESIAN_POINT('Ctrl Pts',(-33.5094518214296,-25.3839415920823,26.1710061785324));
#1044=CARTESIAN_POINT('Ctrl Pts',(-29.298964843831,-23.2895737880169,30.662392428443));
#1045=CARTESIAN_POINT('Ctrl Pts',(-27.1757101991609,-20.5553389885124,36.5259778782786));
#1046=CARTESIAN_POINT('Ctrl Pts',(-26.8088043562064,-17.0270622782476,44.092391700914));
#1047=CARTESIAN_POINT('Ctrl Pts',(-28.4754956193092,-13.8712365569764,50.8600818001022));
#1048=CARTESIAN_POINT('Ctrl Pts',(-32.5706753091538,-11.4464027581279,56.0601546628183));
#1049=CARTESIAN_POINT('Ctrl Pts',(-36.6159911109979,-10.4174295455906,58.2667948381235));
#1050=CARTESIAN_POINT('Ctrl Pts',(-38.8708597814229,-10.2328490894634,58.6626289036791));
#1051=CARTESIAN_POINT('Ctrl Pts',(-40.,-10.2328490894634,58.6626289036791));
#1052=CARTESIAN_POINT('Ctrl Pts',(-40.,-9.82609910579976,58.4729582713423));
#1053=CARTESIAN_POINT('Ctrl Pts',(-41.128520996179,-9.82609910579976,58.4729582713423));
#1054=CARTESIAN_POINT('Ctrl Pts',(-43.3842165230398,-10.0107557081473,58.0769609096902));
#1055=CARTESIAN_POINT('Ctrl Pts',(-47.4259762408749,-11.0396799857374,55.8704256757181));
#1056=CARTESIAN_POINT('Ctrl Pts',(-51.0482972075134,-13.179069513201,51.2824900284067));
#1057=CARTESIAN_POINT('Ctrl Pts',(-53.0827277317562,-16.2515999003936,44.6934273495961));
#1058=CARTESIAN_POINT('Ctrl Pts',(-53.0863548213064,-19.1035190371134,38.5774670241669));
#1059=CARTESIAN_POINT('Ctrl Pts',(-51.7601678992166,-21.5101344701454,33.4164635730247));
#1060=CARTESIAN_POINT('Ctrl Pts',(-49.6493906026857,-23.4091340461842,29.3440458401647));
#1061=CARTESIAN_POINT('Ctrl Pts',(-46.4883996733249,-24.9754349794124,25.9851026492563));
#1062=CARTESIAN_POINT('Ctrl Pts',(-42.3174861349339,-25.9251726918001,23.948383552372));
#1063=CARTESIAN_POINT('Ctrl Pts',(-37.6829460335681,-25.9226994945185,23.9536873410581));
#1064=CARTESIAN_POINT('Ctrl Pts',(-33.510127666893,-24.9770702852918,25.9815957244808));
#1065=CARTESIAN_POINT('Ctrl Pts',(-29.2995138773229,-22.8830307125486,30.4722780800494));
#1066=CARTESIAN_POINT('Ctrl Pts',(-27.1759770226105,-20.1485691368599,36.3363498529813));
#1067=CARTESIAN_POINT('Ctrl Pts',(-26.8090889163217,-16.6202505018205,43.9028535835861));
#1068=CARTESIAN_POINT('Ctrl Pts',(-28.4754836914227,-13.4646036884476,50.6701600135484));
#1069=CARTESIAN_POINT('Ctrl Pts',(-32.5719434041307,-11.039505413999,55.8708000460191));
#1070=CARTESIAN_POINT('Ctrl Pts',(-36.6164467882864,-10.010779557456,58.0769097646827));
#1071=CARTESIAN_POINT('Ctrl Pts',(-38.871479003821,-9.82609910579976,58.4729582713423));
#1072=CARTESIAN_POINT('Ctrl Pts',(-40.,-9.82609910579976,58.4729582713423));
#1073=CARTESIAN_POINT('Ctrl Pts',(-40.,-8.96273057594784,58.4858381100972));
#1074=CARTESIAN_POINT('Ctrl Pts',(-41.1771086787142,-8.96273057594784,58.4858381100972));
#1075=CARTESIAN_POINT('Ctrl Pts',(-43.5276495081082,-9.15546172637293,58.0725248242128));
#1076=CARTESIAN_POINT('Ctrl Pts',(-47.7052678067068,-10.2212760915513,55.7868785421094));
#1077=CARTESIAN_POINT('Ctrl Pts',(-51.397899239753,-12.408330545022,51.0967251311101));
#1078=CARTESIAN_POINT('Ctrl Pts',(-53.4607949372948,-15.5261003130412,44.4106462870374));
#1079=CARTESIAN_POINT('Ctrl Pts',(-53.4644060342824,-18.4156669924801,38.2139505457069));
#1080=CARTESIAN_POINT('Ctrl Pts',(-52.1198208080493,-20.8572171455955,32.9780293455797));
#1081=CARTESIAN_POINT('Ctrl Pts',(-49.9725070320888,-22.7903992556062,28.8323069320566));
#1082=CARTESIAN_POINT('Ctrl Pts',(-46.7389055790994,-24.3949088402472,25.3914250237701));
#1083=CARTESIAN_POINT('Ctrl Pts',(-42.4223386756892,-25.3819940033624,23.2746140603372));
#1084=CARTESIAN_POINT('Ctrl Pts',(-37.5791123488837,-25.3789645698436,23.2811107014835));
#1085=CARTESIAN_POINT('Ctrl Pts',(-33.259069981054,-24.396638486367,25.3877157856962));
#1086=CARTESIAN_POINT('Ctrl Pts',(-28.9523755401413,-22.2509216258834,29.9892204424572));
#1087=CARTESIAN_POINT('Ctrl Pts',(-26.8018587255809,-19.4751861709337,35.9418043351006));
#1088=CARTESIAN_POINT('Ctrl Pts',(-26.4298319687017,-15.8994336087457,43.6100304507425));
#1089=CARTESIAN_POINT('Ctrl Pts',(-28.1172961439867,-12.6999786099549,50.4712838375084));
#1090=CARTESIAN_POINT('Ctrl Pts',(-32.2924582660594,-10.2211363773175,55.7871781602505));
#1091=CARTESIAN_POINT('Ctrl Pts',(-36.4730840079625,-9.15546643478162,58.0725147269978));
#1092=CARTESIAN_POINT('Ctrl Pts',(-38.8228913212858,-8.96273057594783,58.4858381100972));
#1093=CARTESIAN_POINT('Ctrl Pts',(-40.,-8.96273057594783,58.4858381100972));
#1094=CARTESIAN_POINT('Ctrl Pts',(-40.,-8.38171299054997,59.0831007038753));
#1095=CARTESIAN_POINT('Ctrl Pts',(-41.276934159813,-8.38171299054997,59.0831007038753));
#1096=CARTESIAN_POINT('Ctrl Pts',(-43.8261067307095,-8.59158618752924,58.6330261805238));
#1097=CARTESIAN_POINT('Ctrl Pts',(-48.2853269630256,-9.73378324623374,56.1835766835463));
#1098=CARTESIAN_POINT('Ctrl Pts',(-52.1278176419309,-12.0209823584553,51.2786623588038));
#1099=CARTESIAN_POINT('Ctrl Pts',(-54.2502211086073,-15.2332487387562,44.3899348757284));
#1100=CARTESIAN_POINT('Ctrl Pts',(-54.2537280598841,-18.2016167628283,38.0242491054866));
#1101=CARTESIAN_POINT('Ctrl Pts',(-52.8704994319139,-20.7161775342852,32.6317561290553));
#1102=CARTESIAN_POINT('Ctrl Pts',(-50.646864900887,-22.720309594116,28.3338810571331));
#1103=CARTESIAN_POINT('Ctrl Pts',(-47.2610771082361,-24.404648080459,24.7218055166899));
#1104=CARTESIAN_POINT('Ctrl Pts',(-42.6388652000373,-25.4691814434358,22.438906352673));
#1105=CARTESIAN_POINT('Ctrl Pts',(-37.363072640031,-25.465328515657,22.4471689829587));
#1106=CARTESIAN_POINT('Ctrl Pts',(-32.7363100854975,-24.4065239845735,24.7177826273343));
#1107=CARTESIAN_POINT('Ctrl Pts',(-28.2284919444803,-22.1537239946691,29.548927796208));
#1108=CARTESIAN_POINT('Ctrl Pts',(-26.0208193139558,-19.2911161911601,35.6878100415377));
#1109=CARTESIAN_POINT('Ctrl Pts',(-25.6381034548407,-15.6161281016716,43.5688474322361));
#1110=CARTESIAN_POINT('Ctrl Pts',(-27.3687785794103,-12.3256223228039,50.6253598469946));
#1111=CARTESIAN_POINT('Ctrl Pts',(-31.7119263170032,-9.7337458724259,56.1836568319359));
#1112=CARTESIAN_POINT('Ctrl Pts',(-36.1747617964493,-8.59155720411396,58.6330883356584));
#1113=CARTESIAN_POINT('Ctrl Pts',(-38.723065840187,-8.38171299054997,59.0831007038753));
#1114=CARTESIAN_POINT('Ctrl Pts',(-40.,-8.38171299054997,59.0831007038753));
#1115=CARTESIAN_POINT('Ctrl Pts',(-40.,-8.23946001629739,59.388163191623));
#1116=CARTESIAN_POINT('Ctrl Pts',(-41.3195573560295,-8.23946001629739,59.388163191623));
#1117=CARTESIAN_POINT('Ctrl Pts',(-43.9537210898371,-8.4566788635257,58.9223358704768));
#1118=CARTESIAN_POINT('Ctrl Pts',(-48.5332970899209,-9.63151778243679,56.402885678388));
#1119=CARTESIAN_POINT('Ctrl Pts',(-52.440032295676,-11.9615821589036,51.4060464978222));
#1120=CARTESIAN_POINT('Ctrl Pts',(-54.5878931634944,-15.2142704735719,44.4306338967554));
#1121=CARTESIAN_POINT('Ctrl Pts',(-54.5913522422999,-18.2163542549107,37.9926444517248));
#1122=CARTESIAN_POINT('Ctrl Pts',(-53.1915834913435,-20.7621479068535,32.5331723469441));
#1123=CARTESIAN_POINT('Ctrl Pts',(-50.9353018076779,-22.7966083802529,28.1702577822361));
#1124=CARTESIAN_POINT('Ctrl Pts',(-47.4843904202731,-24.5150953847338,24.484950508321));
#1125=CARTESIAN_POINT('Ctrl Pts',(-42.7313697241145,-25.6127315644136,22.1310621247961));
#1126=CARTESIAN_POINT('Ctrl Pts',(-37.2706992522252,-25.608542273589,22.1400460879613));
#1127=CARTESIAN_POINT('Ctrl Pts',(-32.5127715967693,-24.5170314658761,24.4807985689127));
#1128=CARTESIAN_POINT('Ctrl Pts',(-27.9189004861028,-22.218465973326,29.4100881749307));
#1129=CARTESIAN_POINT('Ctrl Pts',(-25.6867412782965,-19.3186666423931,35.6287279082053));
#1130=CARTESIAN_POINT('Ctrl Pts',(-25.2994551357093,-15.601222219777,43.6008131991154));
#1131=CARTESIAN_POINT('Ctrl Pts',(-27.0485766676086,-12.2717899343189,50.7408037766481));
#1132=CARTESIAN_POINT('Ctrl Pts',(-31.4637507322154,-9.63152557299581,56.4028689714803));
#1133=CARTESIAN_POINT('Ctrl Pts',(-36.0472046432699,-8.45663576354389,58.922428298686));
#1134=CARTESIAN_POINT('Ctrl Pts',(-38.6804426439705,-8.23946001629739,59.388163191623));
#1135=CARTESIAN_POINT('Ctrl Pts',(-40.,-8.23946001629739,59.388163191623));
#1136=CARTESIAN_POINT('',(-40.,-8.23946001629739,59.388163191623));
#1137=CARTESIAN_POINT('',(-40.,-10.2328490894634,58.6626289036791));
#1138=CARTESIAN_POINT('Origin',(-40.,-9.59892169685236,60.0220905842341));
#1139=CARTESIAN_POINT('Ctrl Pts',(-40.,-10.2328490894634,58.6626289036791));
#1140=CARTESIAN_POINT('Ctrl Pts',(-41.1291402185771,-10.2328490894634,58.6626289036791));
#1141=CARTESIAN_POINT('Ctrl Pts',(-43.3846764453147,-10.4174079857566,58.2668410733367));
#1142=CARTESIAN_POINT('Ctrl Pts',(-47.4272691319909,-11.4465880406932,56.0597573230749));
#1143=CARTESIAN_POINT('Ctrl Pts',(-51.0485243569223,-13.5857808204273,51.4722436026309));
#1144=CARTESIAN_POINT('Ctrl Pts',(-53.0829455609541,-16.6583248664705,44.8831516323209));
#1145=CARTESIAN_POINT('Ctrl Pts',(-53.0865983294163,-19.5101963114893,38.7672935820743));
#1146=CARTESIAN_POINT('Ctrl Pts',(-51.7604831076771,-21.9168083078692,33.6062975008564));
#1147=CARTESIAN_POINT('Ctrl Pts',(-49.6496958246173,-23.815981940697,29.5335065020079));
#1148=CARTESIAN_POINT('Ctrl Pts',(-46.4888705077931,-25.3822878132908,26.1745527185958));
#1149=CARTESIAN_POINT('Ctrl Pts',(-42.318422144118,-26.3322414451176,24.13737058098));
#1150=CARTESIAN_POINT('Ctrl Pts',(-37.6826062713727,-26.3296452241289,24.1429381948573));
#1151=CARTESIAN_POINT('Ctrl Pts',(-33.5094518214296,-25.3839415920823,26.1710061785324));
#1152=CARTESIAN_POINT('Ctrl Pts',(-29.298964843831,-23.2895737880169,30.662392428443));
#1153=CARTESIAN_POINT('Ctrl Pts',(-27.1757101991609,-20.5553389885124,36.5259778782786));
#1154=CARTESIAN_POINT('Ctrl Pts',(-26.8088043562064,-17.0270622782476,44.092391700914));
#1155=CARTESIAN_POINT('Ctrl Pts',(-28.4754956193092,-13.8712365569764,50.8600818001022));
#1156=CARTESIAN_POINT('Ctrl Pts',(-32.5706753091538,-11.4464027581279,56.0601546628183));
#1157=CARTESIAN_POINT('Ctrl Pts',(-36.6159911109979,-10.4174295455906,58.2667948381235));
#1158=CARTESIAN_POINT('Ctrl Pts',(-38.8708597814229,-10.2328490894634,58.6626289036791));
#1159=CARTESIAN_POINT('Ctrl Pts',(-40.,-10.2328490894634,58.6626289036791));
#1160=CARTESIAN_POINT('Ctrl Pts',(-40.,-8.23946001629739,59.388163191623));
#1161=CARTESIAN_POINT('Ctrl Pts',(-38.6804426439705,-8.23946001629739,59.388163191623));
#1162=CARTESIAN_POINT('Ctrl Pts',(-36.0472046432699,-8.45663576354389,58.922428298686));
#1163=CARTESIAN_POINT('Ctrl Pts',(-31.4637507322154,-9.63152557299581,56.4028689714803));
#1164=CARTESIAN_POINT('Ctrl Pts',(-27.0485766676086,-12.2717899343189,50.7408037766481));
#1165=CARTESIAN_POINT('Ctrl Pts',(-25.2994551357093,-15.601222219777,43.6008131991154));
#1166=CARTESIAN_POINT('Ctrl Pts',(-25.6867412782965,-19.3186666423931,35.6287279082053));
#1167=CARTESIAN_POINT('Ctrl Pts',(-27.9189004861028,-22.218465973326,29.4100881749307));
#1168=CARTESIAN_POINT('Ctrl Pts',(-32.5127715967693,-24.5170314658761,24.4807985689127));
#1169=CARTESIAN_POINT('Ctrl Pts',(-37.2706992522252,-25.608542273589,22.1400460879613));
#1170=CARTESIAN_POINT('Ctrl Pts',(-42.7313697241145,-25.6127315644136,22.1310621247961));
#1171=CARTESIAN_POINT('Ctrl Pts',(-47.4843904202731,-24.5150953847338,24.484950508321));
#1172=CARTESIAN_POINT('Ctrl Pts',(-50.9353018076779,-22.7966083802529,28.1702577822361));
#1173=CARTESIAN_POINT('Ctrl Pts',(-53.1915834913435,-20.7621479068535,32.5331723469441));
#1174=CARTESIAN_POINT('Ctrl Pts',(-54.5913522422999,-18.2163542549107,37.9926444517248));
#1175=CARTESIAN_POINT('Ctrl Pts',(-54.5878931634944,-15.2142704735719,44.4306338967554));
#1176=CARTESIAN_POINT('Ctrl Pts',(-52.440032295676,-11.9615821589036,51.4060464978222));
#1177=CARTESIAN_POINT('Ctrl Pts',(-48.5332970899209,-9.63151778243679,56.402885678388));
#1178=CARTESIAN_POINT('Ctrl Pts',(-43.9537210898371,-8.4566788635257,58.9223358704768));
#1179=CARTESIAN_POINT('Ctrl Pts',(-41.3195573560295,-8.23946001629739,59.388163191623));
#1180=CARTESIAN_POINT('Ctrl Pts',(-40.,-8.23946001629739,59.388163191623));
#1181=CARTESIAN_POINT('Ctrl Pts',(-40.,-10.7995009477266,58.926863004695));
#1182=CARTESIAN_POINT('Ctrl Pts',(-27.,-10.7995009477266,58.926863004695));
#1183=CARTESIAN_POINT('Ctrl Pts',(-27.,-18.8292479207998,41.7070150509986));
#1184=CARTESIAN_POINT('Ctrl Pts',(-27.,-26.8589948938731,24.4871670973023));
#1185=CARTESIAN_POINT('Ctrl Pts',(-40.,-26.8589948938731,24.4871670973023));
#1186=CARTESIAN_POINT('Ctrl Pts',(-53.,-26.8589948938731,24.4871670973023));
#1187=CARTESIAN_POINT('Ctrl Pts',(-53.,-18.8292479207998,41.7070150509986));
#1188=CARTESIAN_POINT('Ctrl Pts',(-53.,-10.7995009477266,58.926863004695));
#1189=CARTESIAN_POINT('Ctrl Pts',(-40.,-10.7995009477266,58.926863004695));
#1190=CARTESIAN_POINT('Ctrl Pts',(-40.,-10.2328490894634,58.6626289036791));
#1191=CARTESIAN_POINT('Ctrl Pts',(-27.,-10.2328490894634,58.6626289036791));
#1192=CARTESIAN_POINT('Ctrl Pts',(-27.,-18.2625960625367,41.4427809499827));
#1193=CARTESIAN_POINT('Ctrl Pts',(-27.,-26.29234303561,24.2229329962864));
#1194=CARTESIAN_POINT('Ctrl Pts',(-40.,-26.29234303561,24.2229329962864));
#1195=CARTESIAN_POINT('Ctrl Pts',(-53.,-26.29234303561,24.2229329962864));
#1196=CARTESIAN_POINT('Ctrl Pts',(-53.,-18.2625960625367,41.4427809499827));
#1197=CARTESIAN_POINT('Ctrl Pts',(-53.,-10.2328490894634,58.6626289036791));
#1198=CARTESIAN_POINT('Ctrl Pts',(-40.,-10.2328490894634,58.6626289036791));
#1199=CARTESIAN_POINT('',(-40.,-10.7995009477265,58.926863004695));
#1200=CARTESIAN_POINT('Ctrl Pts',(-40.,-10.7995009477265,58.926863004695));
#1201=CARTESIAN_POINT('Ctrl Pts',(-38.8708597814229,-10.7995009477265,58.926863004695));
#1202=CARTESIAN_POINT('Ctrl Pts',(-36.615316951027,-10.9840642009014,58.5310658309898));
#1203=CARTESIAN_POINT('Ctrl Pts',(-32.5727412352098,-12.0132372120535,56.3239971861724));
#1204=CARTESIAN_POINT('Ctrl Pts',(-28.9514824520019,-14.152429998322,51.7364834517155));
#1205=CARTESIAN_POINT('Ctrl Pts',(-26.9170543724269,-17.2249759752159,45.1473873406826));
#1206=CARTESIAN_POINT('Ctrl Pts',(-26.9134092588283,-20.0768457654839,39.0315328390607));
#1207=CARTESIAN_POINT('Ctrl Pts',(-28.2395172583765,-22.4834596913916,33.870532619957));
#1208=CARTESIAN_POINT('Ctrl Pts',(-30.3503056247579,-24.3826357822919,29.7977363497551));
#1209=CARTESIAN_POINT('Ctrl Pts',(-33.5111270804153,-25.9489457885735,26.4387737016208));
#1210=CARTESIAN_POINT('Ctrl Pts',(-37.681577071882,-26.8988982961007,24.4015939750733));
#1211=CARTESIAN_POINT('Ctrl Pts',(-42.3173878055122,-26.8962955921924,24.4071754916168));
#1212=CARTESIAN_POINT('Ctrl Pts',(-46.4905509136356,-25.9505884940835,26.4352509082863));
#1213=CARTESIAN_POINT('Ctrl Pts',(-50.701050786916,-23.8562440726637,30.9265870139517));
#1214=CARTESIAN_POINT('Ctrl Pts',(-52.824274120739,-21.1219851133946,36.7902242745695));
#1215=CARTESIAN_POINT('Ctrl Pts',(-53.1911931837062,-17.5937031265183,44.356649412935));
#1216=CARTESIAN_POINT('Ctrl Pts',(-51.52449625448,-14.4378892589031,51.1243140918756));
#1217=CARTESIAN_POINT('Ctrl Pts',(-47.429305497905,-12.0130485141713,56.3244018500867));
#1218=CARTESIAN_POINT('Ctrl Pts',(-43.3840190183254,-10.9840854647195,58.5310202305846));
#1219=CARTESIAN_POINT('Ctrl Pts',(-41.1291402185771,-10.7995009477265,58.926863004695));
#1220=CARTESIAN_POINT('Ctrl Pts',(-40.,-10.7995009477265,58.926863004695));
#1221=CARTESIAN_POINT('',(-40.,-12.1589626282815,59.560790397306));
#1222=CARTESIAN_POINT('Origin',(0.,0.499933986218747,78.1298541110786));
#1223=CARTESIAN_POINT('',(0.,-31.6831110495958,9.1130913087035));
#1224=CARTESIAN_POINT('',(0.,-31.6831110495958,9.11309130870351));
#1225=CARTESIAN_POINT('',(0.,-3.66878031103345,69.1900174509941));
#1226=CARTESIAN_POINT('',(0.,-3.66878031103345,69.1900174509941));
#1227=CARTESIAN_POINT('',(0.,2.19040703318154,81.7550852592252));
#1228=CARTESIAN_POINT('Ctrl Pts',(-40.,-10.7995009477265,58.926863004695));
#1229=CARTESIAN_POINT('Ctrl Pts',(-38.8708597814229,-10.7995009477265,58.926863004695));
#1230=CARTESIAN_POINT('Ctrl Pts',(-36.615316951027,-10.9840642009014,58.5310658309898));
#1231=CARTESIAN_POINT('Ctrl Pts',(-32.5727412352098,-12.0132372120535,56.3239971861724));
#1232=CARTESIAN_POINT('Ctrl Pts',(-28.9514824520019,-14.152429998322,51.7364834517155));
#1233=CARTESIAN_POINT('Ctrl Pts',(-26.9170543724269,-17.2249759752159,45.1473873406826));
#1234=CARTESIAN_POINT('Ctrl Pts',(-26.9134092588283,-20.0768457654839,39.0315328390607));
#1235=CARTESIAN_POINT('Ctrl Pts',(-28.2395172583765,-22.4834596913916,33.870532619957));
#1236=CARTESIAN_POINT('Ctrl Pts',(-30.3503056247579,-24.3826357822919,29.7977363497551));
#1237=CARTESIAN_POINT('Ctrl Pts',(-33.5111270804153,-25.9489457885735,26.4387737016208));
#1238=CARTESIAN_POINT('Ctrl Pts',(-37.681577071882,-26.8988982961007,24.4015939750733));
#1239=CARTESIAN_POINT('Ctrl Pts',(-42.3173878055122,-26.8962955921924,24.4071754916168));
#1240=CARTESIAN_POINT('Ctrl Pts',(-46.4905509136356,-25.9505884940835,26.4352509082863));
#1241=CARTESIAN_POINT('Ctrl Pts',(-50.701050786916,-23.8562440726637,30.9265870139517));
#1242=CARTESIAN_POINT('Ctrl Pts',(-52.824274120739,-21.1219851133946,36.7902242745695));
#1243=CARTESIAN_POINT('Ctrl Pts',(-53.1911931837062,-17.5937031265183,44.356649412935));
#1244=CARTESIAN_POINT('Ctrl Pts',(-51.52449625448,-14.4378892589031,51.1243140918756));
#1245=CARTESIAN_POINT('Ctrl Pts',(-47.429305497905,-12.0130485141713,56.3244018500867));
#1246=CARTESIAN_POINT('Ctrl Pts',(-43.3840190183254,-10.9840854647195,58.5310202305846));
#1247=CARTESIAN_POINT('Ctrl Pts',(-41.1291402185771,-10.7995009477265,58.926863004695));
#1248=CARTESIAN_POINT('Ctrl Pts',(-40.,-10.7995009477265,58.926863004695));
#1249=CARTESIAN_POINT('Ctrl Pts',(-40.,-11.2062509313902,59.1165336370317));
#1250=CARTESIAN_POINT('Ctrl Pts',(-38.871479003821,-11.2062509313902,59.1165336370317));
#1251=CARTESIAN_POINT('Ctrl Pts',(-36.6157921424902,-11.3909120993172,58.720526484463));
#1252=CARTESIAN_POINT('Ctrl Pts',(-32.5740562939947,-12.4198280117983,56.5140091895247));
#1253=CARTESIAN_POINT('Ctrl Pts',(-28.9517280474348,-14.5592184380342,51.92607161479));
#1254=CARTESIAN_POINT('Ctrl Pts',(-26.9172807203518,-17.6317524904599,45.3370010758618));
#1255=CARTESIAN_POINT('Ctrl Pts',(-26.9136639821829,-20.4836699723455,39.221044299236));
#1256=CARTESIAN_POINT('Ctrl Pts',(-28.2398446008417,-22.8902862741555,34.0600389849932));
#1257=CARTESIAN_POINT('Ctrl Pts',(-30.3506231807048,-24.7892859465836,29.9876210454258));
#1258=CARTESIAN_POINT('Ctrl Pts',(-33.5116142063875,-26.3555879894022,26.628675474993));
#1259=CARTESIAN_POINT('Ctrl Pts',(-37.6825226942903,-27.3053224378379,24.5919633776764));
#1260=CARTESIAN_POINT('Ctrl Pts',(-42.3170434826144,-27.3028429078998,24.5972807467882));
#1261=CARTESIAN_POINT('Ctrl Pts',(-46.489860559741,-26.3572139830987,26.6251885202583));
#1262=CARTESIAN_POINT('Ctrl Pts',(-50.7004810663867,-24.2632032136306,31.1158091070042));
#1263=CARTESIAN_POINT('Ctrl Pts',(-52.823994985918,-21.5287150318311,36.9799379369247));
#1264=CARTESIAN_POINT('Ctrl Pts',(-53.1908985779264,-18.0003906154877,44.5464540655761));
#1265=CARTESIAN_POINT('Ctrl Pts',(-51.5244954406772,-14.8447571135166,51.3137319491449));
#1266=CARTESIAN_POINT('Ctrl Pts',(-47.4280155362469,-12.4196501994229,56.5143905093944));
#1267=CARTESIAN_POINT('Ctrl Pts',(-43.3835486498518,-11.3909358062053,58.7204756448772));
#1268=CARTESIAN_POINT('Ctrl Pts',(-41.128520996179,-11.2062509313902,59.1165336370317));
#1269=CARTESIAN_POINT('Ctrl Pts',(-40.,-11.2062509313902,59.1165336370317));
#1270=CARTESIAN_POINT('Ctrl Pts',(-40.,-11.7513396051264,59.7861947812692));
#1271=CARTESIAN_POINT('Ctrl Pts',(-38.8228913212858,-11.7513396051264,59.7861947812692));
#1272=CARTESIAN_POINT('Ctrl Pts',(-36.4723383688564,-11.9440761507762,59.3728699252881));
#1273=CARTESIAN_POINT('Ctrl Pts',(-32.2947333705658,-13.0098830201356,57.0872397180202));
#1274=CARTESIAN_POINT('Ctrl Pts',(-28.6020971949763,-15.1969381503236,52.3970848557961));
#1275=CARTESIAN_POINT('Ctrl Pts',(-26.5391963280682,-18.3147103501377,45.7110007967225));
#1276=CARTESIAN_POINT('Ctrl Pts',(-26.5355927500946,-21.2042759397908,39.5143073924453));
#1277=CARTESIAN_POINT('Ctrl Pts',(-27.8801711310491,-23.6458296048837,34.2783786608579));
#1278=CARTESIAN_POINT('Ctrl Pts',(-30.0274862763247,-25.5790151063862,30.1326489742571));
#1279=CARTESIAN_POINT('Ctrl Pts',(-33.2610830507943,-27.1835311332876,26.6917532504986));
#1280=CARTESIAN_POINT('Ctrl Pts',(-37.5776566149472,-28.1706161988616,24.5749424962435));
#1281=CARTESIAN_POINT('Ctrl Pts',(-42.4208821707329,-28.1675786339635,24.581456575189));
#1282=CARTESIAN_POINT('Ctrl Pts',(-46.7409398769768,-27.1852472109566,26.6880731100613));
#1283=CARTESIAN_POINT('Ctrl Pts',(-51.0476566028121,-25.039552045704,31.2895312412495));
#1284=CARTESIAN_POINT('Ctrl Pts',(-53.1981330502571,-22.2637919717616,37.2421679294929));
#1285=CARTESIAN_POINT('Ctrl Pts',(-53.5701729811624,-18.6880336893708,44.9104063121494));
#1286=CARTESIAN_POINT('Ctrl Pts',(-51.8827047581055,-15.4885897742183,51.771635929976));
#1287=CARTESIAN_POINT('Ctrl Pts',(-47.7075310615534,-13.0097395131518,57.0875474697403));
#1288=CARTESIAN_POINT('Ctrl Pts',(-43.5269319565172,-11.9440806150373,59.3728603516493));
#1289=CARTESIAN_POINT('Ctrl Pts',(-41.1771086787142,-11.7513396051264,59.7861947812692));
#1290=CARTESIAN_POINT('Ctrl Pts',(-40.,-11.7513396051264,59.7861947812692));
#1291=CARTESIAN_POINT('Ctrl Pts',(-40.,-11.6672882099231,60.6151895901132));
#1292=CARTESIAN_POINT('Ctrl Pts',(-38.723065840187,-11.6672882099231,60.6151895901132));
#1293=CARTESIAN_POINT('Ctrl Pts',(-36.1738852286199,-11.877168299077,60.1651002864455));
#1294=CARTESIAN_POINT('Ctrl Pts',(-31.7146788146967,-13.0193551782462,57.7156726195518));
#1295=CARTESIAN_POINT('Ctrl Pts',(-27.8721863872836,-15.3065537073607,52.8107595452866));
#1296=CARTESIAN_POINT('Ctrl Pts',(-25.7497762615876,-18.5188224374833,45.9220270230021));
#1297=CARTESIAN_POINT('Ctrl Pts',(-25.7462782223122,-21.4871884207635,39.5563456292527));
#1298=CARTESIAN_POINT('Ctrl Pts',(-27.1295001623632,-24.0017534971285,34.1638434209163));
#1299=CARTESIAN_POINT('Ctrl Pts',(-29.3531349512397,-26.0058882816741,29.8659625058242));
#1300=CARTESIAN_POINT('Ctrl Pts',(-32.7389145634069,-27.6902340886745,26.2538712661806));
#1301=CARTESIAN_POINT('Ctrl Pts',(-37.3611298565889,-28.7547670352307,23.9709729951804));
#1302=CARTESIAN_POINT('Ctrl Pts',(-42.636915817372,-28.750902162259,23.9792612420152));
#1303=CARTESIAN_POINT('Ctrl Pts',(-47.2636948736344,-27.6920924437015,26.2498860109646));
#1304=CARTESIAN_POINT('Ctrl Pts',(-51.7715453769762,-25.4393155390989,31.0809816732489));
#1305=CARTESIAN_POINT('Ctrl Pts',(-53.9791617200374,-22.5766835827273,37.2199157145596));
#1306=CARTESIAN_POINT('Ctrl Pts',(-54.3618919609573,-18.9016911248639,45.1009624732681));
#1307=CARTESIAN_POINT('Ctrl Pts',(-52.6312142761674,-15.6111973167727,52.1574492166134));
#1308=CARTESIAN_POINT('Ctrl Pts',(-48.2880571001211,-13.0193132933324,57.7157624420393));
#1309=CARTESIAN_POINT('Ctrl Pts',(-43.8252511138344,-11.8771392731043,60.1651625328448));
#1310=CARTESIAN_POINT('Ctrl Pts',(-41.276934159813,-11.667288209923,60.6151895901132));
#1311=CARTESIAN_POINT('Ctrl Pts',(-40.,-11.667288209923,60.6151895901132));
#1312=CARTESIAN_POINT('Ctrl Pts',(-40.,-11.5250352356705,60.920252077861));
#1313=CARTESIAN_POINT('Ctrl Pts',(-38.6804426439705,-11.5250352356705,60.920252077861));
#1314=CARTESIAN_POINT('Ctrl Pts',(-36.0462738336265,-11.7422617547895,60.4544083042921));
#1315=CARTESIAN_POINT('Ctrl Pts',(-31.4667122668592,-12.9170892944383,57.9349825151098));
#1316=CARTESIAN_POINT('Ctrl Pts',(-27.5599750124042,-15.2471531147013,52.9381445273271));
#1317=CARTESIAN_POINT('Ctrl Pts',(-25.4121053507648,-18.499844284322,45.9627258037951));
#1318=CARTESIAN_POINT('Ctrl Pts',(-25.4086561445651,-21.5019259131597,39.5247409748181));
#1319=CARTESIAN_POINT('Ctrl Pts',(-26.8084185655508,-24.0477243224628,34.0652586678454));
#1320=CARTESIAN_POINT('Ctrl Pts',(-29.0647003125107,-26.0821870749549,29.7023392156072));
#1321=CARTESIAN_POINT('Ctrl Pts',(-32.5156031457577,-27.8006816527624,26.0170157006408));
#1322=CARTESIAN_POINT('Ctrl Pts',(-37.2686262570327,-28.8983171472071,23.6631287866072));
#1323=CARTESIAN_POINT('Ctrl Pts',(-42.7292865697998,-28.8941143640867,23.6721416840941));
#1324=CARTESIAN_POINT('Ctrl Pts',(-47.4872307943382,-27.8025987010404,26.0129045773417));
#1325=CARTESIAN_POINT('Ctrl Pts',(-52.0811385318278,-25.5040574076415,30.9421422881125));
#1326=CARTESIAN_POINT('Ctrl Pts',(-54.3132360798354,-22.6042333843344,37.1608349743544));
#1327=CARTESIAN_POINT('Ctrl Pts',(-54.7005374418844,-18.8867847444019,45.1329293093286));
#1328=CARTESIAN_POINT('Ctrl Pts',(-52.9514136515997,-15.557364786284,52.272893450795));
#1329=CARTESIAN_POINT('Ctrl Pts',(-48.5362285997852,-12.91709229552,57.9349760792695));
#1330=CARTESIAN_POINT('Ctrl Pts',(-43.9528058196585,-11.7422187195806,60.4545005935952));
#1331=CARTESIAN_POINT('Ctrl Pts',(-41.3195573560295,-11.5250352356705,60.920252077861));
#1332=CARTESIAN_POINT('Ctrl Pts',(-40.,-11.5250352356705,60.920252077861));
#1333=CARTESIAN_POINT('',(-40.,-11.5250352356705,60.920252077861));
#1334=CARTESIAN_POINT('Origin',(-40.,-10.1655735551155,60.2863246852499));
#1335=CARTESIAN_POINT('Ctrl Pts',(-40.,-11.5250352356705,60.920252077861));
#1336=CARTESIAN_POINT('Ctrl Pts',(-41.3195573560295,-11.5250352356705,60.920252077861));
#1337=CARTESIAN_POINT('Ctrl Pts',(-43.9528058196585,-11.7422187195806,60.4545005935952));
#1338=CARTESIAN_POINT('Ctrl Pts',(-48.5362285997852,-12.91709229552,57.9349760792695));
#1339=CARTESIAN_POINT('Ctrl Pts',(-52.9514136515997,-15.557364786284,52.272893450795));
#1340=CARTESIAN_POINT('Ctrl Pts',(-54.7005374418844,-18.8867847444019,45.1329293093286));
#1341=CARTESIAN_POINT('Ctrl Pts',(-54.3132360798354,-22.6042333843344,37.1608349743544));
#1342=CARTESIAN_POINT('Ctrl Pts',(-52.0811385318278,-25.5040574076415,30.9421422881125));
#1343=CARTESIAN_POINT('Ctrl Pts',(-47.4872307943382,-27.8025987010404,26.0129045773417));
#1344=CARTESIAN_POINT('Ctrl Pts',(-42.7292865697998,-28.8941143640867,23.6721416840941));
#1345=CARTESIAN_POINT('Ctrl Pts',(-37.2686262570327,-28.8983171472071,23.6631287866072));
#1346=CARTESIAN_POINT('Ctrl Pts',(-32.5156031457577,-27.8006816527624,26.0170157006408));
#1347=CARTESIAN_POINT('Ctrl Pts',(-29.0647003125107,-26.0821870749549,29.7023392156072));
#1348=CARTESIAN_POINT('Ctrl Pts',(-26.8084185655508,-24.0477243224628,34.0652586678454));
#1349=CARTESIAN_POINT('Ctrl Pts',(-25.4086561445651,-21.5019259131597,39.5247409748181));
#1350=CARTESIAN_POINT('Ctrl Pts',(-25.4121053507648,-18.499844284322,45.9627258037951));
#1351=CARTESIAN_POINT('Ctrl Pts',(-27.5599750124042,-15.2471531147013,52.9381445273271));
#1352=CARTESIAN_POINT('Ctrl Pts',(-31.4667122668592,-12.9170892944383,57.9349825151098));
#1353=CARTESIAN_POINT('Ctrl Pts',(-36.0462738336265,-11.7422617547895,60.4544083042921));
#1354=CARTESIAN_POINT('Ctrl Pts',(-38.6804426439705,-11.5250352356705,60.920252077861));
#1355=CARTESIAN_POINT('Ctrl Pts',(-40.,-11.5250352356705,60.920252077861));
#1356=CARTESIAN_POINT('Origin',(0.,-39.,2.));
#1357=CARTESIAN_POINT('',(-1.47732043662072,-37.5483416822158,5.1130913087035));
#1358=CARTESIAN_POINT('',(-78.5226795633793,-37.5483416822158,5.1130913087035));
#1359=CARTESIAN_POINT('',(0.,-37.5483416822158,5.1130913087035));
#1360=CARTESIAN_POINT('',(0.,-34.,12.7225346025478));
#1361=CARTESIAN_POINT('Origin',(-5.,-34.,12.7225346025478));
#1362=CARTESIAN_POINT('',(0.,-4.14113125759345,76.7550852592252));
#1363=CARTESIAN_POINT('',(0.,-39.,2.));
#1364=CARTESIAN_POINT('',(-6.52964762987152E-5,-4.12921565520822,76.7806383510024));
#1365=CARTESIAN_POINT('Origin',(-5.,-4.14113125759345,76.7550852592252));
#1366=CARTESIAN_POINT('',(-79.9999347035237,-4.12921565520822,76.7806383510024));
#1367=CARTESIAN_POINT('',(0.,-4.12921565520822,76.7806383510024));
#1368=CARTESIAN_POINT('Origin',(-75.,-4.14113125759346,76.7550852592252));
#1369=CARTESIAN_POINT('Origin',(-75.,-34.,12.7225346025478));
#1370=CARTESIAN_POINT('Origin',(-25.,31.3186634955445,19.011553271536));
#1371=CARTESIAN_POINT('',(-25.,27.0903459369402,29.6824780231952));
#1372=CARTESIAN_POINT('',(-25.,28.7052673005018,26.7401128278827));
#1373=CARTESIAN_POINT('',(-25.,31.6213827920388,21.4269892780851));
#1374=CARTESIAN_POINT('',(-25.,29.4692088714579,32.6216761780441));
#1375=CARTESIAN_POINT('',(-25.,23.5455837432664,25.3027559518448));
#1376=CARTESIAN_POINT('',(-25.,37.5547776395424,32.6279987503082));
#1377=CARTESIAN_POINT('Origin',(-25.,33.5096926676676,35.5669250117706));
#1378=CARTESIAN_POINT('',(-25.,39.4894303740773,35.2908197965122));
#1379=CARTESIAN_POINT('',(-25.,30.9334180331268,23.5144790990996));
#1380=CARTESIAN_POINT('',(-25.,42.2830348674121,35.7332832806771));
#1381=CARTESIAN_POINT('Origin',(-25.,41.1074643628272,34.1152492919272));
#1382=CARTESIAN_POINT('',(-25.,43.901068856162,34.5577127760922));
#1383=CARTESIAN_POINT('',(-25.,41.8617083306644,36.0393949278016));
#1384=CARTESIAN_POINT('',(-25.,36.9750108605084,26.0002391252072));
#1385=CARTESIAN_POINT('',(-25.,37.6098661758533,26.7846330238141));
#1386=CARTESIAN_POINT('Origin',(-25.,33.0884709843693,29.1458404653616));
#1387=CARTESIAN_POINT('Origin',(-40.,29.8367864235752,33.0758357041229));
#1388=CARTESIAN_POINT('',(-55.,27.0903459369402,29.6824780231952));
#1389=CARTESIAN_POINT('',(-20.,27.0903459369402,29.6824780231952));
#1390=CARTESIAN_POINT('',(-55.,29.4692088714579,32.6216761780441));
#1391=CARTESIAN_POINT('',(-55.,36.1279891038839,40.848915456401));
#1392=CARTESIAN_POINT('',(0.,29.4692088714579,32.6216761780441));
#1393=CARTESIAN_POINT('Origin',(-55.,43.901068856162,34.5577127760922));
#1394=CARTESIAN_POINT('',(-55.,28.7052673005018,26.7401128278827));
#1395=CARTESIAN_POINT('',(-55.,29.7991815560513,24.7470156376353));
#1396=CARTESIAN_POINT('',(-55.,36.9750108605084,26.0002391252072));
#1397=CARTESIAN_POINT('Origin',(-55.,33.0884709843693,29.1458404653616));
#1398=CARTESIAN_POINT('',(-55.,43.901068856162,34.5577127760922));
#1399=CARTESIAN_POINT('',(-55.,43.901068856162,34.5577127760922));
#1400=CARTESIAN_POINT('',(-55.,42.2830348674121,35.7332832806771));
#1401=CARTESIAN_POINT('',(-55.,42.2830348674121,35.7332832806771));
#1402=CARTESIAN_POINT('',(-55.,39.4894303740773,35.2908197965122));
#1403=CARTESIAN_POINT('Origin',(-55.,41.1074643628272,34.1152492919272));
#1404=CARTESIAN_POINT('',(-55.,37.5547776395424,32.6279987503082));
#1405=CARTESIAN_POINT('',(-55.,36.8032941766878,31.5936704985021));
#1406=CARTESIAN_POINT('Origin',(-55.,33.5096926676676,35.5669250117706));
#1407=CARTESIAN_POINT('Origin',(0.,30.6726515896902,23.1555648808879));
#1408=CARTESIAN_POINT('',(-0.204533861485085,28.7052673005018,26.7401128278827));
#1409=CARTESIAN_POINT('',(0.,28.7052673005018,26.7401128278827));
#1410=CARTESIAN_POINT('',(0.,27.9283944081984,28.1555648808879));
#1411=CARTESIAN_POINT('Origin',(-5.,27.9283944081984,28.1555648808879));
#1412=CARTESIAN_POINT('',(0.,5.24596230801733,69.4826537797696));
#1413=CARTESIAN_POINT('',(0.,30.6726515896902,23.1555648808879));
#1414=CARTESIAN_POINT('',(0.,5.24596230801733,69.4826537797696));
#1415=CARTESIAN_POINT('',(-79.7954661385149,28.7052673005018,26.7401128278827));
#1416=CARTESIAN_POINT('Origin',(-75.,27.9283944081984,28.1555648808879));
#1417=CARTESIAN_POINT('',(0.,28.7052673005018,26.7401128278827));
#1418=CARTESIAN_POINT('Origin',(0.,33.0884709843693,29.1458404653616));
#1419=CARTESIAN_POINT('',(-0.488395974057638,36.9750108605084,26.0002391252072));
#1420=CARTESIAN_POINT('',(0.,36.9750108605084,26.0002391252072));
#1421=CARTESIAN_POINT('Ctrl Pts',(-0.488395974057635,36.9750108605084,26.0002391252072));
#1422=CARTESIAN_POINT('Ctrl Pts',(-0.666213085338698,36.6737573192771,25.6280260650595));
#1423=CARTESIAN_POINT('Ctrl Pts',(-0.876478975450707,36.3247901116855,25.309821469564));
#1424=CARTESIAN_POINT('Ctrl Pts',(-1.28840949023916,35.5839394371245,24.787470293309));
#1425=CARTESIAN_POINT('Ctrl Pts',(-1.5265378860484,35.1267778173329,24.5507890230918));
#1426=CARTESIAN_POINT('Ctrl Pts',(-1.89344080583838,34.1398826631817,24.2301800773811));
#1427=CARTESIAN_POINT('Ctrl Pts',(-2.0130098574766,33.6068847976884,24.1458404653616));
#1428=CARTESIAN_POINT('Ctrl Pts',(-2.0130098574766,32.5700571710503,24.1458404653616));
#1429=CARTESIAN_POINT('Ctrl Pts',(-1.89344080583838,32.037059305557,24.2301800773811));
#1430=CARTESIAN_POINT('Ctrl Pts',(-1.5265378860484,31.0501641514058,24.5507890230918));
#1431=CARTESIAN_POINT('Ctrl Pts',(-1.28840949023916,30.5930025316142,24.787470293309));
#1432=CARTESIAN_POINT('Ctrl Pts',(-0.852414643780375,29.8088725278683,25.3403364023075));
#1433=CARTESIAN_POINT('Ctrl Pts',(-0.61507211263696,29.418722187709,25.7071468056052));
#1434=CARTESIAN_POINT('Ctrl Pts',(-0.341263885542285,28.95114659634,26.328237932921));
#1435=CARTESIAN_POINT('Ctrl Pts',(-0.266525695832692,28.8205396004679,26.5300882340809));
#1436=CARTESIAN_POINT('Ctrl Pts',(-0.204533861485087,28.7052673005018,26.7401128278827));
#1437=CARTESIAN_POINT('Origin',(0.,43.901068856162,34.5577127760922));
#1438=CARTESIAN_POINT('',(0.,43.901068856162,34.5577127760922));
#1439=CARTESIAN_POINT('',(0.,43.901068856162,34.5577127760922));
#1440=CARTESIAN_POINT('',(0.,38.7194405593164,28.1555648808879));
#1441=CARTESIAN_POINT('',(0.,34.6726515896902,23.1555648808879));
#1442=CARTESIAN_POINT('Origin',(-5.,38.7194405593164,28.1555648808879));
#1443=CARTESIAN_POINT('Origin',(0.,40.6650008786622,36.9088537852621));
#1444=CARTESIAN_POINT('',(0.,42.2830348674121,35.7332832806771));
#1445=CARTESIAN_POINT('',(0.,42.2830348674121,35.7332832806771));
#1446=CARTESIAN_POINT('',(0.,40.6650008786622,36.9088537852621));
#1447=CARTESIAN_POINT('Origin',(0.,40.6650008786622,36.9088537852621));
#1448=CARTESIAN_POINT('',(0.,43.901068856162,34.5577127760922));
#1449=CARTESIAN_POINT('',(0.,42.2830348674121,35.7332832806771));
#1450=CARTESIAN_POINT('Origin',(0.,41.1074643628272,34.1152492919272));
#1451=CARTESIAN_POINT('',(0.,39.4894303740773,35.2908197965122));
#1452=CARTESIAN_POINT('',(0.,39.4894303740773,35.2908197965122));
#1453=CARTESIAN_POINT('Origin',(0.,41.1074643628272,34.1152492919272));
#1454=CARTESIAN_POINT('Origin',(0.,32.9415874747134,26.2784872117422));
#1455=CARTESIAN_POINT('',(0.,37.5547776395424,32.6279987503082));
#1456=CARTESIAN_POINT('',(0.,37.5547776395424,32.6279987503082));
#1457=CARTESIAN_POINT('',(0.,30.6726515896902,23.1555648808879));
#1458=CARTESIAN_POINT('Origin',(0.,41.1074643628272,34.1152492919272));
#1459=CARTESIAN_POINT('',(0.,39.4894303740773,35.2908197965122));
#1460=CARTESIAN_POINT('Origin',(0.,2.45053442808101,39.8775426296126));
#1461=CARTESIAN_POINT('Origin',(0.,-27.1515721144125,7.00000000000001));
#1462=CARTESIAN_POINT('Origin',(0.,0.862758624149793,67.0769261422906));
#1463=CARTESIAN_POINT('',(0.,18.5615930088856,28.1555648808879));
#1464=CARTESIAN_POINT('',(0.,29.1365941319708,33.1428769105386));
#1465=CARTESIAN_POINT('Origin',(0.,33.5096926676676,35.5669250117706));
#1466=CARTESIAN_POINT('',(0.,4.96195229044584,76.7550852592252));
#1467=CARTESIAN_POINT('',(0.,2.19040703318154,81.7550852592252));
#1468=CARTESIAN_POINT('',(0.,0.320470730631279,76.7550852592252));
#1469=CARTESIAN_POINT('',(0.,-34.,-1.90237933678711));
#1470=CARTESIAN_POINT('',(0.,-34.,18.9387713148063));
#1471=CARTESIAN_POINT('',(0.,-33.0168027470325,-2.));
#1472=CARTESIAN_POINT('Origin',(0.,-33.0168027470325,3.));
#1473=CARTESIAN_POINT('',(0.,39.,-2.));
#1474=CARTESIAN_POINT('',(0.,39.,-2.));
#1475=CARTESIAN_POINT('',(0.,39.,2.));
#1476=CARTESIAN_POINT('Origin',(0.,33.0884709843693,29.1458404653616));
#1477=CARTESIAN_POINT('',(-79.5116040259424,36.9750108605084,26.0002391252072));
#1478=CARTESIAN_POINT('Ctrl Pts',(-79.7954661385149,28.7052673005018,26.7401128278827));
#1479=CARTESIAN_POINT('Ctrl Pts',(-79.7334743041673,28.8205396004679,26.5300882340808));
#1480=CARTESIAN_POINT('Ctrl Pts',(-79.6587361144577,28.95114659634,26.328237932921));
#1481=CARTESIAN_POINT('Ctrl Pts',(-79.384927887363,29.418722187709,25.7071468056052));
#1482=CARTESIAN_POINT('Ctrl Pts',(-79.1475853562196,29.8088725278683,25.3403364023075));
#1483=CARTESIAN_POINT('Ctrl Pts',(-78.7115905097608,30.5930025316142,24.787470293309));
#1484=CARTESIAN_POINT('Ctrl Pts',(-78.4734621139516,31.0501641514058,24.5507890230918));
#1485=CARTESIAN_POINT('Ctrl Pts',(-78.1065591941616,32.037059305557,24.2301800773811));
#1486=CARTESIAN_POINT('Ctrl Pts',(-77.9869901425234,32.5700571710503,24.1458404653616));
#1487=CARTESIAN_POINT('Ctrl Pts',(-77.9869901425234,33.6068847976884,24.1458404653616));
#1488=CARTESIAN_POINT('Ctrl Pts',(-78.1065591941616,34.1398826631817,24.2301800773811));
#1489=CARTESIAN_POINT('Ctrl Pts',(-78.4734621139516,35.1267778173329,24.5507890230918));
#1490=CARTESIAN_POINT('Ctrl Pts',(-78.7115905097608,35.5839394371245,24.787470293309));
#1491=CARTESIAN_POINT('Ctrl Pts',(-79.1235210245493,36.3247901116855,25.309821469564));
#1492=CARTESIAN_POINT('Ctrl Pts',(-79.3337869146613,36.6737573192771,25.6280260650595));
#1493=CARTESIAN_POINT('Ctrl Pts',(-79.5116040259424,36.9750108605084,26.0002391252072));
#1494=CARTESIAN_POINT('',(0.,36.9750108605084,26.0002391252072));
#1495=CARTESIAN_POINT('Origin',(0.,43.901068856162,34.5577127760922));
#1496=CARTESIAN_POINT('Origin',(-75.,38.7194405593164,28.1555648808879));
#1497=CARTESIAN_POINT('Origin',(-75.,18.5615930088856,28.1555648808879));
#1498=CARTESIAN_POINT('Origin',(-5.,18.5615930088856,28.1555648808879));
#1499=CARTESIAN_POINT('Origin',(0.,-33.0168027470325,3.));
#1500=CARTESIAN_POINT('Ctrl Pts',(-6.26668855696622E-16,-34.,-1.90237933678711));
#1501=CARTESIAN_POINT('Ctrl Pts',(-6.14303886317902E-16,-34.2014010824941,
-1.86198731947278));
#1502=CARTESIAN_POINT('Ctrl Pts',(-0.0122962428330566,-34.3977530404586,
-1.80954213233163));
#1503=CARTESIAN_POINT('Ctrl Pts',(-0.0938633721817597,-35.0905983023142,
-1.58075568473075));
#1504=CARTESIAN_POINT('Ctrl Pts',(-0.235607359311372,-35.5886440125416,
-1.32179255875867));
#1505=CARTESIAN_POINT('Ctrl Pts',(-0.617514642195834,-36.4529674087468,
-0.67219673185546));
#1506=CARTESIAN_POINT('Ctrl Pts',(-0.855809930324585,-36.8203441522952,
-0.281930017399011));
#1507=CARTESIAN_POINT('Ctrl Pts',(-1.29375077410347,-37.3740672438277,0.502528065840412));
#1508=CARTESIAN_POINT('Ctrl Pts',(-1.5330464479447,-37.61110178904,0.959902317740561));
#1509=CARTESIAN_POINT('Ctrl Pts',(-1.90205984995648,-37.9322509589357,1.9474116059155));
#1510=CARTESIAN_POINT('Ctrl Pts',(-2.02253535849175,-38.0168027470325,2.48083370455279));
#1511=CARTESIAN_POINT('Ctrl Pts',(-2.02253535849175,-38.0168027470325,3.51916629544721));
#1512=CARTESIAN_POINT('Ctrl Pts',(-1.90205984995649,-37.9322509589357,4.05258839408449));
#1513=CARTESIAN_POINT('Ctrl Pts',(-1.64456892048063,-37.7081588316416,4.74165465317416));
#1514=CARTESIAN_POINT('Ctrl Pts',(-1.56269729191295,-37.6331010797763,4.93132419405671));
#1515=CARTESIAN_POINT('Ctrl Pts',(-1.47732043662072,-37.5483416822158,5.1130913087035));
#1516=CARTESIAN_POINT('Ctrl Pts',(-78.5226795633793,-37.5483416822158,5.1130913087035));
#1517=CARTESIAN_POINT('Ctrl Pts',(-78.437302708087,-37.6331010797763,4.93132419405671));
#1518=CARTESIAN_POINT('Ctrl Pts',(-78.3554310795194,-37.7081588316416,4.74165465317415));
#1519=CARTESIAN_POINT('Ctrl Pts',(-78.0979401500435,-37.9322509589357,4.05258839408449));
#1520=CARTESIAN_POINT('Ctrl Pts',(-77.9774646415082,-38.0168027470325,3.51916629544721));
#1521=CARTESIAN_POINT('Ctrl Pts',(-77.9774646415082,-38.0168027470325,2.48083370455279));
#1522=CARTESIAN_POINT('Ctrl Pts',(-78.0979401500435,-37.9322509589357,1.9474116059155));
#1523=CARTESIAN_POINT('Ctrl Pts',(-78.4669535520553,-37.61110178904,0.959902317740558));
#1524=CARTESIAN_POINT('Ctrl Pts',(-78.7062492258965,-37.3740672438277,0.502528065840411));
#1525=CARTESIAN_POINT('Ctrl Pts',(-79.1441900696754,-36.8203441522952,-0.281930017399011));
#1526=CARTESIAN_POINT('Ctrl Pts',(-79.3824853578042,-36.4529674087468,-0.672196731855457));
#1527=CARTESIAN_POINT('Ctrl Pts',(-79.7643926406886,-35.5886440125416,-1.32179255875867));
#1528=CARTESIAN_POINT('Ctrl Pts',(-79.9061366278182,-35.0905983023142,-1.58075568473075));
#1529=CARTESIAN_POINT('Ctrl Pts',(-79.9877037571669,-34.3977530404586,-1.80954213233163));
#1530=CARTESIAN_POINT('Ctrl Pts',(-80.,-34.2014010824942,-1.86198731947278));
#1531=CARTESIAN_POINT('Ctrl Pts',(-80.,-34.,-1.90237933678711));
#1532=CARTESIAN_POINT('',(0.,-33.0168027470325,-2.));
#1533=CARTESIAN_POINT('Origin',(0.,39.,-2.));
#1534=CARTESIAN_POINT('',(0.,39.,-2.));
#1535=CARTESIAN_POINT('Origin',(-75.,-34.,18.9387713148063));
#1536=CARTESIAN_POINT('Origin',(-5.,-34.,18.9387713148063));
#1537=CARTESIAN_POINT('Origin',(0.,0.402323279975034,74.6675470422989));
#1538=CARTESIAN_POINT('',(-0.0113367423963578,4.77542181567186,77.0915951435309));
#1539=CARTESIAN_POINT('Ctrl Pts',(-6.52964763009334E-5,-4.12921565520822,
76.7806383510024));
#1540=CARTESIAN_POINT('Ctrl Pts',(-0.000362771302911549,-4.10207354272941,
76.8388447990504));
#1541=CARTESIAN_POINT('Ctrl Pts',(-0.00167251469593039,-4.07404321779771,
76.8960233742366));
#1542=CARTESIAN_POINT('Ctrl Pts',(-0.0194387235287834,-3.84254227614616,
77.3467273168179));
#1543=CARTESIAN_POINT('Ctrl Pts',(-0.0850865370608557,-3.57014229700667,
77.7399375148847));
#1544=CARTESIAN_POINT('Ctrl Pts',(-0.27380297634194,-2.92932981582185,78.425226145784));
#1545=CARTESIAN_POINT('Ctrl Pts',(-0.39464599635733,-2.56084702904494,78.7178498308637));
#1546=CARTESIAN_POINT('Ctrl Pts',(-0.610645479967421,-1.82921193452704,
79.1621292677758));
#1547=CARTESIAN_POINT('Ctrl Pts',(-0.725342548564913,-1.40367984472633,
79.3531684240191));
#1548=CARTESIAN_POINT('Ctrl Pts',(-0.889664227128935,-0.507671530428391,
79.6060284871563));
#1549=CARTESIAN_POINT('Ctrl Pts',(-0.935819103172785,-0.0364771835292578,
79.6675470422989));
#1550=CARTESIAN_POINT('Ctrl Pts',(-0.935819103172785,0.841123743479326,
79.6675470422989));
#1551=CARTESIAN_POINT('Ctrl Pts',(-0.889664227128935,1.31231809037846,79.6060284871563));
#1552=CARTESIAN_POINT('Ctrl Pts',(-0.725342548564913,2.2083264046764,79.3531684240191));
#1553=CARTESIAN_POINT('Ctrl Pts',(-0.610645479967426,2.63385849447711,79.1621292677758));
#1554=CARTESIAN_POINT('Ctrl Pts',(-0.394645996357334,3.36549358899501,78.7178498308637));
#1555=CARTESIAN_POINT('Ctrl Pts',(-0.273802976341945,3.7339763757719,78.425226145784));
#1556=CARTESIAN_POINT('Ctrl Pts',(-0.0962148539396968,4.3370011349241,77.7803479267553));
#1557=CARTESIAN_POINT('Ctrl Pts',(-0.0347777664499063,4.58279581183729,
77.4391016533555));
#1558=CARTESIAN_POINT('Ctrl Pts',(-0.0113367423963578,4.77542181567185,
77.0915951435309));
#1559=CARTESIAN_POINT('',(-79.9886632576036,4.77542181567186,77.0915951435309));
#1560=CARTESIAN_POINT('',(0.,4.77542181567186,77.0915951435309));
#1561=CARTESIAN_POINT('Ctrl Pts',(-79.9886632576036,4.77542181567185,77.0915951435309));
#1562=CARTESIAN_POINT('Ctrl Pts',(-79.9652222335501,4.58279581183729,77.4391016533555));
#1563=CARTESIAN_POINT('Ctrl Pts',(-79.9037851460603,4.3370011349241,77.7803479267553));
#1564=CARTESIAN_POINT('Ctrl Pts',(-79.7261970236581,3.7339763757719,78.425226145784));
#1565=CARTESIAN_POINT('Ctrl Pts',(-79.6053540036427,3.36549358899501,78.7178498308637));
#1566=CARTESIAN_POINT('Ctrl Pts',(-79.3893545200326,2.63385849447711,79.1621292677758));
#1567=CARTESIAN_POINT('Ctrl Pts',(-79.2746574514351,2.20832640467641,79.3531684240191));
#1568=CARTESIAN_POINT('Ctrl Pts',(-79.1103357728711,1.31231809037847,79.6060284871563));
#1569=CARTESIAN_POINT('Ctrl Pts',(-79.0641808968272,0.841123743479326,79.6675470422989));
#1570=CARTESIAN_POINT('Ctrl Pts',(-79.0641808968272,-0.0364771835292576,
79.6675470422989));
#1571=CARTESIAN_POINT('Ctrl Pts',(-79.1103357728711,-0.507671530428398,
79.6060284871563));
#1572=CARTESIAN_POINT('Ctrl Pts',(-79.2746574514351,-1.40367984472634,79.3531684240191));
#1573=CARTESIAN_POINT('Ctrl Pts',(-79.3893545200326,-1.82921193452704,79.1621292677758));
#1574=CARTESIAN_POINT('Ctrl Pts',(-79.6053540036427,-2.56084702904494,78.7178498308637));
#1575=CARTESIAN_POINT('Ctrl Pts',(-79.7261970236581,-2.92932981582184,78.425226145784));
#1576=CARTESIAN_POINT('Ctrl Pts',(-79.9149134629391,-3.57014229700666,77.7399375148847));
#1577=CARTESIAN_POINT('Ctrl Pts',(-79.9805612764712,-3.84254227614616,77.3467273168179));
#1578=CARTESIAN_POINT('Ctrl Pts',(-79.9983274853041,-4.07404321779771,76.8960233742366));
#1579=CARTESIAN_POINT('Ctrl Pts',(-79.9996372286971,-4.10207354272941,76.8388447990504));
#1580=CARTESIAN_POINT('Ctrl Pts',(-79.9999347035237,-4.12921565520822,76.7806383510024));
#1581=CARTESIAN_POINT('Origin',(-75.,0.320470730631278,76.7550852592252));
#1582=CARTESIAN_POINT('Origin',(-75.,4.96195229044584,76.7550852592252));
#1583=CARTESIAN_POINT('Origin',(-5.,0.320470730631279,76.7550852592252));
#1584=CARTESIAN_POINT('Origin',(-5.,4.96195229044584,76.7550852592252));
#1585=CARTESIAN_POINT('Origin',(0.,-27.1515721144125,7.00000000000001));
#1586=CARTESIAN_POINT('Origin',(0.,0.862758624149793,67.0769261422906));
#1587=CARTESIAN_POINT('Origin',(0.,33.5096926676676,35.5669250117706));
#1588=CARTESIAN_POINT('',(0.,37.5547776395424,32.6279987503082));
#1589=CARTESIAN_POINT('',(0.,29.1365941319708,33.1428769105386));
#1590=CARTESIAN_POINT('Origin',(0.,32.9415874747134,26.2784872117422));
#1591=CARTESIAN_POINT('Origin',(0.,2.19040703318154,81.7550852592252));
#1592=CARTESIAN_POINT('Origin',(0.,39.,2.));
#1593=UNCERTAINTY_MEASURE_WITH_UNIT(LENGTH_MEASURE(0.01),#1597,
'DISTANCE_ACCURACY_VALUE',
'Maximum model space distance between geometric entities at asserted c
onnectivities');
#1594=UNCERTAINTY_MEASURE_WITH_UNIT(LENGTH_MEASURE(0.01),#1597,
'DISTANCE_ACCURACY_VALUE',
'Maximum model space distance between geometric entities at asserted c
onnectivities');
#1595=(
GEOMETRIC_REPRESENTATION_CONTEXT(3)
GLOBAL_UNCERTAINTY_ASSIGNED_CONTEXT((#1593))
GLOBAL_UNIT_ASSIGNED_CONTEXT((#1597,#1599,#1600))
REPRESENTATION_CONTEXT('','3D')
);
#1596=(
GEOMETRIC_REPRESENTATION_CONTEXT(3)
GLOBAL_UNCERTAINTY_ASSIGNED_CONTEXT((#1594))
GLOBAL_UNIT_ASSIGNED_CONTEXT((#1597,#1599,#1600))
REPRESENTATION_CONTEXT('','3D')
);
#1597=(
LENGTH_UNIT()
NAMED_UNIT(*)
SI_UNIT(.MILLI.,.METRE.)
);
#1598=(
LENGTH_UNIT()
NAMED_UNIT(*)
SI_UNIT($,.METRE.)
);
#1599=(
NAMED_UNIT(*)
PLANE_ANGLE_UNIT()
SI_UNIT($,.RADIAN.)
);
#1600=(
NAMED_UNIT(*)
SI_UNIT($,.STERADIAN.)
SOLID_ANGLE_UNIT()
);
#1601=SHAPE_DEFINITION_REPRESENTATION(#1602,#1603);
#1602=PRODUCT_DEFINITION_SHAPE('',$,#1605);
#1603=SHAPE_REPRESENTATION('',(#723),#1595);
#1604=PRODUCT_DEFINITION_CONTEXT('part definition',#1609,'design');
#1605=PRODUCT_DEFINITION('Phone stand','Phone stand v1',#1606,#1604);
#1606=PRODUCT_DEFINITION_FORMATION('',$,#1611);
#1607=PRODUCT_RELATED_PRODUCT_CATEGORY('Phone stand v1',
'Phone stand v1',(#1611));
#1608=APPLICATION_PROTOCOL_DEFINITION('international standard',
'automotive_design',2009,#1609);
#1609=APPLICATION_CONTEXT(
'Core Data for Automotive Mechanical Design Process');
#1610=PRODUCT_CONTEXT('part definition',#1609,'mechanical');
#1611=PRODUCT('Phone stand','Phone stand v1',$,(#1610));
#1612=PRESENTATION_STYLE_ASSIGNMENT((#1614));
#1613=PRESENTATION_STYLE_ASSIGNMENT((#1615));
#1614=SURFACE_STYLE_USAGE(.BOTH.,#1616);
#1615=SURFACE_STYLE_USAGE(.BOTH.,#1617);
#1616=SURFACE_SIDE_STYLE('',(#1618));
#1617=SURFACE_SIDE_STYLE('',(#1619));
#1618=SURFACE_STYLE_FILL_AREA(#1620);
#1619=SURFACE_STYLE_FILL_AREA(#1621);
#1620=FILL_AREA_STYLE('Steel - Satin',(#1622));
#1621=FILL_AREA_STYLE('ABS (White)',(#1623));
#1622=FILL_AREA_STYLE_COLOUR('Steel - Satin',#1624);
#1623=FILL_AREA_STYLE_COLOUR('ABS (White)',#1625);
#1624=COLOUR_RGB('Steel - Satin',0.627450980392157,0.627450980392157,0.627450980392157);
#1625=COLOUR_RGB('ABS (White)',0.517647058823529,0.380392156862745,0.862745098039216);
ENDSEC;
END-ISO-10303-21;
