ISO-10303-21;
HEADER;
FILE_DESCRIPTION (( 'STEP AP214' ),
    '1' );
FILE_NAME ('SIDE BRACKET.STEP',
    '2026-07-17T08:14:51',
    ( '' ),
    ( '' ),
    'SwSTEP 2.0',
    'SolidWorks 2019',
    '' );
FILE_SCHEMA (( 'AUTOMOTIVE_DESIGN' ));
ENDSEC;

DATA;
#1 = EDGE_CURVE ( 'NONE', #104, #476, #273, .T. ) ;
#2 = LINE ( 'NONE', #181, #141 ) ;
#3 = ORIENTED_EDGE ( 'NONE', *, *, #504, .F. ) ;
#4 = DIRECTION ( 'NONE',  ( 1.000000000000000000, 0.000000000000000000, -0.000000000000000000 ) ) ;
#5 = AXIS2_PLACEMENT_3D ( 'NONE', #74, #202, #571 ) ;
#6 = APPLICATION_CONTEXT ( 'automotive_design' ) ;
#7 = FACE_OUTER_BOUND ( 'NONE', #226, .T. ) ;
#8 = ORIENTED_EDGE ( 'NONE', *, *, #556, .T. ) ;
#9 = ADVANCED_FACE ( 'NONE', ( #70 ), #99, .F. ) ;
#10 = ORIENTED_EDGE ( 'NONE', *, *, #129, .T. ) ;
#11 = AXIS2_PLACEMENT_3D ( 'NONE', #196, #450, #462 ) ;
#12 = FACE_OUTER_BOUND ( 'NONE', #293, .T. ) ;
#13 = VERTEX_POINT ( 'NONE', #369 ) ;
#14 = CARTESIAN_POINT ( 'NONE',  ( 0.7365999999999796044, 60.00000000000000000, 2.493263048594849589E-17 ) ) ;
#15 = CARTESIAN_POINT ( 'NONE',  ( -3.175878363711384558E-13, 57.00000000000000000, -204.9999999999998863 ) ) ;
#16 = ORIENTED_EDGE ( 'NONE', *, *, #435, .F. ) ;
#17 = DIRECTION ( 'NONE',  ( -1.000000000000000000, -3.469446951953613794E-15, 1.601283208593975415E-15 ) ) ;
#18 = MECHANICAL_DESIGN_GEOMETRIC_PRESENTATION_REPRESENTATION (  '', ( #582 ), #169 ) ;
#19 = VECTOR ( 'NONE', #310, 1000.000000000000000 ) ;
#20 = DIRECTION ( 'NONE',  ( 1.000000000000000000, 0.000000000000000000, 0.000000000000000000 ) ) ;
#21 = ADVANCED_FACE ( 'NONE', ( #241 ), #318, .T. ) ;
#22 = CARTESIAN_POINT ( 'NONE',  ( 52.00000000000000000, 60.00000000000017764, -204.9999999999999147 ) ) ;
#23 = CARTESIAN_POINT ( 'NONE',  ( -3.736599999999988153, -59.99999999999997158, 205.0000000000000568 ) ) ;
#24 = EDGE_CURVE ( 'NONE', #538, #476, #321, .T. ) ;
#25 = LINE ( 'NONE', #157, #87 ) ;
#26 = EDGE_LOOP ( 'NONE', ( #235, #495, #200, #105 ) ) ;
#27 = EDGE_CURVE ( 'NONE', #160, #468, #236, .T. ) ;
#28 = CARTESIAN_POINT ( 'NONE',  ( 52.00000000000000000, 60.00000000000017764, -204.9999999999999147 ) ) ;
#29 = VERTEX_POINT ( 'NONE', #565 ) ;
#30 = VECTOR ( 'NONE', #100, 1000.000000000000000 ) ;
#31 = PLANE ( 'NONE',  #439 ) ;
#32 = ADVANCED_FACE ( 'NONE', ( #283 ), #508, .T. ) ;
#33 = EDGE_LOOP ( 'NONE', ( #456, #368, #158, #248 ) ) ;
#34 = CIRCLE ( 'NONE', #351, 3.736599999999997035 ) ;
#35 = FACE_OUTER_BOUND ( 'NONE', #506, .T. ) ;
#36 = ORIENTED_EDGE ( 'NONE', *, *, #526, .T. ) ;
#37 = VECTOR ( 'NONE', #415, 1000.000000000000000 ) ;
#38 = CARTESIAN_POINT ( 'NONE',  ( 1.200962406445482650E-13, 57.00000000000000000, 205.0000000000000853 ) ) ;
#39 = FACE_OUTER_BOUND ( 'NONE', #98, .T. ) ;
#40 = AXIS2_PLACEMENT_3D ( 'NONE', #121, #394, #126 ) ;
#41 = AXIS2_PLACEMENT_3D ( 'NONE', #225, #97, #561 ) ;
#42 = EDGE_CURVE ( 'NONE', #468, #581, #376, .T. ) ;
#43 = CARTESIAN_POINT ( 'NONE',  ( -3.736599999999998811, -56.26339999999997588, 205.0000000000000568 ) ) ;
#44 =( NAMED_UNIT ( * ) PLANE_ANGLE_UNIT ( ) SI_UNIT ( $, .RADIAN. ) );
#45 = DIRECTION ( 'NONE',  ( 1.000000000000000000, 3.673532066774412425E-15, 0.000000000000000000 ) ) ;
#46 = DIRECTION ( 'NONE',  ( 1.000000000000000000, 0.000000000000000000, 0.000000000000000000 ) ) ;
#47 = CARTESIAN_POINT ( 'NONE',  ( -1.734723475976807094E-15, -56.26339999999997588, -204.9999999999998863 ) ) ;
#48 = CARTESIAN_POINT ( 'NONE',  ( -3.000000000000000000, 60.00000000000000711, -204.9999999999998863 ) ) ;
#49 = CIRCLE ( 'NONE', #457, 0.7365999999999970349 ) ;
#50 = LINE ( 'NONE', #358, #553 ) ;
#51 = ADVANCED_FACE ( 'NONE', ( #61 ), #232, .F. ) ;
#52 = LINE ( 'NONE', #593, #360 ) ;
#53 = VERTEX_POINT ( 'NONE', #23 ) ;
#54 = CARTESIAN_POINT ( 'NONE',  ( -2.186412611337462388E-13, 60.00000000000000000, 0.000000000000000000 ) ) ;
#55 = ORIENTED_EDGE ( 'NONE', *, *, #106, .F. ) ;
#56 = CARTESIAN_POINT ( 'NONE',  ( -3.736599999999985489, -59.99999999999997158, -6.323870966180795029E-17 ) ) ;
#57 = EDGE_CURVE ( 'NONE', #271, #102, #198, .T. ) ;
#58 = VECTOR ( 'NONE', #422, 1000.000000000000000 ) ;
#59 = DIRECTION ( 'NONE',  ( 3.673532066774412425E-15, -1.000000000000000000, 0.000000000000000000 ) ) ;
#60 = VERTEX_POINT ( 'NONE', #278 ) ;
#61 = FACE_OUTER_BOUND ( 'NONE', #189, .T. ) ;
#62 = PRODUCT ( 'SIDE BRACKET', 'SIDE BRACKET', '', ( #80 ) ) ;
#63 = AXIS2_PLACEMENT_3D ( 'NONE', #54, #146, #316 ) ;
#64 = PLANE ( 'NONE',  #161 ) ;
#65 = ORIENTED_EDGE ( 'NONE', *, *, #129, .F. ) ;
#66 = CARTESIAN_POINT ( 'NONE',  ( -2.081668171172168513E-13, 57.00000000000000000, 0.000000000000000000 ) ) ;
#67 = EDGE_CURVE ( 'NONE', #430, #53, #552, .T. ) ;
#68 = CARTESIAN_POINT ( 'NONE',  ( -3.000000000000019096, 56.26340000000000430, 205.0000000000001137 ) ) ;
#69 = CARTESIAN_POINT ( 'NONE',  ( -3.736599999999998811, -56.26339999999997588, 205.0000000000000568 ) ) ;
#70 = FACE_OUTER_BOUND ( 'NONE', #296, .T. ) ;
#71 = DIRECTION ( 'NONE',  ( 1.000000000000000000, 3.673532066774412425E-15, -0.000000000000000000 ) ) ;
#72 = ORIENTED_EDGE ( 'NONE', *, *, #179, .T. ) ;
#73 = VECTOR ( 'NONE', #401, 1000.000000000000000 ) ;
#74 = CARTESIAN_POINT ( 'NONE',  ( -3.000000000000000000, 60.00000000000000711, -204.9999999999998863 ) ) ;
#75 = ORIENTED_EDGE ( 'NONE', *, *, #24, .T. ) ;
#76 = EDGE_CURVE ( 'NONE', #13, #271, #315, .T. ) ;
#77 = LINE ( 'NONE', #336, #516 ) ;
#78 = VERTEX_POINT ( 'NONE', #151 ) ;
#79 = DIRECTION ( 'NONE',  ( -1.000000000000000000, 0.000000000000000000, -0.000000000000000000 ) ) ;
#80 = PRODUCT_CONTEXT ( 'NONE', #233, 'mechanical' ) ;
#81 = VERTEX_POINT ( 'NONE', #461 ) ;
#82 = VECTOR ( 'NONE', #328, 1000.000000000000000 ) ;
#83 = DIRECTION ( 'NONE',  ( 1.000000000000000000, 3.469446951953613794E-15, -5.337610695313251385E-16 ) ) ;
#84 = EDGE_CURVE ( 'NONE', #271, #476, #412, .T. ) ;
#85 = DIRECTION ( 'NONE',  ( -1.000000000000000000, -3.469446951953613794E-15, 1.601283208593975415E-15 ) ) ;
#86 =( LENGTH_UNIT ( ) NAMED_UNIT ( * ) SI_UNIT ( .MILLI., .METRE. ) );
#87 = VECTOR ( 'NONE', #71, 1000.000000000000000 ) ;
#88 = CARTESIAN_POINT ( 'NONE',  ( 2.308863680229940320E-13, -59.99999999999995737, 0.000000000000000000 ) ) ;
#89 = CIRCLE ( 'NONE', #231, 0.7365999999999970349 ) ;
#90 = FILL_AREA_STYLE_COLOUR ( '', #466 ) ;
#91 = CARTESIAN_POINT ( 'NONE',  ( -3.000000000000001776, -56.26339999999997588, -204.9999999999998863 ) ) ;
#92 = DIRECTION ( 'NONE',  ( -0.000000000000000000, -0.000000000000000000, 1.000000000000000000 ) ) ;
#93 = PRESENTATION_LAYER_ASSIGNMENT (  '', '', ( #342 ) ) ;
#94 = PLANE ( 'NONE',  #431 ) ;
#95 = LINE ( 'NONE', #136, #19 ) ;
#96 = ORIENTED_EDGE ( 'NONE', *, *, #496, .F. ) ;
#97 = DIRECTION ( 'NONE',  ( 0.000000000000000000, 0.000000000000000000, -1.000000000000000000 ) ) ;
#98 = EDGE_LOOP ( 'NONE', ( #317, #532, #471, #473 ) ) ;
#99 = PLANE ( 'NONE',  #490 ) ;
#100 = DIRECTION ( 'NONE',  ( 0.000000000000000000, 0.000000000000000000, -1.000000000000000000 ) ) ;
#101 = ORIENTED_EDGE ( 'NONE', *, *, #526, .F. ) ;
#102 = VERTEX_POINT ( 'NONE', #187 ) ;
#103 = LINE ( 'NONE', #279, #364 ) ;
#104 = VERTEX_POINT ( 'NONE', #587 ) ;
#105 = ORIENTED_EDGE ( 'NONE', *, *, #384, .T. ) ;
#106 = EDGE_CURVE ( 'NONE', #468, #430, #219, .T. ) ;
#107 = PLANE ( 'NONE',  #11 ) ;
#108 = EDGE_LOOP ( 'NONE', ( #265, #72, #411, #433 ) ) ;
#109 = ADVANCED_FACE ( 'NONE', ( #220 ), #94, .T. ) ;
#110 = LINE ( 'NONE', #281, #540 ) ;
#111 = DIRECTION ( 'NONE',  ( -3.469446951953613794E-15, 1.000000000000000000, 0.000000000000000000 ) ) ;
#112 = LINE ( 'NONE', #199, #227 ) ;
#113 = ORIENTED_EDGE ( 'NONE', *, *, #180, .F. ) ;
#114 = VECTOR ( 'NONE', #59, 1000.000000000000000 ) ;
#115 = CARTESIAN_POINT ( 'NONE',  ( 0.7366000000000075820, 56.26340000000000430, -204.9999999999997442 ) ) ;
#116 = EDGE_LOOP ( 'NONE', ( #536, #569, #150, #165 ) ) ;
#117 = DIRECTION ( 'NONE',  ( 3.491481338843133355E-15, -1.000000000000000000, 0.000000000000000000 ) ) ;
#118 = EDGE_LOOP ( 'NONE', ( #434, #291, #510, #131 ) ) ;
#119 = PRODUCT_RELATED_PRODUCT_CATEGORY ( 'part', '', ( #62 ) ) ;
#120 = CARTESIAN_POINT ( 'NONE',  ( -20.00000000000001066, -57.00000000000003553, 205.0000000000000568 ) ) ;
#121 = CARTESIAN_POINT ( 'NONE',  ( -3.000000000000000000, 60.00000000000000711, 205.0000000000000853 ) ) ;
#122 = ORIENTED_EDGE ( 'NONE', *, *, #556, .F. ) ;
#123 = COLOUR_RGB ( '',0.2509803921568627416, 0.2509803921568627416, 0.2509803921568627416 ) ;
#124 = LINE ( 'NONE', #177, #448 ) ;
#125 = ORIENTED_EDGE ( 'NONE', *, *, #221, .T. ) ;
#126 = DIRECTION ( 'NONE',  ( 0.000000000000000000, -1.000000000000000000, -4.625929269271485914E-16 ) ) ;
#127 = ORIENTED_EDGE ( 'NONE', *, *, #27, .T. ) ;
#128 = AXIS2_PLACEMENT_3D ( 'NONE', #491, #166, #446 ) ;
#129 = EDGE_CURVE ( 'NONE', #579, #60, #135, .T. ) ;
#130 = DIRECTION ( 'NONE',  ( 1.000000000000000000, 0.000000000000000000, 0.000000000000000000 ) ) ;
#131 = ORIENTED_EDGE ( 'NONE', *, *, #57, .T. ) ;
#132 = PLANE ( 'NONE',  #549 ) ;
#133 = ORIENTED_EDGE ( 'NONE', *, *, #250, .T. ) ;
#134 = ADVANCED_FACE ( 'NONE', ( #307 ), #578, .F. ) ;
#135 = CIRCLE ( 'NONE', #478, 0.7365999999999970349 ) ;
#136 = CARTESIAN_POINT ( 'NONE',  ( -20.00000000000000000, -60.00000000000004263, 205.0000000000000568 ) ) ;
#137 = DIRECTION ( 'NONE',  ( 1.000000000000000000, 0.000000000000000000, 0.000000000000000000 ) ) ;
#138 = CARTESIAN_POINT ( 'NONE',  ( 2.204119240064646193E-13, -56.99999999999995737, 0.000000000000000000 ) ) ;
#139 = AXIS2_PLACEMENT_3D ( 'NONE', #268, #326, #190 ) ;
#140 = DIRECTION ( 'NONE',  ( 0.000000000000000000, 0.000000000000000000, -1.000000000000000000 ) ) ;
#141 = VECTOR ( 'NONE', #359, 1000.000000000000000 ) ;
#142 = CARTESIAN_POINT ( 'NONE',  ( 0.7365999999999748304, 57.00000000000000000, 205.0000000000001137 ) ) ;
#143 = EDGE_CURVE ( 'NONE', #29, #438, #49, .T. ) ;
#144 = ORIENTED_EDGE ( 'NONE', *, *, #84, .T. ) ;
#145 = ORIENTED_EDGE ( 'NONE', *, *, #143, .T. ) ;
#146 = DIRECTION ( 'NONE',  ( -3.469446951953613794E-15, 1.000000000000000000, 0.000000000000000000 ) ) ;
#147 = ORIENTED_EDGE ( 'NONE', *, *, #221, .F. ) ;
#148 = EDGE_LOOP ( 'NONE', ( #361, #186, #514, #480 ) ) ;
#149 = DIRECTION ( 'NONE',  ( 0.000000000000000000, 0.000000000000000000, -1.000000000000000000 ) ) ;
#150 = ORIENTED_EDGE ( 'NONE', *, *, #67, .F. ) ;
#151 = CARTESIAN_POINT ( 'NONE',  ( -1.734723475976807094E-15, -56.26339999999997588, 205.0000000000000568 ) ) ;
#152 = ADVANCED_FACE ( 'NONE', ( #494 ), #389, .T. ) ;
#153 = CARTESIAN_POINT ( 'NONE',  ( -3.736599999999996147, -56.99999999999997158, -204.9999999999998863 ) ) ;
#154 = ORIENTED_EDGE ( 'NONE', *, *, #1, .F. ) ;
#155 = FACE_OUTER_BOUND ( 'NONE', #26, .T. ) ;
#156 = DIRECTION ( 'NONE',  ( 1.000000000000000000, 0.000000000000000000, 0.000000000000000000 ) ) ;
#157 = CARTESIAN_POINT ( 'NONE',  ( 2.204119240064646193E-13, -56.99999999999995737, 205.0000000000000568 ) ) ;
#158 = ORIENTED_EDGE ( 'NONE', *, *, #515, .T. ) ;
#159 = CARTESIAN_POINT ( 'NONE',  ( 0.000000000000000000, 60.00000000000000711, -204.9999999999998863 ) ) ;
#160 = VERTEX_POINT ( 'NONE', #91 ) ;
#161 = AXIS2_PLACEMENT_3D ( 'NONE', #453, #20, #149 ) ;
#162 = FACE_OUTER_BOUND ( 'NONE', #525, .T. ) ;
#163 = ORIENTED_EDGE ( 'NONE', *, *, #143, .F. ) ;
#164 = PLANE ( 'NONE',  #204 ) ;
#165 = ORIENTED_EDGE ( 'NONE', *, *, #215, .F. ) ;
#166 = DIRECTION ( 'NONE',  ( -7.359504293276601900E-17, 0.000000000000000000, 1.000000000000000000 ) ) ;
#167 = EDGE_CURVE ( 'NONE', #160, #419, #262, .T. ) ;
#168 = ORIENTED_EDGE ( 'NONE', *, *, #287, .T. ) ;
#169 =( GEOMETRIC_REPRESENTATION_CONTEXT ( 3 ) GLOBAL_UNCERTAINTY_ASSIGNED_CONTEXT ( ( #192 ) ) GLOBAL_UNIT_ASSIGNED_CONTEXT ( ( #301, #44, #481 ) ) REPRESENTATION_CONTEXT ( 'NONE', 'WORKASPACE' ) );
#170 = MECHANICAL_DESIGN_GEOMETRIC_PRESENTATION_REPRESENTATION (  '', ( #342 ), #395 ) ;
#171 = FACE_OUTER_BOUND ( 'NONE', #203, .T. ) ;
#172 = CARTESIAN_POINT ( 'NONE',  ( 0.000000000000000000, 56.26340000000000430, 205.0000000000000853 ) ) ;
#173 = ADVANCED_FACE ( 'NONE', ( #171 ), #592, .T. ) ;
#174 = VECTOR ( 'NONE', #403, 1000.000000000000000 ) ;
#175 = DIRECTION ( 'NONE',  ( 7.359504293276601900E-17, -0.000000000000000000, -1.000000000000000000 ) ) ;
#176 = DIRECTION ( 'NONE',  ( 0.000000000000000000, 0.000000000000000000, 1.000000000000000000 ) ) ;
#177 = CARTESIAN_POINT ( 'NONE',  ( -1.734723475976807094E-15, -56.26339999999997588, 205.0000000000000568 ) ) ;
#178 = CLOSED_SHELL ( 'NONE', ( #589, #408, #32, #269, #393, #51, #152, #134, #493, #284, #500, #9, #109, #573, #416, #546, #327, #21, #306, #567, #523, #173 ) ) ;
#179 = EDGE_CURVE ( 'NONE', #78, #576, #124, .T. ) ;
#180 = EDGE_CURVE ( 'NONE', #104, #13, #297, .T. ) ;
#181 = CARTESIAN_POINT ( 'NONE',  ( 0.7365999999999830461, 60.00000000000000000, -204.9999999999998863 ) ) ;
#182 = ORIENTED_EDGE ( 'NONE', *, *, #396, .T. ) ;
#183 = VECTOR ( 'NONE', #294, 1000.000000000000000 ) ;
#184 = CARTESIAN_POINT ( 'NONE',  ( 2.204119240064646193E-13, -56.99999999999995737, -204.9999999999998863 ) ) ;
#185 = CARTESIAN_POINT ( 'NONE',  ( -3.000000000000001776, -56.26339999999997588, 205.0000000000000568 ) ) ;
#186 = ORIENTED_EDGE ( 'NONE', *, *, #67, .T. ) ;
#187 = CARTESIAN_POINT ( 'NONE',  ( 52.00000000000001421, 57.00000000000018474, 205.0000000000000284 ) ) ;
#188 = DIRECTION ( 'NONE',  ( -7.359504293276601900E-17, 0.000000000000000000, 1.000000000000000000 ) ) ;
#189 = EDGE_LOOP ( 'NONE', ( #96, #75, #518, #385 ) ) ;
#190 = DIRECTION ( 'NONE',  ( 1.000000000000000000, 0.000000000000000000, 0.000000000000000000 ) ) ;
#191 = DIRECTION ( 'NONE',  ( -1.000000000000000000, -3.673532066774412425E-15, 0.000000000000000000 ) ) ;
#192 = UNCERTAINTY_MEASURE_WITH_UNIT (LENGTH_MEASURE( 1.000000000000000082E-05 ), #301, 'distance_accuracy_value', 'NONE');
#193 = EDGE_LOOP ( 'NONE', ( #144, #382, #257, #414 ) ) ;
#194 = AXIS2_PLACEMENT_3D ( 'NONE', #542, #489, #444 ) ;
#195 = CARTESIAN_POINT ( 'NONE',  ( -2.999999999999989786, -59.99999999999997158, 205.0000000000000568 ) ) ;
#196 = CARTESIAN_POINT ( 'NONE',  ( -1.047444401652940007E-14, 60.00000000000000000, 205.0000000000000853 ) ) ;
#197 = FACE_OUTER_BOUND ( 'NONE', #349, .T. ) ;
#198 = LINE ( 'NONE', #380, #212 ) ;
#199 = CARTESIAN_POINT ( 'NONE',  ( -20.00000000000000000, -60.00000000000004263, -204.9999999999998863 ) ) ;
#200 = ORIENTED_EDGE ( 'NONE', *, *, #487, .T. ) ;
#201 = PRODUCT_DEFINITION ( 'UNKNOWN', '', #485, #562 ) ;
#202 = DIRECTION ( 'NONE',  ( 0.000000000000000000, 0.000000000000000000, -1.000000000000000000 ) ) ;
#203 = EDGE_LOOP ( 'NONE', ( #428, #339, #341, #36 ) ) ;
#204 = AXIS2_PLACEMENT_3D ( 'NONE', #28, #472, #429 ) ;
#205 = CARTESIAN_POINT ( 'NONE',  ( -20.00000000000000000, -60.00000000000004263, -204.9999999999998863 ) ) ;
#206 = VECTOR ( 'NONE', #83, 1000.000000000000000 ) ;
#207 = ORIENTED_EDGE ( 'NONE', *, *, #357, .T. ) ;
#208 = EDGE_CURVE ( 'NONE', #102, #538, #256, .T. ) ;
#209 = DIRECTION ( 'NONE',  ( -7.359504293276601900E-17, 0.000000000000000000, 1.000000000000000000 ) ) ;
#210 = ORIENTED_EDGE ( 'NONE', *, *, #477, .F. ) ;
#211 = EDGE_CURVE ( 'NONE', #476, #502, #322, .T. ) ;
#212 = VECTOR ( 'NONE', #362, 1000.000000000000000 ) ;
#213 = CARTESIAN_POINT ( 'NONE',  ( 52.00000000000000000, 60.00000000000017764, 205.0000000000000284 ) ) ;
#214 = VECTOR ( 'NONE', #488, 1000.000000000000000 ) ;
#215 = EDGE_CURVE ( 'NONE', #576, #430, #34, .T. ) ;
#216 = EDGE_CURVE ( 'NONE', #53, #78, #507, .T. ) ;
#217 = FACE_OUTER_BOUND ( 'NONE', #33, .T. ) ;
#218 = FACE_OUTER_BOUND ( 'NONE', #244, .T. ) ;
#219 = LINE ( 'NONE', #311, #588 ) ;
#220 = FACE_OUTER_BOUND ( 'NONE', #118, .T. ) ;
#221 = EDGE_CURVE ( 'NONE', #160, #576, #285, .T. ) ;
#222 = PLANE ( 'NONE',  #469 ) ;
#223 =( NAMED_UNIT ( * ) SI_UNIT ( $, .STERADIAN. ) SOLID_ANGLE_UNIT ( ) );
#224 = ORIENTED_EDGE ( 'NONE', *, *, #1, .T. ) ;
#225 = CARTESIAN_POINT ( 'NONE',  ( -3.736599999999998811, -56.26339999999997588, 205.0000000000000568 ) ) ;
#226 = EDGE_LOOP ( 'NONE', ( #163, #559, #344, #426 ) ) ;
#227 = VECTOR ( 'NONE', #381, 1000.000000000000000 ) ;
#228 = CARTESIAN_POINT ( 'NONE',  ( 52.00000000000000000, 60.00000000000017764, 205.0000000000000284 ) ) ;
#229 = CARTESIAN_POINT ( 'NONE',  ( 0.7365999999999727210, 60.00000000000000000, 205.0000000000001137 ) ) ;
#230 = ORIENTED_EDGE ( 'NONE', *, *, #496, .T. ) ;
#231 = AXIS2_PLACEMENT_3D ( 'NONE', #409, #188, #363 ) ;
#232 = PLANE ( 'NONE',  #577 ) ;
#233 = APPLICATION_CONTEXT ( 'automotive_design' ) ;
#234 = LINE ( 'NONE', #275, #410 ) ;
#235 = ORIENTED_EDGE ( 'NONE', *, *, #42, .F. ) ;
#236 = CIRCLE ( 'NONE', #139, 0.7365999999999970349 ) ;
#237 = CARTESIAN_POINT ( 'NONE',  ( 0.7365999999999774950, 56.26340000000000430, 205.0000000000001137 ) ) ;
#238 = FACE_OUTER_BOUND ( 'NONE', #277, .T. ) ;
#239 = DIRECTION ( 'NONE',  ( -0.000000000000000000, -0.000000000000000000, 1.000000000000000000 ) ) ;
#240 = AXIS2_PLACEMENT_3D ( 'NONE', #254, #345, #534 ) ;
#241 = FACE_OUTER_BOUND ( 'NONE', #314, .T. ) ;
#242 = LINE ( 'NONE', #245, #570 ) ;
#243 = SHAPE_DEFINITION_REPRESENTATION ( #591, #272 ) ;
#244 = EDGE_LOOP ( 'NONE', ( #55, #551, #125, #246 ) ) ;
#245 = CARTESIAN_POINT ( 'NONE',  ( -3.736599999999992594, -56.99999999999997158, -204.9999999999998863 ) ) ;
#246 = ORIENTED_EDGE ( 'NONE', *, *, #215, .T. ) ;
#247 = CARTESIAN_POINT ( 'NONE',  ( 52.00000000000000000, 60.00000000000017764, 205.0000000000000284 ) ) ;
#248 = ORIENTED_EDGE ( 'NONE', *, *, #370, .T. ) ;
#249 = DIRECTION ( 'NONE',  ( 3.532562060772768123E-15, -1.000000000000000000, 0.000000000000000000 ) ) ;
#250 = EDGE_CURVE ( 'NONE', #13, #387, #522, .T. ) ;
#251 = AXIS2_PLACEMENT_3D ( 'NONE', #467, #239, #474 ) ;
#252 = ORIENTED_EDGE ( 'NONE', *, *, #84, .F. ) ;
#253 = DIRECTION ( 'NONE',  ( -3.491481338843133355E-15, 1.000000000000000000, 0.000000000000000000 ) ) ;
#254 = CARTESIAN_POINT ( 'NONE',  ( 0.000000000000000000, 0.000000000000000000, 0.000000000000000000 ) ) ;
#255 = VECTOR ( 'NONE', #503, 1000.000000000000000 ) ;
#256 = LINE ( 'NONE', #38, #541 ) ;
#257 = ORIENTED_EDGE ( 'NONE', *, *, #208, .F. ) ;
#258 = VECTOR ( 'NONE', #505, 1000.000000000000000 ) ;
#259 = FACE_OUTER_BOUND ( 'NONE', #116, .T. ) ;
#260 = SURFACE_SIDE_STYLE ('',( #441 ) ) ;
#261 = DIRECTION ( 'NONE',  ( 1.000000000000000000, 3.673532066774412425E-15, 0.000000000000000000 ) ) ;
#262 = LINE ( 'NONE', #48, #174 ) ;
#263 = DIRECTION ( 'NONE',  ( 3.673532066774412425E-15, -1.000000000000000000, 0.000000000000000000 ) ) ;
#264 =( NAMED_UNIT ( * ) PLANE_ANGLE_UNIT ( ) SI_UNIT ( $, .RADIAN. ) );
#265 = ORIENTED_EDGE ( 'NONE', *, *, #309, .T. ) ;
#266 = LINE ( 'NONE', #554, #58 ) ;
#267 = ORIENTED_EDGE ( 'NONE', *, *, #539, .T. ) ;
#268 = CARTESIAN_POINT ( 'NONE',  ( -3.736599999999998811, -56.26339999999997588, -204.9999999999998863 ) ) ;
#269 = ADVANCED_FACE ( 'NONE', ( #197 ), #566, .T. ) ;
#270 = LINE ( 'NONE', #323, #30 ) ;
#271 = VERTEX_POINT ( 'NONE', #247 ) ;
#272 = ADVANCED_BREP_SHAPE_REPRESENTATION ( 'SIDE BRACKET', ( #535, #240 ), #371 ) ;
#273 = LINE ( 'NONE', #14, #255 ) ;
#274 = AXIS2_PLACEMENT_3D ( 'NONE', #343, #531, #130 ) ;
#275 = CARTESIAN_POINT ( 'NONE',  ( 1.073360150760649390E-14, 56.26340000000000430, -204.9999999999997442 ) ) ;
#276 = UNCERTAINTY_MEASURE_WITH_UNIT (LENGTH_MEASURE( 1.000000000000000082E-05 ), #86, 'distance_accuracy_value', 'NONE');
#277 = EDGE_LOOP ( 'NONE', ( #484, #530, #8, #406 ) ) ;
#278 = CARTESIAN_POINT ( 'NONE',  ( 0.7366000000000050285, 57.00000000000000000, -204.9999999999997442 ) ) ;
#279 = CARTESIAN_POINT ( 'NONE',  ( -20.00000000000000000, -60.00000000000003553, -204.9999999999998863 ) ) ;
#280 = ORIENTED_EDGE ( 'NONE', *, *, #435, .T. ) ;
#281 = CARTESIAN_POINT ( 'NONE',  ( -2.999999999999989786, -59.99999999999997158, 205.0000000000000568 ) ) ;
#282 = VECTOR ( 'NONE', #499, 1000.000000000000000 ) ;
#283 = FACE_OUTER_BOUND ( 'NONE', #108, .T. ) ;
#284 = ADVANCED_FACE ( 'NONE', ( #35 ), #164, .T. ) ;
#285 = LINE ( 'NONE', #292, #82 ) ;
#286 = AXIS2_PLACEMENT_3D ( 'NONE', #43, #350, #398 ) ;
#287 = EDGE_CURVE ( 'NONE', #387, #102, #77, .T. ) ;
#288 = ORIENTED_EDGE ( 'NONE', *, *, #421, .T. ) ;
#289 = AXIS2_PLACEMENT_3D ( 'NONE', #69, #519, #249 ) ;
#290 = DIRECTION ( 'NONE',  ( 7.359504293276601900E-17, 0.000000000000000000, -1.000000000000000000 ) ) ;
#291 = ORIENTED_EDGE ( 'NONE', *, *, #250, .F. ) ;
#292 = CARTESIAN_POINT ( 'NONE',  ( -3.000000000000001776, -56.26339999999997588, -204.9999999999998863 ) ) ;
#293 = EDGE_LOOP ( 'NONE', ( #113, #224, #252, #451 ) ) ;
#294 = DIRECTION ( 'NONE',  ( -0.000000000000000000, 1.000000000000000000, -0.000000000000000000 ) ) ;
#295 = CARTESIAN_POINT ( 'NONE',  ( 1.073360150760649390E-14, 56.26340000000000430, -204.9999999999997442 ) ) ;
#296 = EDGE_LOOP ( 'NONE', ( #16, #463, #168, #572 ) ) ;
#297 = LINE ( 'NONE', #479, #206 ) ;
#298 = AXIS2_PLACEMENT_3D ( 'NONE', #353, #209, #392 ) ;
#299 = CARTESIAN_POINT ( 'NONE',  ( -3.736599999999998811, -56.26339999999997588, -204.9999999999998863 ) ) ;
#300 = APPLICATION_PROTOCOL_DEFINITION ( 'draft international standard', 'automotive_design', 1998, #233 ) ;
#301 =( LENGTH_UNIT ( ) NAMED_UNIT ( * ) SI_UNIT ( .MILLI., .METRE. ) );
#302 = AXIS2_PLACEMENT_3D ( 'NONE', #115, #290, #470 ) ;
#303 =( LENGTH_UNIT ( ) NAMED_UNIT ( * ) SI_UNIT ( .MILLI., .METRE. ) );
#304 = ORIENTED_EDGE ( 'NONE', *, *, #539, .F. ) ;
#305 = CYLINDRICAL_SURFACE ( 'NONE', #286, 3.736599999999999699 ) ;
#306 = ADVANCED_FACE ( 'NONE', ( #155 ), #31, .T. ) ;
#307 = FACE_OUTER_BOUND ( 'NONE', #391, .T. ) ;
#308 = VECTOR ( 'NONE', #458, 1000.000000000000000 ) ;
#309 = EDGE_CURVE ( 'NONE', #555, #78, #383, .T. ) ;
#310 = DIRECTION ( 'NONE',  ( -3.491481338843133355E-15, 1.000000000000000000, 0.000000000000000000 ) ) ;
#311 = CARTESIAN_POINT ( 'NONE',  ( -3.736599999999982380, -59.99999999999997868, -204.9999999999998863 ) ) ;
#312 = PRESENTATION_LAYER_ASSIGNMENT (  '', '', ( #582 ) ) ;
#313 = LINE ( 'NONE', #404, #73 ) ;
#314 = EDGE_LOOP ( 'NONE', ( #337, #520, #449, #101 ) ) ;
#315 = LINE ( 'NONE', #228, #37 ) ;
#316 = DIRECTION ( 'NONE',  ( -1.000000000000000000, -3.469446951953613794E-15, 0.000000000000000000 ) ) ;
#317 = ORIENTED_EDGE ( 'NONE', *, *, #544, .T. ) ;
#318 = PLANE ( 'NONE',  #405 ) ;
#319 = LINE ( 'NONE', #417, #114 ) ;
#320 = ORIENTED_EDGE ( 'NONE', *, *, #167, .T. ) ;
#321 = LINE ( 'NONE', #560, #308 ) ;
#322 = CIRCLE ( 'NONE', #274, 3.736599999999996591 ) ;
#323 = CARTESIAN_POINT ( 'NONE',  ( -3.000000000000001776, -56.26339999999997588, 205.0000000000000568 ) ) ;
#324 = VERTEX_POINT ( 'NONE', #120 ) ;
#325 = CARTESIAN_POINT ( 'NONE',  ( -3.000000000000001776, -56.26339999999997588, 205.0000000000000568 ) ) ;
#326 = DIRECTION ( 'NONE',  ( 0.000000000000000000, 0.000000000000000000, -1.000000000000000000 ) ) ;
#327 = ADVANCED_FACE ( 'NONE', ( #162 ), #334, .F. ) ;
#328 = DIRECTION ( 'NONE',  ( 1.000000000000000000, 0.000000000000000000, 0.000000000000000000 ) ) ;
#329 = EDGE_LOOP ( 'NONE', ( #122, #373, #154, #3 ) ) ;
#330 = FACE_OUTER_BOUND ( 'NONE', #498, .T. ) ;
#331 = ORIENTED_EDGE ( 'NONE', *, *, #332, .F. ) ;
#332 = EDGE_CURVE ( 'NONE', #576, #579, #464, .T. ) ;
#333 = VECTOR ( 'NONE', #423, 1000.000000000000000 ) ;
#334 = CYLINDRICAL_SURFACE ( 'NONE', #289, 0.7365999999999970349 ) ;
#335 = ORIENTED_EDGE ( 'NONE', *, *, #421, .F. ) ;
#336 = CARTESIAN_POINT ( 'NONE',  ( 52.00000000000001421, 57.00000000000018474, 0.000000000000000000 ) ) ;
#337 = ORIENTED_EDGE ( 'NONE', *, *, #374, .T. ) ;
#338 = DIRECTION ( 'NONE',  ( 1.000000000000000000, 0.000000000000000000, 0.000000000000000000 ) ) ;
#339 = ORIENTED_EDGE ( 'NONE', *, *, #384, .F. ) ;
#340 =( NAMED_UNIT ( * ) SI_UNIT ( $, .STERADIAN. ) SOLID_ANGLE_UNIT ( ) );
#341 = ORIENTED_EDGE ( 'NONE', *, *, #533, .T. ) ;
#342 = STYLED_ITEM ( 'NONE', ( #492 ), #535 ) ;
#343 = CARTESIAN_POINT ( 'NONE',  ( 0.7365999999999774950, 56.26340000000000430, 205.0000000000001137 ) ) ;
#344 = ORIENTED_EDGE ( 'NONE', *, *, #216, .T. ) ;
#345 = DIRECTION ( 'NONE',  ( 0.000000000000000000, 0.000000000000000000, 1.000000000000000000 ) ) ;
#346 = EDGE_CURVE ( 'NONE', #555, #579, #379, .T. ) ;
#347 = FILL_AREA_STYLE ('',( #483 ) ) ;
#348 = CARTESIAN_POINT ( 'NONE',  ( -20.00000000000000000, -60.00000000000003553, 205.0000000000000568 ) ) ;
#349 = EDGE_LOOP ( 'NONE', ( #147, #320, #335, #331 ) ) ;
#350 = DIRECTION ( 'NONE',  ( -0.000000000000000000, -0.000000000000000000, 1.000000000000000000 ) ) ;
#351 = AXIS2_PLACEMENT_3D ( 'NONE', #299, #443, #46 ) ;
#352 = EDGE_CURVE ( 'NONE', #438, #78, #375, .T. ) ;
#353 = CARTESIAN_POINT ( 'NONE',  ( 0.7365999999999774950, 56.26340000000000430, 205.0000000000000568 ) ) ;
#354 = DIRECTION ( 'NONE',  ( 7.359504293276601900E-17, -0.000000000000000000, -1.000000000000000000 ) ) ;
#355 = DIRECTION ( 'NONE',  ( 3.673532066774412425E-15, -1.000000000000000000, 0.000000000000000000 ) ) ;
#356 = VECTOR ( 'NONE', #17, 1000.000000000000000 ) ;
#357 = EDGE_CURVE ( 'NONE', #468, #29, #242, .T. ) ;
#358 = CARTESIAN_POINT ( 'NONE',  ( -20.00000000000001066, -57.00000000000003553, 0.000000000000000000 ) ) ;
#359 = DIRECTION ( 'NONE',  ( -3.469446951953613400E-15, 1.000000000000000000, -1.176109791261700405E-32 ) ) ;
#360 = VECTOR ( 'NONE', #176, 1000.000000000000000 ) ;
#361 = ORIENTED_EDGE ( 'NONE', *, *, #487, .F. ) ;
#362 = DIRECTION ( 'NONE',  ( 3.491481338843133355E-15, -1.000000000000000000, 0.000000000000000000 ) ) ;
#363 = DIRECTION ( 'NONE',  ( 1.000000000000000000, 0.000000000000000000, 0.000000000000000000 ) ) ;
#364 = VECTOR ( 'NONE', #191, 1000.000000000000000 ) ;
#365 = ORIENTED_EDGE ( 'NONE', *, *, #180, .T. ) ;
#366 = DIRECTION ( 'NONE',  ( -1.000000000000000000, -3.673532066774412425E-15, -0.000000000000000000 ) ) ;
#367 = CARTESIAN_POINT ( 'NONE',  ( 0.7366000000000075820, 56.26340000000000430, -204.9999999999996305 ) ) ;
#368 = ORIENTED_EDGE ( 'NONE', *, *, #42, .T. ) ;
#369 = CARTESIAN_POINT ( 'NONE',  ( 52.00000000000000000, 60.00000000000017764, -204.9999999999999147 ) ) ;
#370 = EDGE_CURVE ( 'NONE', #324, #29, #25, .T. ) ;
#371 =( GEOMETRIC_REPRESENTATION_CONTEXT ( 3 ) GLOBAL_UNCERTAINTY_ASSIGNED_CONTEXT ( ( #276 ) ) GLOBAL_UNIT_ASSIGNED_CONTEXT ( ( #86, #475, #340 ) ) REPRESENTATION_CONTEXT ( 'NONE', 'WORKASPACE' ) );
#372 = PLANE ( 'NONE',  #41 ) ;
#373 = ORIENTED_EDGE ( 'NONE', *, *, #211, .F. ) ;
#374 = EDGE_CURVE ( 'NONE', #563, #53, #110, .T. ) ;
#375 = LINE ( 'NONE', #325, #486 ) ;
#376 = LINE ( 'NONE', #184, #418 ) ;
#377 = AXIS2_PLACEMENT_3D ( 'NONE', #547, #527, #482 ) ;
#378 = DIRECTION ( 'NONE',  ( -1.000000000000000000, 0.000000000000000000, -1.507226479263048069E-13 ) ) ;
#379 = LINE ( 'NONE', #564, #455 ) ;
#380 = CARTESIAN_POINT ( 'NONE',  ( 52.00000000000000000, 60.00000000000017764, 205.0000000000000284 ) ) ;
#381 = DIRECTION ( 'NONE',  ( -3.491481338843133355E-15, 1.000000000000000000, 0.000000000000000000 ) ) ;
#382 = ORIENTED_EDGE ( 'NONE', *, *, #24, .F. ) ;
#383 = LINE ( 'NONE', #575, #333 ) ;
#384 = EDGE_CURVE ( 'NONE', #81, #581, #112, .T. ) ;
#385 = ORIENTED_EDGE ( 'NONE', *, *, #521, .F. ) ;
#386 = DIRECTION ( 'NONE',  ( 0.000000000000000000, 0.000000000000000000, -1.000000000000000000 ) ) ;
#387 = VERTEX_POINT ( 'NONE', #568 ) ;
#388 = AXIS2_PLACEMENT_3D ( 'NONE', #367, #501, #545 ) ;
#389 = CYLINDRICAL_SURFACE ( 'NONE', #128, 3.736599999999999699 ) ;
#390 = PLANE ( 'NONE',  #40 ) ;
#391 = EDGE_LOOP ( 'NONE', ( #460, #10, #280, #230 ) ) ;
#392 = DIRECTION ( 'NONE',  ( -3.532562060772768123E-15, 1.000000000000000000, 0.000000000000000000 ) ) ;
#393 = ADVANCED_FACE ( 'NONE', ( #330 ), #517, .T. ) ;
#394 = DIRECTION ( 'NONE',  ( 0.000000000000000000, -4.625929269271485914E-16, 1.000000000000000000 ) ) ;
#395 =( GEOMETRIC_REPRESENTATION_CONTEXT ( 3 ) GLOBAL_UNCERTAINTY_ASSIGNED_CONTEXT ( ( #454 ) ) GLOBAL_UNIT_ASSIGNED_CONTEXT ( ( #303, #264, #223 ) ) REPRESENTATION_CONTEXT ( 'NONE', 'WORKASPACE' ) );
#396 = EDGE_CURVE ( 'NONE', #438, #160, #270, .T. ) ;
#397 = PRESENTATION_STYLE_ASSIGNMENT (( #529 ) ) ;
#398 = DIRECTION ( 'NONE',  ( 3.714014828404018914E-15, -1.000000000000000000, 0.000000000000000000 ) ) ;
#399 = CARTESIAN_POINT ( 'NONE',  ( -3.000000000000019096, 56.26340000000000430, 205.0000000000000568 ) ) ;
#400 = DIRECTION ( 'NONE',  ( 1.000000000000000000, 3.491481338843133355E-15, 0.000000000000000000 ) ) ;
#401 = DIRECTION ( 'NONE',  ( -1.000000000000000000, 0.000000000000000000, -7.359504293273255404E-17 ) ) ;
#402 = VECTOR ( 'NONE', #117, 1000.000000000000000 ) ;
#403 = DIRECTION ( 'NONE',  ( -0.000000000000000000, 1.000000000000000000, -0.000000000000000000 ) ) ;
#404 = CARTESIAN_POINT ( 'NONE',  ( -1.940721888749052937E-14, 56.26340000000000430, 205.0000000000001137 ) ) ;
#405 = AXIS2_PLACEMENT_3D ( 'NONE', #195, #424, #4 ) ;
#406 = ORIENTED_EDGE ( 'NONE', *, *, #167, .F. ) ;
#407 = CARTESIAN_POINT ( 'NONE',  ( 0.000000000000000000, 0.000000000000000000, 0.000000000000000000 ) ) ;
#408 = ADVANCED_FACE ( 'NONE', ( #238 ), #64, .F. ) ;
#409 = CARTESIAN_POINT ( 'NONE',  ( 0.7365999999999774950, 56.26340000000000430, 205.0000000000001137 ) ) ;
#410 = VECTOR ( 'NONE', #378, 1000.000000000000000 ) ;
#411 = ORIENTED_EDGE ( 'NONE', *, *, #332, .T. ) ;
#412 = LINE ( 'NONE', #420, #356 ) ;
#413 = LINE ( 'NONE', #15, #258 ) ;
#414 = ORIENTED_EDGE ( 'NONE', *, *, #57, .F. ) ;
#415 = DIRECTION ( 'NONE',  ( 0.000000000000000000, -0.000000000000000000, 1.000000000000000000 ) ) ;
#416 = ADVANCED_FACE ( 'NONE', ( #7 ), #372, .F. ) ;
#417 = CARTESIAN_POINT ( 'NONE',  ( -3.736599999999999699, -56.99999999999997868, 205.0000000000000568 ) ) ;
#418 = VECTOR ( 'NONE', #366, 1000.000000000000000 ) ;
#419 = VERTEX_POINT ( 'NONE', #558 ) ;
#420 = CARTESIAN_POINT ( 'NONE',  ( -1.047444401652940007E-14, 60.00000000000000000, 205.0000000000000853 ) ) ;
#421 = EDGE_CURVE ( 'NONE', #579, #419, #234, .T. ) ;
#422 = DIRECTION ( 'NONE',  ( -3.384826294588892433E-17, -1.174347527065387705E-31, 1.000000000000000000 ) ) ;
#423 = DIRECTION ( 'NONE',  ( 0.000000000000000000, -1.000000000000000000, -4.625929269271486900E-16 ) ) ;
#424 = DIRECTION ( 'NONE',  ( 0.000000000000000000, 0.000000000000000000, 1.000000000000000000 ) ) ;
#425 = DIRECTION ( 'NONE',  ( 1.000000000000000000, 3.673532066774412425E-15, -0.000000000000000000 ) ) ;
#426 = ORIENTED_EDGE ( 'NONE', *, *, #352, .F. ) ;
#427 = DIRECTION ( 'NONE',  ( -0.000000000000000000, -0.000000000000000000, 1.000000000000000000 ) ) ;
#428 = ORIENTED_EDGE ( 'NONE', *, *, #515, .F. ) ;
#429 = DIRECTION ( 'NONE',  ( -1.000000000000000000, 0.000000000000000000, 5.337610695313251385E-16 ) ) ;
#430 = VERTEX_POINT ( 'NONE', #459 ) ;
#431 = AXIS2_PLACEMENT_3D ( 'NONE', #213, #400, #253 ) ;
#432 = DIRECTION ( 'NONE',  ( 7.359504293276601900E-17, -0.000000000000000000, -1.000000000000000000 ) ) ;
#433 = ORIENTED_EDGE ( 'NONE', *, *, #346, .F. ) ;
#434 = ORIENTED_EDGE ( 'NONE', *, *, #287, .F. ) ;
#435 = EDGE_CURVE ( 'NONE', #60, #538, #266, .T. ) ;
#436 = CARTESIAN_POINT ( 'NONE',  ( 0.7366000000000075820, 56.26340000000000430, -204.9999999999997442 ) ) ;
#437 = SURFACE_SIDE_STYLE ('',( #584 ) ) ;
#438 = VERTEX_POINT ( 'NONE', #185 ) ;
#439 = AXIS2_PLACEMENT_3D ( 'NONE', #205, #386, #79 ) ;
#440 = EDGE_CURVE ( 'NONE', #29, #53, #319, .T. ) ;
#441 = SURFACE_STYLE_FILL_AREA ( #548 ) ;
#442 = DIRECTION ( 'NONE',  ( 3.673532066774412425E-15, -1.000000000000000000, 0.000000000000000000 ) ) ;
#443 = DIRECTION ( 'NONE',  ( 0.000000000000000000, 0.000000000000000000, -1.000000000000000000 ) ) ;
#444 = DIRECTION ( 'NONE',  ( -1.000000000000000000, 0.000000000000000000, -0.000000000000000000 ) ) ;
#445 = VECTOR ( 'NONE', #354, 1000.000000000000000 ) ;
#446 = DIRECTION ( 'NONE',  ( -3.481888901628767880E-15, 1.000000000000000000, 0.000000000000000000 ) ) ;
#447 = SURFACE_STYLE_USAGE ( .BOTH. , #260 ) ;
#448 = VECTOR ( 'NONE', #140, 1000.000000000000000 ) ;
#449 = ORIENTED_EDGE ( 'NONE', *, *, #370, .F. ) ;
#450 = DIRECTION ( 'NONE',  ( 1.601283208593975415E-15, 5.590850441008721482E-30, 1.000000000000000000 ) ) ;
#451 = ORIENTED_EDGE ( 'NONE', *, *, #76, .F. ) ;
#452 = DIRECTION ( 'NONE',  ( -1.000000000000000000, 0.000000000000000000, -7.359504293276601900E-17 ) ) ;
#453 = CARTESIAN_POINT ( 'NONE',  ( -3.000000000000000000, 0.000000000000000000, 0.000000000000000000 ) ) ;
#454 = UNCERTAINTY_MEASURE_WITH_UNIT (LENGTH_MEASURE( 1.000000000000000082E-05 ), #303, 'distance_accuracy_value', 'NONE');
#455 = VECTOR ( 'NONE', #432, 1000.000000000000000 ) ;
#456 = ORIENTED_EDGE ( 'NONE', *, *, #357, .F. ) ;
#457 = AXIS2_PLACEMENT_3D ( 'NONE', #583, #543, #137 ) ;
#458 = DIRECTION ( 'NONE',  ( -3.469446951953613400E-15, 1.000000000000000000, -3.528329373785136249E-32 ) ) ;
#459 = CARTESIAN_POINT ( 'NONE',  ( -3.736599999999985044, -59.99999999999997868, -204.9999999999998863 ) ) ;
#460 = ORIENTED_EDGE ( 'NONE', *, *, #346, .T. ) ;
#461 = CARTESIAN_POINT ( 'NONE',  ( -20.00000000000000000, -60.00000000000003553, -204.9999999999998863 ) ) ;
#462 = DIRECTION ( 'NONE',  ( 1.000000000000000000, 0.000000000000000000, -1.601283208593975415E-15 ) ) ;
#463 = ORIENTED_EDGE ( 'NONE', *, *, #477, .T. ) ;
#464 = LINE ( 'NONE', #159, #183 ) ;
#465 = DIRECTION ( 'NONE',  ( -1.000000000000000000, -3.469446951953613794E-15, 0.000000000000000000 ) ) ;
#466 = COLOUR_RGB ( '',0.2509803921568627416, 0.2509803921568627416, 0.2509803921568627416 ) ;
#467 = CARTESIAN_POINT ( 'NONE',  ( -3.736599999999998811, -56.26339999999997588, 205.0000000000000568 ) ) ;
#468 = VERTEX_POINT ( 'NONE', #153 ) ;
#469 = AXIS2_PLACEMENT_3D ( 'NONE', #138, #263, #261 ) ;
#470 = DIRECTION ( 'NONE',  ( -1.000000000000000000, 0.000000000000000000, -7.359504293276601900E-17 ) ) ;
#471 = ORIENTED_EDGE ( 'NONE', *, *, #309, .F. ) ;
#472 = DIRECTION ( 'NONE',  ( -5.337610695313251385E-16, -1.863616813669573827E-30, -1.000000000000000000 ) ) ;
#473 = ORIENTED_EDGE ( 'NONE', *, *, #521, .T. ) ;
#474 = DIRECTION ( 'NONE',  ( 1.000000000000000000, 0.000000000000000000, 0.000000000000000000 ) ) ;
#475 =( NAMED_UNIT ( * ) PLANE_ANGLE_UNIT ( ) SI_UNIT ( $, .RADIAN. ) );
#476 = VERTEX_POINT ( 'NONE', #229 ) ;
#477 = EDGE_CURVE ( 'NONE', #60, #387, #413, .T. ) ;
#478 = AXIS2_PLACEMENT_3D ( 'NONE', #436, #175, #338 ) ;
#479 = CARTESIAN_POINT ( 'NONE',  ( 52.00000000000000000, 60.00000000000017764, -204.9999999999999147 ) ) ;
#480 = ORIENTED_EDGE ( 'NONE', *, *, #533, .F. ) ;
#481 =( NAMED_UNIT ( * ) SI_UNIT ( $, .STERADIAN. ) SOLID_ANGLE_UNIT ( ) );
#482 = DIRECTION ( 'NONE',  ( 3.491481338843133355E-15, -1.000000000000000000, 0.000000000000000000 ) ) ;
#483 = FILL_AREA_STYLE_COLOUR ( '', #123 ) ;
#484 = ORIENTED_EDGE ( 'NONE', *, *, #396, .F. ) ;
#485 = PRODUCT_DEFINITION_FORMATION_WITH_SPECIFIED_SOURCE ( 'ANY', '', #62, .NOT_KNOWN. ) ;
#486 = VECTOR ( 'NONE', #511, 1000.000000000000000 ) ;
#487 = EDGE_CURVE ( 'NONE', #430, #81, #103, .T. ) ;
#488 = DIRECTION ( 'NONE',  ( 0.000000000000000000, -1.000000000000000000, -4.625929269271486900E-16 ) ) ;
#489 = DIRECTION ( 'NONE',  ( 0.000000000000000000, 0.000000000000000000, -1.000000000000000000 ) ) ;
#490 = AXIS2_PLACEMENT_3D ( 'NONE', #66, #111, #465 ) ;
#491 = CARTESIAN_POINT ( 'NONE',  ( 0.7365999999999774950, 56.26340000000000430, 205.0000000000000568 ) ) ;
#492 = PRESENTATION_STYLE_ASSIGNMENT (( #447 ) ) ;
#493 = ADVANCED_FACE ( 'NONE', ( #509 ), #107, .T. ) ;
#494 = FACE_OUTER_BOUND ( 'NONE', #329, .T. ) ;
#495 = ORIENTED_EDGE ( 'NONE', *, *, #106, .T. ) ;
#496 = EDGE_CURVE ( 'NONE', #538, #555, #89, .T. ) ;
#497 = PLANE ( 'NONE',  #63 ) ;
#498 = EDGE_LOOP ( 'NONE', ( #304, #65, #288, #528 ) ) ;
#499 = DIRECTION ( 'NONE',  ( -1.692413147294446833E-17, -6.217133966816757406E-32, 1.000000000000000000 ) ) ;
#500 = ADVANCED_FACE ( 'NONE', ( #12 ), #497, .T. ) ;
#501 = DIRECTION ( 'NONE',  ( 7.359504293276601900E-17, -0.000000000000000000, -1.000000000000000000 ) ) ;
#502 = VERTEX_POINT ( 'NONE', #68 ) ;
#503 = DIRECTION ( 'NONE',  ( -3.384826294588892433E-17, -1.174347527065387705E-31, 1.000000000000000000 ) ) ;
#504 = EDGE_CURVE ( 'NONE', #419, #104, #574, .T. ) ;
#505 = DIRECTION ( 'NONE',  ( 1.000000000000000000, 3.469446951953613794E-15, -5.337610695313251385E-16 ) ) ;
#506 = EDGE_LOOP ( 'NONE', ( #210, #267, #365, #133 ) ) ;
#507 = CIRCLE ( 'NONE', #251, 3.736599999999997035 ) ;
#508 = PLANE ( 'NONE',  #594 ) ;
#509 = FACE_OUTER_BOUND ( 'NONE', #193, .T. ) ;
#510 = ORIENTED_EDGE ( 'NONE', *, *, #76, .T. ) ;
#511 = DIRECTION ( 'NONE',  ( 1.000000000000000000, 0.000000000000000000, 0.000000000000000000 ) ) ;
#512 = DIRECTION ( 'NONE',  ( 7.359504293276601900E-17, 0.000000000000000000, -1.000000000000000000 ) ) ;
#513 = DIRECTION ( 'NONE',  ( -1.692413147294446833E-17, -6.217133966816757406E-32, 1.000000000000000000 ) ) ;
#514 = ORIENTED_EDGE ( 'NONE', *, *, #374, .F. ) ;
#515 = EDGE_CURVE ( 'NONE', #581, #324, #50, .T. ) ;
#516 = VECTOR ( 'NONE', #427, 1000.000000000000000 ) ;
#517 = PLANE ( 'NONE',  #302 ) ;
#518 = ORIENTED_EDGE ( 'NONE', *, *, #211, .T. ) ;
#519 = DIRECTION ( 'NONE',  ( -0.000000000000000000, -0.000000000000000000, 1.000000000000000000 ) ) ;
#520 = ORIENTED_EDGE ( 'NONE', *, *, #440, .F. ) ;
#521 = EDGE_CURVE ( 'NONE', #555, #502, #313, .T. ) ;
#522 = LINE ( 'NONE', #22, #402 ) ;
#523 = ADVANCED_FACE ( 'NONE', ( #217 ), #222, .F. ) ;
#524 = CARTESIAN_POINT ( 'NONE',  ( -20.00000000000001066, -57.00000000000003553, -204.9999999999998863 ) ) ;
#525 = EDGE_LOOP ( 'NONE', ( #182, #127, #207, #145 ) ) ;
#526 = EDGE_CURVE ( 'NONE', #563, #324, #95, .T. ) ;
#527 = DIRECTION ( 'NONE',  ( -1.000000000000000000, -3.491481338843133355E-15, 0.000000000000000000 ) ) ;
#528 = ORIENTED_EDGE ( 'NONE', *, *, #504, .T. ) ;
#529 = SURFACE_STYLE_USAGE ( .BOTH. , #437 ) ;
#530 = ORIENTED_EDGE ( 'NONE', *, *, #544, .F. ) ;
#531 = DIRECTION ( 'NONE',  ( -7.359504293276601900E-17, 0.000000000000000000, 1.000000000000000000 ) ) ;
#532 = ORIENTED_EDGE ( 'NONE', *, *, #352, .T. ) ;
#533 = EDGE_CURVE ( 'NONE', #81, #563, #52, .T. ) ;
#534 = DIRECTION ( 'NONE',  ( 1.000000000000000000, 0.000000000000000000, 0.000000000000000000 ) ) ;
#535 = MANIFOLD_SOLID_BREP ( 'Edge-Flange2', #178 ) ;
#536 = ORIENTED_EDGE ( 'NONE', *, *, #179, .F. ) ;
#537 = FACE_OUTER_BOUND ( 'NONE', #148, .T. ) ;
#538 = VERTEX_POINT ( 'NONE', #142 ) ;
#539 = EDGE_CURVE ( 'NONE', #60, #104, #2, .T. ) ;
#540 = VECTOR ( 'NONE', #425, 1000.000000000000000 ) ;
#541 = VECTOR ( 'NONE', #85, 1000.000000000000000 ) ;
#542 = CARTESIAN_POINT ( 'NONE',  ( -3.736599999999998811, -56.26339999999997588, -204.9999999999998863 ) ) ;
#543 = DIRECTION ( 'NONE',  ( -0.000000000000000000, -0.000000000000000000, 1.000000000000000000 ) ) ;
#544 = EDGE_CURVE ( 'NONE', #502, #438, #550, .T. ) ;
#545 = DIRECTION ( 'NONE',  ( 1.000000000000000000, 0.000000000000000000, 0.000000000000000000 ) ) ;
#546 = ADVANCED_FACE ( 'NONE', ( #259 ), #305, .T. ) ;
#547 = CARTESIAN_POINT ( 'NONE',  ( -20.00000000000000000, -60.00000000000004263, 205.0000000000000568 ) ) ;
#548 = FILL_AREA_STYLE ('',( #90 ) ) ;
#549 = AXIS2_PLACEMENT_3D ( 'NONE', #88, #442, #45 ) ;
#550 = LINE ( 'NONE', #590, #214 ) ;
#551 = ORIENTED_EDGE ( 'NONE', *, *, #27, .F. ) ;
#552 = LINE ( 'NONE', #56, #282 ) ;
#553 = VECTOR ( 'NONE', #92, 1000.000000000000000 ) ;
#554 = CARTESIAN_POINT ( 'NONE',  ( 0.7365999999999970349, 57.00000000000000000, -204.9999999999999147 ) ) ;
#555 = VERTEX_POINT ( 'NONE', #172 ) ;
#556 = EDGE_CURVE ( 'NONE', #502, #419, #585, .T. ) ;
#557 = DIRECTION ( 'NONE',  ( 0.000000000000000000, 0.000000000000000000, -1.000000000000000000 ) ) ;
#558 = CARTESIAN_POINT ( 'NONE',  ( -2.999999999999999112, 56.26340000000000430, -204.9999999999997442 ) ) ;
#559 = ORIENTED_EDGE ( 'NONE', *, *, #440, .T. ) ;
#560 = CARTESIAN_POINT ( 'NONE',  ( 0.7365999999999830461, 57.00000000000000000, 205.0000000000001137 ) ) ;
#561 = DIRECTION ( 'NONE',  ( -1.000000000000000000, 0.000000000000000000, -0.000000000000000000 ) ) ;
#562 = PRODUCT_DEFINITION_CONTEXT ( 'detailed design', #6, 'design' ) ;
#563 = VERTEX_POINT ( 'NONE', #348 ) ;
#564 = CARTESIAN_POINT ( 'NONE',  ( -1.940721888749052937E-14, 56.26340000000000430, 205.0000000000000568 ) ) ;
#565 = CARTESIAN_POINT ( 'NONE',  ( -3.736599999999996147, -56.99999999999997158, 205.0000000000000568 ) ) ;
#566 = PLANE ( 'NONE',  #5 ) ;
#567 = ADVANCED_FACE ( 'NONE', ( #537 ), #132, .T. ) ;
#568 = CARTESIAN_POINT ( 'NONE',  ( 52.00000000000001421, 57.00000000000018474, -204.9999999999999147 ) ) ;
#569 = ORIENTED_EDGE ( 'NONE', *, *, #216, .F. ) ;
#570 = VECTOR ( 'NONE', #513, 1000.000000000000000 ) ;
#571 = DIRECTION ( 'NONE',  ( -1.000000000000000000, 0.000000000000000000, -0.000000000000000000 ) ) ;
#572 = ORIENTED_EDGE ( 'NONE', *, *, #208, .T. ) ;
#573 = ADVANCED_FACE ( 'NONE', ( #218 ), #586, .T. ) ;
#574 = CIRCLE ( 'NONE', #388, 3.736599999999997035 ) ;
#575 = CARTESIAN_POINT ( 'NONE',  ( 0.000000000000000000, 60.00000000000000711, 205.0000000000000853 ) ) ;
#576 = VERTEX_POINT ( 'NONE', #47 ) ;
#577 = AXIS2_PLACEMENT_3D ( 'NONE', #237, #512, #452 ) ;
#578 = CYLINDRICAL_SURFACE ( 'NONE', #298, 0.7365999999999970349 ) ;
#579 = VERTEX_POINT ( 'NONE', #295 ) ;
#580 = APPLICATION_PROTOCOL_DEFINITION ( 'draft international standard', 'automotive_design', 1998, #6 ) ;
#581 = VERTEX_POINT ( 'NONE', #524 ) ;
#582 = STYLED_ITEM ( 'NONE', ( #397 ), #272 ) ;
#583 = CARTESIAN_POINT ( 'NONE',  ( -3.736599999999998811, -56.26339999999997588, 205.0000000000000568 ) ) ;
#584 = SURFACE_STYLE_FILL_AREA ( #347 ) ;
#585 = LINE ( 'NONE', #399, #445 ) ;
#586 = PLANE ( 'NONE',  #194 ) ;
#587 = CARTESIAN_POINT ( 'NONE',  ( 0.7365999999999942593, 60.00000000000000711, -204.9999999999996305 ) ) ;
#588 = VECTOR ( 'NONE', #355, 1000.000000000000000 ) ;
#589 = ADVANCED_FACE ( 'NONE', ( #39 ), #390, .T. ) ;
#590 = CARTESIAN_POINT ( 'NONE',  ( -3.000000000000000000, 60.00000000000000711, 205.0000000000000853 ) ) ;
#591 = PRODUCT_DEFINITION_SHAPE ( 'NONE', 'NONE',  #201 ) ;
#592 = PLANE ( 'NONE',  #377 ) ;
#593 = CARTESIAN_POINT ( 'NONE',  ( -20.00000000000000000, -60.00000000000003553, 205.0000000000000568 ) ) ;
#594 = AXIS2_PLACEMENT_3D ( 'NONE', #407, #156, #557 ) ;
ENDSEC;
END-ISO-10303-21;
