ISO-10303-21;
HEADER;
/* Generated by software containing ST-Developer
 * from STEP Tools, Inc. (www.steptools.com) 
 */
/* OPTION: using custom renumber hook */

FILE_DESCRIPTION(
/* description */ ('STEP AP242 Edition 2',
'CAx-IF Rec.Pracs.---Representation and Presentation of Product Manufa
cturing Information (PMI)---4.0---2014-10-13',
'CAx-IF Rec.Pracs.---3D Tessellated Geometry---0.4---2014-09-14','2;1',
'CAx-IF Rec.Pracs.---User Defined Attributes---1.5---2016-08-15'),
/* implementation_level */ '2;1');

FILE_NAME(
/* name */ 'STHCB-16',
/* time_stamp */ '2026-07-14T20:14:03Z',
/* author */ (''),
/* organization */ (''),
/* preprocessor_version */ 'ST-DEVELOPER v20',
/* originating_system */ 'ONSHAPE BY PTC INC, 1.217',
/* authorisation */ '  ');

FILE_SCHEMA (('AP242_MANAGED_MODEL_BASED_3D_ENGINEERING_MIM_LF { 1 0 10303 442 3 1 4 }'));
ENDSEC;

DATA;
#10=SHAPE_REPRESENTATION_RELATIONSHIP('','',#255,#11);
#11=ADVANCED_BREP_SHAPE_REPRESENTATION('',(#253),#431);
#12=CONICAL_SURFACE('',#288,0.0175,0.785398163397445);
#13=CONICAL_SURFACE('',#289,0.008,0.78539816339745);
#14=PLANE('',#263);
#15=PLANE('',#269);
#16=PLANE('',#274);
#17=PLANE('',#280);
#18=PLANE('',#281);
#19=CIRCLE('',#258,0.028);
#20=CIRCLE('',#259,0.028);
#21=CIRCLE('',#261,0.0175);
#22=CIRCLE('',#262,0.0175);
#23=CIRCLE('',#264,0.0165);
#24=CIRCLE('',#265,0.008);
#25=CIRCLE('',#267,0.028);
#26=CIRCLE('',#268,0.028);
#27=CIRCLE('',#270,0.00275);
#28=CIRCLE('',#271,0.00275);
#29=CIRCLE('',#272,0.00275);
#30=CIRCLE('',#273,0.00275);
#31=CIRCLE('',#275,0.009);
#32=CIRCLE('',#276,0.00275);
#33=CIRCLE('',#277,0.00275);
#34=CIRCLE('',#278,0.00275);
#35=CIRCLE('',#279,0.00275);
#36=CIRCLE('',#287,0.008);
#37=ORIENTED_EDGE('',*,*,#89,.T.);
#38=ORIENTED_EDGE('',*,*,#90,.F.);
#39=ORIENTED_EDGE('',*,*,#91,.F.);
#40=ORIENTED_EDGE('',*,*,#92,.T.);
#41=ORIENTED_EDGE('',*,*,#93,.T.);
#42=ORIENTED_EDGE('',*,*,#94,.F.);
#43=ORIENTED_EDGE('',*,*,#95,.T.);
#44=ORIENTED_EDGE('',*,*,#96,.T.);
#45=ORIENTED_EDGE('',*,*,#97,.F.);
#46=ORIENTED_EDGE('',*,*,#98,.T.);
#47=ORIENTED_EDGE('',*,*,#99,.T.);
#48=ORIENTED_EDGE('',*,*,#100,.F.);
#49=ORIENTED_EDGE('',*,*,#101,.T.);
#50=ORIENTED_EDGE('',*,*,#102,.T.);
#51=ORIENTED_EDGE('',*,*,#103,.T.);
#52=ORIENTED_EDGE('',*,*,#104,.T.);
#53=ORIENTED_EDGE('',*,*,#94,.T.);
#54=ORIENTED_EDGE('',*,*,#98,.F.);
#55=ORIENTED_EDGE('',*,*,#105,.T.);
#56=ORIENTED_EDGE('',*,*,#92,.F.);
#57=ORIENTED_EDGE('',*,*,#106,.T.);
#58=ORIENTED_EDGE('',*,*,#107,.T.);
#59=ORIENTED_EDGE('',*,*,#108,.F.);
#60=ORIENTED_EDGE('',*,*,#109,.F.);
#61=ORIENTED_EDGE('',*,*,#110,.F.);
#62=ORIENTED_EDGE('',*,*,#111,.F.);
#63=ORIENTED_EDGE('',*,*,#112,.F.);
#64=ORIENTED_EDGE('',*,*,#100,.T.);
#65=ORIENTED_EDGE('',*,*,#113,.F.);
#66=ORIENTED_EDGE('',*,*,#90,.T.);
#67=ORIENTED_EDGE('',*,*,#91,.T.);
#68=ORIENTED_EDGE('',*,*,#113,.T.);
#69=ORIENTED_EDGE('',*,*,#99,.F.);
#70=ORIENTED_EDGE('',*,*,#106,.F.);
#71=ORIENTED_EDGE('',*,*,#97,.T.);
#72=ORIENTED_EDGE('',*,*,#112,.T.);
#73=ORIENTED_EDGE('',*,*,#89,.F.);
#74=ORIENTED_EDGE('',*,*,#105,.F.);
#75=ORIENTED_EDGE('',*,*,#111,.T.);
#76=ORIENTED_EDGE('',*,*,#104,.F.);
#77=ORIENTED_EDGE('',*,*,#110,.T.);
#78=ORIENTED_EDGE('',*,*,#103,.F.);
#79=ORIENTED_EDGE('',*,*,#109,.T.);
#80=ORIENTED_EDGE('',*,*,#102,.F.);
#81=ORIENTED_EDGE('',*,*,#108,.T.);
#82=ORIENTED_EDGE('',*,*,#101,.F.);
#83=ORIENTED_EDGE('',*,*,#114,.T.);
#84=ORIENTED_EDGE('',*,*,#96,.F.);
#85=ORIENTED_EDGE('',*,*,#95,.F.);
#86=ORIENTED_EDGE('',*,*,#93,.F.);
#87=ORIENTED_EDGE('',*,*,#107,.F.);
#88=ORIENTED_EDGE('',*,*,#114,.F.);
#89=EDGE_CURVE('',#115,#116,#137,.T.);
#90=EDGE_CURVE('',#117,#116,#19,.T.);
#91=EDGE_CURVE('',#118,#117,#138,.T.);
#92=EDGE_CURVE('',#118,#115,#20,.T.);
#93=EDGE_CURVE('',#119,#119,#21,.T.);
#94=EDGE_CURVE('',#120,#120,#22,.T.);
#95=EDGE_CURVE('',#121,#121,#23,.F.);
#96=EDGE_CURVE('',#122,#122,#24,.T.);
#97=EDGE_CURVE('',#123,#124,#139,.T.);
#98=EDGE_CURVE('',#123,#125,#25,.T.);
#99=EDGE_CURVE('',#125,#126,#140,.T.);
#100=EDGE_CURVE('',#124,#126,#26,.T.);
#101=EDGE_CURVE('',#127,#127,#27,.T.);
#102=EDGE_CURVE('',#128,#128,#28,.T.);
#103=EDGE_CURVE('',#129,#129,#29,.T.);
#104=EDGE_CURVE('',#130,#130,#30,.T.);
#105=EDGE_CURVE('',#123,#115,#141,.T.);
#106=EDGE_CURVE('',#118,#125,#142,.T.);
#107=EDGE_CURVE('',#131,#131,#31,.F.);
#108=EDGE_CURVE('',#132,#132,#32,.T.);
#109=EDGE_CURVE('',#133,#133,#33,.T.);
#110=EDGE_CURVE('',#134,#134,#34,.T.);
#111=EDGE_CURVE('',#135,#135,#35,.T.);
#112=EDGE_CURVE('',#124,#116,#143,.T.);
#113=EDGE_CURVE('',#117,#126,#144,.T.);
#114=EDGE_CURVE('',#136,#136,#36,.T.);
#115=VERTEX_POINT('',#369);
#116=VERTEX_POINT('',#370);
#117=VERTEX_POINT('',#372);
#118=VERTEX_POINT('',#374);
#119=VERTEX_POINT('',#378);
#120=VERTEX_POINT('',#380);
#121=VERTEX_POINT('',#383);
#122=VERTEX_POINT('',#385);
#123=VERTEX_POINT('',#388);
#124=VERTEX_POINT('',#389);
#125=VERTEX_POINT('',#391);
#126=VERTEX_POINT('',#393);
#127=VERTEX_POINT('',#397);
#128=VERTEX_POINT('',#399);
#129=VERTEX_POINT('',#401);
#130=VERTEX_POINT('',#403);
#131=VERTEX_POINT('',#408);
#132=VERTEX_POINT('',#410);
#133=VERTEX_POINT('',#412);
#134=VERTEX_POINT('',#414);
#135=VERTEX_POINT('',#416);
#136=VERTEX_POINT('',#427);
#137=LINE('',#368,#145);
#138=LINE('',#373,#146);
#139=LINE('',#387,#147);
#140=LINE('',#392,#148);
#141=LINE('',#404,#149);
#142=LINE('',#405,#150);
#143=LINE('',#417,#151);
#144=LINE('',#418,#152);
#145=VECTOR('',#294,1.);
#146=VECTOR('',#297,1.);
#147=VECTOR('',#314,1.);
#148=VECTOR('',#317,1.);
#149=VECTOR('',#330,1.);
#150=VECTOR('',#331,1.);
#151=VECTOR('',#344,1.);
#152=VECTOR('',#345,1.);
#153=EDGE_LOOP('',(#37,#38,#39,#40));
#154=EDGE_LOOP('',(#41));
#155=EDGE_LOOP('',(#42));
#156=EDGE_LOOP('',(#43));
#157=EDGE_LOOP('',(#44));
#158=EDGE_LOOP('',(#45,#46,#47,#48));
#159=EDGE_LOOP('',(#49));
#160=EDGE_LOOP('',(#50));
#161=EDGE_LOOP('',(#51));
#162=EDGE_LOOP('',(#52));
#163=EDGE_LOOP('',(#53));
#164=EDGE_LOOP('',(#54,#55,#56,#57));
#165=EDGE_LOOP('',(#58));
#166=EDGE_LOOP('',(#59));
#167=EDGE_LOOP('',(#60));
#168=EDGE_LOOP('',(#61));
#169=EDGE_LOOP('',(#62));
#170=EDGE_LOOP('',(#63,#64,#65,#66));
#171=EDGE_LOOP('',(#67,#68,#69,#70));
#172=EDGE_LOOP('',(#71,#72,#73,#74));
#173=EDGE_LOOP('',(#75));
#174=EDGE_LOOP('',(#76));
#175=EDGE_LOOP('',(#77));
#176=EDGE_LOOP('',(#78));
#177=EDGE_LOOP('',(#79));
#178=EDGE_LOOP('',(#80));
#179=EDGE_LOOP('',(#81));
#180=EDGE_LOOP('',(#82));
#181=EDGE_LOOP('',(#83));
#182=EDGE_LOOP('',(#84));
#183=EDGE_LOOP('',(#85));
#184=EDGE_LOOP('',(#86));
#185=EDGE_LOOP('',(#87));
#186=EDGE_LOOP('',(#88));
#187=FACE_BOUND('',#153,.T.);
#188=FACE_BOUND('',#154,.T.);
#189=FACE_BOUND('',#155,.T.);
#190=FACE_BOUND('',#156,.T.);
#191=FACE_BOUND('',#157,.T.);
#192=FACE_BOUND('',#158,.T.);
#193=FACE_BOUND('',#159,.T.);
#194=FACE_BOUND('',#160,.T.);
#195=FACE_BOUND('',#161,.T.);
#196=FACE_BOUND('',#162,.T.);
#197=FACE_BOUND('',#163,.T.);
#198=FACE_BOUND('',#164,.T.);
#199=FACE_BOUND('',#165,.T.);
#200=FACE_BOUND('',#166,.T.);
#201=FACE_BOUND('',#167,.T.);
#202=FACE_BOUND('',#168,.T.);
#203=FACE_BOUND('',#169,.T.);
#204=FACE_BOUND('',#170,.T.);
#205=FACE_BOUND('',#171,.T.);
#206=FACE_BOUND('',#172,.T.);
#207=FACE_BOUND('',#173,.T.);
#208=FACE_BOUND('',#174,.T.);
#209=FACE_BOUND('',#175,.T.);
#210=FACE_BOUND('',#176,.T.);
#211=FACE_BOUND('',#177,.T.);
#212=FACE_BOUND('',#178,.T.);
#213=FACE_BOUND('',#179,.T.);
#214=FACE_BOUND('',#180,.T.);
#215=FACE_BOUND('',#181,.T.);
#216=FACE_BOUND('',#182,.T.);
#217=FACE_BOUND('',#183,.T.);
#218=FACE_BOUND('',#184,.T.);
#219=FACE_BOUND('',#185,.T.);
#220=FACE_BOUND('',#186,.T.);
#221=CYLINDRICAL_SURFACE('',#257,0.028);
#222=CYLINDRICAL_SURFACE('',#260,0.0175);
#223=CYLINDRICAL_SURFACE('',#266,0.028);
#224=CYLINDRICAL_SURFACE('',#282,0.00275);
#225=CYLINDRICAL_SURFACE('',#283,0.00275);
#226=CYLINDRICAL_SURFACE('',#284,0.00275);
#227=CYLINDRICAL_SURFACE('',#285,0.00275);
#228=CYLINDRICAL_SURFACE('',#286,0.008);
#229=ADVANCED_FACE('',(#187),#221,.T.);
#230=ADVANCED_FACE('',(#188,#189),#222,.T.);
#231=ADVANCED_FACE('',(#190,#191),#14,.F.);
#232=ADVANCED_FACE('',(#192),#223,.T.);
#233=ADVANCED_FACE('',(#193,#194,#195,#196,#197,#198),#15,.F.);
#234=ADVANCED_FACE('',(#199,#200,#201,#202,#203,#204),#16,.T.);
#235=ADVANCED_FACE('',(#205),#17,.F.);
#236=ADVANCED_FACE('',(#206),#18,.F.);
#237=ADVANCED_FACE('',(#207,#208),#224,.F.);
#238=ADVANCED_FACE('',(#209,#210),#225,.F.);
#239=ADVANCED_FACE('',(#211,#212),#226,.F.);
#240=ADVANCED_FACE('',(#213,#214),#227,.F.);
#241=ADVANCED_FACE('',(#215,#216),#228,.F.);
#242=ADVANCED_FACE('',(#217,#218),#12,.T.);
#243=ADVANCED_FACE('',(#219,#220),#13,.F.);
#244=CLOSED_SHELL('',(#229,#230,#231,#232,#233,#234,#235,#236,#237,#238,
#239,#240,#241,#242,#243));
#245=STYLED_ITEM('',(#246),#253);
#246=PRESENTATION_STYLE_ASSIGNMENT((#247));
#247=SURFACE_STYLE_USAGE(.BOTH.,#248);
#248=SURFACE_SIDE_STYLE('',(#249));
#249=SURFACE_STYLE_FILL_AREA(#250);
#250=FILL_AREA_STYLE('',(#251));
#251=FILL_AREA_STYLE_COLOUR('',#252);
#252=COLOUR_RGB('',0.796078431372549,0.823529411764706,0.937254901960784);
#253=MANIFOLD_SOLID_BREP('Part 1',#244);
#254=SHAPE_DEFINITION_REPRESENTATION(#436,#255);
#255=SHAPE_REPRESENTATION('Part 1',(#256),#431);
#256=AXIS2_PLACEMENT_3D('',#366,#290,#291);
#257=AXIS2_PLACEMENT_3D('',#367,#292,#293);
#258=AXIS2_PLACEMENT_3D('',#371,#295,#296);
#259=AXIS2_PLACEMENT_3D('',#375,#298,#299);
#260=AXIS2_PLACEMENT_3D('',#376,#300,#301);
#261=AXIS2_PLACEMENT_3D('',#377,#302,#303);
#262=AXIS2_PLACEMENT_3D('',#379,#304,#305);
#263=AXIS2_PLACEMENT_3D('',#381,#306,#307);
#264=AXIS2_PLACEMENT_3D('',#382,#308,#309);
#265=AXIS2_PLACEMENT_3D('',#384,#310,#311);
#266=AXIS2_PLACEMENT_3D('',#386,#312,#313);
#267=AXIS2_PLACEMENT_3D('',#390,#315,#316);
#268=AXIS2_PLACEMENT_3D('',#394,#318,#319);
#269=AXIS2_PLACEMENT_3D('',#395,#320,#321);
#270=AXIS2_PLACEMENT_3D('',#396,#322,#323);
#271=AXIS2_PLACEMENT_3D('',#398,#324,#325);
#272=AXIS2_PLACEMENT_3D('',#400,#326,#327);
#273=AXIS2_PLACEMENT_3D('',#402,#328,#329);
#274=AXIS2_PLACEMENT_3D('',#406,#332,#333);
#275=AXIS2_PLACEMENT_3D('',#407,#334,#335);
#276=AXIS2_PLACEMENT_3D('',#409,#336,#337);
#277=AXIS2_PLACEMENT_3D('',#411,#338,#339);
#278=AXIS2_PLACEMENT_3D('',#413,#340,#341);
#279=AXIS2_PLACEMENT_3D('',#415,#342,#343);
#280=AXIS2_PLACEMENT_3D('',#419,#346,#347);
#281=AXIS2_PLACEMENT_3D('',#420,#348,#349);
#282=AXIS2_PLACEMENT_3D('',#421,#350,#351);
#283=AXIS2_PLACEMENT_3D('',#422,#352,#353);
#284=AXIS2_PLACEMENT_3D('',#423,#354,#355);
#285=AXIS2_PLACEMENT_3D('',#424,#356,#357);
#286=AXIS2_PLACEMENT_3D('',#425,#358,#359);
#287=AXIS2_PLACEMENT_3D('',#426,#360,#361);
#288=AXIS2_PLACEMENT_3D('',#428,#362,#363);
#289=AXIS2_PLACEMENT_3D('',#429,#364,#365);
#290=DIRECTION('',(0.,0.,1.));
#291=DIRECTION('',(1.,0.,0.));
#292=DIRECTION('',(0.,-1.,0.));
#293=DIRECTION('',(1.,0.,0.));
#294=DIRECTION('',(0.,-1.,0.));
#295=DIRECTION('',(0.,-1.,0.));
#296=DIRECTION('',(1.,0.,0.));
#297=DIRECTION('',(0.,-1.,0.));
#298=DIRECTION('',(0.,-1.,0.));
#299=DIRECTION('',(1.,0.,0.));
#300=DIRECTION('',(0.,1.,0.));
#301=DIRECTION('',(-1.,0.,0.));
#302=DIRECTION('',(0.,-1.,0.));
#303=DIRECTION('',(1.,0.,0.));
#304=DIRECTION('',(0.,-1.,0.));
#305=DIRECTION('',(1.,0.,0.));
#306=DIRECTION('',(0.,-1.,0.));
#307=DIRECTION('',(1.,0.,0.));
#308=DIRECTION('',(0.,-1.,0.));
#309=DIRECTION('',(1.,0.,0.));
#310=DIRECTION('',(0.,-1.,0.));
#311=DIRECTION('',(1.,0.,0.));
#312=DIRECTION('',(0.,-1.,0.));
#313=DIRECTION('',(1.,0.,0.));
#314=DIRECTION('',(0.,-1.,0.));
#315=DIRECTION('',(0.,-1.,0.));
#316=DIRECTION('',(1.,0.,0.));
#317=DIRECTION('',(0.,-1.,0.));
#318=DIRECTION('',(0.,-1.,0.));
#319=DIRECTION('',(1.,0.,0.));
#320=DIRECTION('',(0.,-1.,0.));
#321=DIRECTION('',(1.,0.,0.));
#322=DIRECTION('',(0.,-1.,0.));
#323=DIRECTION('',(1.,0.,0.));
#324=DIRECTION('',(0.,-1.,0.));
#325=DIRECTION('',(1.,0.,0.));
#326=DIRECTION('',(0.,-1.,0.));
#327=DIRECTION('',(1.,0.,0.));
#328=DIRECTION('',(0.,-1.,0.));
#329=DIRECTION('',(1.,0.,0.));
#330=DIRECTION('',(0.,0.,-1.));
#331=DIRECTION('',(0.,0.,1.));
#332=DIRECTION('',(0.,-1.,0.));
#333=DIRECTION('',(1.,0.,0.));
#334=DIRECTION('',(0.,-1.,0.));
#335=DIRECTION('',(1.,0.,0.));
#336=DIRECTION('',(0.,-1.,0.));
#337=DIRECTION('',(1.,0.,0.));
#338=DIRECTION('',(0.,-1.,0.));
#339=DIRECTION('',(1.,0.,0.));
#340=DIRECTION('',(0.,-1.,0.));
#341=DIRECTION('',(1.,0.,0.));
#342=DIRECTION('',(0.,-1.,0.));
#343=DIRECTION('',(1.,0.,0.));
#344=DIRECTION('',(0.,0.,-1.));
#345=DIRECTION('',(0.,0.,1.));
#346=DIRECTION('',(1.,0.,0.));
#347=DIRECTION('',(0.,1.,0.));
#348=DIRECTION('',(-1.,0.,0.));
#349=DIRECTION('',(0.,-1.,0.));
#350=DIRECTION('',(0.,-1.,0.));
#351=DIRECTION('',(1.,0.,0.));
#352=DIRECTION('',(0.,-1.,0.));
#353=DIRECTION('',(1.,0.,0.));
#354=DIRECTION('',(0.,-1.,0.));
#355=DIRECTION('',(1.,0.,0.));
#356=DIRECTION('',(0.,-1.,0.));
#357=DIRECTION('',(1.,0.,0.));
#358=DIRECTION('',(0.,-1.,0.));
#359=DIRECTION('',(1.,0.,0.));
#360=DIRECTION('',(0.,-1.,0.));
#361=DIRECTION('',(1.,0.,0.));
#362=DIRECTION('',(0.,-1.,0.));
#363=DIRECTION('',(1.,0.,0.));
#364=DIRECTION('',(0.,-1.,0.));
#365=DIRECTION('',(1.,0.,0.));
#366=CARTESIAN_POINT('',(0.,0.,0.));
#367=CARTESIAN_POINT('',(0.,-0.039,0.));
#368=CARTESIAN_POINT('',(0.0185,0.,-0.0210178495569837));
#369=CARTESIAN_POINT('',(0.0185,-0.039,-0.0210178495569837));
#370=CARTESIAN_POINT('',(0.0185,-0.045,-0.0210178495569837));
#371=CARTESIAN_POINT('',(0.,-0.045,0.));
#372=CARTESIAN_POINT('',(-0.0185,-0.045,-0.0210178495569837));
#373=CARTESIAN_POINT('',(-0.0185,0.,-0.0210178495569837));
#374=CARTESIAN_POINT('',(-0.0185,-0.039,-0.0210178495569837));
#375=CARTESIAN_POINT('',(0.,-0.039,0.));
#376=CARTESIAN_POINT('',(0.,-0.045,0.));
#377=CARTESIAN_POINT('',(0.,-0.008,0.));
#378=CARTESIAN_POINT('',(0.0175,-0.008,0.));
#379=CARTESIAN_POINT('',(0.,-0.039,0.));
#380=CARTESIAN_POINT('',(0.0175,-0.039,0.));
#381=CARTESIAN_POINT('',(0.,-0.007,0.));
#382=CARTESIAN_POINT('',(0.,-0.007,0.));
#383=CARTESIAN_POINT('',(0.0165,-0.007,0.));
#384=CARTESIAN_POINT('',(0.,-0.007,0.));
#385=CARTESIAN_POINT('',(0.008,-0.007,0.));
#386=CARTESIAN_POINT('',(0.,-0.039,0.));
#387=CARTESIAN_POINT('',(0.0185,0.,0.0210178495569837));
#388=CARTESIAN_POINT('',(0.0185,-0.039,0.0210178495569837));
#389=CARTESIAN_POINT('',(0.0185,-0.045,0.0210178495569837));
#390=CARTESIAN_POINT('',(0.,-0.039,0.));
#391=CARTESIAN_POINT('',(-0.0185,-0.039,0.0210178495569837));
#392=CARTESIAN_POINT('',(-0.0185,0.,0.0210178495569837));
#393=CARTESIAN_POINT('',(-0.0185,-0.045,0.0210178495569837));
#394=CARTESIAN_POINT('',(0.,-0.045,0.));
#395=CARTESIAN_POINT('',(0.,-0.039,0.));
#396=CARTESIAN_POINT('',(-0.0135,-0.039,0.0185));
#397=CARTESIAN_POINT('',(-0.01075,-0.039,0.0185));
#398=CARTESIAN_POINT('',(0.0135,-0.039,0.0185));
#399=CARTESIAN_POINT('',(0.01625,-0.039,0.0185));
#400=CARTESIAN_POINT('',(0.012086428909434,-0.039,-0.0194529749965706));
#401=CARTESIAN_POINT('',(0.014836428909434,-0.039,-0.0194529749965706));
#402=CARTESIAN_POINT('',(-0.0135,-0.039,-0.0185));
#403=CARTESIAN_POINT('',(-0.01075,-0.039,-0.0185));
#404=CARTESIAN_POINT('',(0.0185,-0.039,0.));
#405=CARTESIAN_POINT('',(-0.0185,-0.039,0.));
#406=CARTESIAN_POINT('',(0.,-0.045,0.));
#407=CARTESIAN_POINT('',(0.,-0.045,0.));
#408=CARTESIAN_POINT('',(0.009,-0.045,0.));
#409=CARTESIAN_POINT('',(-0.0135,-0.045,0.0185));
#410=CARTESIAN_POINT('',(-0.01075,-0.045,0.0185));
#411=CARTESIAN_POINT('',(0.0135,-0.045,0.0185));
#412=CARTESIAN_POINT('',(0.01625,-0.045,0.0185));
#413=CARTESIAN_POINT('',(0.012086428909434,-0.045,-0.0194529749965706));
#414=CARTESIAN_POINT('',(0.014836428909434,-0.045,-0.0194529749965706));
#415=CARTESIAN_POINT('',(-0.0135,-0.045,-0.0185));
#416=CARTESIAN_POINT('',(-0.01075,-0.045,-0.0185));
#417=CARTESIAN_POINT('',(0.0185,-0.045,0.0210178495569837));
#418=CARTESIAN_POINT('',(-0.0185,-0.045,0.0210178495569837));
#419=CARTESIAN_POINT('',(-0.0185,0.,0.0210178495569837));
#420=CARTESIAN_POINT('',(0.0185,0.,0.0210178495569837));
#421=CARTESIAN_POINT('',(-0.0135,-0.045,-0.0185));
#422=CARTESIAN_POINT('',(0.012086428909434,-0.045,-0.0194529749965706));
#423=CARTESIAN_POINT('',(0.0135,-0.045,0.0185));
#424=CARTESIAN_POINT('',(-0.0135,-0.045,0.0185));
#425=CARTESIAN_POINT('',(0.,0.,0.));
#426=CARTESIAN_POINT('',(0.,-0.044,0.));
#427=CARTESIAN_POINT('',(0.008,-0.044,0.));
#428=CARTESIAN_POINT('',(0.,-0.008,0.));
#429=CARTESIAN_POINT('',(0.,-0.044,0.));
#430=MECHANICAL_DESIGN_GEOMETRIC_PRESENTATION_REPRESENTATION('',(#245),
#431);
#431=(
GEOMETRIC_REPRESENTATION_CONTEXT(3)
GLOBAL_UNCERTAINTY_ASSIGNED_CONTEXT((#432))
GLOBAL_UNIT_ASSIGNED_CONTEXT((#435,#434,#433))
REPRESENTATION_CONTEXT('Part 1','TOP_LEVEL_ASSEMBLY_PART')
);
#432=UNCERTAINTY_MEASURE_WITH_UNIT(LENGTH_MEASURE(1.E-8),#435,
'DISTANCE_ACCURACY_VALUE','Maximum Tolerance applied to model');
#433=(
NAMED_UNIT(*)
SI_UNIT($,.STERADIAN.)
SOLID_ANGLE_UNIT()
);
#434=(
NAMED_UNIT(*)
PLANE_ANGLE_UNIT()
SI_UNIT($,.RADIAN.)
);
#435=(
LENGTH_UNIT()
NAMED_UNIT(*)
SI_UNIT($,.METRE.)
);
#436=PRODUCT_DEFINITION_SHAPE('','',#437);
#437=PRODUCT_DEFINITION('','',#439,#438);
#438=PRODUCT_DEFINITION_CONTEXT('',#445,'design');
#439=PRODUCT_DEFINITION_FORMATION_WITH_SPECIFIED_SOURCE('','',#441,
 .NOT_KNOWN.);
#440=PRODUCT_RELATED_PRODUCT_CATEGORY('','',(#441));
#441=PRODUCT('Part 1','Part 1','Part 1',(#443));
#442=PRODUCT_CATEGORY('','');
#443=PRODUCT_CONTEXT('',#445,'mechanical');
#444=APPLICATION_PROTOCOL_DEFINITION('international standard',
'ap242_managed_model_based_3d_engineering',2020,#445);
#445=APPLICATION_CONTEXT('managed model based 3d engineering');
ENDSEC;
END-ISO-10303-21;
