ISO-10303-21;
HEADER;
FILE_DESCRIPTION (( 'STEP AP214' ),
    '1' );
FILE_NAME ('TOP SUPPORT.STEP',
    '2026-07-17T08:15:12',
    ( '' ),
    ( '' ),
    'SwSTEP 2.0',
    'SolidWorks 2019',
    '' );
FILE_SCHEMA (( 'AUTOMOTIVE_DESIGN' ));
ENDSEC;

DATA;
#1 = CARTESIAN_POINT ( 'NONE',  ( -3.000000000000000000, 17.00000000000000711, 204.9999999999999716 ) ) ;
#2 = CARTESIAN_POINT ( 'NONE',  ( -3.000000000000000000, 20.00000000000000711, -204.9999999999999716 ) ) ;
#3 = DIRECTION ( 'NONE',  ( -1.000000000000000000, -3.469446951953611822E-15, 0.000000000000000000 ) ) ;
#4 = EDGE_CURVE ( 'NONE', #276, #116, #183, .T. ) ;
#5 = EDGE_CURVE ( 'NONE', #459, #76, #185, .T. ) ;
#6 = DIRECTION ( 'NONE',  ( 1.000000000000000000, 0.000000000000000000, -0.000000000000000000 ) ) ;
#7 = FACE_OUTER_BOUND ( 'NONE', #387, .T. ) ;
#8 = EDGE_LOOP ( 'NONE', ( #372, #346, #159, #65 ) ) ;
#9 = FACE_OUTER_BOUND ( 'NONE', #72, .T. ) ;
#10 = CARTESIAN_POINT ( 'NONE',  ( -20.00000000000000000, -20.00000000000005329, 0.000000000000000000 ) ) ;
#11 = AXIS2_PLACEMENT_3D ( 'NONE', #82, #39, #388 ) ;
#12 = DIRECTION ( 'NONE',  ( 1.000000000000000000, 0.000000000000000000, 0.000000000000000000 ) ) ;
#13 = ADVANCED_FACE ( 'NONE', ( #9 ), #44, .F. ) ;
#14 = CIRCLE ( 'NONE', #482, 0.7366000000000004766 ) ;
#15 = ORIENTED_EDGE ( 'NONE', *, *, #555, .T. ) ;
#16 = LINE ( 'NONE', #308, #454 ) ;
#17 = ORIENTED_EDGE ( 'NONE', *, *, #42, .T. ) ;
#18 = ADVANCED_FACE ( 'NONE', ( #141 ), #93, .T. ) ;
#19 = DIRECTION ( 'NONE',  ( -3.491481338843133750E-15, -1.000000000000000000, 0.000000000000000000 ) ) ;
#20 = VECTOR ( 'NONE', #217, 1000.000000000000000 ) ;
#21 = DIRECTION ( 'NONE',  ( -3.469446951953611822E-15, -1.000000000000000000, 0.000000000000000000 ) ) ;
#22 = AXIS2_PLACEMENT_3D ( 'NONE', #105, #103, #186 ) ;
#23 = DIRECTION ( 'NONE',  ( 1.000000000000000000, 0.000000000000000000, 0.000000000000000000 ) ) ;
#24 = ORIENTED_EDGE ( 'NONE', *, *, #268, .F. ) ;
#25 = AXIS2_PLACEMENT_3D ( 'NONE', #231, #552, #6 ) ;
#26 = LINE ( 'NONE', #167, #286 ) ;
#27 = CARTESIAN_POINT ( 'NONE',  ( 0.000000000000000000, 16.26340000000001140, -204.9999999999999147 ) ) ;
#28 = ORIENTED_EDGE ( 'NONE', *, *, #206, .F. ) ;
#29 = DIRECTION ( 'NONE',  ( 3.469446951953611822E-15, -1.000000000000000000, -0.000000000000000000 ) ) ;
#30 = ORIENTED_EDGE ( 'NONE', *, *, #234, .T. ) ;
#31 = VECTOR ( 'NONE', #19, 1000.000000000000000 ) ;
#32 = AXIS2_PLACEMENT_3D ( 'NONE', #367, #457, #455 ) ;
#33 = SURFACE_SIDE_STYLE ('',( #338 ) ) ;
#34 = DIRECTION ( 'NONE',  ( 1.000000000000000000, 0.000000000000000000, 0.000000000000000000 ) ) ;
#35 = UNCERTAINTY_MEASURE_WITH_UNIT (LENGTH_MEASURE( 1.000000000000000082E-05 ), #37, 'distance_accuracy_value', 'NONE');
#36 = ORIENTED_EDGE ( 'NONE', *, *, #509, .T. ) ;
#37 =( LENGTH_UNIT ( ) NAMED_UNIT ( * ) SI_UNIT ( .MILLI., .METRE. ) );
#38 = ADVANCED_FACE ( 'NONE', ( #49 ), #179, .T. ) ;
#39 = DIRECTION ( 'NONE',  ( 0.000000000000000000, 0.000000000000000000, -1.000000000000000000 ) ) ;
#40 = DIRECTION ( 'NONE',  ( 0.000000000000000000, 0.000000000000000000, 1.000000000000000000 ) ) ;
#41 = LINE ( 'NONE', #456, #431 ) ;
#42 = EDGE_CURVE ( 'NONE', #381, #307, #361, .T. ) ;
#43 = ORIENTED_EDGE ( 'NONE', *, *, #64, .F. ) ;
#44 = PLANE ( 'NONE',  #32 ) ;
#45 = AXIS2_PLACEMENT_3D ( 'NONE', #218, #404, #498 ) ;
#46 = CARTESIAN_POINT ( 'NONE',  ( -20.00000000000001066, 17.00000000000006750, -204.9999999999999147 ) ) ;
#47 = VECTOR ( 'NONE', #12, 1000.000000000000000 ) ;
#48 = ORIENTED_EDGE ( 'NONE', *, *, #422, .F. ) ;
#49 = FACE_OUTER_BOUND ( 'NONE', #336, .T. ) ;
#50 = DIRECTION ( 'NONE',  ( 1.000000000000000000, -3.469446951953611822E-15, 0.000000000000000000 ) ) ;
#51 = ORIENTED_EDGE ( 'NONE', *, *, #205, .F. ) ;
#52 = DIRECTION ( 'NONE',  ( -0.000000000000000000, -0.000000000000000000, 1.000000000000000000 ) ) ;
#53 = ORIENTED_EDGE ( 'NONE', *, *, #564, .T. ) ;
#54 = DIRECTION ( 'NONE',  ( 1.000000000000000000, -3.469446951953611822E-15, 0.000000000000000000 ) ) ;
#55 = EDGE_LOOP ( 'NONE', ( #339, #24, #572, #299 ) ) ;
#56 = FACE_OUTER_BOUND ( 'NONE', #451, .T. ) ;
#57 = CARTESIAN_POINT ( 'NONE',  ( 7.986338305560157025E-14, -19.99999999999998224, 204.9999999999999716 ) ) ;
#58 = VECTOR ( 'NONE', #29, 1000.000000000000000 ) ;
#59 = EDGE_CURVE ( 'NONE', #530, #116, #417, .T. ) ;
#60 = CIRCLE ( 'NONE', #273, 3.736600000000000588 ) ;
#61 = ORIENTED_EDGE ( 'NONE', *, *, #491, .T. ) ;
#62 = CARTESIAN_POINT ( 'NONE',  ( -20.00000000000000000, 20.00000000000006750, 204.9999999999999716 ) ) ;
#63 = ADVANCED_FACE ( 'NONE', ( #420 ), #139, .T. ) ;
#64 = EDGE_CURVE ( 'NONE', #580, #343, #412, .T. ) ;
#65 = ORIENTED_EDGE ( 'NONE', *, *, #132, .F. ) ;
#66 = LINE ( 'NONE', #477, #58 ) ;
#67 = DIRECTION ( 'NONE',  ( -3.491481338843133750E-15, -1.000000000000000000, 0.000000000000000000 ) ) ;
#68 = ORIENTED_EDGE ( 'NONE', *, *, #132, .T. ) ;
#69 = LINE ( 'NONE', #444, #497 ) ;
#70 = STYLED_ITEM ( 'NONE', ( #536 ), #470 ) ;
#71 = DIRECTION ( 'NONE',  ( 1.000000000000000000, -3.469446951953611822E-15, 0.000000000000000000 ) ) ;
#72 = EDGE_LOOP ( 'NONE', ( #453, #485, #17, #242 ) ) ;
#73 = CARTESIAN_POINT ( 'NONE',  ( -20.00000000000000000, 20.00000000000006750, 204.9999999999999716 ) ) ;
#74 = ORIENTED_EDGE ( 'NONE', *, *, #446, .T. ) ;
#75 = LINE ( 'NONE', #62, #399 ) ;
#76 = VERTEX_POINT ( 'NONE', #364 ) ;
#77 = DIRECTION ( 'NONE',  ( 1.000000000000000000, 0.000000000000000000, 0.000000000000000000 ) ) ;
#78 = ADVANCED_FACE ( 'NONE', ( #274 ), #546, .T. ) ;
#79 = VERTEX_POINT ( 'NONE', #101 ) ;
#80 = EDGE_CURVE ( 'NONE', #567, #499, #559, .T. ) ;
#81 = DIRECTION ( 'NONE',  ( 3.469446951953611822E-15, -1.000000000000000000, -0.000000000000000000 ) ) ;
#82 = CARTESIAN_POINT ( 'NONE',  ( -3.736599999999995259, -16.26339999999999719, -204.9999999999999147 ) ) ;
#83 = PLANE ( 'NONE',  #119 ) ;
#84 = LINE ( 'NONE', #403, #281 ) ;
#85 = EDGE_CURVE ( 'NONE', #499, #276, #471, .T. ) ;
#86 = ADVANCED_FACE ( 'NONE', ( #510 ), #153, .F. ) ;
#87 = FACE_OUTER_BOUND ( 'NONE', #173, .T. ) ;
#88 = PRODUCT ( 'TOP SUPPORT', 'TOP SUPPORT', '', ( #335 ) ) ;
#89 = AXIS2_PLACEMENT_3D ( 'NONE', #180, #550, #228 ) ;
#90 = ORIENTED_EDGE ( 'NONE', *, *, #334, .T. ) ;
#91 = CARTESIAN_POINT ( 'NONE',  ( -3.000000000000000000, 20.00000000000000711, 205.0000000000000284 ) ) ;
#92 = ORIENTED_EDGE ( 'NONE', *, *, #149, .T. ) ;
#93 = PLANE ( 'NONE',  #25 ) ;
#94 = DIRECTION ( 'NONE',  ( -3.491481338843133750E-15, 1.000000000000000000, 0.000000000000000000 ) ) ;
#95 = VECTOR ( 'NONE', #521, 1000.000000000000000 ) ;
#96 = DIRECTION ( 'NONE',  ( -8.462065736472234163E-18, 2.935868817663468714E-32, -1.000000000000000000 ) ) ;
#97 = LINE ( 'NONE', #418, #589 ) ;
#98 = EDGE_LOOP ( 'NONE', ( #113, #348, #191, #426 ) ) ;
#99 = EDGE_CURVE ( 'NONE', #276, #496, #515, .T. ) ;
#100 = ORIENTED_EDGE ( 'NONE', *, *, #334, .F. ) ;
#101 = CARTESIAN_POINT ( 'NONE',  ( -20.00000000000001066, 17.00000000000006750, 204.9999999999999716 ) ) ;
#102 = CARTESIAN_POINT ( 'NONE',  ( -3.736600000000000588, 16.26340000000001140, -204.9999999999999147 ) ) ;
#103 = DIRECTION ( 'NONE',  ( 0.000000000000000000, 0.000000000000000000, -1.000000000000000000 ) ) ;
#104 = AXIS2_PLACEMENT_3D ( 'NONE', #561, #458, #108 ) ;
#105 = CARTESIAN_POINT ( 'NONE',  ( -3.736599999999995259, -16.26339999999999719, 204.9999999999999716 ) ) ;
#106 = EDGE_CURVE ( 'NONE', #343, #556, #377, .T. ) ;
#107 = SHAPE_DEFINITION_REPRESENTATION ( #495, #470 ) ;
#108 = DIRECTION ( 'NONE',  ( 3.481888901628767880E-15, -1.000000000000000000, 0.000000000000000000 ) ) ;
#109 = AXIS2_PLACEMENT_3D ( 'NONE', #355, #309, #402 ) ;
#110 = ORIENTED_EDGE ( 'NONE', *, *, #234, .F. ) ;
#111 = CARTESIAN_POINT ( 'NONE',  ( 0.000000000000000000, 0.000000000000000000, 0.000000000000000000 ) ) ;
#112 = ORIENTED_EDGE ( 'NONE', *, *, #99, .F. ) ;
#113 = ORIENTED_EDGE ( 'NONE', *, *, #406, .F. ) ;
#114 = CARTESIAN_POINT ( 'NONE',  ( -3.736599999999997923, 17.00000000000001066, -204.9999999999999147 ) ) ;
#115 = SURFACE_STYLE_USAGE ( .BOTH. , #33 ) ;
#116 = VERTEX_POINT ( 'NONE', #463 ) ;
#117 = CARTESIAN_POINT ( 'NONE',  ( -3.000000000000000000, 20.00000000000000711, -204.9999999999999716 ) ) ;
#118 = ORIENTED_EDGE ( 'NONE', *, *, #290, .T. ) ;
#119 = AXIS2_PLACEMENT_3D ( 'NONE', #224, #357, #586 ) ;
#120 = PLANE ( 'NONE',  #225 ) ;
#121 = CARTESIAN_POINT ( 'NONE',  ( -3.736599999999978827, -19.99999999999999645, 204.9999999999999716 ) ) ;
#122 = EDGE_LOOP ( 'NONE', ( #168, #476, #383, #118 ) ) ;
#123 = ADVANCED_FACE ( 'NONE', ( #7 ), #150, .T. ) ;
#124 = VECTOR ( 'NONE', #440, 1000.000000000000000 ) ;
#125 = FACE_OUTER_BOUND ( 'NONE', #122, .T. ) ;
#126 = ORIENTED_EDGE ( 'NONE', *, *, #317, .T. ) ;
#127 = FILL_AREA_STYLE_COLOUR ( '', #324 ) ;
#128 = DIRECTION ( 'NONE',  ( -3.491481338843133750E-15, 1.000000000000000000, 0.000000000000000000 ) ) ;
#129 = APPLICATION_PROTOCOL_DEFINITION ( 'draft international standard', 'automotive_design', 1998, #401 ) ;
#130 = DIRECTION ( 'NONE',  ( -1.000000000000000000, -3.469446951953611822E-15, 0.000000000000000000 ) ) ;
#131 = DIRECTION ( 'NONE',  ( 1.000000000000000000, 0.000000000000000000, 0.000000000000000000 ) ) ;
#132 = EDGE_CURVE ( 'NONE', #210, #207, #275, .T. ) ;
#133 = DIRECTION ( 'NONE',  ( -1.000000000000000000, 3.469446951953611822E-15, -0.000000000000000000 ) ) ;
#134 = AXIS2_PLACEMENT_3D ( 'NONE', #271, #188, #505 ) ;
#135 = ORIENTED_EDGE ( 'NONE', *, *, #570, .F. ) ;
#136 = LINE ( 'NONE', #91, #560 ) ;
#137 = AXIS2_PLACEMENT_3D ( 'NONE', #384, #480, #34 ) ;
#138 = ORIENTED_EDGE ( 'NONE', *, *, #439, .F. ) ;
#139 = CYLINDRICAL_SURFACE ( 'NONE', #134, 3.736599999999999699 ) ;
#140 = CARTESIAN_POINT ( 'NONE',  ( -3.736599999999982380, -19.99999999999999645, -204.9999999999999147 ) ) ;
#141 = FACE_OUTER_BOUND ( 'NONE', #551, .T. ) ;
#142 = ADVANCED_FACE ( 'NONE', ( #288 ), #285, .F. ) ;
#143 = MECHANICAL_DESIGN_GEOMETRIC_PRESENTATION_REPRESENTATION (  '', ( #425 ), #152 ) ;
#144 = DIRECTION ( 'NONE',  ( 0.000000000000000000, 0.000000000000000000, -1.000000000000000000 ) ) ;
#145 = DIRECTION ( 'NONE',  ( 1.000000000000000000, 0.000000000000000000, 0.000000000000000000 ) ) ;
#146 = CARTESIAN_POINT ( 'NONE',  ( -20.00000000000000000, -20.00000000000005329, -204.9999999999999147 ) ) ;
#147 = CARTESIAN_POINT ( 'NONE',  ( -3.000000000000000000, 16.26340000000001140, -204.9999999999999147 ) ) ;
#148 = EDGE_LOOP ( 'NONE', ( #51, #30, #138, #528 ) ) ;
#149 = EDGE_CURVE ( 'NONE', #578, #327, #97, .T. ) ;
#150 = CYLINDRICAL_SURFACE ( 'NONE', #104, 3.736599999999999699 ) ;
#151 = MECHANICAL_DESIGN_GEOMETRIC_PRESENTATION_REPRESENTATION (  '', ( #70 ), #219 ) ;
#152 =( GEOMETRIC_REPRESENTATION_CONTEXT ( 3 ) GLOBAL_UNCERTAINTY_ASSIGNED_CONTEXT ( ( #487 ) ) GLOBAL_UNIT_ASSIGNED_CONTEXT ( ( #298, #211, #294 ) ) REPRESENTATION_CONTEXT ( 'NONE', 'WORKASPACE' ) );
#153 = PLANE ( 'NONE',  #22 ) ;
#154 = ORIENTED_EDGE ( 'NONE', *, *, #353, .F. ) ;
#155 = EDGE_CURVE ( 'NONE', #432, #576, #557, .T. ) ;
#156 = ORIENTED_EDGE ( 'NONE', *, *, #554, .T. ) ;
#157 = DIRECTION ( 'NONE',  ( 1.000000000000000000, 3.491481338843133750E-15, -0.000000000000000000 ) ) ;
#158 = FACE_OUTER_BOUND ( 'NONE', #535, .T. ) ;
#159 = ORIENTED_EDGE ( 'NONE', *, *, #165, .T. ) ;
#160 = AXIS2_PLACEMENT_3D ( 'NONE', #583, #442, #577 ) ;
#161 = PLANE ( 'NONE',  #208 ) ;
#162 = CARTESIAN_POINT ( 'NONE',  ( -3.736599999999985933, -19.99999999999999645, -204.9999999999999147 ) ) ;
#163 = EDGE_CURVE ( 'NONE', #432, #307, #195, .T. ) ;
#164 = SURFACE_STYLE_FILL_AREA ( #261 ) ;
#165 = EDGE_CURVE ( 'NONE', #567, #207, #531, .T. ) ;
#166 = ORIENTED_EDGE ( 'NONE', *, *, #491, .F. ) ;
#167 = CARTESIAN_POINT ( 'NONE',  ( -20.00000000000001066, 17.00000000000006750, 204.9999999999999716 ) ) ;
#168 = ORIENTED_EDGE ( 'NONE', *, *, #570, .T. ) ;
#169 = CARTESIAN_POINT ( 'NONE',  ( 5.204170427930421283E-15, -16.26339999999999719, 204.9999999999999716 ) ) ;
#170 = CARTESIAN_POINT ( 'NONE',  ( -3.736599999999997923, 17.00000000000001066, 204.9999999999999716 ) ) ;
#171 = AXIS2_PLACEMENT_3D ( 'NONE', #460, #145, #326 ) ;
#172 = FACE_OUTER_BOUND ( 'NONE', #148, .T. ) ;
#173 = EDGE_LOOP ( 'NONE', ( #524, #410, #409, #229 ) ) ;
#174 = CARTESIAN_POINT ( 'NONE',  ( -2.999999999999994671, -16.26339999999999719, -204.9999999999999147 ) ) ;
#175 = LINE ( 'NONE', #538, #31 ) ;
#176 = CARTESIAN_POINT ( 'NONE',  ( -3.736599999999992594, -16.99999999999999645, -204.9999999999999147 ) ) ;
#177 = LINE ( 'NONE', #1, #587 ) ;
#178 = ORIENTED_EDGE ( 'NONE', *, *, #564, .F. ) ;
#179 = PLANE ( 'NONE',  #284 ) ;
#180 = CARTESIAN_POINT ( 'NONE',  ( -3.736600000000000588, 16.26340000000001140, -204.9999999999999147 ) ) ;
#181 = VECTOR ( 'NONE', #77, 1000.000000000000000 ) ;
#182 = EDGE_CURVE ( 'NONE', #576, #580, #14, .T. ) ;
#183 = LINE ( 'NONE', #146, #548 ) ;
#184 = CARTESIAN_POINT ( 'NONE',  ( -20.00000000000001066, -17.00000000000005329, 204.9999999999999716 ) ) ;
#185 = LINE ( 'NONE', #592, #287 ) ;
#186 = DIRECTION ( 'NONE',  ( -1.000000000000000000, 0.000000000000000000, -0.000000000000000000 ) ) ;
#187 = EDGE_LOOP ( 'NONE', ( #305, #301, #223, #591 ) ) ;
#188 = DIRECTION ( 'NONE',  ( -0.000000000000000000, -0.000000000000000000, -1.000000000000000000 ) ) ;
#189 = CARTESIAN_POINT ( 'NONE',  ( -20.00000000000001066, 17.00000000000006750, -204.9999999999999147 ) ) ;
#190 = ADVANCED_FACE ( 'NONE', ( #56 ), #237, .F. ) ;
#191 = ORIENTED_EDGE ( 'NONE', *, *, #394, .F. ) ;
#192 = ADVANCED_FACE ( 'NONE', ( #506 ), #421, .F. ) ;
#193 = VECTOR ( 'NONE', #430, 1000.000000000000000 ) ;
#194 = CARTESIAN_POINT ( 'NONE',  ( -2.999999999999989786, 20.00000000000000711, 204.9999999999999716 ) ) ;
#195 = LINE ( 'NONE', #147, #47 ) ;
#196 = VECTOR ( 'NONE', #478, 1000.000000000000000 ) ;
#197 = VERTEX_POINT ( 'NONE', #393 ) ;
#198 = PRESENTATION_STYLE_ASSIGNMENT (( #115 ) ) ;
#199 = ORIENTED_EDGE ( 'NONE', *, *, #269, .T. ) ;
#200 = VECTOR ( 'NONE', #40, 1000.000000000000000 ) ;
#201 = LINE ( 'NONE', #204, #366 ) ;
#202 = VECTOR ( 'NONE', #3, 1000.000000000000000 ) ;
#203 = ORIENTED_EDGE ( 'NONE', *, *, #382, .T. ) ;
#204 = CARTESIAN_POINT ( 'NONE',  ( -3.736599999999999699, 17.00000000000001066, -204.9999999999999147 ) ) ;
#205 = EDGE_CURVE ( 'NONE', #76, #567, #16, .T. ) ;
#206 = EDGE_CURVE ( 'NONE', #567, #496, #489, .T. ) ;
#207 = VERTEX_POINT ( 'NONE', #169 ) ;
#208 = AXIS2_PLACEMENT_3D ( 'NONE', #569, #534, #130 ) ;
#209 = CARTESIAN_POINT ( 'NONE',  ( -3.736599999999985933, 20.00000000000001066, 204.9999999999999716 ) ) ;
#210 = VERTEX_POINT ( 'NONE', #389 ) ;
#211 =( NAMED_UNIT ( * ) PLANE_ANGLE_UNIT ( ) SI_UNIT ( $, .RADIAN. ) );
#212 = FILL_AREA_STYLE_COLOUR ( '', #247 ) ;
#213 = CARTESIAN_POINT ( 'NONE',  ( 0.000000000000000000, 16.26340000000001140, -204.9999999999999147 ) ) ;
#214 = ORIENTED_EDGE ( 'NONE', *, *, #295, .F. ) ;
#215 = CARTESIAN_POINT ( 'NONE',  ( -3.000000000000000000, 16.26340000000001140, 204.9999999999999716 ) ) ;
#216 = FACE_OUTER_BOUND ( 'NONE', #293, .T. ) ;
#217 = DIRECTION ( 'NONE',  ( 0.000000000000000000, 0.000000000000000000, -1.000000000000000000 ) ) ;
#218 = CARTESIAN_POINT ( 'NONE',  ( -3.736599999999995259, -16.26339999999999719, -204.9999999999999147 ) ) ;
#219 =( GEOMETRIC_REPRESENTATION_CONTEXT ( 3 ) GLOBAL_UNCERTAINTY_ASSIGNED_CONTEXT ( ( #35 ) ) GLOBAL_UNIT_ASSIGNED_CONTEXT ( ( #37, #445, #514 ) ) REPRESENTATION_CONTEXT ( 'NONE', 'WORKASPACE' ) );
#220 = LINE ( 'NONE', #447, #200 ) ;
#221 = AXIS2_PLACEMENT_3D ( 'NONE', #526, #493, #585 ) ;
#222 = VERTEX_POINT ( 'NONE', #525 ) ;
#223 = ORIENTED_EDGE ( 'NONE', *, *, #353, .T. ) ;
#224 = CARTESIAN_POINT ( 'NONE',  ( 6.938893903907217018E-14, -16.99999999999998224, 0.000000000000000000 ) ) ;
#225 = AXIS2_PLACEMENT_3D ( 'NONE', #258, #21, #71 ) ;
#226 = ADVANCED_FACE ( 'NONE', ( #158 ), #120, .F. ) ;
#227 = ORIENTED_EDGE ( 'NONE', *, *, #246, .T. ) ;
#228 = DIRECTION ( 'NONE',  ( -1.000000000000000000, 0.000000000000000000, 0.000000000000000000 ) ) ;
#229 = ORIENTED_EDGE ( 'NONE', *, *, #465, .T. ) ;
#230 = DIRECTION ( 'NONE',  ( -1.000000000000000000, 3.469446951953611822E-15, -0.000000000000000000 ) ) ;
#231 = CARTESIAN_POINT ( 'NONE',  ( -3.736600000000000588, 16.26340000000001140, 204.9999999999999716 ) ) ;
#232 = DIRECTION ( 'NONE',  ( 0.000000000000000000, 0.000000000000000000, 1.000000000000000000 ) ) ;
#233 = EDGE_CURVE ( 'NONE', #197, #222, #60, .T. ) ;
#234 = EDGE_CURVE ( 'NONE', #76, #530, #302, .T. ) ;
#235 = ORIENTED_EDGE ( 'NONE', *, *, #382, .F. ) ;
#236 = DIRECTION ( 'NONE',  ( -0.000000000000000000, -0.000000000000000000, -1.000000000000000000 ) ) ;
#237 = PLANE ( 'NONE',  #171 ) ;
#238 = AXIS2_PLACEMENT_3D ( 'NONE', #575, #244, #386 ) ;
#239 = DIRECTION ( 'NONE',  ( 1.000000000000000000, 0.000000000000000000, -0.000000000000000000 ) ) ;
#240 = ORIENTED_EDGE ( 'NONE', *, *, #509, .F. ) ;
#241 = PLANE ( 'NONE',  #238 ) ;
#242 = ORIENTED_EDGE ( 'NONE', *, *, #163, .F. ) ;
#243 = CARTESIAN_POINT ( 'NONE',  ( -3.736599999999985933, 20.00000000000001066, 204.9999999999999716 ) ) ;
#244 = DIRECTION ( 'NONE',  ( -0.000000000000000000, 0.000000000000000000, 1.000000000000000000 ) ) ;
#245 = EDGE_LOOP ( 'NONE', ( #227, #156, #53, #199 ) ) ;
#246 = EDGE_CURVE ( 'NONE', #197, #207, #292, .T. ) ;
#247 = COLOUR_RGB ( '',0.2509803921568627416, 0.2509803921568627416, 0.2509803921568627416 ) ;
#248 = DIRECTION ( 'NONE',  ( -0.000000000000000000, 1.000000000000000000, -0.000000000000000000 ) ) ;
#249 = AXIS2_PLACEMENT_3D ( 'NONE', #503, #232, #239 ) ;
#250 = ORIENTED_EDGE ( 'NONE', *, *, #268, .T. ) ;
#251 = CARTESIAN_POINT ( 'NONE',  ( -20.00000000000000000, 20.00000000000006750, -204.9999999999999147 ) ) ;
#252 = ORIENTED_EDGE ( 'NONE', *, *, #554, .F. ) ;
#253 = CARTESIAN_POINT ( 'NONE',  ( -20.00000000000000000, -20.00000000000005329, -204.9999999999999147 ) ) ;
#254 =( NAMED_UNIT ( * ) SI_UNIT ( $, .STERADIAN. ) SOLID_ANGLE_UNIT ( ) );
#255 = LINE ( 'NONE', #209, #193 ) ;
#256 = UNCERTAINTY_MEASURE_WITH_UNIT (LENGTH_MEASURE( 1.000000000000000082E-05 ), #263, 'distance_accuracy_value', 'NONE');
#257 = ORIENTED_EDGE ( 'NONE', *, *, #439, .T. ) ;
#258 = CARTESIAN_POINT ( 'NONE',  ( 7.986338305560162073E-14, 19.99999999999999645, 0.000000000000000000 ) ) ;
#259 = LINE ( 'NONE', #484, #20 ) ;
#260 = CARTESIAN_POINT ( 'NONE',  ( -8.673617379884035472E-16, -16.26339999999999719, -204.9999999999999147 ) ) ;
#261 = FILL_AREA_STYLE ('',( #212 ) ) ;
#262 = DIRECTION ( 'NONE',  ( 3.532562060772751952E-15, 1.000000000000000000, 0.000000000000000000 ) ) ;
#263 =( LENGTH_UNIT ( ) NAMED_UNIT ( * ) SI_UNIT ( .MILLI., .METRE. ) );
#264 = CARTESIAN_POINT ( 'NONE',  ( 0.000000000000000000, 0.000000000000000000, 0.000000000000000000 ) ) ;
#265 = CIRCLE ( 'NONE', #11, 3.736600000000000588 ) ;
#266 = ORIENTED_EDGE ( 'NONE', *, *, #85, .F. ) ;
#267 = DIRECTION ( 'NONE',  ( 0.000000000000000000, -1.000000000000000000, 0.000000000000000000 ) ) ;
#268 = EDGE_CURVE ( 'NONE', #315, #79, #75, .T. ) ;
#269 = EDGE_CURVE ( 'NONE', #307, #197, #532, .T. ) ;
#270 = ORIENTED_EDGE ( 'NONE', *, *, #4, .T. ) ;
#271 = CARTESIAN_POINT ( 'NONE',  ( -3.736600000000000588, 16.26340000000001140, -204.9999999999999147 ) ) ;
#272 = DIRECTION ( 'NONE',  ( 0.000000000000000000, 0.000000000000000000, -1.000000000000000000 ) ) ;
#273 = AXIS2_PLACEMENT_3D ( 'NONE', #473, #345, #341 ) ;
#274 = FACE_OUTER_BOUND ( 'NONE', #435, .T. ) ;
#275 = LINE ( 'NONE', #331, #512 ) ;
#276 = VERTEX_POINT ( 'NONE', #253 ) ;
#278 = ADVANCED_FACE ( 'NONE', ( #475 ), #241, .T. ) ;
#277 = MANIFOLD_SOLID_BREP ( 'Edge-Flange1', #469 ) ;
#279 = ORIENTED_EDGE ( 'NONE', *, *, #246, .F. ) ;
#280 = DIRECTION ( 'NONE',  ( 1.000000000000000000, 0.000000000000000000, 0.000000000000000000 ) ) ;
#281 = VECTOR ( 'NONE', #400, 1000.000000000000000 ) ;
#282 = DIRECTION ( 'NONE',  ( -1.000000000000000000, 0.000000000000000000, 0.000000000000000000 ) ) ;
#283 = DIRECTION ( 'NONE',  ( 1.000000000000000000, 3.469446951953611822E-15, -0.000000000000000000 ) ) ;
#284 = AXIS2_PLACEMENT_3D ( 'NONE', #2, #144, #462 ) ;
#285 = PLANE ( 'NONE',  #249 ) ;
#286 = VECTOR ( 'NONE', #347, 1000.000000000000000 ) ;
#287 = VECTOR ( 'NONE', #370, 1000.000000000000000 ) ;
#288 = FACE_OUTER_BOUND ( 'NONE', #392, .T. ) ;
#289 = ADVANCED_FACE ( 'NONE', ( #216 ), #161, .F. ) ;
#290 = EDGE_CURVE ( 'NONE', #76, #210, #423, .T. ) ;
#291 = EDGE_LOOP ( 'NONE', ( #100, #479, #92, #416 ) ) ;
#292 = LINE ( 'NONE', #517, #95 ) ;
#293 = EDGE_LOOP ( 'NONE', ( #28, #323, #438, #504 ) ) ;
#294 =( NAMED_UNIT ( * ) SI_UNIT ( $, .STERADIAN. ) SOLID_ANGLE_UNIT ( ) );
#295 = EDGE_CURVE ( 'NONE', #578, #432, #523, .T. ) ;
#296 = ORIENTED_EDGE ( 'NONE', *, *, #182, .F. ) ;
#297 = FACE_OUTER_BOUND ( 'NONE', #98, .T. ) ;
#298 =( LENGTH_UNIT ( ) NAMED_UNIT ( * ) SI_UNIT ( .MILLI., .METRE. ) );
#299 = ORIENTED_EDGE ( 'NONE', *, *, #394, .T. ) ;
#300 = PLANE ( 'NONE',  #319 ) ;
#301 = ORIENTED_EDGE ( 'NONE', *, *, #42, .F. ) ;
#302 = LINE ( 'NONE', #434, #350 ) ;
#303 = VECTOR ( 'NONE', #374, 1000.000000000000000 ) ;
#304 = CARTESIAN_POINT ( 'NONE',  ( -3.736599999999995259, -16.26339999999999719, -204.9999999999999147 ) ) ;
#305 = ORIENTED_EDGE ( 'NONE', *, *, #269, .F. ) ;
#306 = CARTESIAN_POINT ( 'NONE',  ( -3.736599999999989041, 20.00000000000001066, -204.9999999999999147 ) ) ;
#307 = VERTEX_POINT ( 'NONE', #213 ) ;
#308 = CARTESIAN_POINT ( 'NONE',  ( -3.736599999999989041, -16.99999999999999645, 204.9999999999999716 ) ) ;
#309 = DIRECTION ( 'NONE',  ( 0.000000000000000000, 0.000000000000000000, -1.000000000000000000 ) ) ;
#310 = ADVANCED_FACE ( 'NONE', ( #352 ), #300, .F. ) ;
#311 = PLANE ( 'NONE',  #468 ) ;
#312 = PLANE ( 'NONE',  #221 ) ;
#313 = VECTOR ( 'NONE', #502, 1000.000000000000000 ) ;
#314 = DIRECTION ( 'NONE',  ( -0.000000000000000000, -0.000000000000000000, -1.000000000000000000 ) ) ;
#315 = VERTEX_POINT ( 'NONE', #73 ) ;
#316 = ADVANCED_FACE ( 'NONE', ( #297 ), #311, .F. ) ;
#317 = EDGE_CURVE ( 'NONE', #580, #222, #486, .T. ) ;
#318 = PLANE ( 'NONE',  #441 ) ;
#319 = AXIS2_PLACEMENT_3D ( 'NONE', #344, #157, #128 ) ;
#320 = ORIENTED_EDGE ( 'NONE', *, *, #233, .T. ) ;
#321 = ORIENTED_EDGE ( 'NONE', *, *, #206, .T. ) ;
#322 = LINE ( 'NONE', #411, #342 ) ;
#323 = ORIENTED_EDGE ( 'NONE', *, *, #80, .T. ) ;
#324 = COLOUR_RGB ( '',0.2509803921568627416, 0.2509803921568627416, 0.2509803921568627416 ) ;
#325 = CARTESIAN_POINT ( 'NONE',  ( -20.00000000000001066, -17.00000000000005329, -204.9999999999999147 ) ) ;
#326 = DIRECTION ( 'NONE',  ( 0.000000000000000000, 0.000000000000000000, -1.000000000000000000 ) ) ;
#327 = VERTEX_POINT ( 'NONE', #260 ) ;
#328 = DIRECTION ( 'NONE',  ( -3.491481338843133750E-15, 1.000000000000000000, 0.000000000000000000 ) ) ;
#329 = CARTESIAN_POINT ( 'NONE',  ( -3.736599999999995259, -16.26339999999999719, 204.9999999999999716 ) ) ;
#330 = AXIS2_PLACEMENT_3D ( 'NONE', #304, #582, #131 ) ;
#331 = CARTESIAN_POINT ( 'NONE',  ( -2.999999999999994671, -16.26339999999999719, 204.9999999999999716 ) ) ;
#332 = APPLICATION_PROTOCOL_DEFINITION ( 'draft international standard', 'automotive_design', 1998, #427 ) ;
#333 = DIRECTION ( 'NONE',  ( 0.000000000000000000, 0.000000000000000000, -1.000000000000000000 ) ) ;
#334 = EDGE_CURVE ( 'NONE', #459, #496, #66, .T. ) ;
#335 = PRODUCT_CONTEXT ( 'NONE', #401, 'mechanical' ) ;
#336 = EDGE_LOOP ( 'NONE', ( #481, #522, #516, #178 ) ) ;
#337 = ADVANCED_FACE ( 'NONE', ( #172 ), #433, .F. ) ;
#338 = SURFACE_STYLE_FILL_AREA ( #428 ) ;
#339 = ORIENTED_EDGE ( 'NONE', *, *, #378, .T. ) ;
#340 = DIRECTION ( 'NONE',  ( 1.000000000000000000, 0.000000000000000000, 0.000000000000000000 ) ) ;
#341 = DIRECTION ( 'NONE',  ( -1.000000000000000000, 0.000000000000000000, 0.000000000000000000 ) ) ;
#342 = VECTOR ( 'NONE', #94, 1000.000000000000000 ) ;
#343 = VERTEX_POINT ( 'NONE', #114 ) ;
#344 = CARTESIAN_POINT ( 'NONE',  ( -20.00000000000000000, -20.00000000000005329, -204.9999999999999147 ) ) ;
#345 = DIRECTION ( 'NONE',  ( 0.000000000000000000, 0.000000000000000000, 1.000000000000000000 ) ) ;
#346 = ORIENTED_EDGE ( 'NONE', *, *, #205, .T. ) ;
#347 = DIRECTION ( 'NONE',  ( -0.000000000000000000, -0.000000000000000000, 1.000000000000000000 ) ) ;
#348 = ORIENTED_EDGE ( 'NONE', *, *, #106, .T. ) ;
#349 = DIRECTION ( 'NONE',  ( -1.000000000000000000, 0.000000000000000000, -0.000000000000000000 ) ) ;
#350 = VECTOR ( 'NONE', #483, 1000.000000000000000 ) ;
#351 = SURFACE_SIDE_STYLE ('',( #164 ) ) ;
#352 = FACE_OUTER_BOUND ( 'NONE', #429, .T. ) ;
#353 = EDGE_CURVE ( 'NONE', #381, #222, #255, .T. ) ;
#354 = ORIENTED_EDGE ( 'NONE', *, *, #5, .F. ) ;
#355 = CARTESIAN_POINT ( 'NONE',  ( -20.00000000000000000, -20.00000000000005329, 204.9999999999999716 ) ) ;
#356 = FACE_OUTER_BOUND ( 'NONE', #55, .T. ) ;
#357 = DIRECTION ( 'NONE',  ( -3.469446951953611822E-15, 1.000000000000000000, 0.000000000000000000 ) ) ;
#358 = CIRCLE ( 'NONE', #330, 0.7366000000000004766 ) ;
#359 = ADVANCED_FACE ( 'NONE', ( #125 ), #391, .F. ) ;
#360 = VECTOR ( 'NONE', #230, 1000.000000000000000 ) ;
#361 = CIRCLE ( 'NONE', #568, 3.736600000000000588 ) ;
#362 = CARTESIAN_POINT ( 'NONE',  ( 5.204170427930421283E-15, -16.26339999999999719, 204.9999999999999716 ) ) ;
#363 = EDGE_LOOP ( 'NONE', ( #110, #354, #474, #398 ) ) ;
#364 = CARTESIAN_POINT ( 'NONE',  ( -3.736599999999992594, -16.99999999999999645, 204.9999999999999716 ) ) ;
#365 = FACE_OUTER_BOUND ( 'NONE', #363, .T. ) ;
#366 = VECTOR ( 'NONE', #490, 1000.000000000000000 ) ;
#367 = CARTESIAN_POINT ( 'NONE',  ( -3.736600000000000588, 16.26340000000001140, -204.9999999999999147 ) ) ;
#368 = DIRECTION ( 'NONE',  ( 1.000000000000000000, 0.000000000000000000, 0.000000000000000000 ) ) ;
#369 = ORIENTED_EDGE ( 'NONE', *, *, #59, .T. ) ;
#370 = DIRECTION ( 'NONE',  ( 1.692413147294446833E-17, 5.871737635326937428E-32, 1.000000000000000000 ) ) ;
#371 = DIRECTION ( 'NONE',  ( 0.000000000000000000, 0.000000000000000000, 1.000000000000000000 ) ) ;
#372 = ORIENTED_EDGE ( 'NONE', *, *, #290, .F. ) ;
#373 = CARTESIAN_POINT ( 'NONE',  ( -3.736599999999996147, 17.00000000000001066, 204.9999999999999716 ) ) ;
#374 = DIRECTION ( 'NONE',  ( 0.000000000000000000, 0.000000000000000000, 1.000000000000000000 ) ) ;
#375 = EDGE_LOOP ( 'NONE', ( #15, #68, #279, #235 ) ) ;
#376 = AXIS2_PLACEMENT_3D ( 'NONE', #111, #563, #23 ) ;
#377 = LINE ( 'NONE', #189, #360 ) ;
#378 = EDGE_CURVE ( 'NONE', #556, #79, #26, .T. ) ;
#379 = DIRECTION ( 'NONE',  ( 1.000000000000000000, 0.000000000000000000, 0.000000000000000000 ) ) ;
#380 = AXIS2_PLACEMENT_3D ( 'NONE', #329, #52, #379 ) ;
#381 = VERTEX_POINT ( 'NONE', #306 ) ;
#382 = EDGE_CURVE ( 'NONE', #576, #197, #396, .T. ) ;
#383 = ORIENTED_EDGE ( 'NONE', *, *, #5, .T. ) ;
#384 = CARTESIAN_POINT ( 'NONE',  ( -3.736599999999995259, -16.26339999999999719, 204.9999999999999716 ) ) ;
#385 = VECTOR ( 'NONE', #96, 1000.000000000000000 ) ;
#386 = DIRECTION ( 'NONE',  ( 1.000000000000000000, 0.000000000000000000, 0.000000000000000000 ) ) ;
#387 = EDGE_LOOP ( 'NONE', ( #252, #508, #321, #48 ) ) ;
#388 = DIRECTION ( 'NONE',  ( 1.000000000000000000, 0.000000000000000000, 0.000000000000000000 ) ) ;
#389 = CARTESIAN_POINT ( 'NONE',  ( -2.999999999999994671, -16.26339999999999719, 204.9999999999999716 ) ) ;
#390 = ORIENTED_EDGE ( 'NONE', *, *, #4, .F. ) ;
#391 = CYLINDRICAL_SURFACE ( 'NONE', #160, 0.7366000000000004766 ) ;
#392 = EDGE_LOOP ( 'NONE', ( #90, #112, #270, #443 ) ) ;
#393 = CARTESIAN_POINT ( 'NONE',  ( 0.000000000000000000, 16.26340000000001140, 205.0000000000000284 ) ) ;
#394 = EDGE_CURVE ( 'NONE', #558, #556, #175, .T. ) ;
#395 = CARTESIAN_POINT ( 'NONE',  ( -20.00000000000000000, 20.00000000000006750, -204.9999999999999147 ) ) ;
#396 = LINE ( 'NONE', #519, #181 ) ;
#397 = PRODUCT_DEFINITION_CONTEXT ( 'detailed design', #427, 'design' ) ;
#398 = ORIENTED_EDGE ( 'NONE', *, *, #59, .F. ) ;
#399 = VECTOR ( 'NONE', #67, 1000.000000000000000 ) ;
#400 = DIRECTION ( 'NONE',  ( -0.000000000000000000, 1.000000000000000000, -0.000000000000000000 ) ) ;
#401 = APPLICATION_CONTEXT ( 'automotive_design' ) ;
#402 = DIRECTION ( 'NONE',  ( -1.000000000000000000, 0.000000000000000000, -0.000000000000000000 ) ) ;
#403 = CARTESIAN_POINT ( 'NONE',  ( 0.000000000000000000, 20.00000000000000711, -204.9999999999999716 ) ) ;
#404 = DIRECTION ( 'NONE',  ( 0.000000000000000000, 0.000000000000000000, -1.000000000000000000 ) ) ;
#405 = EDGE_CURVE ( 'NONE', #116, #459, #69, .T. ) ;
#406 = EDGE_CURVE ( 'NONE', #343, #381, #201, .T. ) ;
#407 = PLANE ( 'NONE',  #45 ) ;
#408 = PRESENTATION_LAYER_ASSIGNMENT (  '', '', ( #70 ) ) ;
#409 = ORIENTED_EDGE ( 'NONE', *, *, #64, .T. ) ;
#410 = ORIENTED_EDGE ( 'NONE', *, *, #182, .T. ) ;
#411 = CARTESIAN_POINT ( 'NONE',  ( -20.00000000000000000, -20.00000000000005329, 204.9999999999999716 ) ) ;
#412 = LINE ( 'NONE', #373, #385 ) ;
#413 = CARTESIAN_POINT ( 'NONE',  ( -3.736600000000000588, 16.26340000000001140, -204.9999999999999147 ) ) ;
#414 = ORIENTED_EDGE ( 'NONE', *, *, #317, .F. ) ;
#415 = CARTESIAN_POINT ( 'NONE',  ( -3.736600000000000588, 16.26340000000001140, 204.9999999999999716 ) ) ;
#416 = ORIENTED_EDGE ( 'NONE', *, *, #422, .T. ) ;
#417 = LINE ( 'NONE', #325, #313 ) ;
#418 = CARTESIAN_POINT ( 'NONE',  ( -2.999999999999994671, -16.26339999999999719, -204.9999999999999147 ) ) ;
#419 = ORIENTED_EDGE ( 'NONE', *, *, #378, .F. ) ;
#420 = FACE_OUTER_BOUND ( 'NONE', #187, .T. ) ;
#421 = PLANE ( 'NONE',  #581 ) ;
#422 = EDGE_CURVE ( 'NONE', #327, #496, #265, .T. ) ;
#423 = CIRCLE ( 'NONE', #137, 0.7366000000000004766 ) ;
#424 = CARTESIAN_POINT ( 'NONE',  ( -3.000000000000000000, 16.26340000000001140, -204.9999999999999147 ) ) ;
#425 = STYLED_ITEM ( 'NONE', ( #198 ), #277 ) ;
#426 = ORIENTED_EDGE ( 'NONE', *, *, #446, .F. ) ;
#427 = APPLICATION_CONTEXT ( 'automotive_design' ) ;
#428 = FILL_AREA_STYLE ('',( #127 ) ) ;
#429 = EDGE_LOOP ( 'NONE', ( #369, #390, #266, #257 ) ) ;
#430 = DIRECTION ( 'NONE',  ( 8.462065736472234163E-18, -2.935868817663468714E-32, 1.000000000000000000 ) ) ;
#431 = VECTOR ( 'NONE', #50, 1000.000000000000000 ) ;
#432 = VERTEX_POINT ( 'NONE', #573 ) ;
#433 = PLANE ( 'NONE',  #109 ) ;
#434 = CARTESIAN_POINT ( 'NONE',  ( -20.00000000000001066, -17.00000000000005329, 204.9999999999999716 ) ) ;
#435 = EDGE_LOOP ( 'NONE', ( #518, #43, #240, #419 ) ) ;
#436 = DIRECTION ( 'NONE',  ( -0.000000000000000000, 0.000000000000000000, 1.000000000000000000 ) ) ;
#437 = ADVANCED_FACE ( 'NONE', ( #452 ), #318, .T. ) ;
#438 = ORIENTED_EDGE ( 'NONE', *, *, #85, .T. ) ;
#439 = EDGE_CURVE ( 'NONE', #499, #530, #322, .T. ) ;
#440 = DIRECTION ( 'NONE',  ( 0.000000000000000000, 0.000000000000000000, 1.000000000000000000 ) ) ;
#441 = AXIS2_PLACEMENT_3D ( 'NONE', #264, #368, #272 ) ;
#442 = DIRECTION ( 'NONE',  ( -0.000000000000000000, -0.000000000000000000, 1.000000000000000000 ) ) ;
#443 = ORIENTED_EDGE ( 'NONE', *, *, #405, .T. ) ;
#444 = CARTESIAN_POINT ( 'NONE',  ( -3.000000000000000000, -16.99999999999999289, -204.9999999999999147 ) ) ;
#445 =( NAMED_UNIT ( * ) PLANE_ANGLE_UNIT ( ) SI_UNIT ( $, .RADIAN. ) );
#446 = EDGE_CURVE ( 'NONE', #381, #558, #593, .T. ) ;
#447 = CARTESIAN_POINT ( 'NONE',  ( -20.00000000000000000, 20.00000000000006750, 0.000000000000000000 ) ) ;
#448 =( NAMED_UNIT ( * ) PLANE_ANGLE_UNIT ( ) SI_UNIT ( $, .RADIAN. ) );
#449 = VECTOR ( 'NONE', #133, 1000.000000000000000 ) ;
#450 = FACE_OUTER_BOUND ( 'NONE', #291, .T. ) ;
#451 = EDGE_LOOP ( 'NONE', ( #135, #488, #472, #214 ) ) ;
#452 = FACE_OUTER_BOUND ( 'NONE', #245, .T. ) ;
#453 = ORIENTED_EDGE ( 'NONE', *, *, #465, .F. ) ;
#454 = VECTOR ( 'NONE', #81, 1000.000000000000000 ) ;
#455 = DIRECTION ( 'NONE',  ( 1.000000000000000000, 0.000000000000000000, -0.000000000000000000 ) ) ;
#456 = CARTESIAN_POINT ( 'NONE',  ( 7.986338305560162073E-14, 19.99999999999999645, 204.9999999999999716 ) ) ;
#457 = DIRECTION ( 'NONE',  ( 0.000000000000000000, 0.000000000000000000, 1.000000000000000000 ) ) ;
#458 = DIRECTION ( 'NONE',  ( -0.000000000000000000, -0.000000000000000000, 1.000000000000000000 ) ) ;
#459 = VERTEX_POINT ( 'NONE', #176 ) ;
#460 = CARTESIAN_POINT ( 'NONE',  ( -3.000000000000000000, 0.000000000000000000, 0.000000000000000000 ) ) ;
#461 = VECTOR ( 'NONE', #283, 1000.000000000000000 ) ;
#462 = DIRECTION ( 'NONE',  ( -1.000000000000000000, 0.000000000000000000, -0.000000000000000000 ) ) ;
#463 = CARTESIAN_POINT ( 'NONE',  ( -20.00000000000001066, -17.00000000000005329, -204.9999999999999147 ) ) ;
#464 = AXIS2_PLACEMENT_3D ( 'NONE', #594, #500, #54 ) ;
#465 = EDGE_CURVE ( 'NONE', #343, #432, #520, .T. ) ;
#466 = ADVANCED_FACE ( 'NONE', ( #365 ), #83, .T. ) ;
#467 = CARTESIAN_POINT ( 'NONE',  ( 7.986338305560157025E-14, -19.99999999999998224, -204.9999999999999147 ) ) ;
#468 = AXIS2_PLACEMENT_3D ( 'NONE', #251, #436, #340 ) ;
#469 = CLOSED_SHELL ( 'NONE', ( #190, #437, #278, #38, #18, #13, #63, #507, #316, #192, #226, #78, #584, #545, #86, #123, #359, #337, #142, #289, #466, #310 ) ) ;
#470 = ADVANCED_BREP_SHAPE_REPRESENTATION ( 'TOP SUPPORT', ( #277, #376 ), #511 ) ;
#471 = LINE ( 'NONE', #10, #542 ) ;
#472 = ORIENTED_EDGE ( 'NONE', *, *, #155, .F. ) ;
#473 = CARTESIAN_POINT ( 'NONE',  ( -3.736600000000000588, 16.26340000000001140, 204.9999999999999716 ) ) ;
#474 = ORIENTED_EDGE ( 'NONE', *, *, #405, .F. ) ;
#475 = FACE_OUTER_BOUND ( 'NONE', #375, .T. ) ;
#476 = ORIENTED_EDGE ( 'NONE', *, *, #590, .T. ) ;
#477 = CARTESIAN_POINT ( 'NONE',  ( -3.736599999999985933, -19.99999999999999645, -204.9999999999999147 ) ) ;
#478 = DIRECTION ( 'NONE',  ( -1.692413147294446833E-17, -5.871737635326937428E-32, -1.000000000000000000 ) ) ;
#479 = ORIENTED_EDGE ( 'NONE', *, *, #590, .F. ) ;
#480 = DIRECTION ( 'NONE',  ( -0.000000000000000000, -0.000000000000000000, 1.000000000000000000 ) ) ;
#481 = ORIENTED_EDGE ( 'NONE', *, *, #149, .F. ) ;
#482 = AXIS2_PLACEMENT_3D ( 'NONE', #415, #371, #553 ) ;
#483 = DIRECTION ( 'NONE',  ( -1.000000000000000000, -3.469446951953611822E-15, -0.000000000000000000 ) ) ;
#484 = CARTESIAN_POINT ( 'NONE',  ( -2.999999999999994671, -16.26339999999999719, 204.9999999999999716 ) ) ;
#485 = ORIENTED_EDGE ( 'NONE', *, *, #406, .T. ) ;
#486 = LINE ( 'NONE', #243, #547 ) ;
#487 = UNCERTAINTY_MEASURE_WITH_UNIT (LENGTH_MEASURE( 1.000000000000000082E-05 ), #298, 'distance_accuracy_value', 'NONE');
#488 = ORIENTED_EDGE ( 'NONE', *, *, #555, .F. ) ;
#489 = LINE ( 'NONE', #162, #196 ) ;
#490 = DIRECTION ( 'NONE',  ( 3.469446951953611822E-15, 1.000000000000000000, -0.000000000000000000 ) ) ;
#491 = EDGE_CURVE ( 'NONE', #315, #222, #41, .T. ) ;
#492 = CARTESIAN_POINT ( 'NONE',  ( 7.986338305560162073E-14, 19.99999999999999645, -204.9999999999999147 ) ) ;
#493 = DIRECTION ( 'NONE',  ( 1.000000000000000000, -3.491481338843133750E-15, 0.000000000000000000 ) ) ;
#494 = DIRECTION ( 'NONE',  ( 1.000000000000000000, -3.469446951953611822E-15, -0.000000000000000000 ) ) ;
#495 = PRODUCT_DEFINITION_SHAPE ( 'NONE', 'NONE',  #565 ) ;
#496 = VERTEX_POINT ( 'NONE', #140 ) ;
#497 = VECTOR ( 'NONE', #579, 1000.000000000000000 ) ;
#498 = DIRECTION ( 'NONE',  ( -1.000000000000000000, 0.000000000000000000, -0.000000000000000000 ) ) ;
#499 = VERTEX_POINT ( 'NONE', #541 ) ;
#500 = DIRECTION ( 'NONE',  ( -3.469446951953611822E-15, -1.000000000000000000, 0.000000000000000000 ) ) ;
#501 = CYLINDRICAL_SURFACE ( 'NONE', #527, 0.7366000000000004766 ) ;
#502 = DIRECTION ( 'NONE',  ( -0.000000000000000000, -0.000000000000000000, -1.000000000000000000 ) ) ;
#503 = CARTESIAN_POINT ( 'NONE',  ( -2.999999999999989786, -19.99999999999999289, -204.9999999999999147 ) ) ;
#504 = ORIENTED_EDGE ( 'NONE', *, *, #99, .T. ) ;
#505 = DIRECTION ( 'NONE',  ( 3.481888901628767880E-15, 1.000000000000000000, 0.000000000000000000 ) ) ;
#506 = FACE_OUTER_BOUND ( 'NONE', #544, .T. ) ;
#507 = ADVANCED_FACE ( 'NONE', ( #87 ), #501, .F. ) ;
#508 = ORIENTED_EDGE ( 'NONE', *, *, #165, .F. ) ;
#509 = EDGE_CURVE ( 'NONE', #79, #580, #177, .T. ) ;
#510 = FACE_OUTER_BOUND ( 'NONE', #8, .T. ) ;
#511 =( GEOMETRIC_REPRESENTATION_CONTEXT ( 3 ) GLOBAL_UNCERTAINTY_ASSIGNED_CONTEXT ( ( #256 ) ) GLOBAL_UNIT_ASSIGNED_CONTEXT ( ( #263, #448, #254 ) ) REPRESENTATION_CONTEXT ( 'NONE', 'WORKASPACE' ) );
#512 = VECTOR ( 'NONE', #513, 1000.000000000000000 ) ;
#513 = DIRECTION ( 'NONE',  ( 1.000000000000000000, 0.000000000000000000, 0.000000000000000000 ) ) ;
#514 =( NAMED_UNIT ( * ) SI_UNIT ( $, .STERADIAN. ) SOLID_ANGLE_UNIT ( ) );
#515 = LINE ( 'NONE', #467, #461 ) ;
#516 = ORIENTED_EDGE ( 'NONE', *, *, #163, .T. ) ;
#517 = CARTESIAN_POINT ( 'NONE',  ( 0.000000000000000000, 20.00000000000000711, 205.0000000000000284 ) ) ;
#518 = ORIENTED_EDGE ( 'NONE', *, *, #106, .F. ) ;
#519 = CARTESIAN_POINT ( 'NONE',  ( -3.000000000000000000, 16.26340000000001140, 204.9999999999999716 ) ) ;
#520 = CIRCLE ( 'NONE', #89, 0.7366000000000004766 ) ;
#521 = DIRECTION ( 'NONE',  ( 0.000000000000000000, -1.000000000000000000, 0.000000000000000000 ) ) ;
#522 = ORIENTED_EDGE ( 'NONE', *, *, #295, .T. ) ;
#523 = LINE ( 'NONE', #117, #574 ) ;
#524 = ORIENTED_EDGE ( 'NONE', *, *, #155, .T. ) ;
#525 = CARTESIAN_POINT ( 'NONE',  ( -3.736599999999987709, 20.00000000000001066, 204.9999999999999716 ) ) ;
#526 = CARTESIAN_POINT ( 'NONE',  ( -20.00000000000000000, 20.00000000000006750, 204.9999999999999716 ) ) ;
#527 = AXIS2_PLACEMENT_3D ( 'NONE', #413, #314, #262 ) ;
#528 = ORIENTED_EDGE ( 'NONE', *, *, #80, .F. ) ;
#529 = DIRECTION ( 'NONE',  ( 3.469446951953611822E-15, 1.000000000000000000, -0.000000000000000000 ) ) ;
#530 = VERTEX_POINT ( 'NONE', #184 ) ;
#531 = CIRCLE ( 'NONE', #380, 3.736600000000000588 ) ;
#532 = LINE ( 'NONE', #27, #124 ) ;
#533 = SURFACE_STYLE_USAGE ( .BOTH. , #351 ) ;
#534 = DIRECTION ( 'NONE',  ( -3.469446951953611822E-15, 1.000000000000000000, 0.000000000000000000 ) ) ;
#535 = EDGE_LOOP ( 'NONE', ( #154, #74, #566, #61 ) ) ;
#536 = PRESENTATION_STYLE_ASSIGNMENT (( #533 ) ) ;
#537 = PRODUCT_DEFINITION_FORMATION_WITH_SPECIFIED_SOURCE ( 'ANY', '', #88, .NOT_KNOWN. ) ;
#538 = CARTESIAN_POINT ( 'NONE',  ( -20.00000000000000000, 20.00000000000006750, -204.9999999999999147 ) ) ;
#539 = EDGE_CURVE ( 'NONE', #558, #315, #220, .T. ) ;
#540 = VECTOR ( 'NONE', #543, 1000.000000000000000 ) ;
#541 = CARTESIAN_POINT ( 'NONE',  ( -20.00000000000000000, -20.00000000000005329, 204.9999999999999716 ) ) ;
#542 = VECTOR ( 'NONE', #333, 1000.000000000000000 ) ;
#543 = DIRECTION ( 'NONE',  ( 0.000000000000000000, 0.000000000000000000, -1.000000000000000000 ) ) ;
#544 = EDGE_LOOP ( 'NONE', ( #126, #166, #250, #36 ) ) ;
#545 = ADVANCED_FACE ( 'NONE', ( #450 ), #407, .T. ) ;
#546 = PLANE ( 'NONE',  #464 ) ;
#547 = VECTOR ( 'NONE', #529, 1000.000000000000000 ) ;
#548 = VECTOR ( 'NONE', #328, 1000.000000000000000 ) ;
#549 = PRODUCT_RELATED_PRODUCT_CATEGORY ( 'part', '', ( #88 ) ) ;
#550 = DIRECTION ( 'NONE',  ( -0.000000000000000000, -0.000000000000000000, -1.000000000000000000 ) ) ;
#551 = EDGE_LOOP ( 'NONE', ( #414, #296, #203, #320 ) ) ;
#552 = DIRECTION ( 'NONE',  ( 0.000000000000000000, 0.000000000000000000, 1.000000000000000000 ) ) ;
#553 = DIRECTION ( 'NONE',  ( -1.000000000000000000, 0.000000000000000000, 0.000000000000000000 ) ) ;
#554 = EDGE_CURVE ( 'NONE', #207, #327, #588, .T. ) ;
#555 = EDGE_CURVE ( 'NONE', #576, #210, #136, .T. ) ;
#556 = VERTEX_POINT ( 'NONE', #46 ) ;
#557 = LINE ( 'NONE', #424, #303 ) ;
#558 = VERTEX_POINT ( 'NONE', #395 ) ;
#559 = LINE ( 'NONE', #57, #202 ) ;
#560 = VECTOR ( 'NONE', #267, 1000.000000000000000 ) ;
#561 = CARTESIAN_POINT ( 'NONE',  ( -3.736599999999995259, -16.26339999999999719, 204.9999999999999716 ) ) ;
#562 = PRESENTATION_LAYER_ASSIGNMENT (  '', '', ( #425 ) ) ;
#563 = DIRECTION ( 'NONE',  ( 0.000000000000000000, 0.000000000000000000, 1.000000000000000000 ) ) ;
#564 = EDGE_CURVE ( 'NONE', #327, #307, #84, .T. ) ;
#565 = PRODUCT_DEFINITION ( 'UNKNOWN', '', #537, #397 ) ;
#566 = ORIENTED_EDGE ( 'NONE', *, *, #539, .T. ) ;
#567 = VERTEX_POINT ( 'NONE', #121 ) ;
#568 = AXIS2_PLACEMENT_3D ( 'NONE', #102, #236, #282 ) ;
#569 = CARTESIAN_POINT ( 'NONE',  ( 7.986338305560157025E-14, -19.99999999999998224, 0.000000000000000000 ) ) ;
#570 = EDGE_CURVE ( 'NONE', #210, #578, #259, .T. ) ;
#571 = DIRECTION ( 'NONE',  ( 0.000000000000000000, 0.000000000000000000, -1.000000000000000000 ) ) ;
#572 = ORIENTED_EDGE ( 'NONE', *, *, #539, .F. ) ;
#573 = CARTESIAN_POINT ( 'NONE',  ( -3.000000000000000000, 16.26340000000001140, -204.9999999999999147 ) ) ;
#574 = VECTOR ( 'NONE', #248, 1000.000000000000000 ) ;
#575 = CARTESIAN_POINT ( 'NONE',  ( -3.000000000000000000, 20.00000000000000711, 205.0000000000000284 ) ) ;
#576 = VERTEX_POINT ( 'NONE', #215 ) ;
#577 = DIRECTION ( 'NONE',  ( 3.532562060772751952E-15, -1.000000000000000000, 0.000000000000000000 ) ) ;
#578 = VERTEX_POINT ( 'NONE', #174 ) ;
#579 = DIRECTION ( 'NONE',  ( 1.000000000000000000, 3.469446951953611822E-15, -0.000000000000000000 ) ) ;
#580 = VERTEX_POINT ( 'NONE', #170 ) ;
#581 = AXIS2_PLACEMENT_3D ( 'NONE', #194, #571, #349 ) ;
#582 = DIRECTION ( 'NONE',  ( 0.000000000000000000, 0.000000000000000000, -1.000000000000000000 ) ) ;
#583 = CARTESIAN_POINT ( 'NONE',  ( -3.736599999999995259, -16.26339999999999719, 204.9999999999999716 ) ) ;
#584 = ADVANCED_FACE ( 'NONE', ( #356 ), #312, .F. ) ;
#585 = DIRECTION ( 'NONE',  ( 3.491481338843133750E-15, 1.000000000000000000, 0.000000000000000000 ) ) ;
#586 = DIRECTION ( 'NONE',  ( -1.000000000000000000, -3.469446951953611822E-15, 0.000000000000000000 ) ) ;
#587 = VECTOR ( 'NONE', #494, 1000.000000000000000 ) ;
#588 = LINE ( 'NONE', #362, #540 ) ;
#589 = VECTOR ( 'NONE', #280, 1000.000000000000000 ) ;
#590 = EDGE_CURVE ( 'NONE', #578, #459, #358, .T. ) ;
#591 = ORIENTED_EDGE ( 'NONE', *, *, #233, .F. ) ;
#592 = CARTESIAN_POINT ( 'NONE',  ( -3.736599999999996147, -16.99999999999999645, -204.9999999999999147 ) ) ;
#593 = LINE ( 'NONE', #492, #449 ) ;
#594 = CARTESIAN_POINT ( 'NONE',  ( 6.938893903907222067E-14, 16.99999999999999645, 0.000000000000000000 ) ) ;
ENDSEC;
END-ISO-10303-21;
