  0
SECTION
  2
HEADER
  9
$ACADVER
  1
AC1024
  9
$ACADMAINTVER
 70
6
  9
$DWGCODEPAGE
  3
ANSI_1252
  9
$LASTSAVEDBY
  1
ezdxf
  9
$INSBASE
 10
0.0
 20
0.0
 30
0.0
  9
$EXTMIN
 10
1e+20
 20
1e+20
 30
1e+20
  9
$EXTMAX
 10
-1e+20
 20
-1e+20
 30
-1e+20
  9
$LIMMIN
 10
0.0
 20
0.0
  9
$LIMMAX
 10
420.0
 20
297.0
  9
$ORTHOMODE
 70
0
  9
$REGENMODE
 70
1
  9
$FILLMODE
 70
1
  9
$QTEXTMODE
 70
0
  9
$MIRRTEXT
 70
1
  9
$LTSCALE
 40
1.0
  9
$ATTMODE
 70
1
  9
$TEXTSIZE
 40
2.5
  9
$TRACEWID
 40
1.0
  9
$TEXTSTYLE
  7
Standard
  9
$CLAYER
  8
0
  9
$CELTYPE
  6
ByLayer
  9
$CECOLOR
 62
256
  9
$CELTSCALE
 40
1.0
  9
$DISPSILH
 70
0
  9
$DIMSCALE
 40
1.0
  9
$DIMASZ
 40
2.5
  9
$DIMEXO
 40
0.625
  9
$DIMDLI
 40
3.75
  9
$DIMRND
 40
0.0
  9
$DIMDLE
 40
0.0
  9
$DIMEXE
 40
1.25
  9
$DIMTP
 40
0.0
  9
$DIMTM
 40
0.0
  9
$DIMTXT
 40
2.5
  9
$DIMCEN
 40
2.5
  9
$DIMTSZ
 40
0.0
  9
$DIMTOL
 70
0
  9
$DIMLIM
 70
0
  9
$DIMTIH
 70
0
  9
$DIMTOH
 70
0
  9
$DIMSE1
 70
0
  9
$DIMSE2
 70
0
  9
$DIMTAD
 70
1
  9
$DIMZIN
 70
8
  9
$DIMBLK
  1

  9
$DIMASO
 70
1
  9
$DIMSHO
 70
1
  9
$DIMPOST
  1

  9
$DIMAPOST
  1

  9
$DIMALT
 70
0
  9
$DIMALTD
 70
3
  9
$DIMALTF
 40
0.03937007874
  9
$DIMLFAC
 40
1.0
  9
$DIMTOFL
 70
1
  9
$DIMTVP
 40
0.0
  9
$DIMTIX
 70
0
  9
$DIMSOXD
 70
0
  9
$DIMSAH
 70
0
  9
$DIMBLK1
  1

  9
$DIMBLK2
  1

  9
$DIMSTYLE
  2
ISO-25
  9
$DIMCLRD
 70
0
  9
$DIMCLRE
 70
0
  9
$DIMCLRT
 70
0
  9
$DIMTFAC
 40
1.0
  9
$DIMGAP
 40
0.625
  9
$DIMJUST
 70
0
  9
$DIMSD1
 70
0
  9
$DIMSD2
 70
0
  9
$DIMTOLJ
 70
0
  9
$DIMTZIN
 70
8
  9
$DIMALTZ
 70
0
  9
$DIMALTTZ
 70
0
  9
$DIMUPT
 70
0
  9
$DIMDEC
 70
2
  9
$DIMTDEC
 70
2
  9
$DIMALTU
 70
2
  9
$DIMALTTD
 70
3
  9
$DIMTXSTY
  7
Standard
  9
$DIMAUNIT
 70
0
  9
$DIMADEC
 70
0
  9
$DIMALTRND
 40
0.0
  9
$DIMAZIN
 70
0
  9
$DIMDSEP
 70
44
  9
$DIMATFIT
 70
3
  9
$DIMFRAC
 70
0
  9
$DIMLDRBLK
  1

  9
$DIMLUNIT
 70
2
  9
$DIMLWD
 70
-2
  9
$DIMLWE
 70
-2
  9
$DIMTMOVE
 70
0
  9
$DIMFXL
 40
1.0
  9
$DIMFXLON
 70
0
  9
$DIMJOGANG
 40
0.785398163397
  9
$DIMTFILL
 70
0
  9
$DIMTFILLCLR
 70
0
  9
$DIMARCSYM
 70
0
  9
$DIMLTYPE
  6

  9
$DIMLTEX1
  6

  9
$DIMLTEX2
  6

  9
$DIMTXTDIRECTION
 70
0
  9
$LUNITS
 70
2
  9
$LUPREC
 70
4
  9
$SKETCHINC
 40
1.0
  9
$FILLETRAD
 40
10.0
  9
$AUNITS
 70
0
  9
$AUPREC
 70
2
  9
$MENU
  1
.
  9
$ELEVATION
 40
0.0
  9
$PELEVATION
 40
0.0
  9
$THICKNESS
 40
0.0
  9
$LIMCHECK
 70
0
  9
$CHAMFERA
 40
0.0
  9
$CHAMFERB
 40
0.0
  9
$CHAMFERC
 40
0.0
  9
$CHAMFERD
 40
0.0
  9
$SKPOLY
 70
0
  9
$TDCREATE
 40
2461239.490486111
  9
$TDUCREATE
 40
2458532.153996898
  9
$TDUPDATE
 40
2461239.490486111
  9
$TDUUPDATE
 40
2458532.1544311
  9
$TDINDWG
 40
0.0
  9
$TDUSRTIMER
 40
0.0
  9
$USRTIMER
 70
1
  9
$ANGBASE
 50
0.0
  9
$ANGDIR
 70
0
  9
$PDMODE
 70
0
  9
$PDSIZE
 40
0.0
  9
$PLINEWID
 40
0.0
  9
$SPLFRAME
 70
0
  9
$SPLINETYPE
 70
6
  9
$SPLINESEGS
 70
8
  9
$HANDSEED
  5
71
  9
$SURFTAB1
 70
6
  9
$SURFTAB2
 70
6
  9
$SURFTYPE
 70
6
  9
$SURFU
 70
6
  9
$SURFV
 70
6
  9
$UCSBASE
  2

  9
$UCSNAME
  2

  9
$UCSORG
 10
0.0
 20
0.0
 30
0.0
  9
$UCSXDIR
 10
1.0
 20
0.0
 30
0.0
  9
$UCSYDIR
 10
0.0
 20
1.0
 30
0.0
  9
$UCSORTHOREF
  2

  9
$UCSORTHOVIEW
 70
0
  9
$UCSORGTOP
 10
0.0
 20
0.0
 30
0.0
  9
$UCSORGBOTTOM
 10
0.0
 20
0.0
 30
0.0
  9
$UCSORGLEFT
 10
0.0
 20
0.0
 30
0.0
  9
$UCSORGRIGHT
 10
0.0
 20
0.0
 30
0.0
  9
$UCSORGFRONT
 10
0.0
 20
0.0
 30
0.0
  9
$UCSORGBACK
 10
0.0
 20
0.0
 30
0.0
  9
$PUCSBASE
  2

  9
$PUCSNAME
  2

  9
$PUCSORG
 10
0.0
 20
0.0
 30
0.0
  9
$PUCSXDIR
 10
1.0
 20
0.0
 30
0.0
  9
$PUCSYDIR
 10
0.0
 20
1.0
 30
0.0
  9
$PUCSORTHOREF
  2

  9
$PUCSORTHOVIEW
 70
0
  9
$PUCSORGTOP
 10
0.0
 20
0.0
 30
0.0
  9
$PUCSORGBOTTOM
 10
0.0
 20
0.0
 30
0.0
  9
$PUCSORGLEFT
 10
0.0
 20
0.0
 30
0.0
  9
$PUCSORGRIGHT
 10
0.0
 20
0.0
 30
0.0
  9
$PUCSORGFRONT
 10
0.0
 20
0.0
 30
0.0
  9
$PUCSORGBACK
 10
0.0
 20
0.0
 30
0.0
  9
$USERI1
 70
0
  9
$USERI2
 70
0
  9
$USERI3
 70
0
  9
$USERI4
 70
0
  9
$USERI5
 70
0
  9
$USERR1
 40
0.0
  9
$USERR2
 40
0.0
  9
$USERR3
 40
0.0
  9
$USERR4
 40
0.0
  9
$USERR5
 40
0.0
  9
$WORLDVIEW
 70
1
  9
$SHADEDGE
 70
3
  9
$SHADEDIF
 70
70
  9
$TILEMODE
 70
1
  9
$MAXACTVP
 70
64
  9
$PINSBASE
 10
0.0
 20
0.0
 30
0.0
  9
$PLIMCHECK
 70
0
  9
$PEXTMIN
 10
1e+20
 20
1e+20
 30
1e+20
  9
$PEXTMAX
 10
-1e+20
 20
-1e+20
 30
-1e+20
  9
$PLIMMIN
 10
0.0
 20
0.0
  9
$PLIMMAX
 10
420.0
 20
297.0
  9
$UNITMODE
 70
0
  9
$VISRETAIN
 70
1
  9
$PLINEGEN
 70
0
  9
$PSLTSCALE
 70
1
  9
$TREEDEPTH
 70
3020
  9
$CMLSTYLE
  2
Standard
  9
$CMLJUST
 70
0
  9
$CMLSCALE
 40
20.0
  9
$PROXYGRAPHICS
 70
1
  9
$MEASUREMENT
 70
1
  9
$CELWEIGHT
370
-1
  9
$ENDCAPS
280
0
  9
$JOINSTYLE
280
0
  9
$LWDISPLAY
290
0
  9
$INSUNITS
 70
6
  9
$HYPERLINKBASE
  1

  9
$STYLESHEET
  1

  9
$XEDIT
290
1
  9
$CEPSNTYPE
380
0
  9
$PSTYLEMODE
290
1
  9
$FINGERPRINTGUID
  2
{FA21C490-FE94-478A-99F0-33CCB1864ECD}
  9
$VERSIONGUID
  2
{A5136385-4CA0-403B-BEDD-DD22FDD8BB09}
  9
$EXTNAMES
290
1
  9
$PSVPSCALE
 40
0.0
  9
$OLESTARTUP
290
0
  9
$SORTENTS
280
127
  9
$INDEXCTL
280
0
  9
$HIDETEXT
280
1
  9
$XCLIPFRAME
280
1
  9
$HALOGAP
280
0
  9
$OBSCOLOR
 70
257
  9
$OBSLTYPE
280
0
  9
$INTERSECTIONDISPLAY
280
0
  9
$INTERSECTIONCOLOR
 70
257
  9
$DIMASSOC
280
2
  9
$PROJECTNAME
  1

  9
$CAMERADISPLAY
290
0
  9
$LENSLENGTH
 40
50.0
  9
$CAMERAHEIGHT
 40
0.0
  9
$STEPSPERSEC
 40
24.0
  9
$STEPSIZE
 40
100.0
  9
$3DDWFPREC
 40
2.0
  9
$PSOLWIDTH
 40
0.005
  9
$PSOLHEIGHT
 40
0.08
  9
$LOFTANG1
 40
1.570796326795
  9
$LOFTANG2
 40
1.570796326795
  9
$LOFTMAG1
 40
0.0
  9
$LOFTMAG2
 40
0.0
  9
$LOFTPARAM
 70
7
  9
$LOFTNORMALS
280
1
  9
$LATITUDE
 40
37.795
  9
$LONGITUDE
 40
-122.394
  9
$NORTHDIRECTION
 40
0.0
  9
$TIMEZONE
 70
-8000
  9
$LIGHTGLYPHDISPLAY
280
1
  9
$TILEMODELIGHTSYNCH
280
1
  9
$CMATERIAL
347
20
  9
$SOLIDHIST
280
0
  9
$SHOWHIST
280
1
  9
$DWFFRAME
280
2
  9
$DGNFRAME
280
2
  9
$REALWORLDSCALE
290
1
  9
$INTERFERECOLOR
 62
256
  9
$CSHADOW
280
0
  9
$SHADOWPLANELOCATION
 40
0.0
  0
ENDSEC
  0
SECTION
  2
CLASSES
  0
CLASS
  1
ACDBDICTIONARYWDFLT
  2
AcDbDictionaryWithDefault
  3
ObjectDBX Classes
 90
0
 91
0
280
0
281
0
  0
CLASS
  1
SUN
  2
AcDbSun
  3
SCENEOE
 90
1153
 91
0
280
0
281
0
  0
CLASS
  1
VISUALSTYLE
  2
AcDbVisualStyle
  3
ObjectDBX Classes
 90
4095
 91
0
280
0
281
0
  0
CLASS
  1
MATERIAL
  2
AcDbMaterial
  3
ObjectDBX Classes
 90
1153
 91
0
280
0
281
0
  0
CLASS
  1
SCALE
  2
AcDbScale
  3
ObjectDBX Classes
 90
1153
 91
0
280
0
281
0
  0
CLASS
  1
TABLESTYLE
  2
AcDbTableStyle
  3
ObjectDBX Classes
 90
4095
 91
0
280
0
281
0
  0
CLASS
  1
MLEADERSTYLE
  2
AcDbMLeaderStyle
  3
ACDB_MLEADERSTYLE_CLASS
 90
4095
 91
0
280
0
281
0
  0
CLASS
  1
DICTIONARYVAR
  2
AcDbDictionaryVar
  3
ObjectDBX Classes
 90
0
 91
0
280
0
281
0
  0
CLASS
  1
CELLSTYLEMAP
  2
AcDbCellStyleMap
  3
ObjectDBX Classes
 90
1152
 91
0
280
0
281
0
  0
CLASS
  1
MENTALRAYRENDERSETTINGS
  2
AcDbMentalRayRenderSettings
  3
SCENEOE
 90
1024
 91
0
280
0
281
0
  0
CLASS
  1
ACDBDETAILVIEWSTYLE
  2
AcDbDetailViewStyle
  3
ObjectDBX Classes
 90
1025
 91
0
280
0
281
0
  0
CLASS
  1
ACDBSECTIONVIEWSTYLE
  2
AcDbSectionViewStyle
  3
ObjectDBX Classes
 90
1025
 91
0
280
0
281
0
  0
CLASS
  1
RASTERVARIABLES
  2
AcDbRasterVariables
  3
ISM
 90
0
 91
0
280
0
281
0
  0
CLASS
  1
ACDBPLACEHOLDER
  2
AcDbPlaceHolder
  3
ObjectDBX Classes
 90
0
 91
0
280
0
281
0
  0
CLASS
  1
LAYOUT
  2
AcDbLayout
  3
ObjectDBX Classes
 90
0
 91
0
280
0
281
0
  0
ENDSEC
  0
SECTION
  2
TABLES
  0
TABLE
  2
VPORT
  5
8
330
0
100
AcDbSymbolTable
 70
1
  0
VPORT
  5
23
330
8
100
AcDbSymbolTableRecord
100
AcDbViewportTableRecord
  2
*Active
 70
0
 10
0.0
 20
0.0
 11
1.0
 21
1.0
 12
0.0
 22
0.0
 13
0.0
 23
0.0
 14
0.5
 24
0.5
 15
0.5
 25
0.5
 16
0.0
 26
0.0
 36
1.0
 17
0.0
 27
0.0
 37
0.0
 40
1000.0
 41
1.34
 42
50.0
 43
0.0
 44
0.0
 50
0.0
 51
0.0
 71
0
 72
1000
 73
1
 74
3
 75
0
 76
0
 77
0
 78
0
281
0
 65
0
146
0.0
  0
ENDTAB
  0
TABLE
  2
LTYPE
  5
2
330
0
100
AcDbSymbolTable
 70
3
  0
LTYPE
  5
24
330
2
100
AcDbSymbolTableRecord
100
AcDbLinetypeTableRecord
  2
ByBlock
 70
0
  3

 72
65
 73
0
 40
0.0
  0
LTYPE
  5
25
330
2
100
AcDbSymbolTableRecord
100
AcDbLinetypeTableRecord
  2
ByLayer
 70
0
  3

 72
65
 73
0
 40
0.0
  0
LTYPE
  5
26
330
2
100
AcDbSymbolTableRecord
100
AcDbLinetypeTableRecord
  2
Continuous
 70
0
  3

 72
65
 73
0
 40
0.0
  0
ENDTAB
  0
TABLE
  2
LAYER
  5
1
330
0
100
AcDbSymbolTable
 70
4
  0
LAYER
  5
27
330
1
100
AcDbSymbolTableRecord
100
AcDbLayerTableRecord
  2
0
 70
0
 62
7
  6
Continuous
370
-3
390
13
347
21
  0
LAYER
  5
28
330
1
100
AcDbSymbolTableRecord
100
AcDbLayerTableRecord
  2
Defpoints
 70
0
 62
7
  6
Continuous
290
0
370
-3
390
13
347
21
  0
LAYER
  5
2F
330
1
100
AcDbSymbolTableRecord
100
AcDbLayerTableRecord
  2
CUT
 70
0
 62
3
  6
Continuous
370
-3
390
13
347
21
  0
LAYER
  5
30
330
1
100
AcDbSymbolTableRecord
100
AcDbLayerTableRecord
  2
FOLD
 70
0
 62
1
  6
DASHED
370
-3
390
13
347
21
  0
ENDTAB
  0
TABLE
  2
STYLE
  5
5
330
0
100
AcDbSymbolTable
 70
1
  0
STYLE
  5
29
330
5
100
AcDbSymbolTableRecord
100
AcDbTextStyleTableRecord
  2
Standard
 70
0
 40
0.0
 41
1.0
 50
0.0
 71
0
 42
2.5
  3
txt
  4

  0
ENDTAB
  0
TABLE
  2
VIEW
  5
7
330
0
100
AcDbSymbolTable
 70
0
  0
ENDTAB
  0
TABLE
  2
UCS
  5
6
330
0
100
AcDbSymbolTable
 70
0
  0
ENDTAB
  0
TABLE
  2
APPID
  5
3
330
0
100
AcDbSymbolTable
 70
3
  0
APPID
  5
2A
330
3
100
AcDbSymbolTableRecord
100
AcDbRegAppTableRecord
  2
ACAD
 70
0
  0
APPID
  5
6E
330
3
100
AcDbSymbolTableRecord
100
AcDbRegAppTableRecord
  2
HATCHBACKGROUNDCOLOR
 70
0
  0
APPID
  5
6F
330
3
100
AcDbSymbolTableRecord
100
AcDbRegAppTableRecord
  2
EZDXF
 70
0
  0
ENDTAB
  0
TABLE
  2
DIMSTYLE
  5
4
330
0
100
AcDbSymbolTable
 70
1
100
AcDbDimStyleTable
  0
DIMSTYLE
105
2B
330
4
100
AcDbSymbolTableRecord
100
AcDbDimStyleTableRecord
  2
Standard
 70
0
 40
1.0
 41
2.5
 42
0.625
 43
3.75
 44
1.25
 45
0.0
 46
0.0
 47
0.0
 48
0.0
 49
2.5
140
2.5
141
2.5
142
0.0
143
0.03937007874
144
1.0
145
0.0
146
1.0
147
0.625
148
0.0
 69
0
 70
0
 71
0
 72
0
 73
0
 74
0
 75
0
 76
0
 77
1
 78
8
 79
3
170
0
171
3
172
1
173
0
174
0
175
0
176
0
177
0
178
0
179
2
271
2
272
2
273
2
274
3
275
0
276
0
277
2
278
44
279
0
280
0
281
0
282
0
283
0
284
8
285
0
286
0
288
0
289
3
290
0
371
-2
372
-2
  0
ENDTAB
  0
TABLE
  2
BLOCK_RECORD
  5
9
330
0
100
AcDbSymbolTable
 70
2
  0
BLOCK_RECORD
  5
17
330
9
100
AcDbSymbolTableRecord
100
AcDbBlockTableRecord
  2
*Model_Space
340
1A
 70
0
280
1
281
0
  0
BLOCK_RECORD
  5
1B
330
9
100
AcDbSymbolTableRecord
100
AcDbBlockTableRecord
  2
*Paper_Space
340
1E
 70
0
280
1
281
0
  0
ENDTAB
  0
ENDSEC
  0
SECTION
  2
BLOCKS
  0
BLOCK
  5
18
330
17
100
AcDbEntity
  8
0
100
AcDbBlockBegin
  2
*Model_Space
 70
0
 10
0.0
 20
0.0
 30
0.0
  3
*Model_Space
  1

  0
ENDBLK
  5
19
330
17
100
AcDbEntity
  8
0
100
AcDbBlockEnd
  0
BLOCK
  5
1C
330
1B
100
AcDbEntity
  8
0
100
AcDbBlockBegin
  2
*Paper_Space
 70
0
 10
0.0
 20
0.0
 30
0.0
  3
*Paper_Space
  1

  0
ENDBLK
  5
1D
330
1B
100
AcDbEntity
  8
0
100
AcDbBlockEnd
  0
ENDSEC
  0
SECTION
  2
ENTITIES
  0
LINE
  5
31
330
17
100
AcDbEntity
  8
CUT
100
AcDbLine
 10
5.891457069599735
 20
57.613211945454594
 30
0.0
 11
-13.793542930400275
 21
50.600430695454605
 31
0.0
  0
LWPOLYLINE
  5
32
330
17
100
AcDbEntity
  8
CUT
100
AcDbPolyline
 90
31
 70
0
 10
-13.793542930400271
 20
50.60043069545462
 10
-14.03665334331026
 20
50.508170875435724
 10
-14.275782745182699
 20
50.40603529683888
 10
-14.510530153284797
 20
50.294195225109064
 10
-14.740501932804278
 20
50.172838198613576
 10
-14.965312456913592
 20
50.042167714169395
 10
-15.184584753406012
 20
49.902402885810744
 10
-15.397951136819255
 20
49.75377807736903
 10
-15.60505382498669
 20
49.5965425094812
 10
-15.805545538982262
 20
49.43095984168563
 10
-15.999090085453123
 20
49.25730773030609
 10
-16.18536292036348
 20
49.07587736286546
 10
-16.364051693204352
 20
48.88697296980959
 10
-16.534856770756683
 20
48.69091131436028
 10
-16.69749173952956
 20
48.48802116135273
 10
-16.851683886030973
 20
48.278642725948146
 10
-16.99717465406584
 20
48.06312710314597
 10
-17.13372007829446
 20
47.841835679052295
 10
-17.26109119332433
 20
47.61513952489164
 10
-17.379074417649438
 20
47.38341877477842
 10
-17.487471911793154
 20
47.14706198829124
 10
-17.586101910054197
 20
46.906465498919076
 10
-17.674799025299365
 20
46.66203274947177
 10
-17.753414526292
 20
46.41417361556935
 10
-17.821816587091085
 20
46.163303718344466
 10
-17.87989050810279
 20
45.90984372751059
 10
-17.927538908413812
 20
45.65421865596442
 10
-17.964681889083995
 20
45.39685714710555
 10
-17.991257167124395
 20
45.13819075606825
 10
-18.00722017993614
 20
44.878653226070846
 10
-18.012544160034974
 20
44.618679761095876
  0
LINE
  5
33
330
17
100
AcDbEntity
  8
CUT
100
AcDbLine
 10
-18.01254416003498
 20
44.618679761095876
 30
0.0
 11
-18.012544160034988
 21
33.840197989964516
 31
0.0
  0
LWPOLYLINE
  5
34
330
17
100
AcDbEntity
  8
CUT
100
AcDbPolyline
 90
31
 70
0
 10
-9.889120736611543
 20
27.742865018799733
 10
-10.269048500028758
 20
27.64498452749659
 10
-10.654295744860308
 20
27.570753426584297
 10
-11.043391841797742
 20
27.520455083261627
 10
-11.434851469059694
 20
27.494281504658673
 10
-11.827180282407106
 20
27.49233260487558
 10
-12.218880619600466
 20
27.514615823573966
 10
-12.608457217523071
 20
27.561046097577012
 10
-12.994422920145968
 20
27.63144618558666
 10
-13.375304355545145
 20
27.725547344778317
 10
-13.749647560299824
 20
27.842990356690265
 10
-14.116023529801353
 20
27.983326898491626
 10
-14.473033673285258
 20
28.1460212543942
 10
-14.819315152762519
 20
28.330452360675082
 10
-15.153546085469465
 20
28.53591617650355
 10
-15.474450589976644
 20
28.761628371521798
 10
-15.780803656693784
 20
29.006727319920103
 10
-16.071435824178415
 20
29.27027738957696
 10
-16.345237643396924
 20
29.551272513708298
 10
-16.60116391289634
 20
29.848640031391493
 10
-16.838237668719675
 20
30.16124478230352
 10
-17.05555391383384
 20
30.48789344004212
 10
-17.252283072833546
 20
30.82733906748814
 10
-17.42767415873334
 20
31.178285876819473
 10
-17.58105763975894
 20
31.53939417600605
 10
-17.711847995194354
 20
31.909285482903126
 10
-17.8195459505281
 20
32.286547787420666
 10
-17.903740383366177
 20
32.669740941681056
 10
-17.964109892836287
 20
33.05740215758908
 10
-18.00042402649223
 20
33.448051590827845
 10
-18.01254416003498
 20
33.840197989964516
  0
LWPOLYLINE
  5
35
330
17
100
AcDbEntity
  8
CUT
100
AcDbPolyline
 90
31
 70
0
 10
-9.88912073661155
 20
27.742865018799744
 10
-9.364219574326125
 20
27.890177008552747
 10
-8.836632309652916
 20
28.027558705471307
 10
-8.306546789948818
 20
28.154961194825326
 10
-7.774151752073967
 20
28.27233911497991
 10
-7.239636755192094
 20
28.37965067354631
 10
-6.703192113277964
 20
28.47685766226214
 10
-6.165008827356134
 20
28.56392547059542
 10
-5.625278517495066
 20
28.640823098067635
 10
-5.084193354580836
 20
28.70752316529144
 10
-4.5419459918947345
 20
28.764001923719125
 10
-3.9987294965190467
 20
28.810239264098247
 10
-3.454737280595628
 20
28.84621872363154
 10
-2.91016303246149
 20
28.87192749183848
 10
-2.365200647686118
 20
28.887356415116475
 10
-1.8200441600349926
 20
28.892499999999984
 10
-1.2748876723838545
 20
28.887356415116475
 10
-0.7299252876084821
 20
28.87192749183848
 10
-0.1853510394743445
 20
28.84621872363154
 10
0.35864117644907445
 20
28.810239264098247
 10
0.9018576718247622
 20
28.764001923719125
 10
1.4441050345108764
 20
28.70752316529144
 10
1.9851901974250934
 20
28.640823098067635
 10
2.5249205072861614
 20
28.56392547059542
 10
3.0631037932079916
 20
28.47685766226214
 10
3.599548435122122
 20
28.37965067354631
 10
4.1340634320039955
 20
28.272339114979907
 10
4.666458469878834
 20
28.15496119482533
 10
5.196543989582944
 20
28.027558705471304
 10
5.724131254256152
 20
27.890177008552744
 10
6.249032416541578
 20
27.742865018799744
  0
LWPOLYLINE
  5
36
330
17
100
AcDbEntity
  8
CUT
100
AcDbPolyline
 90
31
 70
0
 10
14.372455839965014
 20
33.84019798996453
 10
14.360335706422262
 20
33.44805159082786
 10
14.32402157276632
 20
33.057402157589095
 10
14.263652063296208
 20
32.66974094168106
 10
14.179457630458131
 20
32.28654778742068
 10
14.071759675124387
 20
31.90928548290314
 10
13.94096931968897
 20
31.539394176006063
 10
13.78758583866337
 20
31.17828587681949
 10
13.61219475276358
 20
30.827339067488154
 10
13.415465593763873
 20
30.48789344004214
 10
13.198149348649709
 20
30.161244782303537
 10
12.961075592826374
 20
29.84864003139151
 10
12.70514932332696
 20
29.55127251370832
 10
12.431347504108452
 20
29.27027738957698
 10
12.140715336623819
 20
29.006727319920117
 10
11.834362269906679
 20
28.761628371521816
 10
11.513457765399503
 20
28.53591617650357
 10
11.179226832692555
 20
28.3304523606751
 10
10.832945353215294
 20
28.146021254394213
 10
10.47593520973139
 20
27.983326898491644
 10
10.10955924022986
 20
27.84299035669028
 10
9.735216035475183
 20
27.725547344778334
 10
9.354334600076006
 20
27.63144618558668
 10
8.96836889745311
 20
27.561046097577027
 10
8.578792299530503
 20
27.51461582357398
 10
8.187091962337144
 20
27.492332604875596
 10
7.794763148989734
 20
27.494281504658687
 10
7.403303521727783
 20
27.52045508326164
 10
7.014207424790347
 20
27.57075342658431
 10
6.628960179958797
 20
27.6449845274966
 10
6.249032416541584
 20
27.742865018799748
  0
LINE
  5
37
330
17
100
AcDbEntity
  8
CUT
100
AcDbLine
 10
14.372455839965014
 20
33.84019798996453
 30
0.0
 11
14.372455839965031
 21
51.631461011095865
 31
0.0
  0
LWPOLYLINE
  5
38
330
17
100
AcDbEntity
  8
CUT
100
AcDbPolyline
 90
31
 70
0
 10
14.372455839965031
 20
51.631461011095865
 10
14.359549687558973
 20
52.03611094225491
 10
14.320883692945499
 20
52.43911599981311
 10
14.256615030681905
 20
52.83883799646553
 10
14.167004948374526
 20
53.233652090319595
 10
14.052417704725524
 20
53.621953389763554
 10
13.913319088846816
 20
54.00216347723833
 10
13.750274526859977
 20
54.37273682539421
 10
13.563946783478702
 20
54.73216707955124
 10
13.355093267916708
 20
55.07899318092531
 10
13.124562955072383
 20
55.41180530572974
 10
12.873292934505347
 20
55.72925059601011
 10
12.602304601233083
 20
56.03003865891698
 10
12.312699503831803
 20
56.31294681206237
 10
12.005654866718714
 20
56.57682505363798
 10
11.682418804817296
 20
56.820600737091866
 10
11.344305250057637
 20
57.04328293136148
 10
10.99268861033526
 20
57.243966448939005
 10
10.628998182639382
 20
57.42183552539507
 10
10.254712343060858
 20
57.57616713540398
 10
9.871352537297021
 20
57.70633393179099
 10
9.480477096081584
 20
57.81180679565455
 10
9.083674900679467
 20
57.892156987197595
 10
8.68255892419584
 20
57.94705788852471
 10
8.278759674953537
 20
57.97628633132102
 10
7.873918568591041
 20
57.9797235040157
 10
7.469681255822979
 20
57.95735543474274
 10
7.06769093298535
 20
57.90927304813553
 10
6.669581662557626
 20
57.835671795724664
 10
6.276971730813315
 20
57.73685086144112
 10
5.891457069599734
 20
57.6132119454546
  0
LINE
  5
39
330
17
100
AcDbEntity
  8
CUT
100
AcDbLine
 10
-18.01254416003498
 20
-33.840197989964544
 30
0.0
 11
-18.012544160034974
 21
-44.61867976109589
 31
0.0
  0
LWPOLYLINE
  5
3A
330
17
100
AcDbEntity
  8
CUT
100
AcDbPolyline
 90
31
 70
0
 10
-18.012544160034967
 20
-44.61867976109589
 10
-18.007220179936134
 20
-44.87865322607085
 10
-17.991257167124388
 20
-45.13819075606827
 10
-17.964681889083987
 20
-45.39685714710556
 10
-17.92753890841381
 20
-45.654218655964435
 10
-17.879890508102783
 20
-45.9098437275106
 10
-17.821816587091078
 20
-46.16330371834448
 10
-17.753414526291994
 20
-46.41417361556936
 10
-17.674799025299357
 20
-46.662032749471784
 10
-17.586101910054186
 20
-46.90646549891909
 10
-17.487471911793147
 20
-47.147061988291256
 10
-17.37907441764943
 20
-47.38341877477843
 10
-17.261091193324322
 20
-47.61513952489165
 10
-17.133720078294452
 20
-47.84183567905231
 10
-16.997174654065837
 20
-48.06312710314599
 10
-16.851683886030962
 20
-48.27864272594816
 10
-16.697491739529553
 20
-48.48802116135274
 10
-16.534856770756676
 20
-48.69091131436029
 10
-16.364051693204345
 20
-48.886972969809605
 10
-16.18536292036347
 20
-49.07587736286548
 10
-15.999090085453116
 20
-49.2573077303061
 10
-15.805545538982255
 20
-49.43095984168564
 10
-15.605053824986683
 20
-49.59654250948122
 10
-15.397951136819247
 20
-49.75377807736904
 10
-15.184584753406005
 20
-49.90240288581075
 10
-14.965312456913585
 20
-50.0421677141694
 10
-14.740501932804268
 20
-50.17283819861359
 10
-14.510530153284789
 20
-50.29419522510908
 10
-14.27578274518269
 20
-50.40603529683889
 10
-14.036653343310247
 20
-50.50817087543574
 10
-13.79354293040026
 20
-50.60043069545463
  0
LINE
  5
3B
330
17
100
AcDbEntity
  8
CUT
100
AcDbLine
 10
-13.79354293040026
 20
-50.60043069545463
 30
0.0
 11
5.891457069599756
 21
-57.61321194545462
 31
0.0
  0
LWPOLYLINE
  5
3C
330
17
100
AcDbEntity
  8
CUT
100
AcDbPolyline
 90
31
 70
0
 10
14.372455839965045
 20
-51.63146101109588
 10
14.359549687558987
 20
-52.03611094225492
 10
14.320883692945513
 20
-52.439115999813126
 10
14.25661503068192
 20
-52.83883799646554
 10
14.16700494837454
 20
-53.23365209031961
 10
14.052417704725539
 20
-53.62195338976357
 10
13.91331908884683
 20
-54.00216347723834
 10
13.750274526859993
 20
-54.37273682539423
 10
13.563946783478716
 20
-54.73216707955125
 10
13.355093267916722
 20
-55.07899318092532
 10
13.124562955072399
 20
-55.41180530572976
 10
12.873292934505363
 20
-55.729250596010125
 10
12.602304601233097
 20
-56.030038658916986
 10
12.31269950383182
 20
-56.312946812062386
 10
12.005654866718732
 20
-56.576825053638
 10
11.682418804817313
 20
-56.82060073709187
 10
11.344305250057657
 20
-57.04328293136149
 10
10.992688610335279
 20
-57.24396644893902
 10
10.628998182639402
 20
-57.42183552539508
 10
10.254712343060877
 20
-57.57616713540399
 10
9.871352537297039
 20
-57.706333931791
 10
9.480477096081604
 20
-57.81180679565456
 10
9.083674900679487
 20
-57.89215698719761
 10
8.682558924195858
 20
-57.947057888524725
 10
8.278759674953555
 20
-57.976286331321035
 10
7.873918568591058
 20
-57.979723504015716
 10
7.469681255822997
 20
-57.95735543474275
 10
7.067690932985371
 20
-57.909273048135546
 10
6.669581662557647
 20
-57.83567179572468
 10
6.276971730813336
 20
-57.736850861441134
 10
5.891457069599754
 20
-57.613211945454616
  0
LINE
  5
3D
330
17
100
AcDbEntity
  8
CUT
100
AcDbLine
 10
14.372455839965047
 20
-51.63146101109588
 30
0.0
 11
14.372455839965022
 21
-33.84019798996454
 31
0.0
  0
LWPOLYLINE
  5
3E
330
17
100
AcDbEntity
  8
CUT
100
AcDbPolyline
 90
31
 70
0
 10
14.372455839965024
 20
-33.84019798996454
 10
14.360335706422273
 20
-33.448051590827866
 10
14.32402157276633
 20
-33.0574021575891
 10
14.263652063296217
 20
-32.66974094168107
 10
14.179457630458142
 20
-32.28654778742068
 10
14.071759675124397
 20
-31.909285482903147
 10
13.94096931968898
 20
-31.53939417600607
 10
13.787585838663379
 20
-31.178285876819494
 10
13.612194752763589
 20
-30.82733906748816
 10
13.41546559376388
 20
-30.487893440042143
 10
13.198149348649716
 20
-30.16124478230354
 10
12.961075592826383
 20
-29.848640031391515
 10
12.705149323326967
 20
-29.55127251370832
 10
12.431347504108457
 20
-29.270277389576982
 10
12.140715336623824
 20
-29.00672731992012
 10
11.834362269906684
 20
-28.761628371521816
 10
11.513457765399506
 20
-28.535916176503573
 10
11.179226832692557
 20
-28.330452360675103
 10
10.832945353215298
 20
-28.146021254394217
 10
10.475935209731393
 20
-27.983326898491647
 10
10.109559240229862
 20
-27.842990356690283
 10
9.735216035475183
 20
-27.725547344778338
 10
9.354334600076006
 20
-27.631446185586682
 10
8.968368897453113
 20
-27.561046097577034
 10
8.578792299530503
 20
-27.514615823573987
 10
8.187091962337142
 20
-27.492332604875603
 10
7.794763148989733
 20
-27.494281504658694
 10
7.403303521727783
 20
-27.52045508326165
 10
7.014207424790346
 20
-27.570753426584318
 10
6.628960179958794
 20
-27.64498452749661
 10
6.249032416541581
 20
-27.74286501879976
  0
LWPOLYLINE
  5
3F
330
17
100
AcDbEntity
  8
CUT
100
AcDbPolyline
 90
31
 70
0
 10
-9.889120736611563
 20
-27.742865018799755
 10
-9.364219574326139
 20
-27.890177008552758
 10
-8.836632309652934
 20
-28.027558705471314
 10
-8.306546789948825
 20
-28.154961194825344
 10
-7.774151752073974
 20
-28.272339114979918
 10
-7.239636755192102
 20
-28.37965067354632
 10
-6.703192113277974
 20
-28.476857662262155
 10
-6.165008827356146
 20
-28.563925470595436
 10
-5.6252785174950795
 20
-28.640823098067646
 10
-5.084193354580851
 20
-28.707523165291455
 10
-4.541945991894739
 20
-28.764001923719142
 10
-3.9987294965190516
 20
-28.81023926409826
 10
-3.4547372805956336
 20
-28.84621872363155
 10
-2.910163032461499
 20
-28.8719274918385
 10
-2.3652006476861267
 20
-28.88735641511649
 10
-1.82004416003499
 20
-28.892499999999995
 10
-1.274887672383854
 20
-28.88735641511649
 10
-0.7299252876084825
 20
-28.871927491838495
 10
-0.1853510394743454
 20
-28.84621872363155
 10
0.35864117644906823
 20
-28.810239264098264
 10
0.9018576718247573
 20
-28.76400192371914
 10
1.4441050345108684
 20
-28.707523165291455
 10
1.9851901974250978
 20
-28.640823098067646
 10
2.524920507286166
 20
-28.563925470595436
 10
3.0631037932079943
 20
-28.47685766226215
 10
3.5995484351221236
 20
-28.379650673546315
 10
4.134063432003994
 20
-28.27233911497992
 10
4.666458469878845
 20
-28.154961194825344
 10
5.196543989582953
 20
-28.027558705471314
 10
5.724131254256162
 20
-27.890177008552755
 10
6.249032416541581
 20
-27.742865018799755
  0
LWPOLYLINE
  5
40
330
17
100
AcDbEntity
  8
CUT
100
AcDbPolyline
 90
31
 70
0
 10
-9.889120736611563
 20
-27.742865018799755
 10
-10.269048500028775
 20
-27.64498452749661
 10
-10.654295744860324
 20
-27.57075342658432
 10
-11.043391841797758
 20
-27.520455083261652
 10
-11.43485146905971
 20
-27.4942815046587
 10
-11.827180282407118
 20
-27.49233260487561
 10
-12.21888061960048
 20
-27.514615823573997
 10
-12.608457217523085
 20
-27.561046097577044
 10
-12.994422920145979
 20
-27.631446185586697
 10
-13.375304355545156
 20
-27.72554734477835
 10
-13.749647560299831
 20
-27.842990356690297
 10
-14.11602352980136
 20
-27.98332689849166
 10
-14.473033673285263
 20
-28.146021254394235
 10
-14.819315152762522
 20
-28.330452360675118
 10
-15.153546085469468
 20
-28.535916176503587
 10
-15.474450589976648
 20
-28.761628371521834
 10
-15.780803656693784
 20
-29.006727319920138
 10
-16.071435824178415
 20
-29.270277389576997
 10
-16.34523764339692
 20
-29.551272513708334
 10
-16.60116391289634
 20
-29.848640031391533
 10
-16.83823766871967
 20
-30.16124478230355
 10
-17.055553913833837
 20
-30.487893440042157
 10
-17.252283072833542
 20
-30.827339067488175
 10
-17.427674158733332
 20
-31.178285876819505
 10
-17.58105763975893
 20
-31.539394176006084
 10
-17.711847995194347
 20
-31.909285482903158
 10
-17.81954595052809
 20
-32.286547787420695
 10
-17.90374038336617
 20
-32.669740941681084
 10
-17.96410989283628
 20
-33.05740215758911
 10
-18.000424026492222
 20
-33.44805159082787
 10
-18.012544160034974
 20
-33.840197989964544
  0
LWPOLYLINE
  5
41
330
17
100
AcDbEntity
  8
CUT
100
AcDbPolyline
 90
31
 70
0
 10
-1.820044160034993
 20
-16.19250000000001
 10
-5.186654213601561
 20
-15.838655024882158
 10
-8.406127253039887
 20
-14.792584822877824
 10
-11.337756857780866
 20
-13.100007681416344
 10
-13.853416746577699
 20
-10.83489734346582
 10
-15.843160510814515
 20
-8.096250000000008
 10
-17.220026800144268
 20
-5.003757681416342
 10
-17.923839950785755
 20
-1.692577141461483
 10
-17.92383995078576
 20
1.6925771414614728
 10
-17.220026800144264
 20
5.003757681416332
 10
-15.843160510814513
 20
8.096249999999994
 10
-13.853416746577697
 20
10.834897343465805
 10
-11.33775685778086
 20
13.10000768141633
 10
-8.406127253039879
 20
14.792584822877814
 10
-5.186654213601553
 20
15.838655024882144
 10
-1.820044160034987
 20
16.192499999999995
 10
1.5465658935315791
 20
15.838655024882144
 10
4.766038932969904
 20
14.79258482287781
 10
7.697668537710886
 20
13.10000768141633
 10
10.213328426507719
 20
10.834897343465805
 10
12.203072190744535
 20
8.096249999999998
 10
13.579938480074288
 20
5.003757681416328
 10
14.283751630715777
 20
1.6925771414614794
 10
14.283751630715777
 20
-1.6925771414614976
 10
13.579938480074286
 20
-5.003757681416345
 10
12.203072190744534
 20
-8.096250000000015
 10
10.213328426507712
 20
-10.83489734346583
 10
7.697668537710884
 20
-13.100007681416347
 10
4.766038932969902
 20
-14.792584822877828
 10
1.546565893531584
 20
-15.838655024882158
 10
-1.820044160034989
 20
-16.19250000000001
  0
LINE
  5
42
330
17
100
AcDbEntity
  8
CUT
100
AcDbLine
 10
-30.712544160034966
 20
-58.05487500000001
 30
0.0
 11
27.07245583996504
 21
-78.64078124999999
 31
0.0
  0
LINE
  5
43
330
17
100
AcDbEntity
  8
CUT
100
AcDbLine
 10
-37.45534447243337
 20
-58.05487071669241
 30
0.0
 11
-30.712544160034966
 21
-58.05487500000001
 31
0.0
  0
LINE
  5
44
330
17
100
AcDbEntity
  8
CUT
100
AcDbLine
 10
-37.45534447243337
 20
-57.149995716692395
 30
0.0
 11
-37.45534447243337
 21
-58.05487071669241
 31
0.0
  0
LINE
  5
45
330
17
100
AcDbEntity
  8
CUT
100
AcDbLine
 10
-37.45534447243337
 20
-57.1499957166924
 30
0.0
 11
-50.155344472433356
 21
-57.1499957166924
 31
0.0
  0
LWPOLYLINE
  5
46
330
17
100
AcDbEntity
  8
CUT
100
AcDbPolyline
 90
31
 70
0
 10
-53.915212893485986
 20
-42.22198102130901
 10
-54.51683160168703
 20
-42.58065311667885
 10
-55.084488840916435
 20
-42.99096519401139
 10
-55.61376445053969
 20
-43.44972228781204
 10
-56.100537135076394
 20
-43.95335220714112
 10
-56.54101655537564
 20
-44.49793335109244
 10
-56.93177284274316
 20
-45.079225245012566
 10
-57.26976330620321
 20
-45.69270155968538
 10
-57.55235612493476
 20
-46.33358535637231
 10
-57.77735084139648
 20
-46.996886283266576
 10
-57.94299549556752
 20
-47.67743943372512
 10
-58.04800026688525
 20
-48.36994556370159
 10
-58.09154751765472
 20
-49.069012355220764
 10
-58.07329815972501
 20
-49.76919640458896
 10
-57.99339429485747
 20
-50.46504560839228
 10
-57.85245810822585
 20
-51.15114161723669
 10
-57.651587023664625
 20
-51.8221420266566
 10
-57.39234515838964
 20
-52.47282197666522
 10
-57.076751143730704
 20
-53.0981148360247
 10
-56.70726240671187
 20
-53.69315165444077
 10
-56.28675603487364
 20
-54.253299075480925
 10
-55.81850637333647
 20
-54.77419541500042
 10
-55.30615952854983
 20
-55.25178462414533
 10
-54.75370497725783
 20
-55.6823478724739
 10
-54.16544450175307
 20
-56.062532505268805
 10
-53.54595869330958
 20
-56.3893781495592
 10
-52.900071284621816
 20
-56.660339765573525
 10
-52.23281158898116
 20
-56.873307464129006
 10
-51.54937533866376
 20
-57.02662293564635
 10
-50.85508422746842
 20
-57.119092362862204
 10
-50.155344472433356
 20
-57.14999571669241
  0
LWPOLYLINE
  5
47
330
17
100
AcDbEntity
  8
CUT
100
AcDbPolyline
 90
31
 70
0
 10
-53.915212893485986
 20
-42.22198102130901
 10
-53.69151103769312
 20
-42.09643263625505
 10
-53.472460994772256
 20
-41.96293358767717
 10
-53.258345219676336
 20
-41.82165601645688
 10
-53.04943980484694
 20
-41.672782093522784
 10
-52.84601412420577
 20
-41.51650378494955
 10
-52.648330485809424
 20
-41.3530226044265
 10
-52.45664379361515
 20
-41.18254935341495
 10
-52.271201218793976
 20
-41.005303849329444
 10
-52.09224188101484
 20
-40.82151464209332
 10
-51.91999654011077
 20
-40.631418719434066
 10
-51.75468729852472
 20
-40.43526120129858
 10
-51.59652731491863
 20
-40.233295023782254
 10
-51.445720529315224
 20
-40.025780612979545
 10
-51.302461400126646
 20
-39.81298554917645
 10
-51.16693465340934
 20
-39.59518422181812
 10
-51.03931504466829
 20
-39.372657475696194
 10
-50.919767133517816
 20
-39.14569224881245
 10
-50.80844507148954
 20
-38.914581202385406
 10
-50.70549240326106
 20
-38.679622343477156
 10
-50.611041881561725
 20
-38.44111864072696
 10
-50.52521529599406
 20
-38.199377633687135
 10
-50.448123315991694
 20
-37.95471103626496
 10
-50.379865348116226
 20
-37.7074343347819
 10
-50.32052940787702
 20
-37.45786638116854
 10
-50.27019200623925
 20
-37.20632898181968
 10
-50.228918050966556
 20
-36.95314648263979
 10
-50.196760762925464
 20
-36.69864535081387
 10
-50.17376160745949
 20
-36.443153753843085
 10
-50.15995024092153
 20
-36.18700113638781
 10
-50.155344472433356
 20
-35.930517795463956
  0
LINE
  5
48
330
17
100
AcDbEntity
  8
CUT
100
AcDbLine
 10
-50.15534447243335
 20
-35.93051779546396
 30
0.0
 11
-50.155344472433356
 21
35.93052636207913
 31
0.0
  0
LWPOLYLINE
  5
49
330
17
100
AcDbEntity
  8
CUT
100
AcDbPolyline
 90
31
 70
0
 10
-50.15534447243336
 20
35.93052636207913
 10
-50.15995024092154
 20
36.187009703002985
 10
-50.1737616074595
 20
36.443162320458256
 10
-50.19676076292547
 20
36.69865391742904
 10
-50.22891805096657
 20
36.95315504925495
 10
-50.270192006239256
 20
37.20633754843485
 10
-50.320529407877025
 20
37.457874947783715
 10
-50.37986534811624
 20
37.70744290139707
 10
-50.44812331599171
 20
37.95471960288013
 10
-50.52521529599407
 20
38.19938620030231
 10
-50.61104188156173
 20
38.44112720734213
 10
-50.70549240326107
 20
38.67963091009233
 10
-50.808445071489544
 20
38.91458976900058
 10
-50.91976713351782
 20
39.145700815427624
 10
-51.0393150446683
 20
39.372666042311366
 10
-51.16693465340935
 20
39.59519278843329
 10
-51.30246140012665
 20
39.81299411579163
 10
-51.44572052931523
 20
40.02578917959472
 10
-51.596527314918646
 20
40.233303590397426
 10
-51.75468729852473
 20
40.43526976791375
 10
-51.91999654011079
 20
40.63142728604923
 10
-52.09224188101485
 20
40.821523208708484
 10
-52.27120121879398
 20
41.005312415944616
 10
-52.45664379361516
 20
41.18255792003012
 10
-52.64833048580943
 20
41.35303117104167
 10
-52.84601412420579
 20
41.51651235156473
 10
-53.04943980484695
 20
41.672790660137956
 10
-53.25834521967635
 20
41.82166458307205
 10
-53.47246099477227
 20
41.96294215429234
 10
-53.69151103769313
 20
42.096441202870224
 10
-53.91521289348599
 20
42.221989587924185
  0
LWPOLYLINE
  5
4A
330
17
100
AcDbEntity
  8
CUT
100
AcDbPolyline
 90
31
 70
0
 10
-50.155344472433356
 20
57.150004283307574
 10
-50.85508422746842
 20
57.11910092947737
 10
-51.54937533866376
 20
57.026631502261516
 10
-52.23281158898116
 20
56.87331603074417
 10
-52.900071284621816
 20
56.66034833218868
 10
-53.54595869330958
 20
56.389386716174364
 10
-54.16544450175307
 20
56.06254107188397
 10
-54.75370497725783
 20
55.68235643908906
 10
-55.30615952854983
 20
55.251793190760495
 10
-55.81850637333647
 20
54.774203981615585
 10
-56.28675603487364
 20
54.25330764209609
 10
-56.70726240671186
 20
53.69316022105593
 10
-57.0767511437307
 20
53.098123402639864
 10
-57.39234515838963
 20
52.472830543280395
 10
-57.651587023664625
 20
51.822150593271765
 10
-57.85245810822585
 20
51.15115018385186
 10
-57.99339429485747
 20
50.46505417500745
 10
-58.07329815972501
 20
49.76920497120413
 10
-58.09154751765472
 20
49.069020921835936
 10
-58.04800026688525
 20
48.36995413031677
 10
-57.94299549556752
 20
47.67744800034029
 10
-57.77735084139648
 20
46.996894849881755
 10
-57.55235612493477
 20
46.33359392298748
 10
-57.26976330620322
 20
45.69271012630056
 10
-56.93177284274316
 20
45.07923381162774
 10
-56.54101655537565
 20
44.497941917707614
 10
-56.1005371350764
 20
43.953360773756295
 10
-55.6137644505397
 20
43.44973085442721
 10
-55.08448884091644
 20
42.99097376062656
 10
-54.516831601687045
 20
42.580661683294025
 10
-53.915212893486
 20
42.221989587924185
  0
LINE
  5
4B
330
17
100
AcDbEntity
  8
CUT
100
AcDbLine
 10
-50.15534447243337
 20
57.150004283307574
 30
0.0
 11
-37.45534447243337
 21
57.15000428330759
 31
0.0
  0
LINE
  5
4C
330
17
100
AcDbEntity
  8
CUT
100
AcDbLine
 10
-37.45534447243337
 20
58.05487928330759
 30
0.0
 11
-37.45534447243337
 21
57.15000428330759
 31
0.0
  0
LINE
  5
4D
330
17
100
AcDbEntity
  8
CUT
100
AcDbLine
 10
-30.712544160034962
 20
58.054874999999996
 30
0.0
 11
-37.45534447243337
 21
58.05487928330759
 31
0.0
  0
LINE
  5
4E
330
17
100
AcDbEntity
  8
CUT
100
AcDbLine
 10
27.072455839965002
 20
78.64078125
 30
0.0
 11
-30.712544160034977
 21
58.054875
 31
0.0
  0
LINE
  5
4F
330
17
100
AcDbEntity
  8
CUT
100
AcDbLine
 10
37.805078822423475
 20
78.6407786143073
 30
0.0
 11
27.072455839965016
 21
78.64078124999996
 31
0.0
  0
LINE
  5
50
330
17
100
AcDbEntity
  8
CUT
100
AcDbLine
 10
37.80507882242347
 20
79.77187236430733
 30
0.0
 11
37.80507882242347
 21
78.6407786143073
 31
0.0
  0
LINE
  5
51
330
17
100
AcDbEntity
  8
CUT
100
AcDbLine
 10
39.92563979215618
 20
79.7718723643073
 30
0.0
 11
37.805078822423475
 21
79.7718723643073
 31
0.0
  0
LWPOLYLINE
  5
52
330
17
100
AcDbEntity
  8
CUT
100
AcDbPolyline
 90
31
 70
0
 10
41.04817180728983
 20
80.23684034917368
 10
41.01840268107002
 20
80.20784055032532
 10
40.98788462975087
 20
80.17962995386196
 10
40.95663856888036
 20
80.15222789391727
 10
40.92468591294781
 20
80.12565315049439
 10
40.89204856070753
 20
80.09992393659499
 10
40.85874888017049
 20
80.0750578857371
 10
40.82480969327436
 20
80.05107203986987
 10
40.79025426024254
 20
80.02798283769395
 10
40.75510626364276
 20
80.0058061033952
 10
40.719389792156186
 20
79.98455703579953
 10
40.68312932406832
 20
79.96425019795645
 10
40.646349710492714
 20
79.94489950715828
 10
40.609076158339356
 20
79.92651822540192
 10
40.571334213039016
 20
79.90911895029969
 10
40.533149741035764
 20
79.89271360644565
 10
40.49454891205935
 20
79.87731343724302
 10
40.455558181189794
 20
79.86292899719848
 10
40.41620427072642
 20
79.84957014468877
 10
40.376514151873664
 20
79.83724603520406
 10
40.336515026256436
 20
79.82596511507343
 10
40.29623430727744
 20
79.815735115676
 10
40.255699601329376
 20
79.80656304814241
 10
40.214938688874966
 20
79.79845519854955
 10
40.17397950540755
 20
79.79141712361253
 10
40.13285012230551
 20
79.78545364687639
 10
40.091578727593586
 20
79.78056885541018
 10
40.050193606624134
 20
79.77676609700598
 10
40.008723122691855
 20
79.77404797788444
 10
39.96719569759493
 20
79.77241636090862
 10
39.92563979215618
 20
79.77187236430731
  0
LINE
  5
53
330
17
100
AcDbEntity
  8
CUT
100
AcDbLine
 10
44.086985837557116
 20
83.275654379441
 30
0.0
 11
41.04817180728983
 21
80.23684034917368
 31
0.0
  0
LWPOLYLINE
  5
54
330
17
100
AcDbEntity
  8
CUT
100
AcDbPolyline
 90
31
 70
0
 10
45.209517852690766
 20
83.74062236430736
 10
45.16796194725202
 20
83.74007836770605
 10
45.126434522155094
 20
83.73844675073023
 10
45.084964038222815
 20
83.7357286316087
 10
45.04357891725336
 20
83.73192587320449
 10
45.00230752254143
 20
83.72704108173828
 10
44.9611781394394
 20
83.72107760500214
 10
44.920218955971976
 20
83.71403953006512
 10
44.87945804351757
 20
83.70593168047226
 10
44.83892333756951
 20
83.69675961293866
 10
44.79864261859051
 20
83.68652961354125
 10
44.758643492973285
 20
83.67524869341061
 10
44.71895337412053
 20
83.66292458392591
 10
44.67959946365715
 20
83.64956573141619
 10
44.6406087327876
 20
83.63518129137167
 10
44.60200790381118
 20
83.61978112216902
 10
44.563823431807926
 20
83.60337577831498
 10
44.52608148650759
 20
83.58597650321275
 10
44.48880793435423
 20
83.56759522145639
 10
44.45202832077863
 20
83.54824453065822
 10
44.415767852690756
 20
83.52793769281514
 10
44.38005138120419
 20
83.50668862521947
 10
44.3449033846044
 20
83.48451189092071
 10
44.31034795157259
 20
83.4614226887448
 10
44.276408764676454
 20
83.43743684287757
 10
44.24310908413941
 20
83.41257079201968
 10
44.21047173189914
 20
83.38684157812028
 10
44.17851907596659
 20
83.3602668346974
 10
44.14727301509607
 20
83.33286477475271
 10
44.11675496377692
 20
83.30465417828935
 10
44.08698583755711
 20
83.275654379441
  0
LINE
  5
55
330
17
100
AcDbEntity
  8
CUT
100
AcDbLine
 10
50.90195382242347
 20
83.74062236430733
 30
0.0
 11
45.209517852690766
 21
83.74062236430736
 31
0.0
  0
LWPOLYLINE
  5
56
330
17
100
AcDbEntity
  8
CUT
100
AcDbPolyline
 90
31
 70
0
 10
54.26371852830583
 20
72.00350457626114
 10
54.71463951724152
 20
72.31263774513707
 10
55.137298734892035
 20
72.65941179274886
 10
55.52856319335935
 20
73.0412562347698
 10
55.88553262036238
 20
73.45534062538015
 10
56.2055609576867
 20
73.89859553812386
 10
56.48627597525666
 20
74.36773531822432
 10
56.72559685543927
 20
74.85928243770589
 10
56.921749617235065
 20
75.3695932727877
 10
57.07328026602332
 20
75.89488511247286
 10
57.1790655713881
 20
76.43126419813046
 10
57.23832139313407
 20
76.97475458622506
 10
57.250608493774706
 20
77.52132762024692
 10
57.21583579440765
 20
78.06693179338046
 10
57.13426104984281
 20
78.60752278055209
 10
57.00648893797869
 20
79.13909341724282
 10
56.833466577589576
 20
79.65770340284605
 10
56.61647650774846
 20
80.15950850839238
 10
56.3571271809258
 20
80.64078907213732
 10
56.05734104023504
 20
81.0979775717868
 10
55.71934026920264
 20
81.52768506897938
 10
55.345630319693704
 20
81.9267263300039
 10
54.938981340093235
 20
82.2921434365437
 10
54.5024076414079
 20
82.62122771143117
 10
54.039145353497055
 20
82.91153979688683
 10
53.552628437057685
 20
83.16092773641147
 10
53.04646322917588
 20
83.3675429262983
 10
52.52440171112748
 20
83.52985381852372
 10
51.99031369658214
 20
83.64665727344277
 10
51.448158146367334
 20
83.71708747813709
 10
50.90195382242347
 20
83.74062236430733
  0
LWPOLYLINE
  5
57
330
17
100
AcDbEntity
  8
CUT
100
AcDbPolyline
 90
31
 70
0
 10
50.90195382242348
 20
65.94299706470917
 10
50.906025153703176
 20
66.18414550430664
 10
50.9182345069156
 20
66.42501907561079
 10
50.93856796547026
 20
66.66534322363152
 10
50.967002352675415
 20
66.90484401962802
 10
51.00350525815555
 20
67.143248473341
 10
51.048035074793695
 20
67.3802848441554
 10
51.10054104615652
 20
67.61568295083836
 10
51.160963324347996
 20
67.84917447950019
 10
51.22923303822589
 20
68.08049328942647
 10
51.30527237190315
 20
68.30937571643345
 10
51.38899465344481
 20
68.53556087340036
 10
51.4803044536593
 20
68.7587909476365
 10
51.579097694871514
 20
68.97881149474395
 10
51.68526176955371
 20
69.19537172864104
 10
51.798675668678975
 20
69.40822480741578
 10
51.91921011965095
 20
69.61712811468392
 10
52.046727733652695
 20
69.82184353613033
 10
52.1810831622466
 20
70.02213773091897
 10
52.32212326304694
 20
70.21778239766181
 10
52.46968727427619
 20
70.40855453464364
 10
52.623606998006174
 20
70.59423669400627
 10
52.78370699187518
 20
70.77461722960207
 10
52.94980476906244
 20
70.94949053823474
 10
53.12171100629215
 20
71.11865729401201
 10
53.299229759629874
 20
71.28192467554335
 10
53.482158687825375
 20
71.43910658572365
 10
53.6702892829473
 20
71.59002386385228
 10
53.863407108046815
 20
71.73450448984593
 10
54.06129204157936
 20
71.87238378031228
 10
54.26371852830582
 20
72.00350457626114
  0
LINE
  5
58
330
17
100
AcDbEntity
  8
CUT
100
AcDbLine
 10
50.90195382242351
 20
-65.94300233609451
 30
0.0
 11
50.90195382242348
 21
65.94299706470917
 31
0.0
  0
LWPOLYLINE
  5
59
330
17
100
AcDbEntity
  8
CUT
100
AcDbPolyline
 90
31
 70
0
 10
54.263718528305866
 20
-72.00350984764648
 10
54.0612920415794
 20
-71.87238905169762
 10
53.86340710804686
 20
-71.73450976123127
 10
53.670289282947344
 20
-71.59002913523763
 10
53.48215868782542
 20
-71.439111857109
 10
53.29922975962992
 20
-71.2819299469287
 10
53.12171100629219
 20
-71.11866256539734
 10
52.949804769062474
 20
-70.94949580962007
 10
52.78370699187522
 20
-70.77462250098742
 10
52.62360699800622
 20
-70.59424196539162
 10
52.469687274276225
 20
-70.40855980602899
 10
52.322123263046976
 20
-70.21778766904715
 10
52.181083162246644
 20
-70.02214300230432
 10
52.04672773365273
 20
-69.82184880751568
 10
51.919210119650984
 20
-69.61713338606926
 10
51.798675668679
 20
-69.40823007880111
 10
51.68526176955375
 20
-69.19537700002637
 10
51.57909769487155
 20
-68.9788167661293
 10
51.48030445365933
 20
-68.75879621902183
 10
51.38899465344484
 20
-68.53556614478569
 10
51.30527237190318
 20
-68.30938098781878
 10
51.22923303822592
 20
-68.08049856081182
 10
51.16096332434803
 20
-67.84917975088553
 10
51.10054104615655
 20
-67.61568822222371
 10
51.04803507479373
 20
-67.38029011554073
 10
51.00350525815558
 20
-67.14325374472635
 10
50.96700235267545
 20
-66.90484929101335
 10
50.93856796547029
 20
-66.66534849501686
 10
50.91823450691563
 20
-66.42502434699614
 10
50.906025153703204
 20
-66.18415077569198
 10
50.90195382242351
 20
-65.94300233609451
  0
LWPOLYLINE
  5
5A
330
17
100
AcDbEntity
  8
CUT
100
AcDbPolyline
 90
31
 70
0
 10
50.90195382242347
 20
-83.74062763569266
 10
51.448158146367334
 20
-83.71709274952242
 10
51.99031369658214
 20
-83.64666254482812
 10
52.52440171112749
 20
-83.52985908990907
 10
53.046463229175885
 20
-83.36754819768365
 10
53.55262843705769
 20
-83.1609330077968
 10
54.03914535349706
 20
-82.91154506827218
 10
54.50240764140791
 20
-82.62123298281651
 10
54.93898134009325
 20
-82.29214870792904
 10
55.34563031969372
 20
-81.92673160138925
 10
55.719340269202654
 20
-81.52769034036473
 10
56.05734104023505
 20
-81.09798284317215
 10
56.35712718092582
 20
-80.64079434352267
 10
56.61647650774847
 20
-80.15951377977773
 10
56.833466577589604
 20
-79.65770867423142
 10
57.00648893797871
 20
-79.13909868862817
 10
57.13426104984284
 20
-78.60752805193744
 10
57.215835794407674
 20
-78.06693706476581
 10
57.250608493774735
 20
-77.52133289163227
 10
57.2383213931341
 20
-76.97475985761041
 10
57.179065571388136
 20
-76.43126946951581
 10
57.073280266023346
 20
-75.89489038385821
 10
56.9217496172351
 20
-75.36959854417304
 10
56.725596855439306
 20
-74.85928770909123
 10
56.486275975256696
 20
-74.36774058960965
 10
56.20556095768673
 20
-73.8986008095092
 10
55.88553262036241
 20
-73.45534589676548
 10
55.52856319335938
 20
-73.04126150615514
 10
55.13729873489207
 20
-72.6594170641342
 10
54.71463951724155
 20
-72.3126430165224
 10
54.263718528305866
 20
-72.00350984764648
  0
LINE
  5
5B
330
17
100
AcDbEntity
  8
CUT
100
AcDbLine
 10
45.209517852690766
 20
-83.74062763569266
 30
0.0
 11
50.90195382242348
 21
-83.74062763569266
 31
0.0
  0
LWPOLYLINE
  5
5C
330
17
100
AcDbEntity
  8
CUT
100
AcDbPolyline
 90
31
 70
0
 10
44.086985837557116
 20
-83.2756596508263
 10
44.11675496377693
 20
-83.30465944967466
 10
44.147273015096076
 20
-83.33287004613801
 10
44.1785190759666
 20
-83.3602721060827
 10
44.21047173189915
 20
-83.38684684950559
 10
44.24310908413942
 20
-83.41257606340498
 10
44.27640876467646
 20
-83.43744211426288
 10
44.31034795157259
 20
-83.46142796013011
 10
44.34490338460441
 20
-83.48451716230602
 10
44.3800513812042
 20
-83.50669389660477
 10
44.41576785269076
 20
-83.52794296420045
 10
44.45202832077864
 20
-83.54824980204353
 10
44.488807934354234
 20
-83.56760049284169
 10
44.52608148650759
 20
-83.58598177459805
 10
44.56382343180793
 20
-83.60338104970029
 10
44.602007903811185
 20
-83.61978639355432
 10
44.6406087327876
 20
-83.63518656275696
 10
44.679599463657155
 20
-83.6495710028015
 10
44.71895337412054
 20
-83.6629298553112
 10
44.758643492973285
 20
-83.67525396479591
 10
44.79864261859051
 20
-83.68653488492654
 10
44.83892333756951
 20
-83.69676488432397
 10
44.87945804351757
 20
-83.70593695185757
 10
44.92021895597198
 20
-83.71404480145043
 10
44.9611781394394
 20
-83.72108287638744
 10
45.002307522541436
 20
-83.72704635312358
 10
45.04357891725336
 20
-83.7319311445898
 10
45.084964038222815
 20
-83.735733902994
 10
45.126434522155094
 20
-83.73845202211554
 10
45.16796194725202
 20
-83.74008363909135
 10
45.209517852690766
 20
-83.74062763569266
  0
LINE
  5
5D
330
17
100
AcDbEntity
  8
CUT
100
AcDbLine
 10
41.048171807289854
 20
-80.236845620559
 30
0.0
 11
44.08698583755712
 21
-83.2756596508263
 31
0.0
  0
LWPOLYLINE
  5
5E
330
17
100
AcDbEntity
  8
CUT
100
AcDbPolyline
 90
31
 70
0
 10
39.925639792156204
 20
-79.77187763569263
 10
39.96719569759495
 20
-79.77242163229394
 10
40.008723122691876
 20
-79.77405324926976
 10
40.050193606624156
 20
-79.7767713683913
 10
40.09157872759361
 20
-79.7805741267955
 10
40.132850122305534
 20
-79.78545891826171
 10
40.17397950540757
 20
-79.79142239499785
 10
40.21493868887499
 20
-79.79846046993487
 10
40.2556996013294
 20
-79.80656831952773
 10
40.29623430727746
 20
-79.81574038706133
 10
40.33651502625646
 20
-79.82597038645875
 10
40.376514151873685
 20
-79.83725130658938
 10
40.41620427072643
 20
-79.84957541607409
 10
40.455558181189815
 20
-79.8629342685838
 10
40.49454891205937
 20
-79.87731870862834
 10
40.533149741035785
 20
-79.89271887783097
 10
40.57133421303904
 20
-79.909124221685
 10
40.60907615833938
 20
-79.92652349678724
 10
40.646349710492736
 20
-79.9449047785436
 10
40.68312932406833
 20
-79.96425546934177
 10
40.71938979215621
 20
-79.98456230718485
 10
40.75510626364277
 20
-80.00581137478052
 10
40.79025426024256
 20
-80.02798810907927
 10
40.82480969327438
 20
-80.05107731125518
 10
40.85874888017051
 20
-80.07506315712241
 10
40.89204856070755
 20
-80.09992920798031
 10
40.92468591294782
 20
-80.1256584218797
 10
40.95663856888037
 20
-80.15223316530259
 10
40.987884629750894
 20
-80.17963522524728
 10
41.01840268107004
 20
-80.20784582171063
 10
41.048171807289854
 20
-80.236845620559
  0
LINE
  5
5F
330
17
100
AcDbEntity
  8
CUT
100
AcDbLine
 10
37.80507882242348
 20
-79.77187763569263
 30
0.0
 11
39.925639792156204
 21
-79.77187763569263
 31
0.0
  0
LINE
  5
60
330
17
100
AcDbEntity
  8
CUT
100
AcDbLine
 10
37.805078822423475
 20
-78.64078388569261
 30
0.0
 11
37.805078822423475
 21
-79.77187763569263
 31
0.0
  0
LINE
  5
61
330
17
100
AcDbEntity
  8
CUT
100
AcDbLine
 10
27.07245583996503
 20
-78.64078124999996
 30
0.0
 11
37.80507882242349
 21
-78.64078388569263
 31
0.0
  0
LWPOLYLINE
  5
62
330
17
100
AcDbEntity
  8
CUT
100
AcDbPolyline
 90
31
 70
0
 10
-47.15534447243335
 20
49.212504283307574
 10
-47.22090167023193
 20
48.588769210854295
 10
-47.414708099505546
 20
47.99229435408017
 10
-47.728293489308506
 20
47.44914852643015
 10
-48.147952653356775
 20
46.983069806875385
 10
-48.65534447243335
 20
46.61442807195425
 10
-49.22829348930851
 20
46.359334734422106
 10
-49.8417590826304
 20
46.22893859720274
 10
-50.468929862236315
 20
46.22893859720274
 10
-51.0823954555582
 20
46.359334734422106
 10
-51.65534447243336
 20
46.61442807195425
 10
-52.16273629150994
 20
46.983069806875385
 10
-52.582395455558206
 20
47.44914852643015
 10
-52.895980845361166
 20
47.99229435408017
 10
-53.08978727463478
 20
48.588769210854295
 10
-53.15534447243336
 20
49.212504283307574
 10
-53.08978727463478
 20
49.83623935576085
 10
-52.895980845361166
 20
50.432714212534975
 10
-52.582395455558206
 20
50.975860040185
 10
-52.16273629150994
 20
51.44193875973976
 10
-51.65534447243336
 20
51.8105804946609
 10
-51.0823954555582
 20
52.06567383219304
 10
-50.46892986223632
 20
52.196069969412406
 10
-49.8417590826304
 20
52.196069969412406
 10
-49.22829348930851
 20
52.06567383219304
 10
-48.65534447243335
 20
51.8105804946609
 10
-48.147952653356775
 20
51.44193875973976
 10
-47.728293489308506
 20
50.975860040185
 10
-47.414708099505546
 20
50.432714212534975
 10
-47.22090167023193
 20
49.83623935576085
 10
-47.15534447243335
 20
49.212504283307574
  0
LWPOLYLINE
  5
63
330
17
100
AcDbEntity
  8
CUT
100
AcDbPolyline
 90
31
 70
0
 10
-47.15534447243335
 20
-49.21249571669241
 10
-47.22090167023193
 20
-49.83623078914569
 10
-47.414708099505546
 20
-50.43270564591981
 10
-47.728293489308506
 20
-50.97585147356983
 10
-48.147952653356775
 20
-51.4419301931246
 10
-48.65534447243335
 20
-51.81057192804573
 10
-49.22829348930851
 20
-52.06566526557788
 10
-49.8417590826304
 20
-52.19606140279724
 10
-50.468929862236315
 20
-52.19606140279724
 10
-51.0823954555582
 20
-52.06566526557788
 10
-51.65534447243336
 20
-51.81057192804573
 10
-52.16273629150994
 20
-51.4419301931246
 10
-52.582395455558206
 20
-50.97585147356983
 10
-52.895980845361166
 20
-50.43270564591981
 10
-53.08978727463478
 20
-49.83623078914569
 10
-53.15534447243336
 20
-49.21249571669241
 10
-53.08978727463478
 20
-48.58876064423913
 10
-52.895980845361166
 20
-47.99228578746501
 10
-52.582395455558206
 20
-47.449139959814985
 10
-52.16273629150994
 20
-46.98306124026022
 10
-51.65534447243336
 20
-46.614419505339086
 10
-51.0823954555582
 20
-46.35932616780694
 10
-50.46892986223632
 20
-46.22893003058758
 10
-49.8417590826304
 20
-46.22893003058758
 10
-49.22829348930851
 20
-46.35932616780694
 10
-48.65534447243335
 20
-46.614419505339086
 10
-48.147952653356775
 20
-46.98306124026022
 10
-47.728293489308506
 20
-47.449139959814985
 10
-47.414708099505546
 20
-47.99228578746501
 10
-47.22090167023193
 20
-48.58876064423913
 10
-47.15534447243335
 20
-49.21249571669241
  0
LWPOLYLINE
  5
64
330
17
100
AcDbEntity
  8
CUT
100
AcDbPolyline
 90
31
 70
0
 10
47.90195382242348
 20
-78.18437763569266
 10
47.91838813631866
 20
-78.49796302549562
 10
47.96751102022206
 20
-78.80811270814593
 10
48.04878427353802
 20
-79.1114286188175
 10
48.16131744949568
 20
-79.40458756492005
 10
48.30387761107016
 20
-79.68437763569266
 10
48.474902839298636
 20
-79.94773339257007
 10
48.6725193459913
 20
-80.19176945476923
 10
48.894562003346905
 20
-80.41381211212483
 10
49.13859806554606
 20
-80.6114286188175
 10
49.40195382242348
 20
-80.78245384704597
 10
49.68174389319608
 20
-80.92501400862045
 10
49.974902839298636
 20
-81.03754718457812
 10
50.2782187499702
 20
-81.11882043789407
 10
50.58836843262052
 20
-81.16794332179748
 10
50.90195382242348
 20
-81.18437763569266
 10
51.21553921222644
 20
-81.16794332179748
 10
51.52568889487676
 20
-81.11882043789407
 10
51.82900480554832
 20
-81.03754718457812
 10
52.12216375165088
 20
-80.92501400862045
 10
52.40195382242348
 20
-80.78245384704597
 10
52.665309579300896
 20
-80.6114286188175
 10
52.90934564150005
 20
-80.41381211212484
 10
53.13138829885566
 20
-80.19176945476923
 10
53.32900480554832
 20
-79.94773339257007
 10
53.500030033776795
 20
-79.68437763569266
 10
53.64259019535128
 20
-79.40458756492005
 10
53.75512337130894
 20
-79.1114286188175
 10
53.836396624624896
 20
-78.80811270814593
 10
53.8855195085283
 20
-78.49796302549562
 10
53.90195382242348
 20
-78.18437763569266
  0
LINE
  5
65
330
17
100
AcDbEntity
  8
CUT
100
AcDbLine
 10
53.90195382242348
 20
-78.18437763569266
 30
0.0
 11
53.90195382242348
 21
-76.59687763569268
 31
0.0
  0
LWPOLYLINE
  5
66
330
17
100
AcDbEntity
  8
CUT
100
AcDbPolyline
 90
31
 70
0
 10
53.90195382242348
 20
-76.59687763569268
 10
53.8855195085283
 20
-76.28329224588971
 10
53.836396624624896
 20
-75.9731425632394
 10
53.75512337130894
 20
-75.66982665256783
 10
53.64259019535128
 20
-75.37666770646528
 10
53.500030033776795
 20
-75.09687763569268
 10
53.32900480554832
 20
-74.83352187881526
 10
53.13138829885566
 20
-74.5894858166161
 10
52.90934564150005
 20
-74.3674431592605
 10
52.665309579300896
 20
-74.16982665256783
 10
52.40195382242348
 20
-73.99880142433936
 10
52.12216375165088
 20
-73.85624126276488
 10
51.82900480554832
 20
-73.74370808680722
 10
51.52568889487676
 20
-73.66243483349126
 10
51.21553921222644
 20
-73.61331194958785
 10
50.90195382242348
 20
-73.59687763569268
 10
50.58836843262052
 20
-73.61331194958785
 10
50.2782187499702
 20
-73.66243483349126
 10
49.974902839298636
 20
-73.74370808680722
 10
49.68174389319608
 20
-73.85624126276488
 10
49.40195382242348
 20
-73.99880142433936
 10
49.13859806554606
 20
-74.16982665256783
 10
48.894562003346905
 20
-74.36744315926049
 10
48.6725193459913
 20
-74.5894858166161
 10
48.474902839298636
 20
-74.83352187881526
 10
48.30387761107016
 20
-75.09687763569268
 10
48.16131744949568
 20
-75.37666770646528
 10
48.04878427353802
 20
-75.66982665256783
 10
47.96751102022206
 20
-75.9731425632394
 10
47.91838813631866
 20
-76.28329224588971
 10
47.90195382242348
 20
-76.59687763569268
  0
LINE
  5
67
330
17
100
AcDbEntity
  8
CUT
100
AcDbLine
 10
47.90195382242348
 20
-76.59687763569268
 30
0.0
 11
47.90195382242348
 21
-78.18437763569266
 31
0.0
  0
LINE
  5
68
330
17
100
AcDbEntity
  8
CUT
100
AcDbLine
 10
47.90195382242348
 20
78.18437236430732
 30
0.0
 11
47.90195382242348
 21
76.59687236430734
 31
0.0
  0
LWPOLYLINE
  5
69
330
17
100
AcDbEntity
  8
CUT
100
AcDbPolyline
 90
31
 70
0
 10
47.90195382242348
 20
76.59687236430734
 10
47.91838813631866
 20
76.28328697450438
 10
47.96751102022206
 20
75.97313729185407
 10
48.04878427353802
 20
75.6698213811825
 10
48.16131744949568
 20
75.37666243507995
 10
48.30387761107016
 20
75.09687236430734
 10
48.474902839298636
 20
74.83351660742993
 10
48.6725193459913
 20
74.58948054523077
 10
48.894562003346905
 20
74.36743788787517
 10
49.13859806554606
 20
74.1698213811825
 10
49.40195382242348
 20
73.99879615295403
 10
49.68174389319608
 20
73.85623599137955
 10
49.974902839298636
 20
73.74370281542188
 10
50.2782187499702
 20
73.66242956210593
 10
50.58836843262052
 20
73.61330667820252
 10
50.90195382242348
 20
73.59687236430734
 10
51.21553921222644
 20
73.61330667820252
 10
51.52568889487676
 20
73.66242956210593
 10
51.82900480554832
 20
73.74370281542188
 10
52.12216375165088
 20
73.85623599137955
 10
52.40195382242348
 20
73.99879615295403
 10
52.665309579300896
 20
74.1698213811825
 10
52.90934564150005
 20
74.36743788787516
 10
53.13138829885566
 20
74.58948054523077
 10
53.32900480554832
 20
74.83351660742993
 10
53.500030033776795
 20
75.09687236430734
 10
53.64259019535128
 20
75.37666243507995
 10
53.75512337130894
 20
75.6698213811825
 10
53.836396624624896
 20
75.97313729185407
 10
53.8855195085283
 20
76.28328697450438
 10
53.90195382242348
 20
76.59687236430734
  0
LINE
  5
6A
330
17
100
AcDbEntity
  8
CUT
100
AcDbLine
 10
53.90195382242347
 20
76.59687236430734
 30
0.0
 11
53.90195382242347
 21
78.18437236430732
 31
0.0
  0
LWPOLYLINE
  5
6B
330
17
100
AcDbEntity
  8
CUT
100
AcDbPolyline
 90
31
 70
0
 10
53.90195382242348
 20
78.18437236430732
 10
53.8855195085283
 20
78.49795775411029
 10
53.836396624624896
 20
78.8081074367606
 10
53.75512337130894
 20
79.11142334743217
 10
53.64259019535128
 20
79.40458229353472
 10
53.500030033776795
 20
79.68437236430732
 10
53.32900480554832
 20
79.94772812118474
 10
53.13138829885566
 20
80.1917641833839
 10
52.90934564150005
 20
80.4138068407395
 10
52.665309579300896
 20
80.61142334743217
 10
52.40195382242348
 20
80.78244857566064
 10
52.12216375165088
 20
80.92500873723512
 10
51.82900480554832
 20
81.03754191319278
 10
51.52568889487676
 20
81.11881516650874
 10
51.21553921222644
 20
81.16793805041215
 10
50.90195382242348
 20
81.18437236430732
 10
50.58836843262052
 20
81.16793805041215
 10
50.2782187499702
 20
81.11881516650874
 10
49.974902839298636
 20
81.03754191319278
 10
49.68174389319608
 20
80.92500873723512
 10
49.40195382242348
 20
80.78244857566064
 10
49.13859806554606
 20
80.61142334743217
 10
48.894562003346905
 20
80.41380684073951
 10
48.6725193459913
 20
80.1917641833839
 10
48.474902839298636
 20
79.94772812118474
 10
48.30387761107016
 20
79.68437236430732
 10
48.16131744949568
 20
79.40458229353472
 10
48.04878427353802
 20
79.11142334743217
 10
47.96751102022206
 20
78.8081074367606
 10
47.91838813631866
 20
78.49795775411029
 10
47.90195382242348
 20
78.18437236430732
  0
LINE
  5
6C
330
17
100
AcDbEntity
  8
FOLD
  6
DASHED
100
AcDbLine
 10
32.43876733119424
 20
93.74062236430736
 30
0.0
 11
32.438767331194256
 21
-93.74062763569265
 31
0.0
  0
LINE
  5
6D
330
17
100
AcDbEntity
  8
FOLD
  6
DASHED
100
AcDbLine
 10
-34.08394431623417
 20
-93.74062763569266
 30
0.0
 11
-34.08394431623417
 21
93.74062236430734
 31
0.0
  0
ENDSEC
  0
SECTION
  2
OBJECTS
  0
DICTIONARY
  5
A
330
0
100
AcDbDictionary
281
1
  3
ACAD_COLOR
350
B
  3
ACAD_GROUP
350
C
  3
ACAD_LAYOUT
350
D
  3
ACAD_MATERIAL
350
E
  3
ACAD_MLEADERSTYLE
350
F
  3
ACAD_MLINESTYLE
350
10
  3
ACAD_PLOTSETTINGS
350
11
  3
ACAD_PLOTSTYLENAME
350
12
  3
ACAD_SCALELIST
350
14
  3
ACAD_TABLESTYLE
350
15
  3
ACAD_VISUALSTYLE
350
16
  3
EZDXF_META
350
2D
  0
DICTIONARY
  5
B
330
A
100
AcDbDictionary
281
1
  0
DICTIONARY
  5
C
330
A
100
AcDbDictionary
281
1
  0
DICTIONARY
  5
D
330
A
100
AcDbDictionary
281
1
  3
Model
350
1A
  3
Layout1
350
1E
  0
DICTIONARY
  5
E
330
A
100
AcDbDictionary
281
1
  3
ByBlock
350
1F
  3
ByLayer
350
20
  3
Global
350
21
  0
DICTIONARY
  5
F
330
A
100
AcDbDictionary
281
1
  3
Standard
350
2C
  0
DICTIONARY
  5
10
330
A
100
AcDbDictionary
281
1
  3
Standard
350
22
  0
DICTIONARY
  5
11
330
A
100
AcDbDictionary
281
1
  0
ACDBDICTIONARYWDFLT
  5
12
330
A
100
AcDbDictionary
281
1
  3
Normal
350
13
100
AcDbDictionaryWithDefault
340
13
  0
ACDBPLACEHOLDER
  5
13
330
12
  0
DICTIONARY
  5
14
330
A
100
AcDbDictionary
281
1
  0
DICTIONARY
  5
15
330
A
100
AcDbDictionary
281
1
  0
DICTIONARY
  5
16
330
A
100
AcDbDictionary
281
1
  0
LAYOUT
  5
1A
330
D
100
AcDbPlotSettings
  1

  4
A3
  6

 40
7.5
 41
20.0
 42
7.5
 43
20.0
 44
420.0
 45
297.0
 46
0.0
 47
0.0
 48
0.0
 49
0.0
140
0.0
141
0.0
142
1.0
143
1.0
 70
1024
 72
1
 73
0
 74
5
  7

 75
16
 76
0
 77
2
 78
300
147
1.0
148
0.0
149
0.0
100
AcDbLayout
  1
Model
 70
1
 71
0
 10
0.0
 20
0.0
 11
420.0
 21
297.0
 12
0.0
 22
0.0
 32
0.0
 14
1e+20
 24
1e+20
 34
1e+20
 15
-1e+20
 25
-1e+20
 35
-1e+20
146
0.0
 13
0.0
 23
0.0
 33
0.0
 16
1.0
 26
0.0
 36
0.0
 17
0.0
 27
1.0
 37
0.0
 76
1
330
17
  0
LAYOUT
  5
1E
330
D
100
AcDbPlotSettings
  1

  4
A3
  6

 40
7.5
 41
20.0
 42
7.5
 43
20.0
 44
420.0
 45
297.0
 46
0.0
 47
0.0
 48
0.0
 49
0.0
140
0.0
141
0.0
142
1.0
143
1.0
 70
0
 72
1
 73
0
 74
5
  7

 75
16
 76
0
 77
2
 78
300
147
1.0
148
0.0
149
0.0
100
AcDbLayout
  1
Layout1
 70
1
 71
1
 10
0.0
 20
0.0
 11
420.0
 21
297.0
 12
0.0
 22
0.0
 32
0.0
 14
1e+20
 24
1e+20
 34
1e+20
 15
-1e+20
 25
-1e+20
 35
-1e+20
146
0.0
 13
0.0
 23
0.0
 33
0.0
 16
1.0
 26
0.0
 36
0.0
 17
0.0
 27
1.0
 37
0.0
 76
1
330
1B
  0
MATERIAL
  5
1F
102
{ACAD_REACTORS
330
E
102
}
330
E
100
AcDbMaterial
  1
ByBlock
  2

 70
0
 40
1.0
 71
1
 41
1.0
 91
-1023410177
 42
1.0
 72
1
  3

 73
1
 74
1
 75
1
 44
0.5
 73
0
 45
1.0
 46
1.0
 77
1
  4

 78
1
 79
1
170
1
 48
1.0
171
1
  6

172
1
173
1
174
1
140
1.0
141
1.0
175
1
  7

176
1
177
1
178
1
143
1.0
179
1
  8

270
1
271
1
272
1
145
1.0
146
1.0
273
1
  9

274
1
275
1
276
1
 42
1.0
 72
1
  3

 73
1
 74
1
 75
1
 94
63
  0
MATERIAL
  5
20
102
{ACAD_REACTORS
330
E
102
}
330
E
100
AcDbMaterial
  1
ByLayer
  2

 70
0
 40
1.0
 71
1
 41
1.0
 91
-1023410177
 42
1.0
 72
1
  3

 73
1
 74
1
 75
1
 44
0.5
 73
0
 45
1.0
 46
1.0
 77
1
  4

 78
1
 79
1
170
1
 48
1.0
171
1
  6

172
1
173
1
174
1
140
1.0
141
1.0
175
1
  7

176
1
177
1
178
1
143
1.0
179
1
  8

270
1
271
1
272
1
145
1.0
146
1.0
273
1
  9

274
1
275
1
276
1
 42
1.0
 72
1
  3

 73
1
 74
1
 75
1
 94
63
  0
MATERIAL
  5
21
102
{ACAD_REACTORS
330
E
102
}
330
E
100
AcDbMaterial
  1
Global
  2

 70
0
 40
1.0
 71
1
 41
1.0
 91
-1023410177
 42
1.0
 72
1
  3

 73
1
 74
1
 75
1
 44
0.5
 73
0
 45
1.0
 46
1.0
 77
1
  4

 78
1
 79
1
170
1
 48
1.0
171
1
  6

172
1
173
1
174
1
140
1.0
141
1.0
175
1
  7

176
1
177
1
178
1
143
1.0
179
1
  8

270
1
271
1
272
1
145
1.0
146
1.0
273
1
  9

274
1
275
1
276
1
 42
1.0
 72
1
  3

 73
1
 74
1
 75
1
 94
63
  0
MLINESTYLE
  5
22
102
{ACAD_REACTORS
330
10
102
}
330
10
100
AcDbMlineStyle
  2
Standard
 70
0
  3

 62
256
 51
90.0
 52
90.0
 71
2
 49
0.5
 62
256
  6
BYLAYER
 49
-0.5
 62
256
  6
BYLAYER
  0
MLEADERSTYLE
  5
2C
102
{ACAD_REACTORS
330
F
102
}
330
F
100
AcDbMLeaderStyle
179
2
170
2
171
1
172
0
 90
2
 40
0.0
 41
0.0
173
1
 91
-1056964608
 92
-2
290
1
 42
2.0
291
1
 43
8.0
  3
Standard
 44
4.0
300

342
29
174
1
175
1
176
0
178
1
 93
-1056964608
 45
4.0
292
0
297
0
 46
4.0
 94
-1056964608
 47
1.0
 49
1.0
140
1.0
294
1
141
0.0
177
0
142
1.0
295
0
296
0
143
3.75
271
0
272
9
273
9
  0
DICTIONARY
  5
2D
330
A
100
AcDbDictionary
280
1
281
1
  3
CREATED_BY_EZDXF
350
2E
  3
WRITTEN_BY_EZDXF
350
70
  0
DICTIONARYVAR
  5
2E
330
2D
100
DictionaryVariables
280
0
  1
1.4.4 @ 2026-07-17T06:16:18.969464+00:00
  0
DICTIONARYVAR
  5
70
330
2D
100
DictionaryVariables
280
0
  1
1.4.4 @ 2026-07-17T06:16:18.981755+00:00
  0
ENDSEC
  0
EOF
