  0
SECTION
  2
HEADER
  9
$ACADVER
  1
AC1024
  9
$ACADMAINTVER
 70
6
  9
$DWGCODEPAGE
  3
ANSI_1252
  9
$LASTSAVEDBY
  1
ezdxf
  9
$INSBASE
 10
0.0
 20
0.0
 30
0.0
  9
$EXTMIN
 10
1e+20
 20
1e+20
 30
1e+20
  9
$EXTMAX
 10
-1e+20
 20
-1e+20
 30
-1e+20
  9
$LIMMIN
 10
0.0
 20
0.0
  9
$LIMMAX
 10
420.0
 20
297.0
  9
$ORTHOMODE
 70
0
  9
$REGENMODE
 70
1
  9
$FILLMODE
 70
1
  9
$QTEXTMODE
 70
0
  9
$MIRRTEXT
 70
1
  9
$LTSCALE
 40
1.0
  9
$ATTMODE
 70
1
  9
$TEXTSIZE
 40
2.5
  9
$TRACEWID
 40
1.0
  9
$TEXTSTYLE
  7
Standard
  9
$CLAYER
  8
0
  9
$CELTYPE
  6
ByLayer
  9
$CECOLOR
 62
256
  9
$CELTSCALE
 40
1.0
  9
$DISPSILH
 70
0
  9
$DIMSCALE
 40
1.0
  9
$DIMASZ
 40
2.5
  9
$DIMEXO
 40
0.625
  9
$DIMDLI
 40
3.75
  9
$DIMRND
 40
0.0
  9
$DIMDLE
 40
0.0
  9
$DIMEXE
 40
1.25
  9
$DIMTP
 40
0.0
  9
$DIMTM
 40
0.0
  9
$DIMTXT
 40
2.5
  9
$DIMCEN
 40
2.5
  9
$DIMTSZ
 40
0.0
  9
$DIMTOL
 70
0
  9
$DIMLIM
 70
0
  9
$DIMTIH
 70
0
  9
$DIMTOH
 70
0
  9
$DIMSE1
 70
0
  9
$DIMSE2
 70
0
  9
$DIMTAD
 70
1
  9
$DIMZIN
 70
8
  9
$DIMBLK
  1

  9
$DIMASO
 70
1
  9
$DIMSHO
 70
1
  9
$DIMPOST
  1

  9
$DIMAPOST
  1

  9
$DIMALT
 70
0
  9
$DIMALTD
 70
3
  9
$DIMALTF
 40
0.03937007874
  9
$DIMLFAC
 40
1.0
  9
$DIMTOFL
 70
1
  9
$DIMTVP
 40
0.0
  9
$DIMTIX
 70
0
  9
$DIMSOXD
 70
0
  9
$DIMSAH
 70
0
  9
$DIMBLK1
  1

  9
$DIMBLK2
  1

  9
$DIMSTYLE
  2
ISO-25
  9
$DIMCLRD
 70
0
  9
$DIMCLRE
 70
0
  9
$DIMCLRT
 70
0
  9
$DIMTFAC
 40
1.0
  9
$DIMGAP
 40
0.625
  9
$DIMJUST
 70
0
  9
$DIMSD1
 70
0
  9
$DIMSD2
 70
0
  9
$DIMTOLJ
 70
0
  9
$DIMTZIN
 70
8
  9
$DIMALTZ
 70
0
  9
$DIMALTTZ
 70
0
  9
$DIMUPT
 70
0
  9
$DIMDEC
 70
2
  9
$DIMTDEC
 70
2
  9
$DIMALTU
 70
2
  9
$DIMALTTD
 70
3
  9
$DIMTXSTY
  7
Standard
  9
$DIMAUNIT
 70
0
  9
$DIMADEC
 70
0
  9
$DIMALTRND
 40
0.0
  9
$DIMAZIN
 70
0
  9
$DIMDSEP
 70
44
  9
$DIMATFIT
 70
3
  9
$DIMFRAC
 70
0
  9
$DIMLDRBLK
  1

  9
$DIMLUNIT
 70
2
  9
$DIMLWD
 70
-2
  9
$DIMLWE
 70
-2
  9
$DIMTMOVE
 70
0
  9
$DIMFXL
 40
1.0
  9
$DIMFXLON
 70
0
  9
$DIMJOGANG
 40
0.785398163397
  9
$DIMTFILL
 70
0
  9
$DIMTFILLCLR
 70
0
  9
$DIMARCSYM
 70
0
  9
$DIMLTYPE
  6

  9
$DIMLTEX1
  6

  9
$DIMLTEX2
  6

  9
$DIMTXTDIRECTION
 70
0
  9
$LUNITS
 70
2
  9
$LUPREC
 70
4
  9
$SKETCHINC
 40
1.0
  9
$FILLETRAD
 40
10.0
  9
$AUNITS
 70
0
  9
$AUPREC
 70
2
  9
$MENU
  1
.
  9
$ELEVATION
 40
0.0
  9
$PELEVATION
 40
0.0
  9
$THICKNESS
 40
0.0
  9
$LIMCHECK
 70
0
  9
$CHAMFERA
 40
0.0
  9
$CHAMFERB
 40
0.0
  9
$CHAMFERC
 40
0.0
  9
$CHAMFERD
 40
0.0
  9
$SKPOLY
 70
0
  9
$TDCREATE
 40
2461240.8486458333
  9
$TDUCREATE
 40
2458532.153996898
  9
$TDUPDATE
 40
2461240.8486458333
  9
$TDUUPDATE
 40
2458532.1544311
  9
$TDINDWG
 40
0.0
  9
$TDUSRTIMER
 40
0.0
  9
$USRTIMER
 70
1
  9
$ANGBASE
 50
0.0
  9
$ANGDIR
 70
0
  9
$PDMODE
 70
0
  9
$PDSIZE
 40
0.0
  9
$PLINEWID
 40
0.0
  9
$SPLFRAME
 70
0
  9
$SPLINETYPE
 70
6
  9
$SPLINESEGS
 70
8
  9
$HANDSEED
  5
3D
  9
$SURFTAB1
 70
6
  9
$SURFTAB2
 70
6
  9
$SURFTYPE
 70
6
  9
$SURFU
 70
6
  9
$SURFV
 70
6
  9
$UCSBASE
  2

  9
$UCSNAME
  2

  9
$UCSORG
 10
0.0
 20
0.0
 30
0.0
  9
$UCSXDIR
 10
1.0
 20
0.0
 30
0.0
  9
$UCSYDIR
 10
0.0
 20
1.0
 30
0.0
  9
$UCSORTHOREF
  2

  9
$UCSORTHOVIEW
 70
0
  9
$UCSORGTOP
 10
0.0
 20
0.0
 30
0.0
  9
$UCSORGBOTTOM
 10
0.0
 20
0.0
 30
0.0
  9
$UCSORGLEFT
 10
0.0
 20
0.0
 30
0.0
  9
$UCSORGRIGHT
 10
0.0
 20
0.0
 30
0.0
  9
$UCSORGFRONT
 10
0.0
 20
0.0
 30
0.0
  9
$UCSORGBACK
 10
0.0
 20
0.0
 30
0.0
  9
$PUCSBASE
  2

  9
$PUCSNAME
  2

  9
$PUCSORG
 10
0.0
 20
0.0
 30
0.0
  9
$PUCSXDIR
 10
1.0
 20
0.0
 30
0.0
  9
$PUCSYDIR
 10
0.0
 20
1.0
 30
0.0
  9
$PUCSORTHOREF
  2

  9
$PUCSORTHOVIEW
 70
0
  9
$PUCSORGTOP
 10
0.0
 20
0.0
 30
0.0
  9
$PUCSORGBOTTOM
 10
0.0
 20
0.0
 30
0.0
  9
$PUCSORGLEFT
 10
0.0
 20
0.0
 30
0.0
  9
$PUCSORGRIGHT
 10
0.0
 20
0.0
 30
0.0
  9
$PUCSORGFRONT
 10
0.0
 20
0.0
 30
0.0
  9
$PUCSORGBACK
 10
0.0
 20
0.0
 30
0.0
  9
$USERI1
 70
0
  9
$USERI2
 70
0
  9
$USERI3
 70
0
  9
$USERI4
 70
0
  9
$USERI5
 70
0
  9
$USERR1
 40
0.0
  9
$USERR2
 40
0.0
  9
$USERR3
 40
0.0
  9
$USERR4
 40
0.0
  9
$USERR5
 40
0.0
  9
$WORLDVIEW
 70
1
  9
$SHADEDGE
 70
3
  9
$SHADEDIF
 70
70
  9
$TILEMODE
 70
1
  9
$MAXACTVP
 70
64
  9
$PINSBASE
 10
0.0
 20
0.0
 30
0.0
  9
$PLIMCHECK
 70
0
  9
$PEXTMIN
 10
1e+20
 20
1e+20
 30
1e+20
  9
$PEXTMAX
 10
-1e+20
 20
-1e+20
 30
-1e+20
  9
$PLIMMIN
 10
0.0
 20
0.0
  9
$PLIMMAX
 10
420.0
 20
297.0
  9
$UNITMODE
 70
0
  9
$VISRETAIN
 70
1
  9
$PLINEGEN
 70
0
  9
$PSLTSCALE
 70
1
  9
$TREEDEPTH
 70
3020
  9
$CMLSTYLE
  2
Standard
  9
$CMLJUST
 70
0
  9
$CMLSCALE
 40
20.0
  9
$PROXYGRAPHICS
 70
1
  9
$MEASUREMENT
 70
1
  9
$CELWEIGHT
370
-1
  9
$ENDCAPS
280
0
  9
$JOINSTYLE
280
0
  9
$LWDISPLAY
290
0
  9
$INSUNITS
 70
6
  9
$HYPERLINKBASE
  1

  9
$STYLESHEET
  1

  9
$XEDIT
290
1
  9
$CEPSNTYPE
380
0
  9
$PSTYLEMODE
290
1
  9
$FINGERPRINTGUID
  2
{346DFA69-D292-412D-B0A0-7113AFCEFD07}
  9
$VERSIONGUID
  2
{BF7AD30A-B5B3-4518-849C-5D86056BC6AF}
  9
$EXTNAMES
290
1
  9
$PSVPSCALE
 40
0.0
  9
$OLESTARTUP
290
0
  9
$SORTENTS
280
127
  9
$INDEXCTL
280
0
  9
$HIDETEXT
280
1
  9
$XCLIPFRAME
280
1
  9
$HALOGAP
280
0
  9
$OBSCOLOR
 70
257
  9
$OBSLTYPE
280
0
  9
$INTERSECTIONDISPLAY
280
0
  9
$INTERSECTIONCOLOR
 70
257
  9
$DIMASSOC
280
2
  9
$PROJECTNAME
  1

  9
$CAMERADISPLAY
290
0
  9
$LENSLENGTH
 40
50.0
  9
$CAMERAHEIGHT
 40
0.0
  9
$STEPSPERSEC
 40
24.0
  9
$STEPSIZE
 40
100.0
  9
$3DDWFPREC
 40
2.0
  9
$PSOLWIDTH
 40
0.005
  9
$PSOLHEIGHT
 40
0.08
  9
$LOFTANG1
 40
1.570796326795
  9
$LOFTANG2
 40
1.570796326795
  9
$LOFTMAG1
 40
0.0
  9
$LOFTMAG2
 40
0.0
  9
$LOFTPARAM
 70
7
  9
$LOFTNORMALS
280
1
  9
$LATITUDE
 40
37.795
  9
$LONGITUDE
 40
-122.394
  9
$NORTHDIRECTION
 40
0.0
  9
$TIMEZONE
 70
-8000
  9
$LIGHTGLYPHDISPLAY
280
1
  9
$TILEMODELIGHTSYNCH
280
1
  9
$CMATERIAL
347
20
  9
$SOLIDHIST
280
0
  9
$SHOWHIST
280
1
  9
$DWFFRAME
280
2
  9
$DGNFRAME
280
2
  9
$REALWORLDSCALE
290
1
  9
$INTERFERECOLOR
 62
256
  9
$CSHADOW
280
0
  9
$SHADOWPLANELOCATION
 40
0.0
  0
ENDSEC
  0
SECTION
  2
CLASSES
  0
CLASS
  1
ACDBDICTIONARYWDFLT
  2
AcDbDictionaryWithDefault
  3
ObjectDBX Classes
 90
0
 91
0
280
0
281
0
  0
CLASS
  1
SUN
  2
AcDbSun
  3
SCENEOE
 90
1153
 91
0
280
0
281
0
  0
CLASS
  1
VISUALSTYLE
  2
AcDbVisualStyle
  3
ObjectDBX Classes
 90
4095
 91
0
280
0
281
0
  0
CLASS
  1
MATERIAL
  2
AcDbMaterial
  3
ObjectDBX Classes
 90
1153
 91
0
280
0
281
0
  0
CLASS
  1
SCALE
  2
AcDbScale
  3
ObjectDBX Classes
 90
1153
 91
0
280
0
281
0
  0
CLASS
  1
TABLESTYLE
  2
AcDbTableStyle
  3
ObjectDBX Classes
 90
4095
 91
0
280
0
281
0
  0
CLASS
  1
MLEADERSTYLE
  2
AcDbMLeaderStyle
  3
ACDB_MLEADERSTYLE_CLASS
 90
4095
 91
0
280
0
281
0
  0
CLASS
  1
DICTIONARYVAR
  2
AcDbDictionaryVar
  3
ObjectDBX Classes
 90
0
 91
0
280
0
281
0
  0
CLASS
  1
CELLSTYLEMAP
  2
AcDbCellStyleMap
  3
ObjectDBX Classes
 90
1152
 91
0
280
0
281
0
  0
CLASS
  1
MENTALRAYRENDERSETTINGS
  2
AcDbMentalRayRenderSettings
  3
SCENEOE
 90
1024
 91
0
280
0
281
0
  0
CLASS
  1
ACDBDETAILVIEWSTYLE
  2
AcDbDetailViewStyle
  3
ObjectDBX Classes
 90
1025
 91
0
280
0
281
0
  0
CLASS
  1
ACDBSECTIONVIEWSTYLE
  2
AcDbSectionViewStyle
  3
ObjectDBX Classes
 90
1025
 91
0
280
0
281
0
  0
CLASS
  1
RASTERVARIABLES
  2
AcDbRasterVariables
  3
ISM
 90
0
 91
0
280
0
281
0
  0
CLASS
  1
ACDBPLACEHOLDER
  2
AcDbPlaceHolder
  3
ObjectDBX Classes
 90
0
 91
0
280
0
281
0
  0
CLASS
  1
LAYOUT
  2
AcDbLayout
  3
ObjectDBX Classes
 90
0
 91
0
280
0
281
0
  0
ENDSEC
  0
SECTION
  2
TABLES
  0
TABLE
  2
VPORT
  5
8
330
0
100
AcDbSymbolTable
 70
1
  0
VPORT
  5
23
330
8
100
AcDbSymbolTableRecord
100
AcDbViewportTableRecord
  2
*Active
 70
0
 10
0.0
 20
0.0
 11
1.0
 21
1.0
 12
0.0
 22
0.0
 13
0.0
 23
0.0
 14
0.5
 24
0.5
 15
0.5
 25
0.5
 16
0.0
 26
0.0
 36
1.0
 17
0.0
 27
0.0
 37
0.0
 40
1000.0
 41
1.34
 42
50.0
 43
0.0
 44
0.0
 50
0.0
 51
0.0
 71
0
 72
1000
 73
1
 74
3
 75
0
 76
0
 77
0
 78
0
281
0
 65
0
146
0.0
  0
ENDTAB
  0
TABLE
  2
LTYPE
  5
2
330
0
100
AcDbSymbolTable
 70
3
  0
LTYPE
  5
24
330
2
100
AcDbSymbolTableRecord
100
AcDbLinetypeTableRecord
  2
ByBlock
 70
0
  3

 72
65
 73
0
 40
0.0
  0
LTYPE
  5
25
330
2
100
AcDbSymbolTableRecord
100
AcDbLinetypeTableRecord
  2
ByLayer
 70
0
  3

 72
65
 73
0
 40
0.0
  0
LTYPE
  5
26
330
2
100
AcDbSymbolTableRecord
100
AcDbLinetypeTableRecord
  2
Continuous
 70
0
  3

 72
65
 73
0
 40
0.0
  0
ENDTAB
  0
TABLE
  2
LAYER
  5
1
330
0
100
AcDbSymbolTable
 70
4
  0
LAYER
  5
27
330
1
100
AcDbSymbolTableRecord
100
AcDbLayerTableRecord
  2
0
 70
0
 62
7
  6
Continuous
370
-3
390
13
347
21
  0
LAYER
  5
28
330
1
100
AcDbSymbolTableRecord
100
AcDbLayerTableRecord
  2
Defpoints
 70
0
 62
7
  6
Continuous
290
0
370
-3
390
13
347
21
  0
LAYER
  5
2F
330
1
100
AcDbSymbolTableRecord
100
AcDbLayerTableRecord
  2
CUT
 70
0
 62
3
  6
Continuous
370
-3
390
13
347
21
  0
LAYER
  5
30
330
1
100
AcDbSymbolTableRecord
100
AcDbLayerTableRecord
  2
FOLD
 70
0
 62
1
  6
DASHED
370
-3
390
13
347
21
  0
ENDTAB
  0
TABLE
  2
STYLE
  5
5
330
0
100
AcDbSymbolTable
 70
1
  0
STYLE
  5
29
330
5
100
AcDbSymbolTableRecord
100
AcDbTextStyleTableRecord
  2
Standard
 70
0
 40
0.0
 41
1.0
 50
0.0
 71
0
 42
2.5
  3
txt
  4

  0
ENDTAB
  0
TABLE
  2
VIEW
  5
7
330
0
100
AcDbSymbolTable
 70
0
  0
ENDTAB
  0
TABLE
  2
UCS
  5
6
330
0
100
AcDbSymbolTable
 70
0
  0
ENDTAB
  0
TABLE
  2
APPID
  5
3
330
0
100
AcDbSymbolTable
 70
3
  0
APPID
  5
2A
330
3
100
AcDbSymbolTableRecord
100
AcDbRegAppTableRecord
  2
ACAD
 70
0
  0
APPID
  5
3A
330
3
100
AcDbSymbolTableRecord
100
AcDbRegAppTableRecord
  2
HATCHBACKGROUNDCOLOR
 70
0
  0
APPID
  5
3B
330
3
100
AcDbSymbolTableRecord
100
AcDbRegAppTableRecord
  2
EZDXF
 70
0
  0
ENDTAB
  0
TABLE
  2
DIMSTYLE
  5
4
330
0
100
AcDbSymbolTable
 70
1
100
AcDbDimStyleTable
  0
DIMSTYLE
105
2B
330
4
100
AcDbSymbolTableRecord
100
AcDbDimStyleTableRecord
  2
Standard
 70
0
 40
1.0
 41
2.5
 42
0.625
 43
3.75
 44
1.25
 45
0.0
 46
0.0
 47
0.0
 48
0.0
 49
2.5
140
2.5
141
2.5
142
0.0
143
0.03937007874
144
1.0
145
0.0
146
1.0
147
0.625
148
0.0
 69
0
 70
0
 71
0
 72
0
 73
0
 74
0
 75
0
 76
0
 77
1
 78
8
 79
3
170
0
171
3
172
1
173
0
174
0
175
0
176
0
177
0
178
0
179
2
271
2
272
2
273
2
274
3
275
0
276
0
277
2
278
44
279
0
280
0
281
0
282
0
283
0
284
8
285
0
286
0
288
0
289
3
290
0
371
-2
372
-2
  0
ENDTAB
  0
TABLE
  2
BLOCK_RECORD
  5
9
330
0
100
AcDbSymbolTable
 70
2
  0
BLOCK_RECORD
  5
17
330
9
100
AcDbSymbolTableRecord
100
AcDbBlockTableRecord
  2
*Model_Space
340
1A
 70
0
280
1
281
0
  0
BLOCK_RECORD
  5
1B
330
9
100
AcDbSymbolTableRecord
100
AcDbBlockTableRecord
  2
*Paper_Space
340
1E
 70
0
280
1
281
0
  0
ENDTAB
  0
ENDSEC
  0
SECTION
  2
BLOCKS
  0
BLOCK
  5
18
330
17
100
AcDbEntity
  8
0
100
AcDbBlockBegin
  2
*Model_Space
 70
0
 10
0.0
 20
0.0
 30
0.0
  3
*Model_Space
  1

  0
ENDBLK
  5
19
330
17
100
AcDbEntity
  8
0
100
AcDbBlockEnd
  0
BLOCK
  5
1C
330
1B
100
AcDbEntity
  8
0
100
AcDbBlockBegin
  2
*Paper_Space
 70
0
 10
0.0
 20
0.0
 30
0.0
  3
*Paper_Space
  1

  0
ENDBLK
  5
1D
330
1B
100
AcDbEntity
  8
0
100
AcDbBlockEnd
  0
ENDSEC
  0
SECTION
  2
ENTITIES
  0
LWPOLYLINE
  5
31
330
17
100
AcDbEntity
  8
CUT
100
AcDbPolyline
 90
283
 70
0
 10
36.705
 20
36.203
 10
37.414
 20
35.865
 10
38.104
 20
35.49
 10
38.773
 20
35.08
 10
39.421
 20
34.635
 10
40.044
 20
34.157
 10
40.641
 20
33.647
 10
41.21
 20
33.107
 10
41.751
 20
32.537
 10
42.261
 20
31.94
 10
42.739
 20
31.317
 10
43.184
 20
30.67
 10
43.594
 20
30.0
 10
43.969
 20
29.31
 10
44.307
 20
28.601
 10
44.607
 20
27.876
 10
44.87
 20
27.135
 10
45.093
 20
26.382
 10
45.276
 20
25.619
 10
45.419
 20
24.847
 10
45.522
 20
24.068
 10
45.583
 20
23.285
 10
45.604
 20
22.5
 10
49.104
 20
22.5
 10
49.104
 20
-22.5
 10
45.604
 20
-22.5
 10
45.583
 20
-23.285
 10
45.522
 20
-24.068
 10
45.419
 20
-24.847
 10
45.276
 20
-25.619
 10
45.093
 20
-26.382
 10
44.87
 20
-27.135
 10
44.607
 20
-27.876
 10
44.307
 20
-28.601
 10
43.969
 20
-29.31
 10
43.594
 20
-30.0
 10
43.184
 20
-30.67
 10
42.739
 20
-31.317
 10
42.261
 20
-31.94
 10
41.751
 20
-32.537
 10
41.21
 20
-33.107
 10
40.641
 20
-33.647
 10
40.044
 20
-34.157
 10
39.421
 20
-34.635
 10
38.773
 20
-35.08
 10
38.104
 20
-35.49
 10
37.414
 20
-35.865
 10
36.705
 20
-36.203
 10
35.979
 20
-36.504
 10
35.239
 20
-36.766
 10
34.486
 20
-36.989
 10
33.722
 20
-37.172
 10
32.95
 20
-37.315
 10
32.172
 20
-37.418
 10
31.389
 20
-37.479
 10
30.604
 20
-37.5
 10
30.604
 20
-39.361
 10
44.798
 20
-39.361
 10
44.798
 20
-84.414
 10
44.805
 20
-84.152
 10
44.826
 20
-83.891
 10
44.86
 20
-83.631
 10
44.907
 20
-83.374
 10
44.969
 20
-83.12
 10
45.043
 20
-82.869
 10
45.13
 20
-82.622
 10
45.23
 20
-82.38
 10
45.343
 20
-82.144
 10
45.468
 20
-81.914
 10
45.605
 20
-81.69
 10
45.753
 20
-81.475
 10
45.912
 20
-81.267
 10
46.082
 20
-81.068
 10
46.263
 20
-80.878
 10
46.453
 20
-80.698
 10
46.652
 20
-80.528
 10
46.859
 20
-80.369
 10
47.075
 20
-80.22
 10
47.298
 20
-80.083
 10
47.528
 20
-79.959
 10
47.764
 20
-79.846
 10
48.006
 20
-79.746
 10
48.253
 20
-79.658
 10
48.504
 20
-79.584
 10
48.759
 20
-79.523
 10
49.016
 20
-79.475
 10
49.276
 20
-79.441
 10
49.536
 20
-79.42
 10
49.798
 20
-79.414
 10
54.798
 20
-79.414
 10
54.798
 20
-109.414
 10
49.798
 20
-109.414
 10
49.536
 20
-109.407
 10
49.276
 20
-109.386
 10
49.016
 20
-109.352
 10
48.759
 20
-109.304
 10
48.504
 20
-109.243
 10
48.253
 20
-109.169
 10
48.006
 20
-109.082
 10
47.764
 20
-108.981
 10
47.528
 20
-108.869
 10
47.298
 20
-108.744
 10
47.075
 20
-108.607
 10
46.859
 20
-108.459
 10
46.652
 20
-108.299
 10
46.453
 20
-108.129
 10
46.263
 20
-107.949
 10
46.082
 20
-107.759
 10
45.912
 20
-107.56
 10
45.753
 20
-107.353
 10
45.605
 20
-107.137
 10
45.468
 20
-106.914
 10
45.343
 20
-106.684
 10
45.23
 20
-106.447
 10
45.13
 20
-106.205
 10
45.043
 20
-105.959
 10
44.969
 20
-105.708
 10
44.907
 20
-105.453
 10
44.86
 20
-105.196
 10
44.826
 20
-104.936
 10
44.805
 20
-104.675
 10
44.798
 20
-104.414
 10
44.798
 20
-119.467
 10
24.798
 20
-119.467
 10
16.267
 20
-104.69
 10
19.298
 20
-102.94
 10
26.819
 20
-115.967
 10
41.298
 20
-115.967
 10
41.298
 20
-104.414
 10
41.291
 20
-104.675
 10
41.271
 20
-104.936
 10
41.237
 20
-105.196
 10
41.189
 20
-105.453
 10
41.128
 20
-105.708
 10
41.053
 20
-105.959
 10
40.966
 20
-106.205
 10
40.866
 20
-106.447
 10
40.753
 20
-106.684
 10
40.628
 20
-106.914
 10
40.492
 20
-107.137
 10
40.343
 20
-107.353
 10
40.184
 20
-107.56
 10
40.014
 20
-107.759
 10
39.834
 20
-107.949
 10
39.644
 20
-108.129
 10
39.445
 20
-108.299
 10
39.237
 20
-108.459
 10
39.021
 20
-108.607
 10
38.798
 20
-108.744
 10
38.568
 20
-108.869
 10
38.332
 20
-108.981
 10
38.09
 20
-109.082
 10
37.843
 20
-109.169
 10
37.592
 20
-109.243
 10
37.338
 20
-109.304
 10
37.08
 20
-109.352
 10
36.821
 20
-109.386
 10
36.56
 20
-109.407
 10
36.298
 20
-109.414
 10
34.798
 20
-109.414
 10
34.798
 20
-79.414
 10
36.298
 20
-79.414
 10
36.56
 20
-79.42
 10
36.821
 20
-79.441
 10
37.08
 20
-79.475
 10
37.338
 20
-79.523
 10
37.592
 20
-79.584
 10
37.843
 20
-79.658
 10
38.09
 20
-79.746
 10
38.332
 20
-79.846
 10
38.568
 20
-79.959
 10
38.798
 20
-80.083
 10
39.021
 20
-80.22
 10
39.237
 20
-80.369
 10
39.445
 20
-80.528
 10
39.644
 20
-80.698
 10
39.834
 20
-80.878
 10
40.014
 20
-81.068
 10
40.184
 20
-81.267
 10
40.343
 20
-81.475
 10
40.492
 20
-81.69
 10
40.628
 20
-81.914
 10
40.753
 20
-82.144
 10
40.866
 20
-82.38
 10
40.966
 20
-82.622
 10
41.053
 20
-82.869
 10
41.128
 20
-83.12
 10
41.189
 20
-83.374
 10
41.237
 20
-83.631
 10
41.271
 20
-83.891
 10
41.291
 20
-84.152
 10
41.298
 20
-84.414
 10
41.298
 20
-72.861
 10
26.819
 20
-72.861
 10
2.829
 20
-114.412
 10
2.386
 20
-115.116
 10
1.892
 20
-115.784
 10
1.348
 20
-116.414
 10
0.758
 20
-117.0
 10
0.126
 20
-117.54
 10
-0.546
 20
-118.031
 10
-1.253
 20
-118.47
 10
-1.99
 20
-118.854
 10
-2.755
 20
-119.181
 10
-3.542
 20
-119.45
 10
-4.347
 20
-119.658
 10
-5.166
 20
-119.805
 10
-5.994
 20
-119.889
 10
-6.825
 20
-119.911
 10
-7.656
 20
-119.87
 10
-8.481
 20
-119.766
 10
-9.296
 20
-119.6
 10
-10.096
 20
-119.373
 10
-10.877
 20
-119.087
 10
-11.634
 20
-118.742
 10
-12.362
 20
-118.341
 10
-13.059
 20
-117.886
 10
-13.719
 20
-117.379
 10
-14.338
 20
-116.825
 10
-14.914
 20
-116.225
 10
-15.443
 20
-115.583
 10
-15.922
 20
-114.903
 10
-16.349
 20
-114.189
 10
-16.72
 20
-113.444
 10
-17.034
 20
-112.674
 10
-21.517
 20
-100.355
 10
-65.154
 20
-75.162
 10
-44.014
 20
-38.546
 10
-44.395
 20
-37.5
 10
-124.393
 20
-37.5
 10
-124.393
 20
37.5
 10
-44.395
 20
37.5
 10
-17.034
 20
112.674
 10
-16.72
 20
113.444
 10
-16.349
 20
114.189
 10
-15.922
 20
114.903
 10
-15.443
 20
115.583
 10
-14.914
 20
116.225
 10
-14.338
 20
116.825
 10
-13.719
 20
117.379
 10
-13.059
 20
117.886
 10
-12.362
 20
118.341
 10
-11.634
 20
118.742
 10
-10.877
 20
119.087
 10
-10.096
 20
119.373
 10
-9.296
 20
119.6
 10
-8.481
 20
119.766
 10
-7.656
 20
119.87
 10
-6.825
 20
119.911
 10
-5.994
 20
119.889
 10
-5.166
 20
119.805
 10
-4.347
 20
119.658
 10
-3.542
 20
119.45
 10
-2.755
 20
119.181
 10
-1.99
 20
118.854
 10
-1.253
 20
118.47
 10
-0.546
 20
118.031
 10
0.126
 20
117.54
 10
0.758
 20
117.0
 10
1.348
 20
116.414
 10
1.892
 20
115.784
 10
2.386
 20
115.116
 10
2.829
 20
114.412
 10
26.819
 20
72.861
 10
26.819
 20
78.861
 10
26.528
 20
78.861
 10
26.528
 20
96.861
 10
26.819
 20
96.861
 10
26.819
 20
102.861
 10
41.298
 20
102.861
 10
41.298
 20
104.414
 10
44.798
 20
104.414
 10
44.798
 20
39.361
 10
30.604
 20
39.361
 10
30.604
 20
37.5
 10
31.389
 20
37.479
 10
32.172
 20
37.418
 10
32.95
 20
37.315
 10
33.722
 20
37.172
 10
34.486
 20
36.989
 10
35.239
 20
36.766
 10
35.979
 20
36.504
 10
36.705
 20
36.203
  0
LWPOLYLINE
  5
32
330
17
100
AcDbEntity
  8
CUT
100
AcDbPolyline
 90
43
 70
0
 10
-19.673
 20
-63.387
 10
-22.704
 20
-61.637
 10
-23.06
 20
-62.336
 10
-23.342
 20
-63.069
 10
-23.545
 20
-63.827
 10
-23.668
 20
-64.603
 10
-23.709
 20
-65.387
 10
-23.668
 20
-66.171
 10
-23.545
 20
-66.946
 10
-23.342
 20
-67.704
 10
-23.06
 20
-68.437
 10
-22.704
 20
-69.137
 10
-22.276
 20
-69.795
 10
-21.782
 20
-70.405
 10
-21.227
 20
-70.96
 10
-20.617
 20
-71.454
 10
-19.959
 20
-71.882
 10
-19.259
 20
-72.238
 10
-18.526
 20
-72.52
 10
-17.768
 20
-72.723
 10
-16.993
 20
-72.846
 10
-16.209
 20
-72.887
 10
-15.425
 20
-72.846
 10
-14.65
 20
-72.723
 10
-13.891
 20
-72.52
 10
-13.158
 20
-72.238
 10
-12.459
 20
-71.882
 10
-11.8
 20
-71.454
 10
-11.19
 20
-70.96
 10
-10.635
 20
-70.405
 10
-10.141
 20
-69.795
 10
-9.714
 20
-69.137
 10
-1.183
 20
-54.361
 10
24.798
 20
-69.361
 10
24.798
 20
-41.0
 10
-24.324
 20
-41.0
 10
-14.173
 20
-46.861
 10
5.827
 20
-46.861
 10
5.827
 20
-51.861
 10
2.327
 20
-51.861
 10
2.327
 20
-50.361
 10
-12.152
 20
-50.361
 10
-19.673
 20
-63.387
  0
LWPOLYLINE
  5
33
330
17
100
AcDbEntity
  8
CUT
100
AcDbPolyline
 90
67
 70
0
 10
-58.82
 20
-5.018
 10
-58.326
 20
-4.408
 10
-57.899
 20
-3.75
 10
-57.542
 20
-3.051
 10
-57.261
 20
-2.318
 10
-57.058
 20
-1.559
 10
-56.935
 20
-0.784
 10
-56.894
 20
0.0
 10
-56.935
 20
0.784
 10
-57.058
 20
1.559
 10
-57.261
 20
2.318
 10
-57.542
 20
3.051
 10
-57.899
 20
3.75
 10
-58.326
 20
4.408
 10
-58.82
 20
5.018
 10
-59.376
 20
5.574
 10
-59.986
 20
6.068
 10
-60.644
 20
6.495
 10
-61.343
 20
6.852
 10
-62.076
 20
7.133
 10
-62.835
 20
7.336
 10
-63.61
 20
7.459
 10
-64.394
 20
7.5
 10
-64.394
 20
4.0
 10
-104.394
 20
4.0
 10
-104.394
 20
7.5
 10
-105.178
 20
7.459
 10
-105.953
 20
7.336
 10
-106.712
 20
7.133
 10
-107.445
 20
6.852
 10
-108.144
 20
6.495
 10
-108.802
 20
6.068
 10
-109.412
 20
5.574
 10
-109.968
 20
5.018
 10
-110.462
 20
4.408
 10
-110.889
 20
3.75
 10
-111.246
 20
3.051
 10
-111.527
 20
2.318
 10
-111.73
 20
1.559
 10
-111.853
 20
0.784
 10
-111.894
 20
-0.0
 10
-111.853
 20
-0.784
 10
-111.73
 20
-1.559
 10
-111.527
 20
-2.318
 10
-111.246
 20
-3.051
 10
-110.889
 20
-3.75
 10
-110.462
 20
-4.408
 10
-109.968
 20
-5.018
 10
-109.412
 20
-5.574
 10
-108.802
 20
-6.068
 10
-108.144
 20
-6.495
 10
-107.445
 20
-6.852
 10
-106.712
 20
-7.133
 10
-105.953
 20
-7.336
 10
-105.178
 20
-7.459
 10
-104.394
 20
-7.5
 10
-104.394
 20
-4.0
 10
-64.394
 20
-4.0
 10
-64.394
 20
-7.5
 10
-63.61
 20
-7.459
 10
-62.835
 20
-7.336
 10
-62.076
 20
-7.133
 10
-61.343
 20
-6.852
 10
-60.644
 20
-6.495
 10
-59.986
 20
-6.068
 10
-59.376
 20
-5.574
 10
-58.82
 20
-5.018
  0
LWPOLYLINE
  5
34
330
17
100
AcDbEntity
  8
CUT
100
AcDbPolyline
 90
35
 70
0
 10
-2.045
 20
114.795
 10
-2.503
 20
115.13
 10
-2.985
 20
115.429
 10
-3.488
 20
115.691
 10
-4.009
 20
115.914
 10
-4.546
 20
116.097
 10
-5.095
 20
116.239
 10
-5.653
 20
116.339
 10
-6.217
 20
116.396
 10
-6.784
 20
116.411
 10
-7.351
 20
116.383
 10
-7.913
 20
116.313
 10
-8.469
 20
116.199
 10
-9.015
 20
116.045
 10
-9.547
 20
115.849
 10
-10.063
 20
115.614
 10
-10.56
 20
115.341
 10
-11.035
 20
115.03
 10
-11.484
 20
114.685
 10
-11.907
 20
114.307
 10
-12.3
 20
113.898
 10
-12.66
 20
113.46
 10
-12.987
 20
112.997
 10
-13.278
 20
112.51
 10
-13.531
 20
112.002
 10
-13.745
 20
111.477
 10
-39.396
 20
41.0
 10
24.798
 20
41.0
 10
24.798
 20
69.361
 10
-0.202
 20
112.662
 10
-0.504
 20
113.142
 10
-0.841
 20
113.598
 10
-1.212
 20
114.027
 10
-1.614
 20
114.427
 10
-2.045
 20
114.795
  0
LWPOLYLINE
  5
35
330
17
100
AcDbEntity
  8
CUT
100
AcDbPolyline
 90
33
 70
0
 10
30.385
 20
78.454
 10
30.407
 20
78.407
 10
30.432
 20
78.361
 10
30.46
 20
78.316
 10
30.489
 20
78.273
 10
30.521
 20
78.231
 10
30.555
 20
78.191
 10
30.591
 20
78.153
 10
30.629
 20
78.117
 10
30.669
 20
78.083
 10
30.71
 20
78.052
 10
30.754
 20
78.022
 10
30.798
 20
77.994
 10
30.844
 20
77.97
 10
30.891
 20
77.947
 10
30.94
 20
77.927
 10
30.989
 20
77.909
 10
31.039
 20
77.895
 10
31.09
 20
77.882
 10
31.142
 20
77.873
 10
31.194
 20
77.866
 10
31.246
 20
77.862
 10
31.298
 20
77.861
 10
31.298
 20
78.861
 10
30.298
 20
78.861
 10
30.3
 20
78.808
 10
30.304
 20
78.756
 10
30.31
 20
78.704
 10
30.32
 20
78.653
 10
30.332
 20
78.602
 10
30.347
 20
78.552
 10
30.365
 20
78.502
 10
30.385
 20
78.454
  0
LWPOLYLINE
  5
36
330
17
100
AcDbEntity
  8
CUT
100
AcDbPolyline
 90
33
 70
0
 10
36.385
 20
78.454
 10
36.407
 20
78.407
 10
36.432
 20
78.361
 10
36.46
 20
78.316
 10
36.489
 20
78.273
 10
36.521
 20
78.231
 10
36.555
 20
78.191
 10
36.591
 20
78.153
 10
36.629
 20
78.117
 10
36.669
 20
78.083
 10
36.71
 20
78.052
 10
36.754
 20
78.022
 10
36.798
 20
77.994
 10
36.844
 20
77.97
 10
36.891
 20
77.947
 10
36.94
 20
77.927
 10
36.989
 20
77.909
 10
37.039
 20
77.895
 10
37.09
 20
77.882
 10
37.142
 20
77.873
 10
37.194
 20
77.866
 10
37.246
 20
77.862
 10
37.298
 20
77.861
 10
37.298
 20
78.861
 10
36.298
 20
78.861
 10
36.3
 20
78.808
 10
36.304
 20
78.756
 10
36.31
 20
78.704
 10
36.32
 20
78.653
 10
36.332
 20
78.602
 10
36.347
 20
78.552
 10
36.365
 20
78.502
 10
36.385
 20
78.454
  0
LWPOLYLINE
  5
37
330
17
100
AcDbEntity
  8
CUT
100
AcDbPolyline
 90
33
 70
0
 10
36.891
 20
97.774
 10
36.844
 20
97.752
 10
36.798
 20
97.727
 10
36.754
 20
97.699
 10
36.71
 20
97.67
 10
36.669
 20
97.638
 10
36.629
 20
97.604
 10
36.591
 20
97.568
 10
36.555
 20
97.53
 10
36.521
 20
97.49
 10
36.489
 20
97.448
 10
36.46
 20
97.405
 10
36.432
 20
97.361
 10
36.407
 20
97.315
 10
36.385
 20
97.267
 10
36.365
 20
97.219
 10
36.347
 20
97.17
 10
36.332
 20
97.119
 10
36.32
 20
97.068
 10
36.31
 20
97.017
 10
36.304
 20
96.965
 10
36.3
 20
96.913
 10
36.298
 20
96.861
 10
37.298
 20
96.861
 10
37.298
 20
97.861
 10
37.246
 20
97.859
 10
37.194
 20
97.855
 10
37.142
 20
97.848
 10
37.09
 20
97.839
 10
37.039
 20
97.826
 10
36.989
 20
97.812
 10
36.94
 20
97.794
 10
36.891
 20
97.774
  0
LWPOLYLINE
  5
38
330
17
100
AcDbEntity
  8
CUT
100
AcDbPolyline
 90
33
 70
0
 10
30.891
 20
97.774
 10
30.844
 20
97.752
 10
30.798
 20
97.727
 10
30.754
 20
97.699
 10
30.71
 20
97.67
 10
30.669
 20
97.638
 10
30.629
 20
97.604
 10
30.591
 20
97.568
 10
30.555
 20
97.53
 10
30.521
 20
97.49
 10
30.489
 20
97.448
 10
30.46
 20
97.405
 10
30.432
 20
97.361
 10
30.407
 20
97.315
 10
30.385
 20
97.267
 10
30.365
 20
97.219
 10
30.347
 20
97.17
 10
30.332
 20
97.119
 10
30.32
 20
97.068
 10
30.31
 20
97.017
 10
30.304
 20
96.965
 10
30.3
 20
96.913
 10
30.298
 20
96.861
 10
31.298
 20
96.861
 10
31.298
 20
97.861
 10
31.246
 20
97.859
 10
31.194
 20
97.855
 10
31.142
 20
97.848
 10
31.09
 20
97.839
 10
31.039
 20
97.826
 10
30.989
 20
97.812
 10
30.94
 20
97.794
 10
30.891
 20
97.774
  0
LWPOLYLINE
  5
39
330
17
100
AcDbEntity
  8
CUT
100
AcDbPolyline
 90
33
 70
0
 10
-11.484
 20
-114.685
 10
-11.035
 20
-115.03
 10
-10.56
 20
-115.341
 10
-10.063
 20
-115.614
 10
-9.547
 20
-115.849
 10
-9.015
 20
-116.045
 10
-8.469
 20
-116.199
 10
-7.913
 20
-116.313
 10
-7.351
 20
-116.383
 10
-6.784
 20
-116.411
 10
-6.217
 20
-116.396
 10
-5.653
 20
-116.339
 10
-5.095
 20
-116.239
 10
-4.546
 20
-116.097
 10
-4.009
 20
-115.914
 10
-3.488
 20
-115.691
 10
-2.985
 20
-115.429
 10
-2.503
 20
-115.13
 10
-2.045
 20
-114.795
 10
-1.614
 20
-114.427
 10
-1.212
 20
-114.027
 10
-0.841
 20
-113.598
 10
-0.504
 20
-113.142
 10
-0.202
 20
-112.662
 10
-16.802
 20
-103.078
 10
-13.745
 20
-111.477
 10
-13.531
 20
-112.002
 10
-13.278
 20
-112.51
 10
-12.987
 20
-112.997
 10
-12.66
 20
-113.46
 10
-12.3
 20
-113.898
 10
-11.907
 20
-114.307
 10
-11.484
 20
-114.685
  0
ENDSEC
  0
SECTION
  2
OBJECTS
  0
DICTIONARY
  5
A
330
0
100
AcDbDictionary
281
1
  3
ACAD_COLOR
350
B
  3
ACAD_GROUP
350
C
  3
ACAD_LAYOUT
350
D
  3
ACAD_MATERIAL
350
E
  3
ACAD_MLEADERSTYLE
350
F
  3
ACAD_MLINESTYLE
350
10
  3
ACAD_PLOTSETTINGS
350
11
  3
ACAD_PLOTSTYLENAME
350
12
  3
ACAD_SCALELIST
350
14
  3
ACAD_TABLESTYLE
350
15
  3
ACAD_VISUALSTYLE
350
16
  3
EZDXF_META
350
2D
  0
DICTIONARY
  5
B
330
A
100
AcDbDictionary
281
1
  0
DICTIONARY
  5
C
330
A
100
AcDbDictionary
281
1
  0
DICTIONARY
  5
D
330
A
100
AcDbDictionary
281
1
  3
Model
350
1A
  3
Layout1
350
1E
  0
DICTIONARY
  5
E
330
A
100
AcDbDictionary
281
1
  3
ByBlock
350
1F
  3
ByLayer
350
20
  3
Global
350
21
  0
DICTIONARY
  5
F
330
A
100
AcDbDictionary
281
1
  3
Standard
350
2C
  0
DICTIONARY
  5
10
330
A
100
AcDbDictionary
281
1
  3
Standard
350
22
  0
DICTIONARY
  5
11
330
A
100
AcDbDictionary
281
1
  0
ACDBDICTIONARYWDFLT
  5
12
330
A
100
AcDbDictionary
281
1
  3
Normal
350
13
100
AcDbDictionaryWithDefault
340
13
  0
ACDBPLACEHOLDER
  5
13
330
12
  0
DICTIONARY
  5
14
330
A
100
AcDbDictionary
281
1
  0
DICTIONARY
  5
15
330
A
100
AcDbDictionary
281
1
  0
DICTIONARY
  5
16
330
A
100
AcDbDictionary
281
1
  0
LAYOUT
  5
1A
330
D
100
AcDbPlotSettings
  1

  4
A3
  6

 40
7.5
 41
20.0
 42
7.5
 43
20.0
 44
420.0
 45
297.0
 46
0.0
 47
0.0
 48
0.0
 49
0.0
140
0.0
141
0.0
142
1.0
143
1.0
 70
1024
 72
1
 73
0
 74
5
  7

 75
16
 76
0
 77
2
 78
300
147
1.0
148
0.0
149
0.0
100
AcDbLayout
  1
Model
 70
1
 71
0
 10
0.0
 20
0.0
 11
420.0
 21
297.0
 12
0.0
 22
0.0
 32
0.0
 14
1e+20
 24
1e+20
 34
1e+20
 15
-1e+20
 25
-1e+20
 35
-1e+20
146
0.0
 13
0.0
 23
0.0
 33
0.0
 16
1.0
 26
0.0
 36
0.0
 17
0.0
 27
1.0
 37
0.0
 76
1
330
17
  0
LAYOUT
  5
1E
330
D
100
AcDbPlotSettings
  1

  4
A3
  6

 40
7.5
 41
20.0
 42
7.5
 43
20.0
 44
420.0
 45
297.0
 46
0.0
 47
0.0
 48
0.0
 49
0.0
140
0.0
141
0.0
142
1.0
143
1.0
 70
0
 72
1
 73
0
 74
5
  7

 75
16
 76
0
 77
2
 78
300
147
1.0
148
0.0
149
0.0
100
AcDbLayout
  1
Layout1
 70
1
 71
1
 10
0.0
 20
0.0
 11
420.0
 21
297.0
 12
0.0
 22
0.0
 32
0.0
 14
1e+20
 24
1e+20
 34
1e+20
 15
-1e+20
 25
-1e+20
 35
-1e+20
146
0.0
 13
0.0
 23
0.0
 33
0.0
 16
1.0
 26
0.0
 36
0.0
 17
0.0
 27
1.0
 37
0.0
 76
1
330
1B
  0
MATERIAL
  5
1F
102
{ACAD_REACTORS
330
E
102
}
330
E
100
AcDbMaterial
  1
ByBlock
  2

 70
0
 40
1.0
 71
1
 41
1.0
 91
-1023410177
 42
1.0
 72
1
  3

 73
1
 74
1
 75
1
 44
0.5
 73
0
 45
1.0
 46
1.0
 77
1
  4

 78
1
 79
1
170
1
 48
1.0
171
1
  6

172
1
173
1
174
1
140
1.0
141
1.0
175
1
  7

176
1
177
1
178
1
143
1.0
179
1
  8

270
1
271
1
272
1
145
1.0
146
1.0
273
1
  9

274
1
275
1
276
1
 42
1.0
 72
1
  3

 73
1
 74
1
 75
1
 94
63
  0
MATERIAL
  5
20
102
{ACAD_REACTORS
330
E
102
}
330
E
100
AcDbMaterial
  1
ByLayer
  2

 70
0
 40
1.0
 71
1
 41
1.0
 91
-1023410177
 42
1.0
 72
1
  3

 73
1
 74
1
 75
1
 44
0.5
 73
0
 45
1.0
 46
1.0
 77
1
  4

 78
1
 79
1
170
1
 48
1.0
171
1
  6

172
1
173
1
174
1
140
1.0
141
1.0
175
1
  7

176
1
177
1
178
1
143
1.0
179
1
  8

270
1
271
1
272
1
145
1.0
146
1.0
273
1
  9

274
1
275
1
276
1
 42
1.0
 72
1
  3

 73
1
 74
1
 75
1
 94
63
  0
MATERIAL
  5
21
102
{ACAD_REACTORS
330
E
102
}
330
E
100
AcDbMaterial
  1
Global
  2

 70
0
 40
1.0
 71
1
 41
1.0
 91
-1023410177
 42
1.0
 72
1
  3

 73
1
 74
1
 75
1
 44
0.5
 73
0
 45
1.0
 46
1.0
 77
1
  4

 78
1
 79
1
170
1
 48
1.0
171
1
  6

172
1
173
1
174
1
140
1.0
141
1.0
175
1
  7

176
1
177
1
178
1
143
1.0
179
1
  8

270
1
271
1
272
1
145
1.0
146
1.0
273
1
  9

274
1
275
1
276
1
 42
1.0
 72
1
  3

 73
1
 74
1
 75
1
 94
63
  0
MLINESTYLE
  5
22
102
{ACAD_REACTORS
330
10
102
}
330
10
100
AcDbMlineStyle
  2
Standard
 70
0
  3

 62
256
 51
90.0
 52
90.0
 71
2
 49
0.5
 62
256
  6
BYLAYER
 49
-0.5
 62
256
  6
BYLAYER
  0
MLEADERSTYLE
  5
2C
102
{ACAD_REACTORS
330
F
102
}
330
F
100
AcDbMLeaderStyle
179
2
170
2
171
1
172
0
 90
2
 40
0.0
 41
0.0
173
1
 91
-1056964608
 92
-2
290
1
 42
2.0
291
1
 43
8.0
  3
Standard
 44
4.0
300

342
29
174
1
175
1
176
0
178
1
 93
-1056964608
 45
4.0
292
0
297
0
 46
4.0
 94
-1056964608
 47
1.0
 49
1.0
140
1.0
294
1
141
0.0
177
0
142
1.0
295
0
296
0
143
3.75
271
0
272
9
273
9
  0
DICTIONARY
  5
2D
330
A
100
AcDbDictionary
280
1
281
1
  3
CREATED_BY_EZDXF
350
2E
  3
WRITTEN_BY_EZDXF
350
3C
  0
DICTIONARYVAR
  5
2E
330
2D
100
DictionaryVariables
280
0
  1
1.4.4 @ 2026-07-18T14:52:03.070773+00:00
  0
DICTIONARYVAR
  5
3C
330
2D
100
DictionaryVariables
280
0
  1
1.4.4 @ 2026-07-18T14:52:03.075963+00:00
  0
ENDSEC
  0
EOF
