  0
SECTION
  2
HEADER
  9
$ACADVER
  1
AC1024
  9
$ACADMAINTVER
 70
6
  9
$DWGCODEPAGE
  3
ANSI_1252
  9
$LASTSAVEDBY
  1
ezdxf
  9
$INSBASE
 10
0.0
 20
0.0
 30
0.0
  9
$EXTMIN
 10
1e+20
 20
1e+20
 30
1e+20
  9
$EXTMAX
 10
-1e+20
 20
-1e+20
 30
-1e+20
  9
$LIMMIN
 10
0.0
 20
0.0
  9
$LIMMAX
 10
420.0
 20
297.0
  9
$ORTHOMODE
 70
0
  9
$REGENMODE
 70
1
  9
$FILLMODE
 70
1
  9
$QTEXTMODE
 70
0
  9
$MIRRTEXT
 70
1
  9
$LTSCALE
 40
1.0
  9
$ATTMODE
 70
1
  9
$TEXTSIZE
 40
2.5
  9
$TRACEWID
 40
1.0
  9
$TEXTSTYLE
  7
Standard
  9
$CLAYER
  8
0
  9
$CELTYPE
  6
ByLayer
  9
$CECOLOR
 62
256
  9
$CELTSCALE
 40
1.0
  9
$DISPSILH
 70
0
  9
$DIMSCALE
 40
1.0
  9
$DIMASZ
 40
2.5
  9
$DIMEXO
 40
0.625
  9
$DIMDLI
 40
3.75
  9
$DIMRND
 40
0.0
  9
$DIMDLE
 40
0.0
  9
$DIMEXE
 40
1.25
  9
$DIMTP
 40
0.0
  9
$DIMTM
 40
0.0
  9
$DIMTXT
 40
2.5
  9
$DIMCEN
 40
2.5
  9
$DIMTSZ
 40
0.0
  9
$DIMTOL
 70
0
  9
$DIMLIM
 70
0
  9
$DIMTIH
 70
0
  9
$DIMTOH
 70
0
  9
$DIMSE1
 70
0
  9
$DIMSE2
 70
0
  9
$DIMTAD
 70
1
  9
$DIMZIN
 70
8
  9
$DIMBLK
  1

  9
$DIMASO
 70
1
  9
$DIMSHO
 70
1
  9
$DIMPOST
  1

  9
$DIMAPOST
  1

  9
$DIMALT
 70
0
  9
$DIMALTD
 70
3
  9
$DIMALTF
 40
0.03937007874
  9
$DIMLFAC
 40
1.0
  9
$DIMTOFL
 70
1
  9
$DIMTVP
 40
0.0
  9
$DIMTIX
 70
0
  9
$DIMSOXD
 70
0
  9
$DIMSAH
 70
0
  9
$DIMBLK1
  1

  9
$DIMBLK2
  1

  9
$DIMSTYLE
  2
ISO-25
  9
$DIMCLRD
 70
0
  9
$DIMCLRE
 70
0
  9
$DIMCLRT
 70
0
  9
$DIMTFAC
 40
1.0
  9
$DIMGAP
 40
0.625
  9
$DIMJUST
 70
0
  9
$DIMSD1
 70
0
  9
$DIMSD2
 70
0
  9
$DIMTOLJ
 70
0
  9
$DIMTZIN
 70
8
  9
$DIMALTZ
 70
0
  9
$DIMALTTZ
 70
0
  9
$DIMUPT
 70
0
  9
$DIMDEC
 70
2
  9
$DIMTDEC
 70
2
  9
$DIMALTU
 70
2
  9
$DIMALTTD
 70
3
  9
$DIMTXSTY
  7
Standard
  9
$DIMAUNIT
 70
0
  9
$DIMADEC
 70
0
  9
$DIMALTRND
 40
0.0
  9
$DIMAZIN
 70
0
  9
$DIMDSEP
 70
44
  9
$DIMATFIT
 70
3
  9
$DIMFRAC
 70
0
  9
$DIMLDRBLK
  1

  9
$DIMLUNIT
 70
2
  9
$DIMLWD
 70
-2
  9
$DIMLWE
 70
-2
  9
$DIMTMOVE
 70
0
  9
$DIMFXL
 40
1.0
  9
$DIMFXLON
 70
0
  9
$DIMJOGANG
 40
0.785398163397
  9
$DIMTFILL
 70
0
  9
$DIMTFILLCLR
 70
0
  9
$DIMARCSYM
 70
0
  9
$DIMLTYPE
  6

  9
$DIMLTEX1
  6

  9
$DIMLTEX2
  6

  9
$DIMTXTDIRECTION
 70
0
  9
$LUNITS
 70
2
  9
$LUPREC
 70
4
  9
$SKETCHINC
 40
1.0
  9
$FILLETRAD
 40
10.0
  9
$AUNITS
 70
0
  9
$AUPREC
 70
2
  9
$MENU
  1
.
  9
$ELEVATION
 40
0.0
  9
$PELEVATION
 40
0.0
  9
$THICKNESS
 40
0.0
  9
$LIMCHECK
 70
0
  9
$CHAMFERA
 40
0.0
  9
$CHAMFERB
 40
0.0
  9
$CHAMFERC
 40
0.0
  9
$CHAMFERD
 40
0.0
  9
$SKPOLY
 70
0
  9
$TDCREATE
 40
2461239.5304050925
  9
$TDUCREATE
 40
2458532.153996898
  9
$TDUPDATE
 40
2461239.5304050925
  9
$TDUUPDATE
 40
2458532.1544311
  9
$TDINDWG
 40
0.0
  9
$TDUSRTIMER
 40
0.0
  9
$USRTIMER
 70
1
  9
$ANGBASE
 50
0.0
  9
$ANGDIR
 70
0
  9
$PDMODE
 70
0
  9
$PDSIZE
 40
0.0
  9
$PLINEWID
 40
0.0
  9
$SPLFRAME
 70
0
  9
$SPLINETYPE
 70
6
  9
$SPLINESEGS
 70
8
  9
$HANDSEED
  5
73
  9
$SURFTAB1
 70
6
  9
$SURFTAB2
 70
6
  9
$SURFTYPE
 70
6
  9
$SURFU
 70
6
  9
$SURFV
 70
6
  9
$UCSBASE
  2

  9
$UCSNAME
  2

  9
$UCSORG
 10
0.0
 20
0.0
 30
0.0
  9
$UCSXDIR
 10
1.0
 20
0.0
 30
0.0
  9
$UCSYDIR
 10
0.0
 20
1.0
 30
0.0
  9
$UCSORTHOREF
  2

  9
$UCSORTHOVIEW
 70
0
  9
$UCSORGTOP
 10
0.0
 20
0.0
 30
0.0
  9
$UCSORGBOTTOM
 10
0.0
 20
0.0
 30
0.0
  9
$UCSORGLEFT
 10
0.0
 20
0.0
 30
0.0
  9
$UCSORGRIGHT
 10
0.0
 20
0.0
 30
0.0
  9
$UCSORGFRONT
 10
0.0
 20
0.0
 30
0.0
  9
$UCSORGBACK
 10
0.0
 20
0.0
 30
0.0
  9
$PUCSBASE
  2

  9
$PUCSNAME
  2

  9
$PUCSORG
 10
0.0
 20
0.0
 30
0.0
  9
$PUCSXDIR
 10
1.0
 20
0.0
 30
0.0
  9
$PUCSYDIR
 10
0.0
 20
1.0
 30
0.0
  9
$PUCSORTHOREF
  2

  9
$PUCSORTHOVIEW
 70
0
  9
$PUCSORGTOP
 10
0.0
 20
0.0
 30
0.0
  9
$PUCSORGBOTTOM
 10
0.0
 20
0.0
 30
0.0
  9
$PUCSORGLEFT
 10
0.0
 20
0.0
 30
0.0
  9
$PUCSORGRIGHT
 10
0.0
 20
0.0
 30
0.0
  9
$PUCSORGFRONT
 10
0.0
 20
0.0
 30
0.0
  9
$PUCSORGBACK
 10
0.0
 20
0.0
 30
0.0
  9
$USERI1
 70
0
  9
$USERI2
 70
0
  9
$USERI3
 70
0
  9
$USERI4
 70
0
  9
$USERI5
 70
0
  9
$USERR1
 40
0.0
  9
$USERR2
 40
0.0
  9
$USERR3
 40
0.0
  9
$USERR4
 40
0.0
  9
$USERR5
 40
0.0
  9
$WORLDVIEW
 70
1
  9
$SHADEDGE
 70
3
  9
$SHADEDIF
 70
70
  9
$TILEMODE
 70
1
  9
$MAXACTVP
 70
64
  9
$PINSBASE
 10
0.0
 20
0.0
 30
0.0
  9
$PLIMCHECK
 70
0
  9
$PEXTMIN
 10
1e+20
 20
1e+20
 30
1e+20
  9
$PEXTMAX
 10
-1e+20
 20
-1e+20
 30
-1e+20
  9
$PLIMMIN
 10
0.0
 20
0.0
  9
$PLIMMAX
 10
420.0
 20
297.0
  9
$UNITMODE
 70
0
  9
$VISRETAIN
 70
1
  9
$PLINEGEN
 70
0
  9
$PSLTSCALE
 70
1
  9
$TREEDEPTH
 70
3020
  9
$CMLSTYLE
  2
Standard
  9
$CMLJUST
 70
0
  9
$CMLSCALE
 40
20.0
  9
$PROXYGRAPHICS
 70
1
  9
$MEASUREMENT
 70
1
  9
$CELWEIGHT
370
-1
  9
$ENDCAPS
280
0
  9
$JOINSTYLE
280
0
  9
$LWDISPLAY
290
0
  9
$INSUNITS
 70
6
  9
$HYPERLINKBASE
  1

  9
$STYLESHEET
  1

  9
$XEDIT
290
1
  9
$CEPSNTYPE
380
0
  9
$PSTYLEMODE
290
1
  9
$FINGERPRINTGUID
  2
{9B34200A-32F2-4DDC-8EC8-021BF59835F8}
  9
$VERSIONGUID
  2
{CB4A453B-F500-4170-903C-D4A514EFCD08}
  9
$EXTNAMES
290
1
  9
$PSVPSCALE
 40
0.0
  9
$OLESTARTUP
290
0
  9
$SORTENTS
280
127
  9
$INDEXCTL
280
0
  9
$HIDETEXT
280
1
  9
$XCLIPFRAME
280
1
  9
$HALOGAP
280
0
  9
$OBSCOLOR
 70
257
  9
$OBSLTYPE
280
0
  9
$INTERSECTIONDISPLAY
280
0
  9
$INTERSECTIONCOLOR
 70
257
  9
$DIMASSOC
280
2
  9
$PROJECTNAME
  1

  9
$CAMERADISPLAY
290
0
  9
$LENSLENGTH
 40
50.0
  9
$CAMERAHEIGHT
 40
0.0
  9
$STEPSPERSEC
 40
24.0
  9
$STEPSIZE
 40
100.0
  9
$3DDWFPREC
 40
2.0
  9
$PSOLWIDTH
 40
0.005
  9
$PSOLHEIGHT
 40
0.08
  9
$LOFTANG1
 40
1.570796326795
  9
$LOFTANG2
 40
1.570796326795
  9
$LOFTMAG1
 40
0.0
  9
$LOFTMAG2
 40
0.0
  9
$LOFTPARAM
 70
7
  9
$LOFTNORMALS
280
1
  9
$LATITUDE
 40
37.795
  9
$LONGITUDE
 40
-122.394
  9
$NORTHDIRECTION
 40
0.0
  9
$TIMEZONE
 70
-8000
  9
$LIGHTGLYPHDISPLAY
280
1
  9
$TILEMODELIGHTSYNCH
280
1
  9
$CMATERIAL
347
20
  9
$SOLIDHIST
280
0
  9
$SHOWHIST
280
1
  9
$DWFFRAME
280
2
  9
$DGNFRAME
280
2
  9
$REALWORLDSCALE
290
1
  9
$INTERFERECOLOR
 62
256
  9
$CSHADOW
280
0
  9
$SHADOWPLANELOCATION
 40
0.0
  0
ENDSEC
  0
SECTION
  2
CLASSES
  0
CLASS
  1
ACDBDICTIONARYWDFLT
  2
AcDbDictionaryWithDefault
  3
ObjectDBX Classes
 90
0
 91
0
280
0
281
0
  0
CLASS
  1
SUN
  2
AcDbSun
  3
SCENEOE
 90
1153
 91
0
280
0
281
0
  0
CLASS
  1
VISUALSTYLE
  2
AcDbVisualStyle
  3
ObjectDBX Classes
 90
4095
 91
0
280
0
281
0
  0
CLASS
  1
MATERIAL
  2
AcDbMaterial
  3
ObjectDBX Classes
 90
1153
 91
0
280
0
281
0
  0
CLASS
  1
SCALE
  2
AcDbScale
  3
ObjectDBX Classes
 90
1153
 91
0
280
0
281
0
  0
CLASS
  1
TABLESTYLE
  2
AcDbTableStyle
  3
ObjectDBX Classes
 90
4095
 91
0
280
0
281
0
  0
CLASS
  1
MLEADERSTYLE
  2
AcDbMLeaderStyle
  3
ACDB_MLEADERSTYLE_CLASS
 90
4095
 91
0
280
0
281
0
  0
CLASS
  1
DICTIONARYVAR
  2
AcDbDictionaryVar
  3
ObjectDBX Classes
 90
0
 91
0
280
0
281
0
  0
CLASS
  1
CELLSTYLEMAP
  2
AcDbCellStyleMap
  3
ObjectDBX Classes
 90
1152
 91
0
280
0
281
0
  0
CLASS
  1
MENTALRAYRENDERSETTINGS
  2
AcDbMentalRayRenderSettings
  3
SCENEOE
 90
1024
 91
0
280
0
281
0
  0
CLASS
  1
ACDBDETAILVIEWSTYLE
  2
AcDbDetailViewStyle
  3
ObjectDBX Classes
 90
1025
 91
0
280
0
281
0
  0
CLASS
  1
ACDBSECTIONVIEWSTYLE
  2
AcDbSectionViewStyle
  3
ObjectDBX Classes
 90
1025
 91
0
280
0
281
0
  0
CLASS
  1
RASTERVARIABLES
  2
AcDbRasterVariables
  3
ISM
 90
0
 91
0
280
0
281
0
  0
CLASS
  1
LAYOUT
  2
AcDbLayout
  3
ObjectDBX Classes
 90
0
 91
0
280
0
281
0
  0
CLASS
  1
ACDBPLACEHOLDER
  2
AcDbPlaceHolder
  3
ObjectDBX Classes
 90
0
 91
0
280
0
281
0
  0
ENDSEC
  0
SECTION
  2
TABLES
  0
TABLE
  2
VPORT
  5
8
330
0
100
AcDbSymbolTable
 70
1
  0
VPORT
  5
23
330
8
100
AcDbSymbolTableRecord
100
AcDbViewportTableRecord
  2
*Active
 70
0
 10
0.0
 20
0.0
 11
1.0
 21
1.0
 12
0.0
 22
0.0
 13
0.0
 23
0.0
 14
0.5
 24
0.5
 15
0.5
 25
0.5
 16
0.0
 26
0.0
 36
1.0
 17
0.0
 27
0.0
 37
0.0
 40
1000.0
 41
1.34
 42
50.0
 43
0.0
 44
0.0
 50
0.0
 51
0.0
 71
0
 72
1000
 73
1
 74
3
 75
0
 76
0
 77
0
 78
0
281
0
 65
0
146
0.0
  0
ENDTAB
  0
TABLE
  2
LTYPE
  5
2
330
0
100
AcDbSymbolTable
 70
3
  0
LTYPE
  5
24
330
2
100
AcDbSymbolTableRecord
100
AcDbLinetypeTableRecord
  2
ByBlock
 70
0
  3

 72
65
 73
0
 40
0.0
  0
LTYPE
  5
25
330
2
100
AcDbSymbolTableRecord
100
AcDbLinetypeTableRecord
  2
ByLayer
 70
0
  3

 72
65
 73
0
 40
0.0
  0
LTYPE
  5
26
330
2
100
AcDbSymbolTableRecord
100
AcDbLinetypeTableRecord
  2
Continuous
 70
0
  3

 72
65
 73
0
 40
0.0
  0
ENDTAB
  0
TABLE
  2
LAYER
  5
1
330
0
100
AcDbSymbolTable
 70
4
  0
LAYER
  5
27
330
1
100
AcDbSymbolTableRecord
100
AcDbLayerTableRecord
  2
0
 70
0
 62
7
  6
Continuous
370
-3
390
13
347
21
  0
LAYER
  5
28
330
1
100
AcDbSymbolTableRecord
100
AcDbLayerTableRecord
  2
Defpoints
 70
0
 62
7
  6
Continuous
290
0
370
-3
390
13
347
21
  0
LAYER
  5
2F
330
1
100
AcDbSymbolTableRecord
100
AcDbLayerTableRecord
  2
CUT
 70
0
 62
3
  6
Continuous
370
-3
390
13
347
21
  0
LAYER
  5
30
330
1
100
AcDbSymbolTableRecord
100
AcDbLayerTableRecord
  2
FOLD
 70
0
 62
1
  6
DASHED
370
-3
390
13
347
21
  0
ENDTAB
  0
TABLE
  2
STYLE
  5
5
330
0
100
AcDbSymbolTable
 70
1
  0
STYLE
  5
29
330
5
100
AcDbSymbolTableRecord
100
AcDbTextStyleTableRecord
  2
Standard
 70
0
 40
0.0
 41
1.0
 50
0.0
 71
0
 42
2.5
  3
txt
  4

  0
ENDTAB
  0
TABLE
  2
VIEW
  5
7
330
0
100
AcDbSymbolTable
 70
0
  0
ENDTAB
  0
TABLE
  2
UCS
  5
6
330
0
100
AcDbSymbolTable
 70
0
  0
ENDTAB
  0
TABLE
  2
APPID
  5
3
330
0
100
AcDbSymbolTable
 70
3
  0
APPID
  5
2A
330
3
100
AcDbSymbolTableRecord
100
AcDbRegAppTableRecord
  2
ACAD
 70
0
  0
APPID
  5
70
330
3
100
AcDbSymbolTableRecord
100
AcDbRegAppTableRecord
  2
HATCHBACKGROUNDCOLOR
 70
0
  0
APPID
  5
71
330
3
100
AcDbSymbolTableRecord
100
AcDbRegAppTableRecord
  2
EZDXF
 70
0
  0
ENDTAB
  0
TABLE
  2
DIMSTYLE
  5
4
330
0
100
AcDbSymbolTable
 70
1
100
AcDbDimStyleTable
  0
DIMSTYLE
105
2B
330
4
100
AcDbSymbolTableRecord
100
AcDbDimStyleTableRecord
  2
Standard
 70
0
 40
1.0
 41
2.5
 42
0.625
 43
3.75
 44
1.25
 45
0.0
 46
0.0
 47
0.0
 48
0.0
 49
2.5
140
2.5
141
2.5
142
0.0
143
0.03937007874
144
1.0
145
0.0
146
1.0
147
0.625
148
0.0
 69
0
 70
0
 71
0
 72
0
 73
0
 74
0
 75
0
 76
0
 77
1
 78
8
 79
3
170
0
171
3
172
1
173
0
174
0
175
0
176
0
177
0
178
0
179
2
271
2
272
2
273
2
274
3
275
0
276
0
277
2
278
44
279
0
280
0
281
0
282
0
283
0
284
8
285
0
286
0
288
0
289
3
290
0
371
-2
372
-2
  0
ENDTAB
  0
TABLE
  2
BLOCK_RECORD
  5
9
330
0
100
AcDbSymbolTable
 70
2
  0
BLOCK_RECORD
  5
17
330
9
100
AcDbSymbolTableRecord
100
AcDbBlockTableRecord
  2
*Model_Space
340
1A
 70
0
280
1
281
0
  0
BLOCK_RECORD
  5
1B
330
9
100
AcDbSymbolTableRecord
100
AcDbBlockTableRecord
  2
*Paper_Space
340
1E
 70
0
280
1
281
0
  0
ENDTAB
  0
ENDSEC
  0
SECTION
  2
BLOCKS
  0
BLOCK
  5
18
330
17
100
AcDbEntity
  8
0
100
AcDbBlockBegin
  2
*Model_Space
 70
0
 10
0.0
 20
0.0
 30
0.0
  3
*Model_Space
  1

  0
ENDBLK
  5
19
330
17
100
AcDbEntity
  8
0
100
AcDbBlockEnd
  0
BLOCK
  5
1C
330
1B
100
AcDbEntity
  8
0
100
AcDbBlockBegin
  2
*Paper_Space
 70
0
 10
0.0
 20
0.0
 30
0.0
  3
*Paper_Space
  1

  0
ENDBLK
  5
1D
330
1B
100
AcDbEntity
  8
0
100
AcDbBlockEnd
  0
ENDSEC
  0
SECTION
  2
ENTITIES
  0
LWPOLYLINE
  5
31
330
17
100
AcDbEntity
  8
CUT
100
AcDbPolyline
 90
31
 70
0
 10
-39.99999999999999
 20
6.000000000000007
 10
-40.62717077960591
 20
5.967131372209647
 10
-41.24747014490655
 20
5.868885604402841
 10
-41.85410196624968
 20
5.706339097770929
 10
-42.440419858454796
 20
5.481272745855613
 10
-42.99999999999999
 20
5.19615242270664
 10
-43.52671151375483
 20
4.854101966249692
 10
-44.01478363815314
 20
4.458868952864373
 10
-44.45886895286436
 20
4.014783638153157
 10
-44.85410196624967
 20
3.526711513754847
 10
-45.196152422706625
 20
3.0000000000000093
 10
-45.4812727458556
 20
2.4404198584548102
 10
-45.706339097770915
 20
1.854101966249693
 10
-45.86888560440283
 20
1.247470144906564
 10
-45.96713137220963
 20
0.627170779605928
 10
-45.99999999999999
 20
9.17875397920638e-15
 10
-45.96713137220963
 20
-0.6271707796059097
 10
-45.86888560440283
 20
-1.2474701449065455
 10
-45.706339097770915
 20
-1.8541019662496747
 10
-45.4812727458556
 20
-2.44041985845479
 10
-45.196152422706625
 20
-2.999999999999989
 10
-44.85410196624967
 20
-3.5267115137548286
 10
-44.45886895286436
 20
-4.014783638153137
 10
-44.01478363815314
 20
-4.458868952864356
 10
-43.52671151375483
 20
-4.854101966249674
 10
-42.99999999999999
 20
-5.196152422706622
 10
-42.440419858454796
 20
-5.481272745855596
 10
-41.85410196624968
 20
-5.70633909777091
 10
-41.24747014490654
 20
-5.8688856044028235
 10
-40.62717077960592
 20
-5.9671313722096295
 10
-39.99999999999999
 20
-5.999999999999989
  0
LINE
  5
32
330
17
100
AcDbEntity
  8
CUT
100
AcDbLine
 10
-39.99999999999999
 20
6.00000000000001
 30
0.0
 11
-39.99999999999999
 21
-5.99999999999999
 31
0.0
  0
LWPOLYLINE
  5
33
330
17
100
AcDbEntity
  8
CUT
100
AcDbPolyline
 90
31
 70
0
 10
-19.999999999999996
 20
6.000000000000009
 10
-19.372829220394074
 20
5.967131372209648
 10
-18.752529855093442
 20
5.868885604402843
 10
-18.145898033750314
 20
5.70633909777093
 10
-17.559580141545197
 20
5.481272745855614
 10
-16.999999999999996
 20
5.196152422706641
 10
-16.473288486245156
 20
4.854101966249694
 10
-15.985216361846847
 20
4.458868952864375
 10
-15.541131047135632
 20
4.014783638153158
 10
-15.145898033750312
 20
3.5267115137548473
 10
-14.803847577293364
 20
3.0000000000000093
 10
-14.518727254144391
 20
2.4404198584548107
 10
-14.293660902229075
 20
1.8541019662496931
 10
-14.131114395597162
 20
1.247470144906564
 10
-14.032868627790357
 20
0.6271707796059292
 10
-13.999999999999996
 20
8.811359939462174e-15
 10
-14.032868627790357
 20
-0.6271707796059116
 10
-14.131114395597162
 20
-1.2474701449065462
 10
-14.293660902229075
 20
-1.8541019662496756
 10
-14.518727254144391
 20
-2.440419858454792
 10
-14.803847577293364
 20
-2.9999999999999902
 10
-15.145898033750312
 20
-3.52671151375483
 10
-15.541131047135629
 20
-4.014783638153139
 10
-15.985216361846849
 20
-4.458868952864357
 10
-16.473288486245156
 20
-4.854101966249675
 10
-16.999999999999996
 20
-5.196152422706623
 10
-17.559580141545197
 20
-5.4812727458555965
 10
-18.14589803375031
 20
-5.706339097770912
 10
-18.752529855093442
 20
-5.868885604402825
 10
-19.372829220394074
 20
-5.96713137220963
 10
-19.999999999999996
 20
-5.999999999999991
  0
LINE
  5
34
330
17
100
AcDbEntity
  8
CUT
100
AcDbLine
 10
-19.999999999999996
 20
-5.99999999999999
 30
0.0
 11
-19.999999999999996
 21
6.00000000000001
 31
0.0
  0
LWPOLYLINE
  5
35
330
17
100
AcDbEntity
  8
CUT
100
AcDbPolyline
 90
31
 70
0
 10
39.99999999999998
 20
6.000000000000013
 10
40.6271707796059
 20
5.9671313722096535
 10
41.247470144906536
 20
5.8688856044028475
 10
41.85410196624966
 20
5.706339097770935
 10
42.440419858454774
 20
5.48127274585562
 10
42.99999999999998
 20
5.196152422706646
 10
43.52671151375481
 20
4.8541019662497
 10
44.014783638153126
 20
4.458868952864381
 10
44.45886895286434
 20
4.014783638153166
 10
44.85410196624966
 20
3.5267115137548566
 10
45.196152422706604
 20
3.0000000000000187
 10
45.48127274585558
 20
2.440419858454821
 10
45.70633909777089
 20
1.854101966249705
 10
45.86888560440281
 20
1.247470144906577
 10
45.967131372209614
 20
0.6271707796059426
 10
45.99999999999998
 20
2.241159199112034e-14
 10
45.96713137220962
 20
-0.6271707796058977
 10
45.86888560440281
 20
-1.2474701449065326
 10
45.7063390977709
 20
-1.8541019662496605
 10
45.481272745855584
 20
-2.440419858454777
 10
45.19615242270661
 20
-2.9999999999999756
 10
44.854101966249665
 20
-3.526711513754813
 10
44.45886895286435
 20
-4.0147836381531254
 10
44.01478363815313
 20
-4.458868952864343
 10
43.526711513754826
 20
-4.854101966249662
 10
42.999999999999986
 20
-5.196152422706611
 10
42.44041985845479
 20
-5.481272745855584
 10
41.85410196624967
 20
-5.706339097770901
 10
41.24747014490655
 20
-5.868885604402814
 10
40.62717077960591
 20
-5.9671313722096215
 10
39.99999999999999
 20
-5.999999999999983
  0
LINE
  5
36
330
17
100
AcDbEntity
  8
CUT
100
AcDbLine
 10
39.99999999999999
 20
-5.999999999999983
 30
0.0
 11
39.99999999999998
 21
6.000000000000015
 31
0.0
  0
LWPOLYLINE
  5
37
330
17
100
AcDbEntity
  8
CUT
100
AcDbPolyline
 90
31
 70
0
 10
19.999999999999996
 20
6.000000000000015
 10
19.372829220394078
 20
5.967131372209655
 10
18.75252985509344
 20
5.868885604402848
 10
18.145898033750314
 20
5.706339097770937
 10
17.559580141545197
 20
5.481272745855621
 10
16.999999999999996
 20
5.196152422706647
 10
16.47328848624516
 20
4.854101966249701
 10
15.985216361846849
 20
4.458868952864383
 10
15.54113104713563
 20
4.014783638153164
 10
15.145898033750314
 20
3.5267115137548557
 10
14.803847577293366
 20
3.000000000000018
 10
14.518727254144393
 20
2.440419858454821
 10
14.293660902229075
 20
1.8541019662497014
 10
14.131114395597162
 20
1.2474701449065693
 10
14.032868627790357
 20
0.6271707796059359
 10
13.999999999999996
 20
1.6852435962602022e-14
 10
14.032868627790357
 20
-0.6271707796059022
 10
14.131114395597162
 20
-1.2474701449065357
 10
14.293660902229075
 20
-1.8541019662496676
 10
14.518727254144391
 20
-2.4404198584547827
 10
14.803847577293363
 20
-2.99999999999998
 10
15.14589803375031
 20
-3.526711513754822
 10
15.541131047135629
 20
-4.014783638153132
 10
15.985216361846847
 20
-4.458868952864351
 10
16.473288486245156
 20
-4.854101966249668
 10
17.0
 20
-5.196152422706618
 10
17.559580141545194
 20
-5.48127274585559
 10
18.14589803375031
 20
-5.706339097770906
 10
18.752529855093442
 20
-5.868885604402819
 10
19.37282922039407
 20
-5.967131372209624
 10
19.999999999999993
 20
-5.999999999999985
  0
LINE
  5
38
330
17
100
AcDbEntity
  8
CUT
100
AcDbLine
 10
19.999999999999996
 20
6.000000000000017
 30
0.0
 11
19.999999999999996
 21
-5.999999999999983
 31
0.0
  0
LWPOLYLINE
  5
39
330
17
100
AcDbEntity
  8
CUT
100
AcDbPolyline
 90
31
 70
0
 10
19.999999999999996
 20
35.000000000000014
 10
19.03509074526125
 20
33.79304716118206
 10
17.997458763112483
 20
32.64801227322745
 10
16.891068280927207
 20
31.569269891589908
 10
15.720146214905707
 20
30.560941304116984
 10
14.489166021327506
 20
29.626878785851005
 10
13.202830605908298
 20
28.77065088158164
 10
11.866054356555418
 20
27.995528772377387
 10
10.483944368164854
 20
27.304473778182103
 10
9.061780931189723
 20
26.70012604422235
 10
7.604997358522709
 20
26.184794454448603
 10
6.119159227763005
 20
25.76044781054563
 10
4.609943118171758
 20
25.428707310212186
 10
3.0831149235505637
 20
25.19084035344649
 10
1.5445078238976095
 20
25.04775570050024
 10
1.9748977087842535e-15
 20
25.000000000000014
 10
-1.5445078238976166
 20
25.04775570050024
 10
-3.0831149235505597
 20
25.19084035344649
 10
-4.60994311817176
 20
25.428707310212186
 10
-6.119159227763001
 20
25.760447810545628
 10
-7.604997358522706
 20
26.184794454448603
 10
-9.061780931189721
 20
26.70012604422235
 10
-10.483944368164847
 20
27.3044737781821
 10
-11.866054356555416
 20
27.995528772377384
 10
-13.202830605908302
 20
28.77065088158164
 10
-14.489166021327511
 20
29.62687878585101
 10
-15.720146214905709
 20
30.560941304116987
 10
-16.891068280927204
 20
31.569269891589908
 10
-17.997458763112483
 20
32.64801227322746
 10
-19.035090745261257
 20
33.793047161182066
 10
-20.0
 20
35.00000000000002
  0
LINE
  5
3A
330
17
100
AcDbEntity
  8
CUT
100
AcDbLine
 10
20.0
 20
35.000000000000014
 30
0.0
 11
20.0
 21
41.000000000000014
 31
0.0
  0
LINE
  5
3B
330
17
100
AcDbEntity
  8
CUT
100
AcDbLine
 10
48.00000000000002
 20
41.00000000000002
 30
0.0
 11
20.0
 21
41.000000000000014
 31
0.0
  0
LINE
  5
3C
330
17
100
AcDbEntity
  8
CUT
100
AcDbLine
 10
48.00000000000002
 20
35.00000000000002
 30
0.0
 11
48.00000000000002
 21
41.00000000000002
 31
0.0
  0
LINE
  5
3D
330
17
100
AcDbEntity
  8
CUT
100
AcDbLine
 10
61.19468914507712
 20
35.00000000000002
 30
0.0
 11
48.00000000000002
 21
35.00000000000002
 31
0.0
  0
LINE
  5
3E
330
17
100
AcDbEntity
  8
CUT
100
AcDbLine
 10
61.19468914507712
 20
35.000000000000014
 30
0.0
 11
61.19468914507712
 21
41.000000000000014
 31
0.0
  0
LINE
  5
3F
330
17
100
AcDbEntity
  8
CUT
100
AcDbLine
 10
84.19468914507716
 20
41.00000000000001
 30
0.0
 11
61.19468914507713
 21
41.000000000000014
 31
0.0
  0
LINE
  5
40
330
17
100
AcDbEntity
  8
CUT
100
AcDbLine
 10
84.19468914507715
 20
41.00000000000001
 30
0.0
 11
84.19468914507715
 21
35.000000000000014
 31
0.0
  0
LWPOLYLINE
  5
41
330
17
100
AcDbEntity
  8
CUT
100
AcDbPolyline
 90
31
 70
0
 10
84.19468914507715
 20
-34.99999999999997
 10
87.85318535944502
 20
-34.808266337889535
 10
91.47159832369873
 20
-34.23516602568317
 10
95.01028394820031
 20
-33.28697807033034
 10
98.43047165273015
 20
-31.974091017491002
 10
101.69468914507715
 20
-30.310889132455326
 10
104.76717297531371
 20
-28.315594803123133
 10
107.61426036763719
 20
-26.01006889170877
 10
110.20475803678595
 20
-23.41957122256001
 10
112.51028394820031
 20
-20.572483830236532
 10
114.50557827753249
 20
-17.499999999999975
 10
116.16878016256818
 20
-14.235782507652987
 10
117.48166721540753
 20
-10.815594803123135
 10
118.42985517076035
 20
-7.276909178621547
 10
119.00295548296671
 20
-3.6584962143678443
 10
119.19468914507715
 20
2.455340230092803e-14
 10
119.00295548296671
 20
3.658496214367893
 10
118.42985517076035
 20
7.276909178621596
 10
117.48166721540753
 20
10.815594803123183
 10
116.16878016256818
 20
14.23578250765303
 10
114.5055782775325
 20
17.50000000000002
 10
112.51028394820031
 20
20.572483830236585
 10
110.20475803678596
 20
23.419571222560055
 10
107.61426036763717
 20
26.01006889170883
 10
104.76717297531371
 20
28.315594803123187
 10
101.69468914507715
 20
30.310889132455383
 10
98.43047165273015
 20
31.974091017491062
 10
95.01028394820031
 20
33.2869780703304
 10
91.47159832369873
 20
34.23516602568323
 10
87.85318535944504
 20
34.80826633788959
 10
84.19468914507715
 20
35.00000000000003
  0
LINE
  5
42
330
17
100
AcDbEntity
  8
CUT
100
AcDbLine
 10
84.19468914507715
 20
-40.999999999999986
 30
0.0
 11
84.19468914507715
 21
-34.99999999999999
 31
0.0
  0
LINE
  5
43
330
17
100
AcDbEntity
  8
CUT
100
AcDbLine
 10
61.19468914507711
 20
-40.99999999999998
 30
0.0
 11
84.19468914507715
 21
-40.999999999999986
 31
0.0
  0
LINE
  5
44
330
17
100
AcDbEntity
  8
CUT
100
AcDbLine
 10
61.19468914507712
 20
-34.999999999999986
 30
0.0
 11
61.19468914507712
 21
-40.999999999999986
 31
0.0
  0
LINE
  5
45
330
17
100
AcDbEntity
  8
CUT
100
AcDbLine
 10
48.00000000000002
 20
-34.99999999999998
 30
0.0
 11
61.19468914507712
 21
-34.99999999999998
 31
0.0
  0
LINE
  5
46
330
17
100
AcDbEntity
  8
CUT
100
AcDbLine
 10
48.00000000000002
 20
-34.999999999999986
 30
0.0
 11
48.00000000000002
 21
-40.999999999999986
 31
0.0
  0
LINE
  5
47
330
17
100
AcDbEntity
  8
CUT
100
AcDbLine
 10
20.0
 20
-41.0
 30
0.0
 11
48.00000000000002
 21
-40.99999999999999
 31
0.0
  0
LINE
  5
48
330
17
100
AcDbEntity
  8
CUT
100
AcDbLine
 10
19.999999999999996
 20
-35.0
 30
0.0
 11
20.0
 21
-41.0
 31
0.0
  0
LWPOLYLINE
  5
49
330
17
100
AcDbEntity
  8
CUT
100
AcDbPolyline
 90
31
 70
0
 10
-19.999999999999993
 20
-35.0
 10
-19.035090745261243
 20
-33.793047161182045
 10
-17.997458763112476
 20
-32.64801227322744
 10
-16.8910682809272
 20
-31.569269891589894
 10
-15.7201462149057
 20
-30.560941304116966
 10
-14.489166021327499
 20
-29.626878785850987
 10
-13.202830605908295
 20
-28.770650881581624
 10
-11.866054356555416
 20
-27.995528772377373
 10
-10.483944368164847
 20
-27.304473778182086
 10
-9.061780931189721
 20
-26.700126044222337
 10
-7.604997358522706
 20
-26.18479445444859
 10
-6.119159227763001
 20
-25.760447810545617
 10
-4.60994311817176
 20
-25.42870731021217
 10
-3.0831149235505584
 20
-25.190840353446475
 10
-1.544507823897615
 20
-25.047755700500225
 10
4.117451138846292e-15
 20
-25.0
 10
1.5445078238976122
 20
-25.047755700500225
 10
3.083114923550567
 20
-25.190840353446475
 10
4.609943118171762
 20
-25.42870731021217
 10
6.119159227762999
 20
-25.76044781054561
 10
7.6049973585227075
 20
-26.184794454448586
 10
9.061780931189718
 20
-26.70012604422233
 10
10.483944368164856
 20
-27.304473778182086
 10
11.866054356555415
 20
-27.995528772377366
 10
13.202830605908302
 20
-28.770650881581624
 10
14.489166021327504
 20
-29.626878785850984
 10
15.72014621490571
 20
-30.560941304116966
 10
16.891068280927207
 20
-31.569269891589887
 10
17.997458763112483
 20
-32.64801227322743
 10
19.035090745261257
 20
-33.79304716118204
 10
20.0
 20
-34.99999999999999
  0
LINE
  5
4A
330
17
100
AcDbEntity
  8
CUT
100
AcDbLine
 10
-19.999999999999996
 20
-35.0
 30
0.0
 11
-19.999999999999996
 21
-41.0
 31
0.0
  0
LINE
  5
4B
330
17
100
AcDbEntity
  8
CUT
100
AcDbLine
 10
-48.00000000000002
 20
-40.99999999999999
 30
0.0
 11
-19.999999999999996
 21
-41.0
 31
0.0
  0
LINE
  5
4C
330
17
100
AcDbEntity
  8
CUT
100
AcDbLine
 10
-48.00000000000002
 20
-35.0
 30
0.0
 11
-48.00000000000002
 21
-41.0
 31
0.0
  0
LINE
  5
4D
330
17
100
AcDbEntity
  8
CUT
100
AcDbLine
 10
-61.19468914507712
 20
-34.99999999999999
 30
0.0
 11
-48.00000000000002
 21
-34.99999999999999
 31
0.0
  0
LINE
  5
4E
330
17
100
AcDbEntity
  8
CUT
100
AcDbLine
 10
-61.19468914507711
 20
-34.999999999999986
 30
0.0
 11
-61.19468914507711
 21
-40.99999999999999
 31
0.0
  0
LINE
  5
4F
330
17
100
AcDbEntity
  8
CUT
100
AcDbLine
 10
-109.19468914507716
 20
-41.0
 30
0.0
 11
-61.19468914507712
 21
-41.0
 31
0.0
  0
LINE
  5
50
330
17
100
AcDbEntity
  8
CUT
100
AcDbLine
 10
-109.19468914507716
 20
-40.99999999999999
 30
0.0
 11
-109.19468914507716
 21
-34.99999999999999
 31
0.0
  0
LINE
  5
51
330
17
100
AcDbEntity
  8
CUT
100
AcDbLine
 10
-115.19468914507715
 20
-34.99999999999999
 30
0.0
 11
-109.19468914507715
 21
-34.99999999999999
 31
0.0
  0
LINE
  5
52
330
17
100
AcDbEntity
  8
CUT
100
AcDbLine
 10
-115.19468914507718
 20
-7.499999999999986
 30
0.0
 11
-115.19468914507718
 21
-34.99999999999999
 31
0.0
  0
LINE
  5
53
330
17
100
AcDbEntity
  8
CUT
100
AcDbLine
 10
-115.19468914507716
 20
-7.499999999999982
 30
0.0
 11
-109.19468914507715
 21
-7.499999999999982
 31
0.0
  0
LINE
  5
54
330
17
100
AcDbEntity
  8
CUT
100
AcDbLine
 10
-109.19468914507718
 20
-1.4999999999999858
 30
0.0
 11
-109.19468914507718
 21
-7.499999999999993
 31
0.0
  0
LINE
  5
55
330
17
100
AcDbEntity
  8
CUT
100
AcDbLine
 10
-74.19468914507716
 20
-1.499999999999985
 30
0.0
 11
-109.19468914507718
 21
-1.4999999999999858
 31
0.0
  0
LINE
  5
56
330
17
100
AcDbEntity
  8
CUT
100
AcDbLine
 10
-74.19468914507715
 20
-1.4999999999999858
 30
0.0
 11
-74.19468914507715
 21
-7.499999999999986
 31
0.0
  0
LWPOLYLINE
  5
57
330
17
100
AcDbEntity
  8
CUT
100
AcDbPolyline
 90
31
 70
0
 10
-74.19468914507715
 20
7.500000000000016
 10
-73.41072567056975
 20
7.458914215262066
 10
-72.63535146394395
 20
7.336107005503559
 10
-71.87706168726504
 20
7.132923872213667
 10
-71.14416432200865
 20
6.851590932319523
 10
-70.44468914507715
 20
6.495190528383305
 10
-69.7862997528836
 20
6.067627457812121
 10
-69.17620959738571
 20
5.573586191080472
 10
-68.6211029539967
 20
5.018479547691452
 10
-68.12706168726504
 20
4.4083893921935635
 10
-67.69949861669386
 20
3.7500000000000155
 10
-67.34309821275764
 20
3.050524823068518
 10
-67.0617652728635
 20
2.317627457812121
 10
-66.8585821395736
 20
1.5593376811332107
 10
-66.7357749298151
 20
0.7839634745074155
 10
-66.69468914507715
 20
1.515337099581014e-14
 10
-66.7357749298151
 20
-0.7839634745073853
 10
-66.85858213957361
 20
-1.5593376811331803
 10
-67.0617652728635
 20
-2.3176274578120903
 10
-67.34309821275764
 20
-3.0505248230684856
 10
-67.69949861669386
 20
-3.7499999999999853
 10
-68.12706168726504
 20
-4.4083893921935315
 10
-68.6211029539967
 20
-5.01847954769142
 10
-69.17620959738571
 20
-5.573586191080442
 10
-69.78629975288361
 20
-6.067627457812091
 10
-70.44468914507715
 20
-6.495190528383276
 10
-71.14416432200865
 20
-6.851590932319492
 10
-71.87706168726504
 20
-7.132923872213636
 10
-72.63535146394396
 20
-7.336107005503527
 10
-73.41072567056975
 20
-7.458914215262035
 10
-74.19468914507715
 20
-7.499999999999984
  0
LINE
  5
58
330
17
100
AcDbEntity
  8
CUT
100
AcDbLine
 10
-74.19468914507715
 20
1.5000000000000142
 30
0.0
 11
-74.19468914507715
 21
7.500000000000014
 31
0.0
  0
LINE
  5
59
330
17
100
AcDbEntity
  8
CUT
100
AcDbLine
 10
-109.19468914507716
 20
1.500000000000007
 30
0.0
 11
-74.19468914507715
 21
1.500000000000008
 31
0.0
  0
LINE
  5
5A
330
17
100
AcDbEntity
  8
CUT
100
AcDbLine
 10
-109.19468914507716
 20
1.500000000000007
 30
0.0
 11
-109.19468914507716
 21
7.500000000000014
 31
0.0
  0
LINE
  5
5B
330
17
100
AcDbEntity
  8
CUT
100
AcDbLine
 10
-115.19468914507716
 20
7.500000000000017
 30
0.0
 11
-109.19468914507715
 21
7.500000000000017
 31
0.0
  0
LINE
  5
5C
330
17
100
AcDbEntity
  8
CUT
100
AcDbLine
 10
-115.19468914507718
 20
35.00000000000001
 30
0.0
 11
-115.19468914507718
 21
7.500000000000017
 31
0.0
  0
LINE
  5
5D
330
17
100
AcDbEntity
  8
CUT
100
AcDbLine
 10
-115.19468914507716
 20
35.00000000000001
 30
0.0
 11
-109.19468914507715
 21
35.00000000000001
 31
0.0
  0
LINE
  5
5E
330
17
100
AcDbEntity
  8
CUT
100
AcDbLine
 10
-109.19468914507716
 20
41.00000000000003
 30
0.0
 11
-109.19468914507716
 21
35.00000000000002
 31
0.0
  0
LINE
  5
5F
330
17
100
AcDbEntity
  8
CUT
100
AcDbLine
 10
-61.19468914507712
 20
41.00000000000003
 30
0.0
 11
-109.19468914507716
 21
41.00000000000003
 31
0.0
  0
LINE
  5
60
330
17
100
AcDbEntity
  8
CUT
100
AcDbLine
 10
-61.19468914507712
 20
35.000000000000014
 30
0.0
 11
-61.19468914507712
 21
41.000000000000014
 31
0.0
  0
LINE
  5
61
330
17
100
AcDbEntity
  8
CUT
100
AcDbLine
 10
-48.00000000000002
 20
35.00000000000001
 30
0.0
 11
-61.19468914507712
 21
35.00000000000001
 31
0.0
  0
LINE
  5
62
330
17
100
AcDbEntity
  8
CUT
100
AcDbLine
 10
-48.00000000000002
 20
35.000000000000014
 30
0.0
 11
-48.00000000000002
 21
41.000000000000014
 31
0.0
  0
LINE
  5
63
330
17
100
AcDbEntity
  8
CUT
100
AcDbLine
 10
-20.000000000000004
 20
41.000000000000014
 30
0.0
 11
-48.00000000000002
 21
41.00000000000001
 31
0.0
  0
LINE
  5
64
330
17
100
AcDbEntity
  8
CUT
100
AcDbLine
 10
-20.000000000000004
 20
35.000000000000014
 30
0.0
 11
-20.000000000000004
 21
41.000000000000014
 31
0.0
  0
LWPOLYLINE
  5
65
330
17
100
AcDbEntity
  8
CUT
100
AcDbPolyline
 90
31
 70
0
 10
107.19468914507718
 20
2.962804165118386e-14
 10
107.1291319472786
 20
-0.6237350724532484
 10
106.93532551800499
 20
-1.2202099292273711
 10
106.62174012820202
 20
-1.7633557568773903
 10
106.20208096415375
 20
-2.2294344764321536
 10
105.69468914507718
 20
-2.5980762113532876
 10
105.12174012820202
 20
-2.8531695488854334
 10
104.50827453488014
 20
-2.983565686104793
 10
103.88110375527422
 20
-2.983565686104794
 10
103.26763816195233
 20
-2.853169548885435
 10
102.69468914507718
 20
-2.598076211353291
 10
102.1872973260006
 20
-2.229434476432159
 10
101.76763816195233
 20
-1.7633557568773959
 10
101.45405277214938
 20
-1.2202099292273765
 10
101.26024634287576
 20
-0.6237350724532547
 10
101.19468914507718
 20
2.2851180281229387e-14
 10
101.26024634287576
 20
0.6237350724533005
 10
101.45405277214937
 20
1.220209929227423
 10
101.76763816195233
 20
1.763355756877443
 10
102.1872973260006
 20
2.229434476432206
 10
102.69468914507718
 20
2.59807621135334
 10
103.26763816195233
 20
2.853169548885486
 10
103.88110375527421
 20
2.9835656861048454
 10
104.50827453488013
 20
2.9835656861048463
 10
105.12174012820202
 20
2.8531695488854885
 10
105.69468914507718
 20
2.5980762113533444
 10
106.20208096415375
 20
2.2294344764322105
 10
106.62174012820202
 20
1.7633557568774492
 10
106.93532551800497
 20
1.2202099292274298
 10
107.1291319472786
 20
0.6237350724533092
 10
107.19468914507718
 20
3.036282973067227e-14
  0
LWPOLYLINE
  5
66
330
17
100
AcDbEntity
  8
CUT
100
AcDbPolyline
 90
31
 70
0
 10
61.19468914507718
 20
-3.922812264617403e-13
 10
61.26024634287576
 20
0.6237350724528858
 10
61.454052772149375
 20
1.2202099292270085
 10
61.767638161952334
 20
1.7633557568770275
 10
62.1872973260006
 20
2.229434476431791
 10
62.69468914507718
 20
2.5980762113529243
 10
63.267638161952334
 20
2.8531695488850692
 10
63.88110375527422
 20
2.9835656861044284
 10
64.50827453488014
 20
2.983565686104429
 10
65.12174012820202
 20
2.8531695488850697
 10
65.69468914507718
 20
2.5980762113529248
 10
66.20208096415375
 20
2.2294344764317917
 10
66.62174012820202
 20
1.763355756877028
 10
66.93532551800499
 20
1.220209929227008
 10
67.1291319472786
 20
0.6237350724528858
 10
67.19468914507718
 20
-3.9191383242199606e-13
 10
67.1291319472786
 20
-0.6237350724536697
 10
66.93532551800499
 20
-1.2202099292277921
 10
66.62174012820202
 20
-1.763355756877812
 10
66.20208096415375
 20
-2.2294344764325746
 10
65.69468914507718
 20
-2.598076211353708
 10
65.12174012820202
 20
-2.8531695488858535
 10
64.50827453488014
 20
-2.9835656861052127
 10
63.88110375527422
 20
-2.9835656861052127
 10
63.267638161952334
 20
-2.853169548885854
 10
62.69468914507718
 20
-2.5980762113537086
 10
62.1872973260006
 20
-2.2294344764325746
 10
61.767638161952334
 20
-1.7633557568778129
 10
61.454052772149375
 20
-1.2202099292277933
 10
61.26024634287576
 20
-0.623735072453672
 10
61.19468914507718
 20
-3.930160145412287e-13
  0
LWPOLYLINE
  5
67
330
17
100
AcDbEntity
  8
CUT
100
AcDbPolyline
 90
31
 70
0
 10
87.19468914507738
 20
-20.00000000000025
 10
87.1291319472788
 20
-20.623735072453528
 10
86.93532551800519
 20
-21.22020992922765
 10
86.62174012820222
 20
-21.76335575687767
 10
86.20208096415395
 20
-22.22943447643243
 10
85.69468914507738
 20
-22.598076211353565
 10
85.12174012820222
 20
-22.85316954888571
 10
84.50827453488034
 20
-22.98356568610507
 10
83.88110375527441
 20
-22.98356568610507
 10
83.26763816195253
 20
-22.85316954888571
 10
82.69468914507738
 20
-22.598076211353565
 10
82.1872973260008
 20
-22.229434476432434
 10
81.76763816195253
 20
-21.76335575687767
 10
81.45405277214957
 20
-21.22020992922765
 10
81.26024634287596
 20
-20.623735072453528
 10
81.19468914507738
 20
-20.00000000000025
 10
81.26024634287596
 20
-19.37626492754697
 10
81.45405277214957
 20
-18.779790070772847
 10
81.76763816195253
 20
-18.23664424312283
 10
82.1872973260008
 20
-17.770565523568067
 10
82.69468914507738
 20
-17.401923788646933
 10
83.26763816195253
 20
-17.146830451114788
 10
83.88110375527441
 20
-17.016434313895427
 10
84.50827453488034
 20
-17.016434313895427
 10
85.12174012820222
 20
-17.146830451114788
 10
85.69468914507738
 20
-17.401923788646933
 10
86.20208096415395
 20
-17.770565523568067
 10
86.62174012820222
 20
-18.23664424312283
 10
86.93532551800519
 20
-18.779790070772847
 10
87.1291319472788
 20
-19.37626492754697
 10
87.19468914507738
 20
-20.00000000000025
  0
LWPOLYLINE
  5
68
330
17
100
AcDbEntity
  8
CUT
100
AcDbPolyline
 90
31
 70
0
 10
96.69468914507715
 20
2.3634917201567518e-14
 10
96.42153415424971
 20
-2.5988961352219673
 10
95.61400736560965
 20
-5.0842080384474775
 10
94.30740157476399
 20
-7.3473156536558895
 10
92.55882172456288
 20
-9.2893103184674
 10
90.44468914507715
 20
-10.825317547305454
 10
88.05740157476399
 20
-11.888206453689389
 10
85.50129493592281
 20
-12.431523692103385
 10
82.88808335423147
 20
-12.431523692103385
 10
80.3319767153903
 20
-11.888206453689387
 10
77.94468914507715
 20
-10.825317547305449
 10
75.83055656559142
 20
-9.289310318467393
 10
74.0819767153903
 20
-7.347315653655876
 10
72.77537092454463
 20
-5.084208038447461
 10
71.96784413590457
 20
-2.5988961352219513
 10
71.69468914507715
 20
3.878312051790731e-14
 10
71.96784413590458
 20
2.598896135222028
 10
72.77537092454463
 20
5.084208038447538
 10
74.08197671539031
 20
7.347315653655952
 10
75.83055656559142
 20
9.289310318467463
 10
77.94468914507715
 20
10.825317547305517
 10
80.33197671539031
 20
11.888206453689453
 10
82.88808335423148
 20
12.431523692103449
 10
85.50129493592283
 20
12.431523692103449
 10
88.057401574764
 20
11.88820645368945
 10
90.44468914507716
 20
10.825317547305511
 10
92.55882172456289
 20
9.289310318467452
 10
94.307401574764
 20
7.347315653655942
 10
95.61400736560967
 20
5.0842080384475254
 10
96.42153415424971
 20
2.5988961352220223
 10
96.69468914507715
 20
2.6696534199435903e-14
  0
LWPOLYLINE
  5
69
330
17
100
AcDbEntity
  8
CUT
100
AcDbPolyline
 90
31
 70
0
 10
87.19468914507702
 20
20.000000000000025
 10
87.12913194727844
 20
19.376264927546778
 10
86.93532551800483
 20
18.779790070772684
 10
86.62174012820189
 20
18.23664424312269
 10
86.20208096415364
 20
17.77056552356795
 10
85.69468914507709
 20
17.401923788646833
 10
85.12174012820196
 20
17.1468304511147
 10
84.50827453488012
 20
17.016434313895346
 10
83.88110375527422
 20
17.016434313895346
 10
83.26763816195236
 20
17.1468304511147
 10
82.69468914507723
 20
17.401923788646833
 10
82.18729732600069
 20
17.770565523567946
 10
81.76763816195243
 20
18.23664424312269
 10
81.4540527721495
 20
18.779790070772684
 10
81.26024634287589
 20
19.376264927546778
 10
81.1946891450773
 20
20.000000000000025
 10
81.26024634287589
 20
20.62373507245327
 10
81.4540527721495
 20
21.220209929227366
 10
81.76763816195243
 20
21.76335575687736
 10
82.18729732600069
 20
22.2294344764321
 10
82.69468914507723
 20
22.598076211353217
 10
83.26763816195236
 20
22.85316954888535
 10
83.88110375527421
 20
22.983565686104704
 10
84.50827453488012
 20
22.983565686104704
 10
85.12174012820196
 20
22.85316954888535
 10
85.69468914507709
 20
22.598076211353217
 10
86.20208096415364
 20
22.2294344764321
 10
86.62174012820189
 20
21.76335575687736
 10
86.93532551800483
 20
21.220209929227366
 10
87.12913194727844
 20
20.623735072453275
 10
87.19468914507702
 20
20.000000000000025
  0
LWPOLYLINE
  5
6A
330
17
100
AcDbEntity
  8
CUT
100
AcDbPolyline
 90
31
 70
0
 10
-96.19468914507715
 20
-24.99999999999999
 10
-96.26024634287573
 20
-25.623735072453268
 10
-96.45405277214934
 20
-26.22020992922739
 10
-96.7676381619523
 20
-26.76335575687741
 10
-97.18729732600058
 20
-27.229434476432175
 10
-97.69468914507715
 20
-27.59807621135331
 10
-98.2676381619523
 20
-27.853169548885454
 10
-98.88110375527418
 20
-27.98356568610481
 10
-99.5082745348801
 20
-27.983565686104814
 10
-100.12174012820199
 20
-27.853169548885454
 10
-100.69468914507715
 20
-27.59807621135331
 10
-101.20208096415372
 20
-27.22943447643218
 10
-101.62174012820199
 20
-26.763355756877417
 10
-101.93532551800494
 20
-26.220209929227398
 10
-102.12913194727857
 20
-25.623735072453275
 10
-102.19468914507715
 20
-24.999999999999996
 10
-102.12913194727857
 20
-24.376264927546718
 10
-101.93532551800496
 20
-23.779790070772595
 10
-101.62174012820199
 20
-23.236644243122576
 10
-101.20208096415372
 20
-22.770565523567814
 10
-100.69468914507715
 20
-22.40192378864668
 10
-100.12174012820199
 20
-22.146830451114532
 10
-99.50827453488012
 20
-22.016434313895175
 10
-98.8811037552742
 20
-22.01643431389517
 10
-98.2676381619523
 20
-22.146830451114532
 10
-97.69468914507715
 20
-22.401923788646677
 10
-97.18729732600058
 20
-22.770565523567807
 10
-96.7676381619523
 20
-23.23664424312257
 10
-96.45405277214935
 20
-23.779790070772588
 10
-96.26024634287573
 20
-24.37626492754671
 10
-96.19468914507715
 20
-24.99999999999999
  0
LWPOLYLINE
  5
6B
330
17
100
AcDbEntity
  8
CUT
100
AcDbPolyline
 90
31
 70
0
 10
-71.19468914507715
 20
-24.99999999999999
 10
-71.26024634287573
 20
-25.623735072453268
 10
-71.45405277214935
 20
-26.22020992922739
 10
-71.7676381619523
 20
-26.76335575687741
 10
-72.18729732600058
 20
-27.22943447643217
 10
-72.69468914507715
 20
-27.598076211353302
 10
-73.2676381619523
 20
-27.853169548885447
 10
-73.8811037552742
 20
-27.983565686104807
 10
-74.50827453488012
 20
-27.983565686104804
 10
-75.12174012820199
 20
-27.853169548885447
 10
-75.69468914507715
 20
-27.598076211353302
 10
-76.20208096415372
 20
-27.229434476432168
 10
-76.62174012820199
 20
-26.763355756877402
 10
-76.93532551800496
 20
-26.220209929227384
 10
-77.12913194727857
 20
-25.62373507245326
 10
-77.19468914507715
 20
-24.999999999999982
 10
-77.12913194727857
 20
-24.376264927546707
 10
-76.93532551800494
 20
-23.779790070772584
 10
-76.62174012820199
 20
-23.236644243122562
 10
-76.20208096415372
 20
-22.7705655235678
 10
-75.69468914507715
 20
-22.40192378864667
 10
-75.12174012820199
 20
-22.146830451114525
 10
-74.5082745348801
 20
-22.016434313895164
 10
-73.88110375527418
 20
-22.016434313895168
 10
-73.2676381619523
 20
-22.146830451114525
 10
-72.69468914507715
 20
-22.40192378864667
 10
-72.18729732600058
 20
-22.770565523567807
 10
-71.7676381619523
 20
-23.23664424312257
 10
-71.45405277214934
 20
-23.779790070772588
 10
-71.26024634287573
 20
-24.37626492754671
 10
-71.19468914507715
 20
-24.99999999999999
  0
LWPOLYLINE
  5
6C
330
17
100
AcDbEntity
  8
CUT
100
AcDbPolyline
 90
31
 70
0
 10
-71.19468914507715
 20
25.00000000000001
 10
-71.26024634287573
 20
24.376264927546732
 10
-71.45405277214935
 20
23.77979007077261
 10
-71.7676381619523
 20
23.23664424312259
 10
-72.18729732600058
 20
22.77056552356783
 10
-72.69468914507715
 20
22.401923788646698
 10
-73.2676381619523
 20
22.146830451114553
 10
-73.8811037552742
 20
22.016434313895193
 10
-74.50827453488012
 20
22.016434313895196
 10
-75.12174012820199
 20
22.146830451114553
 10
-75.69468914507715
 20
22.401923788646698
 10
-76.20208096415372
 20
22.770565523567832
 10
-76.62174012820199
 20
23.236644243122598
 10
-76.93532551800496
 20
23.779790070772616
 10
-77.12913194727857
 20
24.37626492754674
 10
-77.19468914507715
 20
25.000000000000018
 10
-77.12913194727857
 20
25.623735072453293
 10
-76.93532551800494
 20
26.220209929227416
 10
-76.62174012820199
 20
26.763355756877438
 10
-76.20208096415372
 20
27.2294344764322
 10
-75.69468914507715
 20
27.59807621135333
 10
-75.12174012820199
 20
27.853169548885475
 10
-74.5082745348801
 20
27.983565686104836
 10
-73.88110375527418
 20
27.983565686104832
 10
-73.2676381619523
 20
27.853169548885475
 10
-72.69468914507715
 20
27.59807621135333
 10
-72.18729732600058
 20
27.229434476432193
 10
-71.7676381619523
 20
26.76335575687743
 10
-71.45405277214934
 20
26.220209929227412
 10
-71.26024634287573
 20
25.62373507245329
 10
-71.19468914507715
 20
25.00000000000001
  0
LWPOLYLINE
  5
6D
330
17
100
AcDbEntity
  8
CUT
100
AcDbPolyline
 90
31
 70
0
 10
-96.19468914507715
 20
25.00000000000001
 10
-96.26024634287573
 20
24.376264927546732
 10
-96.45405277214934
 20
23.77979007077261
 10
-96.7676381619523
 20
23.23664424312259
 10
-97.18729732600058
 20
22.770565523567825
 10
-97.69468914507715
 20
22.40192378864669
 10
-98.2676381619523
 20
22.146830451114546
 10
-98.88110375527418
 20
22.01643431389519
 10
-99.5082745348801
 20
22.016434313895186
 10
-100.12174012820199
 20
22.146830451114546
 10
-100.69468914507715
 20
22.40192378864669
 10
-101.20208096415372
 20
22.77056552356782
 10
-101.62174012820199
 20
23.236644243122583
 10
-101.93532551800494
 20
23.779790070772602
 10
-102.12913194727857
 20
24.376264927546725
 10
-102.19468914507715
 20
25.000000000000004
 10
-102.12913194727857
 20
25.623735072453282
 10
-101.93532551800496
 20
26.220209929227405
 10
-101.62174012820199
 20
26.763355756877424
 10
-101.20208096415372
 20
27.229434476432186
 10
-100.69468914507715
 20
27.59807621135332
 10
-100.12174012820199
 20
27.853169548885468
 10
-99.50827453488012
 20
27.983565686104825
 10
-98.8811037552742
 20
27.98356568610483
 10
-98.2676381619523
 20
27.853169548885468
 10
-97.69468914507715
 20
27.598076211353323
 10
-97.18729732600058
 20
27.229434476432193
 10
-96.7676381619523
 20
26.76335575687743
 10
-96.45405277214935
 20
26.220209929227412
 10
-96.26024634287573
 20
25.62373507245329
 10
-96.19468914507715
 20
25.00000000000001
  0
LINE
  5
6E
330
17
100
AcDbEntity
  8
FOLD
  6
DASHED
100
AcDbLine
 10
-54.597344572538574
 20
-51.0
 30
0.0
 11
-54.597344572538574
 21
51.000000000000036
 31
0.0
  0
LINE
  5
6F
330
17
100
AcDbEntity
  8
FOLD
  6
DASHED
100
AcDbLine
 10
54.597344572538574
 20
51.00000000000003
 30
0.0
 11
54.597344572538574
 21
-51.00000000000001
 31
0.0
  0
ENDSEC
  0
SECTION
  2
OBJECTS
  0
DICTIONARY
  5
A
330
0
100
AcDbDictionary
281
1
  3
ACAD_COLOR
350
B
  3
ACAD_GROUP
350
C
  3
ACAD_LAYOUT
350
D
  3
ACAD_MATERIAL
350
E
  3
ACAD_MLEADERSTYLE
350
F
  3
ACAD_MLINESTYLE
350
10
  3
ACAD_PLOTSETTINGS
350
11
  3
ACAD_PLOTSTYLENAME
350
12
  3
ACAD_SCALELIST
350
14
  3
ACAD_TABLESTYLE
350
15
  3
ACAD_VISUALSTYLE
350
16
  3
EZDXF_META
350
2D
  0
DICTIONARY
  5
B
330
A
100
AcDbDictionary
281
1
  0
DICTIONARY
  5
C
330
A
100
AcDbDictionary
281
1
  0
DICTIONARY
  5
D
330
A
100
AcDbDictionary
281
1
  3
Model
350
1A
  3
Layout1
350
1E
  0
DICTIONARY
  5
E
330
A
100
AcDbDictionary
281
1
  3
ByBlock
350
1F
  3
ByLayer
350
20
  3
Global
350
21
  0
DICTIONARY
  5
F
330
A
100
AcDbDictionary
281
1
  3
Standard
350
2C
  0
DICTIONARY
  5
10
330
A
100
AcDbDictionary
281
1
  3
Standard
350
22
  0
DICTIONARY
  5
11
330
A
100
AcDbDictionary
281
1
  0
ACDBDICTIONARYWDFLT
  5
12
330
A
100
AcDbDictionary
281
1
  3
Normal
350
13
100
AcDbDictionaryWithDefault
340
13
  0
ACDBPLACEHOLDER
  5
13
330
12
  0
DICTIONARY
  5
14
330
A
100
AcDbDictionary
281
1
  0
DICTIONARY
  5
15
330
A
100
AcDbDictionary
281
1
  0
DICTIONARY
  5
16
330
A
100
AcDbDictionary
281
1
  0
LAYOUT
  5
1A
330
D
100
AcDbPlotSettings
  1

  4
A3
  6

 40
7.5
 41
20.0
 42
7.5
 43
20.0
 44
420.0
 45
297.0
 46
0.0
 47
0.0
 48
0.0
 49
0.0
140
0.0
141
0.0
142
1.0
143
1.0
 70
1024
 72
1
 73
0
 74
5
  7

 75
16
 76
0
 77
2
 78
300
147
1.0
148
0.0
149
0.0
100
AcDbLayout
  1
Model
 70
1
 71
0
 10
0.0
 20
0.0
 11
420.0
 21
297.0
 12
0.0
 22
0.0
 32
0.0
 14
1e+20
 24
1e+20
 34
1e+20
 15
-1e+20
 25
-1e+20
 35
-1e+20
146
0.0
 13
0.0
 23
0.0
 33
0.0
 16
1.0
 26
0.0
 36
0.0
 17
0.0
 27
1.0
 37
0.0
 76
1
330
17
  0
LAYOUT
  5
1E
330
D
100
AcDbPlotSettings
  1

  4
A3
  6

 40
7.5
 41
20.0
 42
7.5
 43
20.0
 44
420.0
 45
297.0
 46
0.0
 47
0.0
 48
0.0
 49
0.0
140
0.0
141
0.0
142
1.0
143
1.0
 70
0
 72
1
 73
0
 74
5
  7

 75
16
 76
0
 77
2
 78
300
147
1.0
148
0.0
149
0.0
100
AcDbLayout
  1
Layout1
 70
1
 71
1
 10
0.0
 20
0.0
 11
420.0
 21
297.0
 12
0.0
 22
0.0
 32
0.0
 14
1e+20
 24
1e+20
 34
1e+20
 15
-1e+20
 25
-1e+20
 35
-1e+20
146
0.0
 13
0.0
 23
0.0
 33
0.0
 16
1.0
 26
0.0
 36
0.0
 17
0.0
 27
1.0
 37
0.0
 76
1
330
1B
  0
MATERIAL
  5
1F
102
{ACAD_REACTORS
330
E
102
}
330
E
100
AcDbMaterial
  1
ByBlock
  2

 70
0
 40
1.0
 71
1
 41
1.0
 91
-1023410177
 42
1.0
 72
1
  3

 73
1
 74
1
 75
1
 44
0.5
 73
0
 45
1.0
 46
1.0
 77
1
  4

 78
1
 79
1
170
1
 48
1.0
171
1
  6

172
1
173
1
174
1
140
1.0
141
1.0
175
1
  7

176
1
177
1
178
1
143
1.0
179
1
  8

270
1
271
1
272
1
145
1.0
146
1.0
273
1
  9

274
1
275
1
276
1
 42
1.0
 72
1
  3

 73
1
 74
1
 75
1
 94
63
  0
MATERIAL
  5
20
102
{ACAD_REACTORS
330
E
102
}
330
E
100
AcDbMaterial
  1
ByLayer
  2

 70
0
 40
1.0
 71
1
 41
1.0
 91
-1023410177
 42
1.0
 72
1
  3

 73
1
 74
1
 75
1
 44
0.5
 73
0
 45
1.0
 46
1.0
 77
1
  4

 78
1
 79
1
170
1
 48
1.0
171
1
  6

172
1
173
1
174
1
140
1.0
141
1.0
175
1
  7

176
1
177
1
178
1
143
1.0
179
1
  8

270
1
271
1
272
1
145
1.0
146
1.0
273
1
  9

274
1
275
1
276
1
 42
1.0
 72
1
  3

 73
1
 74
1
 75
1
 94
63
  0
MATERIAL
  5
21
102
{ACAD_REACTORS
330
E
102
}
330
E
100
AcDbMaterial
  1
Global
  2

 70
0
 40
1.0
 71
1
 41
1.0
 91
-1023410177
 42
1.0
 72
1
  3

 73
1
 74
1
 75
1
 44
0.5
 73
0
 45
1.0
 46
1.0
 77
1
  4

 78
1
 79
1
170
1
 48
1.0
171
1
  6

172
1
173
1
174
1
140
1.0
141
1.0
175
1
  7

176
1
177
1
178
1
143
1.0
179
1
  8

270
1
271
1
272
1
145
1.0
146
1.0
273
1
  9

274
1
275
1
276
1
 42
1.0
 72
1
  3

 73
1
 74
1
 75
1
 94
63
  0
MLINESTYLE
  5
22
102
{ACAD_REACTORS
330
10
102
}
330
10
100
AcDbMlineStyle
  2
Standard
 70
0
  3

 62
256
 51
90.0
 52
90.0
 71
2
 49
0.5
 62
256
  6
BYLAYER
 49
-0.5
 62
256
  6
BYLAYER
  0
MLEADERSTYLE
  5
2C
102
{ACAD_REACTORS
330
F
102
}
330
F
100
AcDbMLeaderStyle
179
2
170
2
171
1
172
0
 90
2
 40
0.0
 41
0.0
173
1
 91
-1056964608
 92
-2
290
1
 42
2.0
291
1
 43
8.0
  3
Standard
 44
4.0
300

342
29
174
1
175
1
176
0
178
1
 93
-1056964608
 45
4.0
292
0
297
0
 46
4.0
 94
-1056964608
 47
1.0
 49
1.0
140
1.0
294
1
141
0.0
177
0
142
1.0
295
0
296
0
143
3.75
271
0
272
9
273
9
  0
DICTIONARY
  5
2D
330
A
100
AcDbDictionary
280
1
281
1
  3
CREATED_BY_EZDXF
350
2E
  3
WRITTEN_BY_EZDXF
350
72
  0
DICTIONARYVAR
  5
2E
330
2D
100
DictionaryVariables
280
0
  1
1.4.4 @ 2026-07-17T07:13:47.159092+00:00
  0
DICTIONARYVAR
  5
72
330
2D
100
DictionaryVariables
280
0
  1
1.4.4 @ 2026-07-17T07:13:47.193522+00:00
  0
ENDSEC
  0
EOF
