<svg viewBox="-126.91415805958489 -62.71946891450772 257.82831611916976 125.43893782901547" width="100%" height="100%" xmlns="http://www.w3.org/2000/svg">
  <style>
    svg { background: #FFFFFF; }
    .cut { stroke: #0073CC; stroke-width: 1.5; fill: none; stroke-linecap: round; stroke-linejoin: round; }
    .fold { stroke: #E84D00; stroke-width: 1.2; stroke-dasharray: 4,4; fill: none; }
  </style>
  <g transform="scale(1, -1) translate(0, 11.719468914507686)">
    <polyline points="-39.99999999999999,6.000000000000007 -40.62717077960591,5.967131372209647 -41.24747014490655,5.868885604402841 -41.85410196624968,5.706339097770929 -42.440419858454796,5.481272745855613 -42.99999999999999,5.19615242270664 -43.52671151375483,4.854101966249692 -44.01478363815314,4.458868952864373 -44.45886895286436,4.014783638153157 -44.85410196624967,3.526711513754847 -45.196152422706625,3.0000000000000093 -45.4812727458556,2.4404198584548102 -45.706339097770915,1.854101966249693 -45.86888560440283,1.247470144906564 -45.96713137220963,0.627170779605928 -45.99999999999999,9.17875397920638e-15 -45.96713137220963,-0.6271707796059097 -45.86888560440283,-1.2474701449065455 -45.706339097770915,-1.8541019662496747 -45.4812727458556,-2.44041985845479 -45.196152422706625,-2.999999999999989 -44.85410196624967,-3.5267115137548286 -44.45886895286436,-4.014783638153137 -44.01478363815314,-4.458868952864356 -43.52671151375483,-4.854101966249674 -42.99999999999999,-5.196152422706622 -42.440419858454796,-5.481272745855596 -41.85410196624968,-5.70633909777091 -41.24747014490654,-5.8688856044028235 -40.62717077960592,-5.9671313722096295 -39.99999999999999,-5.999999999999989" class="cut" />
    <line x1="-39.99999999999999" y1="6.00000000000001" x2="-39.99999999999999" y2="-5.99999999999999" class="cut" />
    <polyline points="-19.999999999999996,6.000000000000009 -19.372829220394074,5.967131372209648 -18.752529855093442,5.868885604402843 -18.145898033750314,5.70633909777093 -17.559580141545197,5.481272745855614 -16.999999999999996,5.196152422706641 -16.473288486245156,4.854101966249694 -15.985216361846847,4.458868952864375 -15.541131047135632,4.014783638153158 -15.145898033750312,3.5267115137548473 -14.803847577293364,3.0000000000000093 -14.518727254144391,2.4404198584548107 -14.293660902229075,1.8541019662496931 -14.131114395597162,1.247470144906564 -14.032868627790357,0.6271707796059292 -13.999999999999996,8.811359939462174e-15 -14.032868627790357,-0.6271707796059116 -14.131114395597162,-1.2474701449065462 -14.293660902229075,-1.8541019662496756 -14.518727254144391,-2.440419858454792 -14.803847577293364,-2.9999999999999902 -15.145898033750312,-3.52671151375483 -15.541131047135629,-4.014783638153139 -15.985216361846849,-4.458868952864357 -16.473288486245156,-4.854101966249675 -16.999999999999996,-5.196152422706623 -17.559580141545197,-5.4812727458555965 -18.14589803375031,-5.706339097770912 -18.752529855093442,-5.868885604402825 -19.372829220394074,-5.96713137220963 -19.999999999999996,-5.999999999999991" class="cut" />
    <line x1="-19.999999999999996" y1="-5.99999999999999" x2="-19.999999999999996" y2="6.00000000000001" class="cut" />
    <polyline points="39.99999999999998,6.000000000000013 40.6271707796059,5.9671313722096535 41.247470144906536,5.8688856044028475 41.85410196624966,5.706339097770935 42.440419858454774,5.48127274585562 42.99999999999998,5.196152422706646 43.52671151375481,4.8541019662497 44.014783638153126,4.458868952864381 44.45886895286434,4.014783638153166 44.85410196624966,3.5267115137548566 45.196152422706604,3.0000000000000187 45.48127274585558,2.440419858454821 45.70633909777089,1.854101966249705 45.86888560440281,1.247470144906577 45.967131372209614,0.6271707796059426 45.99999999999998,2.241159199112034e-14 45.96713137220962,-0.6271707796058977 45.86888560440281,-1.2474701449065326 45.7063390977709,-1.8541019662496605 45.481272745855584,-2.440419858454777 45.19615242270661,-2.9999999999999756 44.854101966249665,-3.526711513754813 44.45886895286435,-4.0147836381531254 44.01478363815313,-4.458868952864343 43.526711513754826,-4.854101966249662 42.999999999999986,-5.196152422706611 42.44041985845479,-5.481272745855584 41.85410196624967,-5.706339097770901 41.24747014490655,-5.868885604402814 40.62717077960591,-5.9671313722096215 39.99999999999999,-5.999999999999983" class="cut" />
    <line x1="39.99999999999999" y1="-5.999999999999983" x2="39.99999999999998" y2="6.000000000000015" class="cut" />
    <polyline points="19.999999999999996,6.000000000000015 19.372829220394078,5.967131372209655 18.75252985509344,5.868885604402848 18.145898033750314,5.706339097770937 17.559580141545197,5.481272745855621 16.999999999999996,5.196152422706647 16.47328848624516,4.854101966249701 15.985216361846849,4.458868952864383 15.54113104713563,4.014783638153164 15.145898033750314,3.5267115137548557 14.803847577293366,3.000000000000018 14.518727254144393,2.440419858454821 14.293660902229075,1.8541019662497014 14.131114395597162,1.2474701449065693 14.032868627790357,0.6271707796059359 13.999999999999996,1.6852435962602022e-14 14.032868627790357,-0.6271707796059022 14.131114395597162,-1.2474701449065357 14.293660902229075,-1.8541019662496676 14.518727254144391,-2.4404198584547827 14.803847577293363,-2.99999999999998 15.14589803375031,-3.526711513754822 15.541131047135629,-4.014783638153132 15.985216361846847,-4.458868952864351 16.473288486245156,-4.854101966249668 17.0,-5.196152422706618 17.559580141545194,-5.48127274585559 18.14589803375031,-5.706339097770906 18.752529855093442,-5.868885604402819 19.37282922039407,-5.967131372209624 19.999999999999993,-5.999999999999985" class="cut" />
    <line x1="19.999999999999996" y1="6.000000000000017" x2="19.999999999999996" y2="-5.999999999999983" class="cut" />
    <polyline points="19.999999999999996,35.000000000000014 19.03509074526125,33.79304716118206 17.997458763112483,32.64801227322745 16.891068280927207,31.569269891589908 15.720146214905707,30.560941304116984 14.489166021327506,29.626878785851005 13.202830605908298,28.77065088158164 11.866054356555418,27.995528772377387 10.483944368164854,27.304473778182103 9.061780931189723,26.70012604422235 7.604997358522709,26.184794454448603 6.119159227763005,25.76044781054563 4.609943118171758,25.428707310212186 3.0831149235505637,25.19084035344649 1.5445078238976095,25.04775570050024 1.9748977087842535e-15,25.000000000000014 -1.5445078238976166,25.04775570050024 -3.0831149235505597,25.19084035344649 -4.60994311817176,25.428707310212186 -6.119159227763001,25.760447810545628 -7.604997358522706,26.184794454448603 -9.061780931189721,26.70012604422235 -10.483944368164847,27.3044737781821 -11.866054356555416,27.995528772377384 -13.202830605908302,28.77065088158164 -14.489166021327511,29.62687878585101 -15.720146214905709,30.560941304116987 -16.891068280927204,31.569269891589908 -17.997458763112483,32.64801227322746 -19.035090745261257,33.793047161182066 -20.0,35.00000000000002" class="cut" />
    <line x1="20.0" y1="35.000000000000014" x2="20.0" y2="41.000000000000014" class="cut" />
    <line x1="48.00000000000002" y1="41.00000000000002" x2="20.0" y2="41.000000000000014" class="cut" />
    <line x1="48.00000000000002" y1="35.00000000000002" x2="48.00000000000002" y2="41.00000000000002" class="cut" />
    <line x1="61.19468914507712" y1="35.00000000000002" x2="48.00000000000002" y2="35.00000000000002" class="cut" />
    <line x1="61.19468914507712" y1="35.000000000000014" x2="61.19468914507712" y2="41.000000000000014" class="cut" />
    <line x1="84.19468914507716" y1="41.00000000000001" x2="61.19468914507713" y2="41.000000000000014" class="cut" />
    <line x1="84.19468914507715" y1="41.00000000000001" x2="84.19468914507715" y2="35.000000000000014" class="cut" />
    <polyline points="84.19468914507715,-34.99999999999997 87.85318535944502,-34.808266337889535 91.47159832369873,-34.23516602568317 95.01028394820031,-33.28697807033034 98.43047165273015,-31.974091017491002 101.69468914507715,-30.310889132455326 104.76717297531371,-28.315594803123133 107.61426036763719,-26.01006889170877 110.20475803678595,-23.41957122256001 112.51028394820031,-20.572483830236532 114.50557827753249,-17.499999999999975 116.16878016256818,-14.235782507652987 117.48166721540753,-10.815594803123135 118.42985517076035,-7.276909178621547 119.00295548296671,-3.6584962143678443 119.19468914507715,2.455340230092803e-14 119.00295548296671,3.658496214367893 118.42985517076035,7.276909178621596 117.48166721540753,10.815594803123183 116.16878016256818,14.23578250765303 114.5055782775325,17.50000000000002 112.51028394820031,20.572483830236585 110.20475803678596,23.419571222560055 107.61426036763717,26.01006889170883 104.76717297531371,28.315594803123187 101.69468914507715,30.310889132455383 98.43047165273015,31.974091017491062 95.01028394820031,33.2869780703304 91.47159832369873,34.23516602568323 87.85318535944504,34.80826633788959 84.19468914507715,35.00000000000003" class="cut" />
    <line x1="84.19468914507715" y1="-40.999999999999986" x2="84.19468914507715" y2="-34.99999999999999" class="cut" />
    <line x1="61.19468914507711" y1="-40.99999999999998" x2="84.19468914507715" y2="-40.999999999999986" class="cut" />
    <line x1="61.19468914507712" y1="-34.999999999999986" x2="61.19468914507712" y2="-40.999999999999986" class="cut" />
    <line x1="48.00000000000002" y1="-34.99999999999998" x2="61.19468914507712" y2="-34.99999999999998" class="cut" />
    <line x1="48.00000000000002" y1="-34.999999999999986" x2="48.00000000000002" y2="-40.999999999999986" class="cut" />
    <line x1="20.0" y1="-41.0" x2="48.00000000000002" y2="-40.99999999999999" class="cut" />
    <line x1="19.999999999999996" y1="-35.0" x2="20.0" y2="-41.0" class="cut" />
    <polyline points="-19.999999999999993,-35.0 -19.035090745261243,-33.793047161182045 -17.997458763112476,-32.64801227322744 -16.8910682809272,-31.569269891589894 -15.7201462149057,-30.560941304116966 -14.489166021327499,-29.626878785850987 -13.202830605908295,-28.770650881581624 -11.866054356555416,-27.995528772377373 -10.483944368164847,-27.304473778182086 -9.061780931189721,-26.700126044222337 -7.604997358522706,-26.18479445444859 -6.119159227763001,-25.760447810545617 -4.60994311817176,-25.42870731021217 -3.0831149235505584,-25.190840353446475 -1.544507823897615,-25.047755700500225 4.117451138846292e-15,-25.0 1.5445078238976122,-25.047755700500225 3.083114923550567,-25.190840353446475 4.609943118171762,-25.42870731021217 6.119159227762999,-25.76044781054561 7.6049973585227075,-26.184794454448586 9.061780931189718,-26.70012604422233 10.483944368164856,-27.304473778182086 11.866054356555415,-27.995528772377366 13.202830605908302,-28.770650881581624 14.489166021327504,-29.626878785850984 15.72014621490571,-30.560941304116966 16.891068280927207,-31.569269891589887 17.997458763112483,-32.64801227322743 19.035090745261257,-33.79304716118204 20.0,-34.99999999999999" class="cut" />
    <line x1="-19.999999999999996" y1="-35.0" x2="-19.999999999999996" y2="-41.0" class="cut" />
    <line x1="-48.00000000000002" y1="-40.99999999999999" x2="-19.999999999999996" y2="-41.0" class="cut" />
    <line x1="-48.00000000000002" y1="-35.0" x2="-48.00000000000002" y2="-41.0" class="cut" />
    <line x1="-61.19468914507712" y1="-34.99999999999999" x2="-48.00000000000002" y2="-34.99999999999999" class="cut" />
    <line x1="-61.19468914507711" y1="-34.999999999999986" x2="-61.19468914507711" y2="-40.99999999999999" class="cut" />
    <line x1="-109.19468914507716" y1="-41.0" x2="-61.19468914507712" y2="-41.0" class="cut" />
    <line x1="-109.19468914507716" y1="-40.99999999999999" x2="-109.19468914507716" y2="-34.99999999999999" class="cut" />
    <line x1="-115.19468914507715" y1="-34.99999999999999" x2="-109.19468914507715" y2="-34.99999999999999" class="cut" />
    <line x1="-115.19468914507718" y1="-7.499999999999986" x2="-115.19468914507718" y2="-34.99999999999999" class="cut" />
    <line x1="-115.19468914507716" y1="-7.499999999999982" x2="-109.19468914507715" y2="-7.499999999999982" class="cut" />
    <line x1="-109.19468914507718" y1="-1.4999999999999858" x2="-109.19468914507718" y2="-7.499999999999993" class="cut" />
    <line x1="-74.19468914507716" y1="-1.499999999999985" x2="-109.19468914507718" y2="-1.4999999999999858" class="cut" />
    <line x1="-74.19468914507715" y1="-1.4999999999999858" x2="-74.19468914507715" y2="-7.499999999999986" class="cut" />
    <polyline points="-74.19468914507715,7.500000000000016 -73.41072567056975,7.458914215262066 -72.63535146394395,7.336107005503559 -71.87706168726504,7.132923872213667 -71.14416432200865,6.851590932319523 -70.44468914507715,6.495190528383305 -69.7862997528836,6.067627457812121 -69.17620959738571,5.573586191080472 -68.6211029539967,5.018479547691452 -68.12706168726504,4.4083893921935635 -67.69949861669386,3.7500000000000155 -67.34309821275764,3.050524823068518 -67.0617652728635,2.317627457812121 -66.8585821395736,1.5593376811332107 -66.7357749298151,0.7839634745074155 -66.69468914507715,1.515337099581014e-14 -66.7357749298151,-0.7839634745073853 -66.85858213957361,-1.5593376811331803 -67.0617652728635,-2.3176274578120903 -67.34309821275764,-3.0505248230684856 -67.69949861669386,-3.7499999999999853 -68.12706168726504,-4.4083893921935315 -68.6211029539967,-5.01847954769142 -69.17620959738571,-5.573586191080442 -69.78629975288361,-6.067627457812091 -70.44468914507715,-6.495190528383276 -71.14416432200865,-6.851590932319492 -71.87706168726504,-7.132923872213636 -72.63535146394396,-7.336107005503527 -73.41072567056975,-7.458914215262035 -74.19468914507715,-7.499999999999984" class="cut" />
    <line x1="-74.19468914507715" y1="1.5000000000000142" x2="-74.19468914507715" y2="7.500000000000014" class="cut" />
    <line x1="-109.19468914507716" y1="1.500000000000007" x2="-74.19468914507715" y2="1.500000000000008" class="cut" />
    <line x1="-109.19468914507716" y1="1.500000000000007" x2="-109.19468914507716" y2="7.500000000000014" class="cut" />
    <line x1="-115.19468914507716" y1="7.500000000000017" x2="-109.19468914507715" y2="7.500000000000017" class="cut" />
    <line x1="-115.19468914507718" y1="35.00000000000001" x2="-115.19468914507718" y2="7.500000000000017" class="cut" />
    <line x1="-115.19468914507716" y1="35.00000000000001" x2="-109.19468914507715" y2="35.00000000000001" class="cut" />
    <line x1="-109.19468914507716" y1="41.00000000000003" x2="-109.19468914507716" y2="35.00000000000002" class="cut" />
    <line x1="-61.19468914507712" y1="41.00000000000003" x2="-109.19468914507716" y2="41.00000000000003" class="cut" />
    <line x1="-61.19468914507712" y1="35.000000000000014" x2="-61.19468914507712" y2="41.000000000000014" class="cut" />
    <line x1="-48.00000000000002" y1="35.00000000000001" x2="-61.19468914507712" y2="35.00000000000001" class="cut" />
    <line x1="-48.00000000000002" y1="35.000000000000014" x2="-48.00000000000002" y2="41.000000000000014" class="cut" />
    <line x1="-20.000000000000004" y1="41.000000000000014" x2="-48.00000000000002" y2="41.00000000000001" class="cut" />
    <line x1="-20.000000000000004" y1="35.000000000000014" x2="-20.000000000000004" y2="41.000000000000014" class="cut" />
    <polyline points="107.19468914507718,2.962804165118386e-14 107.1291319472786,-0.6237350724532484 106.93532551800499,-1.2202099292273711 106.62174012820202,-1.7633557568773903 106.20208096415375,-2.2294344764321536 105.69468914507718,-2.5980762113532876 105.12174012820202,-2.8531695488854334 104.50827453488014,-2.983565686104793 103.88110375527422,-2.983565686104794 103.26763816195233,-2.853169548885435 102.69468914507718,-2.598076211353291 102.1872973260006,-2.229434476432159 101.76763816195233,-1.7633557568773959 101.45405277214938,-1.2202099292273765 101.26024634287576,-0.6237350724532547 101.19468914507718,2.2851180281229387e-14 101.26024634287576,0.6237350724533005 101.45405277214937,1.220209929227423 101.76763816195233,1.763355756877443 102.1872973260006,2.229434476432206 102.69468914507718,2.59807621135334 103.26763816195233,2.853169548885486 103.88110375527421,2.9835656861048454 104.50827453488013,2.9835656861048463 105.12174012820202,2.8531695488854885 105.69468914507718,2.5980762113533444 106.20208096415375,2.2294344764322105 106.62174012820202,1.7633557568774492 106.93532551800497,1.2202099292274298 107.1291319472786,0.6237350724533092 107.19468914507718,3.036282973067227e-14" class="cut" />
    <polyline points="61.19468914507718,-3.922812264617403e-13 61.26024634287576,0.6237350724528858 61.454052772149375,1.2202099292270085 61.767638161952334,1.7633557568770275 62.1872973260006,2.229434476431791 62.69468914507718,2.5980762113529243 63.267638161952334,2.8531695488850692 63.88110375527422,2.9835656861044284 64.50827453488014,2.983565686104429 65.12174012820202,2.8531695488850697 65.69468914507718,2.5980762113529248 66.20208096415375,2.2294344764317917 66.62174012820202,1.763355756877028 66.93532551800499,1.220209929227008 67.1291319472786,0.6237350724528858 67.19468914507718,-3.9191383242199606e-13 67.1291319472786,-0.6237350724536697 66.93532551800499,-1.2202099292277921 66.62174012820202,-1.763355756877812 66.20208096415375,-2.2294344764325746 65.69468914507718,-2.598076211353708 65.12174012820202,-2.8531695488858535 64.50827453488014,-2.9835656861052127 63.88110375527422,-2.9835656861052127 63.267638161952334,-2.853169548885854 62.69468914507718,-2.5980762113537086 62.1872973260006,-2.2294344764325746 61.767638161952334,-1.7633557568778129 61.454052772149375,-1.2202099292277933 61.26024634287576,-0.623735072453672 61.19468914507718,-3.930160145412287e-13" class="cut" />
    <polyline points="87.19468914507738,-20.00000000000025 87.1291319472788,-20.623735072453528 86.93532551800519,-21.22020992922765 86.62174012820222,-21.76335575687767 86.20208096415395,-22.22943447643243 85.69468914507738,-22.598076211353565 85.12174012820222,-22.85316954888571 84.50827453488034,-22.98356568610507 83.88110375527441,-22.98356568610507 83.26763816195253,-22.85316954888571 82.69468914507738,-22.598076211353565 82.1872973260008,-22.229434476432434 81.76763816195253,-21.76335575687767 81.45405277214957,-21.22020992922765 81.26024634287596,-20.623735072453528 81.19468914507738,-20.00000000000025 81.26024634287596,-19.37626492754697 81.45405277214957,-18.779790070772847 81.76763816195253,-18.23664424312283 82.1872973260008,-17.770565523568067 82.69468914507738,-17.401923788646933 83.26763816195253,-17.146830451114788 83.88110375527441,-17.016434313895427 84.50827453488034,-17.016434313895427 85.12174012820222,-17.146830451114788 85.69468914507738,-17.401923788646933 86.20208096415395,-17.770565523568067 86.62174012820222,-18.23664424312283 86.93532551800519,-18.779790070772847 87.1291319472788,-19.37626492754697 87.19468914507738,-20.00000000000025" class="cut" />
    <polyline points="96.69468914507715,2.3634917201567518e-14 96.42153415424971,-2.5988961352219673 95.61400736560965,-5.0842080384474775 94.30740157476399,-7.3473156536558895 92.55882172456288,-9.2893103184674 90.44468914507715,-10.825317547305454 88.05740157476399,-11.888206453689389 85.50129493592281,-12.431523692103385 82.88808335423147,-12.431523692103385 80.3319767153903,-11.888206453689387 77.94468914507715,-10.825317547305449 75.83055656559142,-9.289310318467393 74.0819767153903,-7.347315653655876 72.77537092454463,-5.084208038447461 71.96784413590457,-2.5988961352219513 71.69468914507715,3.878312051790731e-14 71.96784413590458,2.598896135222028 72.77537092454463,5.084208038447538 74.08197671539031,7.347315653655952 75.83055656559142,9.289310318467463 77.94468914507715,10.825317547305517 80.33197671539031,11.888206453689453 82.88808335423148,12.431523692103449 85.50129493592283,12.431523692103449 88.057401574764,11.88820645368945 90.44468914507716,10.825317547305511 92.55882172456289,9.289310318467452 94.307401574764,7.347315653655942 95.61400736560967,5.0842080384475254 96.42153415424971,2.5988961352220223 96.69468914507715,2.6696534199435903e-14" class="cut" />
    <polyline points="87.19468914507702,20.000000000000025 87.12913194727844,19.376264927546778 86.93532551800483,18.779790070772684 86.62174012820189,18.23664424312269 86.20208096415364,17.77056552356795 85.69468914507709,17.401923788646833 85.12174012820196,17.1468304511147 84.50827453488012,17.016434313895346 83.88110375527422,17.016434313895346 83.26763816195236,17.1468304511147 82.69468914507723,17.401923788646833 82.18729732600069,17.770565523567946 81.76763816195243,18.23664424312269 81.4540527721495,18.779790070772684 81.26024634287589,19.376264927546778 81.1946891450773,20.000000000000025 81.26024634287589,20.62373507245327 81.4540527721495,21.220209929227366 81.76763816195243,21.76335575687736 82.18729732600069,22.2294344764321 82.69468914507723,22.598076211353217 83.26763816195236,22.85316954888535 83.88110375527421,22.983565686104704 84.50827453488012,22.983565686104704 85.12174012820196,22.85316954888535 85.69468914507709,22.598076211353217 86.20208096415364,22.2294344764321 86.62174012820189,21.76335575687736 86.93532551800483,21.220209929227366 87.12913194727844,20.623735072453275 87.19468914507702,20.000000000000025" class="cut" />
    <polyline points="-96.19468914507715,-24.99999999999999 -96.26024634287573,-25.623735072453268 -96.45405277214934,-26.22020992922739 -96.7676381619523,-26.76335575687741 -97.18729732600058,-27.229434476432175 -97.69468914507715,-27.59807621135331 -98.2676381619523,-27.853169548885454 -98.88110375527418,-27.98356568610481 -99.5082745348801,-27.983565686104814 -100.12174012820199,-27.853169548885454 -100.69468914507715,-27.59807621135331 -101.20208096415372,-27.22943447643218 -101.62174012820199,-26.763355756877417 -101.93532551800494,-26.220209929227398 -102.12913194727857,-25.623735072453275 -102.19468914507715,-24.999999999999996 -102.12913194727857,-24.376264927546718 -101.93532551800496,-23.779790070772595 -101.62174012820199,-23.236644243122576 -101.20208096415372,-22.770565523567814 -100.69468914507715,-22.40192378864668 -100.12174012820199,-22.146830451114532 -99.50827453488012,-22.016434313895175 -98.8811037552742,-22.01643431389517 -98.2676381619523,-22.146830451114532 -97.69468914507715,-22.401923788646677 -97.18729732600058,-22.770565523567807 -96.7676381619523,-23.23664424312257 -96.45405277214935,-23.779790070772588 -96.26024634287573,-24.37626492754671 -96.19468914507715,-24.99999999999999" class="cut" />
    <polyline points="-71.19468914507715,-24.99999999999999 -71.26024634287573,-25.623735072453268 -71.45405277214935,-26.22020992922739 -71.7676381619523,-26.76335575687741 -72.18729732600058,-27.22943447643217 -72.69468914507715,-27.598076211353302 -73.2676381619523,-27.853169548885447 -73.8811037552742,-27.983565686104807 -74.50827453488012,-27.983565686104804 -75.12174012820199,-27.853169548885447 -75.69468914507715,-27.598076211353302 -76.20208096415372,-27.229434476432168 -76.62174012820199,-26.763355756877402 -76.93532551800496,-26.220209929227384 -77.12913194727857,-25.62373507245326 -77.19468914507715,-24.999999999999982 -77.12913194727857,-24.376264927546707 -76.93532551800494,-23.779790070772584 -76.62174012820199,-23.236644243122562 -76.20208096415372,-22.7705655235678 -75.69468914507715,-22.40192378864667 -75.12174012820199,-22.146830451114525 -74.5082745348801,-22.016434313895164 -73.88110375527418,-22.016434313895168 -73.2676381619523,-22.146830451114525 -72.69468914507715,-22.40192378864667 -72.18729732600058,-22.770565523567807 -71.7676381619523,-23.23664424312257 -71.45405277214934,-23.779790070772588 -71.26024634287573,-24.37626492754671 -71.19468914507715,-24.99999999999999" class="cut" />
    <polyline points="-71.19468914507715,25.00000000000001 -71.26024634287573,24.376264927546732 -71.45405277214935,23.77979007077261 -71.7676381619523,23.23664424312259 -72.18729732600058,22.77056552356783 -72.69468914507715,22.401923788646698 -73.2676381619523,22.146830451114553 -73.8811037552742,22.016434313895193 -74.50827453488012,22.016434313895196 -75.12174012820199,22.146830451114553 -75.69468914507715,22.401923788646698 -76.20208096415372,22.770565523567832 -76.62174012820199,23.236644243122598 -76.93532551800496,23.779790070772616 -77.12913194727857,24.37626492754674 -77.19468914507715,25.000000000000018 -77.12913194727857,25.623735072453293 -76.93532551800494,26.220209929227416 -76.62174012820199,26.763355756877438 -76.20208096415372,27.2294344764322 -75.69468914507715,27.59807621135333 -75.12174012820199,27.853169548885475 -74.5082745348801,27.983565686104836 -73.88110375527418,27.983565686104832 -73.2676381619523,27.853169548885475 -72.69468914507715,27.59807621135333 -72.18729732600058,27.229434476432193 -71.7676381619523,26.76335575687743 -71.45405277214934,26.220209929227412 -71.26024634287573,25.62373507245329 -71.19468914507715,25.00000000000001" class="cut" />
    <polyline points="-96.19468914507715,25.00000000000001 -96.26024634287573,24.376264927546732 -96.45405277214934,23.77979007077261 -96.7676381619523,23.23664424312259 -97.18729732600058,22.770565523567825 -97.69468914507715,22.40192378864669 -98.2676381619523,22.146830451114546 -98.88110375527418,22.01643431389519 -99.5082745348801,22.016434313895186 -100.12174012820199,22.146830451114546 -100.69468914507715,22.40192378864669 -101.20208096415372,22.77056552356782 -101.62174012820199,23.236644243122583 -101.93532551800494,23.779790070772602 -102.12913194727857,24.376264927546725 -102.19468914507715,25.000000000000004 -102.12913194727857,25.623735072453282 -101.93532551800496,26.220209929227405 -101.62174012820199,26.763355756877424 -101.20208096415372,27.229434476432186 -100.69468914507715,27.59807621135332 -100.12174012820199,27.853169548885468 -99.50827453488012,27.983565686104825 -98.8811037552742,27.98356568610483 -98.2676381619523,27.853169548885468 -97.69468914507715,27.598076211353323 -97.18729732600058,27.229434476432193 -96.7676381619523,26.76335575687743 -96.45405277214935,26.220209929227412 -96.26024634287573,25.62373507245329 -96.19468914507715,25.00000000000001" class="cut" />
    <line x1="-54.597344572538574" y1="-51.0" x2="-54.597344572538574" y2="51.000000000000036" class="fold" />
    <rect x="-55.347344572538574" y="-51.75" width="1.5" height="1.5" fill="#FFFFFF" stroke="#FFB300" stroke-width="0.5" />
    <rect x="-55.347344572538574" y="50.250000000000036" width="1.5" height="1.5" fill="#FFFFFF" stroke="#FFB300" stroke-width="0.5" />
    <line x1="54.597344572538574" y1="51.00000000000003" x2="54.597344572538574" y2="-51.00000000000001" class="fold" />
    <rect x="53.847344572538574" y="50.25000000000003" width="1.5" height="1.5" fill="#FFFFFF" stroke="#FFB300" stroke-width="0.5" />
    <rect x="53.847344572538574" y="-51.75000000000001" width="1.5" height="1.5" fill="#FFFFFF" stroke="#FFB300" stroke-width="0.5" />
  </g>
</svg>