  0
SECTION
  2
HEADER
  9
$ACADVER
  1
AC1024
  9
$ACADMAINTVER
 70
6
  9
$DWGCODEPAGE
  3
ANSI_1252
  9
$LASTSAVEDBY
  1
ezdxf
  9
$INSBASE
 10
0.0
 20
0.0
 30
0.0
  9
$EXTMIN
 10
1e+20
 20
1e+20
 30
1e+20
  9
$EXTMAX
 10
-1e+20
 20
-1e+20
 30
-1e+20
  9
$LIMMIN
 10
0.0
 20
0.0
  9
$LIMMAX
 10
420.0
 20
297.0
  9
$ORTHOMODE
 70
0
  9
$REGENMODE
 70
1
  9
$FILLMODE
 70
1
  9
$QTEXTMODE
 70
0
  9
$MIRRTEXT
 70
1
  9
$LTSCALE
 40
1.0
  9
$ATTMODE
 70
1
  9
$TEXTSIZE
 40
2.5
  9
$TRACEWID
 40
1.0
  9
$TEXTSTYLE
  7
Standard
  9
$CLAYER
  8
0
  9
$CELTYPE
  6
ByLayer
  9
$CECOLOR
 62
256
  9
$CELTSCALE
 40
1.0
  9
$DISPSILH
 70
0
  9
$DIMSCALE
 40
1.0
  9
$DIMASZ
 40
2.5
  9
$DIMEXO
 40
0.625
  9
$DIMDLI
 40
3.75
  9
$DIMRND
 40
0.0
  9
$DIMDLE
 40
0.0
  9
$DIMEXE
 40
1.25
  9
$DIMTP
 40
0.0
  9
$DIMTM
 40
0.0
  9
$DIMTXT
 40
2.5
  9
$DIMCEN
 40
2.5
  9
$DIMTSZ
 40
0.0
  9
$DIMTOL
 70
0
  9
$DIMLIM
 70
0
  9
$DIMTIH
 70
0
  9
$DIMTOH
 70
0
  9
$DIMSE1
 70
0
  9
$DIMSE2
 70
0
  9
$DIMTAD
 70
1
  9
$DIMZIN
 70
8
  9
$DIMBLK
  1

  9
$DIMASO
 70
1
  9
$DIMSHO
 70
1
  9
$DIMPOST
  1

  9
$DIMAPOST
  1

  9
$DIMALT
 70
0
  9
$DIMALTD
 70
3
  9
$DIMALTF
 40
0.03937007874
  9
$DIMLFAC
 40
1.0
  9
$DIMTOFL
 70
1
  9
$DIMTVP
 40
0.0
  9
$DIMTIX
 70
0
  9
$DIMSOXD
 70
0
  9
$DIMSAH
 70
0
  9
$DIMBLK1
  1

  9
$DIMBLK2
  1

  9
$DIMSTYLE
  2
ISO-25
  9
$DIMCLRD
 70
0
  9
$DIMCLRE
 70
0
  9
$DIMCLRT
 70
0
  9
$DIMTFAC
 40
1.0
  9
$DIMGAP
 40
0.625
  9
$DIMJUST
 70
0
  9
$DIMSD1
 70
0
  9
$DIMSD2
 70
0
  9
$DIMTOLJ
 70
0
  9
$DIMTZIN
 70
8
  9
$DIMALTZ
 70
0
  9
$DIMALTTZ
 70
0
  9
$DIMUPT
 70
0
  9
$DIMDEC
 70
2
  9
$DIMTDEC
 70
2
  9
$DIMALTU
 70
2
  9
$DIMALTTD
 70
3
  9
$DIMTXSTY
  7
Standard
  9
$DIMAUNIT
 70
0
  9
$DIMADEC
 70
0
  9
$DIMALTRND
 40
0.0
  9
$DIMAZIN
 70
0
  9
$DIMDSEP
 70
44
  9
$DIMATFIT
 70
3
  9
$DIMFRAC
 70
0
  9
$DIMLDRBLK
  1

  9
$DIMLUNIT
 70
2
  9
$DIMLWD
 70
-2
  9
$DIMLWE
 70
-2
  9
$DIMTMOVE
 70
0
  9
$DIMFXL
 40
1.0
  9
$DIMFXLON
 70
0
  9
$DIMJOGANG
 40
0.785398163397
  9
$DIMTFILL
 70
0
  9
$DIMTFILLCLR
 70
0
  9
$DIMARCSYM
 70
0
  9
$DIMLTYPE
  6

  9
$DIMLTEX1
  6

  9
$DIMLTEX2
  6

  9
$DIMTXTDIRECTION
 70
0
  9
$LUNITS
 70
2
  9
$LUPREC
 70
4
  9
$SKETCHINC
 40
1.0
  9
$FILLETRAD
 40
10.0
  9
$AUNITS
 70
0
  9
$AUPREC
 70
2
  9
$MENU
  1
.
  9
$ELEVATION
 40
0.0
  9
$PELEVATION
 40
0.0
  9
$THICKNESS
 40
0.0
  9
$LIMCHECK
 70
0
  9
$CHAMFERA
 40
0.0
  9
$CHAMFERB
 40
0.0
  9
$CHAMFERC
 40
0.0
  9
$CHAMFERD
 40
0.0
  9
$SKPOLY
 70
0
  9
$TDCREATE
 40
2461240.573877315
  9
$TDUCREATE
 40
2458532.153996898
  9
$TDUPDATE
 40
2461240.573877315
  9
$TDUUPDATE
 40
2458532.1544311
  9
$TDINDWG
 40
0.0
  9
$TDUSRTIMER
 40
0.0
  9
$USRTIMER
 70
1
  9
$ANGBASE
 50
0.0
  9
$ANGDIR
 70
0
  9
$PDMODE
 70
0
  9
$PDSIZE
 40
0.0
  9
$PLINEWID
 40
0.0
  9
$SPLFRAME
 70
0
  9
$SPLINETYPE
 70
6
  9
$SPLINESEGS
 70
8
  9
$HANDSEED
  5
3E
  9
$SURFTAB1
 70
6
  9
$SURFTAB2
 70
6
  9
$SURFTYPE
 70
6
  9
$SURFU
 70
6
  9
$SURFV
 70
6
  9
$UCSBASE
  2

  9
$UCSNAME
  2

  9
$UCSORG
 10
0.0
 20
0.0
 30
0.0
  9
$UCSXDIR
 10
1.0
 20
0.0
 30
0.0
  9
$UCSYDIR
 10
0.0
 20
1.0
 30
0.0
  9
$UCSORTHOREF
  2

  9
$UCSORTHOVIEW
 70
0
  9
$UCSORGTOP
 10
0.0
 20
0.0
 30
0.0
  9
$UCSORGBOTTOM
 10
0.0
 20
0.0
 30
0.0
  9
$UCSORGLEFT
 10
0.0
 20
0.0
 30
0.0
  9
$UCSORGRIGHT
 10
0.0
 20
0.0
 30
0.0
  9
$UCSORGFRONT
 10
0.0
 20
0.0
 30
0.0
  9
$UCSORGBACK
 10
0.0
 20
0.0
 30
0.0
  9
$PUCSBASE
  2

  9
$PUCSNAME
  2

  9
$PUCSORG
 10
0.0
 20
0.0
 30
0.0
  9
$PUCSXDIR
 10
1.0
 20
0.0
 30
0.0
  9
$PUCSYDIR
 10
0.0
 20
1.0
 30
0.0
  9
$PUCSORTHOREF
  2

  9
$PUCSORTHOVIEW
 70
0
  9
$PUCSORGTOP
 10
0.0
 20
0.0
 30
0.0
  9
$PUCSORGBOTTOM
 10
0.0
 20
0.0
 30
0.0
  9
$PUCSORGLEFT
 10
0.0
 20
0.0
 30
0.0
  9
$PUCSORGRIGHT
 10
0.0
 20
0.0
 30
0.0
  9
$PUCSORGFRONT
 10
0.0
 20
0.0
 30
0.0
  9
$PUCSORGBACK
 10
0.0
 20
0.0
 30
0.0
  9
$USERI1
 70
0
  9
$USERI2
 70
0
  9
$USERI3
 70
0
  9
$USERI4
 70
0
  9
$USERI5
 70
0
  9
$USERR1
 40
0.0
  9
$USERR2
 40
0.0
  9
$USERR3
 40
0.0
  9
$USERR4
 40
0.0
  9
$USERR5
 40
0.0
  9
$WORLDVIEW
 70
1
  9
$SHADEDGE
 70
3
  9
$SHADEDIF
 70
70
  9
$TILEMODE
 70
1
  9
$MAXACTVP
 70
64
  9
$PINSBASE
 10
0.0
 20
0.0
 30
0.0
  9
$PLIMCHECK
 70
0
  9
$PEXTMIN
 10
1e+20
 20
1e+20
 30
1e+20
  9
$PEXTMAX
 10
-1e+20
 20
-1e+20
 30
-1e+20
  9
$PLIMMIN
 10
0.0
 20
0.0
  9
$PLIMMAX
 10
420.0
 20
297.0
  9
$UNITMODE
 70
0
  9
$VISRETAIN
 70
1
  9
$PLINEGEN
 70
0
  9
$PSLTSCALE
 70
1
  9
$TREEDEPTH
 70
3020
  9
$CMLSTYLE
  2
Standard
  9
$CMLJUST
 70
0
  9
$CMLSCALE
 40
20.0
  9
$PROXYGRAPHICS
 70
1
  9
$MEASUREMENT
 70
1
  9
$CELWEIGHT
370
-1
  9
$ENDCAPS
280
0
  9
$JOINSTYLE
280
0
  9
$LWDISPLAY
290
0
  9
$INSUNITS
 70
6
  9
$HYPERLINKBASE
  1

  9
$STYLESHEET
  1

  9
$XEDIT
290
1
  9
$CEPSNTYPE
380
0
  9
$PSTYLEMODE
290
1
  9
$FINGERPRINTGUID
  2
{16EFA413-F07D-43B7-98C0-616AE88C07A3}
  9
$VERSIONGUID
  2
{40E7649B-A844-474A-B41B-3F5C9A179011}
  9
$EXTNAMES
290
1
  9
$PSVPSCALE
 40
0.0
  9
$OLESTARTUP
290
0
  9
$SORTENTS
280
127
  9
$INDEXCTL
280
0
  9
$HIDETEXT
280
1
  9
$XCLIPFRAME
280
1
  9
$HALOGAP
280
0
  9
$OBSCOLOR
 70
257
  9
$OBSLTYPE
280
0
  9
$INTERSECTIONDISPLAY
280
0
  9
$INTERSECTIONCOLOR
 70
257
  9
$DIMASSOC
280
2
  9
$PROJECTNAME
  1

  9
$CAMERADISPLAY
290
0
  9
$LENSLENGTH
 40
50.0
  9
$CAMERAHEIGHT
 40
0.0
  9
$STEPSPERSEC
 40
24.0
  9
$STEPSIZE
 40
100.0
  9
$3DDWFPREC
 40
2.0
  9
$PSOLWIDTH
 40
0.005
  9
$PSOLHEIGHT
 40
0.08
  9
$LOFTANG1
 40
1.570796326795
  9
$LOFTANG2
 40
1.570796326795
  9
$LOFTMAG1
 40
0.0
  9
$LOFTMAG2
 40
0.0
  9
$LOFTPARAM
 70
7
  9
$LOFTNORMALS
280
1
  9
$LATITUDE
 40
37.795
  9
$LONGITUDE
 40
-122.394
  9
$NORTHDIRECTION
 40
0.0
  9
$TIMEZONE
 70
-8000
  9
$LIGHTGLYPHDISPLAY
280
1
  9
$TILEMODELIGHTSYNCH
280
1
  9
$CMATERIAL
347
20
  9
$SOLIDHIST
280
0
  9
$SHOWHIST
280
1
  9
$DWFFRAME
280
2
  9
$DGNFRAME
280
2
  9
$REALWORLDSCALE
290
1
  9
$INTERFERECOLOR
 62
256
  9
$CSHADOW
280
0
  9
$SHADOWPLANELOCATION
 40
0.0
  0
ENDSEC
  0
SECTION
  2
CLASSES
  0
CLASS
  1
ACDBDICTIONARYWDFLT
  2
AcDbDictionaryWithDefault
  3
ObjectDBX Classes
 90
0
 91
0
280
0
281
0
  0
CLASS
  1
SUN
  2
AcDbSun
  3
SCENEOE
 90
1153
 91
0
280
0
281
0
  0
CLASS
  1
VISUALSTYLE
  2
AcDbVisualStyle
  3
ObjectDBX Classes
 90
4095
 91
0
280
0
281
0
  0
CLASS
  1
MATERIAL
  2
AcDbMaterial
  3
ObjectDBX Classes
 90
1153
 91
0
280
0
281
0
  0
CLASS
  1
SCALE
  2
AcDbScale
  3
ObjectDBX Classes
 90
1153
 91
0
280
0
281
0
  0
CLASS
  1
TABLESTYLE
  2
AcDbTableStyle
  3
ObjectDBX Classes
 90
4095
 91
0
280
0
281
0
  0
CLASS
  1
MLEADERSTYLE
  2
AcDbMLeaderStyle
  3
ACDB_MLEADERSTYLE_CLASS
 90
4095
 91
0
280
0
281
0
  0
CLASS
  1
DICTIONARYVAR
  2
AcDbDictionaryVar
  3
ObjectDBX Classes
 90
0
 91
0
280
0
281
0
  0
CLASS
  1
CELLSTYLEMAP
  2
AcDbCellStyleMap
  3
ObjectDBX Classes
 90
1152
 91
0
280
0
281
0
  0
CLASS
  1
MENTALRAYRENDERSETTINGS
  2
AcDbMentalRayRenderSettings
  3
SCENEOE
 90
1024
 91
0
280
0
281
0
  0
CLASS
  1
ACDBDETAILVIEWSTYLE
  2
AcDbDetailViewStyle
  3
ObjectDBX Classes
 90
1025
 91
0
280
0
281
0
  0
CLASS
  1
ACDBSECTIONVIEWSTYLE
  2
AcDbSectionViewStyle
  3
ObjectDBX Classes
 90
1025
 91
0
280
0
281
0
  0
CLASS
  1
RASTERVARIABLES
  2
AcDbRasterVariables
  3
ISM
 90
0
 91
0
280
0
281
0
  0
CLASS
  1
ACDBPLACEHOLDER
  2
AcDbPlaceHolder
  3
ObjectDBX Classes
 90
0
 91
0
280
0
281
0
  0
CLASS
  1
LAYOUT
  2
AcDbLayout
  3
ObjectDBX Classes
 90
0
 91
0
280
0
281
0
  0
ENDSEC
  0
SECTION
  2
TABLES
  0
TABLE
  2
VPORT
  5
8
330
0
100
AcDbSymbolTable
 70
1
  0
VPORT
  5
23
330
8
100
AcDbSymbolTableRecord
100
AcDbViewportTableRecord
  2
*Active
 70
0
 10
0.0
 20
0.0
 11
1.0
 21
1.0
 12
0.0
 22
0.0
 13
0.0
 23
0.0
 14
0.5
 24
0.5
 15
0.5
 25
0.5
 16
0.0
 26
0.0
 36
1.0
 17
0.0
 27
0.0
 37
0.0
 40
1000.0
 41
1.34
 42
50.0
 43
0.0
 44
0.0
 50
0.0
 51
0.0
 71
0
 72
1000
 73
1
 74
3
 75
0
 76
0
 77
0
 78
0
281
0
 65
0
146
0.0
  0
ENDTAB
  0
TABLE
  2
LTYPE
  5
2
330
0
100
AcDbSymbolTable
 70
3
  0
LTYPE
  5
24
330
2
100
AcDbSymbolTableRecord
100
AcDbLinetypeTableRecord
  2
ByBlock
 70
0
  3

 72
65
 73
0
 40
0.0
  0
LTYPE
  5
25
330
2
100
AcDbSymbolTableRecord
100
AcDbLinetypeTableRecord
  2
ByLayer
 70
0
  3

 72
65
 73
0
 40
0.0
  0
LTYPE
  5
26
330
2
100
AcDbSymbolTableRecord
100
AcDbLinetypeTableRecord
  2
Continuous
 70
0
  3

 72
65
 73
0
 40
0.0
  0
ENDTAB
  0
TABLE
  2
LAYER
  5
1
330
0
100
AcDbSymbolTable
 70
4
  0
LAYER
  5
27
330
1
100
AcDbSymbolTableRecord
100
AcDbLayerTableRecord
  2
0
 70
0
 62
7
  6
Continuous
370
-3
390
13
347
21
  0
LAYER
  5
28
330
1
100
AcDbSymbolTableRecord
100
AcDbLayerTableRecord
  2
Defpoints
 70
0
 62
7
  6
Continuous
290
0
370
-3
390
13
347
21
  0
LAYER
  5
2F
330
1
100
AcDbSymbolTableRecord
100
AcDbLayerTableRecord
  2
CUT
 70
0
 62
3
  6
Continuous
370
-3
390
13
347
21
  0
LAYER
  5
30
330
1
100
AcDbSymbolTableRecord
100
AcDbLayerTableRecord
  2
FOLD
 70
0
 62
1
  6
DASHED
370
-3
390
13
347
21
  0
ENDTAB
  0
TABLE
  2
STYLE
  5
5
330
0
100
AcDbSymbolTable
 70
1
  0
STYLE
  5
29
330
5
100
AcDbSymbolTableRecord
100
AcDbTextStyleTableRecord
  2
Standard
 70
0
 40
0.0
 41
1.0
 50
0.0
 71
0
 42
2.5
  3
txt
  4

  0
ENDTAB
  0
TABLE
  2
VIEW
  5
7
330
0
100
AcDbSymbolTable
 70
0
  0
ENDTAB
  0
TABLE
  2
UCS
  5
6
330
0
100
AcDbSymbolTable
 70
0
  0
ENDTAB
  0
TABLE
  2
APPID
  5
3
330
0
100
AcDbSymbolTable
 70
3
  0
APPID
  5
2A
330
3
100
AcDbSymbolTableRecord
100
AcDbRegAppTableRecord
  2
ACAD
 70
0
  0
APPID
  5
3B
330
3
100
AcDbSymbolTableRecord
100
AcDbRegAppTableRecord
  2
HATCHBACKGROUNDCOLOR
 70
0
  0
APPID
  5
3C
330
3
100
AcDbSymbolTableRecord
100
AcDbRegAppTableRecord
  2
EZDXF
 70
0
  0
ENDTAB
  0
TABLE
  2
DIMSTYLE
  5
4
330
0
100
AcDbSymbolTable
 70
1
100
AcDbDimStyleTable
  0
DIMSTYLE
105
2B
330
4
100
AcDbSymbolTableRecord
100
AcDbDimStyleTableRecord
  2
Standard
 70
0
 40
1.0
 41
2.5
 42
0.625
 43
3.75
 44
1.25
 45
0.0
 46
0.0
 47
0.0
 48
0.0
 49
2.5
140
2.5
141
2.5
142
0.0
143
0.03937007874
144
1.0
145
0.0
146
1.0
147
0.625
148
0.0
 69
0
 70
0
 71
0
 72
0
 73
0
 74
0
 75
0
 76
0
 77
1
 78
8
 79
3
170
0
171
3
172
1
173
0
174
0
175
0
176
0
177
0
178
0
179
2
271
2
272
2
273
2
274
3
275
0
276
0
277
2
278
44
279
0
280
0
281
0
282
0
283
0
284
8
285
0
286
0
288
0
289
3
290
0
371
-2
372
-2
  0
ENDTAB
  0
TABLE
  2
BLOCK_RECORD
  5
9
330
0
100
AcDbSymbolTable
 70
2
  0
BLOCK_RECORD
  5
17
330
9
100
AcDbSymbolTableRecord
100
AcDbBlockTableRecord
  2
*Model_Space
340
1A
 70
0
280
1
281
0
  0
BLOCK_RECORD
  5
1B
330
9
100
AcDbSymbolTableRecord
100
AcDbBlockTableRecord
  2
*Paper_Space
340
1E
 70
0
280
1
281
0
  0
ENDTAB
  0
ENDSEC
  0
SECTION
  2
BLOCKS
  0
BLOCK
  5
18
330
17
100
AcDbEntity
  8
0
100
AcDbBlockBegin
  2
*Model_Space
 70
0
 10
0.0
 20
0.0
 30
0.0
  3
*Model_Space
  1

  0
ENDBLK
  5
19
330
17
100
AcDbEntity
  8
0
100
AcDbBlockEnd
  0
BLOCK
  5
1C
330
1B
100
AcDbEntity
  8
0
100
AcDbBlockBegin
  2
*Paper_Space
 70
0
 10
0.0
 20
0.0
 30
0.0
  3
*Paper_Space
  1

  0
ENDBLK
  5
1D
330
1B
100
AcDbEntity
  8
0
100
AcDbBlockEnd
  0
ENDSEC
  0
SECTION
  2
ENTITIES
  0
LWPOLYLINE
  5
31
330
17
100
AcDbEntity
  8
CUT
100
AcDbPolyline
 90
377
 70
0
 10
-52.74
 20
-56.66
 10
-53.386
 20
-56.389
 10
-54.006
 20
-56.063
 10
-54.594
 20
-55.682
 10
-55.147
 20
-55.252
 10
-55.659
 20
-54.774
 10
-56.127
 20
-54.253
 10
-56.548
 20
-53.693
 10
-56.917
 20
-53.098
 10
-57.233
 20
-52.473
 10
-57.492
 20
-51.822
 10
-57.693
 20
-51.151
 10
-57.834
 20
-50.465
 10
-57.914
 20
-49.769
 10
-57.932
 20
-49.069
 10
-57.888
 20
-48.37
 10
-57.783
 20
-47.677
 10
-57.618
 20
-46.997
 10
-57.393
 20
-46.334
 10
-57.11
 20
-45.693
 10
-56.772
 20
-45.079
 10
-56.381
 20
-44.498
 10
-55.941
 20
-43.953
 10
-55.454
 20
-43.45
 10
-54.925
 20
-42.991
 10
-54.357
 20
-42.581
 10
-53.756
 20
-42.222
 10
-53.532
 20
-42.096
 10
-53.313
 20
-41.963
 10
-53.099
 20
-41.822
 10
-52.89
 20
-41.673
 10
-52.686
 20
-41.517
 10
-52.489
 20
-41.353
 10
-52.297
 20
-41.183
 10
-52.112
 20
-41.005
 10
-51.933
 20
-40.822
 10
-51.76
 20
-40.631
 10
-51.595
 20
-40.435
 10
-51.437
 20
-40.233
 10
-51.286
 20
-40.026
 10
-51.143
 20
-39.813
 10
-51.007
 20
-39.595
 10
-50.88
 20
-39.373
 10
-50.76
 20
-39.146
 10
-50.649
 20
-38.915
 10
-50.546
 20
-38.68
 10
-50.451
 20
-38.441
 10
-50.366
 20
-38.199
 10
-50.289
 20
-37.955
 10
-50.22
 20
-37.707
 10
-50.161
 20
-37.458
 10
-50.111
 20
-37.206
 10
-50.069
 20
-36.953
 10
-50.037
 20
-36.699
 10
-50.014
 20
-36.443
 10
-50.0
 20
-36.187
 10
-49.996
 20
-35.931
 10
-49.996
 20
35.931
 10
-50.0
 20
36.187
 10
-50.014
 20
36.443
 10
-50.037
 20
36.699
 10
-50.069
 20
36.953
 10
-50.111
 20
37.206
 10
-50.161
 20
37.458
 10
-50.22
 20
37.707
 10
-50.289
 20
37.955
 10
-50.366
 20
38.199
 10
-50.451
 20
38.441
 10
-50.546
 20
38.68
 10
-50.649
 20
38.915
 10
-50.76
 20
39.146
 10
-50.88
 20
39.373
 10
-51.007
 20
39.595
 10
-51.143
 20
39.813
 10
-51.286
 20
40.026
 10
-51.437
 20
40.233
 10
-51.595
 20
40.435
 10
-51.76
 20
40.631
 10
-51.933
 20
40.822
 10
-52.112
 20
41.005
 10
-52.297
 20
41.183
 10
-52.489
 20
41.353
 10
-52.686
 20
41.517
 10
-52.89
 20
41.673
 10
-53.099
 20
41.822
 10
-53.313
 20
41.963
 10
-53.532
 20
42.096
 10
-53.756
 20
42.222
 10
-54.357
 20
42.581
 10
-54.925
 20
42.991
 10
-55.454
 20
43.45
 10
-55.941
 20
43.953
 10
-56.381
 20
44.498
 10
-56.772
 20
45.079
 10
-57.11
 20
45.693
 10
-57.393
 20
46.334
 10
-57.618
 20
46.997
 10
-57.783
 20
47.677
 10
-57.888
 20
48.37
 10
-57.932
 20
49.069
 10
-57.914
 20
49.769
 10
-57.834
 20
50.465
 10
-57.693
 20
51.151
 10
-57.492
 20
51.822
 10
-57.233
 20
52.473
 10
-56.917
 20
53.098
 10
-56.548
 20
53.693
 10
-56.127
 20
54.253
 10
-55.659
 20
54.774
 10
-55.147
 20
55.252
 10
-54.594
 20
55.682
 10
-54.006
 20
56.063
 10
-53.386
 20
56.389
 10
-52.74
 20
56.66
 10
-52.073
 20
56.873
 10
-51.39
 20
57.027
 10
-50.695
 20
57.119
 10
-49.996
 20
57.15
 10
-37.296
 20
57.15
 10
-30.713
 20
58.055
 10
27.072
 20
78.641
 10
37.645
 20
79.772
 10
39.766
 20
79.772
 10
39.808
 20
79.772
 10
39.849
 20
79.774
 10
39.891
 20
79.777
 10
39.932
 20
79.781
 10
39.973
 20
79.785
 10
40.014
 20
79.791
 10
40.055
 20
79.798
 10
40.096
 20
79.807
 10
40.137
 20
79.816
 10
40.177
 20
79.826
 10
40.217
 20
79.837
 10
40.257
 20
79.85
 10
40.296
 20
79.863
 10
40.335
 20
79.877
 10
40.374
 20
79.893
 10
40.412
 20
79.909
 10
40.449
 20
79.927
 10
40.487
 20
79.945
 10
40.524
 20
79.964
 10
40.56
 20
79.985
 10
40.596
 20
80.006
 10
40.631
 20
80.028
 10
40.665
 20
80.051
 10
40.699
 20
80.075
 10
40.732
 20
80.1
 10
40.765
 20
80.126
 10
40.797
 20
80.152
 10
40.828
 20
80.18
 10
40.859
 20
80.208
 10
40.889
 20
80.237
 10
43.927
 20
83.276
 10
43.957
 20
83.305
 10
43.988
 20
83.333
 10
44.019
 20
83.36
 10
44.051
 20
83.387
 10
44.084
 20
83.413
 10
44.117
 20
83.437
 10
44.151
 20
83.461
 10
44.185
 20
83.485
 10
44.22
 20
83.507
 10
44.256
 20
83.528
 10
44.292
 20
83.548
 10
44.329
 20
83.568
 10
44.366
 20
83.586
 10
44.404
 20
83.603
 10
44.442
 20
83.62
 10
44.481
 20
83.635
 10
44.52
 20
83.65
 10
44.559
 20
83.663
 10
44.599
 20
83.675
 10
44.639
 20
83.687
 10
44.679
 20
83.697
 10
44.72
 20
83.706
 10
44.761
 20
83.714
 10
44.802
 20
83.721
 10
44.843
 20
83.727
 10
44.884
 20
83.732
 10
44.925
 20
83.736
 10
44.967
 20
83.738
 10
45.008
 20
83.74
 10
45.05
 20
83.741
 10
50.742
 20
83.741
 10
51.289
 20
83.717
 10
51.831
 20
83.647
 10
52.365
 20
83.53
 10
52.887
 20
83.368
 10
53.393
 20
83.161
 10
53.88
 20
82.912
 10
54.343
 20
82.621
 10
54.779
 20
82.292
 10
55.186
 20
81.927
 10
55.56
 20
81.528
 10
55.898
 20
81.098
 10
56.198
 20
80.641
 10
56.457
 20
80.16
 10
56.674
 20
79.658
 10
56.847
 20
79.139
 10
56.975
 20
78.608
 10
57.056
 20
78.067
 10
57.091
 20
77.521
 10
57.079
 20
76.975
 10
57.019
 20
76.431
 10
56.914
 20
75.895
 10
56.762
 20
75.37
 10
56.566
 20
74.859
 10
56.327
 20
74.368
 10
56.046
 20
73.899
 10
55.726
 20
73.455
 10
55.369
 20
73.041
 10
54.978
 20
72.659
 10
54.555
 20
72.313
 10
54.104
 20
72.004
 10
53.902
 20
71.872
 10
53.704
 20
71.735
 10
53.511
 20
71.59
 10
53.323
 20
71.439
 10
53.14
 20
71.282
 10
52.962
 20
71.119
 10
52.79
 20
70.949
 10
52.624
 20
70.775
 10
52.464
 20
70.594
 10
52.31
 20
70.409
 10
52.163
 20
70.218
 10
52.021
 20
70.022
 10
51.887
 20
69.822
 10
51.76
 20
69.617
 10
51.639
 20
69.408
 10
51.526
 20
69.195
 10
51.42
 20
68.979
 10
51.321
 20
68.759
 10
51.229
 20
68.536
 10
51.146
 20
68.309
 10
51.07
 20
68.08
 10
51.001
 20
67.849
 10
50.941
 20
67.616
 10
50.888
 20
67.38
 10
50.844
 20
67.143
 10
50.807
 20
66.905
 10
50.779
 20
66.665
 10
50.759
 20
66.425
 10
50.746
 20
66.184
 10
50.742
 20
65.943
 10
50.742
 20
-65.943
 10
50.746
 20
-66.184
 10
50.759
 20
-66.425
 10
50.779
 20
-66.665
 10
50.807
 20
-66.905
 10
50.844
 20
-67.143
 10
50.888
 20
-67.38
 10
50.941
 20
-67.616
 10
51.001
 20
-67.849
 10
51.07
 20
-68.08
 10
51.146
 20
-68.309
 10
51.229
 20
-68.536
 10
51.321
 20
-68.759
 10
51.42
 20
-68.979
 10
51.526
 20
-69.195
 10
51.639
 20
-69.408
 10
51.76
 20
-69.617
 10
51.887
 20
-69.822
 10
52.021
 20
-70.022
 10
52.163
 20
-70.218
 10
52.31
 20
-70.409
 10
52.464
 20
-70.594
 10
52.624
 20
-70.775
 10
52.79
 20
-70.949
 10
52.962
 20
-71.119
 10
53.14
 20
-71.282
 10
53.323
 20
-71.439
 10
53.511
 20
-71.59
 10
53.704
 20
-71.735
 10
53.902
 20
-71.872
 10
54.104
 20
-72.004
 10
54.555
 20
-72.313
 10
54.978
 20
-72.659
 10
55.369
 20
-73.041
 10
55.726
 20
-73.455
 10
56.046
 20
-73.899
 10
56.327
 20
-74.368
 10
56.566
 20
-74.859
 10
56.762
 20
-75.37
 10
56.914
 20
-75.895
 10
57.019
 20
-76.431
 10
57.079
 20
-76.975
 10
57.091
 20
-77.521
 10
57.056
 20
-78.067
 10
56.975
 20
-78.608
 10
56.847
 20
-79.139
 10
56.674
 20
-79.658
 10
56.457
 20
-80.16
 10
56.198
 20
-80.641
 10
55.898
 20
-81.098
 10
55.56
 20
-81.528
 10
55.186
 20
-81.927
 10
54.779
 20
-82.292
 10
54.343
 20
-82.621
 10
53.88
 20
-82.912
 10
53.393
 20
-83.161
 10
52.887
 20
-83.368
 10
52.365
 20
-83.53
 10
51.831
 20
-83.647
 10
51.289
 20
-83.717
 10
50.742
 20
-83.741
 10
45.05
 20
-83.741
 10
45.008
 20
-83.74
 10
44.967
 20
-83.738
 10
44.925
 20
-83.736
 10
44.884
 20
-83.732
 10
44.843
 20
-83.727
 10
44.802
 20
-83.721
 10
44.761
 20
-83.714
 10
44.72
 20
-83.706
 10
44.679
 20
-83.697
 10
44.639
 20
-83.687
 10
44.599
 20
-83.675
 10
44.559
 20
-83.663
 10
44.52
 20
-83.65
 10
44.481
 20
-83.635
 10
44.442
 20
-83.62
 10
44.404
 20
-83.603
 10
44.366
 20
-83.586
 10
44.329
 20
-83.568
 10
44.292
 20
-83.548
 10
44.256
 20
-83.528
 10
44.22
 20
-83.507
 10
44.185
 20
-83.485
 10
44.151
 20
-83.461
 10
44.117
 20
-83.437
 10
44.084
 20
-83.413
 10
44.051
 20
-83.387
 10
44.019
 20
-83.36
 10
43.988
 20
-83.333
 10
43.957
 20
-83.305
 10
43.927
 20
-83.276
 10
40.889
 20
-80.237
 10
40.859
 20
-80.208
 10
40.828
 20
-80.18
 10
40.797
 20
-80.152
 10
40.765
 20
-80.126
 10
40.732
 20
-80.1
 10
40.699
 20
-80.075
 10
40.665
 20
-80.051
 10
40.631
 20
-80.028
 10
40.596
 20
-80.006
 10
40.56
 20
-79.985
 10
40.524
 20
-79.964
 10
40.487
 20
-79.945
 10
40.449
 20
-79.927
 10
40.412
 20
-79.909
 10
40.374
 20
-79.893
 10
40.335
 20
-79.877
 10
40.296
 20
-79.863
 10
40.257
 20
-79.85
 10
40.217
 20
-79.837
 10
40.177
 20
-79.826
 10
40.137
 20
-79.816
 10
40.096
 20
-79.807
 10
40.055
 20
-79.798
 10
40.014
 20
-79.791
 10
39.973
 20
-79.785
 10
39.932
 20
-79.781
 10
39.891
 20
-79.777
 10
39.849
 20
-79.774
 10
39.808
 20
-79.772
 10
39.766
 20
-79.772
 10
37.645
 20
-79.772
 10
27.072
 20
-78.641
 10
-30.713
 20
-58.055
 10
-37.296
 20
-57.15
 10
-49.996
 20
-57.15
 10
-50.695
 20
-57.119
 10
-51.39
 20
-57.027
 10
-52.073
 20
-56.873
 10
-52.74
 20
-56.66
  0
LWPOLYLINE
  5
32
330
17
100
AcDbEntity
  8
CUT
100
AcDbPolyline
 90
154
 70
0
 10
-15.185
 20
49.902
 10
-15.398
 20
49.754
 10
-15.605
 20
49.597
 10
-15.806
 20
49.431
 10
-15.999
 20
49.257
 10
-16.185
 20
49.076
 10
-16.364
 20
48.887
 10
-16.535
 20
48.691
 10
-16.697
 20
48.488
 10
-16.852
 20
48.279
 10
-16.997
 20
48.063
 10
-17.134
 20
47.842
 10
-17.261
 20
47.615
 10
-17.379
 20
47.383
 10
-17.487
 20
47.147
 10
-17.586
 20
46.906
 10
-17.675
 20
46.662
 10
-17.753
 20
46.414
 10
-17.822
 20
46.163
 10
-17.88
 20
45.91
 10
-17.928
 20
45.654
 10
-17.965
 20
45.397
 10
-17.991
 20
45.138
 10
-18.007
 20
44.879
 10
-18.013
 20
44.619
 10
-18.013
 20
33.84
 10
-18.0
 20
33.448
 10
-17.964
 20
33.057
 10
-17.904
 20
32.67
 10
-17.82
 20
32.287
 10
-17.712
 20
31.909
 10
-17.581
 20
31.539
 10
-17.428
 20
31.178
 10
-17.252
 20
30.827
 10
-17.056
 20
30.488
 10
-16.838
 20
30.161
 10
-16.601
 20
29.849
 10
-16.345
 20
29.551
 10
-16.071
 20
29.27
 10
-15.781
 20
29.007
 10
-15.474
 20
28.762
 10
-15.154
 20
28.536
 10
-14.819
 20
28.33
 10
-14.473
 20
28.146
 10
-14.116
 20
27.983
 10
-13.75
 20
27.843
 10
-13.375
 20
27.726
 10
-12.994
 20
27.631
 10
-12.608
 20
27.561
 10
-12.219
 20
27.515
 10
-11.827
 20
27.492
 10
-11.435
 20
27.494
 10
-11.043
 20
27.52
 10
-10.654
 20
27.571
 10
-10.269
 20
27.645
 10
-9.889
 20
27.743
 10
-9.364
 20
27.89
 10
-8.837
 20
28.028
 10
-8.307
 20
28.155
 10
-7.774
 20
28.272
 10
-7.24
 20
28.38
 10
-6.703
 20
28.477
 10
-6.165
 20
28.564
 10
-5.625
 20
28.641
 10
-5.084
 20
28.708
 10
-4.542
 20
28.764
 10
-3.999
 20
28.81
 10
-3.455
 20
28.846
 10
-2.91
 20
28.872
 10
-2.365
 20
28.887
 10
-1.82
 20
28.892
 10
-1.275
 20
28.887
 10
-0.73
 20
28.872
 10
-0.185
 20
28.846
 10
0.359
 20
28.81
 10
0.902
 20
28.764
 10
1.444
 20
28.708
 10
1.985
 20
28.641
 10
2.525
 20
28.564
 10
3.063
 20
28.477
 10
3.6
 20
28.38
 10
4.134
 20
28.272
 10
4.666
 20
28.155
 10
5.197
 20
28.028
 10
5.724
 20
27.89
 10
6.249
 20
27.743
 10
6.629
 20
27.645
 10
7.014
 20
27.571
 10
7.403
 20
27.52
 10
7.795
 20
27.494
 10
8.187
 20
27.492
 10
8.579
 20
27.515
 10
8.968
 20
27.561
 10
9.354
 20
27.631
 10
9.735
 20
27.726
 10
10.11
 20
27.843
 10
10.476
 20
27.983
 10
10.833
 20
28.146
 10
11.179
 20
28.33
 10
11.513
 20
28.536
 10
11.834
 20
28.762
 10
12.141
 20
29.007
 10
12.431
 20
29.27
 10
12.705
 20
29.551
 10
12.961
 20
29.849
 10
13.198
 20
30.161
 10
13.415
 20
30.488
 10
13.612
 20
30.827
 10
13.788
 20
31.178
 10
13.941
 20
31.539
 10
14.072
 20
31.909
 10
14.179
 20
32.287
 10
14.264
 20
32.67
 10
14.324
 20
33.057
 10
14.36
 20
33.448
 10
14.372
 20
33.84
 10
14.372
 20
51.631
 10
14.36
 20
52.036
 10
14.321
 20
52.439
 10
14.257
 20
52.839
 10
14.167
 20
53.234
 10
14.052
 20
53.622
 10
13.913
 20
54.002
 10
13.75
 20
54.373
 10
13.564
 20
54.732
 10
13.355
 20
55.079
 10
13.125
 20
55.412
 10
12.873
 20
55.729
 10
12.602
 20
56.03
 10
12.313
 20
56.313
 10
12.006
 20
56.577
 10
11.682
 20
56.821
 10
11.344
 20
57.043
 10
10.993
 20
57.244
 10
10.629
 20
57.422
 10
10.255
 20
57.576
 10
9.871
 20
57.706
 10
9.48
 20
57.812
 10
9.084
 20
57.892
 10
8.683
 20
57.947
 10
8.279
 20
57.976
 10
7.874
 20
57.98
 10
7.47
 20
57.957
 10
7.068
 20
57.909
 10
6.67
 20
57.836
 10
6.277
 20
57.737
 10
5.891
 20
57.613
 10
-13.794
 20
50.6
 10
-14.037
 20
50.508
 10
-14.276
 20
50.406
 10
-14.511
 20
50.294
 10
-14.741
 20
50.173
 10
-14.965
 20
50.042
 10
-15.185
 20
49.902
  0
LWPOLYLINE
  5
33
330
17
100
AcDbEntity
  8
CUT
100
AcDbPolyline
 90
154
 70
0
 10
-17.822
 20
-46.163
 10
-17.753
 20
-46.414
 10
-17.675
 20
-46.662
 10
-17.586
 20
-46.906
 10
-17.487
 20
-47.147
 10
-17.379
 20
-47.383
 10
-17.261
 20
-47.615
 10
-17.134
 20
-47.842
 10
-16.997
 20
-48.063
 10
-16.852
 20
-48.279
 10
-16.697
 20
-48.488
 10
-16.535
 20
-48.691
 10
-16.364
 20
-48.887
 10
-16.185
 20
-49.076
 10
-15.999
 20
-49.257
 10
-15.806
 20
-49.431
 10
-15.605
 20
-49.597
 10
-15.398
 20
-49.754
 10
-15.185
 20
-49.902
 10
-14.965
 20
-50.042
 10
-14.741
 20
-50.173
 10
-14.511
 20
-50.294
 10
-14.276
 20
-50.406
 10
-14.037
 20
-50.508
 10
-13.794
 20
-50.6
 10
5.891
 20
-57.613
 10
6.277
 20
-57.737
 10
6.67
 20
-57.836
 10
7.068
 20
-57.909
 10
7.47
 20
-57.957
 10
7.874
 20
-57.98
 10
8.279
 20
-57.976
 10
8.683
 20
-57.947
 10
9.084
 20
-57.892
 10
9.48
 20
-57.812
 10
9.871
 20
-57.706
 10
10.255
 20
-57.576
 10
10.629
 20
-57.422
 10
10.993
 20
-57.244
 10
11.344
 20
-57.043
 10
11.682
 20
-56.821
 10
12.006
 20
-56.577
 10
12.313
 20
-56.313
 10
12.602
 20
-56.03
 10
12.873
 20
-55.729
 10
13.125
 20
-55.412
 10
13.355
 20
-55.079
 10
13.564
 20
-54.732
 10
13.75
 20
-54.373
 10
13.913
 20
-54.002
 10
14.052
 20
-53.622
 10
14.167
 20
-53.234
 10
14.257
 20
-52.839
 10
14.321
 20
-52.439
 10
14.36
 20
-52.036
 10
14.372
 20
-51.631
 10
14.372
 20
-33.84
 10
14.36
 20
-33.448
 10
14.324
 20
-33.057
 10
14.264
 20
-32.67
 10
14.179
 20
-32.287
 10
14.072
 20
-31.909
 10
13.941
 20
-31.539
 10
13.788
 20
-31.178
 10
13.612
 20
-30.827
 10
13.415
 20
-30.488
 10
13.198
 20
-30.161
 10
12.961
 20
-29.849
 10
12.705
 20
-29.551
 10
12.431
 20
-29.27
 10
12.141
 20
-29.007
 10
11.834
 20
-28.762
 10
11.513
 20
-28.536
 10
11.179
 20
-28.33
 10
10.833
 20
-28.146
 10
10.476
 20
-27.983
 10
10.11
 20
-27.843
 10
9.735
 20
-27.726
 10
9.354
 20
-27.631
 10
8.968
 20
-27.561
 10
8.579
 20
-27.515
 10
8.187
 20
-27.492
 10
7.795
 20
-27.494
 10
7.403
 20
-27.52
 10
7.014
 20
-27.571
 10
6.629
 20
-27.645
 10
6.249
 20
-27.743
 10
5.724
 20
-27.89
 10
5.197
 20
-28.028
 10
4.666
 20
-28.155
 10
4.134
 20
-28.272
 10
3.6
 20
-28.38
 10
3.063
 20
-28.477
 10
2.525
 20
-28.564
 10
1.985
 20
-28.641
 10
1.444
 20
-28.708
 10
0.902
 20
-28.764
 10
0.359
 20
-28.81
 10
-0.185
 20
-28.846
 10
-0.73
 20
-28.872
 10
-1.275
 20
-28.887
 10
-1.82
 20
-28.892
 10
-2.365
 20
-28.887
 10
-2.91
 20
-28.872
 10
-3.455
 20
-28.846
 10
-3.999
 20
-28.81
 10
-4.542
 20
-28.764
 10
-5.084
 20
-28.708
 10
-5.625
 20
-28.641
 10
-6.165
 20
-28.564
 10
-6.703
 20
-28.477
 10
-7.24
 20
-28.38
 10
-7.774
 20
-28.272
 10
-8.307
 20
-28.155
 10
-8.837
 20
-28.028
 10
-9.364
 20
-27.89
 10
-9.889
 20
-27.743
 10
-10.269
 20
-27.645
 10
-10.654
 20
-27.571
 10
-11.043
 20
-27.52
 10
-11.435
 20
-27.494
 10
-11.827
 20
-27.492
 10
-12.219
 20
-27.515
 10
-12.608
 20
-27.561
 10
-12.994
 20
-27.631
 10
-13.375
 20
-27.726
 10
-13.75
 20
-27.843
 10
-14.116
 20
-27.983
 10
-14.473
 20
-28.146
 10
-14.819
 20
-28.33
 10
-15.154
 20
-28.536
 10
-15.474
 20
-28.762
 10
-15.781
 20
-29.007
 10
-16.071
 20
-29.27
 10
-16.345
 20
-29.551
 10
-16.601
 20
-29.849
 10
-16.838
 20
-30.161
 10
-17.056
 20
-30.488
 10
-17.252
 20
-30.827
 10
-17.428
 20
-31.178
 10
-17.581
 20
-31.539
 10
-17.712
 20
-31.909
 10
-17.82
 20
-32.287
 10
-17.904
 20
-32.67
 10
-17.964
 20
-33.057
 10
-18.0
 20
-33.448
 10
-18.013
 20
-33.84
 10
-18.013
 20
-44.619
 10
-18.007
 20
-44.879
 10
-17.991
 20
-45.138
 10
-17.965
 20
-45.397
 10
-17.928
 20
-45.654
 10
-17.88
 20
-45.91
 10
-17.822
 20
-46.163
  0
LWPOLYLINE
  5
34
330
17
100
AcDbEntity
  8
CUT
100
AcDbPolyline
 90
31
 70
0
 10
14.284
 20
-1.693
 10
14.284
 20
1.693
 10
13.58
 20
5.004
 10
12.203
 20
8.096
 10
10.213
 20
10.835
 10
7.698
 20
13.1
 10
4.766
 20
14.793
 10
1.547
 20
15.839
 10
-1.82
 20
16.192
 10
-5.187
 20
15.839
 10
-8.406
 20
14.793
 10
-11.338
 20
13.1
 10
-13.853
 20
10.835
 10
-15.843
 20
8.096
 10
-17.22
 20
5.004
 10
-17.924
 20
1.693
 10
-17.924
 20
-1.693
 10
-17.22
 20
-5.004
 10
-15.843
 20
-8.096
 10
-13.853
 20
-10.835
 10
-11.338
 20
-13.1
 10
-8.406
 20
-14.793
 10
-5.187
 20
-15.839
 10
-1.82
 20
-16.193
 10
1.547
 20
-15.839
 10
4.766
 20
-14.793
 10
7.698
 20
-13.1
 10
10.213
 20
-10.835
 10
12.203
 20
-8.096
 10
13.58
 20
-5.004
 10
14.284
 20
-1.693
  0
LWPOLYLINE
  5
35
330
17
100
AcDbEntity
  8
CUT
100
AcDbPolyline
 90
31
 70
0
 10
-49.682
 20
52.196
 10
-50.309
 20
52.196
 10
-50.923
 20
52.066
 10
-51.496
 20
51.811
 10
-52.003
 20
51.442
 10
-52.423
 20
50.976
 10
-52.736
 20
50.433
 10
-52.93
 20
49.836
 10
-52.996
 20
49.213
 10
-52.93
 20
48.589
 10
-52.736
 20
47.992
 10
-52.423
 20
47.449
 10
-52.003
 20
46.983
 10
-51.496
 20
46.614
 10
-50.923
 20
46.359
 10
-50.309
 20
46.229
 10
-49.682
 20
46.229
 10
-49.069
 20
46.359
 10
-48.496
 20
46.614
 10
-47.988
 20
46.983
 10
-47.569
 20
47.449
 10
-47.255
 20
47.992
 10
-47.061
 20
48.589
 10
-46.996
 20
49.213
 10
-47.061
 20
49.836
 10
-47.255
 20
50.433
 10
-47.569
 20
50.976
 10
-47.988
 20
51.442
 10
-48.496
 20
51.811
 10
-49.069
 20
52.066
 10
-49.682
 20
52.196
  0
LWPOLYLINE
  5
36
330
17
100
AcDbEntity
  8
CUT
100
AcDbPolyline
 90
31
 70
0
 10
-49.682
 20
-46.229
 10
-50.309
 20
-46.229
 10
-50.923
 20
-46.359
 10
-51.496
 20
-46.614
 10
-52.003
 20
-46.983
 10
-52.423
 20
-47.449
 10
-52.736
 20
-47.992
 10
-52.93
 20
-48.589
 10
-52.996
 20
-49.212
 10
-52.93
 20
-49.836
 10
-52.736
 20
-50.433
 10
-52.423
 20
-50.976
 10
-52.003
 20
-51.442
 10
-51.496
 20
-51.811
 10
-50.923
 20
-52.066
 10
-50.309
 20
-52.196
 10
-49.682
 20
-52.196
 10
-49.069
 20
-52.066
 10
-48.496
 20
-51.811
 10
-47.988
 20
-51.442
 10
-47.569
 20
-50.976
 10
-47.255
 20
-50.433
 10
-47.061
 20
-49.836
 10
-46.996
 20
-49.212
 10
-47.061
 20
-48.589
 10
-47.255
 20
-47.992
 10
-47.569
 20
-47.449
 10
-47.988
 20
-46.983
 10
-48.496
 20
-46.614
 10
-49.069
 20
-46.359
 10
-49.682
 20
-46.229
  0
LWPOLYLINE
  5
37
330
17
100
AcDbEntity
  8
CUT
100
AcDbPolyline
 90
63
 70
0
 10
48.513
 20
-80.192
 10
48.735
 20
-80.414
 10
48.979
 20
-80.611
 10
49.242
 20
-80.782
 10
49.522
 20
-80.925
 10
49.815
 20
-81.038
 10
50.119
 20
-81.119
 10
50.429
 20
-81.168
 10
50.742
 20
-81.184
 10
51.056
 20
-81.168
 10
51.366
 20
-81.119
 10
51.669
 20
-81.038
 10
51.963
 20
-80.925
 10
52.242
 20
-80.782
 10
52.506
 20
-80.611
 10
52.75
 20
-80.414
 10
52.972
 20
-80.192
 10
53.169
 20
-79.948
 10
53.34
 20
-79.684
 10
53.483
 20
-79.405
 10
53.596
 20
-79.111
 10
53.677
 20
-78.808
 10
53.726
 20
-78.498
 10
53.742
 20
-78.184
 10
53.742
 20
-76.597
 10
53.726
 20
-76.283
 10
53.677
 20
-75.973
 10
53.596
 20
-75.67
 10
53.483
 20
-75.377
 10
53.34
 20
-75.097
 10
53.169
 20
-74.834
 10
52.972
 20
-74.589
 10
52.75
 20
-74.367
 10
52.506
 20
-74.17
 10
52.242
 20
-73.999
 10
51.963
 20
-73.856
 10
51.669
 20
-73.744
 10
51.366
 20
-73.662
 10
51.056
 20
-73.613
 10
50.742
 20
-73.597
 10
50.429
 20
-73.613
 10
50.119
 20
-73.662
 10
49.815
 20
-73.744
 10
49.522
 20
-73.856
 10
49.242
 20
-73.999
 10
48.979
 20
-74.17
 10
48.735
 20
-74.367
 10
48.513
 20
-74.589
 10
48.315
 20
-74.834
 10
48.144
 20
-75.097
 10
48.002
 20
-75.377
 10
47.889
 20
-75.67
 10
47.808
 20
-75.973
 10
47.759
 20
-76.283
 10
47.742
 20
-76.597
 10
47.742
 20
-78.184
 10
47.759
 20
-78.498
 10
47.808
 20
-78.808
 10
47.889
 20
-79.111
 10
48.002
 20
-79.405
 10
48.144
 20
-79.684
 10
48.315
 20
-79.948
 10
48.513
 20
-80.192
  0
LWPOLYLINE
  5
38
330
17
100
AcDbEntity
  8
CUT
100
AcDbPolyline
 90
63
 70
0
 10
48.315
 20
74.834
 10
48.513
 20
74.589
 10
48.735
 20
74.367
 10
48.979
 20
74.17
 10
49.242
 20
73.999
 10
49.522
 20
73.856
 10
49.815
 20
73.744
 10
50.119
 20
73.662
 10
50.429
 20
73.613
 10
50.742
 20
73.597
 10
51.056
 20
73.613
 10
51.366
 20
73.662
 10
51.669
 20
73.744
 10
51.963
 20
73.856
 10
52.242
 20
73.999
 10
52.506
 20
74.17
 10
52.75
 20
74.367
 10
52.972
 20
74.589
 10
53.169
 20
74.834
 10
53.34
 20
75.097
 10
53.483
 20
75.377
 10
53.596
 20
75.67
 10
53.677
 20
75.973
 10
53.726
 20
76.283
 10
53.742
 20
76.597
 10
53.742
 20
78.184
 10
53.726
 20
78.498
 10
53.677
 20
78.808
 10
53.596
 20
79.111
 10
53.483
 20
79.405
 10
53.34
 20
79.684
 10
53.169
 20
79.948
 10
52.972
 20
80.192
 10
52.75
 20
80.414
 10
52.506
 20
80.611
 10
52.242
 20
80.782
 10
51.963
 20
80.925
 10
51.669
 20
81.038
 10
51.366
 20
81.119
 10
51.056
 20
81.168
 10
50.742
 20
81.184
 10
50.429
 20
81.168
 10
50.119
 20
81.119
 10
49.815
 20
81.038
 10
49.522
 20
80.925
 10
49.242
 20
80.782
 10
48.979
 20
80.611
 10
48.735
 20
80.414
 10
48.513
 20
80.192
 10
48.315
 20
79.948
 10
48.144
 20
79.684
 10
48.002
 20
79.405
 10
47.889
 20
79.111
 10
47.808
 20
78.808
 10
47.759
 20
78.498
 10
47.742
 20
78.184
 10
47.742
 20
76.597
 10
47.759
 20
76.283
 10
47.808
 20
75.973
 10
47.889
 20
75.67
 10
48.002
 20
75.377
 10
48.144
 20
75.097
 10
48.315
 20
74.834
  0
LINE
  5
39
330
17
100
AcDbEntity
  8
FOLD
  6
DASHED
100
AcDbLine
 10
32.35897087779306
 20
93.741
 30
0.0
 11
32.358970877793084
 21
-93.74100000000001
 31
0.0
  0
LINE
  5
3A
330
17
100
AcDbEntity
  8
FOLD
  6
DASHED
100
AcDbLine
 10
-34.004147862832994
 20
-93.741
 30
0.0
 11
-34.004147862832994
 21
93.74099999999999
 31
0.0
  0
ENDSEC
  0
SECTION
  2
OBJECTS
  0
DICTIONARY
  5
A
330
0
100
AcDbDictionary
281
1
  3
ACAD_COLOR
350
B
  3
ACAD_GROUP
350
C
  3
ACAD_LAYOUT
350
D
  3
ACAD_MATERIAL
350
E
  3
ACAD_MLEADERSTYLE
350
F
  3
ACAD_MLINESTYLE
350
10
  3
ACAD_PLOTSETTINGS
350
11
  3
ACAD_PLOTSTYLENAME
350
12
  3
ACAD_SCALELIST
350
14
  3
ACAD_TABLESTYLE
350
15
  3
ACAD_VISUALSTYLE
350
16
  3
EZDXF_META
350
2D
  0
DICTIONARY
  5
B
330
A
100
AcDbDictionary
281
1
  0
DICTIONARY
  5
C
330
A
100
AcDbDictionary
281
1
  0
DICTIONARY
  5
D
330
A
100
AcDbDictionary
281
1
  3
Model
350
1A
  3
Layout1
350
1E
  0
DICTIONARY
  5
E
330
A
100
AcDbDictionary
281
1
  3
ByBlock
350
1F
  3
ByLayer
350
20
  3
Global
350
21
  0
DICTIONARY
  5
F
330
A
100
AcDbDictionary
281
1
  3
Standard
350
2C
  0
DICTIONARY
  5
10
330
A
100
AcDbDictionary
281
1
  3
Standard
350
22
  0
DICTIONARY
  5
11
330
A
100
AcDbDictionary
281
1
  0
ACDBDICTIONARYWDFLT
  5
12
330
A
100
AcDbDictionary
281
1
  3
Normal
350
13
100
AcDbDictionaryWithDefault
340
13
  0
ACDBPLACEHOLDER
  5
13
330
12
  0
DICTIONARY
  5
14
330
A
100
AcDbDictionary
281
1
  0
DICTIONARY
  5
15
330
A
100
AcDbDictionary
281
1
  0
DICTIONARY
  5
16
330
A
100
AcDbDictionary
281
1
  0
LAYOUT
  5
1A
330
D
100
AcDbPlotSettings
  1

  4
A3
  6

 40
7.5
 41
20.0
 42
7.5
 43
20.0
 44
420.0
 45
297.0
 46
0.0
 47
0.0
 48
0.0
 49
0.0
140
0.0
141
0.0
142
1.0
143
1.0
 70
1024
 72
1
 73
0
 74
5
  7

 75
16
 76
0
 77
2
 78
300
147
1.0
148
0.0
149
0.0
100
AcDbLayout
  1
Model
 70
1
 71
0
 10
0.0
 20
0.0
 11
420.0
 21
297.0
 12
0.0
 22
0.0
 32
0.0
 14
1e+20
 24
1e+20
 34
1e+20
 15
-1e+20
 25
-1e+20
 35
-1e+20
146
0.0
 13
0.0
 23
0.0
 33
0.0
 16
1.0
 26
0.0
 36
0.0
 17
0.0
 27
1.0
 37
0.0
 76
1
330
17
  0
LAYOUT
  5
1E
330
D
100
AcDbPlotSettings
  1

  4
A3
  6

 40
7.5
 41
20.0
 42
7.5
 43
20.0
 44
420.0
 45
297.0
 46
0.0
 47
0.0
 48
0.0
 49
0.0
140
0.0
141
0.0
142
1.0
143
1.0
 70
0
 72
1
 73
0
 74
5
  7

 75
16
 76
0
 77
2
 78
300
147
1.0
148
0.0
149
0.0
100
AcDbLayout
  1
Layout1
 70
1
 71
1
 10
0.0
 20
0.0
 11
420.0
 21
297.0
 12
0.0
 22
0.0
 32
0.0
 14
1e+20
 24
1e+20
 34
1e+20
 15
-1e+20
 25
-1e+20
 35
-1e+20
146
0.0
 13
0.0
 23
0.0
 33
0.0
 16
1.0
 26
0.0
 36
0.0
 17
0.0
 27
1.0
 37
0.0
 76
1
330
1B
  0
MATERIAL
  5
1F
102
{ACAD_REACTORS
330
E
102
}
330
E
100
AcDbMaterial
  1
ByBlock
  2

 70
0
 40
1.0
 71
1
 41
1.0
 91
-1023410177
 42
1.0
 72
1
  3

 73
1
 74
1
 75
1
 44
0.5
 73
0
 45
1.0
 46
1.0
 77
1
  4

 78
1
 79
1
170
1
 48
1.0
171
1
  6

172
1
173
1
174
1
140
1.0
141
1.0
175
1
  7

176
1
177
1
178
1
143
1.0
179
1
  8

270
1
271
1
272
1
145
1.0
146
1.0
273
1
  9

274
1
275
1
276
1
 42
1.0
 72
1
  3

 73
1
 74
1
 75
1
 94
63
  0
MATERIAL
  5
20
102
{ACAD_REACTORS
330
E
102
}
330
E
100
AcDbMaterial
  1
ByLayer
  2

 70
0
 40
1.0
 71
1
 41
1.0
 91
-1023410177
 42
1.0
 72
1
  3

 73
1
 74
1
 75
1
 44
0.5
 73
0
 45
1.0
 46
1.0
 77
1
  4

 78
1
 79
1
170
1
 48
1.0
171
1
  6

172
1
173
1
174
1
140
1.0
141
1.0
175
1
  7

176
1
177
1
178
1
143
1.0
179
1
  8

270
1
271
1
272
1
145
1.0
146
1.0
273
1
  9

274
1
275
1
276
1
 42
1.0
 72
1
  3

 73
1
 74
1
 75
1
 94
63
  0
MATERIAL
  5
21
102
{ACAD_REACTORS
330
E
102
}
330
E
100
AcDbMaterial
  1
Global
  2

 70
0
 40
1.0
 71
1
 41
1.0
 91
-1023410177
 42
1.0
 72
1
  3

 73
1
 74
1
 75
1
 44
0.5
 73
0
 45
1.0
 46
1.0
 77
1
  4

 78
1
 79
1
170
1
 48
1.0
171
1
  6

172
1
173
1
174
1
140
1.0
141
1.0
175
1
  7

176
1
177
1
178
1
143
1.0
179
1
  8

270
1
271
1
272
1
145
1.0
146
1.0
273
1
  9

274
1
275
1
276
1
 42
1.0
 72
1
  3

 73
1
 74
1
 75
1
 94
63
  0
MLINESTYLE
  5
22
102
{ACAD_REACTORS
330
10
102
}
330
10
100
AcDbMlineStyle
  2
Standard
 70
0
  3

 62
256
 51
90.0
 52
90.0
 71
2
 49
0.5
 62
256
  6
BYLAYER
 49
-0.5
 62
256
  6
BYLAYER
  0
MLEADERSTYLE
  5
2C
102
{ACAD_REACTORS
330
F
102
}
330
F
100
AcDbMLeaderStyle
179
2
170
2
171
1
172
0
 90
2
 40
0.0
 41
0.0
173
1
 91
-1056964608
 92
-2
290
1
 42
2.0
291
1
 43
8.0
  3
Standard
 44
4.0
300

342
29
174
1
175
1
176
0
178
1
 93
-1056964608
 45
4.0
292
0
297
0
 46
4.0
 94
-1056964608
 47
1.0
 49
1.0
140
1.0
294
1
141
0.0
177
0
142
1.0
295
0
296
0
143
3.75
271
0
272
9
273
9
  0
DICTIONARY
  5
2D
330
A
100
AcDbDictionary
280
1
281
1
  3
CREATED_BY_EZDXF
350
2E
  3
WRITTEN_BY_EZDXF
350
3D
  0
DICTIONARYVAR
  5
2E
330
2D
100
DictionaryVariables
280
0
  1
1.4.4 @ 2026-07-18T08:16:23.628755+00:00
  0
DICTIONARYVAR
  5
3D
330
2D
100
DictionaryVariables
280
0
  1
1.4.4 @ 2026-07-18T08:16:23.634752+00:00
  0
ENDSEC
  0
EOF
