  0
SECTION
  2
HEADER
  9
$ACADVER
  1
AC1024
  9
$ACADMAINTVER
 70
6
  9
$DWGCODEPAGE
  3
ANSI_1252
  9
$LASTSAVEDBY
  1
ezdxf
  9
$INSBASE
 10
0.0
 20
0.0
 30
0.0
  9
$EXTMIN
 10
1e+20
 20
1e+20
 30
1e+20
  9
$EXTMAX
 10
-1e+20
 20
-1e+20
 30
-1e+20
  9
$LIMMIN
 10
0.0
 20
0.0
  9
$LIMMAX
 10
420.0
 20
297.0
  9
$ORTHOMODE
 70
0
  9
$REGENMODE
 70
1
  9
$FILLMODE
 70
1
  9
$QTEXTMODE
 70
0
  9
$MIRRTEXT
 70
1
  9
$LTSCALE
 40
1.0
  9
$ATTMODE
 70
1
  9
$TEXTSIZE
 40
2.5
  9
$TRACEWID
 40
1.0
  9
$TEXTSTYLE
  7
Standard
  9
$CLAYER
  8
0
  9
$CELTYPE
  6
ByLayer
  9
$CECOLOR
 62
256
  9
$CELTSCALE
 40
1.0
  9
$DISPSILH
 70
0
  9
$DIMSCALE
 40
1.0
  9
$DIMASZ
 40
2.5
  9
$DIMEXO
 40
0.625
  9
$DIMDLI
 40
3.75
  9
$DIMRND
 40
0.0
  9
$DIMDLE
 40
0.0
  9
$DIMEXE
 40
1.25
  9
$DIMTP
 40
0.0
  9
$DIMTM
 40
0.0
  9
$DIMTXT
 40
2.5
  9
$DIMCEN
 40
2.5
  9
$DIMTSZ
 40
0.0
  9
$DIMTOL
 70
0
  9
$DIMLIM
 70
0
  9
$DIMTIH
 70
0
  9
$DIMTOH
 70
0
  9
$DIMSE1
 70
0
  9
$DIMSE2
 70
0
  9
$DIMTAD
 70
1
  9
$DIMZIN
 70
8
  9
$DIMBLK
  1

  9
$DIMASO
 70
1
  9
$DIMSHO
 70
1
  9
$DIMPOST
  1

  9
$DIMAPOST
  1

  9
$DIMALT
 70
0
  9
$DIMALTD
 70
3
  9
$DIMALTF
 40
0.03937007874
  9
$DIMLFAC
 40
1.0
  9
$DIMTOFL
 70
1
  9
$DIMTVP
 40
0.0
  9
$DIMTIX
 70
0
  9
$DIMSOXD
 70
0
  9
$DIMSAH
 70
0
  9
$DIMBLK1
  1

  9
$DIMBLK2
  1

  9
$DIMSTYLE
  2
ISO-25
  9
$DIMCLRD
 70
0
  9
$DIMCLRE
 70
0
  9
$DIMCLRT
 70
0
  9
$DIMTFAC
 40
1.0
  9
$DIMGAP
 40
0.625
  9
$DIMJUST
 70
0
  9
$DIMSD1
 70
0
  9
$DIMSD2
 70
0
  9
$DIMTOLJ
 70
0
  9
$DIMTZIN
 70
8
  9
$DIMALTZ
 70
0
  9
$DIMALTTZ
 70
0
  9
$DIMUPT
 70
0
  9
$DIMDEC
 70
2
  9
$DIMTDEC
 70
2
  9
$DIMALTU
 70
2
  9
$DIMALTTD
 70
3
  9
$DIMTXSTY
  7
Standard
  9
$DIMAUNIT
 70
0
  9
$DIMADEC
 70
0
  9
$DIMALTRND
 40
0.0
  9
$DIMAZIN
 70
0
  9
$DIMDSEP
 70
44
  9
$DIMATFIT
 70
3
  9
$DIMFRAC
 70
0
  9
$DIMLDRBLK
  1

  9
$DIMLUNIT
 70
2
  9
$DIMLWD
 70
-2
  9
$DIMLWE
 70
-2
  9
$DIMTMOVE
 70
0
  9
$DIMFXL
 40
1.0
  9
$DIMFXLON
 70
0
  9
$DIMJOGANG
 40
0.785398163397
  9
$DIMTFILL
 70
0
  9
$DIMTFILLCLR
 70
0
  9
$DIMARCSYM
 70
0
  9
$DIMLTYPE
  6

  9
$DIMLTEX1
  6

  9
$DIMLTEX2
  6

  9
$DIMTXTDIRECTION
 70
0
  9
$LUNITS
 70
2
  9
$LUPREC
 70
4
  9
$SKETCHINC
 40
1.0
  9
$FILLETRAD
 40
10.0
  9
$AUNITS
 70
0
  9
$AUPREC
 70
2
  9
$MENU
  1
.
  9
$ELEVATION
 40
0.0
  9
$PELEVATION
 40
0.0
  9
$THICKNESS
 40
0.0
  9
$LIMCHECK
 70
0
  9
$CHAMFERA
 40
0.0
  9
$CHAMFERB
 40
0.0
  9
$CHAMFERC
 40
0.0
  9
$CHAMFERD
 40
0.0
  9
$SKPOLY
 70
0
  9
$TDCREATE
 40
2461240.8599305553
  9
$TDUCREATE
 40
2458532.153996898
  9
$TDUPDATE
 40
2461240.8599305553
  9
$TDUUPDATE
 40
2458532.1544311
  9
$TDINDWG
 40
0.0
  9
$TDUSRTIMER
 40
0.0
  9
$USRTIMER
 70
1
  9
$ANGBASE
 50
0.0
  9
$ANGDIR
 70
0
  9
$PDMODE
 70
0
  9
$PDSIZE
 40
0.0
  9
$PLINEWID
 40
0.0
  9
$SPLFRAME
 70
0
  9
$SPLINETYPE
 70
6
  9
$SPLINESEGS
 70
8
  9
$HANDSEED
  5
3E
  9
$SURFTAB1
 70
6
  9
$SURFTAB2
 70
6
  9
$SURFTYPE
 70
6
  9
$SURFU
 70
6
  9
$SURFV
 70
6
  9
$UCSBASE
  2

  9
$UCSNAME
  2

  9
$UCSORG
 10
0.0
 20
0.0
 30
0.0
  9
$UCSXDIR
 10
1.0
 20
0.0
 30
0.0
  9
$UCSYDIR
 10
0.0
 20
1.0
 30
0.0
  9
$UCSORTHOREF
  2

  9
$UCSORTHOVIEW
 70
0
  9
$UCSORGTOP
 10
0.0
 20
0.0
 30
0.0
  9
$UCSORGBOTTOM
 10
0.0
 20
0.0
 30
0.0
  9
$UCSORGLEFT
 10
0.0
 20
0.0
 30
0.0
  9
$UCSORGRIGHT
 10
0.0
 20
0.0
 30
0.0
  9
$UCSORGFRONT
 10
0.0
 20
0.0
 30
0.0
  9
$UCSORGBACK
 10
0.0
 20
0.0
 30
0.0
  9
$PUCSBASE
  2

  9
$PUCSNAME
  2

  9
$PUCSORG
 10
0.0
 20
0.0
 30
0.0
  9
$PUCSXDIR
 10
1.0
 20
0.0
 30
0.0
  9
$PUCSYDIR
 10
0.0
 20
1.0
 30
0.0
  9
$PUCSORTHOREF
  2

  9
$PUCSORTHOVIEW
 70
0
  9
$PUCSORGTOP
 10
0.0
 20
0.0
 30
0.0
  9
$PUCSORGBOTTOM
 10
0.0
 20
0.0
 30
0.0
  9
$PUCSORGLEFT
 10
0.0
 20
0.0
 30
0.0
  9
$PUCSORGRIGHT
 10
0.0
 20
0.0
 30
0.0
  9
$PUCSORGFRONT
 10
0.0
 20
0.0
 30
0.0
  9
$PUCSORGBACK
 10
0.0
 20
0.0
 30
0.0
  9
$USERI1
 70
0
  9
$USERI2
 70
0
  9
$USERI3
 70
0
  9
$USERI4
 70
0
  9
$USERI5
 70
0
  9
$USERR1
 40
0.0
  9
$USERR2
 40
0.0
  9
$USERR3
 40
0.0
  9
$USERR4
 40
0.0
  9
$USERR5
 40
0.0
  9
$WORLDVIEW
 70
1
  9
$SHADEDGE
 70
3
  9
$SHADEDIF
 70
70
  9
$TILEMODE
 70
1
  9
$MAXACTVP
 70
64
  9
$PINSBASE
 10
0.0
 20
0.0
 30
0.0
  9
$PLIMCHECK
 70
0
  9
$PEXTMIN
 10
1e+20
 20
1e+20
 30
1e+20
  9
$PEXTMAX
 10
-1e+20
 20
-1e+20
 30
-1e+20
  9
$PLIMMIN
 10
0.0
 20
0.0
  9
$PLIMMAX
 10
420.0
 20
297.0
  9
$UNITMODE
 70
0
  9
$VISRETAIN
 70
1
  9
$PLINEGEN
 70
0
  9
$PSLTSCALE
 70
1
  9
$TREEDEPTH
 70
3020
  9
$CMLSTYLE
  2
Standard
  9
$CMLJUST
 70
0
  9
$CMLSCALE
 40
20.0
  9
$PROXYGRAPHICS
 70
1
  9
$MEASUREMENT
 70
1
  9
$CELWEIGHT
370
-1
  9
$ENDCAPS
280
0
  9
$JOINSTYLE
280
0
  9
$LWDISPLAY
290
0
  9
$INSUNITS
 70
6
  9
$HYPERLINKBASE
  1

  9
$STYLESHEET
  1

  9
$XEDIT
290
1
  9
$CEPSNTYPE
380
0
  9
$PSTYLEMODE
290
1
  9
$FINGERPRINTGUID
  2
{E2217BB7-2210-4E8D-ACA6-C30E6E204BC3}
  9
$VERSIONGUID
  2
{3523336A-C295-4910-B180-8E3AF4FFD2F0}
  9
$EXTNAMES
290
1
  9
$PSVPSCALE
 40
0.0
  9
$OLESTARTUP
290
0
  9
$SORTENTS
280
127
  9
$INDEXCTL
280
0
  9
$HIDETEXT
280
1
  9
$XCLIPFRAME
280
1
  9
$HALOGAP
280
0
  9
$OBSCOLOR
 70
257
  9
$OBSLTYPE
280
0
  9
$INTERSECTIONDISPLAY
280
0
  9
$INTERSECTIONCOLOR
 70
257
  9
$DIMASSOC
280
2
  9
$PROJECTNAME
  1

  9
$CAMERADISPLAY
290
0
  9
$LENSLENGTH
 40
50.0
  9
$CAMERAHEIGHT
 40
0.0
  9
$STEPSPERSEC
 40
24.0
  9
$STEPSIZE
 40
100.0
  9
$3DDWFPREC
 40
2.0
  9
$PSOLWIDTH
 40
0.005
  9
$PSOLHEIGHT
 40
0.08
  9
$LOFTANG1
 40
1.570796326795
  9
$LOFTANG2
 40
1.570796326795
  9
$LOFTMAG1
 40
0.0
  9
$LOFTMAG2
 40
0.0
  9
$LOFTPARAM
 70
7
  9
$LOFTNORMALS
280
1
  9
$LATITUDE
 40
37.795
  9
$LONGITUDE
 40
-122.394
  9
$NORTHDIRECTION
 40
0.0
  9
$TIMEZONE
 70
-8000
  9
$LIGHTGLYPHDISPLAY
280
1
  9
$TILEMODELIGHTSYNCH
280
1
  9
$CMATERIAL
347
20
  9
$SOLIDHIST
280
0
  9
$SHOWHIST
280
1
  9
$DWFFRAME
280
2
  9
$DGNFRAME
280
2
  9
$REALWORLDSCALE
290
1
  9
$INTERFERECOLOR
 62
256
  9
$CSHADOW
280
0
  9
$SHADOWPLANELOCATION
 40
0.0
  0
ENDSEC
  0
SECTION
  2
CLASSES
  0
CLASS
  1
ACDBDICTIONARYWDFLT
  2
AcDbDictionaryWithDefault
  3
ObjectDBX Classes
 90
0
 91
0
280
0
281
0
  0
CLASS
  1
SUN
  2
AcDbSun
  3
SCENEOE
 90
1153
 91
0
280
0
281
0
  0
CLASS
  1
VISUALSTYLE
  2
AcDbVisualStyle
  3
ObjectDBX Classes
 90
4095
 91
0
280
0
281
0
  0
CLASS
  1
MATERIAL
  2
AcDbMaterial
  3
ObjectDBX Classes
 90
1153
 91
0
280
0
281
0
  0
CLASS
  1
SCALE
  2
AcDbScale
  3
ObjectDBX Classes
 90
1153
 91
0
280
0
281
0
  0
CLASS
  1
TABLESTYLE
  2
AcDbTableStyle
  3
ObjectDBX Classes
 90
4095
 91
0
280
0
281
0
  0
CLASS
  1
MLEADERSTYLE
  2
AcDbMLeaderStyle
  3
ACDB_MLEADERSTYLE_CLASS
 90
4095
 91
0
280
0
281
0
  0
CLASS
  1
DICTIONARYVAR
  2
AcDbDictionaryVar
  3
ObjectDBX Classes
 90
0
 91
0
280
0
281
0
  0
CLASS
  1
CELLSTYLEMAP
  2
AcDbCellStyleMap
  3
ObjectDBX Classes
 90
1152
 91
0
280
0
281
0
  0
CLASS
  1
MENTALRAYRENDERSETTINGS
  2
AcDbMentalRayRenderSettings
  3
SCENEOE
 90
1024
 91
0
280
0
281
0
  0
CLASS
  1
ACDBDETAILVIEWSTYLE
  2
AcDbDetailViewStyle
  3
ObjectDBX Classes
 90
1025
 91
0
280
0
281
0
  0
CLASS
  1
ACDBSECTIONVIEWSTYLE
  2
AcDbSectionViewStyle
  3
ObjectDBX Classes
 90
1025
 91
0
280
0
281
0
  0
CLASS
  1
RASTERVARIABLES
  2
AcDbRasterVariables
  3
ISM
 90
0
 91
0
280
0
281
0
  0
CLASS
  1
LAYOUT
  2
AcDbLayout
  3
ObjectDBX Classes
 90
0
 91
0
280
0
281
0
  0
CLASS
  1
ACDBPLACEHOLDER
  2
AcDbPlaceHolder
  3
ObjectDBX Classes
 90
0
 91
0
280
0
281
0
  0
ENDSEC
  0
SECTION
  2
TABLES
  0
TABLE
  2
VPORT
  5
8
330
0
100
AcDbSymbolTable
 70
1
  0
VPORT
  5
23
330
8
100
AcDbSymbolTableRecord
100
AcDbViewportTableRecord
  2
*Active
 70
0
 10
0.0
 20
0.0
 11
1.0
 21
1.0
 12
0.0
 22
0.0
 13
0.0
 23
0.0
 14
0.5
 24
0.5
 15
0.5
 25
0.5
 16
0.0
 26
0.0
 36
1.0
 17
0.0
 27
0.0
 37
0.0
 40
1000.0
 41
1.34
 42
50.0
 43
0.0
 44
0.0
 50
0.0
 51
0.0
 71
0
 72
1000
 73
1
 74
3
 75
0
 76
0
 77
0
 78
0
281
0
 65
0
146
0.0
  0
ENDTAB
  0
TABLE
  2
LTYPE
  5
2
330
0
100
AcDbSymbolTable
 70
3
  0
LTYPE
  5
24
330
2
100
AcDbSymbolTableRecord
100
AcDbLinetypeTableRecord
  2
ByBlock
 70
0
  3

 72
65
 73
0
 40
0.0
  0
LTYPE
  5
25
330
2
100
AcDbSymbolTableRecord
100
AcDbLinetypeTableRecord
  2
ByLayer
 70
0
  3

 72
65
 73
0
 40
0.0
  0
LTYPE
  5
26
330
2
100
AcDbSymbolTableRecord
100
AcDbLinetypeTableRecord
  2
Continuous
 70
0
  3

 72
65
 73
0
 40
0.0
  0
ENDTAB
  0
TABLE
  2
LAYER
  5
1
330
0
100
AcDbSymbolTable
 70
4
  0
LAYER
  5
27
330
1
100
AcDbSymbolTableRecord
100
AcDbLayerTableRecord
  2
0
 70
0
 62
7
  6
Continuous
370
-3
390
13
347
21
  0
LAYER
  5
28
330
1
100
AcDbSymbolTableRecord
100
AcDbLayerTableRecord
  2
Defpoints
 70
0
 62
7
  6
Continuous
290
0
370
-3
390
13
347
21
  0
LAYER
  5
2F
330
1
100
AcDbSymbolTableRecord
100
AcDbLayerTableRecord
  2
CUT
 70
0
 62
3
  6
Continuous
370
-3
390
13
347
21
  0
LAYER
  5
30
330
1
100
AcDbSymbolTableRecord
100
AcDbLayerTableRecord
  2
FOLD
 70
0
 62
1
  6
DASHED
370
-3
390
13
347
21
  0
ENDTAB
  0
TABLE
  2
STYLE
  5
5
330
0
100
AcDbSymbolTable
 70
1
  0
STYLE
  5
29
330
5
100
AcDbSymbolTableRecord
100
AcDbTextStyleTableRecord
  2
Standard
 70
0
 40
0.0
 41
1.0
 50
0.0
 71
0
 42
2.5
  3
txt
  4

  0
ENDTAB
  0
TABLE
  2
VIEW
  5
7
330
0
100
AcDbSymbolTable
 70
0
  0
ENDTAB
  0
TABLE
  2
UCS
  5
6
330
0
100
AcDbSymbolTable
 70
0
  0
ENDTAB
  0
TABLE
  2
APPID
  5
3
330
0
100
AcDbSymbolTable
 70
3
  0
APPID
  5
2A
330
3
100
AcDbSymbolTableRecord
100
AcDbRegAppTableRecord
  2
ACAD
 70
0
  0
APPID
  5
3B
330
3
100
AcDbSymbolTableRecord
100
AcDbRegAppTableRecord
  2
HATCHBACKGROUNDCOLOR
 70
0
  0
APPID
  5
3C
330
3
100
AcDbSymbolTableRecord
100
AcDbRegAppTableRecord
  2
EZDXF
 70
0
  0
ENDTAB
  0
TABLE
  2
DIMSTYLE
  5
4
330
0
100
AcDbSymbolTable
 70
1
100
AcDbDimStyleTable
  0
DIMSTYLE
105
2B
330
4
100
AcDbSymbolTableRecord
100
AcDbDimStyleTableRecord
  2
Standard
 70
0
 40
1.0
 41
2.5
 42
0.625
 43
3.75
 44
1.25
 45
0.0
 46
0.0
 47
0.0
 48
0.0
 49
2.5
140
2.5
141
2.5
142
0.0
143
0.03937007874
144
1.0
145
0.0
146
1.0
147
0.625
148
0.0
 69
0
 70
0
 71
0
 72
0
 73
0
 74
0
 75
0
 76
0
 77
1
 78
8
 79
3
170
0
171
3
172
1
173
0
174
0
175
0
176
0
177
0
178
0
179
2
271
2
272
2
273
2
274
3
275
0
276
0
277
2
278
44
279
0
280
0
281
0
282
0
283
0
284
8
285
0
286
0
288
0
289
3
290
0
371
-2
372
-2
  0
ENDTAB
  0
TABLE
  2
BLOCK_RECORD
  5
9
330
0
100
AcDbSymbolTable
 70
2
  0
BLOCK_RECORD
  5
17
330
9
100
AcDbSymbolTableRecord
100
AcDbBlockTableRecord
  2
*Model_Space
340
1A
 70
0
280
1
281
0
  0
BLOCK_RECORD
  5
1B
330
9
100
AcDbSymbolTableRecord
100
AcDbBlockTableRecord
  2
*Paper_Space
340
1E
 70
0
280
1
281
0
  0
ENDTAB
  0
ENDSEC
  0
SECTION
  2
BLOCKS
  0
BLOCK
  5
18
330
17
100
AcDbEntity
  8
0
100
AcDbBlockBegin
  2
*Model_Space
 70
0
 10
0.0
 20
0.0
 30
0.0
  3
*Model_Space
  1

  0
ENDBLK
  5
19
330
17
100
AcDbEntity
  8
0
100
AcDbBlockEnd
  0
BLOCK
  5
1C
330
1B
100
AcDbEntity
  8
0
100
AcDbBlockBegin
  2
*Paper_Space
 70
0
 10
0.0
 20
0.0
 30
0.0
  3
*Paper_Space
  1

  0
ENDBLK
  5
1D
330
1B
100
AcDbEntity
  8
0
100
AcDbBlockEnd
  0
ENDSEC
  0
SECTION
  2
ENTITIES
  0
LWPOLYLINE
  5
31
330
17
100
AcDbEntity
  8
CUT
100
AcDbPolyline
 90
377
 70
0
 10
61.859
 20
-46.534
 10
61.657
 20
-47.205
 10
61.397
 20
-47.855
 10
61.08
 20
-48.48
 10
60.709
 20
-49.074
 10
60.288
 20
-49.634
 10
59.819
 20
-50.154
 10
59.306
 20
-50.63
 10
58.752
 20
-51.06
 10
58.164
 20
-51.439
 10
57.544
 20
-51.765
 10
56.897
 20
-52.035
 10
56.23
 20
-52.247
 10
55.546
 20
-52.399
 10
54.851
 20
-52.49
 10
54.152
 20
-52.52
 10
53.452
 20
-52.488
 10
52.758
 20
-52.394
 10
52.075
 20
-52.239
 10
51.408
 20
-52.025
 10
50.762
 20
-51.753
 10
50.143
 20
-51.425
 10
49.556
 20
-51.044
 10
49.004
 20
-50.613
 10
48.493
 20
-50.134
 10
48.025
 20
-49.613
 10
47.606
 20
-49.052
 10
47.457
 20
-48.842
 10
47.302
 20
-48.638
 10
47.139
 20
-48.44
 10
46.969
 20
-48.248
 10
46.792
 20
-48.062
 10
46.609
 20
-47.882
 10
46.42
 20
-47.71
 10
46.224
 20
-47.544
 10
46.022
 20
-47.385
 10
45.815
 20
-47.233
 10
45.603
 20
-47.09
 10
45.386
 20
-46.953
 10
45.164
 20
-46.825
 10
44.937
 20
-46.705
 10
44.706
 20
-46.593
 10
44.472
 20
-46.489
 10
44.233
 20
-46.394
 10
43.992
 20
-46.307
 10
43.747
 20
-46.229
 10
43.5
 20
-46.16
 10
43.251
 20
-46.1
 10
43.0
 20
-46.049
 10
42.747
 20
-46.007
 10
42.492
 20
-45.974
 10
42.237
 20
-45.95
 10
41.981
 20
-45.936
 10
41.724
 20
-45.93
 10
41.468
 20
-45.934
 10
41.211
 20
-45.947
 10
40.956
 20
-45.969
 10
-30.512
 20
-53.475
 10
-30.767
 20
-53.506
 10
-31.02
 20
-53.547
 10
-31.272
 20
-53.597
 10
-31.521
 20
-53.655
 10
-31.769
 20
-53.723
 10
-32.014
 20
-53.799
 10
-32.256
 20
-53.884
 10
-32.495
 20
-53.978
 10
-32.73
 20
-54.08
 10
-32.961
 20
-54.191
 10
-33.189
 20
-54.309
 10
-33.412
 20
-54.436
 10
-33.63
 20
-54.571
 10
-33.843
 20
-54.714
 10
-34.051
 20
-54.864
 10
-34.254
 20
-55.021
 10
-34.45
 20
-55.186
 10
-34.641
 20
-55.358
 10
-34.825
 20
-55.536
 10
-35.003
 20
-55.721
 10
-35.174
 20
-55.912
 10
-35.338
 20
-56.109
 10
-35.495
 20
-56.312
 10
-35.645
 20
-56.521
 10
-35.787
 20
-56.735
 10
-35.921
 20
-56.953
 10
-36.047
 20
-57.176
 10
-36.165
 20
-57.404
 10
-36.275
 20
-57.636
 10
-36.376
 20
-57.872
 10
-36.67
 20
-58.507
 10
-37.019
 20
-59.115
 10
-37.42
 20
-59.689
 10
-37.87
 20
-60.226
 10
-38.366
 20
-60.721
 10
-38.903
 20
-61.17
 10
-39.478
 20
-61.57
 10
-40.086
 20
-61.918
 10
-40.722
 20
-62.211
 10
-41.381
 20
-62.447
 10
-42.059
 20
-62.624
 10
-42.75
 20
-62.74
 10
-43.448
 20
-62.795
 10
-44.149
 20
-62.788
 10
-44.846
 20
-62.72
 10
-45.534
 20
-62.59
 10
-46.208
 20
-62.4
 10
-46.863
 20
-62.152
 10
-47.493
 20
-61.846
 10
-48.094
 20
-61.487
 10
-48.661
 20
-61.075
 10
-49.19
 20
-60.616
 10
-49.676
 20
-60.111
 10
-50.115
 20
-59.566
 10
-50.505
 20
-58.984
 10
-50.842
 20
-58.37
 10
-51.123
 20
-57.729
 10
-51.347
 20
-57.065
 10
-51.512
 20
-56.384
 10
-51.616
 20
-55.691
 10
-52.942
 20
-43.061
 10
-54.53
 20
-36.608
 10
-81.038
 20
18.711
 10
-83.267
 20
29.108
 10
-83.489
 20
31.217
 10
-83.494
 20
31.258
 10
-83.5
 20
31.299
 10
-83.507
 20
31.34
 10
-83.515
 20
31.381
 10
-83.524
 20
31.421
 10
-83.534
 20
31.462
 10
-83.546
 20
31.502
 10
-83.558
 20
31.541
 10
-83.571
 20
31.581
 10
-83.586
 20
31.62
 10
-83.601
 20
31.658
 10
-83.617
 20
31.696
 10
-83.635
 20
31.734
 10
-83.653
 20
31.771
 10
-83.673
 20
31.808
 10
-83.693
 20
31.844
 10
-83.714
 20
31.88
 10
-83.736
 20
31.915
 10
-83.759
 20
31.95
 10
-83.783
 20
31.984
 10
-83.808
 20
32.017
 10
-83.834
 20
32.05
 10
-83.861
 20
32.082
 10
-83.888
 20
32.113
 10
-83.916
 20
32.144
 10
-83.945
 20
32.173
 10
-83.975
 20
32.202
 10
-84.005
 20
32.231
 10
-84.037
 20
32.258
 10
-84.069
 20
32.284
 10
-87.408
 20
34.989
 10
-87.44
 20
35.016
 10
-87.471
 20
35.043
 10
-87.502
 20
35.071
 10
-87.532
 20
35.1
 10
-87.561
 20
35.13
 10
-87.589
 20
35.161
 10
-87.616
 20
35.192
 10
-87.643
 20
35.224
 10
-87.669
 20
35.257
 10
-87.693
 20
35.29
 10
-87.717
 20
35.324
 10
-87.741
 20
35.358
 10
-87.763
 20
35.394
 10
-87.784
 20
35.429
 10
-87.804
 20
35.466
 10
-87.824
 20
35.502
 10
-87.842
 20
35.54
 10
-87.859
 20
35.577
 10
-87.876
 20
35.616
 10
-87.891
 20
35.654
 10
-87.906
 20
35.693
 10
-87.919
 20
35.732
 10
-87.931
 20
35.772
 10
-87.943
 20
35.812
 10
-87.953
 20
35.852
 10
-87.962
 20
35.893
 10
-87.97
 20
35.934
 10
-87.977
 20
35.975
 10
-87.983
 20
36.016
 10
-87.988
 20
36.057
 10
-88.582
 20
41.718
 10
-88.616
 20
42.264
 10
-88.603
 20
42.811
 10
-88.542
 20
43.354
 10
-88.435
 20
43.89
 10
-88.283
 20
44.415
 10
-88.086
 20
44.925
 10
-87.845
 20
45.416
 10
-87.564
 20
45.885
 10
-87.243
 20
46.327
 10
-86.885
 20
46.741
 10
-86.493
 20
47.122
 10
-86.069
 20
47.468
 10
-85.618
 20
47.776
 10
-85.141
 20
48.044
 10
-84.644
 20
48.27
 10
-84.128
 20
48.453
 10
-83.599
 20
48.59
 10
-83.06
 20
48.682
 10
-82.515
 20
48.727
 10
-81.969
 20
48.725
 10
-81.424
 20
48.675
 10
-80.886
 20
48.58
 10
-80.358
 20
48.438
 10
-79.844
 20
48.251
 10
-79.348
 20
48.021
 10
-78.874
 20
47.749
 10
-78.425
 20
47.437
 10
-78.004
 20
47.088
 10
-77.615
 20
46.704
 10
-77.261
 20
46.288
 10
-77.109
 20
46.1
 10
-76.951
 20
45.918
 10
-76.787
 20
45.741
 10
-76.618
 20
45.569
 10
-76.442
 20
45.404
 10
-76.261
 20
45.244
 10
-76.075
 20
45.091
 10
-75.884
 20
44.944
 10
-75.688
 20
44.804
 10
-75.487
 20
44.67
 10
-75.282
 20
44.543
 10
-75.073
 20
44.423
 10
-74.859
 20
44.311
 10
-74.642
 20
44.205
 10
-74.422
 20
44.107
 10
-74.199
 20
44.017
 10
-73.972
 20
43.934
 10
-73.743
 20
43.858
 10
-73.511
 20
43.791
 10
-73.278
 20
43.731
 10
-73.042
 20
43.68
 10
-72.805
 20
43.636
 10
-72.566
 20
43.6
 10
-72.327
 20
43.572
 10
-72.086
 20
43.553
 10
-71.846
 20
43.542
 10
-71.604
 20
43.538
 10
-71.363
 20
43.543
 10
-71.122
 20
43.556
 10
-70.882
 20
43.577
 10
60.282
 20
57.352
 10
60.522
 20
57.382
 10
60.76
 20
57.419
 10
60.997
 20
57.464
 10
61.232
 20
57.517
 10
61.466
 20
57.579
 10
61.697
 20
57.648
 10
61.925
 20
57.725
 10
62.151
 20
57.809
 10
62.374
 20
57.901
 10
62.594
 20
58.001
 10
62.81
 20
58.107
 10
63.022
 20
58.222
 10
63.231
 20
58.343
 10
63.435
 20
58.471
 10
63.635
 20
58.606
 10
63.83
 20
58.748
 10
64.021
 20
58.896
 10
64.206
 20
59.051
 10
64.386
 20
59.211
 10
64.56
 20
59.378
 10
64.728
 20
59.55
 10
64.891
 20
59.728
 10
65.048
 20
59.912
 10
65.198
 20
60.101
 10
65.342
 20
60.294
 10
65.479
 20
60.492
 10
65.609
 20
60.695
 10
65.733
 20
60.902
 10
65.849
 20
61.114
 10
65.959
 20
61.329
 10
66.219
 20
61.809
 10
66.52
 20
62.266
 10
66.859
 20
62.695
 10
67.233
 20
63.093
 10
67.641
 20
63.458
 10
68.078
 20
63.786
 10
68.542
 20
64.075
 10
69.029
 20
64.324
 10
69.535
 20
64.529
 10
70.058
 20
64.691
 10
70.592
 20
64.806
 10
71.134
 20
64.876
 10
71.681
 20
64.898
 10
72.227
 20
64.873
 10
72.769
 20
64.802
 10
73.303
 20
64.684
 10
73.824
 20
64.52
 10
74.33
 20
64.313
 10
74.816
 20
64.062
 10
75.279
 20
63.771
 10
75.715
 20
63.441
 10
76.121
 20
63.075
 10
76.493
 20
62.675
 10
76.831
 20
62.245
 10
77.129
 20
61.787
 10
77.388
 20
61.305
 10
77.604
 20
60.803
 10
77.776
 20
60.284
 10
77.902
 20
59.752
 10
77.983
 20
59.211
 10
78.577
 20
53.55
 10
78.581
 20
53.509
 10
78.584
 20
53.467
 10
78.585
 20
53.426
 10
78.586
 20
53.384
 10
78.585
 20
53.342
 10
78.584
 20
53.301
 10
78.581
 20
53.259
 10
78.577
 20
53.218
 10
78.572
 20
53.177
 10
78.566
 20
53.136
 10
78.559
 20
53.095
 10
78.551
 20
53.054
 10
78.542
 20
53.013
 10
78.532
 20
52.973
 10
78.521
 20
52.933
 10
78.508
 20
52.893
 10
78.495
 20
52.854
 10
78.481
 20
52.815
 10
78.465
 20
52.776
 10
78.449
 20
52.738
 10
78.431
 20
52.701
 10
78.413
 20
52.663
 10
78.394
 20
52.627
 10
78.373
 20
52.59
 10
78.352
 20
52.555
 10
78.33
 20
52.519
 10
78.307
 20
52.485
 10
78.283
 20
52.451
 10
78.258
 20
52.418
 10
78.232
 20
52.385
 10
75.527
 20
49.045
 10
75.502
 20
49.013
 10
75.477
 20
48.979
 10
75.453
 20
48.946
 10
75.43
 20
48.911
 10
75.407
 20
48.876
 10
75.386
 20
48.84
 10
75.366
 20
48.804
 10
75.347
 20
48.767
 10
75.328
 20
48.73
 10
75.311
 20
48.692
 10
75.294
 20
48.654
 10
75.279
 20
48.615
 10
75.265
 20
48.576
 10
75.251
 20
48.537
 10
75.239
 20
48.497
 10
75.228
 20
48.457
 10
75.217
 20
48.417
 10
75.208
 20
48.376
 10
75.2
 20
48.336
 10
75.193
 20
48.295
 10
75.187
 20
48.254
 10
75.182
 20
48.212
 10
75.178
 20
48.171
 10
75.176
 20
48.129
 10
75.174
 20
48.088
 10
75.173
 20
48.046
 10
75.174
 20
48.005
 10
75.176
 20
47.963
 10
75.178
 20
47.922
 10
75.182
 20
47.88
 10
75.404
 20
45.771
 10
75.383
 20
35.138
 10
60.945
 20
-24.481
 10
60.733
 20
-31.123
 10
62.059
 20
-43.753
 10
62.102
 20
-44.452
 10
62.082
 20
-45.152
 10
62.001
 20
-45.848
 10
61.859
 20
-46.534
  0
LWPOLYLINE
  5
32
330
17
100
AcDbEntity
  8
CUT
100
AcDbPolyline
 90
154
 70
0
 10
-48.043
 20
-20.314
 10
-47.873
 20
-20.51
 10
-47.695
 20
-20.7
 10
-47.51
 20
-20.882
 10
-47.317
 20
-21.056
 10
-47.117
 20
-21.223
 10
-46.91
 20
-21.381
 10
-46.698
 20
-21.53
 10
-46.479
 20
-21.671
 10
-46.254
 20
-21.802
 10
-46.025
 20
-21.924
 10
-45.791
 20
-22.037
 10
-45.552
 20
-22.14
 10
-45.309
 20
-22.233
 10
-45.063
 20
-22.316
 10
-44.813
 20
-22.389
 10
-44.561
 20
-22.452
 10
-44.306
 20
-22.504
 10
-44.049
 20
-22.546
 10
-43.791
 20
-22.577
 10
-43.532
 20
-22.598
 10
-43.272
 20
-22.608
 10
-43.012
 20
-22.607
 10
-42.752
 20
-22.596
 10
-42.493
 20
-22.574
 10
-31.774
 20
-21.449
 10
-31.385
 20
-21.396
 10
-31.0
 20
-21.319
 10
-30.621
 20
-21.218
 10
-30.249
 20
-21.094
 10
-29.885
 20
-20.948
 10
-29.531
 20
-20.779
 10
-29.187
 20
-20.589
 10
-28.857
 20
-20.378
 10
-28.54
 20
-20.147
 10
-28.238
 20
-19.896
 10
-27.951
 20
-19.628
 10
-27.682
 20
-19.342
 10
-27.432
 20
-19.041
 10
-27.2
 20
-18.724
 10
-26.988
 20
-18.394
 10
-26.797
 20
-18.051
 10
-26.628
 20
-17.697
 10
-26.48
 20
-17.334
 10
-26.356
 20
-16.962
 10
-26.255
 20
-16.583
 10
-26.177
 20
-16.198
 10
-26.123
 20
-15.809
 10
-26.093
 20
-15.418
 10
-26.088
 20
-15.026
 10
-26.107
 20
-14.634
 10
-26.15
 20
-14.244
 10
-26.216
 20
-13.857
 10
-26.307
 20
-13.476
 10
-26.421
 20
-13.1
 10
-26.558
 20
-12.733
 10
-26.76
 20
-12.226
 10
-26.951
 20
-11.716
 10
-27.133
 20
-11.202
 10
-27.306
 20
-10.685
 10
-27.468
 20
-10.164
 10
-27.621
 20
-9.641
 10
-27.764
 20
-9.115
 10
-27.897
 20
-8.586
 10
-28.019
 20
-8.055
 10
-28.132
 20
-7.521
 10
-28.235
 20
-6.986
 10
-28.328
 20
-6.449
 10
-28.41
 20
-5.91
 10
-28.482
 20
-5.369
 10
-28.544
 20
-4.828
 10
-28.596
 20
-4.285
 10
-28.638
 20
-3.742
 10
-28.669
 20
-3.197
 10
-28.69
 20
-2.652
 10
-28.701
 20
-2.107
 10
-28.701
 20
-1.562
 10
-28.692
 20
-1.017
 10
-28.671
 20
-0.472
 10
-28.641
 20
0.072
 10
-28.6
 20
0.616
 10
-28.549
 20
1.159
 10
-28.488
 20
1.7
 10
-28.417
 20
2.241
 10
-28.335
 20
2.78
 10
-28.244
 20
3.317
 10
-28.186
 20
3.705
 10
-28.153
 20
4.096
 10
-28.143
 20
4.488
 10
-28.158
 20
4.88
 10
-28.197
 20
5.271
 10
-28.26
 20
5.658
 10
-28.347
 20
6.041
 10
-28.457
 20
6.417
 10
-28.591
 20
6.786
 10
-28.747
 20
7.146
 10
-28.924
 20
7.496
 10
-29.124
 20
7.834
 10
-29.343
 20
8.159
 10
-29.582
 20
8.47
 10
-29.84
 20
8.766
 10
-30.116
 20
9.045
 10
-30.409
 20
9.306
 10
-30.717
 20
9.549
 10
-31.039
 20
9.773
 10
-31.375
 20
9.976
 10
-31.722
 20
10.158
 10
-32.08
 20
10.318
 10
-32.448
 20
10.456
 10
-32.823
 20
10.571
 10
-33.205
 20
10.662
 10
-33.591
 20
10.73
 10
-33.981
 20
10.773
 10
-34.373
 20
10.793
 10
-34.765
 20
10.788
 10
-35.156
 20
10.759
 10
-52.85
 20
8.901
 10
-53.251
 20
8.846
 10
-53.648
 20
8.765
 10
-54.039
 20
8.66
 10
-54.422
 20
8.529
 10
-54.796
 20
8.375
 10
-55.16
 20
8.197
 10
-55.512
 20
7.996
 10
-55.85
 20
7.773
 10
-56.173
 20
7.529
 10
-56.48
 20
7.265
 10
-56.769
 20
6.982
 10
-57.04
 20
6.681
 10
-57.291
 20
6.364
 10
-57.521
 20
6.031
 10
-57.73
 20
5.684
 10
-57.916
 20
5.324
 10
-58.079
 20
4.954
 10
-58.218
 20
4.573
 10
-58.332
 20
4.185
 10
-58.422
 20
3.79
 10
-58.486
 20
3.39
 10
-58.524
 20
2.987
 10
-58.537
 20
2.583
 10
-58.524
 20
2.178
 10
-58.485
 20
1.775
 10
-58.421
 20
1.375
 10
-58.331
 20
0.981
 10
-58.216
 20
0.592
 10
-58.077
 20
0.212
 10
-57.913
 20
-0.158
 10
-48.883
 20
-19.003
 10
-48.766
 20
-19.235
 10
-48.639
 20
-19.462
 10
-48.504
 20
-19.684
 10
-48.359
 20
-19.9
 10
-48.205
 20
-20.11
 10
-48.043
 20
-20.314
  0
LWPOLYLINE
  5
33
330
17
100
AcDbEntity
  8
CUT
100
AcDbPolyline
 90
154
 70
0
 10
47.772
 20
-12.903
 10
48.015
 20
-12.809
 10
48.253
 20
-12.704
 10
48.487
 20
-12.591
 10
48.716
 20
-12.467
 10
48.939
 20
-12.335
 10
49.158
 20
-12.193
 10
49.37
 20
-12.043
 10
49.576
 20
-11.884
 10
49.775
 20
-11.717
 10
49.967
 20
-11.542
 10
50.152
 20
-11.359
 10
50.329
 20
-11.168
 10
50.498
 20
-10.971
 10
50.659
 20
-10.767
 10
50.811
 20
-10.556
 10
50.955
 20
-10.34
 10
51.09
 20
-10.117
 10
51.215
 20
-9.889
 10
51.332
 20
-9.657
 10
51.438
 20
-9.42
 10
51.535
 20
-9.178
 10
51.621
 20
-8.933
 10
51.698
 20
-8.684
 10
51.764
 20
-8.433
 10
56.683
 20
11.877
 10
56.765
 20
12.273
 10
56.823
 20
12.674
 10
56.854
 20
13.077
 10
56.86
 20
13.482
 10
56.84
 20
13.887
 10
56.794
 20
14.289
 10
56.723
 20
14.687
 10
56.627
 20
15.081
 10
56.505
 20
15.467
 10
56.36
 20
15.845
 10
56.19
 20
16.212
 10
55.998
 20
16.568
 10
55.783
 20
16.911
 10
55.546
 20
17.24
 10
55.29
 20
17.553
 10
55.013
 20
17.849
 10
54.719
 20
18.127
 10
54.407
 20
18.386
 10
54.08
 20
18.624
 10
53.738
 20
18.84
 10
53.383
 20
19.035
 10
53.016
 20
19.206
 10
52.639
 20
19.354
 10
52.254
 20
19.478
 10
51.861
 20
19.576
 10
51.463
 20
19.65
 10
51.061
 20
19.697
 10
50.657
 20
19.72
 10
50.252
 20
19.716
 10
49.848
 20
19.687
 10
32.154
 20
17.828
 10
31.765
 20
17.775
 10
31.381
 20
17.698
 10
31.001
 20
17.598
 10
30.629
 20
17.474
 10
30.265
 20
17.328
 10
29.911
 20
17.159
 10
29.568
 20
16.969
 10
29.237
 20
16.758
 10
28.92
 20
16.526
 10
28.618
 20
16.276
 10
28.332
 20
16.008
 10
28.063
 20
15.722
 10
27.812
 20
15.421
 10
27.58
 20
15.104
 10
27.368
 20
14.774
 10
27.177
 20
14.431
 10
27.008
 20
14.077
 10
26.861
 20
13.713
 10
26.736
 20
13.341
 10
26.635
 20
12.962
 10
26.557
 20
12.578
 10
26.503
 20
12.189
 10
26.474
 20
11.798
 10
26.468
 20
11.406
 10
26.487
 20
11.014
 10
26.53
 20
10.624
 10
26.597
 20
10.237
 10
26.687
 20
9.856
 10
26.801
 20
9.48
 10
26.938
 20
9.112
 10
27.14
 20
8.606
 10
27.332
 20
8.095
 10
27.514
 20
7.582
 10
27.686
 20
7.064
 10
27.848
 20
6.544
 10
28.001
 20
6.021
 10
28.144
 20
5.495
 10
28.277
 20
4.966
 10
28.4
 20
4.435
 10
28.512
 20
3.901
 10
28.615
 20
3.366
 10
28.708
 20
2.829
 10
28.79
 20
2.29
 10
28.863
 20
1.749
 10
28.925
 20
1.208
 10
28.976
 20
0.665
 10
29.018
 20
0.121
 10
29.049
 20
-0.423
 10
29.07
 20
-0.968
 10
29.081
 20
-1.513
 10
29.082
 20
-2.058
 10
29.072
 20
-2.603
 10
29.052
 20
-3.148
 10
29.021
 20
-3.692
 10
28.981
 20
-4.236
 10
28.93
 20
-4.779
 10
28.869
 20
-5.32
 10
28.797
 20
-5.861
 10
28.716
 20
-6.4
 10
28.624
 20
-6.937
 10
28.566
 20
-7.325
 10
28.533
 20
-7.716
 10
28.523
 20
-8.109
 10
28.538
 20
-8.501
 10
28.577
 20
-8.891
 10
28.64
 20
-9.278
 10
28.727
 20
-9.661
 10
28.838
 20
-10.037
 10
28.971
 20
-10.406
 10
29.127
 20
-10.766
 10
29.305
 20
-11.116
 10
29.504
 20
-11.454
 10
29.723
 20
-11.779
 10
29.963
 20
-12.09
 10
30.221
 20
-12.386
 10
30.496
 20
-12.665
 10
30.789
 20
-12.926
 10
31.097
 20
-13.169
 10
31.419
 20
-13.393
 10
31.755
 20
-13.596
 10
32.103
 20
-13.778
 10
32.461
 20
-13.938
 10
32.828
 20
-14.076
 10
33.203
 20
-14.191
 10
33.585
 20
-14.282
 10
33.971
 20
-14.35
 10
34.361
 20
-14.394
 10
34.753
 20
-14.413
 10
35.145
 20
-14.408
 10
35.536
 20
-14.38
 10
46.256
 20
-13.254
 10
46.514
 20
-13.221
 10
46.77
 20
-13.178
 10
47.025
 20
-13.125
 10
47.277
 20
-13.061
 10
47.526
 20
-12.987
 10
47.772
 20
-12.903
  0
LWPOLYLINE
  5
34
330
17
100
AcDbEntity
  8
CUT
100
AcDbPolyline
 90
31
 70
0
 10
0.191
 20
14.382
 10
-3.175
 20
14.029
 10
-6.395
 20
12.983
 10
-9.327
 20
11.291
 10
-11.842
 20
9.026
 10
-13.832
 20
6.287
 10
-15.209
 20
3.195
 10
-15.914
 20
-0.116
 10
-15.914
 20
-3.501
 10
-15.21
 20
-6.813
 10
-13.834
 20
-9.905
 10
-11.844
 20
-12.644
 10
-9.329
 20
-14.909
 10
-6.397
 20
-16.602
 10
-3.178
 20
-17.648
 10
0.189
 20
-18.003
 10
3.555
 20
-17.649
 10
6.775
 20
-16.603
 10
9.707
 20
-14.911
 10
12.223
 20
-12.646
 10
14.213
 20
-9.907
 10
15.59
 20
-6.815
 10
16.294
 20
-3.504
 10
16.294
 20
-0.119
 10
15.59
 20
3.192
 10
14.214
 20
6.285
 10
12.224
 20
9.024
 10
9.709
 20
11.289
 10
6.777
 20
12.982
 10
3.558
 20
14.028
 10
0.191
 20
14.382
  0
LWPOLYLINE
  5
35
330
17
100
AcDbEntity
  8
CUT
100
AcDbPolyline
 90
31
 70
0
 10
-46.721
 20
-54.862
 10
-46.656
 20
-55.486
 10
-46.462
 20
-56.082
 10
-46.149
 20
-56.626
 10
-45.729
 20
-57.092
 10
-45.222
 20
-57.46
 10
-44.649
 20
-57.715
 10
-44.035
 20
-57.846
 10
-43.408
 20
-57.846
 10
-42.795
 20
-57.716
 10
-42.222
 20
-57.461
 10
-41.714
 20
-57.092
 10
-41.295
 20
-56.626
 10
-40.981
 20
-56.083
 10
-40.787
 20
-55.486
 10
-40.721
 20
-54.863
 10
-40.787
 20
-54.239
 10
-40.981
 20
-53.642
 10
-41.294
 20
-53.099
 10
-41.714
 20
-52.633
 10
-42.221
 20
-52.264
 10
-42.794
 20
-52.009
 10
-43.408
 20
-51.879
 10
-44.035
 20
-51.879
 10
-44.648
 20
-52.009
 10
-45.221
 20
-52.264
 10
-45.729
 20
-52.633
 10
-46.148
 20
-53.099
 10
-46.462
 20
-53.642
 10
-46.656
 20
-54.238
 10
-46.721
 20
-54.862
  0
LWPOLYLINE
  5
36
330
17
100
AcDbEntity
  8
CUT
100
AcDbPolyline
 90
31
 70
0
 10
51.165
 20
-44.582
 10
51.231
 20
-45.206
 10
51.424
 20
-45.802
 10
51.738
 20
-46.345
 10
52.158
 20
-46.812
 10
52.665
 20
-47.18
 10
53.238
 20
-47.435
 10
53.851
 20
-47.566
 10
54.479
 20
-47.566
 10
55.092
 20
-47.435
 10
55.665
 20
-47.18
 10
56.172
 20
-46.812
 10
56.592
 20
-46.346
 10
56.906
 20
-45.803
 10
57.1
 20
-45.206
 10
57.165
 20
-44.582
 10
57.1
 20
-43.959
 10
56.906
 20
-43.362
 10
56.592
 20
-42.819
 10
56.173
 20
-42.353
 10
55.665
 20
-41.984
 10
55.092
 20
-41.729
 10
54.479
 20
-41.599
 10
53.852
 20
-41.599
 10
53.238
 20
-41.729
 10
52.665
 20
-41.984
 10
52.158
 20
-42.353
 10
51.738
 20
-42.819
 10
51.425
 20
-43.362
 10
51.231
 20
-43.958
 10
51.165
 20
-44.582
  0
LWPOLYLINE
  5
37
330
17
100
AcDbEntity
  8
CUT
100
AcDbPolyline
 90
63
 70
0
 10
74.686
 20
56.623
 10
74.884
 20
56.867
 10
75.055
 20
57.131
 10
75.197
 20
57.41
 10
75.31
 20
57.704
 10
75.391
 20
58.007
 10
75.44
 20
58.317
 10
75.457
 20
58.631
 10
75.44
 20
58.944
 10
75.391
 20
59.254
 10
75.31
 20
59.558
 10
75.198
 20
59.851
 10
75.055
 20
60.131
 10
74.884
 20
60.394
 10
74.686
 20
60.638
 10
74.464
 20
60.86
 10
74.22
 20
61.058
 10
73.957
 20
61.229
 10
73.677
 20
61.371
 10
73.384
 20
61.484
 10
73.081
 20
61.565
 10
72.771
 20
61.614
 10
72.457
 20
61.631
 10
72.144
 20
61.614
 10
70.565
 20
61.449
 10
70.255
 20
61.4
 10
69.951
 20
61.318
 10
69.658
 20
61.206
 10
69.378
 20
61.063
 10
69.115
 20
60.892
 10
68.871
 20
60.695
 10
68.649
 20
60.473
 10
68.451
 20
60.229
 10
68.28
 20
59.965
 10
68.138
 20
59.686
 10
68.025
 20
59.392
 10
67.944
 20
59.089
 10
67.895
 20
58.779
 10
67.878
 20
58.465
 10
67.894
 20
58.152
 10
67.944
 20
57.842
 10
68.025
 20
57.538
 10
68.137
 20
57.245
 10
68.28
 20
56.965
 10
68.451
 20
56.702
 10
68.648
 20
56.458
 10
68.87
 20
56.236
 10
69.115
 20
56.038
 10
69.378
 20
55.867
 10
69.658
 20
55.725
 10
69.951
 20
55.612
 10
70.254
 20
55.531
 10
70.564
 20
55.482
 10
70.878
 20
55.465
 10
71.191
 20
55.482
 10
72.77
 20
55.647
 10
73.08
 20
55.696
 10
73.384
 20
55.778
 10
73.677
 20
55.89
 10
73.957
 20
56.033
 10
74.22
 20
56.204
 10
74.464
 20
56.401
 10
74.686
 20
56.623
  0
LWPOLYLINE
  5
38
330
17
100
AcDbEntity
  8
CUT
100
AcDbPolyline
 90
63
 70
0
 10
-79.471
 20
40.235
 10
-79.249
 20
40.457
 10
-79.051
 20
40.701
 10
-78.88
 20
40.964
 10
-78.737
 20
41.244
 10
-78.625
 20
41.537
 10
-78.543
 20
41.841
 10
-78.494
 20
42.151
 10
-78.478
 20
42.464
 10
-78.494
 20
42.778
 10
-78.543
 20
43.088
 10
-78.625
 20
43.391
 10
-78.737
 20
43.685
 10
-78.88
 20
43.964
 10
-79.051
 20
44.228
 10
-79.248
 20
44.472
 10
-79.47
 20
44.694
 10
-79.714
 20
44.891
 10
-79.978
 20
45.063
 10
-80.257
 20
45.205
 10
-80.55
 20
45.318
 10
-80.854
 20
45.399
 10
-81.164
 20
45.448
 10
-81.478
 20
45.465
 10
-81.791
 20
45.448
 10
-83.37
 20
45.282
 10
-83.68
 20
45.233
 10
-83.983
 20
45.152
 10
-84.277
 20
45.039
 10
-84.556
 20
44.897
 10
-84.82
 20
44.726
 10
-85.064
 20
44.528
 10
-85.286
 20
44.306
 10
-85.484
 20
44.062
 10
-85.655
 20
43.799
 10
-85.797
 20
43.519
 10
-85.91
 20
43.226
 10
-85.991
 20
42.923
 10
-86.04
 20
42.613
 10
-86.057
 20
42.299
 10
-86.04
 20
41.985
 10
-85.991
 20
41.675
 10
-85.91
 20
41.372
 10
-85.797
 20
41.079
 10
-85.655
 20
40.799
 10
-85.484
 20
40.536
 10
-85.286
 20
40.292
 10
-85.064
 20
40.069
 10
-84.82
 20
39.872
 10
-84.557
 20
39.701
 10
-84.277
 20
39.558
 10
-83.984
 20
39.446
 10
-83.681
 20
39.364
 10
-83.37
 20
39.315
 10
-83.057
 20
39.299
 10
-82.743
 20
39.315
 10
-81.164
 20
39.481
 10
-80.854
 20
39.53
 10
-80.551
 20
39.611
 10
-80.258
 20
39.724
 10
-79.978
 20
39.866
 10
-79.715
 20
40.037
 10
-79.471
 20
40.235
  0
LINE
  5
39
330
17
100
AcDbEntity
  8
FOLD
  6
DASHED
100
AcDbLine
 10
-96.60779168820017
 20
22.391101212450952
 30
0.0
 11
89.84835724834502
 21
41.972879639792176
 31
0.0
  0
LINE
  5
3A
330
17
100
AcDbEntity
  8
FOLD
  6
DASHED
100
AcDbLine
 10
96.77974704816235
 20
-24.027267060237406
 30
0.0
 11
-89.67640188838277
 21
-43.60904548757861
 31
0.0
  0
ENDSEC
  0
SECTION
  2
OBJECTS
  0
DICTIONARY
  5
A
330
0
100
AcDbDictionary
281
1
  3
ACAD_COLOR
350
B
  3
ACAD_GROUP
350
C
  3
ACAD_LAYOUT
350
D
  3
ACAD_MATERIAL
350
E
  3
ACAD_MLEADERSTYLE
350
F
  3
ACAD_MLINESTYLE
350
10
  3
ACAD_PLOTSETTINGS
350
11
  3
ACAD_PLOTSTYLENAME
350
12
  3
ACAD_SCALELIST
350
14
  3
ACAD_TABLESTYLE
350
15
  3
ACAD_VISUALSTYLE
350
16
  3
EZDXF_META
350
2D
  0
DICTIONARY
  5
B
330
A
100
AcDbDictionary
281
1
  0
DICTIONARY
  5
C
330
A
100
AcDbDictionary
281
1
  0
DICTIONARY
  5
D
330
A
100
AcDbDictionary
281
1
  3
Model
350
1A
  3
Layout1
350
1E
  0
DICTIONARY
  5
E
330
A
100
AcDbDictionary
281
1
  3
ByBlock
350
1F
  3
ByLayer
350
20
  3
Global
350
21
  0
DICTIONARY
  5
F
330
A
100
AcDbDictionary
281
1
  3
Standard
350
2C
  0
DICTIONARY
  5
10
330
A
100
AcDbDictionary
281
1
  3
Standard
350
22
  0
DICTIONARY
  5
11
330
A
100
AcDbDictionary
281
1
  0
ACDBDICTIONARYWDFLT
  5
12
330
A
100
AcDbDictionary
281
1
  3
Normal
350
13
100
AcDbDictionaryWithDefault
340
13
  0
ACDBPLACEHOLDER
  5
13
330
12
  0
DICTIONARY
  5
14
330
A
100
AcDbDictionary
281
1
  0
DICTIONARY
  5
15
330
A
100
AcDbDictionary
281
1
  0
DICTIONARY
  5
16
330
A
100
AcDbDictionary
281
1
  0
LAYOUT
  5
1A
330
D
100
AcDbPlotSettings
  1

  4
A3
  6

 40
7.5
 41
20.0
 42
7.5
 43
20.0
 44
420.0
 45
297.0
 46
0.0
 47
0.0
 48
0.0
 49
0.0
140
0.0
141
0.0
142
1.0
143
1.0
 70
1024
 72
1
 73
0
 74
5
  7

 75
16
 76
0
 77
2
 78
300
147
1.0
148
0.0
149
0.0
100
AcDbLayout
  1
Model
 70
1
 71
0
 10
0.0
 20
0.0
 11
420.0
 21
297.0
 12
0.0
 22
0.0
 32
0.0
 14
1e+20
 24
1e+20
 34
1e+20
 15
-1e+20
 25
-1e+20
 35
-1e+20
146
0.0
 13
0.0
 23
0.0
 33
0.0
 16
1.0
 26
0.0
 36
0.0
 17
0.0
 27
1.0
 37
0.0
 76
1
330
17
  0
LAYOUT
  5
1E
330
D
100
AcDbPlotSettings
  1

  4
A3
  6

 40
7.5
 41
20.0
 42
7.5
 43
20.0
 44
420.0
 45
297.0
 46
0.0
 47
0.0
 48
0.0
 49
0.0
140
0.0
141
0.0
142
1.0
143
1.0
 70
0
 72
1
 73
0
 74
5
  7

 75
16
 76
0
 77
2
 78
300
147
1.0
148
0.0
149
0.0
100
AcDbLayout
  1
Layout1
 70
1
 71
1
 10
0.0
 20
0.0
 11
420.0
 21
297.0
 12
0.0
 22
0.0
 32
0.0
 14
1e+20
 24
1e+20
 34
1e+20
 15
-1e+20
 25
-1e+20
 35
-1e+20
146
0.0
 13
0.0
 23
0.0
 33
0.0
 16
1.0
 26
0.0
 36
0.0
 17
0.0
 27
1.0
 37
0.0
 76
1
330
1B
  0
MATERIAL
  5
1F
102
{ACAD_REACTORS
330
E
102
}
330
E
100
AcDbMaterial
  1
ByBlock
  2

 70
0
 40
1.0
 71
1
 41
1.0
 91
-1023410177
 42
1.0
 72
1
  3

 73
1
 74
1
 75
1
 44
0.5
 73
0
 45
1.0
 46
1.0
 77
1
  4

 78
1
 79
1
170
1
 48
1.0
171
1
  6

172
1
173
1
174
1
140
1.0
141
1.0
175
1
  7

176
1
177
1
178
1
143
1.0
179
1
  8

270
1
271
1
272
1
145
1.0
146
1.0
273
1
  9

274
1
275
1
276
1
 42
1.0
 72
1
  3

 73
1
 74
1
 75
1
 94
63
  0
MATERIAL
  5
20
102
{ACAD_REACTORS
330
E
102
}
330
E
100
AcDbMaterial
  1
ByLayer
  2

 70
0
 40
1.0
 71
1
 41
1.0
 91
-1023410177
 42
1.0
 72
1
  3

 73
1
 74
1
 75
1
 44
0.5
 73
0
 45
1.0
 46
1.0
 77
1
  4

 78
1
 79
1
170
1
 48
1.0
171
1
  6

172
1
173
1
174
1
140
1.0
141
1.0
175
1
  7

176
1
177
1
178
1
143
1.0
179
1
  8

270
1
271
1
272
1
145
1.0
146
1.0
273
1
  9

274
1
275
1
276
1
 42
1.0
 72
1
  3

 73
1
 74
1
 75
1
 94
63
  0
MATERIAL
  5
21
102
{ACAD_REACTORS
330
E
102
}
330
E
100
AcDbMaterial
  1
Global
  2

 70
0
 40
1.0
 71
1
 41
1.0
 91
-1023410177
 42
1.0
 72
1
  3

 73
1
 74
1
 75
1
 44
0.5
 73
0
 45
1.0
 46
1.0
 77
1
  4

 78
1
 79
1
170
1
 48
1.0
171
1
  6

172
1
173
1
174
1
140
1.0
141
1.0
175
1
  7

176
1
177
1
178
1
143
1.0
179
1
  8

270
1
271
1
272
1
145
1.0
146
1.0
273
1
  9

274
1
275
1
276
1
 42
1.0
 72
1
  3

 73
1
 74
1
 75
1
 94
63
  0
MLINESTYLE
  5
22
102
{ACAD_REACTORS
330
10
102
}
330
10
100
AcDbMlineStyle
  2
Standard
 70
0
  3

 62
256
 51
90.0
 52
90.0
 71
2
 49
0.5
 62
256
  6
BYLAYER
 49
-0.5
 62
256
  6
BYLAYER
  0
MLEADERSTYLE
  5
2C
102
{ACAD_REACTORS
330
F
102
}
330
F
100
AcDbMLeaderStyle
179
2
170
2
171
1
172
0
 90
2
 40
0.0
 41
0.0
173
1
 91
-1056964608
 92
-2
290
1
 42
2.0
291
1
 43
8.0
  3
Standard
 44
4.0
300

342
29
174
1
175
1
176
0
178
1
 93
-1056964608
 45
4.0
292
0
297
0
 46
4.0
 94
-1056964608
 47
1.0
 49
1.0
140
1.0
294
1
141
0.0
177
0
142
1.0
295
0
296
0
143
3.75
271
0
272
9
273
9
  0
DICTIONARY
  5
2D
330
A
100
AcDbDictionary
280
1
281
1
  3
CREATED_BY_EZDXF
350
2E
  3
WRITTEN_BY_EZDXF
350
3D
  0
DICTIONARYVAR
  5
2E
330
2D
100
DictionaryVariables
280
0
  1
1.4.4 @ 2026-07-18T15:08:18.566846+00:00
  0
DICTIONARYVAR
  5
3D
330
2D
100
DictionaryVariables
280
0
  1
1.4.4 @ 2026-07-18T15:08:18.575906+00:00
  0
ENDSEC
  0
EOF
