  0
SECTION
  2
HEADER
  9
$ACADVER
  1
AC1024
  9
$ACADMAINTVER
 70
6
  9
$DWGCODEPAGE
  3
ANSI_1252
  9
$LASTSAVEDBY
  1
ezdxf
  9
$INSBASE
 10
0.0
 20
0.0
 30
0.0
  9
$EXTMIN
 10
1e+20
 20
1e+20
 30
1e+20
  9
$EXTMAX
 10
-1e+20
 20
-1e+20
 30
-1e+20
  9
$LIMMIN
 10
0.0
 20
0.0
  9
$LIMMAX
 10
420.0
 20
297.0
  9
$ORTHOMODE
 70
0
  9
$REGENMODE
 70
1
  9
$FILLMODE
 70
1
  9
$QTEXTMODE
 70
0
  9
$MIRRTEXT
 70
1
  9
$LTSCALE
 40
1.0
  9
$ATTMODE
 70
1
  9
$TEXTSIZE
 40
2.5
  9
$TRACEWID
 40
1.0
  9
$TEXTSTYLE
  7
Standard
  9
$CLAYER
  8
0
  9
$CELTYPE
  6
ByLayer
  9
$CECOLOR
 62
256
  9
$CELTSCALE
 40
1.0
  9
$DISPSILH
 70
0
  9
$DIMSCALE
 40
1.0
  9
$DIMASZ
 40
2.5
  9
$DIMEXO
 40
0.625
  9
$DIMDLI
 40
3.75
  9
$DIMRND
 40
0.0
  9
$DIMDLE
 40
0.0
  9
$DIMEXE
 40
1.25
  9
$DIMTP
 40
0.0
  9
$DIMTM
 40
0.0
  9
$DIMTXT
 40
2.5
  9
$DIMCEN
 40
2.5
  9
$DIMTSZ
 40
0.0
  9
$DIMTOL
 70
0
  9
$DIMLIM
 70
0
  9
$DIMTIH
 70
0
  9
$DIMTOH
 70
0
  9
$DIMSE1
 70
0
  9
$DIMSE2
 70
0
  9
$DIMTAD
 70
1
  9
$DIMZIN
 70
8
  9
$DIMBLK
  1

  9
$DIMASO
 70
1
  9
$DIMSHO
 70
1
  9
$DIMPOST
  1

  9
$DIMAPOST
  1

  9
$DIMALT
 70
0
  9
$DIMALTD
 70
3
  9
$DIMALTF
 40
0.03937007874
  9
$DIMLFAC
 40
1.0
  9
$DIMTOFL
 70
1
  9
$DIMTVP
 40
0.0
  9
$DIMTIX
 70
0
  9
$DIMSOXD
 70
0
  9
$DIMSAH
 70
0
  9
$DIMBLK1
  1

  9
$DIMBLK2
  1

  9
$DIMSTYLE
  2
ISO-25
  9
$DIMCLRD
 70
0
  9
$DIMCLRE
 70
0
  9
$DIMCLRT
 70
0
  9
$DIMTFAC
 40
1.0
  9
$DIMGAP
 40
0.625
  9
$DIMJUST
 70
0
  9
$DIMSD1
 70
0
  9
$DIMSD2
 70
0
  9
$DIMTOLJ
 70
0
  9
$DIMTZIN
 70
8
  9
$DIMALTZ
 70
0
  9
$DIMALTTZ
 70
0
  9
$DIMUPT
 70
0
  9
$DIMDEC
 70
2
  9
$DIMTDEC
 70
2
  9
$DIMALTU
 70
2
  9
$DIMALTTD
 70
3
  9
$DIMTXSTY
  7
Standard
  9
$DIMAUNIT
 70
0
  9
$DIMADEC
 70
0
  9
$DIMALTRND
 40
0.0
  9
$DIMAZIN
 70
0
  9
$DIMDSEP
 70
44
  9
$DIMATFIT
 70
3
  9
$DIMFRAC
 70
0
  9
$DIMLDRBLK
  1

  9
$DIMLUNIT
 70
2
  9
$DIMLWD
 70
-2
  9
$DIMLWE
 70
-2
  9
$DIMTMOVE
 70
0
  9
$DIMFXL
 40
1.0
  9
$DIMFXLON
 70
0
  9
$DIMJOGANG
 40
0.785398163397
  9
$DIMTFILL
 70
0
  9
$DIMTFILLCLR
 70
0
  9
$DIMARCSYM
 70
0
  9
$DIMLTYPE
  6

  9
$DIMLTEX1
  6

  9
$DIMLTEX2
  6

  9
$DIMTXTDIRECTION
 70
0
  9
$LUNITS
 70
2
  9
$LUPREC
 70
4
  9
$SKETCHINC
 40
1.0
  9
$FILLETRAD
 40
10.0
  9
$AUNITS
 70
0
  9
$AUPREC
 70
2
  9
$MENU
  1
.
  9
$ELEVATION
 40
0.0
  9
$PELEVATION
 40
0.0
  9
$THICKNESS
 40
0.0
  9
$LIMCHECK
 70
0
  9
$CHAMFERA
 40
0.0
  9
$CHAMFERB
 40
0.0
  9
$CHAMFERC
 40
0.0
  9
$CHAMFERD
 40
0.0
  9
$SKPOLY
 70
0
  9
$TDCREATE
 40
2461246.4721180554
  9
$TDUCREATE
 40
2458532.153996898
  9
$TDUPDATE
 40
2461246.4721180554
  9
$TDUUPDATE
 40
2458532.1544311
  9
$TDINDWG
 40
0.0
  9
$TDUSRTIMER
 40
0.0
  9
$USRTIMER
 70
1
  9
$ANGBASE
 50
0.0
  9
$ANGDIR
 70
0
  9
$PDMODE
 70
0
  9
$PDSIZE
 40
0.0
  9
$PLINEWID
 40
0.0
  9
$SPLFRAME
 70
0
  9
$SPLINETYPE
 70
6
  9
$SPLINESEGS
 70
8
  9
$HANDSEED
  5
3C
  9
$SURFTAB1
 70
6
  9
$SURFTAB2
 70
6
  9
$SURFTYPE
 70
6
  9
$SURFU
 70
6
  9
$SURFV
 70
6
  9
$UCSBASE
  2

  9
$UCSNAME
  2

  9
$UCSORG
 10
0.0
 20
0.0
 30
0.0
  9
$UCSXDIR
 10
1.0
 20
0.0
 30
0.0
  9
$UCSYDIR
 10
0.0
 20
1.0
 30
0.0
  9
$UCSORTHOREF
  2

  9
$UCSORTHOVIEW
 70
0
  9
$UCSORGTOP
 10
0.0
 20
0.0
 30
0.0
  9
$UCSORGBOTTOM
 10
0.0
 20
0.0
 30
0.0
  9
$UCSORGLEFT
 10
0.0
 20
0.0
 30
0.0
  9
$UCSORGRIGHT
 10
0.0
 20
0.0
 30
0.0
  9
$UCSORGFRONT
 10
0.0
 20
0.0
 30
0.0
  9
$UCSORGBACK
 10
0.0
 20
0.0
 30
0.0
  9
$PUCSBASE
  2

  9
$PUCSNAME
  2

  9
$PUCSORG
 10
0.0
 20
0.0
 30
0.0
  9
$PUCSXDIR
 10
1.0
 20
0.0
 30
0.0
  9
$PUCSYDIR
 10
0.0
 20
1.0
 30
0.0
  9
$PUCSORTHOREF
  2

  9
$PUCSORTHOVIEW
 70
0
  9
$PUCSORGTOP
 10
0.0
 20
0.0
 30
0.0
  9
$PUCSORGBOTTOM
 10
0.0
 20
0.0
 30
0.0
  9
$PUCSORGLEFT
 10
0.0
 20
0.0
 30
0.0
  9
$PUCSORGRIGHT
 10
0.0
 20
0.0
 30
0.0
  9
$PUCSORGFRONT
 10
0.0
 20
0.0
 30
0.0
  9
$PUCSORGBACK
 10
0.0
 20
0.0
 30
0.0
  9
$USERI1
 70
0
  9
$USERI2
 70
0
  9
$USERI3
 70
0
  9
$USERI4
 70
0
  9
$USERI5
 70
0
  9
$USERR1
 40
0.0
  9
$USERR2
 40
0.0
  9
$USERR3
 40
0.0
  9
$USERR4
 40
0.0
  9
$USERR5
 40
0.0
  9
$WORLDVIEW
 70
1
  9
$SHADEDGE
 70
3
  9
$SHADEDIF
 70
70
  9
$TILEMODE
 70
1
  9
$MAXACTVP
 70
64
  9
$PINSBASE
 10
0.0
 20
0.0
 30
0.0
  9
$PLIMCHECK
 70
0
  9
$PEXTMIN
 10
1e+20
 20
1e+20
 30
1e+20
  9
$PEXTMAX
 10
-1e+20
 20
-1e+20
 30
-1e+20
  9
$PLIMMIN
 10
0.0
 20
0.0
  9
$PLIMMAX
 10
420.0
 20
297.0
  9
$UNITMODE
 70
0
  9
$VISRETAIN
 70
1
  9
$PLINEGEN
 70
0
  9
$PSLTSCALE
 70
1
  9
$TREEDEPTH
 70
3020
  9
$CMLSTYLE
  2
Standard
  9
$CMLJUST
 70
0
  9
$CMLSCALE
 40
20.0
  9
$PROXYGRAPHICS
 70
1
  9
$MEASUREMENT
 70
1
  9
$CELWEIGHT
370
-1
  9
$ENDCAPS
280
0
  9
$JOINSTYLE
280
0
  9
$LWDISPLAY
290
0
  9
$INSUNITS
 70
6
  9
$HYPERLINKBASE
  1

  9
$STYLESHEET
  1

  9
$XEDIT
290
1
  9
$CEPSNTYPE
380
0
  9
$PSTYLEMODE
290
1
  9
$FINGERPRINTGUID
  2
{6EA5A87A-42A6-4768-BDD1-A0186536AC74}
  9
$VERSIONGUID
  2
{E33B6FF8-6A3C-4453-BB42-08C38B170FE9}
  9
$EXTNAMES
290
1
  9
$PSVPSCALE
 40
0.0
  9
$OLESTARTUP
290
0
  9
$SORTENTS
280
127
  9
$INDEXCTL
280
0
  9
$HIDETEXT
280
1
  9
$XCLIPFRAME
280
1
  9
$HALOGAP
280
0
  9
$OBSCOLOR
 70
257
  9
$OBSLTYPE
280
0
  9
$INTERSECTIONDISPLAY
280
0
  9
$INTERSECTIONCOLOR
 70
257
  9
$DIMASSOC
280
2
  9
$PROJECTNAME
  1

  9
$CAMERADISPLAY
290
0
  9
$LENSLENGTH
 40
50.0
  9
$CAMERAHEIGHT
 40
0.0
  9
$STEPSPERSEC
 40
24.0
  9
$STEPSIZE
 40
100.0
  9
$3DDWFPREC
 40
2.0
  9
$PSOLWIDTH
 40
0.005
  9
$PSOLHEIGHT
 40
0.08
  9
$LOFTANG1
 40
1.570796326795
  9
$LOFTANG2
 40
1.570796326795
  9
$LOFTMAG1
 40
0.0
  9
$LOFTMAG2
 40
0.0
  9
$LOFTPARAM
 70
7
  9
$LOFTNORMALS
280
1
  9
$LATITUDE
 40
37.795
  9
$LONGITUDE
 40
-122.394
  9
$NORTHDIRECTION
 40
0.0
  9
$TIMEZONE
 70
-8000
  9
$LIGHTGLYPHDISPLAY
280
1
  9
$TILEMODELIGHTSYNCH
280
1
  9
$CMATERIAL
347
20
  9
$SOLIDHIST
280
0
  9
$SHOWHIST
280
1
  9
$DWFFRAME
280
2
  9
$DGNFRAME
280
2
  9
$REALWORLDSCALE
290
1
  9
$INTERFERECOLOR
 62
256
  9
$CSHADOW
280
0
  9
$SHADOWPLANELOCATION
 40
0.0
  0
ENDSEC
  0
SECTION
  2
CLASSES
  0
CLASS
  1
ACDBDICTIONARYWDFLT
  2
AcDbDictionaryWithDefault
  3
ObjectDBX Classes
 90
0
 91
0
280
0
281
0
  0
CLASS
  1
SUN
  2
AcDbSun
  3
SCENEOE
 90
1153
 91
0
280
0
281
0
  0
CLASS
  1
VISUALSTYLE
  2
AcDbVisualStyle
  3
ObjectDBX Classes
 90
4095
 91
0
280
0
281
0
  0
CLASS
  1
MATERIAL
  2
AcDbMaterial
  3
ObjectDBX Classes
 90
1153
 91
0
280
0
281
0
  0
CLASS
  1
SCALE
  2
AcDbScale
  3
ObjectDBX Classes
 90
1153
 91
0
280
0
281
0
  0
CLASS
  1
TABLESTYLE
  2
AcDbTableStyle
  3
ObjectDBX Classes
 90
4095
 91
0
280
0
281
0
  0
CLASS
  1
MLEADERSTYLE
  2
AcDbMLeaderStyle
  3
ACDB_MLEADERSTYLE_CLASS
 90
4095
 91
0
280
0
281
0
  0
CLASS
  1
DICTIONARYVAR
  2
AcDbDictionaryVar
  3
ObjectDBX Classes
 90
0
 91
0
280
0
281
0
  0
CLASS
  1
CELLSTYLEMAP
  2
AcDbCellStyleMap
  3
ObjectDBX Classes
 90
1152
 91
0
280
0
281
0
  0
CLASS
  1
MENTALRAYRENDERSETTINGS
  2
AcDbMentalRayRenderSettings
  3
SCENEOE
 90
1024
 91
0
280
0
281
0
  0
CLASS
  1
ACDBDETAILVIEWSTYLE
  2
AcDbDetailViewStyle
  3
ObjectDBX Classes
 90
1025
 91
0
280
0
281
0
  0
CLASS
  1
ACDBSECTIONVIEWSTYLE
  2
AcDbSectionViewStyle
  3
ObjectDBX Classes
 90
1025
 91
0
280
0
281
0
  0
CLASS
  1
RASTERVARIABLES
  2
AcDbRasterVariables
  3
ISM
 90
0
 91
0
280
0
281
0
  0
CLASS
  1
LAYOUT
  2
AcDbLayout
  3
ObjectDBX Classes
 90
0
 91
0
280
0
281
0
  0
CLASS
  1
ACDBPLACEHOLDER
  2
AcDbPlaceHolder
  3
ObjectDBX Classes
 90
0
 91
0
280
0
281
0
  0
ENDSEC
  0
SECTION
  2
TABLES
  0
TABLE
  2
VPORT
  5
8
330
0
100
AcDbSymbolTable
 70
1
  0
VPORT
  5
23
330
8
100
AcDbSymbolTableRecord
100
AcDbViewportTableRecord
  2
*Active
 70
0
 10
0.0
 20
0.0
 11
1.0
 21
1.0
 12
0.0
 22
0.0
 13
0.0
 23
0.0
 14
0.5
 24
0.5
 15
0.5
 25
0.5
 16
0.0
 26
0.0
 36
1.0
 17
0.0
 27
0.0
 37
0.0
 40
1000.0
 41
1.34
 42
50.0
 43
0.0
 44
0.0
 50
0.0
 51
0.0
 71
0
 72
1000
 73
1
 74
3
 75
0
 76
0
 77
0
 78
0
281
0
 65
0
146
0.0
  0
ENDTAB
  0
TABLE
  2
LTYPE
  5
2
330
0
100
AcDbSymbolTable
 70
3
  0
LTYPE
  5
24
330
2
100
AcDbSymbolTableRecord
100
AcDbLinetypeTableRecord
  2
ByBlock
 70
0
  3

 72
65
 73
0
 40
0.0
  0
LTYPE
  5
25
330
2
100
AcDbSymbolTableRecord
100
AcDbLinetypeTableRecord
  2
ByLayer
 70
0
  3

 72
65
 73
0
 40
0.0
  0
LTYPE
  5
26
330
2
100
AcDbSymbolTableRecord
100
AcDbLinetypeTableRecord
  2
Continuous
 70
0
  3

 72
65
 73
0
 40
0.0
  0
ENDTAB
  0
TABLE
  2
LAYER
  5
1
330
0
100
AcDbSymbolTable
 70
4
  0
LAYER
  5
27
330
1
100
AcDbSymbolTableRecord
100
AcDbLayerTableRecord
  2
0
 70
0
 62
7
  6
Continuous
370
-3
390
13
347
21
  0
LAYER
  5
28
330
1
100
AcDbSymbolTableRecord
100
AcDbLayerTableRecord
  2
Defpoints
 70
0
 62
7
  6
Continuous
290
0
370
-3
390
13
347
21
  0
LAYER
  5
2F
330
1
100
AcDbSymbolTableRecord
100
AcDbLayerTableRecord
  2
CUT
 70
0
 62
3
  6
Continuous
370
-3
390
13
347
21
  0
LAYER
  5
30
330
1
100
AcDbSymbolTableRecord
100
AcDbLayerTableRecord
  2
BEND_LINES
 70
0
 62
1
  6
DASHED
370
-3
390
13
347
21
  0
ENDTAB
  0
TABLE
  2
STYLE
  5
5
330
0
100
AcDbSymbolTable
 70
1
  0
STYLE
  5
29
330
5
100
AcDbSymbolTableRecord
100
AcDbTextStyleTableRecord
  2
Standard
 70
0
 40
0.0
 41
1.0
 50
0.0
 71
0
 42
2.5
  3
txt
  4

  0
ENDTAB
  0
TABLE
  2
VIEW
  5
7
330
0
100
AcDbSymbolTable
 70
0
  0
ENDTAB
  0
TABLE
  2
UCS
  5
6
330
0
100
AcDbSymbolTable
 70
0
  0
ENDTAB
  0
TABLE
  2
APPID
  5
3
330
0
100
AcDbSymbolTable
 70
3
  0
APPID
  5
2A
330
3
100
AcDbSymbolTableRecord
100
AcDbRegAppTableRecord
  2
ACAD
 70
0
  0
APPID
  5
39
330
3
100
AcDbSymbolTableRecord
100
AcDbRegAppTableRecord
  2
HATCHBACKGROUNDCOLOR
 70
0
  0
APPID
  5
3A
330
3
100
AcDbSymbolTableRecord
100
AcDbRegAppTableRecord
  2
EZDXF
 70
0
  0
ENDTAB
  0
TABLE
  2
DIMSTYLE
  5
4
330
0
100
AcDbSymbolTable
 70
1
100
AcDbDimStyleTable
  0
DIMSTYLE
105
2B
330
4
100
AcDbSymbolTableRecord
100
AcDbDimStyleTableRecord
  2
Standard
 70
0
 40
1.0
 41
2.5
 42
0.625
 43
3.75
 44
1.25
 45
0.0
 46
0.0
 47
0.0
 48
0.0
 49
2.5
140
2.5
141
2.5
142
0.0
143
0.03937007874
144
1.0
145
0.0
146
1.0
147
0.625
148
0.0
 69
0
 70
0
 71
0
 72
0
 73
0
 74
0
 75
0
 76
0
 77
1
 78
8
 79
3
170
0
171
3
172
1
173
0
174
0
175
0
176
0
177
0
178
0
179
2
271
2
272
2
273
2
274
3
275
0
276
0
277
2
278
44
279
0
280
0
281
0
282
0
283
0
284
8
285
0
286
0
288
0
289
3
290
0
371
-2
372
-2
  0
ENDTAB
  0
TABLE
  2
BLOCK_RECORD
  5
9
330
0
100
AcDbSymbolTable
 70
2
  0
BLOCK_RECORD
  5
17
330
9
100
AcDbSymbolTableRecord
100
AcDbBlockTableRecord
  2
*Model_Space
340
1A
 70
0
280
1
281
0
  0
BLOCK_RECORD
  5
1B
330
9
100
AcDbSymbolTableRecord
100
AcDbBlockTableRecord
  2
*Paper_Space
340
1E
 70
0
280
1
281
0
  0
ENDTAB
  0
ENDSEC
  0
SECTION
  2
BLOCKS
  0
BLOCK
  5
18
330
17
100
AcDbEntity
  8
0
100
AcDbBlockBegin
  2
*Model_Space
 70
0
 10
0.0
 20
0.0
 30
0.0
  3
*Model_Space
  1

  0
ENDBLK
  5
19
330
17
100
AcDbEntity
  8
0
100
AcDbBlockEnd
  0
BLOCK
  5
1C
330
1B
100
AcDbEntity
  8
0
100
AcDbBlockBegin
  2
*Paper_Space
 70
0
 10
0.0
 20
0.0
 30
0.0
  3
*Paper_Space
  1

  0
ENDBLK
  5
1D
330
1B
100
AcDbEntity
  8
0
100
AcDbBlockEnd
  0
ENDSEC
  0
SECTION
  2
ENTITIES
  0
LWPOLYLINE
  5
31
330
17
100
AcDbEntity
  8
CUT
100
AcDbPolyline
 90
232
 70
0
 10
-226.776
 20
-37.255
 10
-227.022
 20
-37.168
 10
-227.264
 20
-37.068
 10
-227.501
 20
-36.955
 10
-227.731
 20
-36.83
 10
-227.954
 20
-36.693
 10
-228.17
 20
-36.545
 10
-228.377
 20
-36.386
 10
-228.576
 20
-36.216
 10
-228.766
 20
-36.036
 10
-228.946
 20
-35.846
 10
-229.116
 20
-35.647
 10
-229.276
 20
-35.439
 10
-229.424
 20
-35.223
 10
-229.561
 20
-35.0
 10
-229.686
 20
-34.77
 10
-229.798
 20
-34.534
 10
-229.899
 20
-34.292
 10
-229.986
 20
-34.045
 10
-230.06
 20
-33.794
 10
-230.121
 20
-33.54
 10
-230.169
 20
-33.282
 10
-230.203
 20
-33.023
 10
-230.224
 20
-32.762
 10
-230.231
 20
-32.5
 10
-230.231
 20
-12.5
 10
-230.224
 20
-12.238
 10
-230.203
 20
-11.977
 10
-230.169
 20
-11.718
 10
-230.121
 20
-11.46
 10
-230.06
 20
-11.206
 10
-229.986
 20
-10.955
 10
-229.899
 20
-10.708
 10
-229.798
 20
-10.466
 10
-229.686
 20
-10.23
 10
-229.561
 20
-10.0
 10
-229.424
 20
-9.777
 10
-229.276
 20
-9.561
 10
-229.116
 20
-9.353
 10
-228.946
 20
-9.154
 10
-228.766
 20
-8.964
 10
-228.576
 20
-8.784
 10
-228.377
 20
-8.614
 10
-228.17
 20
-8.455
 10
-227.954
 20
-8.307
 10
-227.731
 20
-8.17
 10
-227.501
 20
-8.045
 10
-227.264
 20
-7.932
 10
-227.022
 20
-7.832
 10
-226.776
 20
-7.745
 10
-226.525
 20
-7.67
 10
-226.27
 20
-7.609
 10
-226.013
 20
-7.562
 10
-225.753
 20
-7.527
 10
-225.492
 20
-7.507
 10
-225.231
 20
-7.5
 10
-223.731
 20
-7.5
 10
-209.251
 20
-7.5
 10
-194.21
 20
-7.5
 10
-193.426
 20
-7.459
 10
-192.651
 20
-7.336
 10
-191.892
 20
-7.133
 10
-191.159
 20
-6.852
 10
-190.46
 20
-6.495
 10
-189.802
 20
-6.068
 10
-189.191
 20
-5.574
 10
-188.636
 20
-5.018
 10
-188.142
 20
-4.408
 10
-187.715
 20
-3.75
 10
-187.358
 20
-3.051
 10
-187.077
 20
-2.318
 10
-186.874
 20
-1.559
 10
-186.751
 20
-0.784
 10
-186.71
 20
0.0
 10
-186.751
 20
0.784
 10
-186.874
 20
1.559
 10
-187.077
 20
2.318
 10
-187.358
 20
3.051
 10
-187.715
 20
3.75
 10
-188.142
 20
4.408
 10
-188.636
 20
5.018
 10
-189.191
 20
5.574
 10
-189.802
 20
6.068
 10
-190.46
 20
6.495
 10
-191.159
 20
6.852
 10
-191.892
 20
7.133
 10
-192.651
 20
7.336
 10
-193.426
 20
7.459
 10
-194.21
 20
7.5
 10
-209.251
 20
7.5
 10
-223.731
 20
7.5
 10
-225.231
 20
7.5
 10
-225.492
 20
7.507
 10
-225.753
 20
7.527
 10
-226.013
 20
7.562
 10
-226.27
 20
7.609
 10
-226.525
 20
7.67
 10
-226.776
 20
7.745
 10
-227.022
 20
7.832
 10
-227.264
 20
7.932
 10
-227.501
 20
8.045
 10
-227.731
 20
8.17
 10
-227.954
 20
8.307
 10
-228.17
 20
8.455
 10
-228.377
 20
8.614
 10
-228.576
 20
8.784
 10
-228.766
 20
8.964
 10
-228.946
 20
9.154
 10
-229.116
 20
9.353
 10
-229.276
 20
9.561
 10
-229.424
 20
9.777
 10
-229.561
 20
10.0
 10
-229.686
 20
10.23
 10
-229.798
 20
10.466
 10
-229.899
 20
10.708
 10
-229.986
 20
10.955
 10
-230.06
 20
11.206
 10
-230.121
 20
11.46
 10
-230.169
 20
11.718
 10
-230.203
 20
11.977
 10
-230.224
 20
12.238
 10
-230.231
 20
12.5
 10
-230.231
 20
32.5
 10
-230.224
 20
32.762
 10
-230.203
 20
33.023
 10
-230.169
 20
33.282
 10
-230.121
 20
33.54
 10
-230.06
 20
33.794
 10
-229.986
 20
34.045
 10
-229.899
 20
34.292
 10
-229.798
 20
34.534
 10
-229.686
 20
34.77
 10
-229.561
 20
35.0
 10
-229.424
 20
35.223
 10
-229.276
 20
35.439
 10
-229.116
 20
35.647
 10
-228.946
 20
35.846
 10
-228.766
 20
36.036
 10
-228.576
 20
36.216
 10
-228.377
 20
36.386
 10
-228.17
 20
36.545
 10
-227.954
 20
36.693
 10
-227.731
 20
36.83
 10
-227.501
 20
36.955
 10
-227.264
 20
37.068
 10
-227.022
 20
37.168
 10
-226.776
 20
37.255
 10
-226.525
 20
37.33
 10
-226.27
 20
37.391
 10
-226.013
 20
37.438
 10
-225.753
 20
37.473
 10
-225.492
 20
37.493
 10
-225.231
 20
37.5
 10
-223.731
 20
37.5
 10
-209.251
 20
37.5
 10
-161.272
 20
37.5
 10
-124.393
 20
37.5
 10
-44.395
 20
37.5
 10
30.604
 20
37.5
 10
31.389
 20
37.479
 10
32.172
 20
37.418
 10
32.95
 20
37.315
 10
33.722
 20
37.172
 10
34.486
 20
36.989
 10
35.239
 20
36.766
 10
35.979
 20
36.504
 10
36.705
 20
36.203
 10
37.414
 20
35.865
 10
38.104
 20
35.49
 10
38.773
 20
35.08
 10
39.421
 20
34.635
 10
40.044
 20
34.157
 10
40.641
 20
33.647
 10
41.21
 20
33.107
 10
41.751
 20
32.537
 10
42.261
 20
31.94
 10
42.739
 20
31.317
 10
43.184
 20
30.67
 10
43.594
 20
30.0
 10
43.969
 20
29.31
 10
44.307
 20
28.601
 10
44.607
 20
27.876
 10
44.87
 20
27.135
 10
45.093
 20
26.382
 10
45.276
 20
25.619
 10
45.419
 20
24.847
 10
45.522
 20
24.068
 10
45.583
 20
23.285
 10
45.604
 20
22.5
 10
45.604
 20
-22.5
 10
45.583
 20
-23.285
 10
45.522
 20
-24.068
 10
45.419
 20
-24.847
 10
45.276
 20
-25.619
 10
45.093
 20
-26.382
 10
44.87
 20
-27.135
 10
44.607
 20
-27.876
 10
44.307
 20
-28.601
 10
43.969
 20
-29.31
 10
43.594
 20
-30.0
 10
43.184
 20
-30.67
 10
42.739
 20
-31.317
 10
42.261
 20
-31.94
 10
41.751
 20
-32.537
 10
41.21
 20
-33.107
 10
40.641
 20
-33.647
 10
40.044
 20
-34.157
 10
39.421
 20
-34.635
 10
38.773
 20
-35.08
 10
38.104
 20
-35.49
 10
37.414
 20
-35.865
 10
36.705
 20
-36.203
 10
35.979
 20
-36.504
 10
35.239
 20
-36.766
 10
34.486
 20
-36.989
 10
33.722
 20
-37.172
 10
32.95
 20
-37.315
 10
32.172
 20
-37.418
 10
31.389
 20
-37.479
 10
30.604
 20
-37.5
 10
-44.395
 20
-37.5
 10
-124.393
 20
-37.5
 10
-161.272
 20
-37.5
 10
-209.251
 20
-37.5
 10
-223.731
 20
-37.5
 10
-225.231
 20
-37.5
 10
-225.492
 20
-37.493
 10
-225.753
 20
-37.473
 10
-226.013
 20
-37.438
 10
-226.27
 20
-37.391
 10
-226.525
 20
-37.33
 10
-226.776
 20
-37.255
  0
LWPOLYLINE
  5
32
330
17
100
AcDbEntity
  8
CUT
100
AcDbPolyline
 90
125
 70
0
 10
-221.682
 20
-32.809
 10
-221.664
 20
-32.858
 10
-221.644
 20
-32.907
 10
-221.622
 20
-32.954
 10
-221.597
 20
-33.0
 10
-221.569
 20
-33.045
 10
-221.54
 20
-33.088
 10
-221.508
 20
-33.129
 10
-221.474
 20
-33.169
 10
-221.438
 20
-33.207
 10
-221.4
 20
-33.243
 10
-221.36
 20
-33.277
 10
-221.318
 20
-33.309
 10
-221.275
 20
-33.339
 10
-221.231
 20
-33.366
 10
-221.185
 20
-33.391
 10
-221.137
 20
-33.414
 10
-221.089
 20
-33.434
 10
-221.04
 20
-33.451
 10
-220.989
 20
-33.466
 10
-220.939
 20
-33.478
 10
-220.887
 20
-33.488
 10
-220.835
 20
-33.495
 10
-220.783
 20
-33.499
 10
-220.731
 20
-33.5
 10
-219.731
 20
-33.5
 10
-219.678
 20
-33.499
 10
-219.626
 20
-33.495
 10
-219.574
 20
-33.488
 10
-219.523
 20
-33.478
 10
-219.472
 20
-33.466
 10
-219.422
 20
-33.451
 10
-219.372
 20
-33.434
 10
-219.324
 20
-33.414
 10
-219.277
 20
-33.391
 10
-219.231
 20
-33.366
 10
-219.186
 20
-33.339
 10
-219.143
 20
-33.309
 10
-219.101
 20
-33.277
 10
-219.062
 20
-33.243
 10
-219.024
 20
-33.207
 10
-218.988
 20
-33.169
 10
-218.954
 20
-33.129
 10
-218.922
 20
-33.088
 10
-218.892
 20
-33.045
 10
-218.865
 20
-33.0
 10
-218.84
 20
-32.954
 10
-218.817
 20
-32.907
 10
-218.797
 20
-32.858
 10
-218.78
 20
-32.809
 10
-218.765
 20
-32.759
 10
-218.753
 20
-32.708
 10
-218.743
 20
-32.656
 10
-218.736
 20
-32.605
 10
-218.732
 20
-32.552
 10
-218.731
 20
-32.5
 10
-218.731
 20
-14.5
 10
-218.732
 20
-14.448
 10
-218.736
 20
-14.395
 10
-218.743
 20
-14.344
 10
-218.753
 20
-14.292
 10
-218.765
 20
-14.241
 10
-218.78
 20
-14.191
 10
-218.797
 20
-14.142
 10
-218.817
 20
-14.093
 10
-218.84
 20
-14.046
 10
-218.865
 20
-14.0
 10
-218.892
 20
-13.955
 10
-218.922
 20
-13.912
 10
-218.954
 20
-13.871
 10
-218.988
 20
-13.831
 10
-219.024
 20
-13.793
 10
-219.062
 20
-13.757
 10
-219.101
 20
-13.723
 10
-219.143
 20
-13.691
 10
-219.186
 20
-13.661
 10
-219.231
 20
-13.634
 10
-219.277
 20
-13.609
 10
-219.324
 20
-13.586
 10
-219.372
 20
-13.566
 10
-219.422
 20
-13.549
 10
-219.472
 20
-13.534
 10
-219.523
 20
-13.522
 10
-219.574
 20
-13.512
 10
-219.626
 20
-13.505
 10
-219.678
 20
-13.501
 10
-219.731
 20
-13.5
 10
-220.731
 20
-13.5
 10
-220.783
 20
-13.501
 10
-220.835
 20
-13.505
 10
-220.887
 20
-13.512
 10
-220.939
 20
-13.522
 10
-220.989
 20
-13.534
 10
-221.04
 20
-13.549
 10
-221.089
 20
-13.566
 10
-221.137
 20
-13.586
 10
-221.185
 20
-13.609
 10
-221.231
 20
-13.634
 10
-221.275
 20
-13.661
 10
-221.318
 20
-13.691
 10
-221.36
 20
-13.723
 10
-221.4
 20
-13.757
 10
-221.438
 20
-13.793
 10
-221.474
 20
-13.831
 10
-221.508
 20
-13.871
 10
-221.54
 20
-13.912
 10
-221.569
 20
-13.955
 10
-221.597
 20
-14.0
 10
-221.622
 20
-14.046
 10
-221.644
 20
-14.093
 10
-221.664
 20
-14.142
 10
-221.682
 20
-14.191
 10
-221.697
 20
-14.241
 10
-221.709
 20
-14.292
 10
-221.718
 20
-14.344
 10
-221.725
 20
-14.395
 10
-221.729
 20
-14.448
 10
-221.731
 20
-14.5
 10
-221.731
 20
-32.5
 10
-221.729
 20
-32.552
 10
-221.725
 20
-32.605
 10
-221.718
 20
-32.656
 10
-221.709
 20
-32.708
 10
-221.697
 20
-32.759
 10
-221.682
 20
-32.809
  0
LWPOLYLINE
  5
33
330
17
100
AcDbEntity
  8
CUT
100
AcDbPolyline
 90
127
 70
0
 10
-215.718
 20
-32.656
 10
-215.709
 20
-32.708
 10
-215.697
 20
-32.759
 10
-215.682
 20
-32.809
 10
-215.664
 20
-32.858
 10
-215.644
 20
-32.907
 10
-215.622
 20
-32.954
 10
-215.597
 20
-33.0
 10
-215.569
 20
-33.045
 10
-215.54
 20
-33.088
 10
-215.508
 20
-33.129
 10
-215.474
 20
-33.169
 10
-215.438
 20
-33.207
 10
-215.4
 20
-33.243
 10
-215.36
 20
-33.277
 10
-215.318
 20
-33.309
 10
-215.275
 20
-33.339
 10
-215.231
 20
-33.366
 10
-215.185
 20
-33.391
 10
-215.137
 20
-33.414
 10
-215.089
 20
-33.434
 10
-215.04
 20
-33.451
 10
-214.989
 20
-33.466
 10
-214.939
 20
-33.478
 10
-214.887
 20
-33.488
 10
-214.835
 20
-33.495
 10
-214.783
 20
-33.499
 10
-214.731
 20
-33.5
 10
-213.731
 20
-33.5
 10
-213.678
 20
-33.499
 10
-213.626
 20
-33.495
 10
-213.574
 20
-33.488
 10
-213.523
 20
-33.478
 10
-213.472
 20
-33.466
 10
-213.422
 20
-33.451
 10
-213.372
 20
-33.434
 10
-213.324
 20
-33.414
 10
-213.277
 20
-33.391
 10
-213.231
 20
-33.366
 10
-213.186
 20
-33.339
 10
-213.143
 20
-33.309
 10
-213.101
 20
-33.277
 10
-213.062
 20
-33.243
 10
-213.024
 20
-33.207
 10
-212.988
 20
-33.169
 10
-212.954
 20
-33.129
 10
-212.922
 20
-33.088
 10
-212.892
 20
-33.045
 10
-212.865
 20
-33.0
 10
-212.84
 20
-32.954
 10
-212.817
 20
-32.907
 10
-212.797
 20
-32.858
 10
-212.78
 20
-32.809
 10
-212.765
 20
-32.759
 10
-212.753
 20
-32.708
 10
-212.743
 20
-32.656
 10
-212.736
 20
-32.605
 10
-212.732
 20
-32.552
 10
-212.731
 20
-32.5
 10
-212.731
 20
-14.5
 10
-212.732
 20
-14.448
 10
-212.736
 20
-14.395
 10
-212.743
 20
-14.344
 10
-212.753
 20
-14.292
 10
-212.765
 20
-14.241
 10
-212.78
 20
-14.191
 10
-212.797
 20
-14.142
 10
-212.817
 20
-14.093
 10
-212.84
 20
-14.046
 10
-212.865
 20
-14.0
 10
-212.892
 20
-13.955
 10
-212.922
 20
-13.912
 10
-212.954
 20
-13.871
 10
-212.988
 20
-13.831
 10
-213.024
 20
-13.793
 10
-213.062
 20
-13.757
 10
-213.101
 20
-13.723
 10
-213.143
 20
-13.691
 10
-213.186
 20
-13.661
 10
-213.231
 20
-13.634
 10
-213.277
 20
-13.609
 10
-213.324
 20
-13.586
 10
-213.372
 20
-13.566
 10
-213.422
 20
-13.549
 10
-213.472
 20
-13.534
 10
-213.523
 20
-13.522
 10
-213.574
 20
-13.512
 10
-213.626
 20
-13.505
 10
-213.678
 20
-13.501
 10
-213.731
 20
-13.5
 10
-214.731
 20
-13.5
 10
-214.783
 20
-13.501
 10
-214.835
 20
-13.505
 10
-214.887
 20
-13.512
 10
-214.939
 20
-13.522
 10
-214.989
 20
-13.534
 10
-215.04
 20
-13.549
 10
-215.089
 20
-13.566
 10
-215.137
 20
-13.586
 10
-215.185
 20
-13.609
 10
-215.231
 20
-13.634
 10
-215.275
 20
-13.661
 10
-215.318
 20
-13.691
 10
-215.36
 20
-13.723
 10
-215.4
 20
-13.757
 10
-215.438
 20
-13.793
 10
-215.474
 20
-13.831
 10
-215.508
 20
-13.871
 10
-215.54
 20
-13.912
 10
-215.569
 20
-13.955
 10
-215.597
 20
-14.0
 10
-215.622
 20
-14.046
 10
-215.644
 20
-14.093
 10
-215.664
 20
-14.142
 10
-215.682
 20
-14.191
 10
-215.697
 20
-14.241
 10
-215.709
 20
-14.292
 10
-215.718
 20
-14.344
 10
-215.725
 20
-14.395
 10
-215.729
 20
-14.448
 10
-215.731
 20
-14.5
 10
-213.731
 20
-14.5
 10
-213.731
 20
-32.5
 10
-215.731
 20
-32.5
 10
-215.729
 20
-32.552
 10
-215.725
 20
-32.605
 10
-215.718
 20
-32.656
  0
LWPOLYLINE
  5
34
330
17
100
AcDbEntity
  8
CUT
100
AcDbPolyline
 90
127
 70
0
 10
-221.718
 20
13.344
 10
-221.709
 20
13.292
 10
-221.697
 20
13.241
 10
-221.682
 20
13.191
 10
-221.664
 20
13.142
 10
-221.644
 20
13.093
 10
-221.622
 20
13.046
 10
-221.597
 20
13.0
 10
-221.569
 20
12.955
 10
-221.54
 20
12.912
 10
-221.508
 20
12.871
 10
-221.474
 20
12.831
 10
-221.438
 20
12.793
 10
-221.4
 20
12.757
 10
-221.36
 20
12.723
 10
-221.318
 20
12.691
 10
-221.275
 20
12.661
 10
-221.231
 20
12.634
 10
-221.185
 20
12.609
 10
-221.137
 20
12.586
 10
-221.089
 20
12.566
 10
-221.04
 20
12.549
 10
-220.989
 20
12.534
 10
-220.939
 20
12.522
 10
-220.887
 20
12.512
 10
-220.835
 20
12.505
 10
-220.783
 20
12.501
 10
-220.731
 20
12.5
 10
-219.731
 20
12.5
 10
-219.678
 20
12.501
 10
-219.626
 20
12.505
 10
-219.574
 20
12.512
 10
-219.523
 20
12.522
 10
-219.472
 20
12.534
 10
-219.422
 20
12.549
 10
-219.372
 20
12.566
 10
-219.324
 20
12.586
 10
-219.277
 20
12.609
 10
-219.231
 20
12.634
 10
-219.186
 20
12.661
 10
-219.143
 20
12.691
 10
-219.101
 20
12.723
 10
-219.062
 20
12.757
 10
-219.024
 20
12.793
 10
-218.988
 20
12.831
 10
-218.954
 20
12.871
 10
-218.922
 20
12.912
 10
-218.892
 20
12.955
 10
-218.865
 20
13.0
 10
-218.84
 20
13.046
 10
-218.817
 20
13.093
 10
-218.797
 20
13.142
 10
-218.78
 20
13.191
 10
-218.765
 20
13.241
 10
-218.753
 20
13.292
 10
-218.743
 20
13.344
 10
-218.736
 20
13.395
 10
-218.732
 20
13.448
 10
-218.731
 20
13.5
 10
-220.731
 20
13.5
 10
-220.731
 20
31.5
 10
-218.731
 20
31.5
 10
-218.732
 20
31.552
 10
-218.736
 20
31.605
 10
-218.743
 20
31.656
 10
-218.753
 20
31.708
 10
-218.765
 20
31.759
 10
-218.78
 20
31.809
 10
-218.797
 20
31.858
 10
-218.817
 20
31.907
 10
-218.84
 20
31.954
 10
-218.865
 20
32.0
 10
-218.892
 20
32.045
 10
-218.922
 20
32.088
 10
-218.954
 20
32.129
 10
-218.988
 20
32.169
 10
-219.024
 20
32.207
 10
-219.062
 20
32.243
 10
-219.101
 20
32.277
 10
-219.143
 20
32.309
 10
-219.186
 20
32.339
 10
-219.231
 20
32.366
 10
-219.277
 20
32.391
 10
-219.324
 20
32.414
 10
-219.372
 20
32.434
 10
-219.422
 20
32.451
 10
-219.472
 20
32.466
 10
-219.523
 20
32.478
 10
-219.574
 20
32.488
 10
-219.626
 20
32.495
 10
-219.678
 20
32.499
 10
-219.731
 20
32.5
 10
-220.731
 20
32.5
 10
-220.783
 20
32.499
 10
-220.835
 20
32.495
 10
-220.887
 20
32.488
 10
-220.939
 20
32.478
 10
-220.989
 20
32.466
 10
-221.04
 20
32.451
 10
-221.089
 20
32.434
 10
-221.137
 20
32.414
 10
-221.185
 20
32.391
 10
-221.231
 20
32.366
 10
-221.275
 20
32.339
 10
-221.318
 20
32.309
 10
-221.36
 20
32.277
 10
-221.4
 20
32.243
 10
-221.438
 20
32.207
 10
-221.474
 20
32.169
 10
-221.508
 20
32.129
 10
-221.54
 20
32.088
 10
-221.569
 20
32.045
 10
-221.597
 20
32.0
 10
-221.622
 20
31.954
 10
-221.644
 20
31.907
 10
-221.664
 20
31.858
 10
-221.682
 20
31.809
 10
-221.697
 20
31.759
 10
-221.709
 20
31.708
 10
-221.718
 20
31.656
 10
-221.725
 20
31.605
 10
-221.729
 20
31.552
 10
-221.731
 20
31.5
 10
-221.731
 20
13.5
 10
-221.729
 20
13.448
 10
-221.725
 20
13.395
 10
-221.718
 20
13.344
  0
LWPOLYLINE
  5
35
330
17
100
AcDbEntity
  8
CUT
100
AcDbPolyline
 90
127
 70
0
 10
-212.797
 20
31.858
 10
-212.817
 20
31.907
 10
-212.84
 20
31.954
 10
-212.865
 20
32.0
 10
-212.892
 20
32.045
 10
-212.922
 20
32.088
 10
-212.954
 20
32.129
 10
-212.988
 20
32.169
 10
-213.024
 20
32.207
 10
-213.062
 20
32.243
 10
-213.101
 20
32.277
 10
-213.143
 20
32.309
 10
-213.186
 20
32.339
 10
-213.231
 20
32.366
 10
-213.277
 20
32.391
 10
-213.324
 20
32.414
 10
-213.372
 20
32.434
 10
-213.422
 20
32.451
 10
-213.472
 20
32.466
 10
-213.523
 20
32.478
 10
-213.574
 20
32.488
 10
-213.626
 20
32.495
 10
-213.678
 20
32.499
 10
-213.731
 20
32.5
 10
-214.731
 20
32.5
 10
-214.783
 20
32.499
 10
-214.835
 20
32.495
 10
-214.887
 20
32.488
 10
-214.939
 20
32.478
 10
-214.989
 20
32.466
 10
-215.04
 20
32.451
 10
-215.089
 20
32.434
 10
-215.137
 20
32.414
 10
-215.185
 20
32.391
 10
-215.231
 20
32.366
 10
-215.275
 20
32.339
 10
-215.318
 20
32.309
 10
-215.36
 20
32.277
 10
-215.4
 20
32.243
 10
-215.438
 20
32.207
 10
-215.474
 20
32.169
 10
-215.508
 20
32.129
 10
-215.54
 20
32.088
 10
-215.569
 20
32.045
 10
-215.597
 20
32.0
 10
-215.622
 20
31.954
 10
-215.644
 20
31.907
 10
-215.664
 20
31.858
 10
-215.682
 20
31.809
 10
-215.697
 20
31.759
 10
-215.709
 20
31.708
 10
-215.718
 20
31.656
 10
-215.725
 20
31.605
 10
-215.729
 20
31.552
 10
-215.731
 20
31.5
 10
-213.731
 20
31.5
 10
-213.731
 20
13.5
 10
-215.731
 20
13.5
 10
-215.729
 20
13.448
 10
-215.725
 20
13.395
 10
-215.718
 20
13.344
 10
-215.709
 20
13.292
 10
-215.697
 20
13.241
 10
-215.682
 20
13.191
 10
-215.664
 20
13.142
 10
-215.644
 20
13.093
 10
-215.622
 20
13.046
 10
-215.597
 20
13.0
 10
-215.569
 20
12.955
 10
-215.54
 20
12.912
 10
-215.508
 20
12.871
 10
-215.474
 20
12.831
 10
-215.438
 20
12.793
 10
-215.4
 20
12.757
 10
-215.36
 20
12.723
 10
-215.318
 20
12.691
 10
-215.275
 20
12.661
 10
-215.231
 20
12.634
 10
-215.185
 20
12.609
 10
-215.137
 20
12.586
 10
-215.089
 20
12.566
 10
-215.04
 20
12.549
 10
-214.989
 20
12.534
 10
-214.939
 20
12.522
 10
-214.887
 20
12.512
 10
-214.835
 20
12.505
 10
-214.783
 20
12.501
 10
-214.731
 20
12.5
 10
-213.731
 20
12.5
 10
-213.678
 20
12.501
 10
-213.626
 20
12.505
 10
-213.574
 20
12.512
 10
-213.523
 20
12.522
 10
-213.472
 20
12.534
 10
-213.422
 20
12.549
 10
-213.372
 20
12.566
 10
-213.324
 20
12.586
 10
-213.277
 20
12.609
 10
-213.231
 20
12.634
 10
-213.186
 20
12.661
 10
-213.143
 20
12.691
 10
-213.101
 20
12.723
 10
-213.062
 20
12.757
 10
-213.024
 20
12.793
 10
-212.988
 20
12.831
 10
-212.954
 20
12.871
 10
-212.922
 20
12.912
 10
-212.892
 20
12.955
 10
-212.865
 20
13.0
 10
-212.84
 20
13.046
 10
-212.817
 20
13.093
 10
-212.797
 20
13.142
 10
-212.78
 20
13.191
 10
-212.765
 20
13.241
 10
-212.753
 20
13.292
 10
-212.743
 20
13.344
 10
-212.736
 20
13.395
 10
-212.732
 20
13.448
 10
-212.731
 20
13.5
 10
-212.731
 20
31.5
 10
-212.732
 20
31.552
 10
-212.736
 20
31.605
 10
-212.743
 20
31.656
 10
-212.753
 20
31.708
 10
-212.765
 20
31.759
 10
-212.78
 20
31.809
 10
-212.797
 20
31.858
  0
LWPOLYLINE
  5
36
330
17
100
AcDbEntity
  8
CUT
100
AcDbPolyline
 90
63
 70
0
 10
-60.644
 20
-6.495
 10
-59.986
 20
-6.068
 10
-59.376
 20
-5.574
 10
-58.82
 20
-5.018
 10
-58.326
 20
-4.408
 10
-57.899
 20
-3.75
 10
-57.542
 20
-3.051
 10
-57.261
 20
-2.318
 10
-57.058
 20
-1.559
 10
-56.935
 20
-0.784
 10
-56.894
 20
0.0
 10
-56.935
 20
0.784
 10
-57.058
 20
1.559
 10
-57.261
 20
2.318
 10
-57.542
 20
3.051
 10
-57.899
 20
3.75
 10
-58.326
 20
4.408
 10
-58.82
 20
5.018
 10
-59.376
 20
5.574
 10
-59.986
 20
6.068
 10
-60.644
 20
6.495
 10
-61.343
 20
6.852
 10
-62.076
 20
7.133
 10
-62.835
 20
7.336
 10
-63.61
 20
7.459
 10
-64.394
 20
7.5
 10
-104.394
 20
7.5
 10
-105.178
 20
7.459
 10
-105.953
 20
7.336
 10
-106.712
 20
7.133
 10
-107.445
 20
6.852
 10
-108.144
 20
6.495
 10
-108.802
 20
6.068
 10
-109.412
 20
5.574
 10
-109.968
 20
5.018
 10
-110.462
 20
4.408
 10
-110.889
 20
3.75
 10
-111.246
 20
3.051
 10
-111.527
 20
2.318
 10
-111.73
 20
1.559
 10
-111.853
 20
0.784
 10
-111.894
 20
-0.0
 10
-111.853
 20
-0.784
 10
-111.73
 20
-1.559
 10
-111.527
 20
-2.318
 10
-111.246
 20
-3.051
 10
-110.889
 20
-3.75
 10
-110.462
 20
-4.408
 10
-109.968
 20
-5.018
 10
-109.412
 20
-5.574
 10
-108.802
 20
-6.068
 10
-108.144
 20
-6.495
 10
-107.445
 20
-6.852
 10
-106.712
 20
-7.133
 10
-105.953
 20
-7.336
 10
-105.178
 20
-7.459
 10
-104.394
 20
-7.5
 10
-64.394
 20
-7.5
 10
-63.61
 20
-7.459
 10
-62.835
 20
-7.336
 10
-62.076
 20
-7.133
 10
-61.343
 20
-6.852
 10
-60.644
 20
-6.495
  0
LINE
  5
37
330
17
100
AcDbEntity
  8
BEND_LINES
  6
DASHED
100
AcDbLine
 10
-142.83268179519354
 20
37.5
 30
0.0
 11
-142.83268179519354
 21
32.5
 31
0.0
  0
LINE
  5
38
330
17
100
AcDbEntity
  8
BEND_LINES
  6
DASHED
100
AcDbLine
 10
-142.83268179519354
 20
-32.5
 30
0.0
 11
-142.83268179519354
 21
-37.5
 31
0.0
  0
ENDSEC
  0
SECTION
  2
OBJECTS
  0
DICTIONARY
  5
A
330
0
100
AcDbDictionary
281
1
  3
ACAD_COLOR
350
B
  3
ACAD_GROUP
350
C
  3
ACAD_LAYOUT
350
D
  3
ACAD_MATERIAL
350
E
  3
ACAD_MLEADERSTYLE
350
F
  3
ACAD_MLINESTYLE
350
10
  3
ACAD_PLOTSETTINGS
350
11
  3
ACAD_PLOTSTYLENAME
350
12
  3
ACAD_SCALELIST
350
14
  3
ACAD_TABLESTYLE
350
15
  3
ACAD_VISUALSTYLE
350
16
  3
EZDXF_META
350
2D
  0
DICTIONARY
  5
B
330
A
100
AcDbDictionary
281
1
  0
DICTIONARY
  5
C
330
A
100
AcDbDictionary
281
1
  0
DICTIONARY
  5
D
330
A
100
AcDbDictionary
281
1
  3
Model
350
1A
  3
Layout1
350
1E
  0
DICTIONARY
  5
E
330
A
100
AcDbDictionary
281
1
  3
ByBlock
350
1F
  3
ByLayer
350
20
  3
Global
350
21
  0
DICTIONARY
  5
F
330
A
100
AcDbDictionary
281
1
  3
Standard
350
2C
  0
DICTIONARY
  5
10
330
A
100
AcDbDictionary
281
1
  3
Standard
350
22
  0
DICTIONARY
  5
11
330
A
100
AcDbDictionary
281
1
  0
ACDBDICTIONARYWDFLT
  5
12
330
A
100
AcDbDictionary
281
1
  3
Normal
350
13
100
AcDbDictionaryWithDefault
340
13
  0
ACDBPLACEHOLDER
  5
13
330
12
  0
DICTIONARY
  5
14
330
A
100
AcDbDictionary
281
1
  0
DICTIONARY
  5
15
330
A
100
AcDbDictionary
281
1
  0
DICTIONARY
  5
16
330
A
100
AcDbDictionary
281
1
  0
LAYOUT
  5
1A
330
D
100
AcDbPlotSettings
  1

  4
A3
  6

 40
7.5
 41
20.0
 42
7.5
 43
20.0
 44
420.0
 45
297.0
 46
0.0
 47
0.0
 48
0.0
 49
0.0
140
0.0
141
0.0
142
1.0
143
1.0
 70
1024
 72
1
 73
0
 74
5
  7

 75
16
 76
0
 77
2
 78
300
147
1.0
148
0.0
149
0.0
100
AcDbLayout
  1
Model
 70
1
 71
0
 10
0.0
 20
0.0
 11
420.0
 21
297.0
 12
0.0
 22
0.0
 32
0.0
 14
1e+20
 24
1e+20
 34
1e+20
 15
-1e+20
 25
-1e+20
 35
-1e+20
146
0.0
 13
0.0
 23
0.0
 33
0.0
 16
1.0
 26
0.0
 36
0.0
 17
0.0
 27
1.0
 37
0.0
 76
1
330
17
  0
LAYOUT
  5
1E
330
D
100
AcDbPlotSettings
  1

  4
A3
  6

 40
7.5
 41
20.0
 42
7.5
 43
20.0
 44
420.0
 45
297.0
 46
0.0
 47
0.0
 48
0.0
 49
0.0
140
0.0
141
0.0
142
1.0
143
1.0
 70
0
 72
1
 73
0
 74
5
  7

 75
16
 76
0
 77
2
 78
300
147
1.0
148
0.0
149
0.0
100
AcDbLayout
  1
Layout1
 70
1
 71
1
 10
0.0
 20
0.0
 11
420.0
 21
297.0
 12
0.0
 22
0.0
 32
0.0
 14
1e+20
 24
1e+20
 34
1e+20
 15
-1e+20
 25
-1e+20
 35
-1e+20
146
0.0
 13
0.0
 23
0.0
 33
0.0
 16
1.0
 26
0.0
 36
0.0
 17
0.0
 27
1.0
 37
0.0
 76
1
330
1B
  0
MATERIAL
  5
1F
102
{ACAD_REACTORS
330
E
102
}
330
E
100
AcDbMaterial
  1
ByBlock
  2

 70
0
 40
1.0
 71
1
 41
1.0
 91
-1023410177
 42
1.0
 72
1
  3

 73
1
 74
1
 75
1
 44
0.5
 73
0
 45
1.0
 46
1.0
 77
1
  4

 78
1
 79
1
170
1
 48
1.0
171
1
  6

172
1
173
1
174
1
140
1.0
141
1.0
175
1
  7

176
1
177
1
178
1
143
1.0
179
1
  8

270
1
271
1
272
1
145
1.0
146
1.0
273
1
  9

274
1
275
1
276
1
 42
1.0
 72
1
  3

 73
1
 74
1
 75
1
 94
63
  0
MATERIAL
  5
20
102
{ACAD_REACTORS
330
E
102
}
330
E
100
AcDbMaterial
  1
ByLayer
  2

 70
0
 40
1.0
 71
1
 41
1.0
 91
-1023410177
 42
1.0
 72
1
  3

 73
1
 74
1
 75
1
 44
0.5
 73
0
 45
1.0
 46
1.0
 77
1
  4

 78
1
 79
1
170
1
 48
1.0
171
1
  6

172
1
173
1
174
1
140
1.0
141
1.0
175
1
  7

176
1
177
1
178
1
143
1.0
179
1
  8

270
1
271
1
272
1
145
1.0
146
1.0
273
1
  9

274
1
275
1
276
1
 42
1.0
 72
1
  3

 73
1
 74
1
 75
1
 94
63
  0
MATERIAL
  5
21
102
{ACAD_REACTORS
330
E
102
}
330
E
100
AcDbMaterial
  1
Global
  2

 70
0
 40
1.0
 71
1
 41
1.0
 91
-1023410177
 42
1.0
 72
1
  3

 73
1
 74
1
 75
1
 44
0.5
 73
0
 45
1.0
 46
1.0
 77
1
  4

 78
1
 79
1
170
1
 48
1.0
171
1
  6

172
1
173
1
174
1
140
1.0
141
1.0
175
1
  7

176
1
177
1
178
1
143
1.0
179
1
  8

270
1
271
1
272
1
145
1.0
146
1.0
273
1
  9

274
1
275
1
276
1
 42
1.0
 72
1
  3

 73
1
 74
1
 75
1
 94
63
  0
MLINESTYLE
  5
22
102
{ACAD_REACTORS
330
10
102
}
330
10
100
AcDbMlineStyle
  2
Standard
 70
0
  3

 62
256
 51
90.0
 52
90.0
 71
2
 49
0.5
 62
256
  6
BYLAYER
 49
-0.5
 62
256
  6
BYLAYER
  0
MLEADERSTYLE
  5
2C
102
{ACAD_REACTORS
330
F
102
}
330
F
100
AcDbMLeaderStyle
179
2
170
2
171
1
172
0
 90
2
 40
0.0
 41
0.0
173
1
 91
-1056964608
 92
-2
290
1
 42
2.0
291
1
 43
8.0
  3
Standard
 44
4.0
300

342
29
174
1
175
1
176
0
178
1
 93
-1056964608
 45
4.0
292
0
297
0
 46
4.0
 94
-1056964608
 47
1.0
 49
1.0
140
1.0
294
1
141
0.0
177
0
142
1.0
295
0
296
0
143
3.75
271
0
272
9
273
9
  0
DICTIONARY
  5
2D
330
A
100
AcDbDictionary
280
1
281
1
  3
CREATED_BY_EZDXF
350
2E
  3
WRITTEN_BY_EZDXF
350
3B
  0
DICTIONARYVAR
  5
2E
330
2D
100
DictionaryVariables
280
0
  1
1.4.4 @ 2026-07-24T05:49:51.111981+00:00
  0
DICTIONARYVAR
  5
3B
330
2D
100
DictionaryVariables
280
0
  1
1.4.4 @ 2026-07-24T05:49:51.123385+00:00
  0
ENDSEC
  0
EOF
