  0
SECTION
  2
HEADER
  9
$ACADVER
  1
AC1024
  9
$ACADMAINTVER
 70
6
  9
$DWGCODEPAGE
  3
ANSI_1252
  9
$LASTSAVEDBY
  1
ezdxf
  9
$INSBASE
 10
0.0
 20
0.0
 30
0.0
  9
$EXTMIN
 10
1e+20
 20
1e+20
 30
1e+20
  9
$EXTMAX
 10
-1e+20
 20
-1e+20
 30
-1e+20
  9
$LIMMIN
 10
0.0
 20
0.0
  9
$LIMMAX
 10
420.0
 20
297.0
  9
$ORTHOMODE
 70
0
  9
$REGENMODE
 70
1
  9
$FILLMODE
 70
1
  9
$QTEXTMODE
 70
0
  9
$MIRRTEXT
 70
1
  9
$LTSCALE
 40
1.0
  9
$ATTMODE
 70
1
  9
$TEXTSIZE
 40
2.5
  9
$TRACEWID
 40
1.0
  9
$TEXTSTYLE
  7
Standard
  9
$CLAYER
  8
0
  9
$CELTYPE
  6
ByLayer
  9
$CECOLOR
 62
256
  9
$CELTSCALE
 40
1.0
  9
$DISPSILH
 70
0
  9
$DIMSCALE
 40
1.0
  9
$DIMASZ
 40
2.5
  9
$DIMEXO
 40
0.625
  9
$DIMDLI
 40
3.75
  9
$DIMRND
 40
0.0
  9
$DIMDLE
 40
0.0
  9
$DIMEXE
 40
1.25
  9
$DIMTP
 40
0.0
  9
$DIMTM
 40
0.0
  9
$DIMTXT
 40
2.5
  9
$DIMCEN
 40
2.5
  9
$DIMTSZ
 40
0.0
  9
$DIMTOL
 70
0
  9
$DIMLIM
 70
0
  9
$DIMTIH
 70
0
  9
$DIMTOH
 70
0
  9
$DIMSE1
 70
0
  9
$DIMSE2
 70
0
  9
$DIMTAD
 70
1
  9
$DIMZIN
 70
8
  9
$DIMBLK
  1

  9
$DIMASO
 70
1
  9
$DIMSHO
 70
1
  9
$DIMPOST
  1

  9
$DIMAPOST
  1

  9
$DIMALT
 70
0
  9
$DIMALTD
 70
3
  9
$DIMALTF
 40
0.03937007874
  9
$DIMLFAC
 40
1.0
  9
$DIMTOFL
 70
1
  9
$DIMTVP
 40
0.0
  9
$DIMTIX
 70
0
  9
$DIMSOXD
 70
0
  9
$DIMSAH
 70
0
  9
$DIMBLK1
  1

  9
$DIMBLK2
  1

  9
$DIMSTYLE
  2
ISO-25
  9
$DIMCLRD
 70
0
  9
$DIMCLRE
 70
0
  9
$DIMCLRT
 70
0
  9
$DIMTFAC
 40
1.0
  9
$DIMGAP
 40
0.625
  9
$DIMJUST
 70
0
  9
$DIMSD1
 70
0
  9
$DIMSD2
 70
0
  9
$DIMTOLJ
 70
0
  9
$DIMTZIN
 70
8
  9
$DIMALTZ
 70
0
  9
$DIMALTTZ
 70
0
  9
$DIMUPT
 70
0
  9
$DIMDEC
 70
2
  9
$DIMTDEC
 70
2
  9
$DIMALTU
 70
2
  9
$DIMALTTD
 70
3
  9
$DIMTXSTY
  7
Standard
  9
$DIMAUNIT
 70
0
  9
$DIMADEC
 70
0
  9
$DIMALTRND
 40
0.0
  9
$DIMAZIN
 70
0
  9
$DIMDSEP
 70
44
  9
$DIMATFIT
 70
3
  9
$DIMFRAC
 70
0
  9
$DIMLDRBLK
  1

  9
$DIMLUNIT
 70
2
  9
$DIMLWD
 70
-2
  9
$DIMLWE
 70
-2
  9
$DIMTMOVE
 70
0
  9
$DIMFXL
 40
1.0
  9
$DIMFXLON
 70
0
  9
$DIMJOGANG
 40
0.785398163397
  9
$DIMTFILL
 70
0
  9
$DIMTFILLCLR
 70
0
  9
$DIMARCSYM
 70
0
  9
$DIMLTYPE
  6

  9
$DIMLTEX1
  6

  9
$DIMLTEX2
  6

  9
$DIMTXTDIRECTION
 70
0
  9
$LUNITS
 70
2
  9
$LUPREC
 70
4
  9
$SKETCHINC
 40
1.0
  9
$FILLETRAD
 40
10.0
  9
$AUNITS
 70
0
  9
$AUPREC
 70
2
  9
$MENU
  1
.
  9
$ELEVATION
 40
0.0
  9
$PELEVATION
 40
0.0
  9
$THICKNESS
 40
0.0
  9
$LIMCHECK
 70
0
  9
$CHAMFERA
 40
0.0
  9
$CHAMFERB
 40
0.0
  9
$CHAMFERC
 40
0.0
  9
$CHAMFERD
 40
0.0
  9
$SKPOLY
 70
0
  9
$TDCREATE
 40
2461240.8598495373
  9
$TDUCREATE
 40
2458532.153996898
  9
$TDUPDATE
 40
2461240.8598495373
  9
$TDUUPDATE
 40
2458532.1544311
  9
$TDINDWG
 40
0.0
  9
$TDUSRTIMER
 40
0.0
  9
$USRTIMER
 70
1
  9
$ANGBASE
 50
0.0
  9
$ANGDIR
 70
0
  9
$PDMODE
 70
0
  9
$PDSIZE
 40
0.0
  9
$PLINEWID
 40
0.0
  9
$SPLFRAME
 70
0
  9
$SPLINETYPE
 70
6
  9
$SPLINESEGS
 70
8
  9
$HANDSEED
  5
42
  9
$SURFTAB1
 70
6
  9
$SURFTAB2
 70
6
  9
$SURFTYPE
 70
6
  9
$SURFU
 70
6
  9
$SURFV
 70
6
  9
$UCSBASE
  2

  9
$UCSNAME
  2

  9
$UCSORG
 10
0.0
 20
0.0
 30
0.0
  9
$UCSXDIR
 10
1.0
 20
0.0
 30
0.0
  9
$UCSYDIR
 10
0.0
 20
1.0
 30
0.0
  9
$UCSORTHOREF
  2

  9
$UCSORTHOVIEW
 70
0
  9
$UCSORGTOP
 10
0.0
 20
0.0
 30
0.0
  9
$UCSORGBOTTOM
 10
0.0
 20
0.0
 30
0.0
  9
$UCSORGLEFT
 10
0.0
 20
0.0
 30
0.0
  9
$UCSORGRIGHT
 10
0.0
 20
0.0
 30
0.0
  9
$UCSORGFRONT
 10
0.0
 20
0.0
 30
0.0
  9
$UCSORGBACK
 10
0.0
 20
0.0
 30
0.0
  9
$PUCSBASE
  2

  9
$PUCSNAME
  2

  9
$PUCSORG
 10
0.0
 20
0.0
 30
0.0
  9
$PUCSXDIR
 10
1.0
 20
0.0
 30
0.0
  9
$PUCSYDIR
 10
0.0
 20
1.0
 30
0.0
  9
$PUCSORTHOREF
  2

  9
$PUCSORTHOVIEW
 70
0
  9
$PUCSORGTOP
 10
0.0
 20
0.0
 30
0.0
  9
$PUCSORGBOTTOM
 10
0.0
 20
0.0
 30
0.0
  9
$PUCSORGLEFT
 10
0.0
 20
0.0
 30
0.0
  9
$PUCSORGRIGHT
 10
0.0
 20
0.0
 30
0.0
  9
$PUCSORGFRONT
 10
0.0
 20
0.0
 30
0.0
  9
$PUCSORGBACK
 10
0.0
 20
0.0
 30
0.0
  9
$USERI1
 70
0
  9
$USERI2
 70
0
  9
$USERI3
 70
0
  9
$USERI4
 70
0
  9
$USERI5
 70
0
  9
$USERR1
 40
0.0
  9
$USERR2
 40
0.0
  9
$USERR3
 40
0.0
  9
$USERR4
 40
0.0
  9
$USERR5
 40
0.0
  9
$WORLDVIEW
 70
1
  9
$SHADEDGE
 70
3
  9
$SHADEDIF
 70
70
  9
$TILEMODE
 70
1
  9
$MAXACTVP
 70
64
  9
$PINSBASE
 10
0.0
 20
0.0
 30
0.0
  9
$PLIMCHECK
 70
0
  9
$PEXTMIN
 10
1e+20
 20
1e+20
 30
1e+20
  9
$PEXTMAX
 10
-1e+20
 20
-1e+20
 30
-1e+20
  9
$PLIMMIN
 10
0.0
 20
0.0
  9
$PLIMMAX
 10
420.0
 20
297.0
  9
$UNITMODE
 70
0
  9
$VISRETAIN
 70
1
  9
$PLINEGEN
 70
0
  9
$PSLTSCALE
 70
1
  9
$TREEDEPTH
 70
3020
  9
$CMLSTYLE
  2
Standard
  9
$CMLJUST
 70
0
  9
$CMLSCALE
 40
20.0
  9
$PROXYGRAPHICS
 70
1
  9
$MEASUREMENT
 70
1
  9
$CELWEIGHT
370
-1
  9
$ENDCAPS
280
0
  9
$JOINSTYLE
280
0
  9
$LWDISPLAY
290
0
  9
$INSUNITS
 70
6
  9
$HYPERLINKBASE
  1

  9
$STYLESHEET
  1

  9
$XEDIT
290
1
  9
$CEPSNTYPE
380
0
  9
$PSTYLEMODE
290
1
  9
$FINGERPRINTGUID
  2
{E9B17A9B-F5AF-4D5C-8561-ED599F3CB9B0}
  9
$VERSIONGUID
  2
{40E4879E-BA0A-498A-8CAD-FBBC62F7E896}
  9
$EXTNAMES
290
1
  9
$PSVPSCALE
 40
0.0
  9
$OLESTARTUP
290
0
  9
$SORTENTS
280
127
  9
$INDEXCTL
280
0
  9
$HIDETEXT
280
1
  9
$XCLIPFRAME
280
1
  9
$HALOGAP
280
0
  9
$OBSCOLOR
 70
257
  9
$OBSLTYPE
280
0
  9
$INTERSECTIONDISPLAY
280
0
  9
$INTERSECTIONCOLOR
 70
257
  9
$DIMASSOC
280
2
  9
$PROJECTNAME
  1

  9
$CAMERADISPLAY
290
0
  9
$LENSLENGTH
 40
50.0
  9
$CAMERAHEIGHT
 40
0.0
  9
$STEPSPERSEC
 40
24.0
  9
$STEPSIZE
 40
100.0
  9
$3DDWFPREC
 40
2.0
  9
$PSOLWIDTH
 40
0.005
  9
$PSOLHEIGHT
 40
0.08
  9
$LOFTANG1
 40
1.570796326795
  9
$LOFTANG2
 40
1.570796326795
  9
$LOFTMAG1
 40
0.0
  9
$LOFTMAG2
 40
0.0
  9
$LOFTPARAM
 70
7
  9
$LOFTNORMALS
280
1
  9
$LATITUDE
 40
37.795
  9
$LONGITUDE
 40
-122.394
  9
$NORTHDIRECTION
 40
0.0
  9
$TIMEZONE
 70
-8000
  9
$LIGHTGLYPHDISPLAY
280
1
  9
$TILEMODELIGHTSYNCH
280
1
  9
$CMATERIAL
347
20
  9
$SOLIDHIST
280
0
  9
$SHOWHIST
280
1
  9
$DWFFRAME
280
2
  9
$DGNFRAME
280
2
  9
$REALWORLDSCALE
290
1
  9
$INTERFERECOLOR
 62
256
  9
$CSHADOW
280
0
  9
$SHADOWPLANELOCATION
 40
0.0
  0
ENDSEC
  0
SECTION
  2
CLASSES
  0
CLASS
  1
ACDBDICTIONARYWDFLT
  2
AcDbDictionaryWithDefault
  3
ObjectDBX Classes
 90
0
 91
0
280
0
281
0
  0
CLASS
  1
SUN
  2
AcDbSun
  3
SCENEOE
 90
1153
 91
0
280
0
281
0
  0
CLASS
  1
VISUALSTYLE
  2
AcDbVisualStyle
  3
ObjectDBX Classes
 90
4095
 91
0
280
0
281
0
  0
CLASS
  1
MATERIAL
  2
AcDbMaterial
  3
ObjectDBX Classes
 90
1153
 91
0
280
0
281
0
  0
CLASS
  1
SCALE
  2
AcDbScale
  3
ObjectDBX Classes
 90
1153
 91
0
280
0
281
0
  0
CLASS
  1
TABLESTYLE
  2
AcDbTableStyle
  3
ObjectDBX Classes
 90
4095
 91
0
280
0
281
0
  0
CLASS
  1
MLEADERSTYLE
  2
AcDbMLeaderStyle
  3
ACDB_MLEADERSTYLE_CLASS
 90
4095
 91
0
280
0
281
0
  0
CLASS
  1
DICTIONARYVAR
  2
AcDbDictionaryVar
  3
ObjectDBX Classes
 90
0
 91
0
280
0
281
0
  0
CLASS
  1
CELLSTYLEMAP
  2
AcDbCellStyleMap
  3
ObjectDBX Classes
 90
1152
 91
0
280
0
281
0
  0
CLASS
  1
MENTALRAYRENDERSETTINGS
  2
AcDbMentalRayRenderSettings
  3
SCENEOE
 90
1024
 91
0
280
0
281
0
  0
CLASS
  1
ACDBDETAILVIEWSTYLE
  2
AcDbDetailViewStyle
  3
ObjectDBX Classes
 90
1025
 91
0
280
0
281
0
  0
CLASS
  1
ACDBSECTIONVIEWSTYLE
  2
AcDbSectionViewStyle
  3
ObjectDBX Classes
 90
1025
 91
0
280
0
281
0
  0
CLASS
  1
RASTERVARIABLES
  2
AcDbRasterVariables
  3
ISM
 90
0
 91
0
280
0
281
0
  0
CLASS
  1
LAYOUT
  2
AcDbLayout
  3
ObjectDBX Classes
 90
0
 91
0
280
0
281
0
  0
CLASS
  1
ACDBPLACEHOLDER
  2
AcDbPlaceHolder
  3
ObjectDBX Classes
 90
0
 91
0
280
0
281
0
  0
ENDSEC
  0
SECTION
  2
TABLES
  0
TABLE
  2
VPORT
  5
8
330
0
100
AcDbSymbolTable
 70
1
  0
VPORT
  5
23
330
8
100
AcDbSymbolTableRecord
100
AcDbViewportTableRecord
  2
*Active
 70
0
 10
0.0
 20
0.0
 11
1.0
 21
1.0
 12
0.0
 22
0.0
 13
0.0
 23
0.0
 14
0.5
 24
0.5
 15
0.5
 25
0.5
 16
0.0
 26
0.0
 36
1.0
 17
0.0
 27
0.0
 37
0.0
 40
1000.0
 41
1.34
 42
50.0
 43
0.0
 44
0.0
 50
0.0
 51
0.0
 71
0
 72
1000
 73
1
 74
3
 75
0
 76
0
 77
0
 78
0
281
0
 65
0
146
0.0
  0
ENDTAB
  0
TABLE
  2
LTYPE
  5
2
330
0
100
AcDbSymbolTable
 70
3
  0
LTYPE
  5
24
330
2
100
AcDbSymbolTableRecord
100
AcDbLinetypeTableRecord
  2
ByBlock
 70
0
  3

 72
65
 73
0
 40
0.0
  0
LTYPE
  5
25
330
2
100
AcDbSymbolTableRecord
100
AcDbLinetypeTableRecord
  2
ByLayer
 70
0
  3

 72
65
 73
0
 40
0.0
  0
LTYPE
  5
26
330
2
100
AcDbSymbolTableRecord
100
AcDbLinetypeTableRecord
  2
Continuous
 70
0
  3

 72
65
 73
0
 40
0.0
  0
ENDTAB
  0
TABLE
  2
LAYER
  5
1
330
0
100
AcDbSymbolTable
 70
4
  0
LAYER
  5
27
330
1
100
AcDbSymbolTableRecord
100
AcDbLayerTableRecord
  2
0
 70
0
 62
7
  6
Continuous
370
-3
390
13
347
21
  0
LAYER
  5
28
330
1
100
AcDbSymbolTableRecord
100
AcDbLayerTableRecord
  2
Defpoints
 70
0
 62
7
  6
Continuous
290
0
370
-3
390
13
347
21
  0
LAYER
  5
2F
330
1
100
AcDbSymbolTableRecord
100
AcDbLayerTableRecord
  2
CUT
 70
0
 62
3
  6
Continuous
370
-3
390
13
347
21
  0
LAYER
  5
30
330
1
100
AcDbSymbolTableRecord
100
AcDbLayerTableRecord
  2
FOLD
 70
0
 62
1
  6
DASHED
370
-3
390
13
347
21
  0
ENDTAB
  0
TABLE
  2
STYLE
  5
5
330
0
100
AcDbSymbolTable
 70
1
  0
STYLE
  5
29
330
5
100
AcDbSymbolTableRecord
100
AcDbTextStyleTableRecord
  2
Standard
 70
0
 40
0.0
 41
1.0
 50
0.0
 71
0
 42
2.5
  3
txt
  4

  0
ENDTAB
  0
TABLE
  2
VIEW
  5
7
330
0
100
AcDbSymbolTable
 70
0
  0
ENDTAB
  0
TABLE
  2
UCS
  5
6
330
0
100
AcDbSymbolTable
 70
0
  0
ENDTAB
  0
TABLE
  2
APPID
  5
3
330
0
100
AcDbSymbolTable
 70
3
  0
APPID
  5
2A
330
3
100
AcDbSymbolTableRecord
100
AcDbRegAppTableRecord
  2
ACAD
 70
0
  0
APPID
  5
3F
330
3
100
AcDbSymbolTableRecord
100
AcDbRegAppTableRecord
  2
HATCHBACKGROUNDCOLOR
 70
0
  0
APPID
  5
40
330
3
100
AcDbSymbolTableRecord
100
AcDbRegAppTableRecord
  2
EZDXF
 70
0
  0
ENDTAB
  0
TABLE
  2
DIMSTYLE
  5
4
330
0
100
AcDbSymbolTable
 70
1
100
AcDbDimStyleTable
  0
DIMSTYLE
105
2B
330
4
100
AcDbSymbolTableRecord
100
AcDbDimStyleTableRecord
  2
Standard
 70
0
 40
1.0
 41
2.5
 42
0.625
 43
3.75
 44
1.25
 45
0.0
 46
0.0
 47
0.0
 48
0.0
 49
2.5
140
2.5
141
2.5
142
0.0
143
0.03937007874
144
1.0
145
0.0
146
1.0
147
0.625
148
0.0
 69
0
 70
0
 71
0
 72
0
 73
0
 74
0
 75
0
 76
0
 77
1
 78
8
 79
3
170
0
171
3
172
1
173
0
174
0
175
0
176
0
177
0
178
0
179
2
271
2
272
2
273
2
274
3
275
0
276
0
277
2
278
44
279
0
280
0
281
0
282
0
283
0
284
8
285
0
286
0
288
0
289
3
290
0
371
-2
372
-2
  0
ENDTAB
  0
TABLE
  2
BLOCK_RECORD
  5
9
330
0
100
AcDbSymbolTable
 70
2
  0
BLOCK_RECORD
  5
17
330
9
100
AcDbSymbolTableRecord
100
AcDbBlockTableRecord
  2
*Model_Space
340
1A
 70
0
280
1
281
0
  0
BLOCK_RECORD
  5
1B
330
9
100
AcDbSymbolTableRecord
100
AcDbBlockTableRecord
  2
*Paper_Space
340
1E
 70
0
280
1
281
0
  0
ENDTAB
  0
ENDSEC
  0
SECTION
  2
BLOCKS
  0
BLOCK
  5
18
330
17
100
AcDbEntity
  8
0
100
AcDbBlockBegin
  2
*Model_Space
 70
0
 10
0.0
 20
0.0
 30
0.0
  3
*Model_Space
  1

  0
ENDBLK
  5
19
330
17
100
AcDbEntity
  8
0
100
AcDbBlockEnd
  0
BLOCK
  5
1C
330
1B
100
AcDbEntity
  8
0
100
AcDbBlockBegin
  2
*Paper_Space
 70
0
 10
0.0
 20
0.0
 30
0.0
  3
*Paper_Space
  1

  0
ENDBLK
  5
1D
330
1B
100
AcDbEntity
  8
0
100
AcDbBlockEnd
  0
ENDSEC
  0
SECTION
  2
ENTITIES
  0
LWPOLYLINE
  5
31
330
17
100
AcDbEntity
  8
CUT
100
AcDbPolyline
 90
129
 70
0
 10
114.506
 20
17.5
 10
116.169
 20
14.236
 10
117.482
 20
10.816
 10
118.43
 20
7.277
 10
119.003
 20
3.658
 10
119.195
 20
0.0
 10
119.003
 20
-3.658
 10
118.43
 20
-7.277
 10
117.482
 20
-10.816
 10
116.169
 20
-14.236
 10
114.506
 20
-17.5
 10
112.51
 20
-20.572
 10
110.205
 20
-23.42
 10
107.614
 20
-26.01
 10
104.767
 20
-28.316
 10
101.695
 20
-30.311
 10
98.43
 20
-31.974
 10
95.01
 20
-33.287
 10
91.472
 20
-34.235
 10
87.853
 20
-34.808
 10
84.195
 20
-35.0
 10
20.0
 20
-35.0
 10
19.035
 20
-33.793
 10
17.997
 20
-32.648
 10
16.891
 20
-31.569
 10
15.72
 20
-30.561
 10
14.489
 20
-29.627
 10
13.203
 20
-28.771
 10
11.866
 20
-27.996
 10
10.484
 20
-27.304
 10
9.062
 20
-26.7
 10
7.605
 20
-26.185
 10
6.119
 20
-25.76
 10
4.61
 20
-25.429
 10
3.083
 20
-25.191
 10
1.545
 20
-25.048
 10
0.0
 20
-25.0
 10
-1.545
 20
-25.048
 10
-3.083
 20
-25.191
 10
-4.61
 20
-25.429
 10
-6.119
 20
-25.76
 10
-7.605
 20
-26.185
 10
-9.062
 20
-26.7
 10
-10.484
 20
-27.304
 10
-11.866
 20
-27.996
 10
-13.203
 20
-28.771
 10
-14.489
 20
-29.627
 10
-15.72
 20
-30.561
 10
-16.891
 20
-31.569
 10
-17.997
 20
-32.648
 10
-19.035
 20
-33.793
 10
-20.0
 20
-35.0
 10
-109.195
 20
-35.0
 10
-109.195
 20
-7.5
 10
-74.195
 20
-7.5
 10
-73.411
 20
-7.459
 10
-72.635
 20
-7.336
 10
-71.877
 20
-7.133
 10
-71.144
 20
-6.852
 10
-70.445
 20
-6.495
 10
-69.786
 20
-6.068
 10
-69.176
 20
-5.574
 10
-68.621
 20
-5.018
 10
-68.127
 20
-4.408
 10
-67.699
 20
-3.75
 10
-67.343
 20
-3.051
 10
-67.062
 20
-2.318
 10
-66.859
 20
-1.559
 10
-66.736
 20
-0.784
 10
-66.695
 20
0.0
 10
-66.736
 20
0.784
 10
-66.859
 20
1.559
 10
-67.062
 20
2.318
 10
-67.343
 20
3.051
 10
-67.699
 20
3.75
 10
-68.127
 20
4.408
 10
-68.621
 20
5.018
 10
-69.176
 20
5.574
 10
-69.786
 20
6.068
 10
-70.445
 20
6.495
 10
-71.144
 20
6.852
 10
-71.877
 20
7.133
 10
-72.635
 20
7.336
 10
-73.411
 20
7.459
 10
-74.195
 20
7.5
 10
-109.195
 20
7.5
 10
-109.195
 20
35.0
 10
-20.0
 20
35.0
 10
-19.035
 20
33.793
 10
-17.997
 20
32.648
 10
-16.891
 20
31.569
 10
-15.72
 20
30.561
 10
-14.489
 20
29.627
 10
-13.203
 20
28.771
 10
-11.866
 20
27.996
 10
-10.484
 20
27.304
 10
-9.062
 20
26.7
 10
-7.605
 20
26.185
 10
-6.119
 20
25.76
 10
-4.61
 20
25.429
 10
-3.083
 20
25.191
 10
-1.545
 20
25.048
 10
0.0
 20
25.0
 10
1.545
 20
25.048
 10
3.083
 20
25.191
 10
4.61
 20
25.429
 10
6.119
 20
25.76
 10
7.605
 20
26.185
 10
9.062
 20
26.7
 10
10.484
 20
27.304
 10
11.866
 20
27.996
 10
13.203
 20
28.771
 10
14.489
 20
29.627
 10
15.72
 20
30.561
 10
16.891
 20
31.569
 10
17.997
 20
32.648
 10
19.035
 20
33.793
 10
20.0
 20
35.0
 10
84.195
 20
35.0
 10
87.853
 20
34.808
 10
91.472
 20
34.235
 10
95.01
 20
33.287
 10
98.43
 20
31.974
 10
101.695
 20
30.311
 10
104.767
 20
28.316
 10
107.614
 20
26.01
 10
110.205
 20
23.42
 10
112.51
 20
20.572
 10
114.506
 20
17.5
  0
LWPOLYLINE
  5
32
330
17
100
AcDbEntity
  8
CUT
100
AcDbPolyline
 90
63
 70
0
 10
-14.804
 20
-3.0
 10
-14.519
 20
-2.44
 10
-14.294
 20
-1.854
 10
-14.131
 20
-1.247
 10
-14.033
 20
-0.627
 10
-14.0
 20
0.0
 10
-14.033
 20
0.627
 10
-14.131
 20
1.247
 10
-14.294
 20
1.854
 10
-14.519
 20
2.44
 10
-14.804
 20
3.0
 10
-15.146
 20
3.527
 10
-15.541
 20
4.015
 10
-15.985
 20
4.459
 10
-16.473
 20
4.854
 10
-17.0
 20
5.196
 10
-17.56
 20
5.481
 10
-18.146
 20
5.706
 10
-18.753
 20
5.869
 10
-19.373
 20
5.967
 10
-20.0
 20
6.0
 10
-40.0
 20
6.0
 10
-40.627
 20
5.967
 10
-41.247
 20
5.869
 10
-41.854
 20
5.706
 10
-42.44
 20
5.481
 10
-43.0
 20
5.196
 10
-43.527
 20
4.854
 10
-44.015
 20
4.459
 10
-44.459
 20
4.015
 10
-44.854
 20
3.527
 10
-45.196
 20
3.0
 10
-45.481
 20
2.44
 10
-45.706
 20
1.854
 10
-45.869
 20
1.247
 10
-45.967
 20
0.627
 10
-46.0
 20
0.0
 10
-45.967
 20
-0.627
 10
-45.869
 20
-1.247
 10
-45.706
 20
-1.854
 10
-45.481
 20
-2.44
 10
-45.196
 20
-3.0
 10
-44.854
 20
-3.527
 10
-44.459
 20
-4.015
 10
-44.015
 20
-4.459
 10
-43.527
 20
-4.854
 10
-43.0
 20
-5.196
 10
-42.44
 20
-5.481
 10
-41.854
 20
-5.706
 10
-41.247
 20
-5.869
 10
-40.627
 20
-5.967
 10
-40.0
 20
-6.0
 10
-20.0
 20
-6.0
 10
-19.373
 20
-5.967
 10
-18.753
 20
-5.869
 10
-18.146
 20
-5.706
 10
-17.56
 20
-5.481
 10
-17.0
 20
-5.196
 10
-16.473
 20
-4.854
 10
-15.985
 20
-4.459
 10
-15.541
 20
-4.015
 10
-15.146
 20
-3.527
 10
-14.804
 20
-3.0
  0
LWPOLYLINE
  5
33
330
17
100
AcDbEntity
  8
CUT
100
AcDbPolyline
 90
63
 70
0
 10
14.804
 20
3.0
 10
14.519
 20
2.44
 10
14.294
 20
1.854
 10
14.131
 20
1.247
 10
14.033
 20
0.627
 10
14.0
 20
0.0
 10
14.033
 20
-0.627
 10
14.131
 20
-1.247
 10
14.294
 20
-1.854
 10
14.519
 20
-2.44
 10
14.804
 20
-3.0
 10
15.146
 20
-3.527
 10
15.541
 20
-4.015
 10
15.985
 20
-4.459
 10
16.473
 20
-4.854
 10
17.0
 20
-5.196
 10
17.56
 20
-5.481
 10
18.146
 20
-5.706
 10
18.753
 20
-5.869
 10
19.373
 20
-5.967
 10
20.0
 20
-6.0
 10
40.0
 20
-6.0
 10
40.627
 20
-5.967
 10
41.247
 20
-5.869
 10
41.854
 20
-5.706
 10
42.44
 20
-5.481
 10
43.0
 20
-5.196
 10
43.527
 20
-4.854
 10
44.015
 20
-4.459
 10
44.459
 20
-4.015
 10
44.854
 20
-3.527
 10
45.196
 20
-3.0
 10
45.481
 20
-2.44
 10
45.706
 20
-1.854
 10
45.869
 20
-1.247
 10
45.967
 20
-0.627
 10
46.0
 20
0.0
 10
45.967
 20
0.627
 10
45.869
 20
1.247
 10
45.706
 20
1.854
 10
45.481
 20
2.44
 10
45.196
 20
3.0
 10
44.854
 20
3.527
 10
44.459
 20
4.015
 10
44.015
 20
4.459
 10
43.527
 20
4.854
 10
43.0
 20
5.196
 10
42.44
 20
5.481
 10
41.854
 20
5.706
 10
41.247
 20
5.869
 10
40.627
 20
5.967
 10
40.0
 20
6.0
 10
20.0
 20
6.0
 10
19.373
 20
5.967
 10
18.753
 20
5.869
 10
18.146
 20
5.706
 10
17.56
 20
5.481
 10
17.0
 20
5.196
 10
16.473
 20
4.854
 10
15.985
 20
4.459
 10
15.541
 20
4.015
 10
15.146
 20
3.527
 10
14.804
 20
3.0
  0
LWPOLYLINE
  5
34
330
17
100
AcDbEntity
  8
CUT
100
AcDbPolyline
 90
31
 70
0
 10
102.187
 20
2.229
 10
101.768
 20
1.763
 10
101.454
 20
1.22
 10
101.26
 20
0.624
 10
101.195
 20
0.0
 10
101.26
 20
-0.624
 10
101.454
 20
-1.22
 10
101.768
 20
-1.763
 10
102.187
 20
-2.229
 10
102.695
 20
-2.598
 10
103.268
 20
-2.853
 10
103.881
 20
-2.984
 10
104.508
 20
-2.984
 10
105.122
 20
-2.853
 10
105.695
 20
-2.598
 10
106.202
 20
-2.229
 10
106.622
 20
-1.763
 10
106.935
 20
-1.22
 10
107.129
 20
-0.624
 10
107.195
 20
0.0
 10
107.129
 20
0.624
 10
106.935
 20
1.22
 10
106.622
 20
1.763
 10
106.202
 20
2.229
 10
105.695
 20
2.598
 10
105.122
 20
2.853
 10
104.508
 20
2.984
 10
103.881
 20
2.984
 10
103.268
 20
2.853
 10
102.695
 20
2.598
 10
102.187
 20
2.229
  0
LWPOLYLINE
  5
35
330
17
100
AcDbEntity
  8
CUT
100
AcDbPolyline
 90
31
 70
0
 10
66.202
 20
-2.229
 10
66.622
 20
-1.763
 10
66.935
 20
-1.22
 10
67.129
 20
-0.624
 10
67.195
 20
-0.0
 10
67.129
 20
0.624
 10
66.935
 20
1.22
 10
66.622
 20
1.763
 10
66.202
 20
2.229
 10
65.695
 20
2.598
 10
65.122
 20
2.853
 10
64.508
 20
2.984
 10
63.881
 20
2.984
 10
63.268
 20
2.853
 10
62.695
 20
2.598
 10
62.187
 20
2.229
 10
61.768
 20
1.763
 10
61.454
 20
1.22
 10
61.26
 20
0.624
 10
61.195
 20
-0.0
 10
61.26
 20
-0.624
 10
61.454
 20
-1.22
 10
61.768
 20
-1.763
 10
62.187
 20
-2.229
 10
62.695
 20
-2.598
 10
63.268
 20
-2.853
 10
63.881
 20
-2.984
 10
64.508
 20
-2.984
 10
65.122
 20
-2.853
 10
65.695
 20
-2.598
 10
66.202
 20
-2.229
  0
LWPOLYLINE
  5
36
330
17
100
AcDbEntity
  8
CUT
100
AcDbPolyline
 90
31
 70
0
 10
82.187
 20
-17.771
 10
81.768
 20
-18.237
 10
81.454
 20
-18.78
 10
81.26
 20
-19.376
 10
81.195
 20
-20.0
 10
81.26
 20
-20.624
 10
81.454
 20
-21.22
 10
81.768
 20
-21.763
 10
82.187
 20
-22.229
 10
82.695
 20
-22.598
 10
83.268
 20
-22.853
 10
83.881
 20
-22.984
 10
84.508
 20
-22.984
 10
85.122
 20
-22.853
 10
85.695
 20
-22.598
 10
86.202
 20
-22.229
 10
86.622
 20
-21.763
 10
86.935
 20
-21.22
 10
87.129
 20
-20.624
 10
87.195
 20
-20.0
 10
87.129
 20
-19.376
 10
86.935
 20
-18.78
 10
86.622
 20
-18.237
 10
86.202
 20
-17.771
 10
85.695
 20
-17.402
 10
85.122
 20
-17.147
 10
84.508
 20
-17.016
 10
83.881
 20
-17.016
 10
83.268
 20
-17.147
 10
82.695
 20
-17.402
 10
82.187
 20
-17.771
  0
LWPOLYLINE
  5
37
330
17
100
AcDbEntity
  8
CUT
100
AcDbPolyline
 90
31
 70
0
 10
75.831
 20
9.289
 10
74.082
 20
7.347
 10
72.775
 20
5.084
 10
71.968
 20
2.599
 10
71.695
 20
0.0
 10
71.968
 20
-2.599
 10
72.775
 20
-5.084
 10
74.082
 20
-7.347
 10
75.831
 20
-9.289
 10
77.945
 20
-10.825
 10
80.332
 20
-11.888
 10
82.888
 20
-12.432
 10
85.501
 20
-12.432
 10
88.057
 20
-11.888
 10
90.445
 20
-10.825
 10
92.559
 20
-9.289
 10
94.307
 20
-7.347
 10
95.614
 20
-5.084
 10
96.422
 20
-2.599
 10
96.695
 20
0.0
 10
96.422
 20
2.599
 10
95.614
 20
5.084
 10
94.307
 20
7.347
 10
92.559
 20
9.289
 10
90.445
 20
10.825
 10
88.057
 20
11.888
 10
85.501
 20
12.432
 10
82.888
 20
12.432
 10
80.332
 20
11.888
 10
77.945
 20
10.825
 10
75.831
 20
9.289
  0
LWPOLYLINE
  5
38
330
17
100
AcDbEntity
  8
CUT
100
AcDbPolyline
 90
31
 70
0
 10
82.187
 20
22.229
 10
81.768
 20
21.763
 10
81.454
 20
21.22
 10
81.26
 20
20.624
 10
81.195
 20
20.0
 10
81.26
 20
19.376
 10
81.454
 20
18.78
 10
81.768
 20
18.237
 10
82.187
 20
17.771
 10
82.695
 20
17.402
 10
83.268
 20
17.147
 10
83.881
 20
17.016
 10
84.508
 20
17.016
 10
85.122
 20
17.147
 10
85.695
 20
17.402
 10
86.202
 20
17.771
 10
86.622
 20
18.237
 10
86.935
 20
18.78
 10
87.129
 20
19.376
 10
87.195
 20
20.0
 10
87.129
 20
20.624
 10
86.935
 20
21.22
 10
86.622
 20
21.763
 10
86.202
 20
22.229
 10
85.695
 20
22.598
 10
85.122
 20
22.853
 10
84.508
 20
22.984
 10
83.881
 20
22.984
 10
83.268
 20
22.853
 10
82.695
 20
22.598
 10
82.187
 20
22.229
  0
LWPOLYLINE
  5
39
330
17
100
AcDbEntity
  8
CUT
100
AcDbPolyline
 90
31
 70
0
 10
-101.202
 20
-22.771
 10
-101.622
 20
-23.237
 10
-101.935
 20
-23.78
 10
-102.129
 20
-24.376
 10
-102.195
 20
-25.0
 10
-102.129
 20
-25.624
 10
-101.935
 20
-26.22
 10
-101.622
 20
-26.763
 10
-101.202
 20
-27.229
 10
-100.695
 20
-27.598
 10
-100.122
 20
-27.853
 10
-99.508
 20
-27.984
 10
-98.881
 20
-27.984
 10
-98.268
 20
-27.853
 10
-97.695
 20
-27.598
 10
-97.187
 20
-27.229
 10
-96.768
 20
-26.763
 10
-96.454
 20
-26.22
 10
-96.26
 20
-25.624
 10
-96.195
 20
-25.0
 10
-96.26
 20
-24.376
 10
-96.454
 20
-23.78
 10
-96.768
 20
-23.237
 10
-97.187
 20
-22.771
 10
-97.695
 20
-22.402
 10
-98.268
 20
-22.147
 10
-98.881
 20
-22.016
 10
-99.508
 20
-22.016
 10
-100.122
 20
-22.147
 10
-100.695
 20
-22.402
 10
-101.202
 20
-22.771
  0
LWPOLYLINE
  5
3A
330
17
100
AcDbEntity
  8
CUT
100
AcDbPolyline
 90
31
 70
0
 10
-76.202
 20
-22.771
 10
-76.622
 20
-23.237
 10
-76.935
 20
-23.78
 10
-77.129
 20
-24.376
 10
-77.195
 20
-25.0
 10
-77.129
 20
-25.624
 10
-76.935
 20
-26.22
 10
-76.622
 20
-26.763
 10
-76.202
 20
-27.229
 10
-75.695
 20
-27.598
 10
-75.122
 20
-27.853
 10
-74.508
 20
-27.984
 10
-73.881
 20
-27.984
 10
-73.268
 20
-27.853
 10
-72.695
 20
-27.598
 10
-72.187
 20
-27.229
 10
-71.768
 20
-26.763
 10
-71.454
 20
-26.22
 10
-71.26
 20
-25.624
 10
-71.195
 20
-25.0
 10
-71.26
 20
-24.376
 10
-71.454
 20
-23.78
 10
-71.768
 20
-23.237
 10
-72.187
 20
-22.771
 10
-72.695
 20
-22.402
 10
-73.268
 20
-22.147
 10
-73.881
 20
-22.016
 10
-74.508
 20
-22.016
 10
-75.122
 20
-22.147
 10
-75.695
 20
-22.402
 10
-76.202
 20
-22.771
  0
LWPOLYLINE
  5
3B
330
17
100
AcDbEntity
  8
CUT
100
AcDbPolyline
 90
31
 70
0
 10
-76.202
 20
27.229
 10
-76.622
 20
26.763
 10
-76.935
 20
26.22
 10
-77.129
 20
25.624
 10
-77.195
 20
25.0
 10
-77.129
 20
24.376
 10
-76.935
 20
23.78
 10
-76.622
 20
23.237
 10
-76.202
 20
22.771
 10
-75.695
 20
22.402
 10
-75.122
 20
22.147
 10
-74.508
 20
22.016
 10
-73.881
 20
22.016
 10
-73.268
 20
22.147
 10
-72.695
 20
22.402
 10
-72.187
 20
22.771
 10
-71.768
 20
23.237
 10
-71.454
 20
23.78
 10
-71.26
 20
24.376
 10
-71.195
 20
25.0
 10
-71.26
 20
25.624
 10
-71.454
 20
26.22
 10
-71.768
 20
26.763
 10
-72.187
 20
27.229
 10
-72.695
 20
27.598
 10
-73.268
 20
27.853
 10
-73.881
 20
27.984
 10
-74.508
 20
27.984
 10
-75.122
 20
27.853
 10
-75.695
 20
27.598
 10
-76.202
 20
27.229
  0
LWPOLYLINE
  5
3C
330
17
100
AcDbEntity
  8
CUT
100
AcDbPolyline
 90
31
 70
0
 10
-101.202
 20
27.229
 10
-101.622
 20
26.763
 10
-101.935
 20
26.22
 10
-102.129
 20
25.624
 10
-102.195
 20
25.0
 10
-102.129
 20
24.376
 10
-101.935
 20
23.78
 10
-101.622
 20
23.237
 10
-101.202
 20
22.771
 10
-100.695
 20
22.402
 10
-100.122
 20
22.147
 10
-99.508
 20
22.016
 10
-98.881
 20
22.016
 10
-98.268
 20
22.147
 10
-97.695
 20
22.402
 10
-97.187
 20
22.771
 10
-96.768
 20
23.237
 10
-96.454
 20
23.78
 10
-96.26
 20
24.376
 10
-96.195
 20
25.0
 10
-96.26
 20
25.624
 10
-96.454
 20
26.22
 10
-96.768
 20
26.763
 10
-97.187
 20
27.229
 10
-97.695
 20
27.598
 10
-98.268
 20
27.853
 10
-98.881
 20
27.984
 10
-99.508
 20
27.984
 10
-100.122
 20
27.853
 10
-100.695
 20
27.598
 10
-101.202
 20
27.229
  0
LINE
  5
3D
330
17
100
AcDbEntity
  8
FOLD
  6
DASHED
100
AcDbLine
 10
-54.597344572538574
 20
-45.0
 30
0.0
 11
-54.597344572538574
 21
45.00000000000001
 31
0.0
  0
LINE
  5
3E
330
17
100
AcDbEntity
  8
FOLD
  6
DASHED
100
AcDbLine
 10
54.597344572538574
 20
45.0
 30
0.0
 11
54.597344572538574
 21
-45.00000000000001
 31
0.0
  0
ENDSEC
  0
SECTION
  2
OBJECTS
  0
DICTIONARY
  5
A
330
0
100
AcDbDictionary
281
1
  3
ACAD_COLOR
350
B
  3
ACAD_GROUP
350
C
  3
ACAD_LAYOUT
350
D
  3
ACAD_MATERIAL
350
E
  3
ACAD_MLEADERSTYLE
350
F
  3
ACAD_MLINESTYLE
350
10
  3
ACAD_PLOTSETTINGS
350
11
  3
ACAD_PLOTSTYLENAME
350
12
  3
ACAD_SCALELIST
350
14
  3
ACAD_TABLESTYLE
350
15
  3
ACAD_VISUALSTYLE
350
16
  3
EZDXF_META
350
2D
  0
DICTIONARY
  5
B
330
A
100
AcDbDictionary
281
1
  0
DICTIONARY
  5
C
330
A
100
AcDbDictionary
281
1
  0
DICTIONARY
  5
D
330
A
100
AcDbDictionary
281
1
  3
Model
350
1A
  3
Layout1
350
1E
  0
DICTIONARY
  5
E
330
A
100
AcDbDictionary
281
1
  3
ByBlock
350
1F
  3
ByLayer
350
20
  3
Global
350
21
  0
DICTIONARY
  5
F
330
A
100
AcDbDictionary
281
1
  3
Standard
350
2C
  0
DICTIONARY
  5
10
330
A
100
AcDbDictionary
281
1
  3
Standard
350
22
  0
DICTIONARY
  5
11
330
A
100
AcDbDictionary
281
1
  0
ACDBDICTIONARYWDFLT
  5
12
330
A
100
AcDbDictionary
281
1
  3
Normal
350
13
100
AcDbDictionaryWithDefault
340
13
  0
ACDBPLACEHOLDER
  5
13
330
12
  0
DICTIONARY
  5
14
330
A
100
AcDbDictionary
281
1
  0
DICTIONARY
  5
15
330
A
100
AcDbDictionary
281
1
  0
DICTIONARY
  5
16
330
A
100
AcDbDictionary
281
1
  0
LAYOUT
  5
1A
330
D
100
AcDbPlotSettings
  1

  4
A3
  6

 40
7.5
 41
20.0
 42
7.5
 43
20.0
 44
420.0
 45
297.0
 46
0.0
 47
0.0
 48
0.0
 49
0.0
140
0.0
141
0.0
142
1.0
143
1.0
 70
1024
 72
1
 73
0
 74
5
  7

 75
16
 76
0
 77
2
 78
300
147
1.0
148
0.0
149
0.0
100
AcDbLayout
  1
Model
 70
1
 71
0
 10
0.0
 20
0.0
 11
420.0
 21
297.0
 12
0.0
 22
0.0
 32
0.0
 14
1e+20
 24
1e+20
 34
1e+20
 15
-1e+20
 25
-1e+20
 35
-1e+20
146
0.0
 13
0.0
 23
0.0
 33
0.0
 16
1.0
 26
0.0
 36
0.0
 17
0.0
 27
1.0
 37
0.0
 76
1
330
17
  0
LAYOUT
  5
1E
330
D
100
AcDbPlotSettings
  1

  4
A3
  6

 40
7.5
 41
20.0
 42
7.5
 43
20.0
 44
420.0
 45
297.0
 46
0.0
 47
0.0
 48
0.0
 49
0.0
140
0.0
141
0.0
142
1.0
143
1.0
 70
0
 72
1
 73
0
 74
5
  7

 75
16
 76
0
 77
2
 78
300
147
1.0
148
0.0
149
0.0
100
AcDbLayout
  1
Layout1
 70
1
 71
1
 10
0.0
 20
0.0
 11
420.0
 21
297.0
 12
0.0
 22
0.0
 32
0.0
 14
1e+20
 24
1e+20
 34
1e+20
 15
-1e+20
 25
-1e+20
 35
-1e+20
146
0.0
 13
0.0
 23
0.0
 33
0.0
 16
1.0
 26
0.0
 36
0.0
 17
0.0
 27
1.0
 37
0.0
 76
1
330
1B
  0
MATERIAL
  5
1F
102
{ACAD_REACTORS
330
E
102
}
330
E
100
AcDbMaterial
  1
ByBlock
  2

 70
0
 40
1.0
 71
1
 41
1.0
 91
-1023410177
 42
1.0
 72
1
  3

 73
1
 74
1
 75
1
 44
0.5
 73
0
 45
1.0
 46
1.0
 77
1
  4

 78
1
 79
1
170
1
 48
1.0
171
1
  6

172
1
173
1
174
1
140
1.0
141
1.0
175
1
  7

176
1
177
1
178
1
143
1.0
179
1
  8

270
1
271
1
272
1
145
1.0
146
1.0
273
1
  9

274
1
275
1
276
1
 42
1.0
 72
1
  3

 73
1
 74
1
 75
1
 94
63
  0
MATERIAL
  5
20
102
{ACAD_REACTORS
330
E
102
}
330
E
100
AcDbMaterial
  1
ByLayer
  2

 70
0
 40
1.0
 71
1
 41
1.0
 91
-1023410177
 42
1.0
 72
1
  3

 73
1
 74
1
 75
1
 44
0.5
 73
0
 45
1.0
 46
1.0
 77
1
  4

 78
1
 79
1
170
1
 48
1.0
171
1
  6

172
1
173
1
174
1
140
1.0
141
1.0
175
1
  7

176
1
177
1
178
1
143
1.0
179
1
  8

270
1
271
1
272
1
145
1.0
146
1.0
273
1
  9

274
1
275
1
276
1
 42
1.0
 72
1
  3

 73
1
 74
1
 75
1
 94
63
  0
MATERIAL
  5
21
102
{ACAD_REACTORS
330
E
102
}
330
E
100
AcDbMaterial
  1
Global
  2

 70
0
 40
1.0
 71
1
 41
1.0
 91
-1023410177
 42
1.0
 72
1
  3

 73
1
 74
1
 75
1
 44
0.5
 73
0
 45
1.0
 46
1.0
 77
1
  4

 78
1
 79
1
170
1
 48
1.0
171
1
  6

172
1
173
1
174
1
140
1.0
141
1.0
175
1
  7

176
1
177
1
178
1
143
1.0
179
1
  8

270
1
271
1
272
1
145
1.0
146
1.0
273
1
  9

274
1
275
1
276
1
 42
1.0
 72
1
  3

 73
1
 74
1
 75
1
 94
63
  0
MLINESTYLE
  5
22
102
{ACAD_REACTORS
330
10
102
}
330
10
100
AcDbMlineStyle
  2
Standard
 70
0
  3

 62
256
 51
90.0
 52
90.0
 71
2
 49
0.5
 62
256
  6
BYLAYER
 49
-0.5
 62
256
  6
BYLAYER
  0
MLEADERSTYLE
  5
2C
102
{ACAD_REACTORS
330
F
102
}
330
F
100
AcDbMLeaderStyle
179
2
170
2
171
1
172
0
 90
2
 40
0.0
 41
0.0
173
1
 91
-1056964608
 92
-2
290
1
 42
2.0
291
1
 43
8.0
  3
Standard
 44
4.0
300

342
29
174
1
175
1
176
0
178
1
 93
-1056964608
 45
4.0
292
0
297
0
 46
4.0
 94
-1056964608
 47
1.0
 49
1.0
140
1.0
294
1
141
0.0
177
0
142
1.0
295
0
296
0
143
3.75
271
0
272
9
273
9
  0
DICTIONARY
  5
2D
330
A
100
AcDbDictionary
280
1
281
1
  3
CREATED_BY_EZDXF
350
2E
  3
WRITTEN_BY_EZDXF
350
41
  0
DICTIONARYVAR
  5
2E
330
2D
100
DictionaryVariables
280
0
  1
1.4.4 @ 2026-07-18T15:08:11.834110+00:00
  0
DICTIONARYVAR
  5
41
330
2D
100
DictionaryVariables
280
0
  1
1.4.4 @ 2026-07-18T15:08:11.842197+00:00
  0
ENDSEC
  0
EOF
