<svg viewBox="-121.02884828985873 -47.4571680263508 252.05769657971746 94.91433605270163" width="100%" height="100%" xmlns="http://www.w3.org/2000/svg">
  <style>
    svg { background: #08080C; }
    .cut { stroke: #00A3FF; stroke-width: 1.5; fill: none; stroke-linecap: round; stroke-linejoin: round; }
    .fold { stroke: #FFB300; stroke-width: 1.2; stroke-dasharray: 4,4; fill: none; }
  </style>
  <g transform="scale(1, -1) translate(0, 11.457168026350764)">
    <line x1="-39.99999999999999" y1="-5.999999999999991" x2="-19.999999999999996" y2="-5.999999999999991" class="cut" />
    <polyline points="-19.999999999999996,6.000000000000009 -19.372829220394074,5.967131372209648 -18.752529855093442,5.868885604402843 -18.145898033750314,5.70633909777093 -17.559580141545197,5.481272745855614 -16.999999999999996,5.196152422706641 -16.473288486245156,4.854101966249694 -15.985216361846847,4.458868952864375 -15.541131047135632,4.014783638153158 -15.145898033750312,3.5267115137548473 -14.803847577293364,3.0000000000000093 -14.518727254144391,2.4404198584548107 -14.293660902229075,1.8541019662496931 -14.131114395597162,1.247470144906564 -14.032868627790357,0.6271707796059292 -13.999999999999996,8.811359939462174e-15 -14.032868627790357,-0.6271707796059116 -14.131114395597162,-1.2474701449065462 -14.293660902229075,-1.8541019662496756 -14.518727254144391,-2.440419858454792 -14.803847577293364,-2.9999999999999902 -15.145898033750312,-3.52671151375483 -15.541131047135629,-4.014783638153139 -15.985216361846849,-4.458868952864357 -16.473288486245156,-4.854101966249675 -16.999999999999996,-5.196152422706623 -17.559580141545197,-5.4812727458555965 -18.14589803375031,-5.706339097770912 -18.752529855093442,-5.868885604402825 -19.372829220394074,-5.96713137220963 -19.999999999999996,-5.999999999999991" class="cut" />
    <line x1="-19.999999999999996" y1="6.000000000000009" x2="-39.99999999999999" y2="6.000000000000009" class="cut" />
    <polyline points="-39.99999999999999,6.000000000000007 -40.62717077960591,5.967131372209647 -41.24747014490655,5.868885604402841 -41.85410196624968,5.706339097770929 -42.440419858454796,5.481272745855613 -42.99999999999999,5.19615242270664 -43.52671151375483,4.854101966249692 -44.01478363815314,4.458868952864373 -44.45886895286436,4.014783638153157 -44.85410196624967,3.526711513754847 -45.196152422706625,3.0000000000000093 -45.4812727458556,2.4404198584548102 -45.706339097770915,1.854101966249693 -45.86888560440283,1.247470144906564 -45.96713137220963,0.627170779605928 -45.99999999999999,9.17875397920638e-15 -45.96713137220963,-0.6271707796059097 -45.86888560440283,-1.2474701449065455 -45.706339097770915,-1.8541019662496747 -45.4812727458556,-2.44041985845479 -45.196152422706625,-2.999999999999989 -44.85410196624967,-3.5267115137548286 -44.45886895286436,-4.014783638153137 -44.01478363815314,-4.458868952864356 -43.52671151375483,-4.854101966249674 -42.99999999999999,-5.196152422706622 -42.440419858454796,-5.481272745855596 -41.85410196624968,-5.70633909777091 -41.24747014490654,-5.8688856044028235 -40.62717077960592,-5.9671313722096295 -39.99999999999999,-5.999999999999989" class="cut" />
    <line x1="39.99999999999998" y1="6.000000000000016" x2="19.999999999999996" y2="6.000000000000016" class="cut" />
    <polyline points="19.999999999999996,6.000000000000015 19.372829220394078,5.967131372209655 18.75252985509344,5.868885604402848 18.145898033750314,5.706339097770937 17.559580141545197,5.481272745855621 16.999999999999996,5.196152422706647 16.47328848624516,4.854101966249701 15.985216361846849,4.458868952864383 15.54113104713563,4.014783638153164 15.145898033750314,3.5267115137548557 14.803847577293366,3.000000000000018 14.518727254144393,2.440419858454821 14.293660902229075,1.8541019662497014 14.131114395597162,1.2474701449065693 14.032868627790357,0.6271707796059359 13.999999999999996,1.6852435962602022e-14 14.032868627790357,-0.6271707796059022 14.131114395597162,-1.2474701449065357 14.293660902229075,-1.8541019662496676 14.518727254144391,-2.4404198584547827 14.803847577293363,-2.99999999999998 15.14589803375031,-3.526711513754822 15.541131047135629,-4.014783638153132 15.985216361846847,-4.458868952864351 16.473288486245156,-4.854101966249668 17.0,-5.196152422706618 17.559580141545194,-5.48127274585559 18.14589803375031,-5.706339097770906 18.752529855093442,-5.868885604402819 19.37282922039407,-5.967131372209624 19.999999999999993,-5.999999999999985" class="cut" />
    <line x1="19.999999999999996" y1="-5.999999999999984" x2="39.99999999999999" y2="-5.999999999999984" class="cut" />
    <polyline points="39.99999999999998,6.000000000000013 40.6271707796059,5.9671313722096535 41.247470144906536,5.8688856044028475 41.85410196624966,5.706339097770935 42.440419858454774,5.48127274585562 42.99999999999998,5.196152422706646 43.52671151375481,4.8541019662497 44.014783638153126,4.458868952864381 44.45886895286434,4.014783638153166 44.85410196624966,3.5267115137548566 45.196152422706604,3.0000000000000187 45.48127274585558,2.440419858454821 45.70633909777089,1.854101966249705 45.86888560440281,1.247470144906577 45.967131372209614,0.6271707796059426 45.99999999999998,2.241159199112034e-14 45.96713137220962,-0.6271707796058977 45.86888560440281,-1.2474701449065326 45.7063390977709,-1.8541019662496605 45.481272745855584,-2.440419858454777 45.19615242270661,-2.9999999999999756 44.854101966249665,-3.526711513754813 44.45886895286435,-4.0147836381531254 44.01478363815313,-4.458868952864343 43.526711513754826,-4.854101966249662 42.999999999999986,-5.196152422706611 42.44041985845479,-5.481272745855584 41.85410196624967,-5.706339097770901 41.24747014490655,-5.868885604402814 40.62717077960591,-5.9671313722096215 39.99999999999999,-5.999999999999983" class="cut" />
    <line x1="84.57168026350791" y1="35.00000000000002" x2="20.0" y2="35.000000000000014" class="cut" />
    <polyline points="84.57168026350791,-34.99999999999997 88.23017647787579,-34.808266337889535 91.8485894421295,-34.23516602568317 95.38727506663108,-33.28697807033034 98.80746277116091,-31.974091017491002 102.07168026350791,-30.310889132455326 105.14416409374448,-28.315594803123133 107.99125148606795,-26.01006889170877 110.58174915521671,-23.41957122256001 112.88727506663108,-20.572483830236532 114.88256939596326,-17.499999999999975 116.54577128099895,-14.235782507652987 117.85865833383829,-10.815594803123135 118.80684628919111,-7.276909178621547 119.37994660139748,-3.6584962143678443 119.57168026350791,2.455340230092803e-14 119.37994660139748,3.658496214367893 118.80684628919111,7.276909178621596 117.85865833383829,10.815594803123183 116.54577128099895,14.23578250765303 114.88256939596327,17.50000000000002 112.88727506663108,20.572483830236585 110.58174915521673,23.419571222560055 107.99125148606794,26.01006889170883 105.14416409374448,28.315594803123187 102.07168026350791,30.310889132455383 98.80746277116091,31.974091017491062 95.38727506663108,33.2869780703304 91.8485894421295,34.23516602568323 88.2301764778758,34.80826633788959 84.57168026350791,35.00000000000003" class="cut" />
    <line x1="19.999999999999996" y1="-34.99999999999999" x2="84.57168026350791" y2="-34.999999999999986" class="cut" />
    <polyline points="-19.999999999999993,-35.0 -19.035090745261243,-33.793047161182045 -17.997458763112476,-32.64801227322744 -16.8910682809272,-31.569269891589894 -15.7201462149057,-30.560941304116966 -14.489166021327499,-29.626878785850987 -13.202830605908295,-28.770650881581624 -11.866054356555416,-27.995528772377373 -10.483944368164847,-27.304473778182086 -9.061780931189721,-26.700126044222337 -7.604997358522706,-26.18479445444859 -6.119159227763001,-25.760447810545617 -4.60994311817176,-25.42870731021217 -3.0831149235505584,-25.190840353446475 -1.544507823897615,-25.047755700500225 4.117451138846292e-15,-25.0 1.5445078238976122,-25.047755700500225 3.083114923550567,-25.190840353446475 4.609943118171762,-25.42870731021217 6.119159227762999,-25.76044781054561 7.6049973585227075,-26.184794454448586 9.061780931189718,-26.70012604422233 10.483944368164856,-27.304473778182086 11.866054356555415,-27.995528772377366 13.202830605908302,-28.770650881581624 14.489166021327504,-29.626878785850984 15.72014621490571,-30.560941304116966 16.891068280927207,-31.569269891589887 17.997458763112483,-32.64801227322743 19.035090745261257,-33.79304716118204 20.0,-34.99999999999999" class="cut" />
    <line x1="-109.57168026350794" y1="-34.99999999999999" x2="-20.0" y2="-35.0" class="cut" />
    <line x1="-109.57168026350794" y1="-7.499999999999983" x2="-109.57168026350794" y2="-34.99999999999999" class="cut" />
    <line x1="-74.57168026350791" y1="-7.499999999999981" x2="-109.57168026350794" y2="-7.499999999999982" class="cut" />
    <polyline points="-74.57168026350791,7.500000000000016 -73.78771678900051,7.458914215262066 -73.01234258237471,7.336107005503559 -72.2540528056958,7.132923872213667 -71.52115544043941,6.851590932319523 -70.82168026350791,6.495190528383306 -70.16329087131436,6.067627457812122 -69.55320071581647,5.573586191080473 -68.99809407242746,5.018479547691452 -68.5040528056958,4.408389392193564 -68.07648973512462,3.7500000000000173 -67.7200893311884,3.0505248230685194 -67.43875639129426,2.3176274578121223 -67.23557325800437,1.5593376811332107 -67.11276604824586,0.7839634745074173 -67.07168026350791,1.6846608480731947e-14 -67.11276604824586,-0.7839634745073836 -67.23557325800437,-1.559337681133177 -67.43875639129426,-2.3176274578120886 -67.7200893311884,-3.0505248230684843 -68.07648973512462,-3.749999999999982 -68.5040528056958,-4.4083893921935315 -68.99809407242745,-5.018479547691419 -69.55320071581647,-5.573586191080442 -70.16329087131436,-6.0676274578120895 -70.82168026350791,-6.495190528383274 -71.52115544043941,-6.851590932319492 -72.2540528056958,-7.132923872213635 -73.01234258237471,-7.336107005503527 -73.78771678900051,-7.458914215262034 -74.57168026350791,-7.499999999999984" class="cut" />
    <line x1="-109.57168026350794" y1="7.500000000000017" x2="-74.57168026350791" y2="7.500000000000018" class="cut" />
    <line x1="-109.57168026350794" y1="35.00000000000001" x2="-109.57168026350794" y2="7.500000000000016" class="cut" />
    <line x1="-20.000000000000004" y1="35.00000000000002" x2="-109.57168026350794" y2="35.00000000000001" class="cut" />
    <polyline points="19.999999999999996,35.000000000000014 19.03509074526125,33.79304716118206 17.997458763112483,32.64801227322745 16.891068280927207,31.569269891589908 15.720146214905707,30.560941304116984 14.489166021327506,29.626878785851005 13.202830605908298,28.77065088158164 11.866054356555418,27.995528772377387 10.483944368164854,27.304473778182103 9.061780931189723,26.70012604422235 7.604997358522709,26.184794454448603 6.119159227763005,25.76044781054563 4.609943118171758,25.428707310212186 3.0831149235505637,25.19084035344649 1.5445078238976095,25.04775570050024 1.9748977087842535e-15,25.000000000000014 -1.5445078238976166,25.04775570050024 -3.0831149235505597,25.19084035344649 -4.60994311817176,25.428707310212186 -6.119159227763001,25.760447810545628 -7.604997358522706,26.184794454448603 -9.061780931189721,26.70012604422235 -10.483944368164847,27.3044737781821 -11.866054356555416,27.995528772377384 -13.202830605908302,28.77065088158164 -14.489166021327511,29.62687878585101 -15.720146214905709,30.560941304116987 -16.891068280927204,31.569269891589908 -17.997458763112483,32.64801227322746 -19.035090745261257,33.793047161182066 -20.0,35.00000000000002" class="cut" />
    <polyline points="107.57168026350794,2.962804165118386e-14 107.50612306570936,-0.6237350724532484 107.31231663643575,-1.2202099292273711 106.99873124663279,-1.7633557568773903 106.57907208258452,-2.2294344764321536 106.07168026350794,-2.5980762113532876 105.49873124663279,-2.8531695488854334 104.88526565331091,-2.983565686104793 104.25809487370499,-2.983565686104794 103.6446292803831,-2.853169548885435 103.07168026350794,-2.598076211353291 102.56428844443137,-2.229434476432159 102.1446292803831,-1.7633557568773959 101.83104389058015,-1.2202099292273765 101.63723746130653,-0.6237350724532547 101.57168026350794,2.2851180281229387e-14 101.63723746130653,0.6237350724533005 101.83104389058013,1.220209929227423 102.1446292803831,1.763355756877443 102.56428844443137,2.229434476432206 103.07168026350794,2.59807621135334 103.6446292803831,2.853169548885486 104.25809487370498,2.9835656861048454 104.8852656533109,2.9835656861048463 105.49873124663279,2.8531695488854885 106.07168026350794,2.5980762113533444 106.57907208258452,2.2294344764322105 106.99873124663279,1.7633557568774492 107.31231663643574,1.2202099292274298 107.50612306570936,0.6237350724533092 107.57168026350794,3.036282973067227e-14" class="cut" />
    <polyline points="61.57168026350796,-3.922812264617403e-13 61.63723746130654,0.6237350724528858 61.831043890580155,1.2202099292270085 62.144629280383114,1.7633557568770275 62.564288444431384,2.229434476431791 63.07168026350796,2.5980762113529243 63.644629280383114,2.8531695488850692 64.25809487370499,2.9835656861044284 64.88526565331092,2.983565686104429 65.4987312466328,2.8531695488850697 66.07168026350796,2.5980762113529248 66.57907208258453,2.2294344764317917 66.9987312466328,1.763355756877028 67.31231663643577,1.220209929227008 67.50612306570937,0.6237350724528858 67.57168026350796,-3.9191383242199606e-13 67.50612306570937,-0.6237350724536697 67.31231663643577,-1.2202099292277921 66.9987312466328,-1.763355756877812 66.57907208258453,-2.2294344764325746 66.07168026350796,-2.598076211353708 65.4987312466328,-2.8531695488858535 64.88526565331092,-2.9835656861052127 64.25809487370499,-2.9835656861052127 63.644629280383114,-2.853169548885854 63.07168026350796,-2.5980762113537086 62.564288444431384,-2.2294344764325746 62.144629280383114,-1.7633557568778129 61.831043890580155,-1.2202099292277933 61.63723746130654,-0.623735072453672 61.57168026350796,-3.930160145412287e-13" class="cut" />
    <polyline points="87.57168026350816,-20.00000000000025 87.50612306570957,-20.623735072453528 87.31231663643597,-21.22020992922765 86.998731246633,-21.76335575687767 86.57907208258473,-22.22943447643243 86.07168026350816,-22.598076211353565 85.498731246633,-22.85316954888571 84.88526565331112,-22.98356568610507 84.25809487370519,-22.98356568610507 83.64462928038331,-22.85316954888571 83.07168026350816,-22.598076211353565 82.56428844443158,-22.229434476432434 82.14462928038331,-21.76335575687767 81.83104389058035,-21.22020992922765 81.63723746130674,-20.623735072453528 81.57168026350816,-20.00000000000025 81.63723746130674,-19.37626492754697 81.83104389058035,-18.779790070772847 82.14462928038331,-18.23664424312283 82.56428844443158,-17.770565523568067 83.07168026350816,-17.401923788646933 83.64462928038331,-17.146830451114788 84.25809487370519,-17.016434313895427 84.88526565331112,-17.016434313895427 85.498731246633,-17.146830451114788 86.07168026350816,-17.401923788646933 86.57907208258473,-17.770565523568067 86.998731246633,-18.23664424312283 87.31231663643597,-18.779790070772847 87.50612306570957,-19.37626492754697 87.57168026350816,-20.00000000000025" class="cut" />
    <polyline points="97.07168026350791,2.3634917201567518e-14 96.79852527268048,-2.5988961352219673 95.99099848404042,-5.0842080384474775 94.68439269319475,-7.3473156536558895 92.93581284299364,-9.2893103184674 90.82168026350791,-10.825317547305454 88.43439269319475,-11.888206453689389 85.87828605435358,-12.431523692103385 83.26507447266223,-12.431523692103385 80.70896783382106,-11.888206453689387 78.32168026350791,-10.825317547305449 76.20754768402219,-9.289310318467393 74.45896783382106,-7.347315653655876 73.1523620429754,-5.084208038447461 72.34483525433534,-2.5988961352219513 72.07168026350791,3.878312051790731e-14 72.34483525433535,2.598896135222028 73.1523620429754,5.084208038447538 74.45896783382108,7.347315653655952 76.20754768402219,9.289310318467463 78.32168026350791,10.825317547305517 80.70896783382108,11.888206453689453 83.26507447266225,12.431523692103449 85.8782860543536,12.431523692103449 88.43439269319477,11.88820645368945 90.82168026350793,10.825317547305511 92.93581284299366,9.289310318467452 94.68439269319477,7.347315653655942 95.99099848404043,5.0842080384475254 96.79852527268048,2.5988961352220223 97.07168026350791,2.6696534199435903e-14" class="cut" />
    <polyline points="87.5716802635078,20.000000000000025 87.50612306570922,19.376264927546778 87.31231663643561,18.779790070772684 86.99873124663267,18.23664424312269 86.57907208258442,17.77056552356795 86.07168026350787,17.401923788646833 85.49873124663274,17.1468304511147 84.8852656533109,17.016434313895346 84.258094873705,17.016434313895346 83.64462928038314,17.1468304511147 83.07168026350801,17.401923788646833 82.56428844443147,17.770565523567946 82.14462928038321,18.23664424312269 81.83104389058028,18.779790070772684 81.63723746130667,19.376264927546778 81.57168026350809,20.000000000000025 81.63723746130667,20.62373507245327 81.83104389058028,21.220209929227366 82.14462928038321,21.76335575687736 82.56428844443147,22.2294344764321 83.07168026350801,22.598076211353217 83.64462928038314,22.85316954888535 84.25809487370499,22.983565686104704 84.8852656533109,22.983565686104704 85.49873124663274,22.85316954888535 86.07168026350787,22.598076211353217 86.57907208258442,22.2294344764321 86.99873124663267,21.76335575687736 87.31231663643561,21.220209929227366 87.50612306570922,20.623735072453275 87.5716802635078,20.000000000000025" class="cut" />
    <polyline points="-96.57168026350793,-24.99999999999999 -96.63723746130651,-25.623735072453268 -96.83104389058012,-26.22020992922739 -97.14462928038309,-26.76335575687741 -97.56428844443136,-27.229434476432175 -98.07168026350793,-27.59807621135331 -98.64462928038309,-27.853169548885454 -99.25809487370496,-27.98356568610481 -99.88526565331088,-27.983565686104814 -100.49873124663277,-27.853169548885454 -101.07168026350793,-27.59807621135331 -101.5790720825845,-27.22943447643218 -101.99873124663277,-26.763355756877417 -102.31231663643572,-26.220209929227398 -102.50612306570935,-25.623735072453275 -102.57168026350793,-24.999999999999996 -102.50612306570935,-24.376264927546718 -102.31231663643574,-23.779790070772595 -101.99873124663277,-23.236644243122576 -101.5790720825845,-22.770565523567814 -101.07168026350793,-22.40192378864668 -100.49873124663277,-22.146830451114532 -99.8852656533109,-22.016434313895175 -99.25809487370498,-22.01643431389517 -98.64462928038309,-22.146830451114532 -98.07168026350793,-22.401923788646677 -97.56428844443136,-22.770565523567807 -97.14462928038309,-23.23664424312257 -96.83104389058013,-23.779790070772588 -96.63723746130651,-24.37626492754671 -96.57168026350793,-24.99999999999999" class="cut" />
    <polyline points="-71.57168026350793,-24.99999999999999 -71.63723746130651,-25.623735072453268 -71.83104389058013,-26.22020992922739 -72.14462928038309,-26.76335575687741 -72.56428844443136,-27.22943447643217 -73.07168026350793,-27.598076211353302 -73.64462928038309,-27.853169548885447 -74.25809487370498,-27.983565686104807 -74.8852656533109,-27.983565686104804 -75.49873124663277,-27.853169548885447 -76.07168026350793,-27.598076211353302 -76.5790720825845,-27.229434476432168 -76.99873124663277,-26.763355756877402 -77.31231663643574,-26.220209929227384 -77.50612306570935,-25.62373507245326 -77.57168026350793,-24.999999999999982 -77.50612306570935,-24.376264927546707 -77.31231663643572,-23.779790070772584 -76.99873124663277,-23.236644243122562 -76.5790720825845,-22.7705655235678 -76.07168026350793,-22.40192378864667 -75.49873124663277,-22.146830451114525 -74.88526565331088,-22.016434313895164 -74.25809487370496,-22.016434313895168 -73.64462928038309,-22.146830451114525 -73.07168026350793,-22.40192378864667 -72.56428844443136,-22.770565523567807 -72.14462928038309,-23.23664424312257 -71.83104389058012,-23.779790070772588 -71.63723746130651,-24.37626492754671 -71.57168026350793,-24.99999999999999" class="cut" />
    <polyline points="-71.57168026350793,25.00000000000001 -71.63723746130651,24.376264927546732 -71.83104389058013,23.77979007077261 -72.14462928038309,23.23664424312259 -72.56428844443136,22.77056552356783 -73.07168026350793,22.401923788646698 -73.64462928038309,22.146830451114553 -74.25809487370498,22.016434313895193 -74.8852656533109,22.016434313895196 -75.49873124663277,22.146830451114553 -76.07168026350793,22.401923788646698 -76.5790720825845,22.770565523567832 -76.99873124663277,23.236644243122598 -77.31231663643574,23.779790070772616 -77.50612306570935,24.37626492754674 -77.57168026350793,25.000000000000018 -77.50612306570935,25.623735072453293 -77.31231663643572,26.220209929227416 -76.99873124663277,26.763355756877438 -76.5790720825845,27.2294344764322 -76.07168026350793,27.59807621135333 -75.49873124663277,27.853169548885475 -74.88526565331088,27.983565686104836 -74.25809487370496,27.983565686104832 -73.64462928038309,27.853169548885475 -73.07168026350793,27.59807621135333 -72.56428844443136,27.229434476432193 -72.14462928038309,26.76335575687743 -71.83104389058012,26.220209929227412 -71.63723746130651,25.62373507245329 -71.57168026350793,25.00000000000001" class="cut" />
    <polyline points="-96.57168026350793,25.00000000000001 -96.63723746130651,24.376264927546732 -96.83104389058012,23.77979007077261 -97.14462928038309,23.23664424312259 -97.56428844443136,22.770565523567825 -98.07168026350793,22.40192378864669 -98.64462928038309,22.146830451114546 -99.25809487370496,22.01643431389519 -99.88526565331088,22.016434313895186 -100.49873124663277,22.146830451114546 -101.07168026350793,22.40192378864669 -101.5790720825845,22.77056552356782 -101.99873124663277,23.236644243122583 -102.31231663643572,23.779790070772602 -102.50612306570935,24.376264927546725 -102.57168026350793,25.000000000000004 -102.50612306570935,25.623735072453282 -102.31231663643574,26.220209929227405 -101.99873124663277,26.763355756877424 -101.5790720825845,27.229434476432186 -101.07168026350793,27.59807621135332 -100.49873124663277,27.853169548885468 -99.8852656533109,27.983565686104825 -99.25809487370498,27.98356568610483 -98.64462928038309,27.853169548885468 -98.07168026350793,27.598076211353323 -97.56428844443136,27.229434476432193 -97.14462928038309,26.76335575687743 -96.83104389058013,26.220209929227412 -96.63723746130651,25.62373507245329 -96.57168026350793,25.00000000000001" class="cut" />
    <line x1="-54.78584013175396" y1="-36.0" x2="-54.78584013175396" y2="36.000000000000036" class="fold" />
    <line x1="54.78584013175396" y1="36.00000000000003" x2="54.78584013175396" y2="-36.00000000000001" class="fold" />
  </g>
</svg>