  0
SECTION
  2
HEADER
  9
$ACADVER
  1
AC1024
  9
$ACADMAINTVER
 70
6
  9
$DWGCODEPAGE
  3
ANSI_1252
  9
$LASTSAVEDBY
  1
ezdxf
  9
$INSBASE
 10
0.0
 20
0.0
 30
0.0
  9
$EXTMIN
 10
1e+20
 20
1e+20
 30
1e+20
  9
$EXTMAX
 10
-1e+20
 20
-1e+20
 30
-1e+20
  9
$LIMMIN
 10
0.0
 20
0.0
  9
$LIMMAX
 10
420.0
 20
297.0
  9
$ORTHOMODE
 70
0
  9
$REGENMODE
 70
1
  9
$FILLMODE
 70
1
  9
$QTEXTMODE
 70
0
  9
$MIRRTEXT
 70
1
  9
$LTSCALE
 40
1.0
  9
$ATTMODE
 70
1
  9
$TEXTSIZE
 40
2.5
  9
$TRACEWID
 40
1.0
  9
$TEXTSTYLE
  7
Standard
  9
$CLAYER
  8
0
  9
$CELTYPE
  6
ByLayer
  9
$CECOLOR
 62
256
  9
$CELTSCALE
 40
1.0
  9
$DISPSILH
 70
0
  9
$DIMSCALE
 40
1.0
  9
$DIMASZ
 40
2.5
  9
$DIMEXO
 40
0.625
  9
$DIMDLI
 40
3.75
  9
$DIMRND
 40
0.0
  9
$DIMDLE
 40
0.0
  9
$DIMEXE
 40
1.25
  9
$DIMTP
 40
0.0
  9
$DIMTM
 40
0.0
  9
$DIMTXT
 40
2.5
  9
$DIMCEN
 40
2.5
  9
$DIMTSZ
 40
0.0
  9
$DIMTOL
 70
0
  9
$DIMLIM
 70
0
  9
$DIMTIH
 70
0
  9
$DIMTOH
 70
0
  9
$DIMSE1
 70
0
  9
$DIMSE2
 70
0
  9
$DIMTAD
 70
1
  9
$DIMZIN
 70
8
  9
$DIMBLK
  1

  9
$DIMASO
 70
1
  9
$DIMSHO
 70
1
  9
$DIMPOST
  1

  9
$DIMAPOST
  1

  9
$DIMALT
 70
0
  9
$DIMALTD
 70
3
  9
$DIMALTF
 40
0.03937007874
  9
$DIMLFAC
 40
1.0
  9
$DIMTOFL
 70
1
  9
$DIMTVP
 40
0.0
  9
$DIMTIX
 70
0
  9
$DIMSOXD
 70
0
  9
$DIMSAH
 70
0
  9
$DIMBLK1
  1

  9
$DIMBLK2
  1

  9
$DIMSTYLE
  2
ISO-25
  9
$DIMCLRD
 70
0
  9
$DIMCLRE
 70
0
  9
$DIMCLRT
 70
0
  9
$DIMTFAC
 40
1.0
  9
$DIMGAP
 40
0.625
  9
$DIMJUST
 70
0
  9
$DIMSD1
 70
0
  9
$DIMSD2
 70
0
  9
$DIMTOLJ
 70
0
  9
$DIMTZIN
 70
8
  9
$DIMALTZ
 70
0
  9
$DIMALTTZ
 70
0
  9
$DIMUPT
 70
0
  9
$DIMDEC
 70
2
  9
$DIMTDEC
 70
2
  9
$DIMALTU
 70
2
  9
$DIMALTTD
 70
3
  9
$DIMTXSTY
  7
Standard
  9
$DIMAUNIT
 70
0
  9
$DIMADEC
 70
0
  9
$DIMALTRND
 40
0.0
  9
$DIMAZIN
 70
0
  9
$DIMDSEP
 70
44
  9
$DIMATFIT
 70
3
  9
$DIMFRAC
 70
0
  9
$DIMLDRBLK
  1

  9
$DIMLUNIT
 70
2
  9
$DIMLWD
 70
-2
  9
$DIMLWE
 70
-2
  9
$DIMTMOVE
 70
0
  9
$DIMFXL
 40
1.0
  9
$DIMFXLON
 70
0
  9
$DIMJOGANG
 40
0.785398163397
  9
$DIMTFILL
 70
0
  9
$DIMTFILLCLR
 70
0
  9
$DIMARCSYM
 70
0
  9
$DIMLTYPE
  6

  9
$DIMLTEX1
  6

  9
$DIMLTEX2
  6

  9
$DIMTXTDIRECTION
 70
0
  9
$LUNITS
 70
2
  9
$LUPREC
 70
4
  9
$SKETCHINC
 40
1.0
  9
$FILLETRAD
 40
10.0
  9
$AUNITS
 70
0
  9
$AUPREC
 70
2
  9
$MENU
  1
.
  9
$ELEVATION
 40
0.0
  9
$PELEVATION
 40
0.0
  9
$THICKNESS
 40
0.0
  9
$LIMCHECK
 70
0
  9
$CHAMFERA
 40
0.0
  9
$CHAMFERB
 40
0.0
  9
$CHAMFERC
 40
0.0
  9
$CHAMFERD
 40
0.0
  9
$SKPOLY
 70
0
  9
$TDCREATE
 40
2461239.0039120372
  9
$TDUCREATE
 40
2458532.153996898
  9
$TDUPDATE
 40
2461239.0039120372
  9
$TDUUPDATE
 40
2458532.1544311
  9
$TDINDWG
 40
0.0
  9
$TDUSRTIMER
 40
0.0
  9
$USRTIMER
 70
1
  9
$ANGBASE
 50
0.0
  9
$ANGDIR
 70
0
  9
$PDMODE
 70
0
  9
$PDSIZE
 40
0.0
  9
$PLINEWID
 40
0.0
  9
$SPLFRAME
 70
0
  9
$SPLINETYPE
 70
6
  9
$SPLINESEGS
 70
8
  9
$HANDSEED
  5
92
  9
$SURFTAB1
 70
6
  9
$SURFTAB2
 70
6
  9
$SURFTYPE
 70
6
  9
$SURFU
 70
6
  9
$SURFV
 70
6
  9
$UCSBASE
  2

  9
$UCSNAME
  2

  9
$UCSORG
 10
0.0
 20
0.0
 30
0.0
  9
$UCSXDIR
 10
1.0
 20
0.0
 30
0.0
  9
$UCSYDIR
 10
0.0
 20
1.0
 30
0.0
  9
$UCSORTHOREF
  2

  9
$UCSORTHOVIEW
 70
0
  9
$UCSORGTOP
 10
0.0
 20
0.0
 30
0.0
  9
$UCSORGBOTTOM
 10
0.0
 20
0.0
 30
0.0
  9
$UCSORGLEFT
 10
0.0
 20
0.0
 30
0.0
  9
$UCSORGRIGHT
 10
0.0
 20
0.0
 30
0.0
  9
$UCSORGFRONT
 10
0.0
 20
0.0
 30
0.0
  9
$UCSORGBACK
 10
0.0
 20
0.0
 30
0.0
  9
$PUCSBASE
  2

  9
$PUCSNAME
  2

  9
$PUCSORG
 10
0.0
 20
0.0
 30
0.0
  9
$PUCSXDIR
 10
1.0
 20
0.0
 30
0.0
  9
$PUCSYDIR
 10
0.0
 20
1.0
 30
0.0
  9
$PUCSORTHOREF
  2

  9
$PUCSORTHOVIEW
 70
0
  9
$PUCSORGTOP
 10
0.0
 20
0.0
 30
0.0
  9
$PUCSORGBOTTOM
 10
0.0
 20
0.0
 30
0.0
  9
$PUCSORGLEFT
 10
0.0
 20
0.0
 30
0.0
  9
$PUCSORGRIGHT
 10
0.0
 20
0.0
 30
0.0
  9
$PUCSORGFRONT
 10
0.0
 20
0.0
 30
0.0
  9
$PUCSORGBACK
 10
0.0
 20
0.0
 30
0.0
  9
$USERI1
 70
0
  9
$USERI2
 70
0
  9
$USERI3
 70
0
  9
$USERI4
 70
0
  9
$USERI5
 70
0
  9
$USERR1
 40
0.0
  9
$USERR2
 40
0.0
  9
$USERR3
 40
0.0
  9
$USERR4
 40
0.0
  9
$USERR5
 40
0.0
  9
$WORLDVIEW
 70
1
  9
$SHADEDGE
 70
3
  9
$SHADEDIF
 70
70
  9
$TILEMODE
 70
1
  9
$MAXACTVP
 70
64
  9
$PINSBASE
 10
0.0
 20
0.0
 30
0.0
  9
$PLIMCHECK
 70
0
  9
$PEXTMIN
 10
1e+20
 20
1e+20
 30
1e+20
  9
$PEXTMAX
 10
-1e+20
 20
-1e+20
 30
-1e+20
  9
$PLIMMIN
 10
0.0
 20
0.0
  9
$PLIMMAX
 10
420.0
 20
297.0
  9
$UNITMODE
 70
0
  9
$VISRETAIN
 70
1
  9
$PLINEGEN
 70
0
  9
$PSLTSCALE
 70
1
  9
$TREEDEPTH
 70
3020
  9
$CMLSTYLE
  2
Standard
  9
$CMLJUST
 70
0
  9
$CMLSCALE
 40
20.0
  9
$PROXYGRAPHICS
 70
1
  9
$MEASUREMENT
 70
1
  9
$CELWEIGHT
370
-1
  9
$ENDCAPS
280
0
  9
$JOINSTYLE
280
0
  9
$LWDISPLAY
290
0
  9
$INSUNITS
 70
6
  9
$HYPERLINKBASE
  1

  9
$STYLESHEET
  1

  9
$XEDIT
290
1
  9
$CEPSNTYPE
380
0
  9
$PSTYLEMODE
290
1
  9
$FINGERPRINTGUID
  2
{797311E7-F353-47AA-AD58-F50AB70BE6DC}
  9
$VERSIONGUID
  2
{45CF5449-20C8-45FD-98FC-343EAB1ACEF6}
  9
$EXTNAMES
290
1
  9
$PSVPSCALE
 40
0.0
  9
$OLESTARTUP
290
0
  9
$SORTENTS
280
127
  9
$INDEXCTL
280
0
  9
$HIDETEXT
280
1
  9
$XCLIPFRAME
280
1
  9
$HALOGAP
280
0
  9
$OBSCOLOR
 70
257
  9
$OBSLTYPE
280
0
  9
$INTERSECTIONDISPLAY
280
0
  9
$INTERSECTIONCOLOR
 70
257
  9
$DIMASSOC
280
2
  9
$PROJECTNAME
  1

  9
$CAMERADISPLAY
290
0
  9
$LENSLENGTH
 40
50.0
  9
$CAMERAHEIGHT
 40
0.0
  9
$STEPSPERSEC
 40
24.0
  9
$STEPSIZE
 40
100.0
  9
$3DDWFPREC
 40
2.0
  9
$PSOLWIDTH
 40
0.005
  9
$PSOLHEIGHT
 40
0.08
  9
$LOFTANG1
 40
1.570796326795
  9
$LOFTANG2
 40
1.570796326795
  9
$LOFTMAG1
 40
0.0
  9
$LOFTMAG2
 40
0.0
  9
$LOFTPARAM
 70
7
  9
$LOFTNORMALS
280
1
  9
$LATITUDE
 40
37.795
  9
$LONGITUDE
 40
-122.394
  9
$NORTHDIRECTION
 40
0.0
  9
$TIMEZONE
 70
-8000
  9
$LIGHTGLYPHDISPLAY
280
1
  9
$TILEMODELIGHTSYNCH
280
1
  9
$CMATERIAL
347
20
  9
$SOLIDHIST
280
0
  9
$SHOWHIST
280
1
  9
$DWFFRAME
280
2
  9
$DGNFRAME
280
2
  9
$REALWORLDSCALE
290
1
  9
$INTERFERECOLOR
 62
256
  9
$CSHADOW
280
0
  9
$SHADOWPLANELOCATION
 40
0.0
  0
ENDSEC
  0
SECTION
  2
CLASSES
  0
CLASS
  1
ACDBDICTIONARYWDFLT
  2
AcDbDictionaryWithDefault
  3
ObjectDBX Classes
 90
0
 91
0
280
0
281
0
  0
CLASS
  1
SUN
  2
AcDbSun
  3
SCENEOE
 90
1153
 91
0
280
0
281
0
  0
CLASS
  1
VISUALSTYLE
  2
AcDbVisualStyle
  3
ObjectDBX Classes
 90
4095
 91
0
280
0
281
0
  0
CLASS
  1
MATERIAL
  2
AcDbMaterial
  3
ObjectDBX Classes
 90
1153
 91
0
280
0
281
0
  0
CLASS
  1
SCALE
  2
AcDbScale
  3
ObjectDBX Classes
 90
1153
 91
0
280
0
281
0
  0
CLASS
  1
TABLESTYLE
  2
AcDbTableStyle
  3
ObjectDBX Classes
 90
4095
 91
0
280
0
281
0
  0
CLASS
  1
MLEADERSTYLE
  2
AcDbMLeaderStyle
  3
ACDB_MLEADERSTYLE_CLASS
 90
4095
 91
0
280
0
281
0
  0
CLASS
  1
DICTIONARYVAR
  2
AcDbDictionaryVar
  3
ObjectDBX Classes
 90
0
 91
0
280
0
281
0
  0
CLASS
  1
CELLSTYLEMAP
  2
AcDbCellStyleMap
  3
ObjectDBX Classes
 90
1152
 91
0
280
0
281
0
  0
CLASS
  1
MENTALRAYRENDERSETTINGS
  2
AcDbMentalRayRenderSettings
  3
SCENEOE
 90
1024
 91
0
280
0
281
0
  0
CLASS
  1
ACDBDETAILVIEWSTYLE
  2
AcDbDetailViewStyle
  3
ObjectDBX Classes
 90
1025
 91
0
280
0
281
0
  0
CLASS
  1
ACDBSECTIONVIEWSTYLE
  2
AcDbSectionViewStyle
  3
ObjectDBX Classes
 90
1025
 91
0
280
0
281
0
  0
CLASS
  1
RASTERVARIABLES
  2
AcDbRasterVariables
  3
ISM
 90
0
 91
0
280
0
281
0
  0
CLASS
  1
LAYOUT
  2
AcDbLayout
  3
ObjectDBX Classes
 90
0
 91
0
280
0
281
0
  0
CLASS
  1
ACDBPLACEHOLDER
  2
AcDbPlaceHolder
  3
ObjectDBX Classes
 90
0
 91
0
280
0
281
0
  0
ENDSEC
  0
SECTION
  2
TABLES
  0
TABLE
  2
VPORT
  5
8
330
0
100
AcDbSymbolTable
 70
1
  0
VPORT
  5
23
330
8
100
AcDbSymbolTableRecord
100
AcDbViewportTableRecord
  2
*Active
 70
0
 10
0.0
 20
0.0
 11
1.0
 21
1.0
 12
0.0
 22
0.0
 13
0.0
 23
0.0
 14
0.5
 24
0.5
 15
0.5
 25
0.5
 16
0.0
 26
0.0
 36
1.0
 17
0.0
 27
0.0
 37
0.0
 40
1000.0
 41
1.34
 42
50.0
 43
0.0
 44
0.0
 50
0.0
 51
0.0
 71
0
 72
1000
 73
1
 74
3
 75
0
 76
0
 77
0
 78
0
281
0
 65
0
146
0.0
  0
ENDTAB
  0
TABLE
  2
LTYPE
  5
2
330
0
100
AcDbSymbolTable
 70
3
  0
LTYPE
  5
24
330
2
100
AcDbSymbolTableRecord
100
AcDbLinetypeTableRecord
  2
ByBlock
 70
0
  3

 72
65
 73
0
 40
0.0
  0
LTYPE
  5
25
330
2
100
AcDbSymbolTableRecord
100
AcDbLinetypeTableRecord
  2
ByLayer
 70
0
  3

 72
65
 73
0
 40
0.0
  0
LTYPE
  5
26
330
2
100
AcDbSymbolTableRecord
100
AcDbLinetypeTableRecord
  2
Continuous
 70
0
  3

 72
65
 73
0
 40
0.0
  0
ENDTAB
  0
TABLE
  2
LAYER
  5
1
330
0
100
AcDbSymbolTable
 70
4
  0
LAYER
  5
27
330
1
100
AcDbSymbolTableRecord
100
AcDbLayerTableRecord
  2
0
 70
0
 62
7
  6
Continuous
370
-3
390
13
347
21
  0
LAYER
  5
28
330
1
100
AcDbSymbolTableRecord
100
AcDbLayerTableRecord
  2
Defpoints
 70
0
 62
7
  6
Continuous
290
0
370
-3
390
13
347
21
  0
LAYER
  5
2F
330
1
100
AcDbSymbolTableRecord
100
AcDbLayerTableRecord
  2
CUT
 70
0
 62
3
  6
Continuous
370
-3
390
13
347
21
  0
LAYER
  5
30
330
1
100
AcDbSymbolTableRecord
100
AcDbLayerTableRecord
  2
FOLD
 70
0
 62
1
  6
DASHED
370
-3
390
13
347
21
  0
ENDTAB
  0
TABLE
  2
STYLE
  5
5
330
0
100
AcDbSymbolTable
 70
1
  0
STYLE
  5
29
330
5
100
AcDbSymbolTableRecord
100
AcDbTextStyleTableRecord
  2
Standard
 70
0
 40
0.0
 41
1.0
 50
0.0
 71
0
 42
2.5
  3
txt
  4

  0
ENDTAB
  0
TABLE
  2
VIEW
  5
7
330
0
100
AcDbSymbolTable
 70
0
  0
ENDTAB
  0
TABLE
  2
UCS
  5
6
330
0
100
AcDbSymbolTable
 70
0
  0
ENDTAB
  0
TABLE
  2
APPID
  5
3
330
0
100
AcDbSymbolTable
 70
3
  0
APPID
  5
2A
330
3
100
AcDbSymbolTableRecord
100
AcDbRegAppTableRecord
  2
ACAD
 70
0
  0
APPID
  5
8F
330
3
100
AcDbSymbolTableRecord
100
AcDbRegAppTableRecord
  2
HATCHBACKGROUNDCOLOR
 70
0
  0
APPID
  5
90
330
3
100
AcDbSymbolTableRecord
100
AcDbRegAppTableRecord
  2
EZDXF
 70
0
  0
ENDTAB
  0
TABLE
  2
DIMSTYLE
  5
4
330
0
100
AcDbSymbolTable
 70
1
100
AcDbDimStyleTable
  0
DIMSTYLE
105
2B
330
4
100
AcDbSymbolTableRecord
100
AcDbDimStyleTableRecord
  2
Standard
 70
0
 40
1.0
 41
2.5
 42
0.625
 43
3.75
 44
1.25
 45
0.0
 46
0.0
 47
0.0
 48
0.0
 49
2.5
140
2.5
141
2.5
142
0.0
143
0.03937007874
144
1.0
145
0.0
146
1.0
147
0.625
148
0.0
 69
0
 70
0
 71
0
 72
0
 73
0
 74
0
 75
0
 76
0
 77
1
 78
8
 79
3
170
0
171
3
172
1
173
0
174
0
175
0
176
0
177
0
178
0
179
2
271
2
272
2
273
2
274
3
275
0
276
0
277
2
278
44
279
0
280
0
281
0
282
0
283
0
284
8
285
0
286
0
288
0
289
3
290
0
371
-2
372
-2
  0
ENDTAB
  0
TABLE
  2
BLOCK_RECORD
  5
9
330
0
100
AcDbSymbolTable
 70
2
  0
BLOCK_RECORD
  5
17
330
9
100
AcDbSymbolTableRecord
100
AcDbBlockTableRecord
  2
*Model_Space
340
1A
 70
0
280
1
281
0
  0
BLOCK_RECORD
  5
1B
330
9
100
AcDbSymbolTableRecord
100
AcDbBlockTableRecord
  2
*Paper_Space
340
1E
 70
0
280
1
281
0
  0
ENDTAB
  0
ENDSEC
  0
SECTION
  2
BLOCKS
  0
BLOCK
  5
18
330
17
100
AcDbEntity
  8
0
100
AcDbBlockBegin
  2
*Model_Space
 70
0
 10
0.0
 20
0.0
 30
0.0
  3
*Model_Space
  1

  0
ENDBLK
  5
19
330
17
100
AcDbEntity
  8
0
100
AcDbBlockEnd
  0
BLOCK
  5
1C
330
1B
100
AcDbEntity
  8
0
100
AcDbBlockBegin
  2
*Paper_Space
 70
0
 10
0.0
 20
0.0
 30
0.0
  3
*Paper_Space
  1

  0
ENDBLK
  5
1D
330
1B
100
AcDbEntity
  8
0
100
AcDbBlockEnd
  0
ENDSEC
  0
SECTION
  2
ENTITIES
  0
LWPOLYLINE
  5
31
330
17
100
AcDbEntity
  8
CUT
100
AcDbPolyline
 90
31
 70
0
 10
30.603777422161453
 20
37.5
 10
31.388816765805615
 20
37.47944302131861
 10
32.171704371176254
 20
37.417828430524104
 10
32.95029439776492
 20
37.31532510892707
 10
33.72245278442785
 20
37.172214011007085
 10
34.48606309869926
 20
36.98888739433603
 10
35.239032337785666
 20
36.765847744427305
 10
35.97929666534097
 20
36.50370639745803
 10
36.70482706829846
 20
36.20318186463902
 10
37.41363491825466
 20
35.86509786282552
 10
38.10377742216146
 20
35.49038105676658
 10
38.77336294738686
 20
35.080058519181364
 10
39.420556206548554
 20
34.635254915624216
 10
40.043583287909016
 20
34.15718942185457
 10
40.640736517544326
 20
33.64717238216092
 10
41.21037913995967
 20
33.10660171779821
 10
41.750949804322374
 20
32.53695909538287
 10
42.26096684401602
 20
31.93980586574757
 10
42.739032337785666
 20
31.3167787843871
 10
43.18383594134282
 20
30.669585525225408
 10
43.59415847892804
 20
30.000000000000007
 10
43.96887528498697
 20
29.30985749609321
 10
44.30695928680047
 20
28.601049646137007
 10
44.60748381961949
 20
27.8755192431795
 10
44.86962516658876
 20
27.135254915624216
 10
45.09266481649748
 20
26.382285676537812
 10
45.27599143316854
 20
25.618675362266398
 10
45.41910253108852
 20
24.846516975603464
 10
45.52160585268556
 20
24.067926949014804
 10
45.583220443480066
 20
23.285039343644165
 10
45.60377742216146
 20
22.500000000000004
  0
LINE
  5
32
330
17
100
AcDbEntity
  8
CUT
100
AcDbLine
 10
30.603777422161457
 20
39.3605252947787
 30
0.0
 11
30.603777422161457
 21
37.5
 31
0.0
  0
LINE
  5
33
330
17
100
AcDbEntity
  8
CUT
100
AcDbLine
 10
30.603777422161457
 20
39.3605252947787
 30
0.0
 11
44.7981733558642
 21
39.3605252947787
 31
0.0
  0
LINE
  5
34
330
17
100
AcDbEntity
  8
CUT
100
AcDbLine
 10
44.7981733558642
 20
39.3605252947787
 30
0.0
 11
44.7981733558642
 21
104.6335332720173
 31
0.0
  0
LINE
  5
35
330
17
100
AcDbEntity
  8
CUT
100
AcDbLine
 10
41.2981733558642
 20
104.6335332720173
 30
0.0
 11
44.7981733558642
 21
104.6335332720173
 31
0.0
  0
LINE
  5
36
330
17
100
AcDbEntity
  8
CUT
100
AcDbLine
 10
41.29817335586421
 20
102.86052529477871
 30
0.0
 11
41.29817335586421
 21
104.63353327201732
 31
0.0
  0
LINE
  5
37
330
17
100
AcDbEntity
  8
CUT
100
AcDbLine
 10
41.29817335586418
 20
102.86052529477871
 30
0.0
 11
26.81889929802783
 21
102.8605252947787
 31
0.0
  0
LINE
  5
38
330
17
100
AcDbEntity
  8
CUT
100
AcDbLine
 10
26.81889929802786
 20
72.8605252947787
 30
0.0
 11
26.81889929802783
 21
102.8605252947787
 31
0.0
  0
LINE
  5
39
330
17
100
AcDbEntity
  8
CUT
100
AcDbLine
 10
2.829262269109755
 20
114.4117954840006
 30
0.0
 11
26.81889929802788
 21
72.86052529477871
 31
0.0
  0
LWPOLYLINE
  5
3A
330
17
100
AcDbEntity
  8
CUT
100
AcDbPolyline
 90
31
 70
0
 10
-17.03363600116404
 20
112.67401706058295
 10
-16.71981801619244
 20
113.44428522453615
 10
-16.348696550019454
 20
114.1886397297533
 10
-15.922393419918718
 20
114.9028248691659
 10
-15.443345933962378
 20
115.58275742338755
 10
-14.91429295617001
 20
116.22455000575391
 10
-14.338259247568026
 20
116.82453328772576
 10
-13.718538172686666
 20
117.37927697758565
 10
-13.058672870366905
 20
117.88560943248649
 10
-12.362435996529653
 20
118.34063579172384
 10
-11.63380815472414
 20
118.74175452755814
 10
-10.876955137774845
 20
119.08667231896098
 10
-10.096204110643479
 20
119.3734171632473
 10
-9.29601887067611
 20
119.60034965063029
 10
-8.480974326680299
 20
119.76617233723897
 10
-7.655730342743297
 20
119.86993716300981
 10
-6.825005096334423
 20
119.911050872042
 10
-5.993548103011613
 20
119.88927840442669
 10
-5.166113061958338
 20
119.80474424015787
 10
-4.347430677601417
 20
119.65793168744139
 10
-3.542181612697064
 20
119.44968011947098
 10
-2.7549697275207525
 20
119.18118017546983
 10
-1.9902957581608582
 20
118.85396695343434
 10
-1.2525315844054585
 20
118.46991123349974
 10
-0.545895234340839
 20
118.03120878210606
 10
0.1255732314318081
 20
117.54036779811595
 10
0.7580348180840026
 20
117.00019457265873
 10
1.3478735452918222
 20
116.4137774446881
 10
1.8917171209241985
 20
115.78446914398418
 10
2.3864562214897447
 20
115.11586762255078
 10
2.8292622691097744
 20
114.41179548400062
  0
LINE
  5
3B
330
17
100
AcDbEntity
  8
CUT
100
AcDbLine
 10
-44.39474060143594
 20
37.5
 30
0.0
 11
-17.033636001164027
 21
112.67401706058298
 31
0.0
  0
LINE
  5
3C
330
17
100
AcDbEntity
  8
CUT
100
AcDbLine
 10
-44.39474060143594
 20
37.5
 30
0.0
 11
-124.39325862503337
 21
37.5
 31
0.0
  0
LINE
  5
3D
330
17
100
AcDbEntity
  8
CUT
100
AcDbLine
 10
-124.39325862503337
 20
37.5
 30
0.0
 11
-124.39325862503337
 21
-37.5
 31
0.0
  0
LINE
  5
3E
330
17
100
AcDbEntity
  8
CUT
100
AcDbLine
 10
-44.39474060143594
 20
-37.5
 30
0.0
 11
-124.39325862503337
 21
-37.5
 31
0.0
  0
LINE
  5
3F
330
17
100
AcDbEntity
  8
CUT
100
AcDbLine
 10
-44.39474060143594
 20
-37.49999999999999
 30
0.0
 11
-44.013859467063
 21
-38.54646231618591
 31
0.0
  0
LINE
  5
40
330
17
100
AcDbEntity
  8
CUT
100
AcDbLine
 10
-65.15373192796865
 20
-75.1617954840006
 30
0.0
 11
-44.013859467063
 21
-38.546462316185895
 31
0.0
  0
LINE
  5
41
330
17
100
AcDbEntity
  8
CUT
100
AcDbLine
 10
-65.15373192796865
 20
-75.1617954840006
 30
0.0
 11
-21.517277081191537
 21
-100.35531443626832
 31
0.0
  0
LINE
  5
42
330
17
100
AcDbEntity
  8
CUT
100
AcDbLine
 10
-21.517277081191523
 20
-100.35531443626832
 30
0.0
 11
-17.033636001164027
 21
-112.67401706058297
 31
0.0
  0
LWPOLYLINE
  5
43
330
17
100
AcDbEntity
  8
CUT
100
AcDbPolyline
 90
31
 70
0
 10
-17.03363600116404
 20
-112.67401706058295
 10
-16.71981801619244
 20
-113.44428522453615
 10
-16.348696550019454
 20
-114.1886397297533
 10
-15.922393419918718
 20
-114.9028248691659
 10
-15.443345933962378
 20
-115.58275742338755
 10
-14.91429295617001
 20
-116.22455000575391
 10
-14.338259247568026
 20
-116.82453328772576
 10
-13.718538172686666
 20
-117.37927697758565
 10
-13.058672870366905
 20
-117.88560943248649
 10
-12.362435996529653
 20
-118.34063579172384
 10
-11.63380815472414
 20
-118.74175452755814
 10
-10.876955137774845
 20
-119.08667231896098
 10
-10.096204110643479
 20
-119.3734171632473
 10
-9.29601887067611
 20
-119.60034965063029
 10
-8.480974326680299
 20
-119.76617233723897
 10
-7.655730342743297
 20
-119.86993716300981
 10
-6.825005096334423
 20
-119.911050872042
 10
-5.993548103011613
 20
-119.88927840442669
 10
-5.166113061958338
 20
-119.80474424015787
 10
-4.347430677601417
 20
-119.65793168744139
 10
-3.542181612697064
 20
-119.44968011947098
 10
-2.7549697275207525
 20
-119.18118017546983
 10
-1.9902957581608582
 20
-118.85396695343434
 10
-1.2525315844054585
 20
-118.46991123349974
 10
-0.545895234340839
 20
-118.03120878210606
 10
0.1255732314318081
 20
-117.54036779811595
 10
0.7580348180840026
 20
-117.00019457265873
 10
1.3478735452918222
 20
-116.4137774446881
 10
1.8917171209241985
 20
-115.78446914398418
 10
2.3864562214897447
 20
-115.11586762255078
 10
2.8292622691097744
 20
-114.41179548400062
  0
LINE
  5
44
330
17
100
AcDbEntity
  8
CUT
100
AcDbLine
 10
2.829262269109755
 20
-114.4117954840006
 30
0.0
 11
26.81889929802788
 21
-72.86052529477871
 31
0.0
  0
LINE
  5
45
330
17
100
AcDbEntity
  8
CUT
100
AcDbLine
 10
26.81889929802786
 20
-72.8605252947787
 30
0.0
 11
41.29817335586421
 21
-72.86052529477871
 31
0.0
  0
LINE
  5
46
330
17
100
AcDbEntity
  8
CUT
100
AcDbLine
 10
41.29817335586421
 20
-72.8605252947787
 30
0.0
 11
41.29817335586421
 21
-84.6335332720173
 31
0.0
  0
LWPOLYLINE
  5
47
330
17
100
AcDbEntity
  8
CUT
100
AcDbPolyline
 90
31
 70
0
 10
36.29817335586421
 20
-79.6335332720173
 10
36.559853137078925
 20
-79.64038559824444
 10
36.82081567220247
 20
-79.66092379517593
 10
37.08034568106536
 20
-79.69509156904161
 10
37.337731809953006
 20
-79.74279526834827
 10
37.59226858137681
 20
-79.80390414057196
 10
37.843258327738944
 20
-79.87825069054153
 10
38.09001310359071
 20
-79.9656311395313
 10
38.33185657124321
 20
-80.0658059838043
 10
38.56812585456194
 20
-80.17850065107547
 10
38.79817335586421
 20
-80.3034062530951
 10
39.02136853093934
 20
-80.44018043229018
 10
39.23709961732657
 20
-80.58844830014256
 10
39.444775311113396
 20
-80.74780346473244
 10
39.6438263876585
 20
-80.91780914463033
 10
39.833707261796945
 20
-81.09799936608457
 10
40.01389748325118
 20
-81.28788024022302
 10
40.18390316314906
 20
-81.4869313167681
 10
40.343258327738944
 20
-81.69460701055493
 10
40.49152619559133
 20
-81.91033809694217
 10
40.6283003747864
 20
-82.1335332720173
 10
40.75320597680604
 20
-82.36358077331957
 10
40.865900644077215
 20
-82.5998500566383
 10
40.966075488350214
 20
-82.8416935242908
 10
41.053455937339976
 20
-83.08844830014256
 10
41.12780248730955
 20
-83.3394380465047
 10
41.188911359533236
 20
-83.5939748179285
 10
41.236615058839895
 20
-83.85136094681614
 10
41.27078283270558
 20
-84.11089095567904
 10
41.291321029637075
 20
-84.37185349080258
 10
41.29817335586421
 20
-84.6335332720173
  0
LINE
  5
48
330
17
100
AcDbEntity
  8
CUT
100
AcDbLine
 10
34.798173355864215
 20
-79.6335332720173
 30
0.0
 11
36.29817335586421
 21
-79.6335332720173
 31
0.0
  0
LINE
  5
49
330
17
100
AcDbEntity
  8
CUT
100
AcDbLine
 10
34.79817335586421
 20
-109.6335332720173
 30
0.0
 11
34.79817335586421
 21
-79.6335332720173
 31
0.0
  0
LINE
  5
4A
330
17
100
AcDbEntity
  8
CUT
100
AcDbLine
 10
34.79817335586421
 20
-109.6335332720173
 30
0.0
 11
36.29817335586421
 21
-109.6335332720173
 31
0.0
  0
LWPOLYLINE
  5
4B
330
17
100
AcDbEntity
  8
CUT
100
AcDbPolyline
 90
31
 70
0
 10
41.29817335586421
 20
-104.6335332720173
 10
41.291321029637075
 20
-104.89521305323203
 10
41.27078283270558
 20
-105.15617558835557
 10
41.236615058839895
 20
-105.41570559721846
 10
41.188911359533236
 20
-105.6730917261061
 10
41.12780248730955
 20
-105.92762849752991
 10
41.053455937339976
 20
-106.17861824389205
 10
40.966075488350214
 20
-106.4253730197438
 10
40.865900644077215
 20
-106.6672164873963
 10
40.75320597680605
 20
-106.90348577071504
 10
40.6283003747864
 20
-107.1335332720173
 10
40.49152619559133
 20
-107.35672844709244
 10
40.343258327738944
 20
-107.57245953347967
 10
40.18390316314906
 20
-107.78013522726648
 10
40.01389748325118
 20
-107.97918630381159
 10
39.833707261796945
 20
-108.16906717795004
 10
39.6438263876585
 20
-108.34925739940428
 10
39.444775311113396
 20
-108.51926307930215
 10
39.23709961732658
 20
-108.67861824389205
 10
39.02136853093934
 20
-108.82688611174443
 10
38.79817335586421
 20
-108.9636602909395
 10
38.56812585456194
 20
-109.08856589295914
 10
38.33185657124321
 20
-109.20126056023031
 10
38.09001310359071
 20
-109.30143540450331
 10
37.843258327738944
 20
-109.38881585349307
 10
37.592268581376814
 20
-109.46316240346265
 10
37.337731809953006
 20
-109.52427127568633
 10
37.08034568106537
 20
-109.571974974993
 10
36.82081567220247
 20
-109.60614274885867
 10
36.55985313707893
 20
-109.62668094579017
 10
36.29817335586421
 20
-109.6335332720173
  0
LINE
  5
4C
330
17
100
AcDbEntity
  8
CUT
100
AcDbLine
 10
41.29817335586421
 20
-104.6335332720173
 30
0.0
 11
41.29817335586421
 21
-116.40654124925591
 31
0.0
  0
LINE
  5
4D
330
17
100
AcDbEntity
  8
CUT
100
AcDbLine
 10
26.81889929802786
 20
-116.40654124925592
 30
0.0
 11
41.29817335586421
 21
-116.4065412492559
 31
0.0
  0
LINE
  5
4E
330
17
100
AcDbEntity
  8
CUT
100
AcDbLine
 10
19.29817335586422
 20
-103.3802618076271
 30
0.0
 11
26.818899298027905
 21
-116.4065412492559
 31
0.0
  0
LINE
  5
4F
330
17
100
AcDbEntity
  8
CUT
100
AcDbLine
 10
19.29817335586415
 20
-103.38026180762712
 30
0.0
 11
16.267084442618646
 21
-105.13026180762711
 31
0.0
  0
LINE
  5
50
330
17
100
AcDbEntity
  8
CUT
100
AcDbLine
 10
24.7981733558642
 20
-119.9065412492559
 30
0.0
 11
16.267084442618675
 21
-105.13026180762711
 31
0.0
  0
LINE
  5
51
330
17
100
AcDbEntity
  8
CUT
100
AcDbLine
 10
44.79817335586421
 20
-119.90654124925591
 30
0.0
 11
24.798173355864165
 21
-119.90654124925592
 31
0.0
  0
LINE
  5
52
330
17
100
AcDbEntity
  8
CUT
100
AcDbLine
 10
44.7981733558642
 20
-119.90654124925591
 30
0.0
 11
44.7981733558642
 21
-104.6335332720173
 31
0.0
  0
LWPOLYLINE
  5
53
330
17
100
AcDbEntity
  8
CUT
100
AcDbPolyline
 90
31
 70
0
 10
49.79817335586419
 20
-109.6335332720173
 10
49.53649357464948
 20
-109.62668094579017
 10
49.27553103952593
 20
-109.60614274885867
 10
49.01600103066304
 20
-109.571974974993
 10
48.758614901775395
 20
-109.52427127568633
 10
48.504078130351594
 20
-109.46316240346265
 10
48.25308838398946
 20
-109.38881585349307
 10
48.006333608137695
 20
-109.30143540450331
 10
47.764490140485194
 20
-109.20126056023031
 10
47.52822085716646
 20
-109.08856589295914
 10
47.29817335586419
 20
-108.9636602909395
 10
47.07497818078906
 20
-108.82688611174443
 10
46.85924709440183
 20
-108.67861824389205
 10
46.651571400615005
 20
-108.51926307930216
 10
46.4525203240699
 20
-108.34925739940428
 10
46.262639449931456
 20
-108.16906717795004
 10
46.08244922847722
 20
-107.97918630381159
 10
45.91244354857934
 20
-107.7801352272665
 10
45.75308838398946
 20
-107.57245953347967
 10
45.604820516137075
 20
-107.35672844709244
 10
45.468046336942
 20
-107.1335332720173
 10
45.34314073492236
 20
-106.90348577071504
 10
45.23044606765119
 20
-106.6672164873963
 10
45.13027122337819
 20
-106.4253730197438
 10
45.042890774388425
 20
-106.17861824389205
 10
44.96854422441885
 20
-105.92762849752991
 10
44.907435352195165
 20
-105.67309172610611
 10
44.859731652888506
 20
-105.41570559721846
 10
44.82556387902282
 20
-105.15617558835557
 10
44.805025682091326
 20
-104.89521305323203
 10
44.79817335586419
 20
-104.6335332720173
  0
LINE
  5
54
330
17
100
AcDbEntity
  8
CUT
100
AcDbLine
 10
49.79817335586419
 20
-109.6335332720173
 30
0.0
 11
54.79817335586419
 21
-109.6335332720173
 31
0.0
  0
LINE
  5
55
330
17
100
AcDbEntity
  8
CUT
100
AcDbLine
 10
54.79817335586419
 20
-109.6335332720173
 30
0.0
 11
54.79817335586419
 21
-79.6335332720173
 31
0.0
  0
LINE
  5
56
330
17
100
AcDbEntity
  8
CUT
100
AcDbLine
 10
49.79817335586419
 20
-79.6335332720173
 30
0.0
 11
54.79817335586419
 21
-79.6335332720173
 31
0.0
  0
LWPOLYLINE
  5
57
330
17
100
AcDbEntity
  8
CUT
100
AcDbPolyline
 90
31
 70
0
 10
44.79817335586419
 20
-84.6335332720173
 10
44.805025682091326
 20
-84.37185349080258
 10
44.82556387902282
 20
-84.11089095567904
 10
44.859731652888506
 20
-83.85136094681614
 10
44.907435352195165
 20
-83.59397481792851
 10
44.96854422441885
 20
-83.3394380465047
 10
45.042890774388425
 20
-83.08844830014256
 10
45.13027122337819
 20
-82.8416935242908
 10
45.23044606765119
 20
-82.5998500566383
 10
45.34314073492235
 20
-82.36358077331957
 10
45.468046336942
 20
-82.1335332720173
 10
45.604820516137075
 20
-81.91033809694217
 10
45.75308838398946
 20
-81.69460701055493
 10
45.91244354857934
 20
-81.48693131676812
 10
46.08244922847722
 20
-81.28788024022302
 10
46.262639449931456
 20
-81.09799936608457
 10
46.4525203240699
 20
-80.91780914463033
 10
46.651571400615005
 20
-80.74780346473246
 10
46.85924709440182
 20
-80.58844830014256
 10
47.07497818078906
 20
-80.44018043229018
 10
47.29817335586419
 20
-80.3034062530951
 10
47.52822085716646
 20
-80.17850065107547
 10
47.764490140485194
 20
-80.0658059838043
 10
48.006333608137695
 20
-79.9656311395313
 10
48.25308838398946
 20
-79.87825069054153
 10
48.50407813035159
 20
-79.80390414057196
 10
48.758614901775395
 20
-79.74279526834827
 10
49.016001030663034
 20
-79.69509156904161
 10
49.27553103952593
 20
-79.66092379517593
 10
49.53649357464947
 20
-79.64038559824444
 10
49.79817335586419
 20
-79.6335332720173
  0
LINE
  5
58
330
17
100
AcDbEntity
  8
CUT
100
AcDbLine
 10
44.79817335586421
 20
-84.6335332720173
 30
0.0
 11
44.7981733558642
 21
-39.3605252947787
 31
0.0
  0
LINE
  5
59
330
17
100
AcDbEntity
  8
CUT
100
AcDbLine
 10
44.7981733558642
 20
-39.3605252947787
 30
0.0
 11
30.603777422161457
 21
-39.3605252947787
 31
0.0
  0
LINE
  5
5A
330
17
100
AcDbEntity
  8
CUT
100
AcDbLine
 10
30.603777422161457
 20
-37.5
 30
0.0
 11
30.603777422161457
 21
-39.3605252947787
 31
0.0
  0
LWPOLYLINE
  5
5B
330
17
100
AcDbEntity
  8
CUT
100
AcDbPolyline
 90
31
 70
0
 10
45.60377742216146
 20
-22.499999999999996
 10
45.583220443480066
 20
-23.285039343644158
 10
45.52160585268556
 20
-24.067926949014794
 10
45.41910253108853
 20
-24.84651697560346
 10
45.27599143316854
 20
-25.61867536226639
 10
45.09266481649749
 20
-26.382285676537805
 10
44.86962516658876
 20
-27.13525491562421
 10
44.60748381961949
 20
-27.875519243179507
 10
44.30695928680048
 20
-28.601049646136996
 10
43.96887528498698
 20
-29.309857496093198
 10
43.59415847892804
 20
-30.000000000000004
 10
43.18383594134282
 20
-30.6695855252254
 10
42.73903233778567
 20
-31.316778784387093
 10
42.260966844016025
 20
-31.939805865747562
 10
41.750949804322374
 20
-32.53695909538287
 10
41.21037913995967
 20
-33.10660171779821
 10
40.640736517544326
 20
-33.64717238216092
 10
40.04358328790903
 20
-34.15718942185456
 10
39.420556206548554
 20
-34.63525491562421
 10
38.773362947386865
 20
-35.080058519181364
 10
38.103777422161464
 20
-35.49038105676658
 10
37.413634918254665
 20
-35.865097862825515
 10
36.704827068298464
 20
-36.203181864639014
 10
35.979296665340954
 20
-36.50370639745803
 10
35.23903233778567
 20
-36.765847744427305
 10
34.48606309869927
 20
-36.988887394336025
 10
33.72245278442786
 20
-37.172214011007085
 10
32.95029439776492
 20
-37.31532510892706
 10
32.17170437117626
 20
-37.417828430524104
 10
31.388816765805622
 20
-37.47944302131861
 10
30.60377742216146
 20
-37.5
  0
LINE
  5
5C
330
17
100
AcDbEntity
  8
CUT
100
AcDbLine
 10
49.10377742216146
 20
-22.5
 30
0.0
 11
45.60377742216146
 21
-22.5
 31
0.0
  0
LINE
  5
5D
330
17
100
AcDbEntity
  8
CUT
100
AcDbLine
 10
49.10377742216146
 20
22.5
 30
0.0
 11
49.10377742216146
 21
-22.5
 31
0.0
  0
LINE
  5
5E
330
17
100
AcDbEntity
  8
CUT
100
AcDbLine
 10
45.60377742216146
 20
22.5
 30
0.0
 11
49.10377742216146
 21
22.5
 31
0.0
  0
LINE
  5
5F
330
17
100
AcDbEntity
  8
CUT
100
AcDbLine
 10
-24.3236973840349
 20
-40.99999999999999
 30
0.0
 11
24.798173355864158
 21
-40.99999999999999
 31
0.0
  0
LINE
  5
60
330
17
100
AcDbEntity
  8
CUT
100
AcDbLine
 10
24.798173355864158
 20
-40.99999999999999
 30
0.0
 11
24.798173355864158
 21
-69.3605252947787
 31
0.0
  0
LINE
  5
61
330
17
100
AcDbEntity
  8
CUT
100
AcDbLine
 10
-1.1825887576689524
 20
-54.36052529477873
 30
0.0
 11
24.798173355864208
 21
-69.36052529477872
 31
0.0
  0
LINE
  5
62
330
17
100
AcDbEntity
  8
CUT
100
AcDbLine
 10
-1.1825887576689524
 20
-54.36052529477873
 30
0.0
 11
-9.71367767091447
 21
-69.13680473640753
 31
0.0
  0
LWPOLYLINE
  5
63
330
17
100
AcDbEntity
  8
CUT
100
AcDbPolyline
 90
31
 70
0
 10
-9.713677670914468
 20
-69.13680473640753
 10
-10.141240741485651
 20
-69.79519412860107
 10
-10.6352820082173
 20
-70.40528428409897
 10
-11.19038865160632
 20
-70.96039092748798
 10
-11.800478807104207
 20
-71.45443219421963
 10
-12.458868199297756
 20
-71.88199526479082
 10
-13.158343376229254
 20
-72.23839566872704
 10
-13.891240741485651
 20
-72.51972860862118
 10
-14.64953051816456
 20
-72.72291174191106
 10
-15.424904724790355
 20
-72.84571895166958
 10
-16.208868199297754
 20
-72.88680473640753
 10
-16.992831673805156
 20
-72.84571895166958
 10
-17.76820588043095
 20
-72.72291174191108
 10
-18.526495657109862
 20
-72.51972860862118
 10
-19.259393022366257
 20
-72.23839566872704
 10
-19.958868199297758
 20
-71.88199526479082
 10
-20.617257591491306
 20
-71.45443219421963
 10
-21.227347746989192
 20
-70.96039092748799
 10
-21.782454390378213
 20
-70.40528428409897
 10
-22.276495657109862
 20
-69.79519412860108
 10
-22.704058727681044
 20
-69.13680473640753
 10
-23.060459131617264
 20
-68.43732955947603
 10
-23.341792071511406
 20
-67.70443219421963
 10
-23.5449752048013
 20
-66.94614241754073
 10
-23.66778241455981
 20
-66.17076821091493
 10
-23.708868199297758
 20
-65.38680473640753
 10
-23.66778241455981
 20
-64.60284126190012
 10
-23.5449752048013
 20
-63.82746705527433
 10
-23.34179207151141
 20
-63.06917727859542
 10
-23.060459131617264
 20
-62.33627991333903
 10
-22.704058727681048
 20
-61.63680473640753
  0
LINE
  5
64
330
17
100
AcDbEntity
  8
CUT
100
AcDbLine
 10
-19.672969814435568
 20
-63.386804736407505
 30
0.0
 11
-22.704058727681076
 21
-61.63680473640752
 31
0.0
  0
LINE
  5
65
330
17
100
AcDbEntity
  8
CUT
100
AcDbLine
 10
-12.152243872271818
 20
-50.360525294778725
 30
0.0
 11
-19.672969814435497
 21
-63.38680473640754
 31
0.0
  0
LINE
  5
66
330
17
100
AcDbEntity
  8
CUT
100
AcDbLine
 10
2.3270301855644826
 20
-50.36052529477872
 30
0.0
 11
-12.152243872271866
 21
-50.360525294778704
 31
0.0
  0
LINE
  5
67
330
17
100
AcDbEntity
  8
CUT
100
AcDbLine
 10
2.3270301855644817
 20
-51.860525294778704
 30
0.0
 11
2.327030185564482
 21
-50.36052529477871
 31
0.0
  0
LINE
  5
68
330
17
100
AcDbEntity
  8
CUT
100
AcDbLine
 10
5.827030185564478
 20
-51.860525294778704
 30
0.0
 11
2.3270301855644826
 21
-51.860525294778704
 31
0.0
  0
LINE
  5
69
330
17
100
AcDbEntity
  8
CUT
100
AcDbLine
 10
5.827030185564479
 20
-46.86052529477871
 30
0.0
 11
5.827030185564479
 21
-51.860525294778704
 31
0.0
  0
LINE
  5
6A
330
17
100
AcDbEntity
  8
CUT
100
AcDbLine
 10
-14.172969814435564
 20
-46.86052529477871
 30
0.0
 11
5.827030185564477
 21
-46.86052529477871
 31
0.0
  0
LINE
  5
6B
330
17
100
AcDbEntity
  8
CUT
100
AcDbLine
 10
-24.3236973840349
 20
-40.999999999999986
 30
0.0
 11
-14.172969814435532
 21
-46.86052529477873
 31
0.0
  0
LWPOLYLINE
  5
6C
330
17
100
AcDbEntity
  8
CUT
100
AcDbPolyline
 90
31
 70
0
 10
-64.39399961323464
 20
7.5
 10
-63.61003613872724
 20
7.45891421526205
 10
-62.83466193210145
 20
7.336107005503543
 10
-62.07637215542253
 20
7.132923872213652
 10
-61.34347479016614
 20
6.851590932319507
 10
-60.64399961323464
 20
6.495190528383291
 10
-59.98561022104109
 20
6.067627457812106
 10
-59.375520065543206
 20
5.573586191080457
 10
-58.82041342215419
 20
5.018479547691438
 10
-58.32637215542253
 20
4.408389392193549
 10
-57.89880908485135
 20
3.7500000000000036
 10
-57.54240868091514
 20
3.050524823068507
 10
-57.26107574102099
 20
2.3176274578121068
 10
-57.0578926077311
 20
1.559337681133192
 10
-56.93508539797259
 20
0.7839634745074002
 10
-56.89399961323464
 20
1.3777276490407722e-15
 10
-56.93508539797259
 20
-0.7839634745073973
 10
-57.0578926077311
 20
-1.5593376811331892
 10
-57.26107574102099
 20
-2.317627457812104
 10
-57.54240868091513
 20
-3.050524823068498
 10
-57.89880908485135
 20
-3.749999999999995
 10
-58.32637215542253
 20
-4.408389392193547
 10
-58.82041342215418
 20
-5.018479547691434
 10
-59.375520065543206
 20
-5.573586191080457
 10
-59.98561022104109
 20
-6.067627457812105
 10
-60.64399961323464
 20
-6.495190528383291
 10
-61.34347479016614
 20
-6.851590932319508
 10
-62.07637215542253
 20
-7.132923872213651
 10
-62.83466193210145
 20
-7.336107005503543
 10
-63.61003613872723
 20
-7.45891421526205
 10
-64.39399961323464
 20
-7.5
  0
LINE
  5
6D
330
17
100
AcDbEntity
  8
CUT
100
AcDbLine
 10
-64.39399961323464
 20
-7.499999999999972
 30
0.0
 11
-64.39399961323464
 21
-4.000000000000062
 31
0.0
  0
LINE
  5
6E
330
17
100
AcDbEntity
  8
CUT
100
AcDbLine
 10
-104.39399961323464
 20
-4.000000000000014
 30
0.0
 11
-64.39399961323466
 21
-4.000000000000014
 31
0.0
  0
LINE
  5
6F
330
17
100
AcDbEntity
  8
CUT
100
AcDbLine
 10
-104.39399961323468
 20
-7.500000000000028
 30
0.0
 11
-104.39399961323468
 21
-3.999999999999994
 31
0.0
  0
LWPOLYLINE
  5
70
330
17
100
AcDbEntity
  8
CUT
100
AcDbPolyline
 90
31
 70
0
 10
-104.39399961323468
 20
-7.5
 10
-105.17796308774209
 20
-7.45891421526205
 10
-105.95333729436787
 20
-7.336107005503543
 10
-106.71162707104679
 20
-7.132923872213652
 10
-107.44452443630318
 20
-6.851590932319507
 10
-108.14399961323468
 20
-6.495190528383291
 10
-108.80238900542822
 20
-6.067627457812106
 10
-109.41247916092613
 20
-5.573586191080457
 10
-109.96758580431514
 20
-5.018479547691438
 10
-110.46162707104679
 20
-4.408389392193549
 10
-110.88919014161797
 20
-3.7500000000000036
 10
-111.2455905455542
 20
-3.050524823068507
 10
-111.52692348544834
 20
-2.3176274578121068
 10
-111.73010661873823
 20
-1.559337681133192
 10
-111.85291382849674
 20
-0.7839634745074002
 10
-111.89399961323468
 20
-1.3777276490407722e-15
 10
-111.85291382849674
 20
0.7839634745073973
 10
-111.73010661873823
 20
1.5593376811331892
 10
-111.52692348544834
 20
2.317627457812104
 10
-111.2455905455542
 20
3.050524823068498
 10
-110.88919014161797
 20
3.749999999999995
 10
-110.46162707104679
 20
4.408389392193547
 10
-109.96758580431515
 20
5.018479547691434
 10
-109.41247916092613
 20
5.573586191080457
 10
-108.80238900542824
 20
6.067627457812105
 10
-108.14399961323468
 20
6.495190528383291
 10
-107.44452443630318
 20
6.851590932319508
 10
-106.71162707104679
 20
7.132923872213651
 10
-105.95333729436787
 20
7.336107005503543
 10
-105.17796308774209
 20
7.45891421526205
 10
-104.39399961323468
 20
7.5
  0
LINE
  5
71
330
17
100
AcDbEntity
  8
CUT
100
AcDbLine
 10
-104.39399961323468
 20
7.500000000000071
 30
0.0
 11
-104.39399961323468
 21
4.000000000000036
 31
0.0
  0
LINE
  5
72
330
17
100
AcDbEntity
  8
CUT
100
AcDbLine
 10
-64.39399961323466
 20
4.000000000000043
 30
0.0
 11
-104.39399961323464
 21
4.000000000000043
 31
0.0
  0
LINE
  5
73
330
17
100
AcDbEntity
  8
CUT
100
AcDbLine
 10
-64.39399961323464
 20
7.500000000000014
 30
0.0
 11
-64.39399961323464
 21
4.000000000000105
 31
0.0
  0
LINE
  5
74
330
17
100
AcDbEntity
  8
CUT
100
AcDbLine
 10
24.798173355864158
 20
41.0
 30
0.0
 11
-39.39622257783854
 21
41.0
 31
0.0
  0
LINE
  5
75
330
17
100
AcDbEntity
  8
CUT
100
AcDbLine
 10
-39.39622257783854
 20
41.0
 30
0.0
 11
-13.744711828413365
 21
111.47694655894311
 31
0.0
  0
LWPOLYLINE
  5
76
330
17
100
AcDbEntity
  8
CUT
100
AcDbPolyline
 90
31
 70
0
 10
-13.744711828413362
 20
111.47694655894311
 10
-13.530745020478177
 20
112.00212939800211
 10
-13.277707657178414
 20
112.50964383337745
 10
-12.987046432109732
 20
112.9965882466133
 10
-12.660423146230409
 20
113.4601786244917
 10
-12.29970520682652
 20
113.89776447610514
 10
-11.90695495096153
 20
114.30684398654049
 10
-11.484417854451511
 20
114.68507832053587
 10
-11.034509693778949
 20
115.0303049943319
 10
-10.559802734344457
 20
115.34055023926645
 10
-10.063011024022517
 20
115.61404028642619
 10
-9.546974876102542
 20
115.84921150783723
 10
-9.014644630331155
 20
116.04471935621426
 10
-8.469063784898859
 20
116.19944605215721
 10
-7.913351595810804
 20
116.31250697484495
 10
-7.350685243126485
 20
116.38325571968869
 10
-6.784281666029526
 20
116.41128779402882
 10
-6.217379170582156
 20
116.39644292974566
 10
-5.653218915318557
 20
116.33880599956238
 10
-5.095026380529747
 20
116.23870653180114
 10
-4.5459929271858694
 20
116.09671682636677
 10
-4.009257550929295
 20
115.91364868272962
 10
-3.487888935456639
 20
115.69054875861451
 10
-2.984867907896139
 20
115.42869258593183
 10
-2.503070396488443
 20
115.12957727816342
 10
-2.045250988007094
 20
114.79491297089743
 10
-1.6140271789260527
 20
114.42661304444933
 10
-1.2118644103752647
 20
114.02678318446934
 10
-0.8410619724441002
 20
113.59770934308031
 10
-0.5037398584221391
 20
113.14184466937571
 10
-0.20182664413575413
 20
112.6617954840006
  0
LINE
  5
77
330
17
100
AcDbEntity
  8
CUT
100
AcDbLine
 10
-0.2018266441357497
 20
112.6617954840006
 30
0.0
 11
24.79817335586421
 21
69.36052529477872
 31
0.0
  0
LINE
  5
78
330
17
100
AcDbEntity
  8
CUT
100
AcDbLine
 10
24.798173355864158
 20
69.3605252947787
 30
0.0
 11
24.798173355864158
 21
41.0
 31
0.0
  0
LINE
  5
79
330
17
100
AcDbEntity
  8
CUT
100
AcDbLine
 10
32.29817335586425
 20
77.8605252947787
 30
0.0
 11
31.298173355864254
 21
77.8605252947787
 31
0.0
  0
LWPOLYLINE
  5
7A
330
17
100
AcDbEntity
  8
CUT
100
AcDbPolyline
 90
31
 70
0
 10
31.298173355864254
 20
77.86052529477871
 10
31.245837399621312
 20
77.86189576002414
 10
31.193644892596602
 20
77.86600339941043
 10
31.141738890824023
 20
77.87283695418357
 10
31.090261665046494
 20
77.8823776940449
 10
31.039354310761734
 20
77.89459946848964
 10
30.989156361489307
 20
77.90946877848356
 10
30.939805406318953
 20
77.92694486828151
 10
30.891436712788455
 20
77.94697983713611
 10
30.844182856124707
 20
77.96951877059034
 10
30.798173355864254
 20
77.99449989099428
 10
30.753534320849226
 20
78.02185472683328
 10
30.71038810357178
 20
78.05150830040377
 10
30.668852964814416
 20
78.08337933332174
 10
30.6290427495054
 20
78.11738046930131
 10
30.591066574677708
 20
78.15341851359216
 10
30.55502853038686
 20
78.19139468841985
 10
30.521027394407284
 20
78.23120490372887
 10
30.489156361489307
 20
78.27274004248623
 10
30.45950278791883
 20
78.31588625976369
 10
30.432147952079816
 20
78.36052529477871
 10
30.407166831675887
 20
78.40653479503916
 10
30.384627898221655
 20
78.45378865170291
 10
30.364592929367053
 20
78.50215734523341
 10
30.3471168395691
 20
78.55150830040377
 10
30.332247529575184
 20
78.60170624967618
 10
30.320025755130448
 20
78.65261360396094
 10
30.310485015269116
 20
78.70409082973848
 10
30.30365146049598
 20
78.75599683151106
 10
30.29954382110968
 20
78.80818933853577
 10
30.298173355864254
 20
78.86052529477871
  0
LINE
  5
7B
330
17
100
AcDbEntity
  8
CUT
100
AcDbLine
 10
30.298173355864254
 20
78.86052529477871
 30
0.0
 11
30.298173355864236
 21
96.86052529477871
 31
0.0
  0
LWPOLYLINE
  5
7C
330
17
100
AcDbEntity
  8
CUT
100
AcDbPolyline
 90
31
 70
0
 10
30.298173355864236
 20
96.86052529477871
 10
30.299543821109662
 20
96.91286125102165
 10
30.303651460495963
 20
96.96505375804637
 10
30.310485015269098
 20
97.01695975981895
 10
30.32002575513043
 20
97.06843698559646
 10
30.332247529575167
 20
97.11934433988122
 10
30.347116839569082
 20
97.16954228915365
 10
30.364592929367035
 20
97.21889324432401
 10
30.384627898221634
 20
97.26726193785451
 10
30.407166831675866
 20
97.31451579451826
 10
30.432147952079795
 20
97.36052529477871
 10
30.45950278791881
 20
97.40516432979373
 10
30.489156361489286
 20
97.44831054707119
 10
30.521027394407266
 20
97.48984568582854
 10
30.555028530386842
 20
97.52965590113757
 10
30.591066574677686
 20
97.56763207596526
 10
30.629042749505377
 20
97.6036701202561
 10
30.6688529648144
 20
97.63767125623568
 10
30.710388103571763
 20
97.66954228915365
 10
30.75353432084921
 20
97.69919586272414
 10
30.798173355864236
 20
97.72655069856314
 10
30.84418285612469
 20
97.75153181896708
 10
30.891436712788433
 20
97.77407075242131
 10
30.939805406318936
 20
97.79410572127591
 10
30.989156361489286
 20
97.81158181107386
 10
31.039354310761713
 20
97.82645112106778
 10
31.090261665046476
 20
97.83867289551252
 10
31.141738890824005
 20
97.84821363537385
 10
31.19364489259658
 20
97.85504719014699
 10
31.24583739962129
 20
97.85915482953328
 10
31.298173355864236
 20
97.86052529477871
  0
LINE
  5
7D
330
17
100
AcDbEntity
  8
CUT
100
AcDbLine
 10
31.298173355864236
 20
97.86052529477871
 30
0.0
 11
32.298173355864236
 21
97.86052529477871
 31
0.0
  0
LWPOLYLINE
  5
7E
330
17
100
AcDbEntity
  8
CUT
100
AcDbPolyline
 90
31
 70
0
 10
32.298173355864236
 20
97.86052529477871
 10
32.35050931210718
 20
97.85915482953328
 10
32.402701819131885
 20
97.85504719014699
 10
32.454607820904464
 20
97.84821363537385
 10
32.506085046681996
 20
97.83867289551252
 10
32.556992400966756
 20
97.82645112106778
 10
32.60719035023918
 20
97.81158181107386
 10
32.65654130540953
 20
97.79410572127591
 10
32.70490999894003
 20
97.77407075242131
 10
32.75216385560378
 20
97.75153181896708
 10
32.798173355864236
 20
97.72655069856314
 10
32.84281239087926
 20
97.69919586272414
 10
32.885958608156706
 20
97.66954228915365
 10
32.927493746914074
 20
97.63767125623568
 10
32.96730396222309
 20
97.60367012025611
 10
33.00528013705078
 20
97.56763207596526
 10
33.04131818134163
 20
97.52965590113757
 10
33.0753193173212
 20
97.48984568582856
 10
33.10719035023918
 20
97.44831054707119
 10
33.13684392380966
 20
97.40516432979373
 10
33.16419875964868
 20
97.36052529477871
 10
33.189179880052606
 20
97.31451579451826
 10
33.211718813506835
 20
97.26726193785451
 10
33.23175378236144
 20
97.21889324432401
 10
33.24922987215939
 20
97.16954228915365
 10
33.2640991821533
 20
97.11934433988124
 10
33.27632095659804
 20
97.06843698559648
 10
33.28586169645937
 20
97.01695975981895
 10
33.29269525123251
 20
96.96505375804637
 10
33.29680289061881
 20
96.91286125102165
 10
33.298173355864236
 20
96.86052529477871
  0
LINE
  5
7F
330
17
100
AcDbEntity
  8
CUT
100
AcDbLine
 10
33.298173355864236
 20
96.86052529477871
 30
0.0
 11
33.29817335586426
 21
78.86052529477871
 31
0.0
  0
LWPOLYLINE
  5
80
330
17
100
AcDbEntity
  8
CUT
100
AcDbPolyline
 90
31
 70
0
 10
33.29817335586425
 20
78.86052529477871
 10
33.29680289061882
 20
78.80818933853577
 10
33.29269525123252
 20
78.75599683151106
 10
33.285861696459385
 20
78.70409082973848
 10
33.276320956598056
 20
78.65261360396096
 10
33.264099182153316
 20
78.6017062496762
 10
33.249229872159404
 20
78.55150830040377
 10
33.23175378236145
 20
78.50215734523341
 10
33.21171881350685
 20
78.45378865170291
 10
33.18917988005262
 20
78.40653479503916
 10
33.16419875964869
 20
78.36052529477871
 10
33.13684392380968
 20
78.31588625976369
 10
33.1071903502392
 20
78.27274004248623
 10
33.075319317321224
 20
78.23120490372888
 10
33.041318181341644
 20
78.19139468841985
 10
33.005280137050796
 20
78.15341851359216
 10
32.967303962223106
 20
78.11738046930132
 10
32.92749374691409
 20
78.08337933332174
 10
32.88595860815673
 20
78.05150830040377
 10
32.84281239087928
 20
78.02185472683328
 10
32.79817335586425
 20
77.99449989099428
 10
32.7521638556038
 20
77.96951877059034
 10
32.70490999894005
 20
77.94697983713611
 10
32.656541305409554
 20
77.92694486828151
 10
32.6071903502392
 20
77.90946877848356
 10
32.55699240096677
 20
77.89459946848964
 10
32.50608504668201
 20
77.8823776940449
 10
32.454607820904485
 20
77.87283695418357
 10
32.402701819131906
 20
77.86600339941043
 10
32.35050931210719
 20
77.86189576002414
 10
32.29817335586425
 20
77.86052529477871
  0
LINE
  5
81
330
17
100
AcDbEntity
  8
CUT
100
AcDbLine
 10
36.298173355864236
 20
78.86052529477871
 30
0.0
 11
36.298173355864215
 21
96.86052529477871
 31
0.0
  0
LWPOLYLINE
  5
82
330
17
100
AcDbEntity
  8
CUT
100
AcDbPolyline
 90
31
 70
0
 10
36.298173355864215
 20
96.86052529477871
 10
36.299543821109644
 20
96.91286125102165
 10
36.30365146049594
 20
96.96505375804637
 10
36.31048501526908
 20
97.01695975981895
 10
36.32002575513041
 20
97.06843698559646
 10
36.33224752957515
 20
97.11934433988122
 10
36.34711683956906
 20
97.16954228915365
 10
36.364592929367014
 20
97.21889324432401
 10
36.384627898221616
 20
97.26726193785451
 10
36.407166831675845
 20
97.31451579451826
 10
36.432147952079774
 20
97.36052529477871
 10
36.45950278791879
 20
97.40516432979373
 10
36.489156361489265
 20
97.44831054707119
 10
36.52102739440724
 20
97.48984568582854
 10
36.55502853038682
 20
97.52965590113757
 10
36.59106657467767
 20
97.56763207596526
 10
36.62904274950536
 20
97.6036701202561
 10
36.66885296481438
 20
97.63767125623568
 10
36.71038810357174
 20
97.66954228915365
 10
36.753534320849184
 20
97.69919586272414
 10
36.798173355864215
 20
97.72655069856314
 10
36.84418285612467
 20
97.75153181896708
 10
36.89143671278841
 20
97.77407075242131
 10
36.93980540631891
 20
97.79410572127591
 10
36.989156361489265
 20
97.81158181107386
 10
37.039354310761695
 20
97.82645112106778
 10
37.090261665046455
 20
97.83867289551252
 10
37.14173889082398
 20
97.84821363537385
 10
37.19364489259656
 20
97.85504719014699
 10
37.24583739962127
 20
97.85915482953328
 10
37.298173355864215
 20
97.86052529477871
  0
LINE
  5
83
330
17
100
AcDbEntity
  8
CUT
100
AcDbLine
 10
37.298173355864215
 20
97.86052529477871
 30
0.0
 11
38.298173355864215
 21
97.86052529477871
 31
0.0
  0
LWPOLYLINE
  5
84
330
17
100
AcDbEntity
  8
CUT
100
AcDbPolyline
 90
31
 70
0
 10
38.298173355864215
 20
97.86052529477871
 10
38.35050931210716
 20
97.85915482953328
 10
38.40270181913186
 20
97.85504719014699
 10
38.45460782090444
 20
97.84821363537385
 10
38.506085046681974
 20
97.83867289551252
 10
38.556992400966735
 20
97.82645112106778
 10
38.60719035023916
 20
97.81158181107386
 10
38.65654130540951
 20
97.79410572127591
 10
38.70490999894001
 20
97.77407075242131
 10
38.75216385560376
 20
97.75153181896708
 10
38.798173355864215
 20
97.72655069856314
 10
38.84281239087924
 20
97.69919586272414
 10
38.885958608156685
 20
97.66954228915365
 10
38.92749374691405
 20
97.63767125623568
 10
38.96730396222307
 20
97.60367012025611
 10
39.00528013705076
 20
97.56763207596526
 10
39.04131818134161
 20
97.52965590113757
 10
39.07531931732118
 20
97.48984568582856
 10
39.107190350239165
 20
97.44831054707119
 10
39.136843923809636
 20
97.40516432979373
 10
39.164198759648656
 20
97.36052529477871
 10
39.189179880052585
 20
97.31451579451826
 10
39.21171881350681
 20
97.26726193785451
 10
39.231753782361416
 20
97.21889324432401
 10
39.24922987215937
 20
97.16954228915365
 10
39.26409918215328
 20
97.11934433988124
 10
39.27632095659802
 20
97.06843698559648
 10
39.28586169645935
 20
97.01695975981895
 10
39.29269525123249
 20
96.96505375804637
 10
39.296802890618785
 20
96.91286125102165
 10
39.298173355864215
 20
96.86052529477871
  0
LINE
  5
85
330
17
100
AcDbEntity
  8
CUT
100
AcDbLine
 10
39.298173355864215
 20
96.86052529477871
 30
0.0
 11
39.298173355864236
 21
78.86052529477871
 31
0.0
  0
LWPOLYLINE
  5
86
330
17
100
AcDbEntity
  8
CUT
100
AcDbPolyline
 90
31
 70
0
 10
39.298173355864236
 20
78.86052529477871
 10
39.29680289061881
 20
78.80818933853577
 10
39.29269525123251
 20
78.75599683151106
 10
39.28586169645937
 20
78.70409082973848
 10
39.27632095659804
 20
78.65261360396096
 10
39.2640991821533
 20
78.6017062496762
 10
39.24922987215939
 20
78.55150830040377
 10
39.23175378236144
 20
78.50215734523341
 10
39.211718813506835
 20
78.45378865170291
 10
39.189179880052606
 20
78.40653479503916
 10
39.16419875964868
 20
78.36052529477871
 10
39.136843923809664
 20
78.31588625976369
 10
39.107190350239186
 20
78.27274004248623
 10
39.07531931732121
 20
78.23120490372888
 10
39.04131818134163
 20
78.19139468841985
 10
39.00528013705078
 20
78.15341851359216
 10
38.96730396222309
 20
78.11738046930132
 10
38.927493746914074
 20
78.08337933332174
 10
38.88595860815671
 20
78.05150830040377
 10
38.84281239087927
 20
78.02185472683328
 10
38.798173355864236
 20
77.99449989099428
 10
38.75216385560378
 20
77.96951877059034
 10
38.70490999894004
 20
77.94697983713611
 10
38.65654130540954
 20
77.92694486828151
 10
38.607190350239186
 20
77.90946877848356
 10
38.556992400966756
 20
77.89459946848964
 10
38.506085046681996
 20
77.8823776940449
 10
38.45460782090447
 20
77.87283695418357
 10
38.40270181913189
 20
77.86600339941043
 10
38.350509312107185
 20
77.86189576002414
 10
38.298173355864236
 20
77.86052529477871
  0
LINE
  5
87
330
17
100
AcDbEntity
  8
CUT
100
AcDbLine
 10
38.298173355864236
 20
77.86052529477871
 30
0.0
 11
37.298173355864236
 21
77.86052529477871
 31
0.0
  0
LWPOLYLINE
  5
88
330
17
100
AcDbEntity
  8
CUT
100
AcDbPolyline
 90
31
 70
0
 10
37.298173355864236
 20
77.86052529477871
 10
37.245837399621294
 20
77.86189576002414
 10
37.19364489259659
 20
77.86600339941043
 10
37.14173889082401
 20
77.87283695418357
 10
37.09026166504648
 20
77.8823776940449
 10
37.039354310761716
 20
77.89459946848964
 10
36.98915636148929
 20
77.90946877848356
 10
36.93980540631894
 20
77.92694486828151
 10
36.89143671278844
 20
77.94697983713611
 10
36.84418285612469
 20
77.96951877059034
 10
36.798173355864236
 20
77.99449989099428
 10
36.75353432084921
 20
78.02185472683328
 10
36.710388103571766
 20
78.05150830040377
 10
36.6688529648144
 20
78.08337933332174
 10
36.62904274950538
 20
78.11738046930131
 10
36.59106657467769
 20
78.15341851359216
 10
36.55502853038684
 20
78.19139468841985
 10
36.52102739440727
 20
78.23120490372887
 10
36.48915636148929
 20
78.27274004248623
 10
36.459502787918815
 20
78.31588625976369
 10
36.432147952079795
 20
78.36052529477871
 10
36.407166831675866
 20
78.40653479503916
 10
36.38462789822164
 20
78.45378865170291
 10
36.364592929367035
 20
78.50215734523341
 10
36.34711683956908
 20
78.55150830040377
 10
36.33224752957517
 20
78.60170624967618
 10
36.32002575513043
 20
78.65261360396094
 10
36.3104850152691
 20
78.70409082973848
 10
36.30365146049596
 20
78.75599683151106
 10
36.299543821109665
 20
78.80818933853577
 10
36.298173355864236
 20
78.86052529477871
  0
LINE
  5
89
330
17
100
AcDbEntity
  8
CUT
100
AcDbLine
 10
-13.744711828413365
 20
-111.4769465589431
 30
0.0
 11
-16.801739837523012
 21
-103.07783113327403
 31
0.0
  0
LINE
  5
8A
330
17
100
AcDbEntity
  8
CUT
100
AcDbLine
 10
-16.801739837523023
 20
-103.07783113327403
 30
0.0
 11
-0.2018266441357497
 21
-112.66179548400059
 31
0.0
  0
LWPOLYLINE
  5
8B
330
17
100
AcDbEntity
  8
CUT
100
AcDbPolyline
 90
31
 70
0
 10
-0.20182664413575502
 20
-112.6617954840006
 10
-0.50373985842214
 20
-113.14184466937571
 10
-0.8410619724441011
 20
-113.59770934308031
 10
-1.2118644103752665
 20
-114.02678318446934
 10
-1.6140271789260527
 20
-114.42661304444933
 10
-2.045250988007096
 20
-114.79491297089743
 10
-2.503070396488445
 20
-115.12957727816342
 10
-2.98486790789614
 20
-115.42869258593183
 10
-3.487888935456639
 20
-115.69054875861451
 10
-4.009257550929295
 20
-115.91364868272962
 10
-4.5459929271858694
 20
-116.09671682636677
 10
-5.095026380529747
 20
-116.23870653180114
 10
-5.653218915318556
 20
-116.33880599956238
 10
-6.217379170582156
 20
-116.39644292974566
 10
-6.784281666029526
 20
-116.41128779402882
 10
-7.350685243126485
 20
-116.38325571968869
 10
-7.913351595810804
 20
-116.31250697484495
 10
-8.469063784898857
 20
-116.19944605215721
 10
-9.014644630331155
 20
-116.04471935621426
 10
-9.546974876102542
 20
-115.84921150783723
 10
-10.063011024022515
 20
-115.6140402864262
 10
-10.559802734344455
 20
-115.34055023926645
 10
-11.034509693778947
 20
-115.0303049943319
 10
-11.484417854451511
 20
-114.68507832053587
 10
-11.90695495096153
 20
-114.30684398654049
 10
-12.29970520682652
 20
-113.89776447610514
 10
-12.660423146230407
 20
-113.4601786244917
 10
-12.987046432109729
 20
-112.9965882466133
 10
-13.277707657178413
 20
-112.50964383337745
 10
-13.530745020478177
 20
-112.00212939800211
 10
-13.744711828413362
 20
-111.47694655894311
  0
LINE
  5
8C
330
17
100
AcDbEntity
  8
FOLD
  6
DASHED
100
AcDbLine
 10
64.7981733558642
 20
-79.497029283398
 30
0.0
 11
-134.39325862503335
 21
-79.497029283398
 31
0.0
  0
LINE
  5
8D
330
17
100
AcDbEntity
  8
FOLD
  6
DASHED
100
AcDbLine
 10
-134.39325862503335
 20
79.497029283398
 30
0.0
 11
64.7981733558642
 21
79.497029283398
 31
0.0
  0
LINE
  5
8E
330
17
100
AcDbEntity
  8
FOLD
  6
DASHED
100
AcDbLine
 10
64.7981733558642
 20
-109.77003726063661
 30
0.0
 11
-134.39325862503335
 21
-109.77003726063661
 31
0.0
  0
ENDSEC
  0
SECTION
  2
OBJECTS
  0
DICTIONARY
  5
A
330
0
100
AcDbDictionary
281
1
  3
ACAD_COLOR
350
B
  3
ACAD_GROUP
350
C
  3
ACAD_LAYOUT
350
D
  3
ACAD_MATERIAL
350
E
  3
ACAD_MLEADERSTYLE
350
F
  3
ACAD_MLINESTYLE
350
10
  3
ACAD_PLOTSETTINGS
350
11
  3
ACAD_PLOTSTYLENAME
350
12
  3
ACAD_SCALELIST
350
14
  3
ACAD_TABLESTYLE
350
15
  3
ACAD_VISUALSTYLE
350
16
  3
EZDXF_META
350
2D
  0
DICTIONARY
  5
B
330
A
100
AcDbDictionary
281
1
  0
DICTIONARY
  5
C
330
A
100
AcDbDictionary
281
1
  0
DICTIONARY
  5
D
330
A
100
AcDbDictionary
281
1
  3
Model
350
1A
  3
Layout1
350
1E
  0
DICTIONARY
  5
E
330
A
100
AcDbDictionary
281
1
  3
ByBlock
350
1F
  3
ByLayer
350
20
  3
Global
350
21
  0
DICTIONARY
  5
F
330
A
100
AcDbDictionary
281
1
  3
Standard
350
2C
  0
DICTIONARY
  5
10
330
A
100
AcDbDictionary
281
1
  3
Standard
350
22
  0
DICTIONARY
  5
11
330
A
100
AcDbDictionary
281
1
  0
ACDBDICTIONARYWDFLT
  5
12
330
A
100
AcDbDictionary
281
1
  3
Normal
350
13
100
AcDbDictionaryWithDefault
340
13
  0
ACDBPLACEHOLDER
  5
13
330
12
  0
DICTIONARY
  5
14
330
A
100
AcDbDictionary
281
1
  0
DICTIONARY
  5
15
330
A
100
AcDbDictionary
281
1
  0
DICTIONARY
  5
16
330
A
100
AcDbDictionary
281
1
  0
LAYOUT
  5
1A
330
D
100
AcDbPlotSettings
  1

  4
A3
  6

 40
7.5
 41
20.0
 42
7.5
 43
20.0
 44
420.0
 45
297.0
 46
0.0
 47
0.0
 48
0.0
 49
0.0
140
0.0
141
0.0
142
1.0
143
1.0
 70
1024
 72
1
 73
0
 74
5
  7

 75
16
 76
0
 77
2
 78
300
147
1.0
148
0.0
149
0.0
100
AcDbLayout
  1
Model
 70
1
 71
0
 10
0.0
 20
0.0
 11
420.0
 21
297.0
 12
0.0
 22
0.0
 32
0.0
 14
1e+20
 24
1e+20
 34
1e+20
 15
-1e+20
 25
-1e+20
 35
-1e+20
146
0.0
 13
0.0
 23
0.0
 33
0.0
 16
1.0
 26
0.0
 36
0.0
 17
0.0
 27
1.0
 37
0.0
 76
1
330
17
  0
LAYOUT
  5
1E
330
D
100
AcDbPlotSettings
  1

  4
A3
  6

 40
7.5
 41
20.0
 42
7.5
 43
20.0
 44
420.0
 45
297.0
 46
0.0
 47
0.0
 48
0.0
 49
0.0
140
0.0
141
0.0
142
1.0
143
1.0
 70
0
 72
1
 73
0
 74
5
  7

 75
16
 76
0
 77
2
 78
300
147
1.0
148
0.0
149
0.0
100
AcDbLayout
  1
Layout1
 70
1
 71
1
 10
0.0
 20
0.0
 11
420.0
 21
297.0
 12
0.0
 22
0.0
 32
0.0
 14
1e+20
 24
1e+20
 34
1e+20
 15
-1e+20
 25
-1e+20
 35
-1e+20
146
0.0
 13
0.0
 23
0.0
 33
0.0
 16
1.0
 26
0.0
 36
0.0
 17
0.0
 27
1.0
 37
0.0
 76
1
330
1B
  0
MATERIAL
  5
1F
102
{ACAD_REACTORS
330
E
102
}
330
E
100
AcDbMaterial
  1
ByBlock
  2

 70
0
 40
1.0
 71
1
 41
1.0
 91
-1023410177
 42
1.0
 72
1
  3

 73
1
 74
1
 75
1
 44
0.5
 73
0
 45
1.0
 46
1.0
 77
1
  4

 78
1
 79
1
170
1
 48
1.0
171
1
  6

172
1
173
1
174
1
140
1.0
141
1.0
175
1
  7

176
1
177
1
178
1
143
1.0
179
1
  8

270
1
271
1
272
1
145
1.0
146
1.0
273
1
  9

274
1
275
1
276
1
 42
1.0
 72
1
  3

 73
1
 74
1
 75
1
 94
63
  0
MATERIAL
  5
20
102
{ACAD_REACTORS
330
E
102
}
330
E
100
AcDbMaterial
  1
ByLayer
  2

 70
0
 40
1.0
 71
1
 41
1.0
 91
-1023410177
 42
1.0
 72
1
  3

 73
1
 74
1
 75
1
 44
0.5
 73
0
 45
1.0
 46
1.0
 77
1
  4

 78
1
 79
1
170
1
 48
1.0
171
1
  6

172
1
173
1
174
1
140
1.0
141
1.0
175
1
  7

176
1
177
1
178
1
143
1.0
179
1
  8

270
1
271
1
272
1
145
1.0
146
1.0
273
1
  9

274
1
275
1
276
1
 42
1.0
 72
1
  3

 73
1
 74
1
 75
1
 94
63
  0
MATERIAL
  5
21
102
{ACAD_REACTORS
330
E
102
}
330
E
100
AcDbMaterial
  1
Global
  2

 70
0
 40
1.0
 71
1
 41
1.0
 91
-1023410177
 42
1.0
 72
1
  3

 73
1
 74
1
 75
1
 44
0.5
 73
0
 45
1.0
 46
1.0
 77
1
  4

 78
1
 79
1
170
1
 48
1.0
171
1
  6

172
1
173
1
174
1
140
1.0
141
1.0
175
1
  7

176
1
177
1
178
1
143
1.0
179
1
  8

270
1
271
1
272
1
145
1.0
146
1.0
273
1
  9

274
1
275
1
276
1
 42
1.0
 72
1
  3

 73
1
 74
1
 75
1
 94
63
  0
MLINESTYLE
  5
22
102
{ACAD_REACTORS
330
10
102
}
330
10
100
AcDbMlineStyle
  2
Standard
 70
0
  3

 62
256
 51
90.0
 52
90.0
 71
2
 49
0.5
 62
256
  6
BYLAYER
 49
-0.5
 62
256
  6
BYLAYER
  0
MLEADERSTYLE
  5
2C
102
{ACAD_REACTORS
330
F
102
}
330
F
100
AcDbMLeaderStyle
179
2
170
2
171
1
172
0
 90
2
 40
0.0
 41
0.0
173
1
 91
-1056964608
 92
-2
290
1
 42
2.0
291
1
 43
8.0
  3
Standard
 44
4.0
300

342
29
174
1
175
1
176
0
178
1
 93
-1056964608
 45
4.0
292
0
297
0
 46
4.0
 94
-1056964608
 47
1.0
 49
1.0
140
1.0
294
1
141
0.0
177
0
142
1.0
295
0
296
0
143
3.75
271
0
272
9
273
9
  0
DICTIONARY
  5
2D
330
A
100
AcDbDictionary
280
1
281
1
  3
CREATED_BY_EZDXF
350
2E
  3
WRITTEN_BY_EZDXF
350
91
  0
DICTIONARYVAR
  5
2E
330
2D
100
DictionaryVariables
280
0
  1
1.4.4 @ 2026-07-16T18:35:38.195392+00:00
  0
DICTIONARYVAR
  5
91
330
2D
100
DictionaryVariables
280
0
  1
1.4.4 @ 2026-07-16T18:35:38.205253+00:00
  0
ENDSEC
  0
EOF
