  0
SECTION
  2
HEADER
  9
$ACADVER
  1
AC1024
  9
$ACADMAINTVER
 70
6
  9
$DWGCODEPAGE
  3
ANSI_1252
  9
$LASTSAVEDBY
  1
ezdxf
  9
$INSBASE
 10
0.0
 20
0.0
 30
0.0
  9
$EXTMIN
 10
1e+20
 20
1e+20
 30
1e+20
  9
$EXTMAX
 10
-1e+20
 20
-1e+20
 30
-1e+20
  9
$LIMMIN
 10
0.0
 20
0.0
  9
$LIMMAX
 10
420.0
 20
297.0
  9
$ORTHOMODE
 70
0
  9
$REGENMODE
 70
1
  9
$FILLMODE
 70
1
  9
$QTEXTMODE
 70
0
  9
$MIRRTEXT
 70
1
  9
$LTSCALE
 40
1.0
  9
$ATTMODE
 70
1
  9
$TEXTSIZE
 40
2.5
  9
$TRACEWID
 40
1.0
  9
$TEXTSTYLE
  7
Standard
  9
$CLAYER
  8
0
  9
$CELTYPE
  6
ByLayer
  9
$CECOLOR
 62
256
  9
$CELTSCALE
 40
1.0
  9
$DISPSILH
 70
0
  9
$DIMSCALE
 40
1.0
  9
$DIMASZ
 40
2.5
  9
$DIMEXO
 40
0.625
  9
$DIMDLI
 40
3.75
  9
$DIMRND
 40
0.0
  9
$DIMDLE
 40
0.0
  9
$DIMEXE
 40
1.25
  9
$DIMTP
 40
0.0
  9
$DIMTM
 40
0.0
  9
$DIMTXT
 40
2.5
  9
$DIMCEN
 40
2.5
  9
$DIMTSZ
 40
0.0
  9
$DIMTOL
 70
0
  9
$DIMLIM
 70
0
  9
$DIMTIH
 70
0
  9
$DIMTOH
 70
0
  9
$DIMSE1
 70
0
  9
$DIMSE2
 70
0
  9
$DIMTAD
 70
1
  9
$DIMZIN
 70
8
  9
$DIMBLK
  1

  9
$DIMASO
 70
1
  9
$DIMSHO
 70
1
  9
$DIMPOST
  1

  9
$DIMAPOST
  1

  9
$DIMALT
 70
0
  9
$DIMALTD
 70
3
  9
$DIMALTF
 40
0.03937007874
  9
$DIMLFAC
 40
1.0
  9
$DIMTOFL
 70
1
  9
$DIMTVP
 40
0.0
  9
$DIMTIX
 70
0
  9
$DIMSOXD
 70
0
  9
$DIMSAH
 70
0
  9
$DIMBLK1
  1

  9
$DIMBLK2
  1

  9
$DIMSTYLE
  2
ISO-25
  9
$DIMCLRD
 70
0
  9
$DIMCLRE
 70
0
  9
$DIMCLRT
 70
0
  9
$DIMTFAC
 40
1.0
  9
$DIMGAP
 40
0.625
  9
$DIMJUST
 70
0
  9
$DIMSD1
 70
0
  9
$DIMSD2
 70
0
  9
$DIMTOLJ
 70
0
  9
$DIMTZIN
 70
8
  9
$DIMALTZ
 70
0
  9
$DIMALTTZ
 70
0
  9
$DIMUPT
 70
0
  9
$DIMDEC
 70
2
  9
$DIMTDEC
 70
2
  9
$DIMALTU
 70
2
  9
$DIMALTTD
 70
3
  9
$DIMTXSTY
  7
Standard
  9
$DIMAUNIT
 70
0
  9
$DIMADEC
 70
0
  9
$DIMALTRND
 40
0.0
  9
$DIMAZIN
 70
0
  9
$DIMDSEP
 70
44
  9
$DIMATFIT
 70
3
  9
$DIMFRAC
 70
0
  9
$DIMLDRBLK
  1

  9
$DIMLUNIT
 70
2
  9
$DIMLWD
 70
-2
  9
$DIMLWE
 70
-2
  9
$DIMTMOVE
 70
0
  9
$DIMFXL
 40
1.0
  9
$DIMFXLON
 70
0
  9
$DIMJOGANG
 40
0.785398163397
  9
$DIMTFILL
 70
0
  9
$DIMTFILLCLR
 70
0
  9
$DIMARCSYM
 70
0
  9
$DIMLTYPE
  6

  9
$DIMLTEX1
  6

  9
$DIMLTEX2
  6

  9
$DIMTXTDIRECTION
 70
0
  9
$LUNITS
 70
2
  9
$LUPREC
 70
4
  9
$SKETCHINC
 40
1.0
  9
$FILLETRAD
 40
10.0
  9
$AUNITS
 70
0
  9
$AUPREC
 70
2
  9
$MENU
  1
.
  9
$ELEVATION
 40
0.0
  9
$PELEVATION
 40
0.0
  9
$THICKNESS
 40
0.0
  9
$LIMCHECK
 70
0
  9
$CHAMFERA
 40
0.0
  9
$CHAMFERB
 40
0.0
  9
$CHAMFERC
 40
0.0
  9
$CHAMFERD
 40
0.0
  9
$SKPOLY
 70
0
  9
$TDCREATE
 40
2461244.599988426
  9
$TDUCREATE
 40
2458532.153996898
  9
$TDUPDATE
 40
2461244.599988426
  9
$TDUUPDATE
 40
2458532.1544311
  9
$TDINDWG
 40
0.0
  9
$TDUSRTIMER
 40
0.0
  9
$USRTIMER
 70
1
  9
$ANGBASE
 50
0.0
  9
$ANGDIR
 70
0
  9
$PDMODE
 70
0
  9
$PDSIZE
 40
0.0
  9
$PLINEWID
 40
0.0
  9
$SPLFRAME
 70
0
  9
$SPLINETYPE
 70
6
  9
$SPLINESEGS
 70
8
  9
$HANDSEED
  5
40
  9
$SURFTAB1
 70
6
  9
$SURFTAB2
 70
6
  9
$SURFTYPE
 70
6
  9
$SURFU
 70
6
  9
$SURFV
 70
6
  9
$UCSBASE
  2

  9
$UCSNAME
  2

  9
$UCSORG
 10
0.0
 20
0.0
 30
0.0
  9
$UCSXDIR
 10
1.0
 20
0.0
 30
0.0
  9
$UCSYDIR
 10
0.0
 20
1.0
 30
0.0
  9
$UCSORTHOREF
  2

  9
$UCSORTHOVIEW
 70
0
  9
$UCSORGTOP
 10
0.0
 20
0.0
 30
0.0
  9
$UCSORGBOTTOM
 10
0.0
 20
0.0
 30
0.0
  9
$UCSORGLEFT
 10
0.0
 20
0.0
 30
0.0
  9
$UCSORGRIGHT
 10
0.0
 20
0.0
 30
0.0
  9
$UCSORGFRONT
 10
0.0
 20
0.0
 30
0.0
  9
$UCSORGBACK
 10
0.0
 20
0.0
 30
0.0
  9
$PUCSBASE
  2

  9
$PUCSNAME
  2

  9
$PUCSORG
 10
0.0
 20
0.0
 30
0.0
  9
$PUCSXDIR
 10
1.0
 20
0.0
 30
0.0
  9
$PUCSYDIR
 10
0.0
 20
1.0
 30
0.0
  9
$PUCSORTHOREF
  2

  9
$PUCSORTHOVIEW
 70
0
  9
$PUCSORGTOP
 10
0.0
 20
0.0
 30
0.0
  9
$PUCSORGBOTTOM
 10
0.0
 20
0.0
 30
0.0
  9
$PUCSORGLEFT
 10
0.0
 20
0.0
 30
0.0
  9
$PUCSORGRIGHT
 10
0.0
 20
0.0
 30
0.0
  9
$PUCSORGFRONT
 10
0.0
 20
0.0
 30
0.0
  9
$PUCSORGBACK
 10
0.0
 20
0.0
 30
0.0
  9
$USERI1
 70
0
  9
$USERI2
 70
0
  9
$USERI3
 70
0
  9
$USERI4
 70
0
  9
$USERI5
 70
0
  9
$USERR1
 40
0.0
  9
$USERR2
 40
0.0
  9
$USERR3
 40
0.0
  9
$USERR4
 40
0.0
  9
$USERR5
 40
0.0
  9
$WORLDVIEW
 70
1
  9
$SHADEDGE
 70
3
  9
$SHADEDIF
 70
70
  9
$TILEMODE
 70
1
  9
$MAXACTVP
 70
64
  9
$PINSBASE
 10
0.0
 20
0.0
 30
0.0
  9
$PLIMCHECK
 70
0
  9
$PEXTMIN
 10
1e+20
 20
1e+20
 30
1e+20
  9
$PEXTMAX
 10
-1e+20
 20
-1e+20
 30
-1e+20
  9
$PLIMMIN
 10
0.0
 20
0.0
  9
$PLIMMAX
 10
420.0
 20
297.0
  9
$UNITMODE
 70
0
  9
$VISRETAIN
 70
1
  9
$PLINEGEN
 70
0
  9
$PSLTSCALE
 70
1
  9
$TREEDEPTH
 70
3020
  9
$CMLSTYLE
  2
Standard
  9
$CMLJUST
 70
0
  9
$CMLSCALE
 40
20.0
  9
$PROXYGRAPHICS
 70
1
  9
$MEASUREMENT
 70
1
  9
$CELWEIGHT
370
-1
  9
$ENDCAPS
280
0
  9
$JOINSTYLE
280
0
  9
$LWDISPLAY
290
0
  9
$INSUNITS
 70
6
  9
$HYPERLINKBASE
  1

  9
$STYLESHEET
  1

  9
$XEDIT
290
1
  9
$CEPSNTYPE
380
0
  9
$PSTYLEMODE
290
1
  9
$FINGERPRINTGUID
  2
{EE94F122-E966-4970-BF05-C7989262C36D}
  9
$VERSIONGUID
  2
{05F5CC83-8DAF-4345-A821-A9CACB648CDF}
  9
$EXTNAMES
290
1
  9
$PSVPSCALE
 40
0.0
  9
$OLESTARTUP
290
0
  9
$SORTENTS
280
127
  9
$INDEXCTL
280
0
  9
$HIDETEXT
280
1
  9
$XCLIPFRAME
280
1
  9
$HALOGAP
280
0
  9
$OBSCOLOR
 70
257
  9
$OBSLTYPE
280
0
  9
$INTERSECTIONDISPLAY
280
0
  9
$INTERSECTIONCOLOR
 70
257
  9
$DIMASSOC
280
2
  9
$PROJECTNAME
  1

  9
$CAMERADISPLAY
290
0
  9
$LENSLENGTH
 40
50.0
  9
$CAMERAHEIGHT
 40
0.0
  9
$STEPSPERSEC
 40
24.0
  9
$STEPSIZE
 40
100.0
  9
$3DDWFPREC
 40
2.0
  9
$PSOLWIDTH
 40
0.005
  9
$PSOLHEIGHT
 40
0.08
  9
$LOFTANG1
 40
1.570796326795
  9
$LOFTANG2
 40
1.570796326795
  9
$LOFTMAG1
 40
0.0
  9
$LOFTMAG2
 40
0.0
  9
$LOFTPARAM
 70
7
  9
$LOFTNORMALS
280
1
  9
$LATITUDE
 40
37.795
  9
$LONGITUDE
 40
-122.394
  9
$NORTHDIRECTION
 40
0.0
  9
$TIMEZONE
 70
-8000
  9
$LIGHTGLYPHDISPLAY
280
1
  9
$TILEMODELIGHTSYNCH
280
1
  9
$CMATERIAL
347
20
  9
$SOLIDHIST
280
0
  9
$SHOWHIST
280
1
  9
$DWFFRAME
280
2
  9
$DGNFRAME
280
2
  9
$REALWORLDSCALE
290
1
  9
$INTERFERECOLOR
 62
256
  9
$CSHADOW
280
0
  9
$SHADOWPLANELOCATION
 40
0.0
  0
ENDSEC
  0
SECTION
  2
CLASSES
  0
CLASS
  1
ACDBDICTIONARYWDFLT
  2
AcDbDictionaryWithDefault
  3
ObjectDBX Classes
 90
0
 91
0
280
0
281
0
  0
CLASS
  1
SUN
  2
AcDbSun
  3
SCENEOE
 90
1153
 91
0
280
0
281
0
  0
CLASS
  1
VISUALSTYLE
  2
AcDbVisualStyle
  3
ObjectDBX Classes
 90
4095
 91
0
280
0
281
0
  0
CLASS
  1
MATERIAL
  2
AcDbMaterial
  3
ObjectDBX Classes
 90
1153
 91
0
280
0
281
0
  0
CLASS
  1
SCALE
  2
AcDbScale
  3
ObjectDBX Classes
 90
1153
 91
0
280
0
281
0
  0
CLASS
  1
TABLESTYLE
  2
AcDbTableStyle
  3
ObjectDBX Classes
 90
4095
 91
0
280
0
281
0
  0
CLASS
  1
MLEADERSTYLE
  2
AcDbMLeaderStyle
  3
ACDB_MLEADERSTYLE_CLASS
 90
4095
 91
0
280
0
281
0
  0
CLASS
  1
DICTIONARYVAR
  2
AcDbDictionaryVar
  3
ObjectDBX Classes
 90
0
 91
0
280
0
281
0
  0
CLASS
  1
CELLSTYLEMAP
  2
AcDbCellStyleMap
  3
ObjectDBX Classes
 90
1152
 91
0
280
0
281
0
  0
CLASS
  1
MENTALRAYRENDERSETTINGS
  2
AcDbMentalRayRenderSettings
  3
SCENEOE
 90
1024
 91
0
280
0
281
0
  0
CLASS
  1
ACDBDETAILVIEWSTYLE
  2
AcDbDetailViewStyle
  3
ObjectDBX Classes
 90
1025
 91
0
280
0
281
0
  0
CLASS
  1
ACDBSECTIONVIEWSTYLE
  2
AcDbSectionViewStyle
  3
ObjectDBX Classes
 90
1025
 91
0
280
0
281
0
  0
CLASS
  1
RASTERVARIABLES
  2
AcDbRasterVariables
  3
ISM
 90
0
 91
0
280
0
281
0
  0
CLASS
  1
LAYOUT
  2
AcDbLayout
  3
ObjectDBX Classes
 90
0
 91
0
280
0
281
0
  0
CLASS
  1
ACDBPLACEHOLDER
  2
AcDbPlaceHolder
  3
ObjectDBX Classes
 90
0
 91
0
280
0
281
0
  0
ENDSEC
  0
SECTION
  2
TABLES
  0
TABLE
  2
VPORT
  5
8
330
0
100
AcDbSymbolTable
 70
1
  0
VPORT
  5
23
330
8
100
AcDbSymbolTableRecord
100
AcDbViewportTableRecord
  2
*Active
 70
0
 10
0.0
 20
0.0
 11
1.0
 21
1.0
 12
0.0
 22
0.0
 13
0.0
 23
0.0
 14
0.5
 24
0.5
 15
0.5
 25
0.5
 16
0.0
 26
0.0
 36
1.0
 17
0.0
 27
0.0
 37
0.0
 40
1000.0
 41
1.34
 42
50.0
 43
0.0
 44
0.0
 50
0.0
 51
0.0
 71
0
 72
1000
 73
1
 74
3
 75
0
 76
0
 77
0
 78
0
281
0
 65
0
146
0.0
  0
ENDTAB
  0
TABLE
  2
LTYPE
  5
2
330
0
100
AcDbSymbolTable
 70
3
  0
LTYPE
  5
24
330
2
100
AcDbSymbolTableRecord
100
AcDbLinetypeTableRecord
  2
ByBlock
 70
0
  3

 72
65
 73
0
 40
0.0
  0
LTYPE
  5
25
330
2
100
AcDbSymbolTableRecord
100
AcDbLinetypeTableRecord
  2
ByLayer
 70
0
  3

 72
65
 73
0
 40
0.0
  0
LTYPE
  5
26
330
2
100
AcDbSymbolTableRecord
100
AcDbLinetypeTableRecord
  2
Continuous
 70
0
  3

 72
65
 73
0
 40
0.0
  0
ENDTAB
  0
TABLE
  2
LAYER
  5
1
330
0
100
AcDbSymbolTable
 70
4
  0
LAYER
  5
27
330
1
100
AcDbSymbolTableRecord
100
AcDbLayerTableRecord
  2
0
 70
0
 62
7
  6
Continuous
370
-3
390
13
347
21
  0
LAYER
  5
28
330
1
100
AcDbSymbolTableRecord
100
AcDbLayerTableRecord
  2
Defpoints
 70
0
 62
7
  6
Continuous
290
0
370
-3
390
13
347
21
  0
LAYER
  5
2F
330
1
100
AcDbSymbolTableRecord
100
AcDbLayerTableRecord
  2
CUT
 70
0
 62
3
  6
Continuous
370
-3
390
13
347
21
  0
LAYER
  5
30
330
1
100
AcDbSymbolTableRecord
100
AcDbLayerTableRecord
  2
BEND_LINES
 70
0
 62
1
  6
DASHED
370
-3
390
13
347
21
  0
ENDTAB
  0
TABLE
  2
STYLE
  5
5
330
0
100
AcDbSymbolTable
 70
1
  0
STYLE
  5
29
330
5
100
AcDbSymbolTableRecord
100
AcDbTextStyleTableRecord
  2
Standard
 70
0
 40
0.0
 41
1.0
 50
0.0
 71
0
 42
2.5
  3
txt
  4

  0
ENDTAB
  0
TABLE
  2
VIEW
  5
7
330
0
100
AcDbSymbolTable
 70
0
  0
ENDTAB
  0
TABLE
  2
UCS
  5
6
330
0
100
AcDbSymbolTable
 70
0
  0
ENDTAB
  0
TABLE
  2
APPID
  5
3
330
0
100
AcDbSymbolTable
 70
3
  0
APPID
  5
2A
330
3
100
AcDbSymbolTableRecord
100
AcDbRegAppTableRecord
  2
ACAD
 70
0
  0
APPID
  5
3D
330
3
100
AcDbSymbolTableRecord
100
AcDbRegAppTableRecord
  2
HATCHBACKGROUNDCOLOR
 70
0
  0
APPID
  5
3E
330
3
100
AcDbSymbolTableRecord
100
AcDbRegAppTableRecord
  2
EZDXF
 70
0
  0
ENDTAB
  0
TABLE
  2
DIMSTYLE
  5
4
330
0
100
AcDbSymbolTable
 70
1
100
AcDbDimStyleTable
  0
DIMSTYLE
105
2B
330
4
100
AcDbSymbolTableRecord
100
AcDbDimStyleTableRecord
  2
Standard
 70
0
 40
1.0
 41
2.5
 42
0.625
 43
3.75
 44
1.25
 45
0.0
 46
0.0
 47
0.0
 48
0.0
 49
2.5
140
2.5
141
2.5
142
0.0
143
0.03937007874
144
1.0
145
0.0
146
1.0
147
0.625
148
0.0
 69
0
 70
0
 71
0
 72
0
 73
0
 74
0
 75
0
 76
0
 77
1
 78
8
 79
3
170
0
171
3
172
1
173
0
174
0
175
0
176
0
177
0
178
0
179
2
271
2
272
2
273
2
274
3
275
0
276
0
277
2
278
44
279
0
280
0
281
0
282
0
283
0
284
8
285
0
286
0
288
0
289
3
290
0
371
-2
372
-2
  0
ENDTAB
  0
TABLE
  2
BLOCK_RECORD
  5
9
330
0
100
AcDbSymbolTable
 70
2
  0
BLOCK_RECORD
  5
17
330
9
100
AcDbSymbolTableRecord
100
AcDbBlockTableRecord
  2
*Model_Space
340
1A
 70
0
280
1
281
0
  0
BLOCK_RECORD
  5
1B
330
9
100
AcDbSymbolTableRecord
100
AcDbBlockTableRecord
  2
*Paper_Space
340
1E
 70
0
280
1
281
0
  0
ENDTAB
  0
ENDSEC
  0
SECTION
  2
BLOCKS
  0
BLOCK
  5
18
330
17
100
AcDbEntity
  8
0
100
AcDbBlockBegin
  2
*Model_Space
 70
0
 10
0.0
 20
0.0
 30
0.0
  3
*Model_Space
  1

  0
ENDBLK
  5
19
330
17
100
AcDbEntity
  8
0
100
AcDbBlockEnd
  0
BLOCK
  5
1C
330
1B
100
AcDbEntity
  8
0
100
AcDbBlockBegin
  2
*Paper_Space
 70
0
 10
0.0
 20
0.0
 30
0.0
  3
*Paper_Space
  1

  0
ENDBLK
  5
1D
330
1B
100
AcDbEntity
  8
0
100
AcDbBlockEnd
  0
ENDSEC
  0
SECTION
  2
ENTITIES
  0
LWPOLYLINE
  5
31
330
17
100
AcDbEntity
  8
CUT
100
AcDbPolyline
 90
377
 70
0
 10
60.62
 20
-52.791
 10
60.15
 20
-53.311
 10
59.637
 20
-53.788
 10
59.084
 20
-54.218
 10
58.495
 20
-54.597
 10
57.875
 20
-54.923
 10
57.229
 20
-55.192
 10
56.561
 20
-55.404
 10
55.877
 20
-55.556
 10
55.183
 20
-55.648
 10
54.483
 20
-55.677
 10
53.784
 20
-55.645
 10
53.089
 20
-55.552
 10
52.406
 20
-55.397
 10
51.739
 20
-55.183
 10
51.094
 20
-54.911
 10
50.475
 20
-54.583
 10
49.887
 20
-54.202
 10
49.336
 20
-53.77
 10
48.824
 20
-53.292
 10
48.357
 20
-52.77
 10
47.937
 20
-52.209
 10
47.789
 20
-52.0
 10
47.633
 20
-51.796
 10
47.471
 20
-51.598
 10
47.301
 20
-51.406
 10
47.124
 20
-51.22
 10
46.941
 20
-51.04
 10
46.751
 20
-50.867
 10
46.556
 20
-50.701
 10
46.354
 20
-50.543
 10
46.147
 20
-50.391
 10
45.935
 20
-50.247
 10
45.717
 20
-50.111
 10
45.495
 20
-49.983
 10
45.269
 20
-49.862
 10
45.038
 20
-49.75
 10
44.803
 20
-49.647
 10
44.565
 20
-49.552
 10
44.323
 20
-49.465
 10
44.079
 20
-49.387
 10
43.832
 20
-49.318
 10
43.583
 20
-49.258
 10
43.331
 20
-49.207
 10
43.078
 20
-49.165
 10
42.824
 20
-49.132
 10
42.568
 20
-49.108
 10
42.312
 20
-49.093
 10
42.056
 20
-49.088
 10
41.799
 20
-49.092
 10
41.543
 20
-49.105
 10
41.287
 20
-49.127
 10
-30.181
 20
-56.633
 10
-30.435
 20
-56.664
 10
-30.688
 20
-56.705
 10
-30.94
 20
-56.754
 10
-31.19
 20
-56.813
 10
-31.437
 20
-56.88
 10
-31.682
 20
-56.957
 10
-31.924
 20
-57.042
 10
-32.163
 20
-57.135
 10
-32.398
 20
-57.238
 10
-32.63
 20
-57.348
 10
-32.857
 20
-57.467
 10
-33.08
 20
-57.594
 10
-33.298
 20
-57.729
 10
-33.511
 20
-57.871
 10
-33.719
 20
-58.022
 10
-33.922
 20
-58.179
 10
-34.119
 20
-58.344
 10
-34.309
 20
-58.515
 10
-34.494
 20
-58.694
 10
-34.671
 20
-58.879
 10
-34.842
 20
-59.07
 10
-35.007
 20
-59.267
 10
-35.163
 20
-59.47
 10
-35.313
 20
-59.678
 10
-35.455
 20
-59.892
 10
-35.589
 20
-60.111
 10
-35.715
 20
-60.334
 10
-35.833
 20
-60.562
 10
-35.943
 20
-60.794
 10
-36.045
 20
-61.029
 10
-36.339
 20
-61.665
 10
-36.688
 20
-62.272
 10
-37.088
 20
-62.847
 10
-37.539
 20
-63.383
 10
-38.034
 20
-63.878
 10
-38.571
 20
-64.328
 10
-39.146
 20
-64.728
 10
-39.754
 20
-65.076
 10
-40.39
 20
-65.369
 10
-41.05
 20
-65.605
 10
-41.728
 20
-65.781
 10
-42.418
 20
-65.898
 10
-43.116
 20
-65.953
 10
-43.817
 20
-65.946
 10
-44.514
 20
-65.878
 10
-45.202
 20
-65.748
 10
-45.876
 20
-65.558
 10
-46.531
 20
-65.309
 10
-47.162
 20
-65.004
 10
-47.763
 20
-64.644
 10
-48.33
 20
-64.233
 10
-48.858
 20
-63.773
 10
-49.344
 20
-63.269
 10
-49.784
 20
-62.724
 10
-50.173
 20
-62.142
 10
-50.51
 20
-61.528
 10
-50.792
 20
-60.886
 10
-51.016
 20
-60.223
 10
-51.18
 20
-59.542
 10
-51.284
 20
-58.849
 10
-52.61
 20
-46.219
 10
-54.53
 20
-36.608
 10
-81.038
 20
18.711
 10
-83.864
 20
34.791
 10
-84.086
 20
36.9
 10
-84.091
 20
36.942
 10
-84.097
 20
36.983
 10
-84.104
 20
37.024
 10
-84.112
 20
37.065
 10
-84.121
 20
37.105
 10
-84.131
 20
37.145
 10
-84.143
 20
37.185
 10
-84.155
 20
37.225
 10
-84.168
 20
37.264
 10
-84.183
 20
37.303
 10
-84.198
 20
37.342
 10
-84.214
 20
37.38
 10
-84.232
 20
37.418
 10
-84.25
 20
37.455
 10
-84.27
 20
37.492
 10
-84.29
 20
37.528
 10
-84.311
 20
37.564
 10
-84.333
 20
37.599
 10
-84.356
 20
37.634
 10
-84.38
 20
37.668
 10
-84.405
 20
37.701
 10
-84.431
 20
37.734
 10
-84.457
 20
37.765
 10
-84.485
 20
37.797
 10
-84.513
 20
37.827
 10
-84.542
 20
37.857
 10
-84.572
 20
37.886
 10
-84.602
 20
37.914
 10
-84.634
 20
37.942
 10
-84.666
 20
37.968
 10
-88.005
 20
40.673
 10
-88.037
 20
40.7
 10
-88.068
 20
40.727
 10
-88.099
 20
40.755
 10
-88.129
 20
40.784
 10
-88.158
 20
40.814
 10
-88.186
 20
40.845
 10
-88.213
 20
40.876
 10
-88.24
 20
40.908
 10
-88.266
 20
40.94
 10
-88.29
 20
40.974
 10
-88.314
 20
41.008
 10
-88.337
 20
41.042
 10
-88.36
 20
41.077
 10
-88.381
 20
41.113
 10
-88.401
 20
41.149
 10
-88.421
 20
41.186
 10
-88.439
 20
41.223
 10
-88.456
 20
41.261
 10
-88.473
 20
41.299
 10
-88.488
 20
41.338
 10
-88.502
 20
41.377
 10
-88.516
 20
41.416
 10
-88.528
 20
41.456
 10
-88.539
 20
41.496
 10
-88.55
 20
41.536
 10
-88.559
 20
41.577
 10
-88.567
 20
41.617
 10
-88.574
 20
41.658
 10
-88.58
 20
41.7
 10
-88.585
 20
41.741
 10
-89.179
 20
47.402
 10
-89.213
 20
47.948
 10
-89.2
 20
48.494
 10
-89.139
 20
49.038
 10
-89.032
 20
49.574
 10
-88.88
 20
50.099
 10
-88.682
 20
50.609
 10
-88.442
 20
51.1
 10
-88.16
 20
51.568
 10
-87.84
 20
52.011
 10
-87.482
 20
52.424
 10
-87.09
 20
52.805
 10
-86.666
 20
53.151
 10
-86.215
 20
53.459
 10
-85.738
 20
53.728
 10
-85.241
 20
53.954
 10
-84.725
 20
54.137
 10
-84.196
 20
54.274
 10
-83.657
 20
54.366
 10
-83.112
 20
54.411
 10
-82.566
 20
54.408
 10
-82.021
 20
54.359
 10
-81.483
 20
54.263
 10
-80.955
 20
54.122
 10
-80.441
 20
53.935
 10
-79.945
 20
53.705
 10
-79.471
 20
53.433
 10
-79.022
 20
53.121
 10
-78.601
 20
52.772
 10
-78.212
 20
52.388
 10
-77.858
 20
51.971
 10
-77.706
 20
51.784
 10
-77.548
 20
51.601
 10
-77.384
 20
51.424
 10
-77.215
 20
51.253
 10
-77.039
 20
51.088
 10
-76.858
 20
50.928
 10
-76.672
 20
50.775
 10
-76.481
 20
50.628
 10
-76.285
 20
50.487
 10
-76.084
 20
50.354
 10
-75.879
 20
50.227
 10
-75.67
 20
50.107
 10
-75.456
 20
49.994
 10
-75.239
 20
49.889
 10
-75.019
 20
49.791
 10
-74.795
 20
49.7
 10
-74.569
 20
49.617
 10
-74.34
 20
49.542
 10
-74.108
 20
49.475
 10
-73.875
 20
49.415
 10
-73.639
 20
49.363
 10
-73.402
 20
49.32
 10
-73.163
 20
49.284
 10
-72.924
 20
49.256
 10
-72.683
 20
49.237
 10
-72.442
 20
49.225
 10
-72.201
 20
49.222
 10
-71.96
 20
49.227
 10
-71.719
 20
49.24
 10
-71.479
 20
49.261
 10
59.686
 20
63.036
 10
59.925
 20
63.065
 10
60.163
 20
63.103
 10
60.4
 20
63.148
 10
60.635
 20
63.201
 10
60.869
 20
63.262
 10
61.1
 20
63.331
 10
61.328
 20
63.408
 10
61.554
 20
63.493
 10
61.777
 20
63.585
 10
61.997
 20
63.684
 10
62.213
 20
63.791
 10
62.426
 20
63.905
 10
62.634
 20
64.027
 10
62.838
 20
64.155
 10
63.038
 20
64.29
 10
63.233
 20
64.432
 10
63.424
 20
64.58
 10
63.609
 20
64.734
 10
63.789
 20
64.895
 10
63.963
 20
65.062
 10
64.132
 20
65.234
 10
64.294
 20
65.412
 10
64.451
 20
65.596
 10
64.601
 20
65.784
 10
64.745
 20
65.978
 10
64.882
 20
66.176
 10
65.013
 20
66.379
 10
65.136
 20
66.586
 10
65.253
 20
66.797
 10
65.362
 20
67.012
 10
65.622
 20
67.493
 10
65.923
 20
67.95
 10
66.262
 20
68.379
 10
66.636
 20
68.777
 10
67.044
 20
69.142
 10
67.481
 20
69.47
 10
67.945
 20
69.759
 10
68.432
 20
70.008
 10
68.938
 20
70.213
 10
69.461
 20
70.374
 10
69.995
 20
70.49
 10
70.537
 20
70.559
 10
71.084
 20
70.582
 10
71.63
 20
70.557
 10
72.172
 20
70.486
 10
72.706
 20
70.368
 10
73.227
 20
70.204
 10
73.733
 20
69.997
 10
74.219
 20
69.746
 10
74.682
 20
69.455
 10
75.118
 20
69.125
 10
75.524
 20
68.759
 10
75.897
 20
68.359
 10
76.234
 20
67.928
 10
76.532
 20
67.471
 10
76.791
 20
66.989
 10
77.007
 20
66.487
 10
77.179
 20
65.968
 10
77.305
 20
65.436
 10
77.386
 20
64.895
 10
77.98
 20
59.234
 10
77.984
 20
59.192
 10
77.987
 20
59.151
 10
77.989
 20
59.109
 10
77.989
 20
59.068
 10
77.989
 20
59.026
 10
77.987
 20
58.985
 10
77.984
 20
58.943
 10
77.98
 20
58.902
 10
77.975
 20
58.861
 10
77.97
 20
58.819
 10
77.962
 20
58.778
 10
77.954
 20
58.738
 10
77.945
 20
58.697
 10
77.935
 20
58.657
 10
77.924
 20
58.617
 10
77.911
 20
58.577
 10
77.898
 20
58.538
 10
77.884
 20
58.499
 10
77.868
 20
58.46
 10
77.852
 20
58.422
 10
77.834
 20
58.384
 10
77.816
 20
58.347
 10
77.797
 20
58.31
 10
77.776
 20
58.274
 10
77.755
 20
58.238
 10
77.733
 20
58.203
 10
77.71
 20
58.169
 10
77.686
 20
58.135
 10
77.661
 20
58.101
 10
77.635
 20
58.069
 10
74.93
 20
54.729
 10
74.905
 20
54.696
 10
74.88
 20
54.663
 10
74.856
 20
54.629
 10
74.833
 20
54.595
 10
74.811
 20
54.56
 10
74.789
 20
54.524
 10
74.769
 20
54.488
 10
74.75
 20
54.451
 10
74.731
 20
54.414
 10
74.714
 20
54.376
 10
74.697
 20
54.338
 10
74.682
 20
54.299
 10
74.668
 20
54.26
 10
74.654
 20
54.221
 10
74.642
 20
54.181
 10
74.631
 20
54.141
 10
74.62
 20
54.101
 10
74.611
 20
54.06
 10
74.603
 20
54.019
 10
74.596
 20
53.978
 10
74.59
 20
53.937
 10
74.585
 20
53.896
 10
74.581
 20
53.855
 10
74.579
 20
53.813
 10
74.577
 20
53.772
 10
74.577
 20
53.73
 10
74.577
 20
53.689
 10
74.579
 20
53.647
 10
74.581
 20
53.606
 10
74.585
 20
53.564
 10
74.807
 20
51.455
 10
75.383
 20
35.138
 10
60.945
 20
-24.481
 10
61.064
 20
-34.28
 10
62.391
 20
-46.911
 10
62.433
 20
-47.61
 10
62.414
 20
-48.31
 10
62.333
 20
-49.006
 10
62.191
 20
-49.692
 10
61.989
 20
-50.362
 10
61.728
 20
-51.013
 10
61.412
 20
-51.637
 10
61.041
 20
-52.232
 10
60.62
 20
-52.791
  0
LWPOLYLINE
  5
32
330
17
100
AcDbEntity
  8
CUT
100
AcDbPolyline
 90
31
 70
0
 10
-45.397
 20
-60.249
 10
-44.89
 20
-60.618
 10
-44.317
 20
-60.873
 10
-43.704
 20
-61.004
 10
-43.076
 20
-61.004
 10
-42.463
 20
-60.873
 10
-41.89
 20
-60.618
 10
-41.383
 20
-60.25
 10
-40.963
 20
-59.784
 10
-40.649
 20
-59.24
 10
-40.455
 20
-58.644
 10
-40.39
 20
-58.02
 10
-40.455
 20
-57.397
 10
-40.649
 20
-56.8
 10
-40.963
 20
-56.257
 10
-41.382
 20
-55.791
 10
-41.89
 20
-55.422
 10
-42.463
 20
-55.167
 10
-43.076
 20
-55.036
 10
-43.703
 20
-55.036
 10
-44.317
 20
-55.167
 10
-44.89
 20
-55.422
 10
-45.397
 20
-55.79
 10
-45.817
 20
-56.256
 10
-46.13
 20
-56.8
 10
-46.324
 20
-57.396
 10
-46.39
 20
-58.02
 10
-46.324
 20
-58.643
 10
-46.131
 20
-59.24
 10
-45.817
 20
-59.783
 10
-45.397
 20
-60.249
  0
LWPOLYLINE
  5
33
330
17
100
AcDbEntity
  8
CUT
100
AcDbPolyline
 90
31
 70
0
 10
52.07
 20
-49.503
 10
52.489
 20
-49.969
 10
52.997
 20
-50.338
 10
53.57
 20
-50.593
 10
54.183
 20
-50.723
 10
54.81
 20
-50.723
 10
55.424
 20
-50.593
 10
55.997
 20
-50.338
 10
56.504
 20
-49.969
 10
56.924
 20
-49.503
 10
57.237
 20
-48.96
 10
57.431
 20
-48.364
 10
57.497
 20
-47.74
 10
57.431
 20
-47.116
 10
57.238
 20
-46.52
 10
56.924
 20
-45.977
 10
56.504
 20
-45.511
 10
55.997
 20
-45.142
 10
55.424
 20
-44.887
 10
54.811
 20
-44.756
 10
54.183
 20
-44.756
 10
53.57
 20
-44.887
 10
52.997
 20
-45.142
 10
52.49
 20
-45.51
 10
52.07
 20
-45.976
 10
51.756
 20
-46.519
 10
51.562
 20
-47.116
 10
51.497
 20
-47.74
 10
51.562
 20
-48.363
 10
51.756
 20
-48.96
 10
52.07
 20
-49.503
  0
LWPOLYLINE
  5
34
330
17
100
AcDbEntity
  8
CUT
100
AcDbPolyline
 90
154
 70
0
 10
-47.51
 20
-20.882
 10
-47.317
 20
-21.056
 10
-47.117
 20
-21.223
 10
-46.91
 20
-21.381
 10
-46.698
 20
-21.53
 10
-46.479
 20
-21.671
 10
-46.254
 20
-21.802
 10
-46.025
 20
-21.924
 10
-45.791
 20
-22.037
 10
-45.552
 20
-22.14
 10
-45.309
 20
-22.233
 10
-45.063
 20
-22.316
 10
-44.813
 20
-22.389
 10
-44.561
 20
-22.452
 10
-44.306
 20
-22.504
 10
-44.049
 20
-22.546
 10
-43.791
 20
-22.577
 10
-43.532
 20
-22.598
 10
-43.272
 20
-22.608
 10
-43.012
 20
-22.607
 10
-42.752
 20
-22.596
 10
-42.493
 20
-22.574
 10
-31.774
 20
-21.449
 10
-31.385
 20
-21.396
 10
-31.0
 20
-21.319
 10
-30.621
 20
-21.218
 10
-30.249
 20
-21.094
 10
-29.885
 20
-20.948
 10
-29.531
 20
-20.779
 10
-29.187
 20
-20.589
 10
-28.857
 20
-20.378
 10
-28.54
 20
-20.147
 10
-28.238
 20
-19.896
 10
-27.951
 20
-19.628
 10
-27.682
 20
-19.342
 10
-27.432
 20
-19.041
 10
-27.2
 20
-18.724
 10
-26.988
 20
-18.394
 10
-26.797
 20
-18.051
 10
-26.628
 20
-17.697
 10
-26.48
 20
-17.334
 10
-26.356
 20
-16.962
 10
-26.255
 20
-16.583
 10
-26.177
 20
-16.198
 10
-26.123
 20
-15.809
 10
-26.093
 20
-15.418
 10
-26.088
 20
-15.026
 10
-26.107
 20
-14.634
 10
-26.15
 20
-14.244
 10
-26.216
 20
-13.857
 10
-26.307
 20
-13.476
 10
-26.421
 20
-13.1
 10
-26.558
 20
-12.733
 10
-26.76
 20
-12.226
 10
-26.951
 20
-11.716
 10
-27.133
 20
-11.202
 10
-27.306
 20
-10.685
 10
-27.468
 20
-10.164
 10
-27.621
 20
-9.641
 10
-27.764
 20
-9.115
 10
-27.897
 20
-8.586
 10
-28.019
 20
-8.055
 10
-28.132
 20
-7.521
 10
-28.235
 20
-6.986
 10
-28.328
 20
-6.449
 10
-28.41
 20
-5.91
 10
-28.482
 20
-5.369
 10
-28.544
 20
-4.828
 10
-28.596
 20
-4.285
 10
-28.638
 20
-3.742
 10
-28.669
 20
-3.197
 10
-28.69
 20
-2.652
 10
-28.701
 20
-2.107
 10
-28.701
 20
-1.562
 10
-28.692
 20
-1.017
 10
-28.671
 20
-0.472
 10
-28.641
 20
0.072
 10
-28.6
 20
0.616
 10
-28.549
 20
1.159
 10
-28.488
 20
1.7
 10
-28.417
 20
2.241
 10
-28.335
 20
2.78
 10
-28.244
 20
3.317
 10
-28.186
 20
3.705
 10
-28.153
 20
4.096
 10
-28.143
 20
4.488
 10
-28.158
 20
4.88
 10
-28.197
 20
5.271
 10
-28.26
 20
5.658
 10
-28.347
 20
6.041
 10
-28.457
 20
6.417
 10
-28.591
 20
6.786
 10
-28.747
 20
7.146
 10
-28.924
 20
7.496
 10
-29.124
 20
7.834
 10
-29.343
 20
8.159
 10
-29.582
 20
8.47
 10
-29.84
 20
8.766
 10
-30.116
 20
9.045
 10
-30.409
 20
9.306
 10
-30.717
 20
9.549
 10
-31.039
 20
9.773
 10
-31.375
 20
9.976
 10
-31.722
 20
10.158
 10
-32.08
 20
10.318
 10
-32.448
 20
10.456
 10
-32.823
 20
10.571
 10
-33.205
 20
10.662
 10
-33.591
 20
10.73
 10
-33.981
 20
10.773
 10
-34.373
 20
10.793
 10
-34.765
 20
10.788
 10
-35.156
 20
10.759
 10
-52.85
 20
8.901
 10
-53.251
 20
8.846
 10
-53.648
 20
8.765
 10
-54.039
 20
8.66
 10
-54.422
 20
8.529
 10
-54.796
 20
8.375
 10
-55.16
 20
8.197
 10
-55.512
 20
7.996
 10
-55.85
 20
7.773
 10
-56.173
 20
7.529
 10
-56.48
 20
7.265
 10
-56.769
 20
6.982
 10
-57.04
 20
6.681
 10
-57.291
 20
6.364
 10
-57.521
 20
6.031
 10
-57.73
 20
5.684
 10
-57.916
 20
5.324
 10
-58.079
 20
4.954
 10
-58.218
 20
4.573
 10
-58.332
 20
4.185
 10
-58.422
 20
3.79
 10
-58.486
 20
3.39
 10
-58.524
 20
2.987
 10
-58.537
 20
2.583
 10
-58.524
 20
2.178
 10
-58.485
 20
1.775
 10
-58.421
 20
1.375
 10
-58.331
 20
0.981
 10
-58.216
 20
0.592
 10
-58.077
 20
0.212
 10
-57.913
 20
-0.158
 10
-48.883
 20
-19.003
 10
-48.766
 20
-19.235
 10
-48.639
 20
-19.462
 10
-48.504
 20
-19.684
 10
-48.359
 20
-19.9
 10
-48.205
 20
-20.11
 10
-48.043
 20
-20.314
 10
-47.873
 20
-20.51
 10
-47.695
 20
-20.7
 10
-47.51
 20
-20.882
  0
LWPOLYLINE
  5
35
330
17
100
AcDbEntity
  8
CUT
100
AcDbPolyline
 90
154
 70
0
 10
48.253
 20
-12.704
 10
48.487
 20
-12.591
 10
48.716
 20
-12.467
 10
48.939
 20
-12.335
 10
49.158
 20
-12.193
 10
49.37
 20
-12.043
 10
49.576
 20
-11.884
 10
49.775
 20
-11.717
 10
49.967
 20
-11.542
 10
50.152
 20
-11.359
 10
50.329
 20
-11.168
 10
50.498
 20
-10.971
 10
50.659
 20
-10.767
 10
50.811
 20
-10.556
 10
50.955
 20
-10.34
 10
51.09
 20
-10.117
 10
51.215
 20
-9.889
 10
51.332
 20
-9.657
 10
51.438
 20
-9.42
 10
51.535
 20
-9.178
 10
51.621
 20
-8.933
 10
51.698
 20
-8.684
 10
51.764
 20
-8.433
 10
56.683
 20
11.877
 10
56.765
 20
12.273
 10
56.823
 20
12.674
 10
56.854
 20
13.077
 10
56.86
 20
13.482
 10
56.84
 20
13.887
 10
56.794
 20
14.289
 10
56.723
 20
14.687
 10
56.627
 20
15.081
 10
56.505
 20
15.467
 10
56.36
 20
15.845
 10
56.19
 20
16.212
 10
55.998
 20
16.568
 10
55.783
 20
16.911
 10
55.546
 20
17.24
 10
55.29
 20
17.553
 10
55.013
 20
17.849
 10
54.719
 20
18.127
 10
54.407
 20
18.386
 10
54.08
 20
18.624
 10
53.738
 20
18.84
 10
53.383
 20
19.035
 10
53.016
 20
19.206
 10
52.639
 20
19.354
 10
52.254
 20
19.478
 10
51.861
 20
19.576
 10
51.463
 20
19.65
 10
51.061
 20
19.697
 10
50.657
 20
19.72
 10
50.252
 20
19.716
 10
49.848
 20
19.687
 10
32.154
 20
17.828
 10
31.765
 20
17.775
 10
31.381
 20
17.698
 10
31.001
 20
17.598
 10
30.629
 20
17.474
 10
30.265
 20
17.328
 10
29.911
 20
17.159
 10
29.568
 20
16.969
 10
29.237
 20
16.758
 10
28.92
 20
16.526
 10
28.618
 20
16.276
 10
28.332
 20
16.008
 10
28.063
 20
15.722
 10
27.812
 20
15.421
 10
27.58
 20
15.104
 10
27.368
 20
14.774
 10
27.177
 20
14.431
 10
27.008
 20
14.077
 10
26.861
 20
13.713
 10
26.736
 20
13.341
 10
26.635
 20
12.962
 10
26.557
 20
12.578
 10
26.503
 20
12.189
 10
26.474
 20
11.798
 10
26.468
 20
11.406
 10
26.487
 20
11.014
 10
26.53
 20
10.624
 10
26.597
 20
10.237
 10
26.687
 20
9.856
 10
26.801
 20
9.48
 10
26.938
 20
9.112
 10
27.14
 20
8.606
 10
27.332
 20
8.095
 10
27.514
 20
7.582
 10
27.686
 20
7.064
 10
27.848
 20
6.544
 10
28.001
 20
6.021
 10
28.144
 20
5.495
 10
28.277
 20
4.966
 10
28.4
 20
4.435
 10
28.512
 20
3.901
 10
28.615
 20
3.366
 10
28.708
 20
2.829
 10
28.79
 20
2.29
 10
28.863
 20
1.749
 10
28.925
 20
1.208
 10
28.976
 20
0.665
 10
29.018
 20
0.121
 10
29.049
 20
-0.423
 10
29.07
 20
-0.968
 10
29.081
 20
-1.513
 10
29.082
 20
-2.058
 10
29.072
 20
-2.603
 10
29.052
 20
-3.148
 10
29.021
 20
-3.692
 10
28.981
 20
-4.236
 10
28.93
 20
-4.779
 10
28.869
 20
-5.32
 10
28.797
 20
-5.861
 10
28.716
 20
-6.4
 10
28.624
 20
-6.937
 10
28.566
 20
-7.325
 10
28.533
 20
-7.716
 10
28.523
 20
-8.109
 10
28.538
 20
-8.501
 10
28.577
 20
-8.891
 10
28.64
 20
-9.278
 10
28.727
 20
-9.661
 10
28.838
 20
-10.037
 10
28.971
 20
-10.406
 10
29.127
 20
-10.766
 10
29.305
 20
-11.116
 10
29.504
 20
-11.454
 10
29.723
 20
-11.779
 10
29.963
 20
-12.09
 10
30.221
 20
-12.386
 10
30.496
 20
-12.665
 10
30.789
 20
-12.926
 10
31.097
 20
-13.169
 10
31.419
 20
-13.393
 10
31.755
 20
-13.596
 10
32.103
 20
-13.778
 10
32.461
 20
-13.938
 10
32.828
 20
-14.076
 10
33.203
 20
-14.191
 10
33.585
 20
-14.282
 10
33.971
 20
-14.35
 10
34.361
 20
-14.394
 10
34.753
 20
-14.413
 10
35.145
 20
-14.408
 10
35.536
 20
-14.38
 10
46.256
 20
-13.254
 10
46.514
 20
-13.221
 10
46.77
 20
-13.178
 10
47.025
 20
-13.125
 10
47.277
 20
-13.061
 10
47.526
 20
-12.987
 10
47.772
 20
-12.903
 10
48.015
 20
-12.809
 10
48.253
 20
-12.704
  0
LWPOLYLINE
  5
36
330
17
100
AcDbEntity
  8
CUT
100
AcDbPolyline
 90
31
 70
0
 10
-3.175
 20
14.029
 10
-6.395
 20
12.983
 10
-9.327
 20
11.291
 10
-11.842
 20
9.026
 10
-13.832
 20
6.287
 10
-15.209
 20
3.195
 10
-15.914
 20
-0.116
 10
-15.914
 20
-3.501
 10
-15.21
 20
-6.813
 10
-13.834
 20
-9.905
 10
-11.844
 20
-12.644
 10
-9.329
 20
-14.909
 10
-6.397
 20
-16.602
 10
-3.178
 20
-17.648
 10
0.189
 20
-18.003
 10
3.555
 20
-17.649
 10
6.775
 20
-16.603
 10
9.707
 20
-14.911
 10
12.223
 20
-12.646
 10
14.213
 20
-9.907
 10
15.59
 20
-6.815
 10
16.294
 20
-3.504
 10
16.294
 20
-0.119
 10
15.59
 20
3.192
 10
14.214
 20
6.285
 10
12.224
 20
9.024
 10
9.709
 20
11.289
 10
6.777
 20
12.982
 10
3.558
 20
14.028
 10
0.191
 20
14.382
 10
-3.175
 20
14.029
  0
LWPOLYLINE
  5
37
330
17
100
AcDbEntity
  8
CUT
100
AcDbPolyline
 90
63
 70
0
 10
-80.067
 20
45.919
 10
-79.845
 20
46.141
 10
-79.648
 20
46.385
 10
-79.477
 20
46.648
 10
-79.334
 20
46.928
 10
-79.222
 20
47.221
 10
-79.14
 20
47.524
 10
-79.091
 20
47.834
 10
-79.075
 20
48.148
 10
-79.091
 20
48.462
 10
-79.14
 20
48.772
 10
-79.221
 20
49.075
 10
-79.334
 20
49.368
 10
-79.476
 20
49.648
 10
-79.648
 20
49.911
 10
-79.845
 20
50.156
 10
-80.067
 20
50.378
 10
-80.311
 20
50.575
 10
-80.574
 20
50.746
 10
-80.854
 20
50.889
 10
-81.147
 20
51.001
 10
-81.451
 20
51.083
 10
-81.761
 20
51.132
 10
-82.074
 20
51.148
 10
-82.388
 20
51.132
 10
-83.967
 20
50.966
 10
-84.277
 20
50.917
 10
-84.58
 20
50.836
 10
-84.873
 20
50.723
 10
-85.153
 20
50.581
 10
-85.417
 20
50.41
 10
-85.661
 20
50.212
 10
-85.883
 20
49.99
 10
-86.08
 20
49.746
 10
-86.251
 20
49.483
 10
-86.394
 20
49.203
 10
-86.507
 20
48.91
 10
-86.588
 20
48.606
 10
-86.637
 20
48.296
 10
-86.654
 20
47.983
 10
-86.637
 20
47.669
 10
-86.588
 20
47.359
 10
-86.507
 20
47.056
 10
-86.394
 20
46.763
 10
-86.252
 20
46.483
 10
-86.081
 20
46.219
 10
-85.883
 20
45.975
 10
-85.661
 20
45.753
 10
-85.417
 20
45.556
 10
-85.154
 20
45.385
 10
-84.874
 20
45.242
 10
-84.581
 20
45.129
 10
-84.277
 20
45.048
 10
-83.967
 20
44.999
 10
-83.654
 20
44.982
 10
-83.34
 20
44.999
 10
-81.761
 20
45.165
 10
-81.451
 20
45.214
 10
-81.148
 20
45.295
 10
-80.855
 20
45.408
 10
-80.575
 20
45.55
 10
-80.312
 20
45.721
 10
-80.067
 20
45.919
  0
LWPOLYLINE
  5
38
330
17
100
AcDbEntity
  8
CUT
100
AcDbPolyline
 90
63
 70
0
 10
73.623
 20
61.887
 10
73.867
 20
62.085
 10
74.089
 20
62.307
 10
74.287
 20
62.551
 10
74.458
 20
62.814
 10
74.601
 20
63.094
 10
74.713
 20
63.387
 10
74.794
 20
63.691
 10
74.844
 20
64.001
 10
74.86
 20
64.314
 10
74.844
 20
64.628
 10
74.794
 20
64.938
 10
74.713
 20
65.241
 10
74.601
 20
65.535
 10
74.458
 20
65.814
 10
74.287
 20
66.078
 10
74.09
 20
66.322
 10
73.868
 20
66.544
 10
73.624
 20
66.742
 10
73.36
 20
66.913
 10
73.08
 20
67.055
 10
72.787
 20
67.168
 10
72.484
 20
67.249
 10
72.174
 20
67.298
 10
71.86
 20
67.315
 10
71.547
 20
67.298
 10
69.968
 20
67.132
 10
69.658
 20
67.083
 10
69.354
 20
67.002
 10
69.061
 20
66.89
 10
68.781
 20
66.747
 10
68.518
 20
66.576
 10
68.274
 20
66.378
 10
68.052
 20
66.156
 10
67.854
 20
65.912
 10
67.683
 20
65.649
 10
67.541
 20
65.369
 10
67.428
 20
65.076
 10
67.347
 20
64.773
 10
67.298
 20
64.463
 10
67.281
 20
64.149
 10
67.298
 20
63.835
 10
67.347
 20
63.525
 10
67.428
 20
63.222
 10
67.54
 20
62.929
 10
67.683
 20
62.649
 10
67.854
 20
62.386
 10
68.052
 20
62.142
 10
68.274
 20
61.92
 10
68.518
 20
61.722
 10
68.781
 20
61.551
 10
69.061
 20
61.408
 10
69.354
 20
61.296
 10
69.657
 20
61.214
 10
69.967
 20
61.165
 10
70.281
 20
61.149
 10
70.594
 20
61.165
 10
72.173
 20
61.331
 10
72.483
 20
61.38
 10
72.787
 20
61.461
 10
73.08
 20
61.574
 10
73.36
 20
61.716
 10
73.623
 20
61.887
  0
LINE
  5
39
330
17
100
AcDbEntity
  8
BEND_LINES
  6
DASHED
100
AcDbLine
 10
60.9851416548823
 20
-27.78644601841693
 30
0.0
 11
55.01795856109327
 21
-28.413124504722678
 31
0.0
  0
LINE
  5
3A
330
17
100
AcDbEntity
  8
BEND_LINES
  6
DASHED
100
AcDbLine
 10
-47.91517391806849
 20
-39.22324690902623
 30
0.0
 11
-53.882357011857515
 21
-39.84992539533198
 31
0.0
  0
LINE
  5
3B
330
17
100
AcDbEntity
  8
BEND_LINES
  6
DASHED
100
AcDbLine
 10
-81.95520707395667
 20
23.92992772442434
 30
0.0
 11
-75.98802398016765
 21
24.556606210730084
 31
0.0
  0
LINE
  5
3C
330
17
100
AcDbEntity
  8
BEND_LINES
  6
DASHED
100
AcDbLine
 10
69.22886200741205
 20
39.807403256232696
 30
0.0
 11
75.19604510120107
 21
40.434081742538446
 31
0.0
  0
ENDSEC
  0
SECTION
  2
OBJECTS
  0
DICTIONARY
  5
A
330
0
100
AcDbDictionary
281
1
  3
ACAD_COLOR
350
B
  3
ACAD_GROUP
350
C
  3
ACAD_LAYOUT
350
D
  3
ACAD_MATERIAL
350
E
  3
ACAD_MLEADERSTYLE
350
F
  3
ACAD_MLINESTYLE
350
10
  3
ACAD_PLOTSETTINGS
350
11
  3
ACAD_PLOTSTYLENAME
350
12
  3
ACAD_SCALELIST
350
14
  3
ACAD_TABLESTYLE
350
15
  3
ACAD_VISUALSTYLE
350
16
  3
EZDXF_META
350
2D
  0
DICTIONARY
  5
B
330
A
100
AcDbDictionary
281
1
  0
DICTIONARY
  5
C
330
A
100
AcDbDictionary
281
1
  0
DICTIONARY
  5
D
330
A
100
AcDbDictionary
281
1
  3
Model
350
1A
  3
Layout1
350
1E
  0
DICTIONARY
  5
E
330
A
100
AcDbDictionary
281
1
  3
ByBlock
350
1F
  3
ByLayer
350
20
  3
Global
350
21
  0
DICTIONARY
  5
F
330
A
100
AcDbDictionary
281
1
  3
Standard
350
2C
  0
DICTIONARY
  5
10
330
A
100
AcDbDictionary
281
1
  3
Standard
350
22
  0
DICTIONARY
  5
11
330
A
100
AcDbDictionary
281
1
  0
ACDBDICTIONARYWDFLT
  5
12
330
A
100
AcDbDictionary
281
1
  3
Normal
350
13
100
AcDbDictionaryWithDefault
340
13
  0
ACDBPLACEHOLDER
  5
13
330
12
  0
DICTIONARY
  5
14
330
A
100
AcDbDictionary
281
1
  0
DICTIONARY
  5
15
330
A
100
AcDbDictionary
281
1
  0
DICTIONARY
  5
16
330
A
100
AcDbDictionary
281
1
  0
LAYOUT
  5
1A
330
D
100
AcDbPlotSettings
  1

  4
A3
  6

 40
7.5
 41
20.0
 42
7.5
 43
20.0
 44
420.0
 45
297.0
 46
0.0
 47
0.0
 48
0.0
 49
0.0
140
0.0
141
0.0
142
1.0
143
1.0
 70
1024
 72
1
 73
0
 74
5
  7

 75
16
 76
0
 77
2
 78
300
147
1.0
148
0.0
149
0.0
100
AcDbLayout
  1
Model
 70
1
 71
0
 10
0.0
 20
0.0
 11
420.0
 21
297.0
 12
0.0
 22
0.0
 32
0.0
 14
1e+20
 24
1e+20
 34
1e+20
 15
-1e+20
 25
-1e+20
 35
-1e+20
146
0.0
 13
0.0
 23
0.0
 33
0.0
 16
1.0
 26
0.0
 36
0.0
 17
0.0
 27
1.0
 37
0.0
 76
1
330
17
  0
LAYOUT
  5
1E
330
D
100
AcDbPlotSettings
  1

  4
A3
  6

 40
7.5
 41
20.0
 42
7.5
 43
20.0
 44
420.0
 45
297.0
 46
0.0
 47
0.0
 48
0.0
 49
0.0
140
0.0
141
0.0
142
1.0
143
1.0
 70
0
 72
1
 73
0
 74
5
  7

 75
16
 76
0
 77
2
 78
300
147
1.0
148
0.0
149
0.0
100
AcDbLayout
  1
Layout1
 70
1
 71
1
 10
0.0
 20
0.0
 11
420.0
 21
297.0
 12
0.0
 22
0.0
 32
0.0
 14
1e+20
 24
1e+20
 34
1e+20
 15
-1e+20
 25
-1e+20
 35
-1e+20
146
0.0
 13
0.0
 23
0.0
 33
0.0
 16
1.0
 26
0.0
 36
0.0
 17
0.0
 27
1.0
 37
0.0
 76
1
330
1B
  0
MATERIAL
  5
1F
102
{ACAD_REACTORS
330
E
102
}
330
E
100
AcDbMaterial
  1
ByBlock
  2

 70
0
 40
1.0
 71
1
 41
1.0
 91
-1023410177
 42
1.0
 72
1
  3

 73
1
 74
1
 75
1
 44
0.5
 73
0
 45
1.0
 46
1.0
 77
1
  4

 78
1
 79
1
170
1
 48
1.0
171
1
  6

172
1
173
1
174
1
140
1.0
141
1.0
175
1
  7

176
1
177
1
178
1
143
1.0
179
1
  8

270
1
271
1
272
1
145
1.0
146
1.0
273
1
  9

274
1
275
1
276
1
 42
1.0
 72
1
  3

 73
1
 74
1
 75
1
 94
63
  0
MATERIAL
  5
20
102
{ACAD_REACTORS
330
E
102
}
330
E
100
AcDbMaterial
  1
ByLayer
  2

 70
0
 40
1.0
 71
1
 41
1.0
 91
-1023410177
 42
1.0
 72
1
  3

 73
1
 74
1
 75
1
 44
0.5
 73
0
 45
1.0
 46
1.0
 77
1
  4

 78
1
 79
1
170
1
 48
1.0
171
1
  6

172
1
173
1
174
1
140
1.0
141
1.0
175
1
  7

176
1
177
1
178
1
143
1.0
179
1
  8

270
1
271
1
272
1
145
1.0
146
1.0
273
1
  9

274
1
275
1
276
1
 42
1.0
 72
1
  3

 73
1
 74
1
 75
1
 94
63
  0
MATERIAL
  5
21
102
{ACAD_REACTORS
330
E
102
}
330
E
100
AcDbMaterial
  1
Global
  2

 70
0
 40
1.0
 71
1
 41
1.0
 91
-1023410177
 42
1.0
 72
1
  3

 73
1
 74
1
 75
1
 44
0.5
 73
0
 45
1.0
 46
1.0
 77
1
  4

 78
1
 79
1
170
1
 48
1.0
171
1
  6

172
1
173
1
174
1
140
1.0
141
1.0
175
1
  7

176
1
177
1
178
1
143
1.0
179
1
  8

270
1
271
1
272
1
145
1.0
146
1.0
273
1
  9

274
1
275
1
276
1
 42
1.0
 72
1
  3

 73
1
 74
1
 75
1
 94
63
  0
MLINESTYLE
  5
22
102
{ACAD_REACTORS
330
10
102
}
330
10
100
AcDbMlineStyle
  2
Standard
 70
0
  3

 62
256
 51
90.0
 52
90.0
 71
2
 49
0.5
 62
256
  6
BYLAYER
 49
-0.5
 62
256
  6
BYLAYER
  0
MLEADERSTYLE
  5
2C
102
{ACAD_REACTORS
330
F
102
}
330
F
100
AcDbMLeaderStyle
179
2
170
2
171
1
172
0
 90
2
 40
0.0
 41
0.0
173
1
 91
-1056964608
 92
-2
290
1
 42
2.0
291
1
 43
8.0
  3
Standard
 44
4.0
300

342
29
174
1
175
1
176
0
178
1
 93
-1056964608
 45
4.0
292
0
297
0
 46
4.0
 94
-1056964608
 47
1.0
 49
1.0
140
1.0
294
1
141
0.0
177
0
142
1.0
295
0
296
0
143
3.75
271
0
272
9
273
9
  0
DICTIONARY
  5
2D
330
A
100
AcDbDictionary
280
1
281
1
  3
CREATED_BY_EZDXF
350
2E
  3
WRITTEN_BY_EZDXF
350
3F
  0
DICTIONARYVAR
  5
2E
330
2D
100
DictionaryVariables
280
0
  1
1.4.4 @ 2026-07-22T08:53:59.895068+00:00
  0
DICTIONARYVAR
  5
3F
330
2D
100
DictionaryVariables
280
0
  1
1.4.4 @ 2026-07-22T08:53:59.914791+00:00
  0
ENDSEC
  0
EOF
