<svg viewBox="-8.45375 -40.39675 16.4685 73.7825" width="100%" height="100%" xmlns="http://www.w3.org/2000/svg">
  <style>
    svg { background: #FFFFFF; }
    .cut { stroke: #0073CC; stroke-width: 1.5; fill: none; stroke-linecap: round; stroke-linejoin: round; }
    .fold { stroke: #E84D00; stroke-width: 1.2; stroke-dasharray: 4,4; fill: none; }
  </style>
  <g transform="scale(1, -1) translate(0, 10.364749999999997)">
    <polyline points="0.049,-37.043 -0.829,-32.853 -1.756,-28.326 -2.897,-22.27 -3.826,-16.309 -4.525,-10.35 -4.949,-4.427 -5.1,1.201 -5.059,5.371 -4.855,9.576 -4.492,13.779 -3.905,17.972 -3.001,22.143 -1.541,26.245 -0.016,28.758 1.645,30.032 2.995,29.023 3.704,26.472 4.201,22.324 4.478,18.111 4.613,13.898 4.661,9.685 4.661,5.476 4.59,1.302 4.291,-4.249 3.791,-10.172 3.197,-16.139 2.604,-22.121 2.067,-28.207 1.767,-32.811 1.649,-37.043 0.049,-37.043" class="cut" />
  </g>
</svg>