ISO-10303-21;
HEADER;
/* Generated by software containing ST-Developer
 * from STEP Tools, Inc. (www.steptools.com) 
 */
/* OPTION: using custom renumber hook */
/* OPTION: strings as raw bytes, not using required /X/ escapes */

FILE_DESCRIPTION(
/* description */ ('Unknown'),
/* implementation_level */ '2;1');

FILE_NAME(
/* name */ 'Bok - pozicija 1 - DESNA',
/* time_stamp */ '2026-07-24T10:38:33+05:30',
/* author */ ('Unknown'),
/* organization */ ('Unknown'),
/* preprocessor_version */ 'ST-DEVELOPER v20',
/* originating_system */ 'Solid Edge',
/* authorisation */ 'Unknown');

FILE_SCHEMA (('AUTOMOTIVE_DESIGN {1 0 10303 214 3 1 1}'));
ENDSEC;

DATA;
#10=PROPERTY_DEFINITION_REPRESENTATION(#14,#12);
#11=PROPERTY_DEFINITION_REPRESENTATION(#15,#13);
#12=REPRESENTATION('',(#16),#2023);
#13=REPRESENTATION('',(#17),#2023);
#14=PROPERTY_DEFINITION('pmi validation property','',#2028);
#15=PROPERTY_DEFINITION('pmi validation property','',#2028);
#16=VALUE_REPRESENTATION_ITEM('number of annotations',COUNT_MEASURE(0.));
#17=VALUE_REPRESENTATION_ITEM('number of views',COUNT_MEASURE(0.));
#18=SHAPE_REPRESENTATION_RELATIONSHIP('','',#1175,#19);
#19=ADVANCED_BREP_SHAPE_REPRESENTATION('',(#1173),#2023);
#20=B_SPLINE_SURFACE_WITH_KNOTS('',1,3,((#1855,#1856,#1857,#1858,#1859,
#1860),(#1861,#1862,#1863,#1864,#1865,#1866)),.RULED_SURF.,.F.,.F.,.F.,
(2,2),(4,2,4),(0.,1.),(0.,0.5,1.),.UNSPECIFIED.);
#21=B_SPLINE_SURFACE_WITH_KNOTS('',1,3,((#1867,#1868,#1869,#1870,#1871,
#1872),(#1873,#1874,#1875,#1876,#1877,#1878)),.RULED_SURF.,.F.,.F.,.F.,
(2,2),(4,2,4),(0.,1.),(0.,0.5,1.),.UNSPECIFIED.);
#22=B_SPLINE_SURFACE_WITH_KNOTS('',1,3,((#1930,#1931,#1932,#1933,#1934,
#1935),(#1936,#1937,#1938,#1939,#1940,#1941)),.RULED_SURF.,.F.,.F.,.F.,
(2,2),(4,2,4),(0.,1.),(0.,0.5,1.),.UNSPECIFIED.);
#23=B_SPLINE_SURFACE_WITH_KNOTS('',1,3,((#1942,#1943,#1944,#1945,#1946,
#1947),(#1948,#1949,#1950,#1951,#1952,#1953)),.RULED_SURF.,.F.,.F.,.F.,
(2,2),(4,2,4),(0.,1.),(0.,0.5,1.),.UNSPECIFIED.);
#24=B_SPLINE_SURFACE_WITH_KNOTS('',1,3,((#1996,#1997,#1998,#1999,#2000,
#2001),(#2002,#2003,#2004,#2005,#2006,#2007)),.RULED_SURF.,.F.,.F.,.F.,
(2,2),(4,2,4),(0.,1.),(0.,0.5,1.),.UNSPECIFIED.);
#25=B_SPLINE_CURVE_WITH_KNOTS('',3,(#1838,#1839,#1840,#1841),
 .UNSPECIFIED.,.F.,.F.,(4,4),(0.,1.),.UNSPECIFIED.);
#26=B_SPLINE_CURVE_WITH_KNOTS('',3,(#1842,#1843,#1844,#1845),
 .UNSPECIFIED.,.F.,.F.,(4,4),(0.,1.),.UNSPECIFIED.);
#27=B_SPLINE_CURVE_WITH_KNOTS('',3,(#1847,#1848,#1849,#1850),
 .UNSPECIFIED.,.F.,.F.,(4,4),(0.,1.),.UNSPECIFIED.);
#28=B_SPLINE_CURVE_WITH_KNOTS('',3,(#1851,#1852,#1853,#1854),
 .UNSPECIFIED.,.F.,.F.,(4,4),(0.,1.),.UNSPECIFIED.);
#29=B_SPLINE_CURVE_WITH_KNOTS('',3,(#1913,#1914,#1915,#1916),
 .UNSPECIFIED.,.F.,.F.,(4,4),(0.,1.),.UNSPECIFIED.);
#30=B_SPLINE_CURVE_WITH_KNOTS('',3,(#1917,#1918,#1919,#1920),
 .UNSPECIFIED.,.F.,.F.,(4,4),(0.,1.),.UNSPECIFIED.);
#31=B_SPLINE_CURVE_WITH_KNOTS('',3,(#1922,#1923,#1924,#1925),
 .UNSPECIFIED.,.F.,.F.,(4,4),(0.,1.),.UNSPECIFIED.);
#32=B_SPLINE_CURVE_WITH_KNOTS('',3,(#1926,#1927,#1928,#1929),
 .UNSPECIFIED.,.F.,.F.,(4,4),(0.,1.),.UNSPECIFIED.);
#33=B_SPLINE_CURVE_WITH_KNOTS('',3,(#1987,#1988,#1989,#1990),
 .UNSPECIFIED.,.F.,.F.,(4,4),(0.,1.),.UNSPECIFIED.);
#34=B_SPLINE_CURVE_WITH_KNOTS('',3,(#1992,#1993,#1994,#1995),
 .UNSPECIFIED.,.F.,.F.,(4,4),(0.,1.),.UNSPECIFIED.);
#35=CYLINDRICAL_SURFACE('',#1214,1.3);
#36=CYLINDRICAL_SURFACE('',#1215,2.3);
#37=CYLINDRICAL_SURFACE('',#1216,1.3);
#38=CYLINDRICAL_SURFACE('',#1217,2.3);
#39=CYLINDRICAL_SURFACE('',#1221,1.3);
#40=CYLINDRICAL_SURFACE('',#1223,2.3);
#41=CYLINDRICAL_SURFACE('',#1235,2.3);
#42=CYLINDRICAL_SURFACE('',#1236,1.3);
#43=CYLINDRICAL_SURFACE('',#1253,2.3);
#44=CYLINDRICAL_SURFACE('',#1254,1.3);
#45=CYLINDRICAL_SURFACE('',#1264,2.3);
#46=CYLINDRICAL_SURFACE('',#1265,1.3);
#47=CYLINDRICAL_SURFACE('',#1278,2.3);
#48=CYLINDRICAL_SURFACE('',#1279,1.3);
#49=CYLINDRICAL_SURFACE('',#1280,2.05);
#50=CYLINDRICAL_SURFACE('',#1281,2.05);
#51=CYLINDRICAL_SURFACE('',#1282,2.05);
#52=CYLINDRICAL_SURFACE('',#1283,2.05);
#53=CYLINDRICAL_SURFACE('',#1284,2.05);
#54=CYLINDRICAL_SURFACE('',#1285,2.05);
#55=CYLINDRICAL_SURFACE('',#1286,2.05);
#56=CYLINDRICAL_SURFACE('',#1287,2.05);
#57=CYLINDRICAL_SURFACE('',#1288,2.05);
#58=CYLINDRICAL_SURFACE('',#1289,2.05);
#59=CYLINDRICAL_SURFACE('',#1290,2.05);
#60=CYLINDRICAL_SURFACE('',#1291,2.05);
#61=CYLINDRICAL_SURFACE('',#1292,2.05);
#62=CYLINDRICAL_SURFACE('',#1293,2.05);
#63=CIRCLE('',#1178,1.3);
#64=CIRCLE('',#1179,2.3);
#65=CIRCLE('',#1180,2.3);
#66=CIRCLE('',#1181,1.3);
#67=CIRCLE('',#1183,2.3);
#68=CIRCLE('',#1184,1.3);
#69=CIRCLE('',#1185,1.3);
#70=CIRCLE('',#1186,2.3);
#71=CIRCLE('',#1189,2.3);
#72=CIRCLE('',#1190,1.3);
#73=CIRCLE('',#1191,1.3);
#74=CIRCLE('',#1192,2.3);
#75=CIRCLE('',#1194,1.3);
#76=CIRCLE('',#1195,2.3);
#77=CIRCLE('',#1196,2.3);
#78=CIRCLE('',#1197,1.3);
#79=CIRCLE('',#1200,1.3);
#80=CIRCLE('',#1201,2.3);
#81=CIRCLE('',#1202,2.3);
#82=CIRCLE('',#1203,1.3);
#83=CIRCLE('',#1205,2.3);
#84=CIRCLE('',#1206,1.3);
#85=CIRCLE('',#1207,1.3);
#86=CIRCLE('',#1208,2.3);
#87=CIRCLE('',#1219,1.3);
#88=CIRCLE('',#1220,2.3);
#89=CIRCLE('',#1222,1.3);
#90=CIRCLE('',#1224,2.3);
#91=CIRCLE('',#1228,2.05);
#92=CIRCLE('',#1229,2.05);
#93=CIRCLE('',#1230,2.05);
#94=CIRCLE('',#1232,2.05);
#95=CIRCLE('',#1233,2.05);
#96=CIRCLE('',#1234,2.05);
#97=CIRCLE('',#1241,2.05);
#98=CIRCLE('',#1242,2.05);
#99=CIRCLE('',#1243,2.05);
#100=CIRCLE('',#1244,2.05);
#101=CIRCLE('',#1245,2.05);
#102=CIRCLE('',#1247,2.05);
#103=CIRCLE('',#1248,2.05);
#104=CIRCLE('',#1249,2.05);
#105=CIRCLE('',#1250,2.05);
#106=CIRCLE('',#1251,2.05);
#107=CIRCLE('',#1258,2.05);
#108=CIRCLE('',#1259,2.05);
#109=CIRCLE('',#1261,2.05);
#110=CIRCLE('',#1262,2.05);
#111=CIRCLE('',#1268,2.05);
#112=CIRCLE('',#1269,2.05);
#113=CIRCLE('',#1270,2.05);
#114=CIRCLE('',#1271,2.05);
#115=CIRCLE('',#1273,2.05);
#116=CIRCLE('',#1274,2.05);
#117=CIRCLE('',#1275,2.05);
#118=CIRCLE('',#1276,2.05);
#119=ORIENTED_EDGE('',*,*,#423,.F.);
#120=ORIENTED_EDGE('',*,*,#424,.F.);
#121=ORIENTED_EDGE('',*,*,#425,.T.);
#122=ORIENTED_EDGE('',*,*,#426,.F.);
#123=ORIENTED_EDGE('',*,*,#427,.F.);
#124=ORIENTED_EDGE('',*,*,#428,.T.);
#125=ORIENTED_EDGE('',*,*,#429,.T.);
#126=ORIENTED_EDGE('',*,*,#430,.T.);
#127=ORIENTED_EDGE('',*,*,#431,.F.);
#128=ORIENTED_EDGE('',*,*,#432,.F.);
#129=ORIENTED_EDGE('',*,*,#433,.F.);
#130=ORIENTED_EDGE('',*,*,#434,.F.);
#131=ORIENTED_EDGE('',*,*,#435,.F.);
#132=ORIENTED_EDGE('',*,*,#436,.T.);
#133=ORIENTED_EDGE('',*,*,#437,.T.);
#134=ORIENTED_EDGE('',*,*,#438,.T.);
#135=ORIENTED_EDGE('',*,*,#439,.F.);
#136=ORIENTED_EDGE('',*,*,#440,.F.);
#137=ORIENTED_EDGE('',*,*,#429,.F.);
#138=ORIENTED_EDGE('',*,*,#441,.T.);
#139=ORIENTED_EDGE('',*,*,#433,.T.);
#140=ORIENTED_EDGE('',*,*,#442,.T.);
#141=ORIENTED_EDGE('',*,*,#443,.T.);
#142=ORIENTED_EDGE('',*,*,#444,.T.);
#143=ORIENTED_EDGE('',*,*,#445,.F.);
#144=ORIENTED_EDGE('',*,*,#446,.F.);
#145=ORIENTED_EDGE('',*,*,#447,.F.);
#146=ORIENTED_EDGE('',*,*,#448,.T.);
#147=ORIENTED_EDGE('',*,*,#449,.T.);
#148=ORIENTED_EDGE('',*,*,#450,.F.);
#149=ORIENTED_EDGE('',*,*,#451,.T.);
#150=ORIENTED_EDGE('',*,*,#452,.T.);
#151=ORIENTED_EDGE('',*,*,#453,.T.);
#152=ORIENTED_EDGE('',*,*,#454,.F.);
#153=ORIENTED_EDGE('',*,*,#455,.F.);
#154=ORIENTED_EDGE('',*,*,#456,.T.);
#155=ORIENTED_EDGE('',*,*,#439,.T.);
#156=ORIENTED_EDGE('',*,*,#457,.F.);
#157=ORIENTED_EDGE('',*,*,#455,.T.);
#158=ORIENTED_EDGE('',*,*,#458,.T.);
#159=ORIENTED_EDGE('',*,*,#443,.F.);
#160=ORIENTED_EDGE('',*,*,#459,.T.);
#161=ORIENTED_EDGE('',*,*,#460,.F.);
#162=ORIENTED_EDGE('',*,*,#461,.F.);
#163=ORIENTED_EDGE('',*,*,#462,.T.);
#164=ORIENTED_EDGE('',*,*,#463,.T.);
#165=ORIENTED_EDGE('',*,*,#464,.T.);
#166=ORIENTED_EDGE('',*,*,#465,.F.);
#167=ORIENTED_EDGE('',*,*,#449,.F.);
#168=ORIENTED_EDGE('',*,*,#466,.T.);
#169=ORIENTED_EDGE('',*,*,#467,.T.);
#170=ORIENTED_EDGE('',*,*,#468,.T.);
#171=ORIENTED_EDGE('',*,*,#469,.F.);
#172=ORIENTED_EDGE('',*,*,#470,.F.);
#173=ORIENTED_EDGE('',*,*,#471,.F.);
#174=ORIENTED_EDGE('',*,*,#472,.T.);
#175=ORIENTED_EDGE('',*,*,#473,.F.);
#176=ORIENTED_EDGE('',*,*,#474,.F.);
#177=ORIENTED_EDGE('',*,*,#464,.F.);
#178=ORIENTED_EDGE('',*,*,#475,.T.);
#179=ORIENTED_EDGE('',*,*,#467,.F.);
#180=ORIENTED_EDGE('',*,*,#476,.T.);
#181=ORIENTED_EDGE('',*,*,#477,.F.);
#182=ORIENTED_EDGE('',*,*,#451,.F.);
#183=ORIENTED_EDGE('',*,*,#478,.F.);
#184=ORIENTED_EDGE('',*,*,#447,.T.);
#185=ORIENTED_EDGE('',*,*,#479,.F.);
#186=ORIENTED_EDGE('',*,*,#423,.T.);
#187=ORIENTED_EDGE('',*,*,#480,.F.);
#188=ORIENTED_EDGE('',*,*,#437,.F.);
#189=ORIENTED_EDGE('',*,*,#481,.T.);
#190=ORIENTED_EDGE('',*,*,#482,.T.);
#191=ORIENTED_EDGE('',*,*,#483,.T.);
#192=ORIENTED_EDGE('',*,*,#484,.T.);
#193=ORIENTED_EDGE('',*,*,#485,.F.);
#194=ORIENTED_EDGE('',*,*,#486,.F.);
#195=ORIENTED_EDGE('',*,*,#487,.F.);
#196=ORIENTED_EDGE('',*,*,#488,.F.);
#197=ORIENTED_EDGE('',*,*,#478,.T.);
#198=ORIENTED_EDGE('',*,*,#457,.T.);
#199=ORIENTED_EDGE('',*,*,#487,.T.);
#200=ORIENTED_EDGE('',*,*,#448,.F.);
#201=ORIENTED_EDGE('',*,*,#456,.F.);
#202=ORIENTED_EDGE('',*,*,#459,.F.);
#203=ORIENTED_EDGE('',*,*,#450,.T.);
#204=ORIENTED_EDGE('',*,*,#484,.F.);
#205=ORIENTED_EDGE('',*,*,#480,.T.);
#206=ORIENTED_EDGE('',*,*,#432,.T.);
#207=ORIENTED_EDGE('',*,*,#488,.T.);
#208=ORIENTED_EDGE('',*,*,#438,.F.);
#209=ORIENTED_EDGE('',*,*,#430,.F.);
#210=ORIENTED_EDGE('',*,*,#442,.F.);
#211=ORIENTED_EDGE('',*,*,#440,.T.);
#212=ORIENTED_EDGE('',*,*,#483,.F.);
#213=ORIENTED_EDGE('',*,*,#473,.T.);
#214=ORIENTED_EDGE('',*,*,#489,.T.);
#215=ORIENTED_EDGE('',*,*,#490,.F.);
#216=ORIENTED_EDGE('',*,*,#491,.F.);
#217=ORIENTED_EDGE('',*,*,#492,.T.);
#218=ORIENTED_EDGE('',*,*,#493,.F.);
#219=ORIENTED_EDGE('',*,*,#489,.F.);
#220=ORIENTED_EDGE('',*,*,#485,.T.);
#221=ORIENTED_EDGE('',*,*,#494,.F.);
#222=ORIENTED_EDGE('',*,*,#495,.T.);
#223=ORIENTED_EDGE('',*,*,#482,.F.);
#224=ORIENTED_EDGE('',*,*,#493,.T.);
#225=ORIENTED_EDGE('',*,*,#496,.F.);
#226=ORIENTED_EDGE('',*,*,#497,.T.);
#227=ORIENTED_EDGE('',*,*,#494,.T.);
#228=ORIENTED_EDGE('',*,*,#431,.T.);
#229=ORIENTED_EDGE('',*,*,#497,.F.);
#230=ORIENTED_EDGE('',*,*,#498,.T.);
#231=ORIENTED_EDGE('',*,*,#499,.F.);
#232=ORIENTED_EDGE('',*,*,#500,.F.);
#233=ORIENTED_EDGE('',*,*,#501,.T.);
#234=ORIENTED_EDGE('',*,*,#499,.T.);
#235=ORIENTED_EDGE('',*,*,#502,.F.);
#236=ORIENTED_EDGE('',*,*,#491,.T.);
#237=ORIENTED_EDGE('',*,*,#503,.T.);
#238=ORIENTED_EDGE('',*,*,#504,.T.);
#239=ORIENTED_EDGE('',*,*,#505,.T.);
#240=ORIENTED_EDGE('',*,*,#495,.F.);
#241=ORIENTED_EDGE('',*,*,#500,.T.);
#242=ORIENTED_EDGE('',*,*,#501,.F.);
#243=ORIENTED_EDGE('',*,*,#490,.T.);
#244=ORIENTED_EDGE('',*,*,#506,.F.);
#245=ORIENTED_EDGE('',*,*,#507,.F.);
#246=ORIENTED_EDGE('',*,*,#508,.F.);
#247=ORIENTED_EDGE('',*,*,#498,.F.);
#248=ORIENTED_EDGE('',*,*,#496,.T.);
#249=ORIENTED_EDGE('',*,*,#492,.F.);
#250=ORIENTED_EDGE('',*,*,#502,.T.);
#251=ORIENTED_EDGE('',*,*,#476,.F.);
#252=ORIENTED_EDGE('',*,*,#474,.T.);
#253=ORIENTED_EDGE('',*,*,#481,.F.);
#254=ORIENTED_EDGE('',*,*,#465,.T.);
#255=ORIENTED_EDGE('',*,*,#472,.F.);
#256=ORIENTED_EDGE('',*,*,#509,.T.);
#257=ORIENTED_EDGE('',*,*,#466,.F.);
#258=ORIENTED_EDGE('',*,*,#486,.T.);
#259=ORIENTED_EDGE('',*,*,#510,.F.);
#260=ORIENTED_EDGE('',*,*,#460,.T.);
#261=ORIENTED_EDGE('',*,*,#509,.F.);
#262=ORIENTED_EDGE('',*,*,#471,.T.);
#263=ORIENTED_EDGE('',*,*,#511,.F.);
#264=ORIENTED_EDGE('',*,*,#512,.T.);
#265=ORIENTED_EDGE('',*,*,#513,.F.);
#266=ORIENTED_EDGE('',*,*,#514,.F.);
#267=ORIENTED_EDGE('',*,*,#515,.T.);
#268=ORIENTED_EDGE('',*,*,#516,.F.);
#269=ORIENTED_EDGE('',*,*,#517,.T.);
#270=ORIENTED_EDGE('',*,*,#518,.T.);
#271=ORIENTED_EDGE('',*,*,#519,.F.);
#272=ORIENTED_EDGE('',*,*,#520,.F.);
#273=ORIENTED_EDGE('',*,*,#521,.F.);
#274=ORIENTED_EDGE('',*,*,#522,.F.);
#275=ORIENTED_EDGE('',*,*,#523,.F.);
#276=ORIENTED_EDGE('',*,*,#516,.T.);
#277=ORIENTED_EDGE('',*,*,#524,.T.);
#278=ORIENTED_EDGE('',*,*,#514,.T.);
#279=ORIENTED_EDGE('',*,*,#525,.T.);
#280=ORIENTED_EDGE('',*,*,#526,.T.);
#281=ORIENTED_EDGE('',*,*,#527,.T.);
#282=ORIENTED_EDGE('',*,*,#528,.T.);
#283=ORIENTED_EDGE('',*,*,#529,.T.);
#284=ORIENTED_EDGE('',*,*,#530,.T.);
#285=ORIENTED_EDGE('',*,*,#531,.F.);
#286=ORIENTED_EDGE('',*,*,#518,.F.);
#287=ORIENTED_EDGE('',*,*,#532,.F.);
#288=ORIENTED_EDGE('',*,*,#512,.F.);
#289=ORIENTED_EDGE('',*,*,#532,.T.);
#290=ORIENTED_EDGE('',*,*,#517,.F.);
#291=ORIENTED_EDGE('',*,*,#525,.F.);
#292=ORIENTED_EDGE('',*,*,#513,.T.);
#293=ORIENTED_EDGE('',*,*,#475,.F.);
#294=ORIENTED_EDGE('',*,*,#463,.F.);
#295=ORIENTED_EDGE('',*,*,#533,.T.);
#296=ORIENTED_EDGE('',*,*,#524,.F.);
#297=ORIENTED_EDGE('',*,*,#534,.T.);
#298=ORIENTED_EDGE('',*,*,#468,.F.);
#299=ORIENTED_EDGE('',*,*,#510,.T.);
#300=ORIENTED_EDGE('',*,*,#470,.T.);
#301=ORIENTED_EDGE('',*,*,#535,.F.);
#302=ORIENTED_EDGE('',*,*,#531,.T.);
#303=ORIENTED_EDGE('',*,*,#536,.F.);
#304=ORIENTED_EDGE('',*,*,#461,.T.);
#305=ORIENTED_EDGE('',*,*,#515,.F.);
#306=ORIENTED_EDGE('',*,*,#535,.T.);
#307=ORIENTED_EDGE('',*,*,#469,.T.);
#308=ORIENTED_EDGE('',*,*,#534,.F.);
#309=ORIENTED_EDGE('',*,*,#536,.T.);
#310=ORIENTED_EDGE('',*,*,#511,.T.);
#311=ORIENTED_EDGE('',*,*,#533,.F.);
#312=ORIENTED_EDGE('',*,*,#462,.F.);
#313=ORIENTED_EDGE('',*,*,#537,.F.);
#314=ORIENTED_EDGE('',*,*,#538,.T.);
#315=ORIENTED_EDGE('',*,*,#539,.F.);
#316=ORIENTED_EDGE('',*,*,#540,.F.);
#317=ORIENTED_EDGE('',*,*,#541,.T.);
#318=ORIENTED_EDGE('',*,*,#542,.F.);
#319=ORIENTED_EDGE('',*,*,#543,.T.);
#320=ORIENTED_EDGE('',*,*,#544,.T.);
#321=ORIENTED_EDGE('',*,*,#545,.F.);
#322=ORIENTED_EDGE('',*,*,#546,.F.);
#323=ORIENTED_EDGE('',*,*,#547,.T.);
#324=ORIENTED_EDGE('',*,*,#540,.T.);
#325=ORIENTED_EDGE('',*,*,#548,.T.);
#326=ORIENTED_EDGE('',*,*,#542,.T.);
#327=ORIENTED_EDGE('',*,*,#549,.F.);
#328=ORIENTED_EDGE('',*,*,#550,.F.);
#329=ORIENTED_EDGE('',*,*,#538,.F.);
#330=ORIENTED_EDGE('',*,*,#551,.F.);
#331=ORIENTED_EDGE('',*,*,#544,.F.);
#332=ORIENTED_EDGE('',*,*,#552,.F.);
#333=ORIENTED_EDGE('',*,*,#552,.T.);
#334=ORIENTED_EDGE('',*,*,#543,.F.);
#335=ORIENTED_EDGE('',*,*,#548,.F.);
#336=ORIENTED_EDGE('',*,*,#539,.T.);
#337=ORIENTED_EDGE('',*,*,#458,.F.);
#338=ORIENTED_EDGE('',*,*,#454,.T.);
#339=ORIENTED_EDGE('',*,*,#553,.T.);
#340=ORIENTED_EDGE('',*,*,#547,.F.);
#341=ORIENTED_EDGE('',*,*,#554,.T.);
#342=ORIENTED_EDGE('',*,*,#444,.F.);
#343=ORIENTED_EDGE('',*,*,#477,.T.);
#344=ORIENTED_EDGE('',*,*,#446,.T.);
#345=ORIENTED_EDGE('',*,*,#555,.F.);
#346=ORIENTED_EDGE('',*,*,#551,.T.);
#347=ORIENTED_EDGE('',*,*,#556,.F.);
#348=ORIENTED_EDGE('',*,*,#452,.F.);
#349=ORIENTED_EDGE('',*,*,#541,.F.);
#350=ORIENTED_EDGE('',*,*,#555,.T.);
#351=ORIENTED_EDGE('',*,*,#445,.T.);
#352=ORIENTED_EDGE('',*,*,#554,.F.);
#353=ORIENTED_EDGE('',*,*,#556,.T.);
#354=ORIENTED_EDGE('',*,*,#537,.T.);
#355=ORIENTED_EDGE('',*,*,#553,.F.);
#356=ORIENTED_EDGE('',*,*,#453,.F.);
#357=ORIENTED_EDGE('',*,*,#557,.T.);
#358=ORIENTED_EDGE('',*,*,#558,.F.);
#359=ORIENTED_EDGE('',*,*,#559,.T.);
#360=ORIENTED_EDGE('',*,*,#560,.T.);
#361=ORIENTED_EDGE('',*,*,#561,.F.);
#362=ORIENTED_EDGE('',*,*,#562,.F.);
#363=ORIENTED_EDGE('',*,*,#563,.F.);
#364=ORIENTED_EDGE('',*,*,#564,.F.);
#365=ORIENTED_EDGE('',*,*,#565,.T.);
#366=ORIENTED_EDGE('',*,*,#427,.T.);
#367=ORIENTED_EDGE('',*,*,#566,.T.);
#368=ORIENTED_EDGE('',*,*,#558,.T.);
#369=ORIENTED_EDGE('',*,*,#567,.F.);
#370=ORIENTED_EDGE('',*,*,#568,.F.);
#371=ORIENTED_EDGE('',*,*,#569,.F.);
#372=ORIENTED_EDGE('',*,*,#570,.F.);
#373=ORIENTED_EDGE('',*,*,#425,.F.);
#374=ORIENTED_EDGE('',*,*,#571,.F.);
#375=ORIENTED_EDGE('',*,*,#560,.F.);
#376=ORIENTED_EDGE('',*,*,#572,.F.);
#377=ORIENTED_EDGE('',*,*,#572,.T.);
#378=ORIENTED_EDGE('',*,*,#559,.F.);
#379=ORIENTED_EDGE('',*,*,#566,.F.);
#380=ORIENTED_EDGE('',*,*,#426,.T.);
#381=ORIENTED_EDGE('',*,*,#441,.F.);
#382=ORIENTED_EDGE('',*,*,#428,.F.);
#383=ORIENTED_EDGE('',*,*,#565,.F.);
#384=ORIENTED_EDGE('',*,*,#573,.T.);
#385=ORIENTED_EDGE('',*,*,#434,.T.);
#386=ORIENTED_EDGE('',*,*,#479,.T.);
#387=ORIENTED_EDGE('',*,*,#436,.F.);
#388=ORIENTED_EDGE('',*,*,#574,.F.);
#389=ORIENTED_EDGE('',*,*,#571,.T.);
#390=ORIENTED_EDGE('',*,*,#424,.T.);
#391=ORIENTED_EDGE('',*,*,#557,.F.);
#392=ORIENTED_EDGE('',*,*,#574,.T.);
#393=ORIENTED_EDGE('',*,*,#435,.T.);
#394=ORIENTED_EDGE('',*,*,#573,.F.);
#395=ORIENTED_EDGE('',*,*,#505,.F.);
#396=ORIENTED_EDGE('',*,*,#508,.T.);
#397=ORIENTED_EDGE('',*,*,#504,.F.);
#398=ORIENTED_EDGE('',*,*,#507,.T.);
#399=ORIENTED_EDGE('',*,*,#503,.F.);
#400=ORIENTED_EDGE('',*,*,#506,.T.);
#401=ORIENTED_EDGE('',*,*,#564,.T.);
#402=ORIENTED_EDGE('',*,*,#570,.T.);
#403=ORIENTED_EDGE('',*,*,#546,.T.);
#404=ORIENTED_EDGE('',*,*,#550,.T.);
#405=ORIENTED_EDGE('',*,*,#545,.T.);
#406=ORIENTED_EDGE('',*,*,#549,.T.);
#407=ORIENTED_EDGE('',*,*,#530,.F.);
#408=ORIENTED_EDGE('',*,*,#523,.T.);
#409=ORIENTED_EDGE('',*,*,#529,.F.);
#410=ORIENTED_EDGE('',*,*,#522,.T.);
#411=ORIENTED_EDGE('',*,*,#528,.F.);
#412=ORIENTED_EDGE('',*,*,#521,.T.);
#413=ORIENTED_EDGE('',*,*,#527,.F.);
#414=ORIENTED_EDGE('',*,*,#520,.T.);
#415=ORIENTED_EDGE('',*,*,#526,.F.);
#416=ORIENTED_EDGE('',*,*,#519,.T.);
#417=ORIENTED_EDGE('',*,*,#563,.T.);
#418=ORIENTED_EDGE('',*,*,#569,.T.);
#419=ORIENTED_EDGE('',*,*,#562,.T.);
#420=ORIENTED_EDGE('',*,*,#568,.T.);
#421=ORIENTED_EDGE('',*,*,#561,.T.);
#422=ORIENTED_EDGE('',*,*,#567,.T.);
#423=EDGE_CURVE('',#575,#576,#677,.T.);
#424=EDGE_CURVE('',#577,#575,#63,.F.);
#425=EDGE_CURVE('',#577,#578,#678,.T.);
#426=EDGE_CURVE('',#579,#578,#679,.T.);
#427=EDGE_CURVE('',#580,#579,#680,.T.);
#428=EDGE_CURVE('',#580,#581,#64,.T.);
#429=EDGE_CURVE('',#581,#582,#681,.T.);
#430=EDGE_CURVE('',#582,#583,#65,.F.);
#431=EDGE_CURVE('',#584,#583,#682,.T.);
#432=EDGE_CURVE('',#576,#584,#66,.F.);
#433=EDGE_CURVE('',#585,#586,#683,.T.);
#434=EDGE_CURVE('',#587,#585,#67,.T.);
#435=EDGE_CURVE('',#588,#587,#684,.T.);
#436=EDGE_CURVE('',#588,#589,#68,.F.);
#437=EDGE_CURVE('',#589,#590,#685,.T.);
#438=EDGE_CURVE('',#590,#591,#69,.F.);
#439=EDGE_CURVE('',#592,#591,#686,.T.);
#440=EDGE_CURVE('',#586,#592,#70,.F.);
#441=EDGE_CURVE('',#581,#585,#687,.T.);
#442=EDGE_CURVE('',#586,#582,#688,.T.);
#443=EDGE_CURVE('',#593,#594,#689,.T.);
#444=EDGE_CURVE('',#594,#595,#71,.T.);
#445=EDGE_CURVE('',#596,#595,#690,.T.);
#446=EDGE_CURVE('',#597,#596,#72,.T.);
#447=EDGE_CURVE('',#598,#597,#691,.T.);
#448=EDGE_CURVE('',#598,#599,#73,.F.);
#449=EDGE_CURVE('',#599,#600,#692,.T.);
#450=EDGE_CURVE('',#593,#600,#74,.F.);
#451=EDGE_CURVE('',#601,#602,#693,.T.);
#452=EDGE_CURVE('',#602,#603,#75,.T.);
#453=EDGE_CURVE('',#603,#604,#694,.T.);
#454=EDGE_CURVE('',#605,#604,#76,.T.);
#455=EDGE_CURVE('',#606,#605,#695,.T.);
#456=EDGE_CURVE('',#606,#592,#77,.F.);
#457=EDGE_CURVE('',#601,#591,#78,.F.);
#458=EDGE_CURVE('',#605,#594,#696,.T.);
#459=EDGE_CURVE('',#593,#606,#697,.T.);
#460=EDGE_CURVE('',#607,#608,#698,.T.);
#461=EDGE_CURVE('',#609,#607,#79,.F.);
#462=EDGE_CURVE('',#609,#610,#699,.T.);
#463=EDGE_CURVE('',#610,#611,#80,.T.);
#464=EDGE_CURVE('',#611,#612,#700,.T.);
#465=EDGE_CURVE('',#600,#612,#81,.T.);
#466=EDGE_CURVE('',#599,#608,#82,.T.);
#467=EDGE_CURVE('',#613,#614,#701,.T.);
#468=EDGE_CURVE('',#614,#615,#83,.T.);
#469=EDGE_CURVE('',#616,#615,#702,.T.);
#470=EDGE_CURVE('',#617,#616,#84,.T.);
#471=EDGE_CURVE('',#618,#617,#703,.T.);
#472=EDGE_CURVE('',#618,#619,#85,.F.);
#473=EDGE_CURVE('',#620,#619,#704,.T.);
#474=EDGE_CURVE('',#613,#620,#86,.F.);
#475=EDGE_CURVE('',#611,#614,#705,.T.);
#476=EDGE_CURVE('',#613,#612,#706,.T.);
#477=EDGE_CURVE('',#602,#597,#707,.T.);
#478=EDGE_CURVE('',#598,#601,#708,.T.);
#479=EDGE_CURVE('',#575,#589,#709,.T.);
#480=EDGE_CURVE('',#590,#576,#710,.T.);
#481=EDGE_CURVE('',#600,#620,#711,.T.);
#482=EDGE_CURVE('',#620,#583,#712,.T.);
#483=EDGE_CURVE('',#583,#592,#713,.T.);
#484=EDGE_CURVE('',#592,#600,#714,.T.);
#485=EDGE_CURVE('',#619,#584,#715,.T.);
#486=EDGE_CURVE('',#599,#619,#716,.T.);
#487=EDGE_CURVE('',#591,#599,#717,.T.);
#488=EDGE_CURVE('',#584,#591,#718,.T.);
#489=EDGE_CURVE('',#619,#621,#87,.F.);
#490=EDGE_CURVE('',#622,#621,#719,.T.);
#491=EDGE_CURVE('',#623,#622,#720,.T.);
#492=EDGE_CURVE('',#623,#624,#721,.T.);
#493=EDGE_CURVE('',#620,#624,#88,.F.);
#494=EDGE_CURVE('',#625,#584,#89,.F.);
#495=EDGE_CURVE('',#625,#621,#722,.T.);
#496=EDGE_CURVE('',#626,#624,#723,.T.);
#497=EDGE_CURVE('',#626,#583,#90,.T.);
#498=EDGE_CURVE('',#626,#627,#724,.T.);
#499=EDGE_CURVE('',#628,#627,#725,.T.);
#500=EDGE_CURVE('',#625,#628,#726,.T.);
#501=EDGE_CURVE('',#622,#628,#727,.T.);
#502=EDGE_CURVE('',#623,#627,#728,.T.);
#503=EDGE_CURVE('',#629,#629,#91,.T.);
#504=EDGE_CURVE('',#630,#630,#92,.T.);
#505=EDGE_CURVE('',#631,#631,#93,.T.);
#506=EDGE_CURVE('',#632,#632,#94,.T.);
#507=EDGE_CURVE('',#633,#633,#95,.T.);
#508=EDGE_CURVE('',#634,#634,#96,.T.);
#509=EDGE_CURVE('',#618,#608,#729,.T.);
#510=EDGE_CURVE('',#607,#617,#730,.T.);
#511=EDGE_CURVE('',#635,#636,#731,.T.);
#512=EDGE_CURVE('',#635,#637,#732,.T.);
#513=EDGE_CURVE('',#638,#637,#733,.T.);
#514=EDGE_CURVE('',#636,#638,#734,.T.);
#515=EDGE_CURVE('',#639,#640,#735,.T.);
#516=EDGE_CURVE('',#641,#640,#736,.T.);
#517=EDGE_CURVE('',#641,#642,#737,.T.);
#518=EDGE_CURVE('',#642,#639,#738,.T.);
#519=EDGE_CURVE('',#643,#643,#97,.T.);
#520=EDGE_CURVE('',#644,#644,#98,.T.);
#521=EDGE_CURVE('',#645,#645,#99,.T.);
#522=EDGE_CURVE('',#646,#646,#100,.T.);
#523=EDGE_CURVE('',#647,#647,#101,.T.);
#524=EDGE_CURVE('',#640,#636,#739,.T.);
#525=EDGE_CURVE('',#638,#641,#740,.T.);
#526=EDGE_CURVE('',#648,#648,#102,.T.);
#527=EDGE_CURVE('',#649,#649,#103,.T.);
#528=EDGE_CURVE('',#650,#650,#104,.T.);
#529=EDGE_CURVE('',#651,#651,#105,.T.);
#530=EDGE_CURVE('',#652,#652,#106,.T.);
#531=EDGE_CURVE('',#639,#635,#741,.T.);
#532=EDGE_CURVE('',#637,#642,#742,.T.);
#533=EDGE_CURVE('',#610,#636,#25,.T.);
#534=EDGE_CURVE('',#640,#615,#26,.T.);
#535=EDGE_CURVE('',#639,#616,#27,.F.);
#536=EDGE_CURVE('',#609,#635,#28,.F.);
#537=EDGE_CURVE('',#653,#654,#743,.T.);
#538=EDGE_CURVE('',#653,#655,#744,.T.);
#539=EDGE_CURVE('',#656,#655,#745,.T.);
#540=EDGE_CURVE('',#654,#656,#746,.T.);
#541=EDGE_CURVE('',#657,#658,#747,.T.);
#542=EDGE_CURVE('',#659,#658,#748,.T.);
#543=EDGE_CURVE('',#659,#660,#749,.T.);
#544=EDGE_CURVE('',#660,#657,#750,.T.);
#545=EDGE_CURVE('',#661,#661,#107,.T.);
#546=EDGE_CURVE('',#662,#662,#108,.T.);
#547=EDGE_CURVE('',#658,#654,#751,.T.);
#548=EDGE_CURVE('',#656,#659,#752,.T.);
#549=EDGE_CURVE('',#663,#663,#109,.T.);
#550=EDGE_CURVE('',#664,#664,#110,.T.);
#551=EDGE_CURVE('',#657,#653,#753,.T.);
#552=EDGE_CURVE('',#655,#660,#754,.T.);
#553=EDGE_CURVE('',#604,#654,#29,.T.);
#554=EDGE_CURVE('',#658,#595,#30,.T.);
#555=EDGE_CURVE('',#657,#596,#31,.F.);
#556=EDGE_CURVE('',#603,#653,#32,.F.);
#557=EDGE_CURVE('',#665,#666,#755,.T.);
#558=EDGE_CURVE('',#667,#666,#756,.T.);
#559=EDGE_CURVE('',#667,#668,#757,.T.);
#560=EDGE_CURVE('',#668,#665,#758,.T.);
#561=EDGE_CURVE('',#669,#669,#111,.T.);
#562=EDGE_CURVE('',#670,#670,#112,.T.);
#563=EDGE_CURVE('',#671,#671,#113,.T.);
#564=EDGE_CURVE('',#672,#672,#114,.T.);
#565=EDGE_CURVE('',#666,#580,#759,.T.);
#566=EDGE_CURVE('',#579,#667,#760,.T.);
#567=EDGE_CURVE('',#673,#673,#115,.T.);
#568=EDGE_CURVE('',#674,#674,#116,.T.);
#569=EDGE_CURVE('',#675,#675,#117,.T.);
#570=EDGE_CURVE('',#676,#676,#118,.T.);
#571=EDGE_CURVE('',#665,#577,#761,.T.);
#572=EDGE_CURVE('',#578,#668,#762,.T.);
#573=EDGE_CURVE('',#666,#587,#33,.T.);
#574=EDGE_CURVE('',#665,#588,#34,.F.);
#575=VERTEX_POINT('',#1619);
#576=VERTEX_POINT('',#1620);
#577=VERTEX_POINT('',#1622);
#578=VERTEX_POINT('',#1624);
#579=VERTEX_POINT('',#1626);
#580=VERTEX_POINT('',#1628);
#581=VERTEX_POINT('',#1630);
#582=VERTEX_POINT('',#1632);
#583=VERTEX_POINT('',#1634);
#584=VERTEX_POINT('',#1636);
#585=VERTEX_POINT('',#1640);
#586=VERTEX_POINT('',#1641);
#587=VERTEX_POINT('',#1643);
#588=VERTEX_POINT('',#1645);
#589=VERTEX_POINT('',#1647);
#590=VERTEX_POINT('',#1649);
#591=VERTEX_POINT('',#1651);
#592=VERTEX_POINT('',#1653);
#593=VERTEX_POINT('',#1660);
#594=VERTEX_POINT('',#1661);
#595=VERTEX_POINT('',#1663);
#596=VERTEX_POINT('',#1665);
#597=VERTEX_POINT('',#1667);
#598=VERTEX_POINT('',#1669);
#599=VERTEX_POINT('',#1671);
#600=VERTEX_POINT('',#1673);
#601=VERTEX_POINT('',#1677);
#602=VERTEX_POINT('',#1678);
#603=VERTEX_POINT('',#1680);
#604=VERTEX_POINT('',#1682);
#605=VERTEX_POINT('',#1684);
#606=VERTEX_POINT('',#1686);
#607=VERTEX_POINT('',#1694);
#608=VERTEX_POINT('',#1695);
#609=VERTEX_POINT('',#1697);
#610=VERTEX_POINT('',#1699);
#611=VERTEX_POINT('',#1701);
#612=VERTEX_POINT('',#1703);
#613=VERTEX_POINT('',#1708);
#614=VERTEX_POINT('',#1709);
#615=VERTEX_POINT('',#1711);
#616=VERTEX_POINT('',#1713);
#617=VERTEX_POINT('',#1715);
#618=VERTEX_POINT('',#1717);
#619=VERTEX_POINT('',#1719);
#620=VERTEX_POINT('',#1721);
#621=VERTEX_POINT('',#1748);
#622=VERTEX_POINT('',#1750);
#623=VERTEX_POINT('',#1752);
#624=VERTEX_POINT('',#1754);
#625=VERTEX_POINT('',#1758);
#626=VERTEX_POINT('',#1762);
#627=VERTEX_POINT('',#1766);
#628=VERTEX_POINT('',#1768);
#629=VERTEX_POINT('',#1775);
#630=VERTEX_POINT('',#1777);
#631=VERTEX_POINT('',#1779);
#632=VERTEX_POINT('',#1782);
#633=VERTEX_POINT('',#1784);
#634=VERTEX_POINT('',#1786);
#635=VERTEX_POINT('',#1794);
#636=VERTEX_POINT('',#1795);
#637=VERTEX_POINT('',#1797);
#638=VERTEX_POINT('',#1799);
#639=VERTEX_POINT('',#1803);
#640=VERTEX_POINT('',#1804);
#641=VERTEX_POINT('',#1806);
#642=VERTEX_POINT('',#1808);
#643=VERTEX_POINT('',#1812);
#644=VERTEX_POINT('',#1814);
#645=VERTEX_POINT('',#1816);
#646=VERTEX_POINT('',#1818);
#647=VERTEX_POINT('',#1820);
#648=VERTEX_POINT('',#1825);
#649=VERTEX_POINT('',#1827);
#650=VERTEX_POINT('',#1829);
#651=VERTEX_POINT('',#1831);
#652=VERTEX_POINT('',#1833);
#653=VERTEX_POINT('',#1881);
#654=VERTEX_POINT('',#1882);
#655=VERTEX_POINT('',#1884);
#656=VERTEX_POINT('',#1886);
#657=VERTEX_POINT('',#1890);
#658=VERTEX_POINT('',#1891);
#659=VERTEX_POINT('',#1893);
#660=VERTEX_POINT('',#1895);
#661=VERTEX_POINT('',#1899);
#662=VERTEX_POINT('',#1901);
#663=VERTEX_POINT('',#1906);
#664=VERTEX_POINT('',#1908);
#665=VERTEX_POINT('',#1956);
#666=VERTEX_POINT('',#1957);
#667=VERTEX_POINT('',#1959);
#668=VERTEX_POINT('',#1961);
#669=VERTEX_POINT('',#1965);
#670=VERTEX_POINT('',#1967);
#671=VERTEX_POINT('',#1969);
#672=VERTEX_POINT('',#1971);
#673=VERTEX_POINT('',#1976);
#674=VERTEX_POINT('',#1978);
#675=VERTEX_POINT('',#1980);
#676=VERTEX_POINT('',#1982);
#677=LINE('',#1618,#763);
#678=LINE('',#1623,#764);
#679=LINE('',#1625,#765);
#680=LINE('',#1627,#766);
#681=LINE('',#1631,#767);
#682=LINE('',#1635,#768);
#683=LINE('',#1639,#769);
#684=LINE('',#1644,#770);
#685=LINE('',#1648,#771);
#686=LINE('',#1652,#772);
#687=LINE('',#1656,#773);
#688=LINE('',#1657,#774);
#689=LINE('',#1659,#775);
#690=LINE('',#1664,#776);
#691=LINE('',#1668,#777);
#692=LINE('',#1672,#778);
#693=LINE('',#1676,#779);
#694=LINE('',#1681,#780);
#695=LINE('',#1685,#781);
#696=LINE('',#1690,#782);
#697=LINE('',#1691,#783);
#698=LINE('',#1693,#784);
#699=LINE('',#1698,#785);
#700=LINE('',#1702,#786);
#701=LINE('',#1707,#787);
#702=LINE('',#1712,#788);
#703=LINE('',#1716,#789);
#704=LINE('',#1720,#790);
#705=LINE('',#1724,#791);
#706=LINE('',#1725,#792);
#707=LINE('',#1727,#793);
#708=LINE('',#1728,#794);
#709=LINE('',#1730,#795);
#710=LINE('',#1731,#796);
#711=LINE('',#1733,#797);
#712=LINE('',#1734,#798);
#713=LINE('',#1735,#799);
#714=LINE('',#1736,#800);
#715=LINE('',#1738,#801);
#716=LINE('',#1739,#802);
#717=LINE('',#1740,#803);
#718=LINE('',#1741,#804);
#719=LINE('',#1749,#805);
#720=LINE('',#1751,#806);
#721=LINE('',#1753,#807);
#722=LINE('',#1759,#808);
#723=LINE('',#1761,#809);
#724=LINE('',#1765,#810);
#725=LINE('',#1767,#811);
#726=LINE('',#1769,#812);
#727=LINE('',#1771,#813);
#728=LINE('',#1772,#814);
#729=LINE('',#1789,#815);
#730=LINE('',#1791,#816);
#731=LINE('',#1793,#817);
#732=LINE('',#1796,#818);
#733=LINE('',#1798,#819);
#734=LINE('',#1800,#820);
#735=LINE('',#1802,#821);
#736=LINE('',#1805,#822);
#737=LINE('',#1807,#823);
#738=LINE('',#1809,#824);
#739=LINE('',#1821,#825);
#740=LINE('',#1822,#826);
#741=LINE('',#1834,#827);
#742=LINE('',#1835,#828);
#743=LINE('',#1880,#829);
#744=LINE('',#1883,#830);
#745=LINE('',#1885,#831);
#746=LINE('',#1887,#832);
#747=LINE('',#1889,#833);
#748=LINE('',#1892,#834);
#749=LINE('',#1894,#835);
#750=LINE('',#1896,#836);
#751=LINE('',#1902,#837);
#752=LINE('',#1903,#838);
#753=LINE('',#1909,#839);
#754=LINE('',#1910,#840);
#755=LINE('',#1955,#841);
#756=LINE('',#1958,#842);
#757=LINE('',#1960,#843);
#758=LINE('',#1962,#844);
#759=LINE('',#1972,#845);
#760=LINE('',#1973,#846);
#761=LINE('',#1983,#847);
#762=LINE('',#1984,#848);
#763=VECTOR('',#1298,1000.);
#764=VECTOR('',#1301,1000.);
#765=VECTOR('',#1302,1000.);
#766=VECTOR('',#1303,1000.);
#767=VECTOR('',#1306,1000.);
#768=VECTOR('',#1309,1000.);
#769=VECTOR('',#1314,1000.);
#770=VECTOR('',#1317,1000.);
#771=VECTOR('',#1320,1000.);
#772=VECTOR('',#1323,1000.);
#773=VECTOR('',#1328,1000.);
#774=VECTOR('',#1329,1000.);
#775=VECTOR('',#1332,1000.);
#776=VECTOR('',#1335,1000.);
#777=VECTOR('',#1338,1000.);
#778=VECTOR('',#1341,1000.);
#779=VECTOR('',#1346,1000.);
#780=VECTOR('',#1349,1000.);
#781=VECTOR('',#1352,1000.);
#782=VECTOR('',#1359,1000.);
#783=VECTOR('',#1360,1000.);
#784=VECTOR('',#1363,1000.);
#785=VECTOR('',#1366,1000.);
#786=VECTOR('',#1369,1000.);
#787=VECTOR('',#1376,1000.);
#788=VECTOR('',#1379,1000.);
#789=VECTOR('',#1382,1000.);
#790=VECTOR('',#1385,1000.);
#791=VECTOR('',#1390,1000.);
#792=VECTOR('',#1391,1000.);
#793=VECTOR('',#1394,1000.);
#794=VECTOR('',#1395,1000.);
#795=VECTOR('',#1398,1000.);
#796=VECTOR('',#1399,1000.);
#797=VECTOR('',#1402,1000.);
#798=VECTOR('',#1403,1000.);
#799=VECTOR('',#1404,1000.);
#800=VECTOR('',#1405,1000.);
#801=VECTOR('',#1408,1000.);
#802=VECTOR('',#1409,1000.);
#803=VECTOR('',#1410,1000.);
#804=VECTOR('',#1411,1000.);
#805=VECTOR('',#1424,1000.);
#806=VECTOR('',#1425,1000.);
#807=VECTOR('',#1426,1000.);
#808=VECTOR('',#1433,1000.);
#809=VECTOR('',#1436,1000.);
#810=VECTOR('',#1441,1000.);
#811=VECTOR('',#1442,1000.);
#812=VECTOR('',#1443,1000.);
#813=VECTOR('',#1446,1000.);
#814=VECTOR('',#1447,1000.);
#815=VECTOR('',#1468,1000.);
#816=VECTOR('',#1471,1000.);
#817=VECTOR('',#1474,1000.);
#818=VECTOR('',#1475,1000.);
#819=VECTOR('',#1476,1000.);
#820=VECTOR('',#1477,1000.);
#821=VECTOR('',#1480,1000.);
#822=VECTOR('',#1481,1000.);
#823=VECTOR('',#1482,1000.);
#824=VECTOR('',#1483,1000.);
#825=VECTOR('',#1496,1000.);
#826=VECTOR('',#1497,1000.);
#827=VECTOR('',#1510,1000.);
#828=VECTOR('',#1511,1000.);
#829=VECTOR('',#1520,1000.);
#830=VECTOR('',#1521,1000.);
#831=VECTOR('',#1522,1000.);
#832=VECTOR('',#1523,1000.);
#833=VECTOR('',#1526,1000.);
#834=VECTOR('',#1527,1000.);
#835=VECTOR('',#1528,1000.);
#836=VECTOR('',#1529,1000.);
#837=VECTOR('',#1536,1000.);
#838=VECTOR('',#1537,1000.);
#839=VECTOR('',#1544,1000.);
#840=VECTOR('',#1545,1000.);
#841=VECTOR('',#1554,1000.);
#842=VECTOR('',#1555,1000.);
#843=VECTOR('',#1556,1000.);
#844=VECTOR('',#1557,1000.);
#845=VECTOR('',#1568,1000.);
#846=VECTOR('',#1569,1000.);
#847=VECTOR('',#1580,1000.);
#848=VECTOR('',#1581,1000.);
#849=EDGE_LOOP('',(#119,#120,#121,#122,#123,#124,#125,#126,#127,#128));
#850=EDGE_LOOP('',(#129,#130,#131,#132,#133,#134,#135,#136));
#851=EDGE_LOOP('',(#137,#138,#139,#140));
#852=EDGE_LOOP('',(#141,#142,#143,#144,#145,#146,#147,#148));
#853=EDGE_LOOP('',(#149,#150,#151,#152,#153,#154,#155,#156));
#854=EDGE_LOOP('',(#157,#158,#159,#160));
#855=EDGE_LOOP('',(#161,#162,#163,#164,#165,#166,#167,#168));
#856=EDGE_LOOP('',(#169,#170,#171,#172,#173,#174,#175,#176));
#857=EDGE_LOOP('',(#177,#178,#179,#180));
#858=EDGE_LOOP('',(#181,#182,#183,#184));
#859=EDGE_LOOP('',(#185,#186,#187,#188));
#860=EDGE_LOOP('',(#189,#190,#191,#192));
#861=EDGE_LOOP('',(#193,#194,#195,#196));
#862=EDGE_LOOP('',(#197,#198,#199,#200));
#863=EDGE_LOOP('',(#201,#202,#203,#204));
#864=EDGE_LOOP('',(#205,#206,#207,#208));
#865=EDGE_LOOP('',(#209,#210,#211,#212));
#866=EDGE_LOOP('',(#213,#214,#215,#216,#217,#218));
#867=EDGE_LOOP('',(#219,#220,#221,#222));
#868=EDGE_LOOP('',(#223,#224,#225,#226));
#869=EDGE_LOOP('',(#227,#228,#229,#230,#231,#232));
#870=EDGE_LOOP('',(#233,#234,#235,#236));
#871=EDGE_LOOP('',(#237));
#872=EDGE_LOOP('',(#238));
#873=EDGE_LOOP('',(#239));
#874=EDGE_LOOP('',(#240,#241,#242,#243));
#875=EDGE_LOOP('',(#244));
#876=EDGE_LOOP('',(#245));
#877=EDGE_LOOP('',(#246));
#878=EDGE_LOOP('',(#247,#248,#249,#250));
#879=EDGE_LOOP('',(#251,#252,#253,#254));
#880=EDGE_LOOP('',(#255,#256,#257,#258));
#881=EDGE_LOOP('',(#259,#260,#261,#262));
#882=EDGE_LOOP('',(#263,#264,#265,#266));
#883=EDGE_LOOP('',(#267,#268,#269,#270));
#884=EDGE_LOOP('',(#271));
#885=EDGE_LOOP('',(#272));
#886=EDGE_LOOP('',(#273));
#887=EDGE_LOOP('',(#274));
#888=EDGE_LOOP('',(#275));
#889=EDGE_LOOP('',(#276,#277,#278,#279));
#890=EDGE_LOOP('',(#280));
#891=EDGE_LOOP('',(#281));
#892=EDGE_LOOP('',(#282));
#893=EDGE_LOOP('',(#283));
#894=EDGE_LOOP('',(#284));
#895=EDGE_LOOP('',(#285,#286,#287,#288));
#896=EDGE_LOOP('',(#289,#290,#291,#292));
#897=EDGE_LOOP('',(#293,#294,#295,#296,#297,#298));
#898=EDGE_LOOP('',(#299,#300,#301,#302,#303,#304));
#899=EDGE_LOOP('',(#305,#306,#307,#308));
#900=EDGE_LOOP('',(#309,#310,#311,#312));
#901=EDGE_LOOP('',(#313,#314,#315,#316));
#902=EDGE_LOOP('',(#317,#318,#319,#320));
#903=EDGE_LOOP('',(#321));
#904=EDGE_LOOP('',(#322));
#905=EDGE_LOOP('',(#323,#324,#325,#326));
#906=EDGE_LOOP('',(#327));
#907=EDGE_LOOP('',(#328));
#908=EDGE_LOOP('',(#329,#330,#331,#332));
#909=EDGE_LOOP('',(#333,#334,#335,#336));
#910=EDGE_LOOP('',(#337,#338,#339,#340,#341,#342));
#911=EDGE_LOOP('',(#343,#344,#345,#346,#347,#348));
#912=EDGE_LOOP('',(#349,#350,#351,#352));
#913=EDGE_LOOP('',(#353,#354,#355,#356));
#914=EDGE_LOOP('',(#357,#358,#359,#360));
#915=EDGE_LOOP('',(#361));
#916=EDGE_LOOP('',(#362));
#917=EDGE_LOOP('',(#363));
#918=EDGE_LOOP('',(#364));
#919=EDGE_LOOP('',(#365,#366,#367,#368));
#920=EDGE_LOOP('',(#369));
#921=EDGE_LOOP('',(#370));
#922=EDGE_LOOP('',(#371));
#923=EDGE_LOOP('',(#372));
#924=EDGE_LOOP('',(#373,#374,#375,#376));
#925=EDGE_LOOP('',(#377,#378,#379,#380));
#926=EDGE_LOOP('',(#381,#382,#383,#384,#385));
#927=EDGE_LOOP('',(#386,#387,#388,#389,#390));
#928=EDGE_LOOP('',(#391,#392,#393,#394));
#929=EDGE_LOOP('',(#395));
#930=EDGE_LOOP('',(#396));
#931=EDGE_LOOP('',(#397));
#932=EDGE_LOOP('',(#398));
#933=EDGE_LOOP('',(#399));
#934=EDGE_LOOP('',(#400));
#935=EDGE_LOOP('',(#401));
#936=EDGE_LOOP('',(#402));
#937=EDGE_LOOP('',(#403));
#938=EDGE_LOOP('',(#404));
#939=EDGE_LOOP('',(#405));
#940=EDGE_LOOP('',(#406));
#941=EDGE_LOOP('',(#407));
#942=EDGE_LOOP('',(#408));
#943=EDGE_LOOP('',(#409));
#944=EDGE_LOOP('',(#410));
#945=EDGE_LOOP('',(#411));
#946=EDGE_LOOP('',(#412));
#947=EDGE_LOOP('',(#413));
#948=EDGE_LOOP('',(#414));
#949=EDGE_LOOP('',(#415));
#950=EDGE_LOOP('',(#416));
#951=EDGE_LOOP('',(#417));
#952=EDGE_LOOP('',(#418));
#953=EDGE_LOOP('',(#419));
#954=EDGE_LOOP('',(#420));
#955=EDGE_LOOP('',(#421));
#956=EDGE_LOOP('',(#422));
#957=FACE_BOUND('',#849,.T.);
#958=FACE_BOUND('',#850,.T.);
#959=FACE_BOUND('',#851,.T.);
#960=FACE_BOUND('',#852,.T.);
#961=FACE_BOUND('',#853,.T.);
#962=FACE_BOUND('',#854,.T.);
#963=FACE_BOUND('',#855,.T.);
#964=FACE_BOUND('',#856,.T.);
#965=FACE_BOUND('',#857,.T.);
#966=FACE_BOUND('',#858,.T.);
#967=FACE_BOUND('',#859,.T.);
#968=FACE_BOUND('',#860,.T.);
#969=FACE_BOUND('',#861,.T.);
#970=FACE_BOUND('',#862,.T.);
#971=FACE_BOUND('',#863,.T.);
#972=FACE_BOUND('',#864,.T.);
#973=FACE_BOUND('',#865,.T.);
#974=FACE_BOUND('',#866,.T.);
#975=FACE_BOUND('',#867,.T.);
#976=FACE_BOUND('',#868,.T.);
#977=FACE_BOUND('',#869,.T.);
#978=FACE_BOUND('',#870,.T.);
#979=FACE_BOUND('',#871,.T.);
#980=FACE_BOUND('',#872,.T.);
#981=FACE_BOUND('',#873,.T.);
#982=FACE_BOUND('',#874,.T.);
#983=FACE_BOUND('',#875,.T.);
#984=FACE_BOUND('',#876,.T.);
#985=FACE_BOUND('',#877,.T.);
#986=FACE_BOUND('',#878,.T.);
#987=FACE_BOUND('',#879,.T.);
#988=FACE_BOUND('',#880,.T.);
#989=FACE_BOUND('',#881,.T.);
#990=FACE_BOUND('',#882,.T.);
#991=FACE_BOUND('',#883,.T.);
#992=FACE_BOUND('',#884,.T.);
#993=FACE_BOUND('',#885,.T.);
#994=FACE_BOUND('',#886,.T.);
#995=FACE_BOUND('',#887,.T.);
#996=FACE_BOUND('',#888,.T.);
#997=FACE_BOUND('',#889,.T.);
#998=FACE_BOUND('',#890,.T.);
#999=FACE_BOUND('',#891,.T.);
#1000=FACE_BOUND('',#892,.T.);
#1001=FACE_BOUND('',#893,.T.);
#1002=FACE_BOUND('',#894,.T.);
#1003=FACE_BOUND('',#895,.T.);
#1004=FACE_BOUND('',#896,.T.);
#1005=FACE_BOUND('',#897,.T.);
#1006=FACE_BOUND('',#898,.T.);
#1007=FACE_BOUND('',#899,.T.);
#1008=FACE_BOUND('',#900,.T.);
#1009=FACE_BOUND('',#901,.T.);
#1010=FACE_BOUND('',#902,.T.);
#1011=FACE_BOUND('',#903,.T.);
#1012=FACE_BOUND('',#904,.T.);
#1013=FACE_BOUND('',#905,.T.);
#1014=FACE_BOUND('',#906,.T.);
#1015=FACE_BOUND('',#907,.T.);
#1016=FACE_BOUND('',#908,.T.);
#1017=FACE_BOUND('',#909,.T.);
#1018=FACE_BOUND('',#910,.T.);
#1019=FACE_BOUND('',#911,.T.);
#1020=FACE_BOUND('',#912,.T.);
#1021=FACE_BOUND('',#913,.T.);
#1022=FACE_BOUND('',#914,.T.);
#1023=FACE_BOUND('',#915,.T.);
#1024=FACE_BOUND('',#916,.T.);
#1025=FACE_BOUND('',#917,.T.);
#1026=FACE_BOUND('',#918,.T.);
#1027=FACE_BOUND('',#919,.T.);
#1028=FACE_BOUND('',#920,.T.);
#1029=FACE_BOUND('',#921,.T.);
#1030=FACE_BOUND('',#922,.T.);
#1031=FACE_BOUND('',#923,.T.);
#1032=FACE_BOUND('',#924,.T.);
#1033=FACE_BOUND('',#925,.T.);
#1034=FACE_BOUND('',#926,.T.);
#1035=FACE_BOUND('',#927,.T.);
#1036=FACE_BOUND('',#928,.T.);
#1037=FACE_BOUND('',#929,.T.);
#1038=FACE_BOUND('',#930,.T.);
#1039=FACE_BOUND('',#931,.T.);
#1040=FACE_BOUND('',#932,.T.);
#1041=FACE_BOUND('',#933,.T.);
#1042=FACE_BOUND('',#934,.T.);
#1043=FACE_BOUND('',#935,.T.);
#1044=FACE_BOUND('',#936,.T.);
#1045=FACE_BOUND('',#937,.T.);
#1046=FACE_BOUND('',#938,.T.);
#1047=FACE_BOUND('',#939,.T.);
#1048=FACE_BOUND('',#940,.T.);
#1049=FACE_BOUND('',#941,.T.);
#1050=FACE_BOUND('',#942,.T.);
#1051=FACE_BOUND('',#943,.T.);
#1052=FACE_BOUND('',#944,.T.);
#1053=FACE_BOUND('',#945,.T.);
#1054=FACE_BOUND('',#946,.T.);
#1055=FACE_BOUND('',#947,.T.);
#1056=FACE_BOUND('',#948,.T.);
#1057=FACE_BOUND('',#949,.T.);
#1058=FACE_BOUND('',#950,.T.);
#1059=FACE_BOUND('',#951,.T.);
#1060=FACE_BOUND('',#952,.T.);
#1061=FACE_BOUND('',#953,.T.);
#1062=FACE_BOUND('',#954,.T.);
#1063=FACE_BOUND('',#955,.T.);
#1064=FACE_BOUND('',#956,.T.);
#1065=PLANE('',#1177);
#1066=PLANE('',#1182);
#1067=PLANE('',#1187);
#1068=PLANE('',#1188);
#1069=PLANE('',#1193);
#1070=PLANE('',#1198);
#1071=PLANE('',#1199);
#1072=PLANE('',#1204);
#1073=PLANE('',#1209);
#1074=PLANE('',#1210);
#1075=PLANE('',#1211);
#1076=PLANE('',#1212);
#1077=PLANE('',#1213);
#1078=PLANE('',#1218);
#1079=PLANE('',#1225);
#1080=PLANE('',#1226);
#1081=PLANE('',#1227);
#1082=PLANE('',#1231);
#1083=PLANE('',#1237);
#1084=PLANE('',#1238);
#1085=PLANE('',#1239);
#1086=PLANE('',#1240);
#1087=PLANE('',#1246);
#1088=PLANE('',#1252);
#1089=PLANE('',#1255);
#1090=PLANE('',#1256);
#1091=PLANE('',#1257);
#1092=PLANE('',#1260);
#1093=PLANE('',#1263);
#1094=PLANE('',#1266);
#1095=PLANE('',#1267);
#1096=PLANE('',#1272);
#1097=PLANE('',#1277);
#1098=ADVANCED_FACE('',(#957),#1065,.F.);
#1099=ADVANCED_FACE('',(#958),#1066,.T.);
#1100=ADVANCED_FACE('',(#959),#1067,.T.);
#1101=ADVANCED_FACE('',(#960),#1068,.T.);
#1102=ADVANCED_FACE('',(#961),#1069,.F.);
#1103=ADVANCED_FACE('',(#962),#1070,.T.);
#1104=ADVANCED_FACE('',(#963),#1071,.F.);
#1105=ADVANCED_FACE('',(#964),#1072,.T.);
#1106=ADVANCED_FACE('',(#965),#1073,.T.);
#1107=ADVANCED_FACE('',(#966),#1074,.F.);
#1108=ADVANCED_FACE('',(#967),#1075,.F.);
#1109=ADVANCED_FACE('',(#968),#1076,.T.);
#1110=ADVANCED_FACE('',(#969),#1077,.F.);
#1111=ADVANCED_FACE('',(#970),#35,.F.);
#1112=ADVANCED_FACE('',(#971),#36,.T.);
#1113=ADVANCED_FACE('',(#972),#37,.F.);
#1114=ADVANCED_FACE('',(#973),#38,.T.);
#1115=ADVANCED_FACE('',(#974),#1078,.T.);
#1116=ADVANCED_FACE('',(#975),#39,.F.);
#1117=ADVANCED_FACE('',(#976),#40,.T.);
#1118=ADVANCED_FACE('',(#977),#1079,.F.);
#1119=ADVANCED_FACE('',(#978),#1080,.F.);
#1120=ADVANCED_FACE('',(#979,#980,#981,#982),#1081,.F.);
#1121=ADVANCED_FACE('',(#983,#984,#985,#986),#1082,.T.);
#1122=ADVANCED_FACE('',(#987),#41,.T.);
#1123=ADVANCED_FACE('',(#988),#42,.F.);
#1124=ADVANCED_FACE('',(#989),#1083,.F.);
#1125=ADVANCED_FACE('',(#990),#1084,.F.);
#1126=ADVANCED_FACE('',(#991),#1085,.F.);
#1127=ADVANCED_FACE('',(#992,#993,#994,#995,#996,#997),#1086,.T.);
#1128=ADVANCED_FACE('',(#998,#999,#1000,#1001,#1002,#1003),#1087,.F.);
#1129=ADVANCED_FACE('',(#1004),#1088,.F.);
#1130=ADVANCED_FACE('',(#1005),#43,.T.);
#1131=ADVANCED_FACE('',(#1006),#44,.F.);
#1132=ADVANCED_FACE('',(#1007),#20,.T.);
#1133=ADVANCED_FACE('',(#1008),#21,.T.);
#1134=ADVANCED_FACE('',(#1009),#1089,.F.);
#1135=ADVANCED_FACE('',(#1010),#1090,.F.);
#1136=ADVANCED_FACE('',(#1011,#1012,#1013),#1091,.F.);
#1137=ADVANCED_FACE('',(#1014,#1015,#1016),#1092,.T.);
#1138=ADVANCED_FACE('',(#1017),#1093,.F.);
#1139=ADVANCED_FACE('',(#1018),#45,.T.);
#1140=ADVANCED_FACE('',(#1019),#46,.F.);
#1141=ADVANCED_FACE('',(#1020),#22,.T.);
#1142=ADVANCED_FACE('',(#1021),#23,.T.);
#1143=ADVANCED_FACE('',(#1022),#1094,.F.);
#1144=ADVANCED_FACE('',(#1023,#1024,#1025,#1026,#1027),#1095,.F.);
#1145=ADVANCED_FACE('',(#1028,#1029,#1030,#1031,#1032),#1096,.T.);
#1146=ADVANCED_FACE('',(#1033),#1097,.F.);
#1147=ADVANCED_FACE('',(#1034),#47,.T.);
#1148=ADVANCED_FACE('',(#1035),#48,.F.);
#1149=ADVANCED_FACE('',(#1036),#24,.T.);
#1150=ADVANCED_FACE('',(#1037,#1038),#49,.F.);
#1151=ADVANCED_FACE('',(#1039,#1040),#50,.F.);
#1152=ADVANCED_FACE('',(#1041,#1042),#51,.F.);
#1153=ADVANCED_FACE('',(#1043,#1044),#52,.F.);
#1154=ADVANCED_FACE('',(#1045,#1046),#53,.F.);
#1155=ADVANCED_FACE('',(#1047,#1048),#54,.F.);
#1156=ADVANCED_FACE('',(#1049,#1050),#55,.F.);
#1157=ADVANCED_FACE('',(#1051,#1052),#56,.F.);
#1158=ADVANCED_FACE('',(#1053,#1054),#57,.F.);
#1159=ADVANCED_FACE('',(#1055,#1056),#58,.F.);
#1160=ADVANCED_FACE('',(#1057,#1058),#59,.F.);
#1161=ADVANCED_FACE('',(#1059,#1060),#60,.F.);
#1162=ADVANCED_FACE('',(#1061,#1062),#61,.F.);
#1163=ADVANCED_FACE('',(#1063,#1064),#62,.F.);
#1164=CLOSED_SHELL('',(#1098,#1099,#1100,#1101,#1102,#1103,#1104,#1105,
#1106,#1107,#1108,#1109,#1110,#1111,#1112,#1113,#1114,#1115,#1116,#1117,
#1118,#1119,#1120,#1121,#1122,#1123,#1124,#1125,#1126,#1127,#1128,#1129,
#1130,#1131,#1132,#1133,#1134,#1135,#1136,#1137,#1138,#1139,#1140,#1141,
#1142,#1143,#1144,#1145,#1146,#1147,#1148,#1149,#1150,#1151,#1152,#1153,
#1154,#1155,#1156,#1157,#1158,#1159,#1160,#1161,#1162,#1163));
#1165=STYLED_ITEM('',(#1166),#1173);
#1166=PRESENTATION_STYLE_ASSIGNMENT((#1167));
#1167=SURFACE_STYLE_USAGE(.BOTH.,#1168);
#1168=SURFACE_SIDE_STYLE('',(#1169));
#1169=SURFACE_STYLE_FILL_AREA(#1170);
#1170=FILL_AREA_STYLE('',(#1171));
#1171=FILL_AREA_STYLE_COLOUR('',#1172);
#1172=COLOUR_RGB('',0.200000002980232,0.200000002980232,0.200000002980232);
#1173=MANIFOLD_SOLID_BREP('',#1164);
#1174=SHAPE_DEFINITION_REPRESENTATION(#2028,#1175);
#1175=SHAPE_REPRESENTATION('Bok - pozicija 1 - DESNA',(#1176),#2023);
#1176=AXIS2_PLACEMENT_3D('',#1616,#1294,#1295);
#1177=AXIS2_PLACEMENT_3D('',#1617,#1296,#1297);
#1178=AXIS2_PLACEMENT_3D('',#1621,#1299,#1300);
#1179=AXIS2_PLACEMENT_3D('',#1629,#1304,#1305);
#1180=AXIS2_PLACEMENT_3D('',#1633,#1307,#1308);
#1181=AXIS2_PLACEMENT_3D('',#1637,#1310,#1311);
#1182=AXIS2_PLACEMENT_3D('',#1638,#1312,#1313);
#1183=AXIS2_PLACEMENT_3D('',#1642,#1315,#1316);
#1184=AXIS2_PLACEMENT_3D('',#1646,#1318,#1319);
#1185=AXIS2_PLACEMENT_3D('',#1650,#1321,#1322);
#1186=AXIS2_PLACEMENT_3D('',#1654,#1324,#1325);
#1187=AXIS2_PLACEMENT_3D('',#1655,#1326,#1327);
#1188=AXIS2_PLACEMENT_3D('',#1658,#1330,#1331);
#1189=AXIS2_PLACEMENT_3D('',#1662,#1333,#1334);
#1190=AXIS2_PLACEMENT_3D('',#1666,#1336,#1337);
#1191=AXIS2_PLACEMENT_3D('',#1670,#1339,#1340);
#1192=AXIS2_PLACEMENT_3D('',#1674,#1342,#1343);
#1193=AXIS2_PLACEMENT_3D('',#1675,#1344,#1345);
#1194=AXIS2_PLACEMENT_3D('',#1679,#1347,#1348);
#1195=AXIS2_PLACEMENT_3D('',#1683,#1350,#1351);
#1196=AXIS2_PLACEMENT_3D('',#1687,#1353,#1354);
#1197=AXIS2_PLACEMENT_3D('',#1688,#1355,#1356);
#1198=AXIS2_PLACEMENT_3D('',#1689,#1357,#1358);
#1199=AXIS2_PLACEMENT_3D('',#1692,#1361,#1362);
#1200=AXIS2_PLACEMENT_3D('',#1696,#1364,#1365);
#1201=AXIS2_PLACEMENT_3D('',#1700,#1367,#1368);
#1202=AXIS2_PLACEMENT_3D('',#1704,#1370,#1371);
#1203=AXIS2_PLACEMENT_3D('',#1705,#1372,#1373);
#1204=AXIS2_PLACEMENT_3D('',#1706,#1374,#1375);
#1205=AXIS2_PLACEMENT_3D('',#1710,#1377,#1378);
#1206=AXIS2_PLACEMENT_3D('',#1714,#1380,#1381);
#1207=AXIS2_PLACEMENT_3D('',#1718,#1383,#1384);
#1208=AXIS2_PLACEMENT_3D('',#1722,#1386,#1387);
#1209=AXIS2_PLACEMENT_3D('',#1723,#1388,#1389);
#1210=AXIS2_PLACEMENT_3D('',#1726,#1392,#1393);
#1211=AXIS2_PLACEMENT_3D('',#1729,#1396,#1397);
#1212=AXIS2_PLACEMENT_3D('',#1732,#1400,#1401);
#1213=AXIS2_PLACEMENT_3D('',#1737,#1406,#1407);
#1214=AXIS2_PLACEMENT_3D('',#1742,#1412,#1413);
#1215=AXIS2_PLACEMENT_3D('',#1743,#1414,#1415);
#1216=AXIS2_PLACEMENT_3D('',#1744,#1416,#1417);
#1217=AXIS2_PLACEMENT_3D('',#1745,#1418,#1419);
#1218=AXIS2_PLACEMENT_3D('',#1746,#1420,#1421);
#1219=AXIS2_PLACEMENT_3D('',#1747,#1422,#1423);
#1220=AXIS2_PLACEMENT_3D('',#1755,#1427,#1428);
#1221=AXIS2_PLACEMENT_3D('',#1756,#1429,#1430);
#1222=AXIS2_PLACEMENT_3D('',#1757,#1431,#1432);
#1223=AXIS2_PLACEMENT_3D('',#1760,#1434,#1435);
#1224=AXIS2_PLACEMENT_3D('',#1763,#1437,#1438);
#1225=AXIS2_PLACEMENT_3D('',#1764,#1439,#1440);
#1226=AXIS2_PLACEMENT_3D('',#1770,#1444,#1445);
#1227=AXIS2_PLACEMENT_3D('',#1773,#1448,#1449);
#1228=AXIS2_PLACEMENT_3D('',#1774,#1450,#1451);
#1229=AXIS2_PLACEMENT_3D('',#1776,#1452,#1453);
#1230=AXIS2_PLACEMENT_3D('',#1778,#1454,#1455);
#1231=AXIS2_PLACEMENT_3D('',#1780,#1456,#1457);
#1232=AXIS2_PLACEMENT_3D('',#1781,#1458,#1459);
#1233=AXIS2_PLACEMENT_3D('',#1783,#1460,#1461);
#1234=AXIS2_PLACEMENT_3D('',#1785,#1462,#1463);
#1235=AXIS2_PLACEMENT_3D('',#1787,#1464,#1465);
#1236=AXIS2_PLACEMENT_3D('',#1788,#1466,#1467);
#1237=AXIS2_PLACEMENT_3D('',#1790,#1469,#1470);
#1238=AXIS2_PLACEMENT_3D('',#1792,#1472,#1473);
#1239=AXIS2_PLACEMENT_3D('',#1801,#1478,#1479);
#1240=AXIS2_PLACEMENT_3D('',#1810,#1484,#1485);
#1241=AXIS2_PLACEMENT_3D('',#1811,#1486,#1487);
#1242=AXIS2_PLACEMENT_3D('',#1813,#1488,#1489);
#1243=AXIS2_PLACEMENT_3D('',#1815,#1490,#1491);
#1244=AXIS2_PLACEMENT_3D('',#1817,#1492,#1493);
#1245=AXIS2_PLACEMENT_3D('',#1819,#1494,#1495);
#1246=AXIS2_PLACEMENT_3D('',#1823,#1498,#1499);
#1247=AXIS2_PLACEMENT_3D('',#1824,#1500,#1501);
#1248=AXIS2_PLACEMENT_3D('',#1826,#1502,#1503);
#1249=AXIS2_PLACEMENT_3D('',#1828,#1504,#1505);
#1250=AXIS2_PLACEMENT_3D('',#1830,#1506,#1507);
#1251=AXIS2_PLACEMENT_3D('',#1832,#1508,#1509);
#1252=AXIS2_PLACEMENT_3D('',#1836,#1512,#1513);
#1253=AXIS2_PLACEMENT_3D('',#1837,#1514,#1515);
#1254=AXIS2_PLACEMENT_3D('',#1846,#1516,#1517);
#1255=AXIS2_PLACEMENT_3D('',#1879,#1518,#1519);
#1256=AXIS2_PLACEMENT_3D('',#1888,#1524,#1525);
#1257=AXIS2_PLACEMENT_3D('',#1897,#1530,#1531);
#1258=AXIS2_PLACEMENT_3D('',#1898,#1532,#1533);
#1259=AXIS2_PLACEMENT_3D('',#1900,#1534,#1535);
#1260=AXIS2_PLACEMENT_3D('',#1904,#1538,#1539);
#1261=AXIS2_PLACEMENT_3D('',#1905,#1540,#1541);
#1262=AXIS2_PLACEMENT_3D('',#1907,#1542,#1543);
#1263=AXIS2_PLACEMENT_3D('',#1911,#1546,#1547);
#1264=AXIS2_PLACEMENT_3D('',#1912,#1548,#1549);
#1265=AXIS2_PLACEMENT_3D('',#1921,#1550,#1551);
#1266=AXIS2_PLACEMENT_3D('',#1954,#1552,#1553);
#1267=AXIS2_PLACEMENT_3D('',#1963,#1558,#1559);
#1268=AXIS2_PLACEMENT_3D('',#1964,#1560,#1561);
#1269=AXIS2_PLACEMENT_3D('',#1966,#1562,#1563);
#1270=AXIS2_PLACEMENT_3D('',#1968,#1564,#1565);
#1271=AXIS2_PLACEMENT_3D('',#1970,#1566,#1567);
#1272=AXIS2_PLACEMENT_3D('',#1974,#1570,#1571);
#1273=AXIS2_PLACEMENT_3D('',#1975,#1572,#1573);
#1274=AXIS2_PLACEMENT_3D('',#1977,#1574,#1575);
#1275=AXIS2_PLACEMENT_3D('',#1979,#1576,#1577);
#1276=AXIS2_PLACEMENT_3D('',#1981,#1578,#1579);
#1277=AXIS2_PLACEMENT_3D('',#1985,#1582,#1583);
#1278=AXIS2_PLACEMENT_3D('',#1986,#1584,#1585);
#1279=AXIS2_PLACEMENT_3D('',#1991,#1586,#1587);
#1280=AXIS2_PLACEMENT_3D('',#2008,#1588,#1589);
#1281=AXIS2_PLACEMENT_3D('',#2009,#1590,#1591);
#1282=AXIS2_PLACEMENT_3D('',#2010,#1592,#1593);
#1283=AXIS2_PLACEMENT_3D('',#2011,#1594,#1595);
#1284=AXIS2_PLACEMENT_3D('',#2012,#1596,#1597);
#1285=AXIS2_PLACEMENT_3D('',#2013,#1598,#1599);
#1286=AXIS2_PLACEMENT_3D('',#2014,#1600,#1601);
#1287=AXIS2_PLACEMENT_3D('',#2015,#1602,#1603);
#1288=AXIS2_PLACEMENT_3D('',#2016,#1604,#1605);
#1289=AXIS2_PLACEMENT_3D('',#2017,#1606,#1607);
#1290=AXIS2_PLACEMENT_3D('',#2018,#1608,#1609);
#1291=AXIS2_PLACEMENT_3D('',#2019,#1610,#1611);
#1292=AXIS2_PLACEMENT_3D('',#2020,#1612,#1613);
#1293=AXIS2_PLACEMENT_3D('',#2021,#1614,#1615);
#1294=DIRECTION('',(0.,0.,1.));
#1295=DIRECTION('',(1.,0.,0.));
#1296=DIRECTION('',(0.,0.,1.));
#1297=DIRECTION('',(1.,0.,0.));
#1298=DIRECTION('',(-6.12323399573677E-17,1.,0.));
#1299=DIRECTION('',(0.,0.,1.));
#1300=DIRECTION('',(1.,0.,0.));
#1301=DIRECTION('',(1.,1.22464679914735E-16,0.));
#1302=DIRECTION('',(0.,1.,0.));
#1303=DIRECTION('',(1.,1.22464679914735E-16,0.));
#1304=DIRECTION('',(0.,0.,-1.));
#1305=DIRECTION('',(1.,6.12323399573677E-17,0.));
#1306=DIRECTION('',(-6.12323399573677E-17,1.,0.));
#1307=DIRECTION('',(0.,0.,1.));
#1308=DIRECTION('',(1.,0.,0.));
#1309=DIRECTION('',(0.,1.,0.));
#1310=DIRECTION('',(0.,0.,1.));
#1311=DIRECTION('',(1.,0.,0.));
#1312=DIRECTION('',(0.,0.,1.));
#1313=DIRECTION('',(1.,0.,0.));
#1314=DIRECTION('',(-6.12323399573677E-17,1.,0.));
#1315=DIRECTION('',(0.,0.,-1.));
#1316=DIRECTION('',(1.,6.12323399573677E-17,0.));
#1317=DIRECTION('',(-0.707106781186548,-0.707106781186548,0.));
#1318=DIRECTION('',(0.,0.,1.));
#1319=DIRECTION('',(1.,0.,0.));
#1320=DIRECTION('',(-6.12323399573677E-17,1.,0.));
#1321=DIRECTION('',(0.,0.,1.));
#1322=DIRECTION('',(1.,0.,0.));
#1323=DIRECTION('',(0.,-1.,0.));
#1324=DIRECTION('',(0.,0.,1.));
#1325=DIRECTION('',(1.,0.,0.));
#1326=DIRECTION('',(-1.,-6.12323399573677E-17,0.));
#1327=DIRECTION('',(6.12323399573677E-17,-1.,0.));
#1328=DIRECTION('',(0.,0.,1.));
#1329=DIRECTION('',(0.,0.,-1.));
#1330=DIRECTION('',(0.965925826289069,0.,0.25881904510252));
#1331=DIRECTION('',(0.25881904510252,0.,-0.965925826289069));
#1332=DIRECTION('',(1.58480957571588E-17,-1.,-5.91458985689335E-17));
#1333=DIRECTION('',(0.965925826289069,-1.17688759024058E-16,0.25881904510252));
#1334=DIRECTION('',(0.25881904510252,6.12323399573677E-17,-0.965925826289069));
#1335=DIRECTION('',(-0.183012701892221,-0.707106781186545,0.683012701892222));
#1336=DIRECTION('',(0.965925826289069,-1.17688759024058E-16,0.25881904510252));
#1337=DIRECTION('',(0.25881904510252,0.,-0.965925826289069));
#1338=DIRECTION('',(1.58480957571588E-17,-1.,-5.91458985689335E-17));
#1339=DIRECTION('',(0.965925826289069,0.,0.25881904510252));
#1340=DIRECTION('',(0.25881904510252,0.,-0.965925826289069));
#1341=DIRECTION('',(0.,1.,0.));
#1342=DIRECTION('',(0.965925826289069,0.,0.25881904510252));
#1343=DIRECTION('',(0.25881904510252,0.,-0.965925826289069));
#1344=DIRECTION('',(0.965925826289069,0.,0.25881904510252));
#1345=DIRECTION('',(0.25881904510252,0.,-0.965925826289069));
#1346=DIRECTION('',(1.58480957571592E-17,-1.,-5.91458985689334E-17));
#1347=DIRECTION('',(0.965925826289069,-1.17688759024058E-16,0.25881904510252));
#1348=DIRECTION('',(0.25881904510252,0.,-0.965925826289069));
#1349=DIRECTION('',(-0.183012701892218,-0.707106781186551,0.683012701892216));
#1350=DIRECTION('',(0.965925826289069,-1.17688759024058E-16,0.25881904510252));
#1351=DIRECTION('',(0.25881904510252,6.12323399573677E-17,-0.965925826289069));
#1352=DIRECTION('',(1.58480957571592E-17,-1.,-5.91458985689334E-17));
#1353=DIRECTION('',(0.965925826289069,0.,0.25881904510252));
#1354=DIRECTION('',(0.25881904510252,0.,-0.965925826289069));
#1355=DIRECTION('',(0.965925826289069,0.,0.25881904510252));
#1356=DIRECTION('',(0.25881904510252,0.,-0.965925826289069));
#1357=DIRECTION('',(-0.25881904510252,-6.12323399573677E-17,0.965925826289069));
#1358=DIRECTION('',(0.965925826289069,0.,0.25881904510252));
#1359=DIRECTION('',(0.965925826289069,-1.17688759024058E-16,0.25881904510252));
#1360=DIRECTION('',(-0.965925826289069,0.,-0.25881904510252));
#1361=DIRECTION('',(0.258819045102521,0.,-0.965925826289068));
#1362=DIRECTION('',(-0.965925826289068,0.,-0.258819045102521));
#1363=DIRECTION('',(5.91458985689335E-17,1.,1.58480957571589E-17));
#1364=DIRECTION('',(0.258819045102521,0.,-0.965925826289068));
#1365=DIRECTION('',(-0.965925826289068,0.,-0.258819045102521));
#1366=DIRECTION('',(0.683012701892221,-0.707106781186546,0.18301270189222));
#1367=DIRECTION('',(-0.258819045102521,0.,0.965925826289068));
#1368=DIRECTION('',(-0.965925826289068,6.12323399573677E-17,-0.258819045102521));
#1369=DIRECTION('',(5.91458985689335E-17,1.,1.58480957571589E-17));
#1370=DIRECTION('',(0.258819045102521,0.,-0.965925826289068));
#1371=DIRECTION('',(0.,-1.,0.));
#1372=DIRECTION('',(0.258819045102521,0.,-0.965925826289068));
#1373=DIRECTION('',(-0.965925826289068,0.,-0.258819045102521));
#1374=DIRECTION('',(0.258819045102521,0.,-0.965925826289068));
#1375=DIRECTION('',(-0.965925826289068,0.,-0.258819045102521));
#1376=DIRECTION('',(-5.91458985689335E-17,-1.,-1.58480957571588E-17));
#1377=DIRECTION('',(0.258819045102521,0.,-0.965925826289068));
#1378=DIRECTION('',(-0.965925826289068,6.12323399573677E-17,-0.258819045102521));
#1379=DIRECTION('',(0.68301270189222,-0.707106781186547,0.18301270189222));
#1380=DIRECTION('',(0.258819045102521,0.,-0.965925826289068));
#1381=DIRECTION('',(-0.965925826289068,0.,-0.258819045102521));
#1382=DIRECTION('',(-5.91458985689335E-17,-1.,-1.58480957571588E-17));
#1383=DIRECTION('',(0.258819045102521,0.,-0.965925826289068));
#1384=DIRECTION('',(-0.965925826289068,0.,-0.258819045102521));
#1385=DIRECTION('',(0.,-1.,0.));
#1386=DIRECTION('',(0.258819045102521,0.,-0.965925826289068));
#1387=DIRECTION('',(-0.965925826289068,0.,-0.258819045102521));
#1388=DIRECTION('',(0.965925826289068,-6.12323399573677E-17,0.258819045102521));
#1389=DIRECTION('',(0.258819045102521,0.,-0.965925826289068));
#1390=DIRECTION('',(0.258819045102521,0.,-0.965925826289068));
#1391=DIRECTION('',(-0.258819045102521,0.,0.965925826289068));
#1392=DIRECTION('',(-0.25881904510252,-6.12323399573677E-17,0.965925826289069));
#1393=DIRECTION('',(0.965925826289069,0.,0.25881904510252));
#1394=DIRECTION('',(0.965925826289069,-1.17688759024058E-16,0.25881904510252));
#1395=DIRECTION('',(-0.965925826289069,0.,-0.25881904510252));
#1396=DIRECTION('',(-1.,-6.12323399573677E-17,0.));
#1397=DIRECTION('',(6.12323399573677E-17,-1.,0.));
#1398=DIRECTION('',(0.,0.,1.));
#1399=DIRECTION('',(0.,0.,-1.));
#1400=DIRECTION('',(0.,1.,0.));
#1401=DIRECTION('',(0.,0.,1.));
#1402=DIRECTION('',(0.258819045102521,0.,-0.965925826289068));
#1403=DIRECTION('',(-1.,0.,0.));
#1404=DIRECTION('',(0.,0.,1.));
#1405=DIRECTION('',(0.965925826289068,0.,0.25881904510252));
#1406=DIRECTION('',(0.,1.,0.));
#1407=DIRECTION('',(0.,0.,1.));
#1408=DIRECTION('',(-1.,0.,0.));
#1409=DIRECTION('',(0.258819045102521,0.,-0.965925826289068));
#1410=DIRECTION('',(0.965925826289068,0.,0.25881904510252));
#1411=DIRECTION('',(0.,0.,1.));
#1412=DIRECTION('',(0.965925826289069,0.,0.25881904510252));
#1413=DIRECTION('',(0.,-1.,0.));
#1414=DIRECTION('',(0.965925826289069,0.,0.25881904510252));
#1415=DIRECTION('',(0.,-1.,0.));
#1416=DIRECTION('',(0.,0.,1.));
#1417=DIRECTION('',(0.,-1.,0.));
#1418=DIRECTION('',(0.,0.,1.));
#1419=DIRECTION('',(0.,-1.,0.));
#1420=DIRECTION('',(1.,0.,0.));
#1421=DIRECTION('',(0.,0.,-1.));
#1422=DIRECTION('',(1.,0.,0.));
#1423=DIRECTION('',(0.,0.,-1.));
#1424=DIRECTION('',(0.,1.,-6.12323399573677E-17));
#1425=DIRECTION('',(0.,0.,1.));
#1426=DIRECTION('',(0.,1.,-6.12323399573677E-17));
#1427=DIRECTION('',(1.,0.,0.));
#1428=DIRECTION('',(0.,0.,-1.));
#1429=DIRECTION('',(-1.,0.,-1.13089643267754E-16));
#1430=DIRECTION('',(0.,-1.,0.));
#1431=DIRECTION('',(-1.,0.,-1.13089643267754E-16));
#1432=DIRECTION('',(-1.13089643267754E-16,0.,1.));
#1433=DIRECTION('',(1.,0.,0.));
#1434=DIRECTION('',(-1.,0.,-1.13089643267754E-16));
#1435=DIRECTION('',(0.,-1.,0.));
#1436=DIRECTION('',(1.,0.,0.));
#1437=DIRECTION('',(1.,0.,1.13089643267754E-16));
#1438=DIRECTION('',(0.,-1.,0.));
#1439=DIRECTION('',(1.,0.,0.));
#1440=DIRECTION('',(0.,0.,-1.));
#1441=DIRECTION('',(0.,-1.,6.12323399573677E-17));
#1442=DIRECTION('',(0.,0.,-1.));
#1443=DIRECTION('',(0.,-1.,6.12323399573677E-17));
#1444=DIRECTION('',(0.,1.,0.));
#1445=DIRECTION('',(0.,0.,1.));
#1446=DIRECTION('',(-1.,0.,0.));
#1447=DIRECTION('',(-1.,0.,0.));
#1448=DIRECTION('',(0.,-6.12323399573677E-17,-1.));
#1449=DIRECTION('',(0.,1.,-6.12323399573677E-17));
#1450=DIRECTION('',(0.,-6.12323399573677E-17,-1.));
#1451=DIRECTION('',(0.,1.,-6.12323399573677E-17));
#1452=DIRECTION('',(0.,-6.12323399573677E-17,-1.));
#1453=DIRECTION('',(0.,1.,-6.12323399573677E-17));
#1454=DIRECTION('',(0.,-6.12323399573677E-17,-1.));
#1455=DIRECTION('',(0.,1.,-6.12323399573677E-17));
#1456=DIRECTION('',(0.,-6.12323399573677E-17,-1.));
#1457=DIRECTION('',(0.,1.,-6.12323399573677E-17));
#1458=DIRECTION('',(0.,-6.12323399573677E-17,-1.));
#1459=DIRECTION('',(1.,0.,0.));
#1460=DIRECTION('',(0.,-6.12323399573677E-17,-1.));
#1461=DIRECTION('',(1.,0.,0.));
#1462=DIRECTION('',(0.,-6.12323399573677E-17,-1.));
#1463=DIRECTION('',(1.,0.,0.));
#1464=DIRECTION('',(0.258819045102521,0.,-0.965925826289068));
#1465=DIRECTION('',(0.,-1.,0.));
#1466=DIRECTION('',(0.258819045102521,0.,-0.965925826289068));
#1467=DIRECTION('',(0.,-1.,0.));
#1468=DIRECTION('',(-0.258819045102521,0.,0.965925826289068));
#1469=DIRECTION('',(0.965925826289068,-6.12323399573677E-17,0.258819045102521));
#1470=DIRECTION('',(0.258819045102521,0.,-0.965925826289068));
#1471=DIRECTION('',(0.258819045102521,0.,-0.965925826289068));
#1472=DIRECTION('',(0.866025403784439,0.,-0.5));
#1473=DIRECTION('',(-0.5,0.,-0.866025403784439));
#1474=DIRECTION('',(-1.11453747803713E-16,-1.,-2.98639417174268E-17));
#1475=DIRECTION('',(-0.5,8.15898060862858E-17,-0.866025403784439));
#1476=DIRECTION('',(0.,1.,0.));
#1477=DIRECTION('',(-0.5,8.15898060862858E-17,-0.866025403784439));
#1478=DIRECTION('',(-3.41393580072236E-15,0.,1.));
#1479=DIRECTION('',(1.,0.,3.41393580072236E-15));
#1480=DIRECTION('',(-1.11453747803713E-16,-1.,-2.98639417174268E-17));
#1481=DIRECTION('',(1.,-1.11453747803713E-16,3.41393580072236E-15));
#1482=DIRECTION('',(0.,1.,0.));
#1483=DIRECTION('',(1.,-1.11453747803713E-16,3.41393580072236E-15));
#1484=DIRECTION('',(-1.11453747803713E-16,-1.,-2.98639417174268E-17));
#1485=DIRECTION('',(1.,-1.11453747803713E-16,0.));
#1486=DIRECTION('',(-8.13850317911068E-17,-1.,-1.4665495979947E-16));
#1487=DIRECTION('',(0.965925826289069,-1.16569000735234E-16,0.25881904510252));
#1488=DIRECTION('',(-8.13850317911068E-17,-1.,-1.4665495979947E-16));
#1489=DIRECTION('',(0.965925826289069,-1.16569000735234E-16,0.25881904510252));
#1490=DIRECTION('',(-8.13850317911068E-17,-1.,-1.4665495979947E-16));
#1491=DIRECTION('',(0.965925826289069,-1.16569000735234E-16,0.25881904510252));
#1492=DIRECTION('',(-8.13850317911068E-17,-1.,-1.4665495979947E-16));
#1493=DIRECTION('',(0.965925826289069,-1.16569000735234E-16,0.25881904510252));
#1494=DIRECTION('',(-8.13850317911068E-17,-1.,-1.4665495979947E-16));
#1495=DIRECTION('',(0.965925826289069,-1.16569000735234E-16,0.25881904510252));
#1496=DIRECTION('',(-0.258819045102521,0.,0.965925826289068));
#1497=DIRECTION('',(0.258819045102521,0.,-0.965925826289068));
#1498=DIRECTION('',(-1.11453747803713E-16,-1.,-2.98639417174268E-17));
#1499=DIRECTION('',(1.,-1.11453747803713E-16,0.));
#1500=DIRECTION('',(-1.11453747803713E-16,-1.,-2.98639417174268E-17));
#1501=DIRECTION('',(1.,-1.11453747803713E-16,0.));
#1502=DIRECTION('',(-1.11453747803713E-16,-1.,-2.98639417174268E-17));
#1503=DIRECTION('',(1.,-1.11453747803713E-16,0.));
#1504=DIRECTION('',(-1.11453747803713E-16,-1.,-2.98639417174268E-17));
#1505=DIRECTION('',(1.,-1.11453747803713E-16,0.));
#1506=DIRECTION('',(-1.11453747803713E-16,-1.,-2.98639417174268E-17));
#1507=DIRECTION('',(1.,-1.11453747803713E-16,0.));
#1508=DIRECTION('',(-1.11453747803713E-16,-1.,-2.98639417174268E-17));
#1509=DIRECTION('',(1.,-1.11453747803713E-16,0.));
#1510=DIRECTION('',(-0.258819045102521,0.,0.965925826289068));
#1511=DIRECTION('',(0.258819045102521,0.,-0.965925826289068));
#1512=DIRECTION('',(0.965925826289068,0.,0.258819045102521));
#1513=DIRECTION('',(0.258819045102521,0.,-0.965925826289068));
#1514=DIRECTION('',(0.258819045102521,0.,-0.965925826289068));
#1515=DIRECTION('',(-0.965925826289068,6.12323399573677E-17,-0.258819045102521));
#1516=DIRECTION('',(0.258819045102521,0.,-0.965925826289068));
#1517=DIRECTION('',(-0.965925826289068,6.12323399573677E-17,-0.258819045102521));
#1518=DIRECTION('',(0.601815023152049,-1.2829819725493E-16,0.798635510047292));
#1519=DIRECTION('',(0.798635510047292,0.,-0.601815023152049));
#1520=DIRECTION('',(-8.24666352414833E-17,-1.,-1.4694477457053E-16));
#1521=DIRECTION('',(0.798635510047292,2.25727896122698E-17,-0.601815023152049));
#1522=DIRECTION('',(1.07073751032979E-16,1.,7.99608889094595E-17));
#1523=DIRECTION('',(0.798635510047292,2.25727896122698E-17,-0.601815023152049));
#1524=DIRECTION('',(-0.866025403784438,5.27481440183205E-17,0.5));
#1525=DIRECTION('',(0.5,0.,0.866025403784438));
#1526=DIRECTION('',(-8.24666352414833E-17,-1.,-1.4694477457053E-16));
#1527=DIRECTION('',(0.5,-1.60094429020474E-16,0.866025403784438));
#1528=DIRECTION('',(1.07073751032979E-16,1.,7.99608889094595E-17));
#1529=DIRECTION('',(0.5,-1.60094429020474E-16,0.866025403784438));
#1530=DIRECTION('',(8.24666352414833E-17,1.,1.4694477457053E-16));
#1531=DIRECTION('',(0.,-1.4694477457053E-16,1.));
#1532=DIRECTION('',(-8.13850317911068E-17,-1.,-1.4665495979947E-16));
#1533=DIRECTION('',(0.965925826289069,-1.16569000735234E-16,0.25881904510252));
#1534=DIRECTION('',(-8.13850317911068E-17,-1.,-1.4665495979947E-16));
#1535=DIRECTION('',(0.965925826289069,-1.16569000735234E-16,0.25881904510252));
#1536=DIRECTION('',(-0.965925826289069,1.19538122201687E-16,-0.25881904510252));
#1537=DIRECTION('',(0.965925826289069,-1.11022302462516E-16,0.25881904510252));
#1538=DIRECTION('',(8.24666352414833E-17,1.,1.4694477457053E-16));
#1539=DIRECTION('',(0.,-1.4694477457053E-16,1.));
#1540=DIRECTION('',(8.24666352414833E-17,1.,1.4694477457053E-16));
#1541=DIRECTION('',(0.,-1.4694477457053E-16,1.));
#1542=DIRECTION('',(8.24666352414833E-17,1.,1.4694477457053E-16));
#1543=DIRECTION('',(0.,-1.4694477457053E-16,1.));
#1544=DIRECTION('',(-0.965925826289069,1.19538122201687E-16,-0.25881904510252));
#1545=DIRECTION('',(0.965925826289069,-1.11022302462516E-16,0.25881904510252));
#1546=DIRECTION('',(-0.25881904510252,-4.95235616927774E-17,0.965925826289069));
#1547=DIRECTION('',(0.965925826289069,0.,0.25881904510252));
#1548=DIRECTION('',(0.965925826289069,-1.17688759024058E-16,0.25881904510252));
#1549=DIRECTION('',(0.25881904510252,6.12323399573677E-17,-0.965925826289069));
#1550=DIRECTION('',(0.965925826289069,-1.17688759024058E-16,0.25881904510252));
#1551=DIRECTION('',(0.25881904510252,6.12323399573677E-17,-0.965925826289069));
#1552=DIRECTION('',(-0.601815023152049,0.,-0.798635510047292));
#1553=DIRECTION('',(-0.798635510047292,0.,0.601815023152049));
#1554=DIRECTION('',(1.22464679914735E-16,-1.,0.));
#1555=DIRECTION('',(-0.798635510047292,-9.78046421064831E-17,0.601815023152049));
#1556=DIRECTION('',(0.,1.,0.));
#1557=DIRECTION('',(-0.798635510047292,-9.78046421064831E-17,0.601815023152049));
#1558=DIRECTION('',(-1.22464679914735E-16,1.,0.));
#1559=DIRECTION('',(-1.,-1.22464679914735E-16,0.));
#1560=DIRECTION('',(1.22464679914735E-16,-1.,0.));
#1561=DIRECTION('',(0.,0.,1.));
#1562=DIRECTION('',(1.22464679914735E-16,-1.,0.));
#1563=DIRECTION('',(0.,0.,1.));
#1564=DIRECTION('',(1.22464679914735E-16,-1.,0.));
#1565=DIRECTION('',(0.,0.,1.));
#1566=DIRECTION('',(-8.13850317911068E-17,-1.,-1.4665495979947E-16));
#1567=DIRECTION('',(0.965925826289069,-1.16569000735234E-16,0.25881904510252));
#1568=DIRECTION('',(0.,0.,-1.));
#1569=DIRECTION('',(0.,0.,1.));
#1570=DIRECTION('',(-1.22464679914735E-16,1.,0.));
#1571=DIRECTION('',(-1.,-1.22464679914735E-16,0.));
#1572=DIRECTION('',(-1.22464679914735E-16,1.,0.));
#1573=DIRECTION('',(-1.,-1.22464679914735E-16,0.));
#1574=DIRECTION('',(-1.22464679914735E-16,1.,0.));
#1575=DIRECTION('',(-1.,-1.22464679914735E-16,0.));
#1576=DIRECTION('',(-1.22464679914735E-16,1.,0.));
#1577=DIRECTION('',(-1.,-1.22464679914735E-16,0.));
#1578=DIRECTION('',(-1.22464679914735E-16,1.,0.));
#1579=DIRECTION('',(-1.,-1.22464679914735E-16,0.));
#1580=DIRECTION('',(0.,0.,-1.));
#1581=DIRECTION('',(0.,0.,1.));
#1582=DIRECTION('',(-1.,0.,0.));
#1583=DIRECTION('',(0.,0.,1.));
#1584=DIRECTION('',(0.,0.,1.));
#1585=DIRECTION('',(1.,6.12323399573677E-17,0.));
#1586=DIRECTION('',(0.,0.,1.));
#1587=DIRECTION('',(1.,6.12323399573677E-17,0.));
#1588=DIRECTION('',(0.,-6.12323399573677E-17,-1.));
#1589=DIRECTION('',(0.,1.,-6.12323399573677E-17));
#1590=DIRECTION('',(0.,-6.12323399573677E-17,-1.));
#1591=DIRECTION('',(0.,1.,-6.12323399573677E-17));
#1592=DIRECTION('',(0.,-6.12323399573677E-17,-1.));
#1593=DIRECTION('',(0.,1.,-6.12323399573677E-17));
#1594=DIRECTION('',(-8.86794154166143E-17,-1.,-1.48609484001208E-16));
#1595=DIRECTION('',(0.,1.48609484001208E-16,-1.));
#1596=DIRECTION('',(-8.86794154166143E-17,-1.,-1.48609484001208E-16));
#1597=DIRECTION('',(0.,1.48609484001208E-16,-1.));
#1598=DIRECTION('',(-8.86794154166143E-17,-1.,-1.48609484001208E-16));
#1599=DIRECTION('',(0.,1.48609484001208E-16,-1.));
#1600=DIRECTION('',(-8.86794154166143E-17,-1.,-1.48609484001208E-16));
#1601=DIRECTION('',(0.,1.48609484001208E-16,-1.));
#1602=DIRECTION('',(-8.86794154166143E-17,-1.,-1.48609484001208E-16));
#1603=DIRECTION('',(0.,1.48609484001208E-16,-1.));
#1604=DIRECTION('',(-8.86794154166143E-17,-1.,-1.48609484001208E-16));
#1605=DIRECTION('',(0.,1.48609484001208E-16,-1.));
#1606=DIRECTION('',(-8.86794154166143E-17,-1.,-1.48609484001208E-16));
#1607=DIRECTION('',(0.,1.48609484001208E-16,-1.));
#1608=DIRECTION('',(-8.86794154166143E-17,-1.,-1.48609484001208E-16));
#1609=DIRECTION('',(0.,1.48609484001208E-16,-1.));
#1610=DIRECTION('',(1.22464679914735E-16,-1.,0.));
#1611=DIRECTION('',(1.,1.22464679914735E-16,0.));
#1612=DIRECTION('',(1.22464679914735E-16,-1.,0.));
#1613=DIRECTION('',(1.,1.22464679914735E-16,0.));
#1614=DIRECTION('',(1.22464679914735E-16,-1.,0.));
#1615=DIRECTION('',(1.,1.22464679914735E-16,0.));
#1616=CARTESIAN_POINT('',(0.,0.,0.));
#1617=CARTESIAN_POINT('',(-123.063640509455,-1.3,-192.558197865289));
#1618=CARTESIAN_POINT('',(-124.363640509455,-0.0198009936621668,-192.558197865289));
#1619=CARTESIAN_POINT('',(-124.363640509455,-17.7,-192.558197865289));
#1620=CARTESIAN_POINT('',(-124.363640509455,-1.3,-192.558197865289));
#1621=CARTESIAN_POINT('',(-123.063640509455,-17.7,-192.558197865289));
#1622=CARTESIAN_POINT('',(-123.063640509455,-19.,-192.558197865289));
#1623=CARTESIAN_POINT('',(-124.343839515793,-19.,-192.558197865289));
#1624=CARTESIAN_POINT('',(-104.363640509455,-19.,-192.558197865289));
#1625=CARTESIAN_POINT('',(-104.363640509455,-20.,-192.558197865289));
#1626=CARTESIAN_POINT('',(-104.363640509455,-20.,-192.558197865289));
#1627=CARTESIAN_POINT('',(-124.343839515793,-20.,-192.558197865289));
#1628=CARTESIAN_POINT('',(-123.063640509455,-20.,-192.558197865289));
#1629=CARTESIAN_POINT('',(-123.063640509455,-17.7,-192.558197865289));
#1630=CARTESIAN_POINT('',(-125.363640509455,-17.7,-192.558197865289));
#1631=CARTESIAN_POINT('',(-125.363640509455,-0.0198009936621668,-192.558197865289));
#1632=CARTESIAN_POINT('',(-125.363640509455,-1.3,-192.558197865289));
#1633=CARTESIAN_POINT('',(-123.063640509455,-1.3,-192.558197865289));
#1634=CARTESIAN_POINT('',(-123.063640509455,1.,-192.558197865289));
#1635=CARTESIAN_POINT('',(-123.063640509455,1.,-192.558197865289));
#1636=CARTESIAN_POINT('',(-123.063640509455,0.,-192.558197865289));
#1637=CARTESIAN_POINT('',(-123.063640509455,-1.3,-192.558197865289));
#1638=CARTESIAN_POINT('',(-1123.06364050945,1001.,153.891551645597));
#1639=CARTESIAN_POINT('',(-125.363640509455,-0.0198009936621668,153.891551645597));
#1640=CARTESIAN_POINT('',(-125.363640509455,-17.7,153.891551645597));
#1641=CARTESIAN_POINT('',(-125.363640509455,-1.3,153.891551645597));
#1642=CARTESIAN_POINT('',(-123.063640509455,-17.7,153.891551645597));
#1643=CARTESIAN_POINT('',(-124.689986106184,-19.326345596729,153.891551645597));
#1644=CARTESIAN_POINT('',(-124.689986106184,-19.326345596729,153.891551645597));
#1645=CARTESIAN_POINT('',(-123.982879324998,-18.6192388155425,153.891551645597));
#1646=CARTESIAN_POINT('',(-123.063640509455,-17.7,153.891551645597));
#1647=CARTESIAN_POINT('',(-124.363640509455,-17.7,153.891551645597));
#1648=CARTESIAN_POINT('',(-124.363640509455,-0.0198009936621668,153.891551645597));
#1649=CARTESIAN_POINT('',(-124.363640509455,-1.3,153.891551645597));
#1650=CARTESIAN_POINT('',(-123.063640509455,-1.3,153.891551645597));
#1651=CARTESIAN_POINT('',(-123.063640509455,0.,153.891551645597));
#1652=CARTESIAN_POINT('',(-123.063640509455,1.,153.891551645597));
#1653=CARTESIAN_POINT('',(-123.063640509455,1.,153.891551645597));
#1654=CARTESIAN_POINT('',(-123.063640509455,-1.3,153.891551645597));
#1655=CARTESIAN_POINT('',(-125.363640509455,-0.0198009936621668,153.546523355697));
#1656=CARTESIAN_POINT('',(-125.363640509455,-17.7,-192.558197865289));
#1657=CARTESIAN_POINT('',(-125.363640509455,-1.3,153.546523355697));
#1658=CARTESIAN_POINT('',(19.3131013995496,-1.3,192.041284661088));
#1659=CARTESIAN_POINT('',(18.7178175958139,-0.019800993662139,194.262914061554));
#1660=CARTESIAN_POINT('',(18.7178175958139,-1.3,194.262914061554));
#1661=CARTESIAN_POINT('',(18.7178175958139,-17.7,194.262914061554));
#1662=CARTESIAN_POINT('',(19.3131013995497,-17.7,192.041284661088));
#1663=CARTESIAN_POINT('',(18.8921721851976,-19.3263455967291,193.61221387544));
#1664=CARTESIAN_POINT('',(18.8921721851976,-19.3263455967291,193.61221387544));
#1665=CARTESIAN_POINT('',(19.0751848870898,-18.6192388155425,192.929201173549));
#1666=CARTESIAN_POINT('',(19.3131013995497,-17.7,192.041284661088));
#1667=CARTESIAN_POINT('',(18.9766366409164,-17.7,193.296988235265));
#1668=CARTESIAN_POINT('',(18.9766366409164,-0.019800993662139,193.296988235265));
#1669=CARTESIAN_POINT('',(18.9766366409164,-1.3,193.296988235265));
#1670=CARTESIAN_POINT('',(19.3131013995496,-1.3,192.041284661088));
#1671=CARTESIAN_POINT('',(19.3131013995496,0.,192.041284661088));
#1672=CARTESIAN_POINT('',(19.3131013995497,1.,192.041284661088));
#1673=CARTESIAN_POINT('',(19.3131013995496,1.,192.041284661088));
#1674=CARTESIAN_POINT('',(19.3131013995496,-1.3,192.041284661088));
#1675=CARTESIAN_POINT('',(-123.063640509455,-1.3,153.891551645597));
#1676=CARTESIAN_POINT('',(-123.400105268088,-0.019800993662139,155.147255219772));
#1677=CARTESIAN_POINT('',(-123.400105268088,-1.3,155.147255219772));
#1678=CARTESIAN_POINT('',(-123.400105268088,-17.7,155.147255219772));
#1679=CARTESIAN_POINT('',(-123.063640509455,-17.7,153.891551645597));
#1680=CARTESIAN_POINT('',(-123.301557021915,-18.6192388155425,154.779468158057));
#1681=CARTESIAN_POINT('',(-123.484569723807,-19.3263455967291,155.462480859948));
#1682=CARTESIAN_POINT('',(-123.484569723807,-19.3263455967291,155.462480859948));
#1683=CARTESIAN_POINT('',(-123.063640509455,-17.7,153.891551645597));
#1684=CARTESIAN_POINT('',(-123.658924313191,-17.7,156.113181046061));
#1685=CARTESIAN_POINT('',(-123.658924313191,-0.019800993662139,156.113181046061));
#1686=CARTESIAN_POINT('',(-123.658924313191,-1.3,156.113181046061));
#1687=CARTESIAN_POINT('',(-123.063640509455,-1.3,153.891551645597));
#1688=CARTESIAN_POINT('',(-123.063640509455,-1.3,153.891551645597));
#1689=CARTESIAN_POINT('',(20.9394469962787,-0.019800993662139,194.858197865289));
#1690=CARTESIAN_POINT('',(-123.658924313191,-17.7,156.113181046061));
#1691=CARTESIAN_POINT('',(20.9394469962787,-1.3,194.858197865289));
#1692=CARTESIAN_POINT('',(21.5347308000146,-0.0198009936621529,192.636568464825));
#1693=CARTESIAN_POINT('',(20.5688049737255,-0.0198009936621526,192.377749419722));
#1694=CARTESIAN_POINT('',(20.5688049737255,-17.7,192.377749419722));
#1695=CARTESIAN_POINT('',(20.5688049737254,-1.3,192.377749419722));
#1696=CARTESIAN_POINT('',(19.3131013995497,-17.7,192.041284661088));
#1697=CARTESIAN_POINT('',(20.2010179120096,-18.6192388155425,192.279201173549));
#1698=CARTESIAN_POINT('',(20.8840306139018,-19.326345596729,192.46221387544));
#1699=CARTESIAN_POINT('',(20.8840306139018,-19.326345596729,192.46221387544));
#1700=CARTESIAN_POINT('',(19.3131013995497,-17.7,192.041284661088));
#1701=CARTESIAN_POINT('',(21.5347308000146,-17.7,192.636568464825));
#1702=CARTESIAN_POINT('',(21.5347308000146,-0.0198009936621529,192.636568464825));
#1703=CARTESIAN_POINT('',(21.5347308000146,-1.3,192.636568464825));
#1704=CARTESIAN_POINT('',(19.3131013995497,-1.3,192.041284661088));
#1705=CARTESIAN_POINT('',(19.3131013995497,-1.3,192.041284661088));
#1706=CARTESIAN_POINT('',(122.36622215192,-1.3,-192.558197865289));
#1707=CARTESIAN_POINT('',(124.587851552385,-0.0198009936621529,-191.962914061554));
#1708=CARTESIAN_POINT('',(124.587851552385,-1.3,-191.962914061554));
#1709=CARTESIAN_POINT('',(124.587851552385,-17.7,-191.962914061554));
#1710=CARTESIAN_POINT('',(122.36622215192,-17.7,-192.558197865289));
#1711=CARTESIAN_POINT('',(123.937151366272,-19.326345596729,-192.137268650937));
#1712=CARTESIAN_POINT('',(123.937151366272,-19.326345596729,-192.137268650937));
#1713=CARTESIAN_POINT('',(123.25413866438,-18.6192388155425,-192.32028135283));
#1714=CARTESIAN_POINT('',(122.36622215192,-17.7,-192.558197865289));
#1715=CARTESIAN_POINT('',(123.621925726096,-17.7,-192.221733106656));
#1716=CARTESIAN_POINT('',(123.621925726096,-0.0198009936621526,-192.221733106656));
#1717=CARTESIAN_POINT('',(123.621925726096,-1.3,-192.221733106656));
#1718=CARTESIAN_POINT('',(122.36622215192,-1.3,-192.558197865289));
#1719=CARTESIAN_POINT('',(122.36622215192,2.16840434497101E-16,-192.558197865289));
#1720=CARTESIAN_POINT('',(122.36622215192,1.,-192.558197865289));
#1721=CARTESIAN_POINT('',(122.36622215192,1.,-192.558197865289));
#1722=CARTESIAN_POINT('',(122.36622215192,-1.3,-192.558197865289));
#1723=CARTESIAN_POINT('',(125.292916949412,-0.0198009936621529,-194.594253945915));
#1724=CARTESIAN_POINT('',(21.5347308000146,-17.7,192.636568464825));
#1725=CARTESIAN_POINT('',(125.292916949412,-1.3,-194.594253945915));
#1726=CARTESIAN_POINT('',(21.1982660413812,-0.019800993662139,193.892272039));
#1727=CARTESIAN_POINT('',(-123.400105268088,-17.7,155.147255219772));
#1728=CARTESIAN_POINT('',(21.1982660413813,-1.3,193.892272039));
#1729=CARTESIAN_POINT('',(-124.363640509455,-0.0198009936621668,153.546523355697));
#1730=CARTESIAN_POINT('',(-124.363640509455,-17.7,-192.558197865289));
#1731=CARTESIAN_POINT('',(-124.363640509455,-1.3,153.546523355697));
#1732=CARTESIAN_POINT('',(-125.363640509455,1.,-194.858197865289));
#1733=CARTESIAN_POINT('',(19.3131013995497,1.,192.041284661088));
#1734=CARTESIAN_POINT('',(122.36622215192,1.,-192.558197865289));
#1735=CARTESIAN_POINT('',(-123.063640509455,1.,-194.858197865289));
#1736=CARTESIAN_POINT('',(-125.363640509455,1.,153.275268503005));
#1737=CARTESIAN_POINT('',(-125.363640509455,0.,-194.858197865289));
#1738=CARTESIAN_POINT('',(122.36622215192,0.,-192.558197865289));
#1739=CARTESIAN_POINT('',(19.3131013995497,0.,192.041284661088));
#1740=CARTESIAN_POINT('',(-125.363640509455,0.,153.275268503005));
#1741=CARTESIAN_POINT('',(-123.063640509455,0.,-194.858197865289));
#1742=CARTESIAN_POINT('',(-125.363640509455,-1.3,153.275268503005));
#1743=CARTESIAN_POINT('',(-125.363640509455,-1.3,153.275268503005));
#1744=CARTESIAN_POINT('',(-123.063640509455,-1.3,-194.858197865289));
#1745=CARTESIAN_POINT('',(-123.063640509455,-1.3,-194.858197865289));
#1746=CARTESIAN_POINT('',(122.36622215192,1001.,807.441802134711));
#1747=CARTESIAN_POINT('',(122.36622215192,-1.3,-192.558197865289));
#1748=CARTESIAN_POINT('',(122.36622215192,-1.3,-193.858197865289));
#1749=CARTESIAN_POINT('',(122.36622215192,-0.019800993662139,-193.858197865289));
#1750=CARTESIAN_POINT('',(122.36622215192,-20.,-193.858197865289));
#1751=CARTESIAN_POINT('',(122.36622215192,-20.,-194.858197865289));
#1752=CARTESIAN_POINT('',(122.36622215192,-20.,-194.858197865289));
#1753=CARTESIAN_POINT('',(122.36622215192,-0.019800993662139,-194.858197865289));
#1754=CARTESIAN_POINT('',(122.36622215192,-1.3,-194.858197865289));
#1755=CARTESIAN_POINT('',(122.36622215192,-1.3,-192.558197865289));
#1756=CARTESIAN_POINT('',(122.36622215192,-1.3,-192.558197865289));
#1757=CARTESIAN_POINT('',(-123.063640509455,-1.3,-192.558197865289));
#1758=CARTESIAN_POINT('',(-123.063640509455,-1.3,-193.858197865289));
#1759=CARTESIAN_POINT('',(-123.063640509455,-1.3,-193.858197865289));
#1760=CARTESIAN_POINT('',(122.36622215192,-1.3,-192.558197865289));
#1761=CARTESIAN_POINT('',(-123.063640509455,-1.3,-194.858197865289));
#1762=CARTESIAN_POINT('',(-123.063640509455,-1.3,-194.858197865289));
#1763=CARTESIAN_POINT('',(-123.063640509455,-1.3,-192.558197865289));
#1764=CARTESIAN_POINT('',(-123.063640509455,-0.019800993662139,-194.858197865289));
#1765=CARTESIAN_POINT('',(-123.063640509455,-0.019800993662139,-194.858197865289));
#1766=CARTESIAN_POINT('',(-123.063640509455,-20.,-194.858197865289));
#1767=CARTESIAN_POINT('',(-123.063640509455,-20.,-194.858197865289));
#1768=CARTESIAN_POINT('',(-123.063640509455,-20.,-193.858197865289));
#1769=CARTESIAN_POINT('',(-123.063640509455,-0.019800993662139,-193.858197865289));
#1770=CARTESIAN_POINT('',(122.70925044182,-20.,-194.858197865289));
#1771=CARTESIAN_POINT('',(122.70925044182,-20.,-193.858197865289));
#1772=CARTESIAN_POINT('',(122.70925044182,-20.,-194.858197865289));
#1773=CARTESIAN_POINT('',(-123.063640509455,-0.019800993662139,-193.858197865289));
#1774=CARTESIAN_POINT('',(94.636359490545,-10.,-193.858197865289));
#1775=CARTESIAN_POINT('',(94.636359490545,-7.95,-193.858197865289));
#1776=CARTESIAN_POINT('',(-5.36364050945504,-10.,-193.858197865289));
#1777=CARTESIAN_POINT('',(-5.36364050945504,-7.95,-193.858197865289));
#1778=CARTESIAN_POINT('',(-105.363640509455,-10.,-193.858197865289));
#1779=CARTESIAN_POINT('',(-105.363640509455,-7.95,-193.858197865289));
#1780=CARTESIAN_POINT('',(-123.063640509455,-0.019800993662139,-194.858197865289));
#1781=CARTESIAN_POINT('',(94.636359490545,-10.,-194.858197865289));
#1782=CARTESIAN_POINT('',(96.686359490545,-10.,-194.858197865289));
#1783=CARTESIAN_POINT('',(-5.36364050945504,-10.,-194.858197865289));
#1784=CARTESIAN_POINT('',(-3.31364050945504,-10.,-194.858197865289));
#1785=CARTESIAN_POINT('',(-105.363640509455,-10.,-194.858197865289));
#1786=CARTESIAN_POINT('',(-103.313640509455,-10.,-194.858197865289));
#1787=CARTESIAN_POINT('',(19.3131013995497,-1.3,192.041284661088));
#1788=CARTESIAN_POINT('',(19.3131013995497,-1.3,192.041284661088));
#1789=CARTESIAN_POINT('',(124.326991123123,-1.3,-194.853072991018));
#1790=CARTESIAN_POINT('',(124.326991123123,-0.0198009936621526,-194.853072991018));
#1791=CARTESIAN_POINT('',(20.5688049737255,-17.7,192.377749419722));
#1792=CARTESIAN_POINT('',(20.549678682561,-20.,192.37262454545));
#1793=CARTESIAN_POINT('',(19.6444412839113,-19.,190.804707378077));
#1794=CARTESIAN_POINT('',(19.6444412839113,-19.,190.804707378077));
#1795=CARTESIAN_POINT('',(19.6444412839113,-20.,190.804707378077));
#1796=CARTESIAN_POINT('',(20.549678682561,-19.,192.37262454545));
#1797=CARTESIAN_POINT('',(6.42154447572281,-19.,167.901978283054));
#1798=CARTESIAN_POINT('',(6.42154447572281,-20.,167.901978283054));
#1799=CARTESIAN_POINT('',(6.42154447572281,-20.,167.901978283054));
#1800=CARTESIAN_POINT('',(20.549678682561,-20.,192.37262454545));
#1801=CARTESIAN_POINT('',(123.602799434932,-20.,-192.226857980927));
#1802=CARTESIAN_POINT('',(122.277439897485,-19.,-192.226857980927));
#1803=CARTESIAN_POINT('',(122.277439897485,-19.,-192.226857980927));
#1804=CARTESIAN_POINT('',(122.277439897485,-20.,-192.226857980927));
#1805=CARTESIAN_POINT('',(123.602799434932,-20.,-192.226857980927));
#1806=CARTESIAN_POINT('',(102.917775323817,-20.,-192.226857980927));
#1807=CARTESIAN_POINT('',(102.917775323817,-20.,-192.226857980927));
#1808=CARTESIAN_POINT('',(102.917775323817,-19.,-192.226857980927));
#1809=CARTESIAN_POINT('',(123.602799434932,-19.,-192.226857980927));
#1810=CARTESIAN_POINT('',(123.602799434932,-20.,-192.226857980927));
#1811=CARTESIAN_POINT('',(106.912780348449,-20.,-168.378937386906));
#1812=CARTESIAN_POINT('',(108.892928292341,-20.,-167.848358344445));
#1813=CARTESIAN_POINT('',(85.5064092509323,-20.,-88.4892728453006));
#1814=CARTESIAN_POINT('',(87.4865571948249,-20.,-87.9586938028404));
#1815=CARTESIAN_POINT('',(64.100038153416,-20.,-8.59960830369583));
#1816=CARTESIAN_POINT('',(66.0801860973086,-20.,-8.06902926123566));
#1817=CARTESIAN_POINT('',(42.6936670558997,-20.,71.2900562379089));
#1818=CARTESIAN_POINT('',(44.6738149997923,-20.,71.8206352803691));
#1819=CARTESIAN_POINT('',(21.2872959583833,-20.,151.179720779514));
#1820=CARTESIAN_POINT('',(23.2674439022759,-20.,151.710299821974));
#1821=CARTESIAN_POINT('',(122.277439897485,-20.,-192.226857980927));
#1822=CARTESIAN_POINT('',(6.42154447572281,-20.,167.901978283054));
#1823=CARTESIAN_POINT('',(123.602799434932,-19.,-192.226857980927));
#1824=CARTESIAN_POINT('',(106.912780348449,-19.,-168.378937386906));
#1825=CARTESIAN_POINT('',(108.962780348449,-19.,-168.378937386906));
#1826=CARTESIAN_POINT('',(85.5064092509323,-19.,-88.4892728453006));
#1827=CARTESIAN_POINT('',(87.5564092509323,-19.,-88.4892728453006));
#1828=CARTESIAN_POINT('',(64.100038153416,-19.,-8.59960830369583));
#1829=CARTESIAN_POINT('',(66.150038153416,-19.,-8.59960830369583));
#1830=CARTESIAN_POINT('',(42.6936670558997,-19.,71.2900562379089));
#1831=CARTESIAN_POINT('',(44.7436670558997,-19.,71.2900562379089));
#1832=CARTESIAN_POINT('',(21.2872959583833,-19.,151.179720779514));
#1833=CARTESIAN_POINT('',(23.3372959583834,-19.,151.179720779514));
#1834=CARTESIAN_POINT('',(122.277439897485,-19.,-192.226857980927));
#1835=CARTESIAN_POINT('',(6.42154447572281,-19.,167.901978283054));
#1836=CARTESIAN_POINT('',(6.42154447572281,-20.,167.901978283054));
#1837=CARTESIAN_POINT('',(19.3131013995497,-17.7,192.041284661088));
#1838=CARTESIAN_POINT('',(20.8840306139018,-19.3263455967291,192.462213875441));
#1839=CARTESIAN_POINT('',(20.5832089354291,-19.7521218783026,191.939822437146));
#1840=CARTESIAN_POINT('',(20.115615872749,-20.,191.372744741132));
#1841=CARTESIAN_POINT('',(19.6444412839112,-20.,190.804707378077));
#1842=CARTESIAN_POINT('',(122.277439897485,-20.,-192.226857980928));
#1843=CARTESIAN_POINT('',(122.888655199255,-20.,-192.181459673663));
#1844=CARTESIAN_POINT('',(123.496288974868,-19.7521218783026,-192.137021033441));
#1845=CARTESIAN_POINT('',(123.937151366273,-19.3263455967291,-192.137268650937));
#1846=CARTESIAN_POINT('',(19.3131013995497,-17.7,192.041284661088));
#1847=CARTESIAN_POINT('',(123.25413866438,-18.6192388155425,-192.320281352829));
#1848=CARTESIAN_POINT('',(122.99208858019,-18.8598949746928,-192.272121122018));
#1849=CARTESIAN_POINT('',(122.635776409274,-19.,-192.249218341222));
#1850=CARTESIAN_POINT('',(122.277439897486,-19.,-192.226857980928));
#1851=CARTESIAN_POINT('',(19.6444412839113,-19.,190.804707378077));
#1852=CARTESIAN_POINT('',(19.8627370827672,-19.,191.304986073574));
#1853=CARTESIAN_POINT('',(20.0790085407514,-18.8598949746928,191.804722348569));
#1854=CARTESIAN_POINT('',(20.2010179120096,-18.6192388155425,192.279201173548));
#1855=CARTESIAN_POINT('',(122.277439897485,-20.,-192.226857980927));
#1856=CARTESIAN_POINT('',(122.583100515677,-20.,-192.204154893124));
#1857=CARTESIAN_POINT('',(122.888540916963,-19.9401370966171,-192.181490295511));
#1858=CARTESIAN_POINT('',(123.455482661268,-19.7097087529348,-192.147955052216));
#1859=CARTESIAN_POINT('',(123.716681973839,-19.5392706197629,-192.13714479211));
#1860=CARTESIAN_POINT('',(123.937151366272,-19.326345596729,-192.137268650937));
#1861=CARTESIAN_POINT('',(122.277439897485,-19.,-192.226857980927));
#1862=CARTESIAN_POINT('',(122.456637010549,-19.,-192.238039961775));
#1863=CARTESIAN_POINT('',(122.635711814934,-18.966164445914,-192.249235649223));
#1864=CARTESIAN_POINT('',(122.969024142069,-18.8359223386153,-192.278301219586));
#1865=CARTESIAN_POINT('',(123.12309252485,-18.7395862631009,-192.296197332864));
#1866=CARTESIAN_POINT('',(123.25413866438,-18.6192388155425,-192.32028135283));
#1867=CARTESIAN_POINT('',(20.8840306139018,-19.326345596729,192.46221387544));
#1868=CARTESIAN_POINT('',(20.733601795663,-19.5392591845941,192.200986934884));
#1869=CARTESIAN_POINT('',(20.5424026218301,-19.7097087529348,191.928888418371));
#1870=CARTESIAN_POINT('',(20.115501590457,-19.9401370966171,191.372714119284));
#1871=CARTESIAN_POINT('',(19.8800566606415,-20.,191.088760056354));
#1872=CARTESIAN_POINT('',(19.6444412839113,-20.,190.804707378077));
#1873=CARTESIAN_POINT('',(20.2010179120096,-18.6192388155425,192.279201173549));
#1874=CARTESIAN_POINT('',(20.1400089752067,-18.7395752803026,192.041945228788));
#1875=CARTESIAN_POINT('',(20.0559441026301,-18.8359223386154,191.798542251001));
#1876=CARTESIAN_POINT('',(19.8626724884281,-18.966164445914,191.304968765573));
#1877=CARTESIAN_POINT('',(19.7535967238752,-19.,191.054864179265));
#1878=CARTESIAN_POINT('',(19.6444412839113,-19.,190.804707378077));
#1879=CARTESIAN_POINT('',(-123.394980393817,-20.,155.128128928608));
#1880=CARTESIAN_POINT('',(-122.097520452174,-19.,154.150422734737));
#1881=CARTESIAN_POINT('',(-122.097520452174,-19.,154.150422734737));
#1882=CARTESIAN_POINT('',(-122.097520452174,-20.,154.150422734737));
#1883=CARTESIAN_POINT('',(-123.394980393817,-19.,155.128128928608));
#1884=CARTESIAN_POINT('',(-103.145388175388,-19.,139.868966699481));
#1885=CARTESIAN_POINT('',(-103.145388175388,-20.,139.868966699481));
#1886=CARTESIAN_POINT('',(-103.145388175388,-20.,139.868966699481));
#1887=CARTESIAN_POINT('',(-123.394980393817,-20.,155.128128928608));
#1888=CARTESIAN_POINT('',(18.9817615151882,-20.,193.2778619441));
#1889=CARTESIAN_POINT('',(18.0765241165383,-19.,191.709944776727));
#1890=CARTESIAN_POINT('',(18.0765241165383,-19.,191.709944776727));
#1891=CARTESIAN_POINT('',(18.0765241165383,-20.,191.709944776727));
#1892=CARTESIAN_POINT('',(18.9817615151882,-20.,193.2778619441));
#1893=CARTESIAN_POINT('',(4.85362730834989,-20.,168.807215681704));
#1894=CARTESIAN_POINT('',(4.85362730834989,-20.,168.807215681704));
#1895=CARTESIAN_POINT('',(4.85362730834989,-19.,168.807215681704));
#1896=CARTESIAN_POINT('',(18.9817615151882,-19.,193.2778619441));
#1897=CARTESIAN_POINT('',(-123.394980393817,-20.,155.128128928608));
#1898=CARTESIAN_POINT('',(-17.0229673507372,-20.,173.29816161376));
#1899=CARTESIAN_POINT('',(-15.0428194068446,-20.,173.82874065622));
#1900=CARTESIAN_POINT('',(-84.096659280547,-20.,155.325820027793));
#1901=CARTESIAN_POINT('',(-82.1165113366544,-20.,155.856399070254));
#1902=CARTESIAN_POINT('',(18.0765241165383,-20.,191.709944776727));
#1903=CARTESIAN_POINT('',(-103.145388175388,-20.,139.868966699481));
#1904=CARTESIAN_POINT('',(-123.394980393817,-19.,155.128128928608));
#1905=CARTESIAN_POINT('',(-17.0229673507372,-19.,173.29816161376));
#1906=CARTESIAN_POINT('',(-17.0229673507372,-19.,175.34816161376));
#1907=CARTESIAN_POINT('',(-84.096659280547,-19.,155.325820027793));
#1908=CARTESIAN_POINT('',(-84.096659280547,-19.,157.375820027793));
#1909=CARTESIAN_POINT('',(18.0765241165383,-19.,191.709944776727));
#1910=CARTESIAN_POINT('',(-103.145388175388,-19.,139.868966699481));
#1911=CARTESIAN_POINT('',(-103.145388175388,-20.,139.868966699481));
#1912=CARTESIAN_POINT('',(-123.063640509455,-17.7,153.891551645597));
#1913=CARTESIAN_POINT('',(-123.484569723807,-19.326345596729,155.462480859949));
#1914=CARTESIAN_POINT('',(-123.052330694089,-19.7521218783026,155.137502916402));
#1915=CARTESIAN_POINT('',(-122.575405406652,-20.,154.645753588648));
#1916=CARTESIAN_POINT('',(-122.097520452174,-20.,154.150422734737));
#1917=CARTESIAN_POINT('',(18.0765241165383,-20.,191.709944776727));
#1918=CARTESIAN_POINT('',(18.332871608824,-20.,192.402012621806));
#1919=CARTESIAN_POINT('',(18.5901787681514,-19.7521218783026,193.090498940727));
#1920=CARTESIAN_POINT('',(18.8921721851977,-19.3263455967291,193.612213875441));
#1921=CARTESIAN_POINT('',(-123.063640509455,-17.7,153.891551645597));
#1922=CARTESIAN_POINT('',(19.0751848870899,-18.6192388155425,192.929201173549));
#1923=CARTESIAN_POINT('',(18.7252788567287,-18.8598949746928,192.586298546049));
#1924=CARTESIAN_POINT('',(18.4006302763826,-19.,192.149133831824));
#1925=CARTESIAN_POINT('',(18.0765241165383,-19.,191.709944776727));
#1926=CARTESIAN_POINT('',(-122.097520452174,-19.,154.150422734737));
#1927=CARTESIAN_POINT('',(-122.507646739094,-19.,154.392874798666));
#1928=CARTESIAN_POINT('',(-122.917230605512,-18.8598949746927,154.633302521724));
#1929=CARTESIAN_POINT('',(-123.301557021915,-18.6192388155425,154.779468158056));
#1930=CARTESIAN_POINT('',(18.0765241165383,-20.,191.709944776727));
#1931=CARTESIAN_POINT('',(18.2047131836255,-20.,192.05602006161));
#1932=CARTESIAN_POINT('',(18.3329022306719,-19.9401370966172,192.401898339514));
#1933=CARTESIAN_POINT('',(18.6011127869262,-19.7097087529349,193.049692627128));
#1934=CARTESIAN_POINT('',(18.7411573524815,-19.5392591399282,193.351325253209));
#1935=CARTESIAN_POINT('',(18.8921721851976,-19.3263455967291,193.61221387544));
#1936=CARTESIAN_POINT('',(18.0765241165383,-19.,191.709944776727));
#1937=CARTESIAN_POINT('',(18.2385884892947,-19.,191.929554606944));
#1938=CARTESIAN_POINT('',(18.4006475843835,-18.966164445914,192.149069237485));
#1939=CARTESIAN_POINT('',(18.7314589542971,-18.8359223386154,192.563234107928));
#1940=CARTESIAN_POINT('',(18.9002196324742,-18.7395752396005,192.757737941407));
#1941=CARTESIAN_POINT('',(19.0751848870898,-18.6192388155425,192.929201173549));
#1942=CARTESIAN_POINT('',(-123.484569723807,-19.3263455967291,155.462480859948));
#1943=CARTESIAN_POINT('',(-123.268420506818,-19.5392629955456,155.299969556696));
#1944=CARTESIAN_POINT('',(-123.041396675314,-19.7097087529349,155.096696602803));
#1945=CARTESIAN_POINT('',(-122.575374784804,-19.9401370966172,154.645639306356));
#1946=CARTESIAN_POINT('',(-122.336495812575,-20.,154.398122136415));
#1947=CARTESIAN_POINT('',(-122.097520452174,-20.,154.150422734737));
#1948=CARTESIAN_POINT('',(-123.301557021915,-18.6192388155425,154.779468158057));
#1949=CARTESIAN_POINT('',(-123.109376237204,-18.7395779011145,154.706378655255));
#1950=CARTESIAN_POINT('',(-122.911050507943,-18.8359223386154,154.610238083603));
#1951=CARTESIAN_POINT('',(-122.507629431093,-18.966164445914,154.392810204328));
#1952=CARTESIAN_POINT('',(-122.302602377706,-19.,154.271659798284));
#1953=CARTESIAN_POINT('',(-122.097520452174,-19.,154.150422734737));
#1954=CARTESIAN_POINT('',(-124.343839515793,-20.,153.891551645597));
#1955=CARTESIAN_POINT('',(-123.063640509455,-19.,152.926852499433));
#1956=CARTESIAN_POINT('',(-123.063640509455,-19.,152.926852499433));
#1957=CARTESIAN_POINT('',(-123.063640509455,-20.,152.926852499433));
#1958=CARTESIAN_POINT('',(-124.343839515793,-20.,153.891551645597));
#1959=CARTESIAN_POINT('',(-104.363640509455,-20.,138.835391762511));
#1960=CARTESIAN_POINT('',(-104.363640509455,-20.,138.835391762511));
#1961=CARTESIAN_POINT('',(-104.363640509455,-19.,138.835391762511));
#1962=CARTESIAN_POINT('',(-124.343839515793,-19.,153.891551645597));
#1963=CARTESIAN_POINT('',(-124.343839515793,-20.,-192.558197865289));
#1964=CARTESIAN_POINT('',(-114.389081422292,-20.,21.9243529103791));
#1965=CARTESIAN_POINT('',(-114.389081422292,-20.,23.9743529103791));
#1966=CARTESIAN_POINT('',(-114.389081422292,-20.,-78.0756470896208));
#1967=CARTESIAN_POINT('',(-114.389081422292,-20.,-76.0256470896208));
#1968=CARTESIAN_POINT('',(-114.389081422292,-20.,-178.075647089621));
#1969=CARTESIAN_POINT('',(-114.389081422292,-20.,-176.025647089621));
#1970=CARTESIAN_POINT('',(-114.389081422292,-20.,121.924352910379));
#1971=CARTESIAN_POINT('',(-112.4089334784,-20.,122.454931952839));
#1972=CARTESIAN_POINT('',(-123.063640509455,-20.,152.926852499433));
#1973=CARTESIAN_POINT('',(-104.363640509455,-20.,-192.558197865289));
#1974=CARTESIAN_POINT('',(-124.343839515793,-19.,-192.558197865289));
#1975=CARTESIAN_POINT('',(-114.389081422292,-19.,21.9243529103791));
#1976=CARTESIAN_POINT('',(-116.439081422292,-19.,21.9243529103791));
#1977=CARTESIAN_POINT('',(-114.389081422292,-19.,-78.0756470896208));
#1978=CARTESIAN_POINT('',(-116.439081422292,-19.,-78.0756470896208));
#1979=CARTESIAN_POINT('',(-114.389081422292,-19.,-178.075647089621));
#1980=CARTESIAN_POINT('',(-116.439081422292,-19.,-178.075647089621));
#1981=CARTESIAN_POINT('',(-114.389081422292,-19.,121.924352910379));
#1982=CARTESIAN_POINT('',(-116.439081422292,-19.,121.924352910379));
#1983=CARTESIAN_POINT('',(-123.063640509455,-19.,152.926852499433));
#1984=CARTESIAN_POINT('',(-104.363640509455,-19.,-192.558197865289));
#1985=CARTESIAN_POINT('',(-104.363640509455,-20.,-192.558197865289));
#1986=CARTESIAN_POINT('',(-123.063640509455,-17.7,-192.558197865289));
#1987=CARTESIAN_POINT('',(-123.063640509455,-20.,152.926852499433));
#1988=CARTESIAN_POINT('',(-123.665779101393,-20.,153.248418881487));
#1989=CARTESIAN_POINT('',(-124.264209824611,-19.7521218783026,153.569985263542));
#1990=CARTESIAN_POINT('',(-124.689986106184,-19.3263455967291,153.891551645596));
#1991=CARTESIAN_POINT('',(-123.063640509455,-17.7,-192.558197865289));
#1992=CARTESIAN_POINT('',(-123.982879324998,-18.6192388155425,153.891551645596));
#1993=CARTESIAN_POINT('',(-123.742223165847,-18.8598949746928,153.569985263542));
#1994=CARTESIAN_POINT('',(-123.403979713594,-19.,153.248418881487));
#1995=CARTESIAN_POINT('',(-123.063640509455,-19.,152.926852499433));
#1996=CARTESIAN_POINT('',(-123.063640509455,-20.,152.926852499433));
#1997=CARTESIAN_POINT('',(-123.364751870777,-20.,153.087658155062));
#1998=CARTESIAN_POINT('',(-123.665660787658,-19.9401370966171,153.248418881488));
#1999=CARTESIAN_POINT('',(-124.221964020131,-19.7097087529348,153.569985263542));
#2000=CARTESIAN_POINT('',(-124.47706825427,-19.5392634486427,153.730745931969));
#2001=CARTESIAN_POINT('',(-124.689986106184,-19.326345596729,153.891551645597));
#2002=CARTESIAN_POINT('',(-123.063640509455,-19.,152.926852499433));
#2003=CARTESIAN_POINT('',(-123.233826226634,-19.,153.087650916674));
#2004=CARTESIAN_POINT('',(-123.403912840613,-18.966164445914,153.248418881488));
#2005=CARTESIAN_POINT('',(-123.718345102446,-18.8359223386154,153.569985263542));
#2006=CARTESIAN_POINT('',(-123.862539883242,-18.7395782572982,153.730753188999));
#2007=CARTESIAN_POINT('',(-123.982879324998,-18.6192388155425,153.891551645597));
#2008=CARTESIAN_POINT('',(-105.363640509455,-10.,268.102197925934));
#2009=CARTESIAN_POINT('',(-5.36364050945504,-10.,268.102197925934));
#2010=CARTESIAN_POINT('',(94.636359490545,-10.,268.102197925934));
#2011=CARTESIAN_POINT('',(-114.389081422292,442.960395791223,121.924352910379));
#2012=CARTESIAN_POINT('',(-84.096659280547,442.960395791223,155.325820027793));
#2013=CARTESIAN_POINT('',(-17.0229673507372,442.960395791223,173.29816161376));
#2014=CARTESIAN_POINT('',(21.2872959583834,442.960395791223,151.179720779514));
#2015=CARTESIAN_POINT('',(42.6936670558997,442.960395791223,71.290056237909));
#2016=CARTESIAN_POINT('',(64.100038153416,442.960395791223,-8.59960830369576));
#2017=CARTESIAN_POINT('',(85.5064092509323,442.960395791223,-88.4892728453005));
#2018=CARTESIAN_POINT('',(106.912780348449,442.960395791223,-168.378937386906));
#2019=CARTESIAN_POINT('',(-114.389081422292,442.960395791223,-178.075647089621));
#2020=CARTESIAN_POINT('',(-114.389081422292,442.960395791223,-78.0756470896208));
#2021=CARTESIAN_POINT('',(-114.389081422292,442.960395791223,21.9243529103791));
#2022=MECHANICAL_DESIGN_GEOMETRIC_PRESENTATION_REPRESENTATION('',(#1165),
#2023);
#2023=(
GEOMETRIC_REPRESENTATION_CONTEXT(3)
GLOBAL_UNCERTAINTY_ASSIGNED_CONTEXT((#2024))
GLOBAL_UNIT_ASSIGNED_CONTEXT((#2027,#2026,#2025))
REPRESENTATION_CONTEXT('Bok - pozicija 1 - DESNA',
'TOP_LEVEL_ASSEMBLY_PART')
);
#2024=UNCERTAINTY_MEASURE_WITH_UNIT(LENGTH_MEASURE(1.E-5),#2027,
'DISTANCE_ACCURACY_VALUE','Maximum Tolerance applied to model');
#2025=(
NAMED_UNIT(*)
SI_UNIT($,.STERADIAN.)
SOLID_ANGLE_UNIT()
);
#2026=(
NAMED_UNIT(*)
PLANE_ANGLE_UNIT()
SI_UNIT($,.RADIAN.)
);
#2027=(
LENGTH_UNIT()
NAMED_UNIT(*)
SI_UNIT(.MILLI.,.METRE.)
);
#2028=PRODUCT_DEFINITION_SHAPE('','',#2029);
#2029=PRODUCT_DEFINITION('','',#2031,#2030);
#2030=PRODUCT_DEFINITION_CONTEXT('',#2037,'design');
#2031=PRODUCT_DEFINITION_FORMATION_WITH_SPECIFIED_SOURCE('','',#2033,
 .NOT_KNOWN.);
#2032=PRODUCT_RELATED_PRODUCT_CATEGORY('','',(#2033));
#2033=PRODUCT('Bok - pozicija 1 - DESNA','Bok - pozicija 1 - DESNA',
'Bok - pozicija 1 - DESNA',(#2035));
#2034=PRODUCT_CATEGORY('','');
#2035=PRODUCT_CONTEXT('',#2037,'mechanical');
#2036=APPLICATION_PROTOCOL_DEFINITION('international standard',
'automotive_design',2010,#2037);
#2037=APPLICATION_CONTEXT(
'core data for automotive mechanical design processes');
ENDSEC;
END-ISO-10303-21;
