  0
SECTION
  2
HEADER
  9
$ACADVER
  1
AC1024
  9
$ACADMAINTVER
 70
6
  9
$DWGCODEPAGE
  3
ANSI_1252
  9
$LASTSAVEDBY
  1
ezdxf
  9
$INSBASE
 10
0.0
 20
0.0
 30
0.0
  9
$EXTMIN
 10
1e+20
 20
1e+20
 30
1e+20
  9
$EXTMAX
 10
-1e+20
 20
-1e+20
 30
-1e+20
  9
$LIMMIN
 10
0.0
 20
0.0
  9
$LIMMAX
 10
420.0
 20
297.0
  9
$ORTHOMODE
 70
0
  9
$REGENMODE
 70
1
  9
$FILLMODE
 70
1
  9
$QTEXTMODE
 70
0
  9
$MIRRTEXT
 70
1
  9
$LTSCALE
 40
1.0
  9
$ATTMODE
 70
1
  9
$TEXTSIZE
 40
2.5
  9
$TRACEWID
 40
1.0
  9
$TEXTSTYLE
  7
Standard
  9
$CLAYER
  8
0
  9
$CELTYPE
  6
ByLayer
  9
$CECOLOR
 62
256
  9
$CELTSCALE
 40
1.0
  9
$DISPSILH
 70
0
  9
$DIMSCALE
 40
1.0
  9
$DIMASZ
 40
2.5
  9
$DIMEXO
 40
0.625
  9
$DIMDLI
 40
3.75
  9
$DIMRND
 40
0.0
  9
$DIMDLE
 40
0.0
  9
$DIMEXE
 40
1.25
  9
$DIMTP
 40
0.0
  9
$DIMTM
 40
0.0
  9
$DIMTXT
 40
2.5
  9
$DIMCEN
 40
2.5
  9
$DIMTSZ
 40
0.0
  9
$DIMTOL
 70
0
  9
$DIMLIM
 70
0
  9
$DIMTIH
 70
0
  9
$DIMTOH
 70
0
  9
$DIMSE1
 70
0
  9
$DIMSE2
 70
0
  9
$DIMTAD
 70
1
  9
$DIMZIN
 70
8
  9
$DIMBLK
  1

  9
$DIMASO
 70
1
  9
$DIMSHO
 70
1
  9
$DIMPOST
  1

  9
$DIMAPOST
  1

  9
$DIMALT
 70
0
  9
$DIMALTD
 70
3
  9
$DIMALTF
 40
0.03937007874
  9
$DIMLFAC
 40
1.0
  9
$DIMTOFL
 70
1
  9
$DIMTVP
 40
0.0
  9
$DIMTIX
 70
0
  9
$DIMSOXD
 70
0
  9
$DIMSAH
 70
0
  9
$DIMBLK1
  1

  9
$DIMBLK2
  1

  9
$DIMSTYLE
  2
ISO-25
  9
$DIMCLRD
 70
0
  9
$DIMCLRE
 70
0
  9
$DIMCLRT
 70
0
  9
$DIMTFAC
 40
1.0
  9
$DIMGAP
 40
0.625
  9
$DIMJUST
 70
0
  9
$DIMSD1
 70
0
  9
$DIMSD2
 70
0
  9
$DIMTOLJ
 70
0
  9
$DIMTZIN
 70
8
  9
$DIMALTZ
 70
0
  9
$DIMALTTZ
 70
0
  9
$DIMUPT
 70
0
  9
$DIMDEC
 70
2
  9
$DIMTDEC
 70
2
  9
$DIMALTU
 70
2
  9
$DIMALTTD
 70
3
  9
$DIMTXSTY
  7
Standard
  9
$DIMAUNIT
 70
0
  9
$DIMADEC
 70
0
  9
$DIMALTRND
 40
0.0
  9
$DIMAZIN
 70
0
  9
$DIMDSEP
 70
44
  9
$DIMATFIT
 70
3
  9
$DIMFRAC
 70
0
  9
$DIMLDRBLK
  1

  9
$DIMLUNIT
 70
2
  9
$DIMLWD
 70
-2
  9
$DIMLWE
 70
-2
  9
$DIMTMOVE
 70
0
  9
$DIMFXL
 40
1.0
  9
$DIMFXLON
 70
0
  9
$DIMJOGANG
 40
0.785398163397
  9
$DIMTFILL
 70
0
  9
$DIMTFILLCLR
 70
0
  9
$DIMARCSYM
 70
0
  9
$DIMLTYPE
  6

  9
$DIMLTEX1
  6

  9
$DIMLTEX2
  6

  9
$DIMTXTDIRECTION
 70
0
  9
$LUNITS
 70
2
  9
$LUPREC
 70
4
  9
$SKETCHINC
 40
1.0
  9
$FILLETRAD
 40
10.0
  9
$AUNITS
 70
0
  9
$AUPREC
 70
2
  9
$MENU
  1
.
  9
$ELEVATION
 40
0.0
  9
$PELEVATION
 40
0.0
  9
$THICKNESS
 40
0.0
  9
$LIMCHECK
 70
0
  9
$CHAMFERA
 40
0.0
  9
$CHAMFERB
 40
0.0
  9
$CHAMFERC
 40
0.0
  9
$CHAMFERD
 40
0.0
  9
$SKPOLY
 70
0
  9
$TDCREATE
 40
2461244.619212963
  9
$TDUCREATE
 40
2458532.153996898
  9
$TDUPDATE
 40
2461244.619212963
  9
$TDUUPDATE
 40
2458532.1544311
  9
$TDINDWG
 40
0.0
  9
$TDUSRTIMER
 40
0.0
  9
$USRTIMER
 70
1
  9
$ANGBASE
 50
0.0
  9
$ANGDIR
 70
0
  9
$PDMODE
 70
0
  9
$PDSIZE
 40
0.0
  9
$PLINEWID
 40
0.0
  9
$SPLFRAME
 70
0
  9
$SPLINETYPE
 70
6
  9
$SPLINESEGS
 70
8
  9
$HANDSEED
  5
5B
  9
$SURFTAB1
 70
6
  9
$SURFTAB2
 70
6
  9
$SURFTYPE
 70
6
  9
$SURFU
 70
6
  9
$SURFV
 70
6
  9
$UCSBASE
  2

  9
$UCSNAME
  2

  9
$UCSORG
 10
0.0
 20
0.0
 30
0.0
  9
$UCSXDIR
 10
1.0
 20
0.0
 30
0.0
  9
$UCSYDIR
 10
0.0
 20
1.0
 30
0.0
  9
$UCSORTHOREF
  2

  9
$UCSORTHOVIEW
 70
0
  9
$UCSORGTOP
 10
0.0
 20
0.0
 30
0.0
  9
$UCSORGBOTTOM
 10
0.0
 20
0.0
 30
0.0
  9
$UCSORGLEFT
 10
0.0
 20
0.0
 30
0.0
  9
$UCSORGRIGHT
 10
0.0
 20
0.0
 30
0.0
  9
$UCSORGFRONT
 10
0.0
 20
0.0
 30
0.0
  9
$UCSORGBACK
 10
0.0
 20
0.0
 30
0.0
  9
$PUCSBASE
  2

  9
$PUCSNAME
  2

  9
$PUCSORG
 10
0.0
 20
0.0
 30
0.0
  9
$PUCSXDIR
 10
1.0
 20
0.0
 30
0.0
  9
$PUCSYDIR
 10
0.0
 20
1.0
 30
0.0
  9
$PUCSORTHOREF
  2

  9
$PUCSORTHOVIEW
 70
0
  9
$PUCSORGTOP
 10
0.0
 20
0.0
 30
0.0
  9
$PUCSORGBOTTOM
 10
0.0
 20
0.0
 30
0.0
  9
$PUCSORGLEFT
 10
0.0
 20
0.0
 30
0.0
  9
$PUCSORGRIGHT
 10
0.0
 20
0.0
 30
0.0
  9
$PUCSORGFRONT
 10
0.0
 20
0.0
 30
0.0
  9
$PUCSORGBACK
 10
0.0
 20
0.0
 30
0.0
  9
$USERI1
 70
0
  9
$USERI2
 70
0
  9
$USERI3
 70
0
  9
$USERI4
 70
0
  9
$USERI5
 70
0
  9
$USERR1
 40
0.0
  9
$USERR2
 40
0.0
  9
$USERR3
 40
0.0
  9
$USERR4
 40
0.0
  9
$USERR5
 40
0.0
  9
$WORLDVIEW
 70
1
  9
$SHADEDGE
 70
3
  9
$SHADEDIF
 70
70
  9
$TILEMODE
 70
1
  9
$MAXACTVP
 70
64
  9
$PINSBASE
 10
0.0
 20
0.0
 30
0.0
  9
$PLIMCHECK
 70
0
  9
$PEXTMIN
 10
1e+20
 20
1e+20
 30
1e+20
  9
$PEXTMAX
 10
-1e+20
 20
-1e+20
 30
-1e+20
  9
$PLIMMIN
 10
0.0
 20
0.0
  9
$PLIMMAX
 10
420.0
 20
297.0
  9
$UNITMODE
 70
0
  9
$VISRETAIN
 70
1
  9
$PLINEGEN
 70
0
  9
$PSLTSCALE
 70
1
  9
$TREEDEPTH
 70
3020
  9
$CMLSTYLE
  2
Standard
  9
$CMLJUST
 70
0
  9
$CMLSCALE
 40
20.0
  9
$PROXYGRAPHICS
 70
1
  9
$MEASUREMENT
 70
1
  9
$CELWEIGHT
370
-1
  9
$ENDCAPS
280
0
  9
$JOINSTYLE
280
0
  9
$LWDISPLAY
290
0
  9
$INSUNITS
 70
6
  9
$HYPERLINKBASE
  1

  9
$STYLESHEET
  1

  9
$XEDIT
290
1
  9
$CEPSNTYPE
380
0
  9
$PSTYLEMODE
290
1
  9
$FINGERPRINTGUID
  2
{B0AD2522-9E60-44A7-9C5E-4CCB3DBE7367}
  9
$VERSIONGUID
  2
{DF1ADF0C-9F7B-4E17-8605-DD5501BF8391}
  9
$EXTNAMES
290
1
  9
$PSVPSCALE
 40
0.0
  9
$OLESTARTUP
290
0
  9
$SORTENTS
280
127
  9
$INDEXCTL
280
0
  9
$HIDETEXT
280
1
  9
$XCLIPFRAME
280
1
  9
$HALOGAP
280
0
  9
$OBSCOLOR
 70
257
  9
$OBSLTYPE
280
0
  9
$INTERSECTIONDISPLAY
280
0
  9
$INTERSECTIONCOLOR
 70
257
  9
$DIMASSOC
280
2
  9
$PROJECTNAME
  1

  9
$CAMERADISPLAY
290
0
  9
$LENSLENGTH
 40
50.0
  9
$CAMERAHEIGHT
 40
0.0
  9
$STEPSPERSEC
 40
24.0
  9
$STEPSIZE
 40
100.0
  9
$3DDWFPREC
 40
2.0
  9
$PSOLWIDTH
 40
0.005
  9
$PSOLHEIGHT
 40
0.08
  9
$LOFTANG1
 40
1.570796326795
  9
$LOFTANG2
 40
1.570796326795
  9
$LOFTMAG1
 40
0.0
  9
$LOFTMAG2
 40
0.0
  9
$LOFTPARAM
 70
7
  9
$LOFTNORMALS
280
1
  9
$LATITUDE
 40
37.795
  9
$LONGITUDE
 40
-122.394
  9
$NORTHDIRECTION
 40
0.0
  9
$TIMEZONE
 70
-8000
  9
$LIGHTGLYPHDISPLAY
280
1
  9
$TILEMODELIGHTSYNCH
280
1
  9
$CMATERIAL
347
20
  9
$SOLIDHIST
280
0
  9
$SHOWHIST
280
1
  9
$DWFFRAME
280
2
  9
$DGNFRAME
280
2
  9
$REALWORLDSCALE
290
1
  9
$INTERFERECOLOR
 62
256
  9
$CSHADOW
280
0
  9
$SHADOWPLANELOCATION
 40
0.0
  0
ENDSEC
  0
SECTION
  2
CLASSES
  0
CLASS
  1
ACDBDICTIONARYWDFLT
  2
AcDbDictionaryWithDefault
  3
ObjectDBX Classes
 90
0
 91
0
280
0
281
0
  0
CLASS
  1
SUN
  2
AcDbSun
  3
SCENEOE
 90
1153
 91
0
280
0
281
0
  0
CLASS
  1
VISUALSTYLE
  2
AcDbVisualStyle
  3
ObjectDBX Classes
 90
4095
 91
0
280
0
281
0
  0
CLASS
  1
MATERIAL
  2
AcDbMaterial
  3
ObjectDBX Classes
 90
1153
 91
0
280
0
281
0
  0
CLASS
  1
SCALE
  2
AcDbScale
  3
ObjectDBX Classes
 90
1153
 91
0
280
0
281
0
  0
CLASS
  1
TABLESTYLE
  2
AcDbTableStyle
  3
ObjectDBX Classes
 90
4095
 91
0
280
0
281
0
  0
CLASS
  1
MLEADERSTYLE
  2
AcDbMLeaderStyle
  3
ACDB_MLEADERSTYLE_CLASS
 90
4095
 91
0
280
0
281
0
  0
CLASS
  1
DICTIONARYVAR
  2
AcDbDictionaryVar
  3
ObjectDBX Classes
 90
0
 91
0
280
0
281
0
  0
CLASS
  1
CELLSTYLEMAP
  2
AcDbCellStyleMap
  3
ObjectDBX Classes
 90
1152
 91
0
280
0
281
0
  0
CLASS
  1
MENTALRAYRENDERSETTINGS
  2
AcDbMentalRayRenderSettings
  3
SCENEOE
 90
1024
 91
0
280
0
281
0
  0
CLASS
  1
ACDBDETAILVIEWSTYLE
  2
AcDbDetailViewStyle
  3
ObjectDBX Classes
 90
1025
 91
0
280
0
281
0
  0
CLASS
  1
ACDBSECTIONVIEWSTYLE
  2
AcDbSectionViewStyle
  3
ObjectDBX Classes
 90
1025
 91
0
280
0
281
0
  0
CLASS
  1
RASTERVARIABLES
  2
AcDbRasterVariables
  3
ISM
 90
0
 91
0
280
0
281
0
  0
CLASS
  1
LAYOUT
  2
AcDbLayout
  3
ObjectDBX Classes
 90
0
 91
0
280
0
281
0
  0
CLASS
  1
ACDBPLACEHOLDER
  2
AcDbPlaceHolder
  3
ObjectDBX Classes
 90
0
 91
0
280
0
281
0
  0
ENDSEC
  0
SECTION
  2
TABLES
  0
TABLE
  2
VPORT
  5
8
330
0
100
AcDbSymbolTable
 70
1
  0
VPORT
  5
23
330
8
100
AcDbSymbolTableRecord
100
AcDbViewportTableRecord
  2
*Active
 70
0
 10
0.0
 20
0.0
 11
1.0
 21
1.0
 12
0.0
 22
0.0
 13
0.0
 23
0.0
 14
0.5
 24
0.5
 15
0.5
 25
0.5
 16
0.0
 26
0.0
 36
1.0
 17
0.0
 27
0.0
 37
0.0
 40
1000.0
 41
1.34
 42
50.0
 43
0.0
 44
0.0
 50
0.0
 51
0.0
 71
0
 72
1000
 73
1
 74
3
 75
0
 76
0
 77
0
 78
0
281
0
 65
0
146
0.0
  0
ENDTAB
  0
TABLE
  2
LTYPE
  5
2
330
0
100
AcDbSymbolTable
 70
3
  0
LTYPE
  5
24
330
2
100
AcDbSymbolTableRecord
100
AcDbLinetypeTableRecord
  2
ByBlock
 70
0
  3

 72
65
 73
0
 40
0.0
  0
LTYPE
  5
25
330
2
100
AcDbSymbolTableRecord
100
AcDbLinetypeTableRecord
  2
ByLayer
 70
0
  3

 72
65
 73
0
 40
0.0
  0
LTYPE
  5
26
330
2
100
AcDbSymbolTableRecord
100
AcDbLinetypeTableRecord
  2
Continuous
 70
0
  3

 72
65
 73
0
 40
0.0
  0
ENDTAB
  0
TABLE
  2
LAYER
  5
1
330
0
100
AcDbSymbolTable
 70
4
  0
LAYER
  5
27
330
1
100
AcDbSymbolTableRecord
100
AcDbLayerTableRecord
  2
0
 70
0
 62
7
  6
Continuous
370
-3
390
13
347
21
  0
LAYER
  5
28
330
1
100
AcDbSymbolTableRecord
100
AcDbLayerTableRecord
  2
Defpoints
 70
0
 62
7
  6
Continuous
290
0
370
-3
390
13
347
21
  0
LAYER
  5
2F
330
1
100
AcDbSymbolTableRecord
100
AcDbLayerTableRecord
  2
CUT
 70
0
 62
3
  6
Continuous
370
-3
390
13
347
21
  0
LAYER
  5
30
330
1
100
AcDbSymbolTableRecord
100
AcDbLayerTableRecord
  2
BEND_LINES
 70
0
 62
1
  6
DASHED
370
-3
390
13
347
21
  0
ENDTAB
  0
TABLE
  2
STYLE
  5
5
330
0
100
AcDbSymbolTable
 70
1
  0
STYLE
  5
29
330
5
100
AcDbSymbolTableRecord
100
AcDbTextStyleTableRecord
  2
Standard
 70
0
 40
0.0
 41
1.0
 50
0.0
 71
0
 42
2.5
  3
txt
  4

  0
ENDTAB
  0
TABLE
  2
VIEW
  5
7
330
0
100
AcDbSymbolTable
 70
0
  0
ENDTAB
  0
TABLE
  2
UCS
  5
6
330
0
100
AcDbSymbolTable
 70
0
  0
ENDTAB
  0
TABLE
  2
APPID
  5
3
330
0
100
AcDbSymbolTable
 70
3
  0
APPID
  5
2A
330
3
100
AcDbSymbolTableRecord
100
AcDbRegAppTableRecord
  2
ACAD
 70
0
  0
APPID
  5
58
330
3
100
AcDbSymbolTableRecord
100
AcDbRegAppTableRecord
  2
HATCHBACKGROUNDCOLOR
 70
0
  0
APPID
  5
59
330
3
100
AcDbSymbolTableRecord
100
AcDbRegAppTableRecord
  2
EZDXF
 70
0
  0
ENDTAB
  0
TABLE
  2
DIMSTYLE
  5
4
330
0
100
AcDbSymbolTable
 70
1
100
AcDbDimStyleTable
  0
DIMSTYLE
105
2B
330
4
100
AcDbSymbolTableRecord
100
AcDbDimStyleTableRecord
  2
Standard
 70
0
 40
1.0
 41
2.5
 42
0.625
 43
3.75
 44
1.25
 45
0.0
 46
0.0
 47
0.0
 48
0.0
 49
2.5
140
2.5
141
2.5
142
0.0
143
0.03937007874
144
1.0
145
0.0
146
1.0
147
0.625
148
0.0
 69
0
 70
0
 71
0
 72
0
 73
0
 74
0
 75
0
 76
0
 77
1
 78
8
 79
3
170
0
171
3
172
1
173
0
174
0
175
0
176
0
177
0
178
0
179
2
271
2
272
2
273
2
274
3
275
0
276
0
277
2
278
44
279
0
280
0
281
0
282
0
283
0
284
8
285
0
286
0
288
0
289
3
290
0
371
-2
372
-2
  0
ENDTAB
  0
TABLE
  2
BLOCK_RECORD
  5
9
330
0
100
AcDbSymbolTable
 70
2
  0
BLOCK_RECORD
  5
17
330
9
100
AcDbSymbolTableRecord
100
AcDbBlockTableRecord
  2
*Model_Space
340
1A
 70
0
280
1
281
0
  0
BLOCK_RECORD
  5
1B
330
9
100
AcDbSymbolTableRecord
100
AcDbBlockTableRecord
  2
*Paper_Space
340
1E
 70
0
280
1
281
0
  0
ENDTAB
  0
ENDSEC
  0
SECTION
  2
BLOCKS
  0
BLOCK
  5
18
330
17
100
AcDbEntity
  8
0
100
AcDbBlockBegin
  2
*Model_Space
 70
0
 10
0.0
 20
0.0
 30
0.0
  3
*Model_Space
  1

  0
ENDBLK
  5
19
330
17
100
AcDbEntity
  8
0
100
AcDbBlockEnd
  0
BLOCK
  5
1C
330
1B
100
AcDbEntity
  8
0
100
AcDbBlockBegin
  2
*Paper_Space
 70
0
 10
0.0
 20
0.0
 30
0.0
  3
*Paper_Space
  1

  0
ENDBLK
  5
1D
330
1B
100
AcDbEntity
  8
0
100
AcDbBlockEnd
  0
ENDSEC
  0
SECTION
  2
ENTITIES
  0
LWPOLYLINE
  5
31
330
17
100
AcDbEntity
  8
CUT
100
AcDbPolyline
 90
73
 70
0
 10
343.259
 20
144.009
 10
343.51
 20
143.934
 10
343.756
 20
143.847
 10
343.998
 20
143.747
 10
344.235
 20
143.634
 10
344.465
 20
143.509
 10
344.688
 20
143.372
 10
344.904
 20
143.224
 10
345.111
 20
143.065
 10
345.31
 20
142.895
 10
345.5
 20
142.714
 10
345.68
 20
142.525
 10
345.85
 20
142.326
 10
346.01
 20
142.118
 10
346.158
 20
141.902
 10
346.295
 20
141.679
 10
346.42
 20
141.449
 10
346.532
 20
141.213
 10
346.633
 20
140.971
 10
346.72
 20
140.724
 10
346.794
 20
140.473
 10
346.855
 20
140.219
 10
346.903
 20
139.961
 10
346.937
 20
139.702
 10
346.958
 20
139.441
 10
346.965
 20
139.179
 10
346.965
 20
-123.321
 10
306.462
 20
-163.823
 10
282.726
 20
-169.321
 10
247.721
 20
-169.321
 10
223.985
 20
-163.823
 10
183.482
 20
-123.321
 10
183.482
 20
139.179
 10
183.489
 20
139.441
 10
183.51
 20
139.702
 10
183.544
 20
139.961
 10
183.592
 20
140.219
 10
183.653
 20
140.473
 10
183.727
 20
140.724
 10
183.814
 20
140.971
 10
183.915
 20
141.213
 10
184.027
 20
141.449
 10
184.152
 20
141.679
 10
184.289
 20
141.902
 10
184.437
 20
142.118
 10
184.597
 20
142.326
 10
184.767
 20
142.525
 10
184.947
 20
142.714
 10
185.137
 20
142.895
 10
185.336
 20
143.065
 10
185.543
 20
143.224
 10
185.759
 20
143.372
 10
185.982
 20
143.509
 10
186.212
 20
143.634
 10
186.449
 20
143.747
 10
186.69
 20
143.847
 10
186.937
 20
143.934
 10
187.188
 20
144.009
 10
187.443
 20
144.07
 10
187.7
 20
144.117
 10
187.96
 20
144.152
 10
188.221
 20
144.172
 10
188.482
 20
144.179
 10
223.985
 20
144.179
 10
247.721
 20
144.179
 10
282.726
 20
144.179
 10
306.462
 20
144.179
 10
341.965
 20
144.179
 10
342.226
 20
144.172
 10
342.487
 20
144.152
 10
342.747
 20
144.117
 10
343.004
 20
144.07
 10
343.259
 20
144.009
  0
LWPOLYLINE
  5
32
330
17
100
AcDbEntity
  8
CUT
100
AcDbPolyline
 90
31
 70
0
 10
270.723
 20
129.179
 10
270.603
 20
130.322
 10
270.248
 20
131.416
 10
269.673
 20
132.412
 10
268.904
 20
133.266
 10
267.973
 20
133.942
 10
266.923
 20
134.41
 10
265.798
 20
134.649
 10
264.649
 20
134.649
 10
263.524
 20
134.41
 10
262.473
 20
133.942
 10
261.543
 20
133.266
 10
260.774
 20
132.412
 10
260.199
 20
131.416
 10
259.844
 20
130.322
 10
259.723
 20
129.179
 10
259.844
 20
128.035
 10
260.199
 20
126.942
 10
260.774
 20
125.946
 10
261.543
 20
125.092
 10
262.473
 20
124.416
 10
263.524
 20
123.948
 10
264.649
 20
123.709
 10
265.798
 20
123.709
 10
266.923
 20
123.948
 10
267.973
 20
124.416
 10
268.904
 20
125.092
 10
269.673
 20
125.946
 10
270.248
 20
126.942
 10
270.603
 20
128.035
 10
270.723
 20
129.179
  0
LWPOLYLINE
  5
33
330
17
100
AcDbEntity
  8
CUT
100
AcDbPolyline
 90
31
 70
0
 10
270.603
 20
68.035
 10
270.723
 20
69.179
 10
270.603
 20
70.322
 10
270.248
 20
71.416
 10
269.673
 20
72.412
 10
268.904
 20
73.266
 10
267.973
 20
73.942
 10
266.923
 20
74.41
 10
265.798
 20
74.649
 10
264.649
 20
74.649
 10
263.524
 20
74.41
 10
262.473
 20
73.942
 10
261.543
 20
73.266
 10
260.774
 20
72.412
 10
260.199
 20
71.416
 10
259.844
 20
70.322
 10
259.723
 20
69.179
 10
259.844
 20
68.035
 10
260.199
 20
66.942
 10
260.774
 20
65.946
 10
261.543
 20
65.092
 10
262.473
 20
64.416
 10
263.524
 20
63.948
 10
264.649
 20
63.709
 10
265.798
 20
63.709
 10
266.923
 20
63.948
 10
267.973
 20
64.416
 10
268.904
 20
65.092
 10
269.673
 20
65.946
 10
270.248
 20
66.942
 10
270.603
 20
68.035
  0
LWPOLYLINE
  5
34
330
17
100
AcDbEntity
  8
CUT
100
AcDbPolyline
 90
31
 70
0
 10
270.248
 20
-65.058
 10
270.603
 20
-63.965
 10
270.723
 20
-62.821
 10
270.603
 20
-61.678
 10
270.248
 20
-60.584
 10
269.673
 20
-59.588
 10
268.904
 20
-58.734
 10
267.973
 20
-58.058
 10
266.923
 20
-57.59
 10
265.798
 20
-57.351
 10
264.649
 20
-57.351
 10
263.524
 20
-57.59
 10
262.473
 20
-58.058
 10
261.543
 20
-58.734
 10
260.774
 20
-59.588
 10
260.199
 20
-60.584
 10
259.844
 20
-61.678
 10
259.723
 20
-62.821
 10
259.844
 20
-63.965
 10
260.199
 20
-65.058
 10
260.774
 20
-66.054
 10
261.543
 20
-66.908
 10
262.473
 20
-67.584
 10
263.524
 20
-68.052
 10
264.649
 20
-68.291
 10
265.798
 20
-68.291
 10
266.923
 20
-68.052
 10
267.973
 20
-67.584
 10
268.904
 20
-66.908
 10
269.673
 20
-66.054
 10
270.248
 20
-65.058
  0
LWPOLYLINE
  5
35
330
17
100
AcDbEntity
  8
CUT
100
AcDbPolyline
 90
31
 70
0
 10
269.673
 20
-141.054
 10
270.248
 20
-140.058
 10
270.603
 20
-138.965
 10
270.723
 20
-137.821
 10
270.603
 20
-136.678
 10
270.248
 20
-135.584
 10
269.673
 20
-134.588
 10
268.904
 20
-133.734
 10
267.973
 20
-133.058
 10
266.923
 20
-132.59
 10
265.798
 20
-132.351
 10
264.649
 20
-132.351
 10
263.524
 20
-132.59
 10
262.473
 20
-133.058
 10
261.543
 20
-133.734
 10
260.774
 20
-134.588
 10
260.199
 20
-135.584
 10
259.844
 20
-136.678
 10
259.723
 20
-137.821
 10
259.844
 20
-138.965
 10
260.199
 20
-140.058
 10
260.774
 20
-141.054
 10
261.543
 20
-141.908
 10
262.473
 20
-142.584
 10
263.524
 20
-143.052
 10
264.649
 20
-143.291
 10
265.798
 20
-143.291
 10
266.923
 20
-143.052
 10
267.973
 20
-142.584
 10
268.904
 20
-141.908
 10
269.673
 20
-141.054
  0
LWPOLYLINE
  5
36
330
17
100
AcDbEntity
  8
CUT
100
AcDbPolyline
 90
73
 70
0
 10
367.026
 20
139.961
 10
367.074
 20
140.219
 10
367.135
 20
140.473
 10
367.209
 20
140.724
 10
367.297
 20
140.971
 10
367.397
 20
141.213
 10
367.51
 20
141.449
 10
367.634
 20
141.679
 10
367.771
 20
141.902
 10
367.92
 20
142.118
 10
368.079
 20
142.326
 10
368.249
 20
142.525
 10
368.429
 20
142.714
 10
368.619
 20
142.895
 10
368.818
 20
143.065
 10
369.026
 20
143.224
 10
369.241
 20
143.372
 10
369.465
 20
143.509
 10
369.695
 20
143.634
 10
369.931
 20
143.747
 10
370.173
 20
143.847
 10
370.42
 20
143.934
 10
370.671
 20
144.009
 10
370.925
 20
144.07
 10
371.182
 20
144.117
 10
371.442
 20
144.152
 10
371.703
 20
144.172
 10
371.965
 20
144.179
 10
407.467
 20
144.179
 10
423.491
 20
144.179
 10
458.496
 20
144.179
 10
474.52
 20
144.179
 10
510.022
 20
144.179
 10
510.284
 20
144.172
 10
510.545
 20
144.152
 10
510.804
 20
144.117
 10
511.062
 20
144.07
 10
511.316
 20
144.009
 10
511.567
 20
143.934
 10
511.814
 20
143.847
 10
512.056
 20
143.747
 10
512.292
 20
143.634
 10
512.522
 20
143.509
 10
512.745
 20
143.372
 10
512.961
 20
143.224
 10
513.169
 20
143.065
 10
513.368
 20
142.895
 10
513.558
 20
142.714
 10
513.738
 20
142.525
 10
513.908
 20
142.326
 10
514.067
 20
142.118
 10
514.215
 20
141.902
 10
514.352
 20
141.679
 10
514.477
 20
141.449
 10
514.59
 20
141.213
 10
514.69
 20
140.971
 10
514.777
 20
140.724
 10
514.852
 20
140.473
 10
514.913
 20
140.219
 10
514.961
 20
139.961
 10
514.995
 20
139.702
 10
515.015
 20
139.441
 10
515.022
 20
139.179
 10
515.022
 20
-123.321
 10
474.52
 20
-163.823
 10
458.496
 20
-169.321
 10
423.491
 20
-169.321
 10
407.467
 20
-163.823
 10
366.965
 20
-123.321
 10
366.965
 20
139.179
 10
366.971
 20
139.441
 10
366.992
 20
139.702
 10
367.026
 20
139.961
  0
LWPOLYLINE
  5
37
330
17
100
AcDbEntity
  8
CUT
100
AcDbPolyline
 90
31
 70
0
 10
446.493
 20
129.179
 10
446.373
 20
130.322
 10
446.018
 20
131.416
 10
445.443
 20
132.412
 10
444.674
 20
133.266
 10
443.743
 20
133.942
 10
442.693
 20
134.41
 10
441.568
 20
134.649
 10
440.418
 20
134.649
 10
439.294
 20
134.41
 10
438.243
 20
133.942
 10
437.313
 20
133.266
 10
436.544
 20
132.412
 10
435.969
 20
131.416
 10
435.614
 20
130.322
 10
435.493
 20
129.179
 10
435.614
 20
128.035
 10
435.969
 20
126.942
 10
436.544
 20
125.946
 10
437.313
 20
125.092
 10
438.243
 20
124.416
 10
439.294
 20
123.948
 10
440.418
 20
123.709
 10
441.568
 20
123.709
 10
442.693
 20
123.948
 10
443.743
 20
124.416
 10
444.674
 20
125.092
 10
445.443
 20
125.946
 10
446.018
 20
126.942
 10
446.373
 20
128.035
 10
446.493
 20
129.179
  0
LWPOLYLINE
  5
38
330
17
100
AcDbEntity
  8
CUT
100
AcDbPolyline
 90
31
 70
0
 10
446.373
 20
68.035
 10
446.493
 20
69.179
 10
446.373
 20
70.322
 10
446.018
 20
71.416
 10
445.443
 20
72.412
 10
444.674
 20
73.266
 10
443.743
 20
73.942
 10
442.693
 20
74.41
 10
441.568
 20
74.649
 10
440.418
 20
74.649
 10
439.294
 20
74.41
 10
438.243
 20
73.942
 10
437.313
 20
73.266
 10
436.544
 20
72.412
 10
435.969
 20
71.416
 10
435.614
 20
70.322
 10
435.493
 20
69.179
 10
435.614
 20
68.035
 10
435.969
 20
66.942
 10
436.544
 20
65.946
 10
437.313
 20
65.092
 10
438.243
 20
64.416
 10
439.294
 20
63.948
 10
440.418
 20
63.709
 10
441.568
 20
63.709
 10
442.693
 20
63.948
 10
443.743
 20
64.416
 10
444.674
 20
65.092
 10
445.443
 20
65.946
 10
446.018
 20
66.942
 10
446.373
 20
68.035
  0
LWPOLYLINE
  5
39
330
17
100
AcDbEntity
  8
CUT
100
AcDbPolyline
 90
31
 70
0
 10
446.018
 20
-65.058
 10
446.373
 20
-63.965
 10
446.493
 20
-62.821
 10
446.373
 20
-61.678
 10
446.018
 20
-60.584
 10
445.443
 20
-59.588
 10
444.674
 20
-58.734
 10
443.743
 20
-58.058
 10
442.693
 20
-57.59
 10
441.568
 20
-57.351
 10
440.418
 20
-57.351
 10
439.294
 20
-57.59
 10
438.243
 20
-58.058
 10
437.313
 20
-58.734
 10
436.544
 20
-59.588
 10
435.969
 20
-60.584
 10
435.614
 20
-61.678
 10
435.493
 20
-62.821
 10
435.614
 20
-63.965
 10
435.969
 20
-65.058
 10
436.544
 20
-66.054
 10
437.313
 20
-66.908
 10
438.243
 20
-67.584
 10
439.294
 20
-68.052
 10
440.418
 20
-68.291
 10
441.568
 20
-68.291
 10
442.693
 20
-68.052
 10
443.743
 20
-67.584
 10
444.674
 20
-66.908
 10
445.443
 20
-66.054
 10
446.018
 20
-65.058
  0
LWPOLYLINE
  5
3A
330
17
100
AcDbEntity
  8
CUT
100
AcDbPolyline
 90
31
 70
0
 10
445.443
 20
-141.054
 10
446.018
 20
-140.058
 10
446.373
 20
-138.965
 10
446.493
 20
-137.821
 10
446.373
 20
-136.678
 10
446.018
 20
-135.584
 10
445.443
 20
-134.588
 10
444.674
 20
-133.734
 10
443.743
 20
-133.058
 10
442.693
 20
-132.59
 10
441.568
 20
-132.351
 10
440.418
 20
-132.351
 10
439.294
 20
-132.59
 10
438.243
 20
-133.058
 10
437.313
 20
-133.734
 10
436.544
 20
-134.588
 10
435.969
 20
-135.584
 10
435.614
 20
-136.678
 10
435.493
 20
-137.821
 10
435.614
 20
-138.965
 10
435.969
 20
-140.058
 10
436.544
 20
-141.054
 10
437.313
 20
-141.908
 10
438.243
 20
-142.584
 10
439.294
 20
-143.052
 10
440.418
 20
-143.291
 10
441.568
 20
-143.291
 10
442.693
 20
-143.052
 10
443.743
 20
-142.584
 10
444.674
 20
-141.908
 10
445.443
 20
-141.054
  0
LWPOLYLINE
  5
3B
330
17
100
AcDbEntity
  8
CUT
100
AcDbPolyline
 90
73
 70
0
 10
694.544
 20
144.07
 10
694.799
 20
144.009
 10
695.05
 20
143.934
 10
695.296
 20
143.847
 10
695.538
 20
143.747
 10
695.774
 20
143.634
 10
696.004
 20
143.509
 10
696.228
 20
143.372
 10
696.443
 20
143.224
 10
696.651
 20
143.065
 10
696.85
 20
142.895
 10
697.04
 20
142.714
 10
697.22
 20
142.525
 10
697.39
 20
142.326
 10
697.55
 20
142.118
 10
697.698
 20
141.902
 10
697.835
 20
141.679
 10
697.959
 20
141.449
 10
698.072
 20
141.213
 10
698.172
 20
140.971
 10
698.26
 20
140.724
 10
698.334
 20
140.473
 10
698.395
 20
140.219
 10
698.443
 20
139.961
 10
698.477
 20
139.702
 10
698.498
 20
139.441
 10
698.504
 20
139.179
 10
698.504
 20
-123.321
 10
658.002
 20
-163.823
 10
634.265
 20
-169.321
 10
599.261
 20
-169.321
 10
575.524
 20
-163.823
 10
535.022
 20
-123.321
 10
535.022
 20
139.179
 10
535.029
 20
139.441
 10
535.05
 20
139.702
 10
535.084
 20
139.961
 10
535.131
 20
140.219
 10
535.192
 20
140.473
 10
535.267
 20
140.724
 10
535.354
 20
140.971
 10
535.454
 20
141.213
 10
535.567
 20
141.449
 10
535.692
 20
141.679
 10
535.829
 20
141.902
 10
535.977
 20
142.118
 10
536.136
 20
142.326
 10
536.306
 20
142.525
 10
536.487
 20
142.714
 10
536.676
 20
142.895
 10
536.876
 20
143.065
 10
537.083
 20
143.224
 10
537.299
 20
143.372
 10
537.522
 20
143.509
 10
537.752
 20
143.634
 10
537.988
 20
143.747
 10
538.23
 20
143.847
 10
538.477
 20
143.934
 10
538.728
 20
144.009
 10
538.983
 20
144.07
 10
539.24
 20
144.117
 10
539.499
 20
144.152
 10
539.76
 20
144.172
 10
540.022
 20
144.179
 10
575.524
 20
144.179
 10
599.261
 20
144.179
 10
634.265
 20
144.179
 10
658.002
 20
144.179
 10
693.504
 20
144.179
 10
693.766
 20
144.172
 10
694.027
 20
144.152
 10
694.287
 20
144.117
 10
694.544
 20
144.07
  0
LWPOLYLINE
  5
3C
330
17
100
AcDbEntity
  8
CUT
100
AcDbPolyline
 90
31
 70
0
 10
622.143
 20
128.035
 10
622.263
 20
129.179
 10
622.143
 20
130.322
 10
621.788
 20
131.416
 10
621.213
 20
132.412
 10
620.443
 20
133.266
 10
619.513
 20
133.942
 10
618.463
 20
134.41
 10
617.338
 20
134.649
 10
616.188
 20
134.649
 10
615.064
 20
134.41
 10
614.013
 20
133.942
 10
613.083
 20
133.266
 10
612.314
 20
132.412
 10
611.739
 20
131.416
 10
611.383
 20
130.322
 10
611.263
 20
129.179
 10
611.383
 20
128.035
 10
611.739
 20
126.942
 10
612.314
 20
125.946
 10
613.083
 20
125.092
 10
614.013
 20
124.416
 10
615.064
 20
123.948
 10
616.188
 20
123.709
 10
617.338
 20
123.709
 10
618.463
 20
123.948
 10
619.513
 20
124.416
 10
620.443
 20
125.092
 10
621.213
 20
125.946
 10
621.788
 20
126.942
 10
622.143
 20
128.035
  0
LWPOLYLINE
  5
3D
330
17
100
AcDbEntity
  8
CUT
100
AcDbPolyline
 90
31
 70
0
 10
621.788
 20
66.942
 10
622.143
 20
68.035
 10
622.263
 20
69.179
 10
622.143
 20
70.322
 10
621.788
 20
71.416
 10
621.213
 20
72.412
 10
620.443
 20
73.266
 10
619.513
 20
73.942
 10
618.463
 20
74.41
 10
617.338
 20
74.649
 10
616.188
 20
74.649
 10
615.064
 20
74.41
 10
614.013
 20
73.942
 10
613.083
 20
73.266
 10
612.314
 20
72.412
 10
611.739
 20
71.416
 10
611.383
 20
70.322
 10
611.263
 20
69.179
 10
611.383
 20
68.035
 10
611.739
 20
66.942
 10
612.314
 20
65.946
 10
613.083
 20
65.092
 10
614.013
 20
64.416
 10
615.064
 20
63.948
 10
616.188
 20
63.709
 10
617.338
 20
63.709
 10
618.463
 20
63.948
 10
619.513
 20
64.416
 10
620.443
 20
65.092
 10
621.213
 20
65.946
 10
621.788
 20
66.942
  0
LWPOLYLINE
  5
3E
330
17
100
AcDbEntity
  8
CUT
100
AcDbPolyline
 90
31
 70
0
 10
621.213
 20
-66.054
 10
621.788
 20
-65.058
 10
622.143
 20
-63.965
 10
622.263
 20
-62.821
 10
622.143
 20
-61.678
 10
621.788
 20
-60.584
 10
621.213
 20
-59.588
 10
620.443
 20
-58.734
 10
619.513
 20
-58.058
 10
618.463
 20
-57.59
 10
617.338
 20
-57.351
 10
616.188
 20
-57.351
 10
615.064
 20
-57.59
 10
614.013
 20
-58.058
 10
613.083
 20
-58.734
 10
612.314
 20
-59.588
 10
611.739
 20
-60.584
 10
611.383
 20
-61.678
 10
611.263
 20
-62.821
 10
611.383
 20
-63.965
 10
611.739
 20
-65.058
 10
612.314
 20
-66.054
 10
613.083
 20
-66.908
 10
614.013
 20
-67.584
 10
615.064
 20
-68.052
 10
616.188
 20
-68.291
 10
617.338
 20
-68.291
 10
618.463
 20
-68.052
 10
619.513
 20
-67.584
 10
620.443
 20
-66.908
 10
621.213
 20
-66.054
  0
LWPOLYLINE
  5
3F
330
17
100
AcDbEntity
  8
CUT
100
AcDbPolyline
 90
31
 70
0
 10
620.443
 20
-141.908
 10
621.213
 20
-141.054
 10
621.788
 20
-140.058
 10
622.143
 20
-138.965
 10
622.263
 20
-137.821
 10
622.143
 20
-136.678
 10
621.788
 20
-135.584
 10
621.213
 20
-134.588
 10
620.443
 20
-133.734
 10
619.513
 20
-133.058
 10
618.463
 20
-132.59
 10
617.338
 20
-132.351
 10
616.188
 20
-132.351
 10
615.064
 20
-132.59
 10
614.013
 20
-133.058
 10
613.083
 20
-133.734
 10
612.314
 20
-134.588
 10
611.739
 20
-135.584
 10
611.383
 20
-136.678
 10
611.263
 20
-137.821
 10
611.383
 20
-138.965
 10
611.739
 20
-140.058
 10
612.314
 20
-141.054
 10
613.083
 20
-141.908
 10
614.013
 20
-142.584
 10
615.064
 20
-143.052
 10
616.188
 20
-143.291
 10
617.338
 20
-143.291
 10
618.463
 20
-143.052
 10
619.513
 20
-142.584
 10
620.443
 20
-141.908
  0
LWPOLYLINE
  5
40
330
17
100
AcDbEntity
  8
CUT
100
AcDbPolyline
 90
73
 70
0
 10
718.749
 20
140.724
 10
718.837
 20
140.971
 10
718.937
 20
141.213
 10
719.049
 20
141.449
 10
719.174
 20
141.679
 10
719.311
 20
141.902
 10
719.459
 20
142.118
 10
719.619
 20
142.326
 10
719.789
 20
142.525
 10
719.969
 20
142.714
 10
720.159
 20
142.895
 10
720.358
 20
143.065
 10
720.565
 20
143.224
 10
720.781
 20
143.372
 10
721.004
 20
143.509
 10
721.234
 20
143.634
 10
721.471
 20
143.747
 10
721.713
 20
143.847
 10
721.959
 20
143.934
 10
722.21
 20
144.009
 10
722.465
 20
144.07
 10
722.722
 20
144.117
 10
722.982
 20
144.152
 10
723.243
 20
144.172
 10
723.504
 20
144.179
 10
759.007
 20
144.179
 10
775.031
 20
144.179
 10
810.035
 20
144.179
 10
826.06
 20
144.179
 10
861.562
 20
144.179
 10
861.824
 20
144.172
 10
862.085
 20
144.152
 10
862.344
 20
144.117
 10
862.602
 20
144.07
 10
862.856
 20
144.009
 10
863.107
 20
143.934
 10
863.354
 20
143.847
 10
863.596
 20
143.747
 10
863.832
 20
143.634
 10
864.062
 20
143.509
 10
864.285
 20
143.372
 10
864.501
 20
143.224
 10
864.709
 20
143.065
 10
864.908
 20
142.895
 10
865.097
 20
142.714
 10
865.278
 20
142.525
 10
865.448
 20
142.326
 10
865.607
 20
142.118
 10
865.755
 20
141.902
 10
865.892
 20
141.679
 10
866.017
 20
141.449
 10
866.13
 20
141.213
 10
866.23
 20
140.971
 10
866.317
 20
140.724
 10
866.392
 20
140.473
 10
866.453
 20
140.219
 10
866.5
 20
139.961
 10
866.535
 20
139.702
 10
866.555
 20
139.441
 10
866.562
 20
139.179
 10
866.562
 20
-123.321
 10
826.06
 20
-163.823
 10
810.035
 20
-169.321
 10
775.031
 20
-169.321
 10
759.007
 20
-163.823
 10
718.504
 20
-123.321
 10
718.504
 20
139.179
 10
718.511
 20
139.441
 10
718.532
 20
139.702
 10
718.566
 20
139.961
 10
718.614
 20
140.219
 10
718.675
 20
140.473
 10
718.749
 20
140.724
  0
LWPOLYLINE
  5
41
330
17
100
AcDbEntity
  8
CUT
100
AcDbPolyline
 90
31
 70
0
 10
798.033
 20
129.179
 10
797.913
 20
130.322
 10
797.558
 20
131.416
 10
796.983
 20
132.412
 10
796.213
 20
133.266
 10
795.283
 20
133.942
 10
794.233
 20
134.41
 10
793.108
 20
134.649
 10
791.958
 20
134.649
 10
790.834
 20
134.41
 10
789.783
 20
133.942
 10
788.853
 20
133.266
 10
788.084
 20
132.412
 10
787.509
 20
131.416
 10
787.153
 20
130.322
 10
787.033
 20
129.179
 10
787.153
 20
128.035
 10
787.509
 20
126.942
 10
788.084
 20
125.946
 10
788.853
 20
125.092
 10
789.783
 20
124.416
 10
790.834
 20
123.948
 10
791.958
 20
123.709
 10
793.108
 20
123.709
 10
794.233
 20
123.948
 10
795.283
 20
124.416
 10
796.213
 20
125.092
 10
796.983
 20
125.946
 10
797.558
 20
126.942
 10
797.913
 20
128.035
 10
798.033
 20
129.179
  0
LWPOLYLINE
  5
42
330
17
100
AcDbEntity
  8
CUT
100
AcDbPolyline
 90
31
 70
0
 10
797.913
 20
68.035
 10
798.033
 20
69.179
 10
797.913
 20
70.322
 10
797.558
 20
71.416
 10
796.983
 20
72.412
 10
796.213
 20
73.266
 10
795.283
 20
73.942
 10
794.233
 20
74.41
 10
793.108
 20
74.649
 10
791.958
 20
74.649
 10
790.834
 20
74.41
 10
789.783
 20
73.942
 10
788.853
 20
73.266
 10
788.084
 20
72.412
 10
787.509
 20
71.416
 10
787.153
 20
70.322
 10
787.033
 20
69.179
 10
787.153
 20
68.035
 10
787.509
 20
66.942
 10
788.084
 20
65.946
 10
788.853
 20
65.092
 10
789.783
 20
64.416
 10
790.834
 20
63.948
 10
791.958
 20
63.709
 10
793.108
 20
63.709
 10
794.233
 20
63.948
 10
795.283
 20
64.416
 10
796.213
 20
65.092
 10
796.983
 20
65.946
 10
797.558
 20
66.942
 10
797.913
 20
68.035
  0
LWPOLYLINE
  5
43
330
17
100
AcDbEntity
  8
CUT
100
AcDbPolyline
 90
31
 70
0
 10
797.558
 20
-65.058
 10
797.913
 20
-63.965
 10
798.033
 20
-62.821
 10
797.913
 20
-61.678
 10
797.558
 20
-60.584
 10
796.983
 20
-59.588
 10
796.213
 20
-58.734
 10
795.283
 20
-58.058
 10
794.233
 20
-57.59
 10
793.108
 20
-57.351
 10
791.958
 20
-57.351
 10
790.834
 20
-57.59
 10
789.783
 20
-58.058
 10
788.853
 20
-58.734
 10
788.084
 20
-59.588
 10
787.509
 20
-60.584
 10
787.153
 20
-61.678
 10
787.033
 20
-62.821
 10
787.153
 20
-63.965
 10
787.509
 20
-65.058
 10
788.084
 20
-66.054
 10
788.853
 20
-66.908
 10
789.783
 20
-67.584
 10
790.834
 20
-68.052
 10
791.958
 20
-68.291
 10
793.108
 20
-68.291
 10
794.233
 20
-68.052
 10
795.283
 20
-67.584
 10
796.213
 20
-66.908
 10
796.983
 20
-66.054
 10
797.558
 20
-65.058
  0
LWPOLYLINE
  5
44
330
17
100
AcDbEntity
  8
CUT
100
AcDbPolyline
 90
31
 70
0
 10
796.983
 20
-141.054
 10
797.558
 20
-140.058
 10
797.913
 20
-138.965
 10
798.033
 20
-137.821
 10
797.913
 20
-136.678
 10
797.558
 20
-135.584
 10
796.983
 20
-134.588
 10
796.213
 20
-133.734
 10
795.283
 20
-133.058
 10
794.233
 20
-132.59
 10
793.108
 20
-132.351
 10
791.958
 20
-132.351
 10
790.834
 20
-132.59
 10
789.783
 20
-133.058
 10
788.853
 20
-133.734
 10
788.084
 20
-134.588
 10
787.509
 20
-135.584
 10
787.153
 20
-136.678
 10
787.033
 20
-137.821
 10
787.153
 20
-138.965
 10
787.509
 20
-140.058
 10
788.084
 20
-141.054
 10
788.853
 20
-141.908
 10
789.783
 20
-142.584
 10
790.834
 20
-143.052
 10
791.958
 20
-143.291
 10
793.108
 20
-143.291
 10
794.233
 20
-143.052
 10
795.283
 20
-142.584
 10
796.213
 20
-141.908
 10
796.983
 20
-141.054
  0
LWPOLYLINE
  5
45
330
17
100
AcDbEntity
  8
CUT
100
AcDbPolyline
 90
13
 70
0
 10
-20.718
 20
-272.75
 10
-20.718
 20
272.75
 10
19.785
 20
313.252
 10
43.521
 20
318.75
 10
78.526
 20
318.75
 10
102.262
 20
313.252
 10
142.765
 20
272.75
 10
142.765
 20
-272.75
 10
102.262
 20
-313.252
 10
78.526
 20
-318.75
 10
43.521
 20
-318.75
 10
19.785
 20
-313.252
 10
-20.718
 20
-272.75
  0
LWPOLYLINE
  5
46
330
17
100
AcDbEntity
  8
CUT
100
AcDbPolyline
 90
63
 70
0
 10
63.261
 20
-75.262
 10
63.773
 20
-75.0
 10
64.256
 20
-74.687
 10
64.704
 20
-74.325
 10
65.111
 20
-73.917
 10
65.473
 20
-73.47
 10
65.787
 20
-72.987
 10
66.048
 20
-72.474
 10
66.254
 20
-71.937
 10
66.403
 20
-71.381
 10
66.493
 20
-70.812
 10
66.523
 20
-70.237
 10
66.523
 20
-65.781
 10
66.493
 20
-65.206
 10
66.403
 20
-64.638
 10
66.254
 20
-64.082
 10
66.048
 20
-63.544
 10
65.787
 20
-63.031
 10
65.473
 20
-62.548
 10
65.111
 20
-62.101
 10
64.704
 20
-61.694
 10
64.256
 20
-61.332
 10
63.773
 20
-61.018
 10
63.261
 20
-60.757
 10
62.723
 20
-60.55
 10
62.167
 20
-60.401
 10
61.598
 20
-60.311
 10
61.023
 20
-60.281
 10
60.449
 20
-60.311
 10
59.88
 20
-60.401
 10
59.324
 20
-60.55
 10
58.786
 20
-60.757
 10
58.273
 20
-61.018
 10
57.791
 20
-61.332
 10
57.343
 20
-61.694
 10
56.936
 20
-62.101
 10
56.574
 20
-62.548
 10
56.26
 20
-63.031
 10
55.999
 20
-63.544
 10
55.793
 20
-64.082
 10
55.644
 20
-64.638
 10
55.554
 20
-65.206
 10
55.523
 20
-65.781
 10
55.523
 20
-70.237
 10
55.554
 20
-70.812
 10
55.644
 20
-71.381
 10
55.793
 20
-71.937
 10
55.999
 20
-72.474
 10
56.26
 20
-72.987
 10
56.574
 20
-73.47
 10
56.936
 20
-73.917
 10
57.343
 20
-74.325
 10
57.791
 20
-74.687
 10
58.273
 20
-75.0
 10
58.786
 20
-75.262
 10
59.324
 20
-75.468
 10
59.88
 20
-75.617
 10
60.449
 20
-75.707
 10
61.023
 20
-75.737
 10
61.598
 20
-75.707
 10
62.167
 20
-75.617
 10
62.723
 20
-75.468
 10
63.261
 20
-75.262
  0
LWPOLYLINE
  5
47
330
17
100
AcDbEntity
  8
CUT
100
AcDbPolyline
 90
63
 70
0
 10
62.723
 20
60.532
 10
63.261
 20
60.738
 10
63.773
 20
61.0
 10
64.256
 20
61.313
 10
64.704
 20
61.675
 10
65.111
 20
62.083
 10
65.473
 20
62.53
 10
65.787
 20
63.013
 10
66.048
 20
63.526
 10
66.254
 20
64.063
 10
66.403
 20
64.619
 10
66.493
 20
65.188
 10
66.523
 20
65.763
 10
66.523
 20
70.219
 10
66.493
 20
70.794
 10
66.403
 20
71.362
 10
66.254
 20
71.918
 10
66.048
 20
72.456
 10
65.787
 20
72.969
 10
65.473
 20
73.452
 10
65.111
 20
73.899
 10
64.704
 20
74.306
 10
64.256
 20
74.668
 10
63.773
 20
74.982
 10
63.261
 20
75.243
 10
62.723
 20
75.45
 10
62.167
 20
75.599
 10
61.598
 20
75.689
 10
61.023
 20
75.719
 10
60.449
 20
75.689
 10
59.88
 20
75.599
 10
59.324
 20
75.45
 10
58.786
 20
75.243
 10
58.273
 20
74.982
 10
57.791
 20
74.668
 10
57.343
 20
74.306
 10
56.936
 20
73.899
 10
56.574
 20
73.452
 10
56.26
 20
72.969
 10
55.999
 20
72.456
 10
55.793
 20
71.918
 10
55.644
 20
71.362
 10
55.554
 20
70.794
 10
55.523
 20
70.219
 10
55.523
 20
65.763
 10
55.554
 20
65.188
 10
55.644
 20
64.619
 10
55.793
 20
64.063
 10
55.999
 20
63.526
 10
56.26
 20
63.013
 10
56.574
 20
62.53
 10
56.936
 20
62.083
 10
57.343
 20
61.675
 10
57.791
 20
61.313
 10
58.273
 20
61.0
 10
58.786
 20
60.738
 10
59.324
 20
60.532
 10
59.88
 20
60.383
 10
60.449
 20
60.293
 10
61.023
 20
60.263
 10
61.598
 20
60.293
 10
62.167
 20
60.383
 10
62.723
 20
60.532
  0
LWPOLYLINE
  5
48
330
17
100
AcDbEntity
  8
CUT
100
AcDbPolyline
 90
31
 70
0
 10
71.682
 20
-184.677
 10
70.703
 20
-183.59
 10
69.519
 20
-182.73
 10
68.182
 20
-182.135
 10
66.751
 20
-181.83
 10
65.287
 20
-181.83
 10
63.856
 20
-182.135
 10
62.519
 20
-182.73
 10
61.335
 20
-183.59
 10
60.356
 20
-184.677
 10
59.624
 20
-185.945
 10
59.172
 20
-187.337
 10
59.019
 20
-188.792
 10
59.172
 20
-190.247
 10
59.624
 20
-191.639
 10
60.356
 20
-192.906
 10
61.335
 20
-193.994
 10
62.519
 20
-194.854
 10
63.856
 20
-195.449
 10
65.287
 20
-195.754
 10
66.751
 20
-195.754
 10
68.182
 20
-195.449
 10
69.519
 20
-194.854
 10
70.703
 20
-193.994
 10
71.682
 20
-192.906
 10
72.414
 20
-191.639
 10
72.866
 20
-190.247
 10
73.019
 20
-188.792
 10
72.866
 20
-187.337
 10
72.414
 20
-185.945
 10
71.682
 20
-184.677
  0
LWPOLYLINE
  5
49
330
17
100
AcDbEntity
  8
CUT
100
AcDbPolyline
 90
31
 70
0
 10
72.476
 20
191.639
 10
71.744
 20
192.906
 10
70.765
 20
193.994
 10
69.581
 20
194.854
 10
68.244
 20
195.449
 10
66.813
 20
195.754
 10
65.35
 20
195.754
 10
63.918
 20
195.449
 10
62.581
 20
194.854
 10
61.397
 20
193.994
 10
60.418
 20
192.906
 10
59.686
 20
191.639
 10
59.234
 20
190.247
 10
59.081
 20
188.792
 10
59.234
 20
187.337
 10
59.686
 20
185.945
 10
60.418
 20
184.677
 10
61.397
 20
183.59
 10
62.581
 20
182.73
 10
63.918
 20
182.135
 10
65.35
 20
181.83
 10
66.813
 20
181.83
 10
68.244
 20
182.135
 10
69.581
 20
182.73
 10
70.765
 20
183.59
 10
71.744
 20
184.677
 10
72.476
 20
185.945
 10
72.928
 20
187.337
 10
73.081
 20
188.792
 10
72.928
 20
190.247
 10
72.476
 20
191.639
  0
LWPOLYLINE
  5
4A
330
17
100
AcDbEntity
  8
CUT
100
AcDbPolyline
 90
31
 70
0
 10
72.866
 20
-232.337
 10
72.414
 20
-230.945
 10
71.682
 20
-229.677
 10
70.703
 20
-228.59
 10
69.519
 20
-227.73
 10
68.182
 20
-227.135
 10
66.751
 20
-226.83
 10
65.287
 20
-226.83
 10
63.856
 20
-227.135
 10
62.519
 20
-227.73
 10
61.335
 20
-228.59
 10
60.356
 20
-229.677
 10
59.624
 20
-230.945
 10
59.172
 20
-232.337
 10
59.019
 20
-233.792
 10
59.172
 20
-235.247
 10
59.624
 20
-236.639
 10
60.356
 20
-237.906
 10
61.335
 20
-238.994
 10
62.519
 20
-239.854
 10
63.856
 20
-240.449
 10
65.287
 20
-240.754
 10
66.751
 20
-240.754
 10
68.182
 20
-240.449
 10
69.519
 20
-239.854
 10
70.703
 20
-238.994
 10
71.682
 20
-237.906
 10
72.414
 20
-236.639
 10
72.866
 20
-235.247
 10
73.019
 20
-233.792
 10
72.866
 20
-232.337
  0
LWPOLYLINE
  5
4B
330
17
100
AcDbEntity
  8
CUT
100
AcDbPolyline
 90
31
 70
0
 10
73.019
 20
233.792
 10
72.866
 20
235.247
 10
72.414
 20
236.639
 10
71.682
 20
237.906
 10
70.703
 20
238.994
 10
69.519
 20
239.854
 10
68.182
 20
240.449
 10
66.751
 20
240.754
 10
65.287
 20
240.754
 10
63.856
 20
240.449
 10
62.519
 20
239.854
 10
61.335
 20
238.994
 10
60.356
 20
237.906
 10
59.624
 20
236.639
 10
59.172
 20
235.247
 10
59.019
 20
233.792
 10
59.172
 20
232.337
 10
59.624
 20
230.945
 10
60.356
 20
229.677
 10
61.335
 20
228.59
 10
62.519
 20
227.73
 10
63.856
 20
227.135
 10
65.287
 20
226.83
 10
66.751
 20
226.83
 10
68.182
 20
227.135
 10
69.519
 20
227.73
 10
70.703
 20
228.59
 10
71.682
 20
229.677
 10
72.414
 20
230.945
 10
72.866
 20
232.337
 10
73.019
 20
233.792
  0
LINE
  5
4C
330
17
100
AcDbEntity
  8
BEND_LINES
  6
DASHED
100
AcDbLine
 10
27.402909155820232
 20
315.0165460287622
 30
0.0
 11
27.40290915582021
 21
309.0165460287622
 31
0.0
  0
LINE
  5
4D
330
17
100
AcDbEntity
  8
BEND_LINES
  6
DASHED
100
AcDbLine
 10
27.402909155818193
 20
-309.01654602876175
 30
0.0
 11
27.402909155818172
 21
-315.01654602876175
 31
0.0
  0
LINE
  5
4E
330
17
100
AcDbEntity
  8
BEND_LINES
  6
DASHED
100
AcDbLine
 10
86.14405923816757
 20
316.985419207472
 30
0.0
 11
86.14405923816756
 21
310.985419207472
 31
0.0
  0
LINE
  5
4F
330
17
100
AcDbEntity
  8
BEND_LINES
  6
DASHED
100
AcDbLine
 10
86.14405923816545
 20
-310.9854192074725
 30
0.0
 11
86.14405923816544
 21
-316.9854192074725
 31
0.0
  0
LINE
  5
50
330
17
100
AcDbEntity
  8
BEND_LINES
  6
DASHED
100
AcDbLine
 10
298.84402558821716
 20
-163.82326668546486
 30
0.0
 11
298.8440255882183
 21
144.17894617075416
 31
0.0
  0
LINE
  5
51
330
17
100
AcDbEntity
  8
BEND_LINES
  6
DASHED
100
AcDbLine
 10
240.10287550587321
 20
144.17894617075436
 30
0.0
 11
240.1028755058722
 21
-169.3210538292468
 31
0.0
  0
LINE
  5
52
330
17
100
AcDbEntity
  8
BEND_LINES
  6
DASHED
100
AcDbLine
 10
412.7289813803759
 20
-163.8232666854649
 30
0.0
 11
412.728981380375
 21
144.17894617075413
 31
0.0
  0
LINE
  5
53
330
17
100
AcDbEntity
  8
BEND_LINES
  6
DASHED
100
AcDbLine
 10
463.7577424823353
 20
144.17894617075427
 30
0.0
 11
463.7577424823363
 21
-169.32105382924524
 31
0.0
  0
LINE
  5
54
330
17
100
AcDbEntity
  8
BEND_LINES
  6
DASHED
100
AcDbLine
 10
650.3838483568352
 20
-163.82326668546477
 30
0.0
 11
650.3838483568369
 21
144.17894617075422
 31
0.0
  0
LINE
  5
55
330
17
100
AcDbEntity
  8
BEND_LINES
  6
DASHED
100
AcDbLine
 10
591.6426982744919
 20
144.1789461707545
 30
0.0
 11
591.6426982744902
 21
-169.32105382924667
 31
0.0
  0
LINE
  5
56
330
17
100
AcDbEntity
  8
BEND_LINES
  6
DASHED
100
AcDbLine
 10
764.2688041489951
 20
-163.82326668546477
 30
0.0
 11
764.2688041489932
 21
144.17894617075416
 31
0.0
  0
LINE
  5
57
330
17
100
AcDbEntity
  8
BEND_LINES
  6
DASHED
100
AcDbLine
 10
815.2975652509535
 20
144.1789461707544
 30
0.0
 11
815.2975652509554
 21
-169.3210538292452
 31
0.0
  0
ENDSEC
  0
SECTION
  2
OBJECTS
  0
DICTIONARY
  5
A
330
0
100
AcDbDictionary
281
1
  3
ACAD_COLOR
350
B
  3
ACAD_GROUP
350
C
  3
ACAD_LAYOUT
350
D
  3
ACAD_MATERIAL
350
E
  3
ACAD_MLEADERSTYLE
350
F
  3
ACAD_MLINESTYLE
350
10
  3
ACAD_PLOTSETTINGS
350
11
  3
ACAD_PLOTSTYLENAME
350
12
  3
ACAD_SCALELIST
350
14
  3
ACAD_TABLESTYLE
350
15
  3
ACAD_VISUALSTYLE
350
16
  3
EZDXF_META
350
2D
  0
DICTIONARY
  5
B
330
A
100
AcDbDictionary
281
1
  0
DICTIONARY
  5
C
330
A
100
AcDbDictionary
281
1
  0
DICTIONARY
  5
D
330
A
100
AcDbDictionary
281
1
  3
Model
350
1A
  3
Layout1
350
1E
  0
DICTIONARY
  5
E
330
A
100
AcDbDictionary
281
1
  3
ByBlock
350
1F
  3
ByLayer
350
20
  3
Global
350
21
  0
DICTIONARY
  5
F
330
A
100
AcDbDictionary
281
1
  3
Standard
350
2C
  0
DICTIONARY
  5
10
330
A
100
AcDbDictionary
281
1
  3
Standard
350
22
  0
DICTIONARY
  5
11
330
A
100
AcDbDictionary
281
1
  0
ACDBDICTIONARYWDFLT
  5
12
330
A
100
AcDbDictionary
281
1
  3
Normal
350
13
100
AcDbDictionaryWithDefault
340
13
  0
ACDBPLACEHOLDER
  5
13
330
12
  0
DICTIONARY
  5
14
330
A
100
AcDbDictionary
281
1
  0
DICTIONARY
  5
15
330
A
100
AcDbDictionary
281
1
  0
DICTIONARY
  5
16
330
A
100
AcDbDictionary
281
1
  0
LAYOUT
  5
1A
330
D
100
AcDbPlotSettings
  1

  4
A3
  6

 40
7.5
 41
20.0
 42
7.5
 43
20.0
 44
420.0
 45
297.0
 46
0.0
 47
0.0
 48
0.0
 49
0.0
140
0.0
141
0.0
142
1.0
143
1.0
 70
1024
 72
1
 73
0
 74
5
  7

 75
16
 76
0
 77
2
 78
300
147
1.0
148
0.0
149
0.0
100
AcDbLayout
  1
Model
 70
1
 71
0
 10
0.0
 20
0.0
 11
420.0
 21
297.0
 12
0.0
 22
0.0
 32
0.0
 14
1e+20
 24
1e+20
 34
1e+20
 15
-1e+20
 25
-1e+20
 35
-1e+20
146
0.0
 13
0.0
 23
0.0
 33
0.0
 16
1.0
 26
0.0
 36
0.0
 17
0.0
 27
1.0
 37
0.0
 76
1
330
17
  0
LAYOUT
  5
1E
330
D
100
AcDbPlotSettings
  1

  4
A3
  6

 40
7.5
 41
20.0
 42
7.5
 43
20.0
 44
420.0
 45
297.0
 46
0.0
 47
0.0
 48
0.0
 49
0.0
140
0.0
141
0.0
142
1.0
143
1.0
 70
0
 72
1
 73
0
 74
5
  7

 75
16
 76
0
 77
2
 78
300
147
1.0
148
0.0
149
0.0
100
AcDbLayout
  1
Layout1
 70
1
 71
1
 10
0.0
 20
0.0
 11
420.0
 21
297.0
 12
0.0
 22
0.0
 32
0.0
 14
1e+20
 24
1e+20
 34
1e+20
 15
-1e+20
 25
-1e+20
 35
-1e+20
146
0.0
 13
0.0
 23
0.0
 33
0.0
 16
1.0
 26
0.0
 36
0.0
 17
0.0
 27
1.0
 37
0.0
 76
1
330
1B
  0
MATERIAL
  5
1F
102
{ACAD_REACTORS
330
E
102
}
330
E
100
AcDbMaterial
  1
ByBlock
  2

 70
0
 40
1.0
 71
1
 41
1.0
 91
-1023410177
 42
1.0
 72
1
  3

 73
1
 74
1
 75
1
 44
0.5
 73
0
 45
1.0
 46
1.0
 77
1
  4

 78
1
 79
1
170
1
 48
1.0
171
1
  6

172
1
173
1
174
1
140
1.0
141
1.0
175
1
  7

176
1
177
1
178
1
143
1.0
179
1
  8

270
1
271
1
272
1
145
1.0
146
1.0
273
1
  9

274
1
275
1
276
1
 42
1.0
 72
1
  3

 73
1
 74
1
 75
1
 94
63
  0
MATERIAL
  5
20
102
{ACAD_REACTORS
330
E
102
}
330
E
100
AcDbMaterial
  1
ByLayer
  2

 70
0
 40
1.0
 71
1
 41
1.0
 91
-1023410177
 42
1.0
 72
1
  3

 73
1
 74
1
 75
1
 44
0.5
 73
0
 45
1.0
 46
1.0
 77
1
  4

 78
1
 79
1
170
1
 48
1.0
171
1
  6

172
1
173
1
174
1
140
1.0
141
1.0
175
1
  7

176
1
177
1
178
1
143
1.0
179
1
  8

270
1
271
1
272
1
145
1.0
146
1.0
273
1
  9

274
1
275
1
276
1
 42
1.0
 72
1
  3

 73
1
 74
1
 75
1
 94
63
  0
MATERIAL
  5
21
102
{ACAD_REACTORS
330
E
102
}
330
E
100
AcDbMaterial
  1
Global
  2

 70
0
 40
1.0
 71
1
 41
1.0
 91
-1023410177
 42
1.0
 72
1
  3

 73
1
 74
1
 75
1
 44
0.5
 73
0
 45
1.0
 46
1.0
 77
1
  4

 78
1
 79
1
170
1
 48
1.0
171
1
  6

172
1
173
1
174
1
140
1.0
141
1.0
175
1
  7

176
1
177
1
178
1
143
1.0
179
1
  8

270
1
271
1
272
1
145
1.0
146
1.0
273
1
  9

274
1
275
1
276
1
 42
1.0
 72
1
  3

 73
1
 74
1
 75
1
 94
63
  0
MLINESTYLE
  5
22
102
{ACAD_REACTORS
330
10
102
}
330
10
100
AcDbMlineStyle
  2
Standard
 70
0
  3

 62
256
 51
90.0
 52
90.0
 71
2
 49
0.5
 62
256
  6
BYLAYER
 49
-0.5
 62
256
  6
BYLAYER
  0
MLEADERSTYLE
  5
2C
102
{ACAD_REACTORS
330
F
102
}
330
F
100
AcDbMLeaderStyle
179
2
170
2
171
1
172
0
 90
2
 40
0.0
 41
0.0
173
1
 91
-1056964608
 92
-2
290
1
 42
2.0
291
1
 43
8.0
  3
Standard
 44
4.0
300

342
29
174
1
175
1
176
0
178
1
 93
-1056964608
 45
4.0
292
0
297
0
 46
4.0
 94
-1056964608
 47
1.0
 49
1.0
140
1.0
294
1
141
0.0
177
0
142
1.0
295
0
296
0
143
3.75
271
0
272
9
273
9
  0
DICTIONARY
  5
2D
330
A
100
AcDbDictionary
280
1
281
1
  3
CREATED_BY_EZDXF
350
2E
  3
WRITTEN_BY_EZDXF
350
5A
  0
DICTIONARYVAR
  5
2E
330
2D
100
DictionaryVariables
280
0
  1
1.4.4 @ 2026-07-22T09:21:40.726183+00:00
  0
DICTIONARYVAR
  5
5A
330
2D
100
DictionaryVariables
280
0
  1
1.4.4 @ 2026-07-22T09:21:40.735184+00:00
  0
ENDSEC
  0
EOF
