  0
SECTION
  2
HEADER
  9
$ACADVER
  1
AC1024
  9
$ACADMAINTVER
 70
6
  9
$DWGCODEPAGE
  3
ANSI_1252
  9
$LASTSAVEDBY
  1
ezdxf
  9
$INSBASE
 10
0.0
 20
0.0
 30
0.0
  9
$EXTMIN
 10
1e+20
 20
1e+20
 30
1e+20
  9
$EXTMAX
 10
-1e+20
 20
-1e+20
 30
-1e+20
  9
$LIMMIN
 10
0.0
 20
0.0
  9
$LIMMAX
 10
420.0
 20
297.0
  9
$ORTHOMODE
 70
0
  9
$REGENMODE
 70
1
  9
$FILLMODE
 70
1
  9
$QTEXTMODE
 70
0
  9
$MIRRTEXT
 70
1
  9
$LTSCALE
 40
1.0
  9
$ATTMODE
 70
1
  9
$TEXTSIZE
 40
2.5
  9
$TRACEWID
 40
1.0
  9
$TEXTSTYLE
  7
Standard
  9
$CLAYER
  8
0
  9
$CELTYPE
  6
ByLayer
  9
$CECOLOR
 62
256
  9
$CELTSCALE
 40
1.0
  9
$DISPSILH
 70
0
  9
$DIMSCALE
 40
1.0
  9
$DIMASZ
 40
2.5
  9
$DIMEXO
 40
0.625
  9
$DIMDLI
 40
3.75
  9
$DIMRND
 40
0.0
  9
$DIMDLE
 40
0.0
  9
$DIMEXE
 40
1.25
  9
$DIMTP
 40
0.0
  9
$DIMTM
 40
0.0
  9
$DIMTXT
 40
2.5
  9
$DIMCEN
 40
2.5
  9
$DIMTSZ
 40
0.0
  9
$DIMTOL
 70
0
  9
$DIMLIM
 70
0
  9
$DIMTIH
 70
0
  9
$DIMTOH
 70
0
  9
$DIMSE1
 70
0
  9
$DIMSE2
 70
0
  9
$DIMTAD
 70
1
  9
$DIMZIN
 70
8
  9
$DIMBLK
  1

  9
$DIMASO
 70
1
  9
$DIMSHO
 70
1
  9
$DIMPOST
  1

  9
$DIMAPOST
  1

  9
$DIMALT
 70
0
  9
$DIMALTD
 70
3
  9
$DIMALTF
 40
0.03937007874
  9
$DIMLFAC
 40
1.0
  9
$DIMTOFL
 70
1
  9
$DIMTVP
 40
0.0
  9
$DIMTIX
 70
0
  9
$DIMSOXD
 70
0
  9
$DIMSAH
 70
0
  9
$DIMBLK1
  1

  9
$DIMBLK2
  1

  9
$DIMSTYLE
  2
ISO-25
  9
$DIMCLRD
 70
0
  9
$DIMCLRE
 70
0
  9
$DIMCLRT
 70
0
  9
$DIMTFAC
 40
1.0
  9
$DIMGAP
 40
0.625
  9
$DIMJUST
 70
0
  9
$DIMSD1
 70
0
  9
$DIMSD2
 70
0
  9
$DIMTOLJ
 70
0
  9
$DIMTZIN
 70
8
  9
$DIMALTZ
 70
0
  9
$DIMALTTZ
 70
0
  9
$DIMUPT
 70
0
  9
$DIMDEC
 70
2
  9
$DIMTDEC
 70
2
  9
$DIMALTU
 70
2
  9
$DIMALTTD
 70
3
  9
$DIMTXSTY
  7
Standard
  9
$DIMAUNIT
 70
0
  9
$DIMADEC
 70
0
  9
$DIMALTRND
 40
0.0
  9
$DIMAZIN
 70
0
  9
$DIMDSEP
 70
44
  9
$DIMATFIT
 70
3
  9
$DIMFRAC
 70
0
  9
$DIMLDRBLK
  1

  9
$DIMLUNIT
 70
2
  9
$DIMLWD
 70
-2
  9
$DIMLWE
 70
-2
  9
$DIMTMOVE
 70
0
  9
$DIMFXL
 40
1.0
  9
$DIMFXLON
 70
0
  9
$DIMJOGANG
 40
0.785398163397
  9
$DIMTFILL
 70
0
  9
$DIMTFILLCLR
 70
0
  9
$DIMARCSYM
 70
0
  9
$DIMLTYPE
  6

  9
$DIMLTEX1
  6

  9
$DIMLTEX2
  6

  9
$DIMTXTDIRECTION
 70
0
  9
$LUNITS
 70
2
  9
$LUPREC
 70
4
  9
$SKETCHINC
 40
1.0
  9
$FILLETRAD
 40
10.0
  9
$AUNITS
 70
0
  9
$AUPREC
 70
2
  9
$MENU
  1
.
  9
$ELEVATION
 40
0.0
  9
$PELEVATION
 40
0.0
  9
$THICKNESS
 40
0.0
  9
$LIMCHECK
 70
0
  9
$CHAMFERA
 40
0.0
  9
$CHAMFERB
 40
0.0
  9
$CHAMFERC
 40
0.0
  9
$CHAMFERD
 40
0.0
  9
$SKPOLY
 70
0
  9
$TDCREATE
 40
2461244.612337963
  9
$TDUCREATE
 40
2458532.153996898
  9
$TDUPDATE
 40
2461244.612337963
  9
$TDUUPDATE
 40
2458532.1544311
  9
$TDINDWG
 40
0.0
  9
$TDUSRTIMER
 40
0.0
  9
$USRTIMER
 70
1
  9
$ANGBASE
 50
0.0
  9
$ANGDIR
 70
0
  9
$PDMODE
 70
0
  9
$PDSIZE
 40
0.0
  9
$PLINEWID
 40
0.0
  9
$SPLFRAME
 70
0
  9
$SPLINETYPE
 70
6
  9
$SPLINESEGS
 70
8
  9
$HANDSEED
  5
61
  9
$SURFTAB1
 70
6
  9
$SURFTAB2
 70
6
  9
$SURFTYPE
 70
6
  9
$SURFU
 70
6
  9
$SURFV
 70
6
  9
$UCSBASE
  2

  9
$UCSNAME
  2

  9
$UCSORG
 10
0.0
 20
0.0
 30
0.0
  9
$UCSXDIR
 10
1.0
 20
0.0
 30
0.0
  9
$UCSYDIR
 10
0.0
 20
1.0
 30
0.0
  9
$UCSORTHOREF
  2

  9
$UCSORTHOVIEW
 70
0
  9
$UCSORGTOP
 10
0.0
 20
0.0
 30
0.0
  9
$UCSORGBOTTOM
 10
0.0
 20
0.0
 30
0.0
  9
$UCSORGLEFT
 10
0.0
 20
0.0
 30
0.0
  9
$UCSORGRIGHT
 10
0.0
 20
0.0
 30
0.0
  9
$UCSORGFRONT
 10
0.0
 20
0.0
 30
0.0
  9
$UCSORGBACK
 10
0.0
 20
0.0
 30
0.0
  9
$PUCSBASE
  2

  9
$PUCSNAME
  2

  9
$PUCSORG
 10
0.0
 20
0.0
 30
0.0
  9
$PUCSXDIR
 10
1.0
 20
0.0
 30
0.0
  9
$PUCSYDIR
 10
0.0
 20
1.0
 30
0.0
  9
$PUCSORTHOREF
  2

  9
$PUCSORTHOVIEW
 70
0
  9
$PUCSORGTOP
 10
0.0
 20
0.0
 30
0.0
  9
$PUCSORGBOTTOM
 10
0.0
 20
0.0
 30
0.0
  9
$PUCSORGLEFT
 10
0.0
 20
0.0
 30
0.0
  9
$PUCSORGRIGHT
 10
0.0
 20
0.0
 30
0.0
  9
$PUCSORGFRONT
 10
0.0
 20
0.0
 30
0.0
  9
$PUCSORGBACK
 10
0.0
 20
0.0
 30
0.0
  9
$USERI1
 70
0
  9
$USERI2
 70
0
  9
$USERI3
 70
0
  9
$USERI4
 70
0
  9
$USERI5
 70
0
  9
$USERR1
 40
0.0
  9
$USERR2
 40
0.0
  9
$USERR3
 40
0.0
  9
$USERR4
 40
0.0
  9
$USERR5
 40
0.0
  9
$WORLDVIEW
 70
1
  9
$SHADEDGE
 70
3
  9
$SHADEDIF
 70
70
  9
$TILEMODE
 70
1
  9
$MAXACTVP
 70
64
  9
$PINSBASE
 10
0.0
 20
0.0
 30
0.0
  9
$PLIMCHECK
 70
0
  9
$PEXTMIN
 10
1e+20
 20
1e+20
 30
1e+20
  9
$PEXTMAX
 10
-1e+20
 20
-1e+20
 30
-1e+20
  9
$PLIMMIN
 10
0.0
 20
0.0
  9
$PLIMMAX
 10
420.0
 20
297.0
  9
$UNITMODE
 70
0
  9
$VISRETAIN
 70
1
  9
$PLINEGEN
 70
0
  9
$PSLTSCALE
 70
1
  9
$TREEDEPTH
 70
3020
  9
$CMLSTYLE
  2
Standard
  9
$CMLJUST
 70
0
  9
$CMLSCALE
 40
20.0
  9
$PROXYGRAPHICS
 70
1
  9
$MEASUREMENT
 70
1
  9
$CELWEIGHT
370
-1
  9
$ENDCAPS
280
0
  9
$JOINSTYLE
280
0
  9
$LWDISPLAY
290
0
  9
$INSUNITS
 70
6
  9
$HYPERLINKBASE
  1

  9
$STYLESHEET
  1

  9
$XEDIT
290
1
  9
$CEPSNTYPE
380
0
  9
$PSTYLEMODE
290
1
  9
$FINGERPRINTGUID
  2
{2C2D39EE-C4E0-4C16-81A9-1AAAA9E4215E}
  9
$VERSIONGUID
  2
{5EE580CB-64F6-40FC-B6E4-6CF6515F1061}
  9
$EXTNAMES
290
1
  9
$PSVPSCALE
 40
0.0
  9
$OLESTARTUP
290
0
  9
$SORTENTS
280
127
  9
$INDEXCTL
280
0
  9
$HIDETEXT
280
1
  9
$XCLIPFRAME
280
1
  9
$HALOGAP
280
0
  9
$OBSCOLOR
 70
257
  9
$OBSLTYPE
280
0
  9
$INTERSECTIONDISPLAY
280
0
  9
$INTERSECTIONCOLOR
 70
257
  9
$DIMASSOC
280
2
  9
$PROJECTNAME
  1

  9
$CAMERADISPLAY
290
0
  9
$LENSLENGTH
 40
50.0
  9
$CAMERAHEIGHT
 40
0.0
  9
$STEPSPERSEC
 40
24.0
  9
$STEPSIZE
 40
100.0
  9
$3DDWFPREC
 40
2.0
  9
$PSOLWIDTH
 40
0.005
  9
$PSOLHEIGHT
 40
0.08
  9
$LOFTANG1
 40
1.570796326795
  9
$LOFTANG2
 40
1.570796326795
  9
$LOFTMAG1
 40
0.0
  9
$LOFTMAG2
 40
0.0
  9
$LOFTPARAM
 70
7
  9
$LOFTNORMALS
280
1
  9
$LATITUDE
 40
37.795
  9
$LONGITUDE
 40
-122.394
  9
$NORTHDIRECTION
 40
0.0
  9
$TIMEZONE
 70
-8000
  9
$LIGHTGLYPHDISPLAY
280
1
  9
$TILEMODELIGHTSYNCH
280
1
  9
$CMATERIAL
347
20
  9
$SOLIDHIST
280
0
  9
$SHOWHIST
280
1
  9
$DWFFRAME
280
2
  9
$DGNFRAME
280
2
  9
$REALWORLDSCALE
290
1
  9
$INTERFERECOLOR
 62
256
  9
$CSHADOW
280
0
  9
$SHADOWPLANELOCATION
 40
0.0
  0
ENDSEC
  0
SECTION
  2
CLASSES
  0
CLASS
  1
ACDBDICTIONARYWDFLT
  2
AcDbDictionaryWithDefault
  3
ObjectDBX Classes
 90
0
 91
0
280
0
281
0
  0
CLASS
  1
SUN
  2
AcDbSun
  3
SCENEOE
 90
1153
 91
0
280
0
281
0
  0
CLASS
  1
VISUALSTYLE
  2
AcDbVisualStyle
  3
ObjectDBX Classes
 90
4095
 91
0
280
0
281
0
  0
CLASS
  1
MATERIAL
  2
AcDbMaterial
  3
ObjectDBX Classes
 90
1153
 91
0
280
0
281
0
  0
CLASS
  1
SCALE
  2
AcDbScale
  3
ObjectDBX Classes
 90
1153
 91
0
280
0
281
0
  0
CLASS
  1
TABLESTYLE
  2
AcDbTableStyle
  3
ObjectDBX Classes
 90
4095
 91
0
280
0
281
0
  0
CLASS
  1
MLEADERSTYLE
  2
AcDbMLeaderStyle
  3
ACDB_MLEADERSTYLE_CLASS
 90
4095
 91
0
280
0
281
0
  0
CLASS
  1
DICTIONARYVAR
  2
AcDbDictionaryVar
  3
ObjectDBX Classes
 90
0
 91
0
280
0
281
0
  0
CLASS
  1
CELLSTYLEMAP
  2
AcDbCellStyleMap
  3
ObjectDBX Classes
 90
1152
 91
0
280
0
281
0
  0
CLASS
  1
MENTALRAYRENDERSETTINGS
  2
AcDbMentalRayRenderSettings
  3
SCENEOE
 90
1024
 91
0
280
0
281
0
  0
CLASS
  1
ACDBDETAILVIEWSTYLE
  2
AcDbDetailViewStyle
  3
ObjectDBX Classes
 90
1025
 91
0
280
0
281
0
  0
CLASS
  1
ACDBSECTIONVIEWSTYLE
  2
AcDbSectionViewStyle
  3
ObjectDBX Classes
 90
1025
 91
0
280
0
281
0
  0
CLASS
  1
RASTERVARIABLES
  2
AcDbRasterVariables
  3
ISM
 90
0
 91
0
280
0
281
0
  0
CLASS
  1
ACDBPLACEHOLDER
  2
AcDbPlaceHolder
  3
ObjectDBX Classes
 90
0
 91
0
280
0
281
0
  0
CLASS
  1
LAYOUT
  2
AcDbLayout
  3
ObjectDBX Classes
 90
0
 91
0
280
0
281
0
  0
ENDSEC
  0
SECTION
  2
TABLES
  0
TABLE
  2
VPORT
  5
8
330
0
100
AcDbSymbolTable
 70
1
  0
VPORT
  5
23
330
8
100
AcDbSymbolTableRecord
100
AcDbViewportTableRecord
  2
*Active
 70
0
 10
0.0
 20
0.0
 11
1.0
 21
1.0
 12
0.0
 22
0.0
 13
0.0
 23
0.0
 14
0.5
 24
0.5
 15
0.5
 25
0.5
 16
0.0
 26
0.0
 36
1.0
 17
0.0
 27
0.0
 37
0.0
 40
1000.0
 41
1.34
 42
50.0
 43
0.0
 44
0.0
 50
0.0
 51
0.0
 71
0
 72
1000
 73
1
 74
3
 75
0
 76
0
 77
0
 78
0
281
0
 65
0
146
0.0
  0
ENDTAB
  0
TABLE
  2
LTYPE
  5
2
330
0
100
AcDbSymbolTable
 70
3
  0
LTYPE
  5
24
330
2
100
AcDbSymbolTableRecord
100
AcDbLinetypeTableRecord
  2
ByBlock
 70
0
  3

 72
65
 73
0
 40
0.0
  0
LTYPE
  5
25
330
2
100
AcDbSymbolTableRecord
100
AcDbLinetypeTableRecord
  2
ByLayer
 70
0
  3

 72
65
 73
0
 40
0.0
  0
LTYPE
  5
26
330
2
100
AcDbSymbolTableRecord
100
AcDbLinetypeTableRecord
  2
Continuous
 70
0
  3

 72
65
 73
0
 40
0.0
  0
ENDTAB
  0
TABLE
  2
LAYER
  5
1
330
0
100
AcDbSymbolTable
 70
4
  0
LAYER
  5
27
330
1
100
AcDbSymbolTableRecord
100
AcDbLayerTableRecord
  2
0
 70
0
 62
7
  6
Continuous
370
-3
390
13
347
21
  0
LAYER
  5
28
330
1
100
AcDbSymbolTableRecord
100
AcDbLayerTableRecord
  2
Defpoints
 70
0
 62
7
  6
Continuous
290
0
370
-3
390
13
347
21
  0
LAYER
  5
2F
330
1
100
AcDbSymbolTableRecord
100
AcDbLayerTableRecord
  2
CUT
 70
0
 62
3
  6
Continuous
370
-3
390
13
347
21
  0
LAYER
  5
30
330
1
100
AcDbSymbolTableRecord
100
AcDbLayerTableRecord
  2
BEND_LINES
 70
0
 62
1
  6
DASHED
370
-3
390
13
347
21
  0
ENDTAB
  0
TABLE
  2
STYLE
  5
5
330
0
100
AcDbSymbolTable
 70
1
  0
STYLE
  5
29
330
5
100
AcDbSymbolTableRecord
100
AcDbTextStyleTableRecord
  2
Standard
 70
0
 40
0.0
 41
1.0
 50
0.0
 71
0
 42
2.5
  3
txt
  4

  0
ENDTAB
  0
TABLE
  2
VIEW
  5
7
330
0
100
AcDbSymbolTable
 70
0
  0
ENDTAB
  0
TABLE
  2
UCS
  5
6
330
0
100
AcDbSymbolTable
 70
0
  0
ENDTAB
  0
TABLE
  2
APPID
  5
3
330
0
100
AcDbSymbolTable
 70
3
  0
APPID
  5
2A
330
3
100
AcDbSymbolTableRecord
100
AcDbRegAppTableRecord
  2
ACAD
 70
0
  0
APPID
  5
5E
330
3
100
AcDbSymbolTableRecord
100
AcDbRegAppTableRecord
  2
HATCHBACKGROUNDCOLOR
 70
0
  0
APPID
  5
5F
330
3
100
AcDbSymbolTableRecord
100
AcDbRegAppTableRecord
  2
EZDXF
 70
0
  0
ENDTAB
  0
TABLE
  2
DIMSTYLE
  5
4
330
0
100
AcDbSymbolTable
 70
1
100
AcDbDimStyleTable
  0
DIMSTYLE
105
2B
330
4
100
AcDbSymbolTableRecord
100
AcDbDimStyleTableRecord
  2
Standard
 70
0
 40
1.0
 41
2.5
 42
0.625
 43
3.75
 44
1.25
 45
0.0
 46
0.0
 47
0.0
 48
0.0
 49
2.5
140
2.5
141
2.5
142
0.0
143
0.03937007874
144
1.0
145
0.0
146
1.0
147
0.625
148
0.0
 69
0
 70
0
 71
0
 72
0
 73
0
 74
0
 75
0
 76
0
 77
1
 78
8
 79
3
170
0
171
3
172
1
173
0
174
0
175
0
176
0
177
0
178
0
179
2
271
2
272
2
273
2
274
3
275
0
276
0
277
2
278
44
279
0
280
0
281
0
282
0
283
0
284
8
285
0
286
0
288
0
289
3
290
0
371
-2
372
-2
  0
ENDTAB
  0
TABLE
  2
BLOCK_RECORD
  5
9
330
0
100
AcDbSymbolTable
 70
2
  0
BLOCK_RECORD
  5
17
330
9
100
AcDbSymbolTableRecord
100
AcDbBlockTableRecord
  2
*Model_Space
340
1A
 70
0
280
1
281
0
  0
BLOCK_RECORD
  5
1B
330
9
100
AcDbSymbolTableRecord
100
AcDbBlockTableRecord
  2
*Paper_Space
340
1E
 70
0
280
1
281
0
  0
ENDTAB
  0
ENDSEC
  0
SECTION
  2
BLOCKS
  0
BLOCK
  5
18
330
17
100
AcDbEntity
  8
0
100
AcDbBlockBegin
  2
*Model_Space
 70
0
 10
0.0
 20
0.0
 30
0.0
  3
*Model_Space
  1

  0
ENDBLK
  5
19
330
17
100
AcDbEntity
  8
0
100
AcDbBlockEnd
  0
BLOCK
  5
1C
330
1B
100
AcDbEntity
  8
0
100
AcDbBlockBegin
  2
*Paper_Space
 70
0
 10
0.0
 20
0.0
 30
0.0
  3
*Paper_Space
  1

  0
ENDBLK
  5
1D
330
1B
100
AcDbEntity
  8
0
100
AcDbBlockEnd
  0
ENDSEC
  0
SECTION
  2
ENTITIES
  0
LWPOLYLINE
  5
31
330
17
100
AcDbEntity
  8
CUT
100
AcDbPolyline
 90
73
 70
0
 10
932.01
 20
143.934
 10
932.256
 20
143.847
 10
932.498
 20
143.747
 10
932.735
 20
143.634
 10
932.965
 20
143.509
 10
933.188
 20
143.372
 10
933.404
 20
143.224
 10
933.611
 20
143.065
 10
933.81
 20
142.895
 10
934.0
 20
142.714
 10
934.18
 20
142.525
 10
934.35
 20
142.326
 10
934.51
 20
142.118
 10
934.658
 20
141.902
 10
934.795
 20
141.679
 10
934.92
 20
141.449
 10
935.032
 20
141.213
 10
935.133
 20
140.971
 10
935.22
 20
140.724
 10
935.294
 20
140.473
 10
935.355
 20
140.219
 10
935.403
 20
139.961
 10
935.437
 20
139.702
 10
935.458
 20
139.441
 10
935.465
 20
139.179
 10
935.465
 20
-123.321
 10
894.962
 20
-163.823
 10
871.226
 20
-169.321
 10
836.221
 20
-169.321
 10
812.485
 20
-163.823
 10
771.982
 20
-123.321
 10
771.982
 20
139.179
 10
771.989
 20
139.441
 10
772.01
 20
139.702
 10
772.044
 20
139.961
 10
772.092
 20
140.219
 10
772.153
 20
140.473
 10
772.227
 20
140.724
 10
772.314
 20
140.971
 10
772.415
 20
141.213
 10
772.527
 20
141.449
 10
772.652
 20
141.679
 10
772.789
 20
141.902
 10
772.937
 20
142.118
 10
773.097
 20
142.326
 10
773.267
 20
142.525
 10
773.447
 20
142.714
 10
773.637
 20
142.895
 10
773.836
 20
143.065
 10
774.043
 20
143.224
 10
774.259
 20
143.372
 10
774.482
 20
143.509
 10
774.712
 20
143.634
 10
774.949
 20
143.747
 10
775.19
 20
143.847
 10
775.437
 20
143.934
 10
775.688
 20
144.009
 10
775.943
 20
144.07
 10
776.2
 20
144.117
 10
776.46
 20
144.152
 10
776.721
 20
144.172
 10
776.982
 20
144.179
 10
812.485
 20
144.179
 10
836.221
 20
144.179
 10
871.226
 20
144.179
 10
894.962
 20
144.179
 10
930.465
 20
144.179
 10
930.726
 20
144.172
 10
930.987
 20
144.152
 10
931.247
 20
144.117
 10
931.504
 20
144.07
 10
931.759
 20
144.009
 10
932.01
 20
143.934
  0
LWPOLYLINE
  5
32
330
17
100
AcDbEntity
  8
CUT
100
AcDbPolyline
 90
31
 70
0
 10
859.103
 20
130.322
 10
858.748
 20
131.416
 10
858.173
 20
132.412
 10
857.404
 20
133.266
 10
856.473
 20
133.942
 10
855.423
 20
134.41
 10
854.298
 20
134.649
 10
853.149
 20
134.649
 10
852.024
 20
134.41
 10
850.973
 20
133.942
 10
850.043
 20
133.266
 10
849.274
 20
132.412
 10
848.699
 20
131.416
 10
848.344
 20
130.322
 10
848.223
 20
129.179
 10
848.344
 20
128.035
 10
848.699
 20
126.942
 10
849.274
 20
125.946
 10
850.043
 20
125.092
 10
850.973
 20
124.416
 10
852.024
 20
123.948
 10
853.149
 20
123.709
 10
854.298
 20
123.709
 10
855.423
 20
123.948
 10
856.473
 20
124.416
 10
857.404
 20
125.092
 10
858.173
 20
125.946
 10
858.748
 20
126.942
 10
859.103
 20
128.035
 10
859.223
 20
129.179
 10
859.103
 20
130.322
  0
LWPOLYLINE
  5
33
330
17
100
AcDbEntity
  8
CUT
100
AcDbPolyline
 90
31
 70
0
 10
859.223
 20
69.179
 10
859.103
 20
70.322
 10
858.748
 20
71.416
 10
858.173
 20
72.412
 10
857.404
 20
73.266
 10
856.473
 20
73.942
 10
855.423
 20
74.41
 10
854.298
 20
74.649
 10
853.149
 20
74.649
 10
852.024
 20
74.41
 10
850.973
 20
73.942
 10
850.043
 20
73.266
 10
849.274
 20
72.412
 10
848.699
 20
71.416
 10
848.344
 20
70.322
 10
848.223
 20
69.179
 10
848.344
 20
68.035
 10
848.699
 20
66.942
 10
849.274
 20
65.946
 10
850.043
 20
65.092
 10
850.973
 20
64.416
 10
852.024
 20
63.948
 10
853.149
 20
63.709
 10
854.298
 20
63.709
 10
855.423
 20
63.948
 10
856.473
 20
64.416
 10
857.404
 20
65.092
 10
858.173
 20
65.946
 10
858.748
 20
66.942
 10
859.103
 20
68.035
 10
859.223
 20
69.179
  0
LWPOLYLINE
  5
34
330
17
100
AcDbEntity
  8
CUT
100
AcDbPolyline
 90
31
 70
0
 10
859.103
 20
-63.965
 10
859.223
 20
-62.821
 10
859.103
 20
-61.678
 10
858.748
 20
-60.584
 10
858.173
 20
-59.588
 10
857.404
 20
-58.734
 10
856.473
 20
-58.058
 10
855.423
 20
-57.59
 10
854.298
 20
-57.351
 10
853.149
 20
-57.351
 10
852.024
 20
-57.59
 10
850.973
 20
-58.058
 10
850.043
 20
-58.734
 10
849.274
 20
-59.588
 10
848.699
 20
-60.584
 10
848.344
 20
-61.678
 10
848.223
 20
-62.821
 10
848.344
 20
-63.965
 10
848.699
 20
-65.058
 10
849.274
 20
-66.054
 10
850.043
 20
-66.908
 10
850.973
 20
-67.584
 10
852.024
 20
-68.052
 10
853.149
 20
-68.291
 10
854.298
 20
-68.291
 10
855.423
 20
-68.052
 10
856.473
 20
-67.584
 10
857.404
 20
-66.908
 10
858.173
 20
-66.054
 10
858.748
 20
-65.058
 10
859.103
 20
-63.965
  0
LWPOLYLINE
  5
35
330
17
100
AcDbEntity
  8
CUT
100
AcDbPolyline
 90
31
 70
0
 10
858.748
 20
-140.058
 10
859.103
 20
-138.965
 10
859.223
 20
-137.821
 10
859.103
 20
-136.678
 10
858.748
 20
-135.584
 10
858.173
 20
-134.588
 10
857.404
 20
-133.734
 10
856.473
 20
-133.058
 10
855.423
 20
-132.59
 10
854.298
 20
-132.351
 10
853.149
 20
-132.351
 10
852.024
 20
-132.59
 10
850.973
 20
-133.058
 10
850.043
 20
-133.734
 10
849.274
 20
-134.588
 10
848.699
 20
-135.584
 10
848.344
 20
-136.678
 10
848.223
 20
-137.821
 10
848.344
 20
-138.965
 10
848.699
 20
-140.058
 10
849.274
 20
-141.054
 10
850.043
 20
-141.908
 10
850.973
 20
-142.584
 10
852.024
 20
-143.052
 10
853.149
 20
-143.291
 10
854.298
 20
-143.291
 10
855.423
 20
-143.052
 10
856.473
 20
-142.584
 10
857.404
 20
-141.908
 10
858.173
 20
-141.054
 10
858.748
 20
-140.058
  0
LWPOLYLINE
  5
36
330
17
100
AcDbEntity
  8
CUT
100
AcDbPolyline
 90
73
 70
0
 10
955.526
 20
139.961
 10
955.574
 20
140.219
 10
955.635
 20
140.473
 10
955.709
 20
140.724
 10
955.797
 20
140.971
 10
955.897
 20
141.213
 10
956.01
 20
141.449
 10
956.134
 20
141.679
 10
956.271
 20
141.902
 10
956.42
 20
142.118
 10
956.579
 20
142.326
 10
956.749
 20
142.525
 10
956.929
 20
142.714
 10
957.119
 20
142.895
 10
957.318
 20
143.065
 10
957.526
 20
143.224
 10
957.741
 20
143.372
 10
957.965
 20
143.509
 10
958.195
 20
143.634
 10
958.431
 20
143.747
 10
958.673
 20
143.847
 10
958.92
 20
143.934
 10
959.171
 20
144.009
 10
959.425
 20
144.07
 10
959.682
 20
144.117
 10
959.942
 20
144.152
 10
960.203
 20
144.172
 10
960.465
 20
144.179
 10
995.967
 20
144.179
 10
1011.991
 20
144.179
 10
1046.996
 20
144.179
 10
1063.02
 20
144.179
 10
1098.522
 20
144.179
 10
1098.784
 20
144.172
 10
1099.045
 20
144.152
 10
1099.304
 20
144.117
 10
1099.562
 20
144.07
 10
1099.816
 20
144.009
 10
1100.067
 20
143.934
 10
1100.314
 20
143.847
 10
1100.556
 20
143.747
 10
1100.792
 20
143.634
 10
1101.022
 20
143.509
 10
1101.245
 20
143.372
 10
1101.461
 20
143.224
 10
1101.669
 20
143.065
 10
1101.868
 20
142.895
 10
1102.058
 20
142.714
 10
1102.238
 20
142.525
 10
1102.408
 20
142.326
 10
1102.567
 20
142.118
 10
1102.715
 20
141.902
 10
1102.852
 20
141.679
 10
1102.977
 20
141.449
 10
1103.09
 20
141.213
 10
1103.19
 20
140.971
 10
1103.277
 20
140.724
 10
1103.352
 20
140.473
 10
1103.413
 20
140.219
 10
1103.461
 20
139.961
 10
1103.495
 20
139.702
 10
1103.515
 20
139.441
 10
1103.522
 20
139.179
 10
1103.522
 20
-123.321
 10
1063.02
 20
-163.823
 10
1046.996
 20
-169.321
 10
1011.991
 20
-169.321
 10
995.967
 20
-163.823
 10
955.465
 20
-123.321
 10
955.465
 20
139.179
 10
955.471
 20
139.441
 10
955.492
 20
139.702
 10
955.526
 20
139.961
  0
LWPOLYLINE
  5
37
330
17
100
AcDbEntity
  8
CUT
100
AcDbPolyline
 90
31
 70
0
 10
1034.873
 20
130.322
 10
1034.518
 20
131.416
 10
1033.943
 20
132.412
 10
1033.174
 20
133.266
 10
1032.243
 20
133.942
 10
1031.193
 20
134.41
 10
1030.068
 20
134.649
 10
1028.918
 20
134.649
 10
1027.794
 20
134.41
 10
1026.743
 20
133.942
 10
1025.813
 20
133.266
 10
1025.044
 20
132.412
 10
1024.469
 20
131.416
 10
1024.114
 20
130.322
 10
1023.993
 20
129.179
 10
1024.114
 20
128.035
 10
1024.469
 20
126.942
 10
1025.044
 20
125.946
 10
1025.813
 20
125.092
 10
1026.743
 20
124.416
 10
1027.794
 20
123.948
 10
1028.918
 20
123.709
 10
1030.068
 20
123.709
 10
1031.193
 20
123.948
 10
1032.243
 20
124.416
 10
1033.174
 20
125.092
 10
1033.943
 20
125.946
 10
1034.518
 20
126.942
 10
1034.873
 20
128.035
 10
1034.993
 20
129.179
 10
1034.873
 20
130.322
  0
LWPOLYLINE
  5
38
330
17
100
AcDbEntity
  8
CUT
100
AcDbPolyline
 90
31
 70
0
 10
1034.993
 20
69.179
 10
1034.873
 20
70.322
 10
1034.518
 20
71.416
 10
1033.943
 20
72.412
 10
1033.174
 20
73.266
 10
1032.243
 20
73.942
 10
1031.193
 20
74.41
 10
1030.068
 20
74.649
 10
1028.918
 20
74.649
 10
1027.794
 20
74.41
 10
1026.743
 20
73.942
 10
1025.813
 20
73.266
 10
1025.044
 20
72.412
 10
1024.469
 20
71.416
 10
1024.114
 20
70.322
 10
1023.993
 20
69.179
 10
1024.114
 20
68.035
 10
1024.469
 20
66.942
 10
1025.044
 20
65.946
 10
1025.813
 20
65.092
 10
1026.743
 20
64.416
 10
1027.794
 20
63.948
 10
1028.918
 20
63.709
 10
1030.068
 20
63.709
 10
1031.193
 20
63.948
 10
1032.243
 20
64.416
 10
1033.174
 20
65.092
 10
1033.943
 20
65.946
 10
1034.518
 20
66.942
 10
1034.873
 20
68.035
 10
1034.993
 20
69.179
  0
LWPOLYLINE
  5
39
330
17
100
AcDbEntity
  8
CUT
100
AcDbPolyline
 90
31
 70
0
 10
1034.873
 20
-63.965
 10
1034.993
 20
-62.821
 10
1034.873
 20
-61.678
 10
1034.518
 20
-60.584
 10
1033.943
 20
-59.588
 10
1033.174
 20
-58.734
 10
1032.243
 20
-58.058
 10
1031.193
 20
-57.59
 10
1030.068
 20
-57.351
 10
1028.918
 20
-57.351
 10
1027.794
 20
-57.59
 10
1026.743
 20
-58.058
 10
1025.813
 20
-58.734
 10
1025.044
 20
-59.588
 10
1024.469
 20
-60.584
 10
1024.114
 20
-61.678
 10
1023.993
 20
-62.821
 10
1024.114
 20
-63.965
 10
1024.469
 20
-65.058
 10
1025.044
 20
-66.054
 10
1025.813
 20
-66.908
 10
1026.743
 20
-67.584
 10
1027.794
 20
-68.052
 10
1028.918
 20
-68.291
 10
1030.068
 20
-68.291
 10
1031.193
 20
-68.052
 10
1032.243
 20
-67.584
 10
1033.174
 20
-66.908
 10
1033.943
 20
-66.054
 10
1034.518
 20
-65.058
 10
1034.873
 20
-63.965
  0
LWPOLYLINE
  5
3A
330
17
100
AcDbEntity
  8
CUT
100
AcDbPolyline
 90
31
 70
0
 10
1034.518
 20
-140.058
 10
1034.873
 20
-138.965
 10
1034.993
 20
-137.821
 10
1034.873
 20
-136.678
 10
1034.518
 20
-135.584
 10
1033.943
 20
-134.588
 10
1033.174
 20
-133.734
 10
1032.243
 20
-133.058
 10
1031.193
 20
-132.59
 10
1030.068
 20
-132.351
 10
1028.918
 20
-132.351
 10
1027.794
 20
-132.59
 10
1026.743
 20
-133.058
 10
1025.813
 20
-133.734
 10
1025.044
 20
-134.588
 10
1024.469
 20
-135.584
 10
1024.114
 20
-136.678
 10
1023.993
 20
-137.821
 10
1024.114
 20
-138.965
 10
1024.469
 20
-140.058
 10
1025.044
 20
-141.054
 10
1025.813
 20
-141.908
 10
1026.743
 20
-142.584
 10
1027.794
 20
-143.052
 10
1028.918
 20
-143.291
 10
1030.068
 20
-143.291
 10
1031.193
 20
-143.052
 10
1032.243
 20
-142.584
 10
1033.174
 20
-141.908
 10
1033.943
 20
-141.054
 10
1034.518
 20
-140.058
  0
LWPOLYLINE
  5
3B
330
17
100
AcDbEntity
  8
CUT
100
AcDbPolyline
 90
13
 70
0
 10
-20.718
 20
272.75
 10
19.785
 20
313.252
 10
43.521
 20
318.75
 10
78.526
 20
318.75
 10
102.262
 20
313.252
 10
142.765
 20
272.75
 10
142.765
 20
-272.75
 10
102.262
 20
-313.252
 10
78.526
 20
-318.75
 10
43.521
 20
-318.75
 10
19.785
 20
-313.252
 10
-20.718
 20
-272.75
 10
-20.718
 20
272.75
  0
LWPOLYLINE
  5
3C
330
17
100
AcDbEntity
  8
CUT
100
AcDbPolyline
 90
63
 70
0
 10
63.261
 20
-75.262
 10
63.773
 20
-75.0
 10
64.256
 20
-74.687
 10
64.704
 20
-74.325
 10
65.111
 20
-73.917
 10
65.473
 20
-73.47
 10
65.787
 20
-72.987
 10
66.048
 20
-72.474
 10
66.254
 20
-71.937
 10
66.403
 20
-71.381
 10
66.493
 20
-70.812
 10
66.523
 20
-70.237
 10
66.523
 20
-65.781
 10
66.493
 20
-65.206
 10
66.403
 20
-64.638
 10
66.254
 20
-64.082
 10
66.048
 20
-63.544
 10
65.787
 20
-63.031
 10
65.473
 20
-62.548
 10
65.111
 20
-62.101
 10
64.704
 20
-61.694
 10
64.256
 20
-61.332
 10
63.773
 20
-61.018
 10
63.261
 20
-60.757
 10
62.723
 20
-60.55
 10
62.167
 20
-60.401
 10
61.598
 20
-60.311
 10
61.023
 20
-60.281
 10
60.449
 20
-60.311
 10
59.88
 20
-60.401
 10
59.324
 20
-60.55
 10
58.786
 20
-60.757
 10
58.273
 20
-61.018
 10
57.791
 20
-61.332
 10
57.343
 20
-61.694
 10
56.936
 20
-62.101
 10
56.574
 20
-62.548
 10
56.26
 20
-63.031
 10
55.999
 20
-63.544
 10
55.793
 20
-64.082
 10
55.644
 20
-64.638
 10
55.554
 20
-65.206
 10
55.523
 20
-65.781
 10
55.523
 20
-70.237
 10
55.554
 20
-70.812
 10
55.644
 20
-71.381
 10
55.793
 20
-71.937
 10
55.999
 20
-72.474
 10
56.26
 20
-72.987
 10
56.574
 20
-73.47
 10
56.936
 20
-73.917
 10
57.343
 20
-74.325
 10
57.791
 20
-74.687
 10
58.273
 20
-75.0
 10
58.786
 20
-75.262
 10
59.324
 20
-75.468
 10
59.88
 20
-75.617
 10
60.449
 20
-75.707
 10
61.023
 20
-75.737
 10
61.598
 20
-75.707
 10
62.167
 20
-75.617
 10
62.723
 20
-75.468
 10
63.261
 20
-75.262
  0
LWPOLYLINE
  5
3D
330
17
100
AcDbEntity
  8
CUT
100
AcDbPolyline
 90
63
 70
0
 10
62.723
 20
60.532
 10
63.261
 20
60.738
 10
63.773
 20
61.0
 10
64.256
 20
61.313
 10
64.704
 20
61.675
 10
65.111
 20
62.083
 10
65.473
 20
62.53
 10
65.787
 20
63.013
 10
66.048
 20
63.526
 10
66.254
 20
64.063
 10
66.403
 20
64.619
 10
66.493
 20
65.188
 10
66.523
 20
65.763
 10
66.523
 20
70.219
 10
66.493
 20
70.794
 10
66.403
 20
71.362
 10
66.254
 20
71.918
 10
66.048
 20
72.456
 10
65.787
 20
72.969
 10
65.473
 20
73.452
 10
65.111
 20
73.899
 10
64.704
 20
74.306
 10
64.256
 20
74.668
 10
63.773
 20
74.982
 10
63.261
 20
75.243
 10
62.723
 20
75.45
 10
62.167
 20
75.599
 10
61.598
 20
75.689
 10
61.023
 20
75.719
 10
60.449
 20
75.689
 10
59.88
 20
75.599
 10
59.324
 20
75.45
 10
58.786
 20
75.243
 10
58.273
 20
74.982
 10
57.791
 20
74.668
 10
57.343
 20
74.306
 10
56.936
 20
73.899
 10
56.574
 20
73.452
 10
56.26
 20
72.969
 10
55.999
 20
72.456
 10
55.793
 20
71.918
 10
55.644
 20
71.362
 10
55.554
 20
70.794
 10
55.523
 20
70.219
 10
55.523
 20
65.763
 10
55.554
 20
65.188
 10
55.644
 20
64.619
 10
55.793
 20
64.063
 10
55.999
 20
63.526
 10
56.26
 20
63.013
 10
56.574
 20
62.53
 10
56.936
 20
62.083
 10
57.343
 20
61.675
 10
57.791
 20
61.313
 10
58.273
 20
61.0
 10
58.786
 20
60.738
 10
59.324
 20
60.532
 10
59.88
 20
60.383
 10
60.449
 20
60.293
 10
61.023
 20
60.263
 10
61.598
 20
60.293
 10
62.167
 20
60.383
 10
62.723
 20
60.532
  0
LWPOLYLINE
  5
3E
330
17
100
AcDbEntity
  8
CUT
100
AcDbPolyline
 90
31
 70
0
 10
71.682
 20
-184.677
 10
70.703
 20
-183.59
 10
69.519
 20
-182.73
 10
68.182
 20
-182.135
 10
66.751
 20
-181.83
 10
65.287
 20
-181.83
 10
63.856
 20
-182.135
 10
62.519
 20
-182.73
 10
61.335
 20
-183.59
 10
60.356
 20
-184.677
 10
59.624
 20
-185.945
 10
59.172
 20
-187.337
 10
59.019
 20
-188.792
 10
59.172
 20
-190.247
 10
59.624
 20
-191.639
 10
60.356
 20
-192.906
 10
61.335
 20
-193.994
 10
62.519
 20
-194.854
 10
63.856
 20
-195.449
 10
65.287
 20
-195.754
 10
66.751
 20
-195.754
 10
68.182
 20
-195.449
 10
69.519
 20
-194.854
 10
70.703
 20
-193.994
 10
71.682
 20
-192.906
 10
72.414
 20
-191.639
 10
72.866
 20
-190.247
 10
73.019
 20
-188.792
 10
72.866
 20
-187.337
 10
72.414
 20
-185.945
 10
71.682
 20
-184.677
  0
LWPOLYLINE
  5
3F
330
17
100
AcDbEntity
  8
CUT
100
AcDbPolyline
 90
31
 70
0
 10
72.476
 20
191.639
 10
71.744
 20
192.906
 10
70.765
 20
193.994
 10
69.581
 20
194.854
 10
68.244
 20
195.449
 10
66.813
 20
195.754
 10
65.35
 20
195.754
 10
63.918
 20
195.449
 10
62.581
 20
194.854
 10
61.397
 20
193.994
 10
60.418
 20
192.906
 10
59.686
 20
191.639
 10
59.234
 20
190.247
 10
59.081
 20
188.792
 10
59.234
 20
187.337
 10
59.686
 20
185.945
 10
60.418
 20
184.677
 10
61.397
 20
183.59
 10
62.581
 20
182.73
 10
63.918
 20
182.135
 10
65.35
 20
181.83
 10
66.813
 20
181.83
 10
68.244
 20
182.135
 10
69.581
 20
182.73
 10
70.765
 20
183.59
 10
71.744
 20
184.677
 10
72.476
 20
185.945
 10
72.928
 20
187.337
 10
73.081
 20
188.792
 10
72.928
 20
190.247
 10
72.476
 20
191.639
  0
LWPOLYLINE
  5
40
330
17
100
AcDbEntity
  8
CUT
100
AcDbPolyline
 90
31
 70
0
 10
72.866
 20
-232.337
 10
72.414
 20
-230.945
 10
71.682
 20
-229.677
 10
70.703
 20
-228.59
 10
69.519
 20
-227.73
 10
68.182
 20
-227.135
 10
66.751
 20
-226.83
 10
65.287
 20
-226.83
 10
63.856
 20
-227.135
 10
62.519
 20
-227.73
 10
61.335
 20
-228.59
 10
60.356
 20
-229.677
 10
59.624
 20
-230.945
 10
59.172
 20
-232.337
 10
59.019
 20
-233.792
 10
59.172
 20
-235.247
 10
59.624
 20
-236.639
 10
60.356
 20
-237.906
 10
61.335
 20
-238.994
 10
62.519
 20
-239.854
 10
63.856
 20
-240.449
 10
65.287
 20
-240.754
 10
66.751
 20
-240.754
 10
68.182
 20
-240.449
 10
69.519
 20
-239.854
 10
70.703
 20
-238.994
 10
71.682
 20
-237.906
 10
72.414
 20
-236.639
 10
72.866
 20
-235.247
 10
73.019
 20
-233.792
 10
72.866
 20
-232.337
  0
LWPOLYLINE
  5
41
330
17
100
AcDbEntity
  8
CUT
100
AcDbPolyline
 90
31
 70
0
 10
73.019
 20
233.792
 10
72.866
 20
235.247
 10
72.414
 20
236.639
 10
71.682
 20
237.906
 10
70.703
 20
238.994
 10
69.519
 20
239.854
 10
68.182
 20
240.449
 10
66.751
 20
240.754
 10
65.287
 20
240.754
 10
63.856
 20
240.449
 10
62.519
 20
239.854
 10
61.335
 20
238.994
 10
60.356
 20
237.906
 10
59.624
 20
236.639
 10
59.172
 20
235.247
 10
59.019
 20
233.792
 10
59.172
 20
232.337
 10
59.624
 20
230.945
 10
60.356
 20
229.677
 10
61.335
 20
228.59
 10
62.519
 20
227.73
 10
63.856
 20
227.135
 10
65.287
 20
226.83
 10
66.751
 20
226.83
 10
68.182
 20
227.135
 10
69.519
 20
227.73
 10
70.703
 20
228.59
 10
71.682
 20
229.677
 10
72.414
 20
230.945
 10
72.866
 20
232.337
 10
73.019
 20
233.792
  0
LWPOLYLINE
  5
42
330
17
100
AcDbEntity
  8
CUT
100
AcDbPolyline
 90
5
 70
0
 10
183.482
 20
-272.75
 10
183.482
 20
272.75
 10
186.482
 20
272.75
 10
186.482
 20
-272.75
 10
183.482
 20
-272.75
  0
LWPOLYLINE
  5
43
330
17
100
AcDbEntity
  8
CUT
100
AcDbPolyline
 90
5
 70
0
 10
751.982
 20
-1.5
 10
206.482
 20
-1.5
 10
206.482
 20
1.5
 10
751.982
 20
1.5
 10
751.982
 20
-1.5
  0
LWPOLYLINE
  5
44
330
17
100
AcDbEntity
  8
CUT
100
AcDbPolyline
 90
5
 70
0
 10
1126.522
 20
-131.25
 10
1123.522
 20
-131.25
 10
1123.522
 20
131.25
 10
1126.522
 20
131.25
 10
1126.522
 20
-131.25
  0
LWPOLYLINE
  5
45
330
17
100
AcDbEntity
  8
CUT
100
AcDbPolyline
 90
73
 70
0
 10
1329.55
 20
143.934
 10
1329.796
 20
143.847
 10
1330.038
 20
143.747
 10
1330.274
 20
143.634
 10
1330.504
 20
143.509
 10
1330.728
 20
143.372
 10
1330.943
 20
143.224
 10
1331.151
 20
143.065
 10
1331.35
 20
142.895
 10
1331.54
 20
142.714
 10
1331.72
 20
142.525
 10
1331.89
 20
142.326
 10
1332.05
 20
142.118
 10
1332.198
 20
141.902
 10
1332.335
 20
141.679
 10
1332.459
 20
141.449
 10
1332.572
 20
141.213
 10
1332.672
 20
140.971
 10
1332.76
 20
140.724
 10
1332.834
 20
140.473
 10
1332.895
 20
140.219
 10
1332.943
 20
139.961
 10
1332.977
 20
139.702
 10
1332.998
 20
139.441
 10
1333.004
 20
139.179
 10
1333.004
 20
-123.321
 10
1292.502
 20
-163.823
 10
1268.765
 20
-169.321
 10
1233.761
 20
-169.321
 10
1210.024
 20
-163.823
 10
1169.522
 20
-123.321
 10
1169.522
 20
139.179
 10
1169.529
 20
139.441
 10
1169.55
 20
139.702
 10
1169.584
 20
139.961
 10
1169.631
 20
140.219
 10
1169.692
 20
140.473
 10
1169.767
 20
140.724
 10
1169.854
 20
140.971
 10
1169.954
 20
141.213
 10
1170.067
 20
141.449
 10
1170.192
 20
141.679
 10
1170.329
 20
141.902
 10
1170.477
 20
142.118
 10
1170.636
 20
142.326
 10
1170.806
 20
142.525
 10
1170.987
 20
142.714
 10
1171.176
 20
142.895
 10
1171.376
 20
143.065
 10
1171.583
 20
143.224
 10
1171.799
 20
143.372
 10
1172.022
 20
143.509
 10
1172.252
 20
143.634
 10
1172.488
 20
143.747
 10
1172.73
 20
143.847
 10
1172.977
 20
143.934
 10
1173.228
 20
144.009
 10
1173.483
 20
144.07
 10
1173.74
 20
144.117
 10
1173.999
 20
144.152
 10
1174.26
 20
144.172
 10
1174.522
 20
144.179
 10
1210.024
 20
144.179
 10
1233.761
 20
144.179
 10
1268.765
 20
144.179
 10
1292.502
 20
144.179
 10
1328.004
 20
144.179
 10
1328.266
 20
144.172
 10
1328.527
 20
144.152
 10
1328.787
 20
144.117
 10
1329.044
 20
144.07
 10
1329.299
 20
144.009
 10
1329.55
 20
143.934
  0
LWPOLYLINE
  5
46
330
17
100
AcDbEntity
  8
CUT
100
AcDbPolyline
 90
31
 70
0
 10
1256.288
 20
131.416
 10
1255.713
 20
132.412
 10
1254.943
 20
133.266
 10
1254.013
 20
133.942
 10
1252.963
 20
134.41
 10
1251.838
 20
134.649
 10
1250.688
 20
134.649
 10
1249.564
 20
134.41
 10
1248.513
 20
133.942
 10
1247.583
 20
133.266
 10
1246.814
 20
132.412
 10
1246.239
 20
131.416
 10
1245.883
 20
130.322
 10
1245.763
 20
129.179
 10
1245.883
 20
128.035
 10
1246.239
 20
126.942
 10
1246.814
 20
125.946
 10
1247.583
 20
125.092
 10
1248.513
 20
124.416
 10
1249.564
 20
123.948
 10
1250.688
 20
123.709
 10
1251.838
 20
123.709
 10
1252.963
 20
123.948
 10
1254.013
 20
124.416
 10
1254.943
 20
125.092
 10
1255.713
 20
125.946
 10
1256.288
 20
126.942
 10
1256.643
 20
128.035
 10
1256.763
 20
129.179
 10
1256.643
 20
130.322
 10
1256.288
 20
131.416
  0
LWPOLYLINE
  5
47
330
17
100
AcDbEntity
  8
CUT
100
AcDbPolyline
 90
31
 70
0
 10
1256.643
 20
70.322
 10
1256.288
 20
71.416
 10
1255.713
 20
72.412
 10
1254.943
 20
73.266
 10
1254.013
 20
73.942
 10
1252.963
 20
74.41
 10
1251.838
 20
74.649
 10
1250.688
 20
74.649
 10
1249.564
 20
74.41
 10
1248.513
 20
73.942
 10
1247.583
 20
73.266
 10
1246.814
 20
72.412
 10
1246.239
 20
71.416
 10
1245.883
 20
70.322
 10
1245.763
 20
69.179
 10
1245.883
 20
68.035
 10
1246.239
 20
66.942
 10
1246.814
 20
65.946
 10
1247.583
 20
65.092
 10
1248.513
 20
64.416
 10
1249.564
 20
63.948
 10
1250.688
 20
63.709
 10
1251.838
 20
63.709
 10
1252.963
 20
63.948
 10
1254.013
 20
64.416
 10
1254.943
 20
65.092
 10
1255.713
 20
65.946
 10
1256.288
 20
66.942
 10
1256.643
 20
68.035
 10
1256.763
 20
69.179
 10
1256.643
 20
70.322
  0
LWPOLYLINE
  5
48
330
17
100
AcDbEntity
  8
CUT
100
AcDbPolyline
 90
31
 70
0
 10
1256.763
 20
-62.821
 10
1256.643
 20
-61.678
 10
1256.288
 20
-60.584
 10
1255.713
 20
-59.588
 10
1254.943
 20
-58.734
 10
1254.013
 20
-58.058
 10
1252.963
 20
-57.59
 10
1251.838
 20
-57.351
 10
1250.688
 20
-57.351
 10
1249.564
 20
-57.59
 10
1248.513
 20
-58.058
 10
1247.583
 20
-58.734
 10
1246.814
 20
-59.588
 10
1246.239
 20
-60.584
 10
1245.883
 20
-61.678
 10
1245.763
 20
-62.821
 10
1245.883
 20
-63.965
 10
1246.239
 20
-65.058
 10
1246.814
 20
-66.054
 10
1247.583
 20
-66.908
 10
1248.513
 20
-67.584
 10
1249.564
 20
-68.052
 10
1250.688
 20
-68.291
 10
1251.838
 20
-68.291
 10
1252.963
 20
-68.052
 10
1254.013
 20
-67.584
 10
1254.943
 20
-66.908
 10
1255.713
 20
-66.054
 10
1256.288
 20
-65.058
 10
1256.643
 20
-63.965
 10
1256.763
 20
-62.821
  0
LWPOLYLINE
  5
49
330
17
100
AcDbEntity
  8
CUT
100
AcDbPolyline
 90
31
 70
0
 10
1256.643
 20
-138.965
 10
1256.763
 20
-137.821
 10
1256.643
 20
-136.678
 10
1256.288
 20
-135.584
 10
1255.713
 20
-134.588
 10
1254.943
 20
-133.734
 10
1254.013
 20
-133.058
 10
1252.963
 20
-132.59
 10
1251.838
 20
-132.351
 10
1250.688
 20
-132.351
 10
1249.564
 20
-132.59
 10
1248.513
 20
-133.058
 10
1247.583
 20
-133.734
 10
1246.814
 20
-134.588
 10
1246.239
 20
-135.584
 10
1245.883
 20
-136.678
 10
1245.763
 20
-137.821
 10
1245.883
 20
-138.965
 10
1246.239
 20
-140.058
 10
1246.814
 20
-141.054
 10
1247.583
 20
-141.908
 10
1248.513
 20
-142.584
 10
1249.564
 20
-143.052
 10
1250.688
 20
-143.291
 10
1251.838
 20
-143.291
 10
1252.963
 20
-143.052
 10
1254.013
 20
-142.584
 10
1254.943
 20
-141.908
 10
1255.713
 20
-141.054
 10
1256.288
 20
-140.058
 10
1256.643
 20
-138.965
  0
LWPOLYLINE
  5
4A
330
17
100
AcDbEntity
  8
CUT
100
AcDbPolyline
 90
73
 70
0
 10
1498.096
 20
143.747
 10
1498.332
 20
143.634
 10
1498.562
 20
143.509
 10
1498.785
 20
143.372
 10
1499.001
 20
143.224
 10
1499.209
 20
143.065
 10
1499.408
 20
142.895
 10
1499.597
 20
142.714
 10
1499.778
 20
142.525
 10
1499.948
 20
142.326
 10
1500.107
 20
142.118
 10
1500.255
 20
141.902
 10
1500.392
 20
141.679
 10
1500.517
 20
141.449
 10
1500.63
 20
141.213
 10
1500.73
 20
140.971
 10
1500.817
 20
140.724
 10
1500.892
 20
140.473
 10
1500.953
 20
140.219
 10
1501.0
 20
139.961
 10
1501.035
 20
139.702
 10
1501.055
 20
139.441
 10
1501.062
 20
139.179
 10
1501.062
 20
-123.321
 10
1460.56
 20
-163.823
 10
1444.535
 20
-169.321
 10
1409.531
 20
-169.321
 10
1393.507
 20
-163.823
 10
1353.004
 20
-123.321
 10
1353.004
 20
139.179
 10
1353.011
 20
139.441
 10
1353.032
 20
139.702
 10
1353.066
 20
139.961
 10
1353.114
 20
140.219
 10
1353.175
 20
140.473
 10
1353.249
 20
140.724
 10
1353.337
 20
140.971
 10
1353.437
 20
141.213
 10
1353.549
 20
141.449
 10
1353.674
 20
141.679
 10
1353.811
 20
141.902
 10
1353.959
 20
142.118
 10
1354.119
 20
142.326
 10
1354.289
 20
142.525
 10
1354.469
 20
142.714
 10
1354.659
 20
142.895
 10
1354.858
 20
143.065
 10
1355.065
 20
143.224
 10
1355.281
 20
143.372
 10
1355.504
 20
143.509
 10
1355.734
 20
143.634
 10
1355.971
 20
143.747
 10
1356.213
 20
143.847
 10
1356.459
 20
143.934
 10
1356.71
 20
144.009
 10
1356.965
 20
144.07
 10
1357.222
 20
144.117
 10
1357.482
 20
144.152
 10
1357.743
 20
144.172
 10
1358.004
 20
144.179
 10
1393.507
 20
144.179
 10
1409.531
 20
144.179
 10
1444.535
 20
144.179
 10
1460.56
 20
144.179
 10
1496.062
 20
144.179
 10
1496.324
 20
144.172
 10
1496.585
 20
144.152
 10
1496.844
 20
144.117
 10
1497.102
 20
144.07
 10
1497.356
 20
144.009
 10
1497.607
 20
143.934
 10
1497.854
 20
143.847
 10
1498.096
 20
143.747
  0
LWPOLYLINE
  5
4B
330
17
100
AcDbEntity
  8
CUT
100
AcDbPolyline
 90
31
 70
0
 10
1432.058
 20
131.416
 10
1431.483
 20
132.412
 10
1430.713
 20
133.266
 10
1429.783
 20
133.942
 10
1428.733
 20
134.41
 10
1427.608
 20
134.649
 10
1426.458
 20
134.649
 10
1425.334
 20
134.41
 10
1424.283
 20
133.942
 10
1423.353
 20
133.266
 10
1422.584
 20
132.412
 10
1422.009
 20
131.416
 10
1421.653
 20
130.322
 10
1421.533
 20
129.179
 10
1421.653
 20
128.035
 10
1422.009
 20
126.942
 10
1422.584
 20
125.946
 10
1423.353
 20
125.092
 10
1424.283
 20
124.416
 10
1425.334
 20
123.948
 10
1426.458
 20
123.709
 10
1427.608
 20
123.709
 10
1428.733
 20
123.948
 10
1429.783
 20
124.416
 10
1430.713
 20
125.092
 10
1431.483
 20
125.946
 10
1432.058
 20
126.942
 10
1432.413
 20
128.035
 10
1432.533
 20
129.179
 10
1432.413
 20
130.322
 10
1432.058
 20
131.416
  0
LWPOLYLINE
  5
4C
330
17
100
AcDbEntity
  8
CUT
100
AcDbPolyline
 90
31
 70
0
 10
1432.413
 20
70.322
 10
1432.058
 20
71.416
 10
1431.483
 20
72.412
 10
1430.713
 20
73.266
 10
1429.783
 20
73.942
 10
1428.733
 20
74.41
 10
1427.608
 20
74.649
 10
1426.458
 20
74.649
 10
1425.334
 20
74.41
 10
1424.283
 20
73.942
 10
1423.353
 20
73.266
 10
1422.584
 20
72.412
 10
1422.009
 20
71.416
 10
1421.653
 20
70.322
 10
1421.533
 20
69.179
 10
1421.653
 20
68.035
 10
1422.009
 20
66.942
 10
1422.584
 20
65.946
 10
1423.353
 20
65.092
 10
1424.283
 20
64.416
 10
1425.334
 20
63.948
 10
1426.458
 20
63.709
 10
1427.608
 20
63.709
 10
1428.733
 20
63.948
 10
1429.783
 20
64.416
 10
1430.713
 20
65.092
 10
1431.483
 20
65.946
 10
1432.058
 20
66.942
 10
1432.413
 20
68.035
 10
1432.533
 20
69.179
 10
1432.413
 20
70.322
  0
LWPOLYLINE
  5
4D
330
17
100
AcDbEntity
  8
CUT
100
AcDbPolyline
 90
31
 70
0
 10
1432.533
 20
-62.821
 10
1432.413
 20
-61.678
 10
1432.058
 20
-60.584
 10
1431.483
 20
-59.588
 10
1430.713
 20
-58.734
 10
1429.783
 20
-58.058
 10
1428.733
 20
-57.59
 10
1427.608
 20
-57.351
 10
1426.458
 20
-57.351
 10
1425.334
 20
-57.59
 10
1424.283
 20
-58.058
 10
1423.353
 20
-58.734
 10
1422.584
 20
-59.588
 10
1422.009
 20
-60.584
 10
1421.653
 20
-61.678
 10
1421.533
 20
-62.821
 10
1421.653
 20
-63.965
 10
1422.009
 20
-65.058
 10
1422.584
 20
-66.054
 10
1423.353
 20
-66.908
 10
1424.283
 20
-67.584
 10
1425.334
 20
-68.052
 10
1426.458
 20
-68.291
 10
1427.608
 20
-68.291
 10
1428.733
 20
-68.052
 10
1429.783
 20
-67.584
 10
1430.713
 20
-66.908
 10
1431.483
 20
-66.054
 10
1432.058
 20
-65.058
 10
1432.413
 20
-63.965
 10
1432.533
 20
-62.821
  0
LWPOLYLINE
  5
4E
330
17
100
AcDbEntity
  8
CUT
100
AcDbPolyline
 90
31
 70
0
 10
1432.413
 20
-138.965
 10
1432.533
 20
-137.821
 10
1432.413
 20
-136.678
 10
1432.058
 20
-135.584
 10
1431.483
 20
-134.588
 10
1430.713
 20
-133.734
 10
1429.783
 20
-133.058
 10
1428.733
 20
-132.59
 10
1427.608
 20
-132.351
 10
1426.458
 20
-132.351
 10
1425.334
 20
-132.59
 10
1424.283
 20
-133.058
 10
1423.353
 20
-133.734
 10
1422.584
 20
-134.588
 10
1422.009
 20
-135.584
 10
1421.653
 20
-136.678
 10
1421.533
 20
-137.821
 10
1421.653
 20
-138.965
 10
1422.009
 20
-140.058
 10
1422.584
 20
-141.054
 10
1423.353
 20
-141.908
 10
1424.283
 20
-142.584
 10
1425.334
 20
-143.052
 10
1426.458
 20
-143.291
 10
1427.608
 20
-143.291
 10
1428.733
 20
-143.052
 10
1429.783
 20
-142.584
 10
1430.713
 20
-141.908
 10
1431.483
 20
-141.054
 10
1432.058
 20
-140.058
 10
1432.413
 20
-138.965
  0
LWPOLYLINE
  5
4F
330
17
100
AcDbEntity
  8
CUT
100
AcDbPolyline
 90
5
 70
0
 10
1146.522
 20
131.25
 10
1149.522
 20
131.25
 10
1149.522
 20
-131.25
 10
1146.522
 20
-131.25
 10
1146.522
 20
131.25
  0
LWPOLYLINE
  5
50
330
17
100
AcDbEntity
  8
CUT
100
AcDbPolyline
 90
5
 70
0
 10
1521.062
 20
-131.25
 10
1521.062
 20
131.25
 10
1524.062
 20
131.25
 10
1524.062
 20
-131.25
 10
1521.062
 20
-131.25
  0
LWPOLYLINE
  5
51
330
17
100
AcDbEntity
  8
CUT
100
AcDbPolyline
 90
5
 70
0
 10
1806.562
 20
-1.5
 10
1544.062
 20
-1.5
 10
1544.062
 20
1.5
 10
1806.562
 20
1.5
 10
1806.562
 20
-1.5
  0
LINE
  5
52
330
17
100
AcDbEntity
  8
BEND_LINES
  6
DASHED
100
AcDbLine
 10
27.402909155820232
 20
315.0165460287622
 30
0.0
 11
27.40290915582021
 21
309.0165460287622
 31
0.0
  0
LINE
  5
53
330
17
100
AcDbEntity
  8
BEND_LINES
  6
DASHED
100
AcDbLine
 10
27.402909155818193
 20
-309.01654602876175
 30
0.0
 11
27.402909155818172
 21
-315.01654602876175
 31
0.0
  0
LINE
  5
54
330
17
100
AcDbEntity
  8
BEND_LINES
  6
DASHED
100
AcDbLine
 10
86.14405923816757
 20
316.985419207472
 30
0.0
 11
86.14405923816756
 21
310.985419207472
 31
0.0
  0
LINE
  5
55
330
17
100
AcDbEntity
  8
BEND_LINES
  6
DASHED
100
AcDbLine
 10
86.14405923816545
 20
-310.9854192074725
 30
0.0
 11
86.14405923816544
 21
-316.9854192074725
 31
0.0
  0
LINE
  5
56
330
17
100
AcDbEntity
  8
BEND_LINES
  6
DASHED
100
AcDbLine
 10
887.3440259882144
 20
-163.82326668546486
 30
0.0
 11
887.3440259882155
 21
144.17894617075416
 31
0.0
  0
LINE
  5
57
330
17
100
AcDbEntity
  8
BEND_LINES
  6
DASHED
100
AcDbLine
 10
828.6028759058704
 20
144.17894617075436
 30
0.0
 11
828.6028759058695
 21
-169.3210538292468
 31
0.0
  0
LINE
  5
58
330
17
100
AcDbEntity
  8
BEND_LINES
  6
DASHED
100
AcDbLine
 10
1001.2289817803731
 20
-163.8232666854649
 30
0.0
 11
1001.2289817803722
 21
144.17894617075413
 31
0.0
  0
LINE
  5
59
330
17
100
AcDbEntity
  8
BEND_LINES
  6
DASHED
100
AcDbLine
 10
1052.2577428823324
 20
144.17894617075427
 30
0.0
 11
1052.2577428823336
 21
-169.32105382924524
 31
0.0
  0
LINE
  5
5A
330
17
100
AcDbEntity
  8
BEND_LINES
  6
DASHED
100
AcDbLine
 10
1284.8838491568322
 20
-163.82326668546477
 30
0.0
 11
1284.883849156834
 21
144.17894617075422
 31
0.0
  0
LINE
  5
5B
330
17
100
AcDbEntity
  8
BEND_LINES
  6
DASHED
100
AcDbLine
 10
1226.142699074489
 20
144.1789461707545
 30
0.0
 11
1226.1426990744872
 21
-169.32105382924667
 31
0.0
  0
LINE
  5
5C
330
17
100
AcDbEntity
  8
BEND_LINES
  6
DASHED
100
AcDbLine
 10
1398.768804948992
 20
-163.82326668546477
 30
0.0
 11
1398.7688049489905
 21
144.17894617075416
 31
0.0
  0
LINE
  5
5D
330
17
100
AcDbEntity
  8
BEND_LINES
  6
DASHED
100
AcDbLine
 10
1449.7975660509505
 20
144.1789461707544
 30
0.0
 11
1449.7975660509524
 21
-169.3210538292452
 31
0.0
  0
ENDSEC
  0
SECTION
  2
OBJECTS
  0
DICTIONARY
  5
A
330
0
100
AcDbDictionary
281
1
  3
ACAD_COLOR
350
B
  3
ACAD_GROUP
350
C
  3
ACAD_LAYOUT
350
D
  3
ACAD_MATERIAL
350
E
  3
ACAD_MLEADERSTYLE
350
F
  3
ACAD_MLINESTYLE
350
10
  3
ACAD_PLOTSETTINGS
350
11
  3
ACAD_PLOTSTYLENAME
350
12
  3
ACAD_SCALELIST
350
14
  3
ACAD_TABLESTYLE
350
15
  3
ACAD_VISUALSTYLE
350
16
  3
EZDXF_META
350
2D
  0
DICTIONARY
  5
B
330
A
100
AcDbDictionary
281
1
  0
DICTIONARY
  5
C
330
A
100
AcDbDictionary
281
1
  0
DICTIONARY
  5
D
330
A
100
AcDbDictionary
281
1
  3
Model
350
1A
  3
Layout1
350
1E
  0
DICTIONARY
  5
E
330
A
100
AcDbDictionary
281
1
  3
ByBlock
350
1F
  3
ByLayer
350
20
  3
Global
350
21
  0
DICTIONARY
  5
F
330
A
100
AcDbDictionary
281
1
  3
Standard
350
2C
  0
DICTIONARY
  5
10
330
A
100
AcDbDictionary
281
1
  3
Standard
350
22
  0
DICTIONARY
  5
11
330
A
100
AcDbDictionary
281
1
  0
ACDBDICTIONARYWDFLT
  5
12
330
A
100
AcDbDictionary
281
1
  3
Normal
350
13
100
AcDbDictionaryWithDefault
340
13
  0
ACDBPLACEHOLDER
  5
13
330
12
  0
DICTIONARY
  5
14
330
A
100
AcDbDictionary
281
1
  0
DICTIONARY
  5
15
330
A
100
AcDbDictionary
281
1
  0
DICTIONARY
  5
16
330
A
100
AcDbDictionary
281
1
  0
LAYOUT
  5
1A
330
D
100
AcDbPlotSettings
  1

  4
A3
  6

 40
7.5
 41
20.0
 42
7.5
 43
20.0
 44
420.0
 45
297.0
 46
0.0
 47
0.0
 48
0.0
 49
0.0
140
0.0
141
0.0
142
1.0
143
1.0
 70
1024
 72
1
 73
0
 74
5
  7

 75
16
 76
0
 77
2
 78
300
147
1.0
148
0.0
149
0.0
100
AcDbLayout
  1
Model
 70
1
 71
0
 10
0.0
 20
0.0
 11
420.0
 21
297.0
 12
0.0
 22
0.0
 32
0.0
 14
1e+20
 24
1e+20
 34
1e+20
 15
-1e+20
 25
-1e+20
 35
-1e+20
146
0.0
 13
0.0
 23
0.0
 33
0.0
 16
1.0
 26
0.0
 36
0.0
 17
0.0
 27
1.0
 37
0.0
 76
1
330
17
  0
LAYOUT
  5
1E
330
D
100
AcDbPlotSettings
  1

  4
A3
  6

 40
7.5
 41
20.0
 42
7.5
 43
20.0
 44
420.0
 45
297.0
 46
0.0
 47
0.0
 48
0.0
 49
0.0
140
0.0
141
0.0
142
1.0
143
1.0
 70
0
 72
1
 73
0
 74
5
  7

 75
16
 76
0
 77
2
 78
300
147
1.0
148
0.0
149
0.0
100
AcDbLayout
  1
Layout1
 70
1
 71
1
 10
0.0
 20
0.0
 11
420.0
 21
297.0
 12
0.0
 22
0.0
 32
0.0
 14
1e+20
 24
1e+20
 34
1e+20
 15
-1e+20
 25
-1e+20
 35
-1e+20
146
0.0
 13
0.0
 23
0.0
 33
0.0
 16
1.0
 26
0.0
 36
0.0
 17
0.0
 27
1.0
 37
0.0
 76
1
330
1B
  0
MATERIAL
  5
1F
102
{ACAD_REACTORS
330
E
102
}
330
E
100
AcDbMaterial
  1
ByBlock
  2

 70
0
 40
1.0
 71
1
 41
1.0
 91
-1023410177
 42
1.0
 72
1
  3

 73
1
 74
1
 75
1
 44
0.5
 73
0
 45
1.0
 46
1.0
 77
1
  4

 78
1
 79
1
170
1
 48
1.0
171
1
  6

172
1
173
1
174
1
140
1.0
141
1.0
175
1
  7

176
1
177
1
178
1
143
1.0
179
1
  8

270
1
271
1
272
1
145
1.0
146
1.0
273
1
  9

274
1
275
1
276
1
 42
1.0
 72
1
  3

 73
1
 74
1
 75
1
 94
63
  0
MATERIAL
  5
20
102
{ACAD_REACTORS
330
E
102
}
330
E
100
AcDbMaterial
  1
ByLayer
  2

 70
0
 40
1.0
 71
1
 41
1.0
 91
-1023410177
 42
1.0
 72
1
  3

 73
1
 74
1
 75
1
 44
0.5
 73
0
 45
1.0
 46
1.0
 77
1
  4

 78
1
 79
1
170
1
 48
1.0
171
1
  6

172
1
173
1
174
1
140
1.0
141
1.0
175
1
  7

176
1
177
1
178
1
143
1.0
179
1
  8

270
1
271
1
272
1
145
1.0
146
1.0
273
1
  9

274
1
275
1
276
1
 42
1.0
 72
1
  3

 73
1
 74
1
 75
1
 94
63
  0
MATERIAL
  5
21
102
{ACAD_REACTORS
330
E
102
}
330
E
100
AcDbMaterial
  1
Global
  2

 70
0
 40
1.0
 71
1
 41
1.0
 91
-1023410177
 42
1.0
 72
1
  3

 73
1
 74
1
 75
1
 44
0.5
 73
0
 45
1.0
 46
1.0
 77
1
  4

 78
1
 79
1
170
1
 48
1.0
171
1
  6

172
1
173
1
174
1
140
1.0
141
1.0
175
1
  7

176
1
177
1
178
1
143
1.0
179
1
  8

270
1
271
1
272
1
145
1.0
146
1.0
273
1
  9

274
1
275
1
276
1
 42
1.0
 72
1
  3

 73
1
 74
1
 75
1
 94
63
  0
MLINESTYLE
  5
22
102
{ACAD_REACTORS
330
10
102
}
330
10
100
AcDbMlineStyle
  2
Standard
 70
0
  3

 62
256
 51
90.0
 52
90.0
 71
2
 49
0.5
 62
256
  6
BYLAYER
 49
-0.5
 62
256
  6
BYLAYER
  0
MLEADERSTYLE
  5
2C
102
{ACAD_REACTORS
330
F
102
}
330
F
100
AcDbMLeaderStyle
179
2
170
2
171
1
172
0
 90
2
 40
0.0
 41
0.0
173
1
 91
-1056964608
 92
-2
290
1
 42
2.0
291
1
 43
8.0
  3
Standard
 44
4.0
300

342
29
174
1
175
1
176
0
178
1
 93
-1056964608
 45
4.0
292
0
297
0
 46
4.0
 94
-1056964608
 47
1.0
 49
1.0
140
1.0
294
1
141
0.0
177
0
142
1.0
295
0
296
0
143
3.75
271
0
272
9
273
9
  0
DICTIONARY
  5
2D
330
A
100
AcDbDictionary
280
1
281
1
  3
CREATED_BY_EZDXF
350
2E
  3
WRITTEN_BY_EZDXF
350
60
  0
DICTIONARYVAR
  5
2E
330
2D
100
DictionaryVariables
280
0
  1
1.4.4 @ 2026-07-22T09:11:46.287469+00:00
  0
DICTIONARYVAR
  5
60
330
2D
100
DictionaryVariables
280
0
  1
1.4.4 @ 2026-07-22T09:11:46.295471+00:00
  0
ENDSEC
  0
EOF
