  0
SECTION
  2
HEADER
  9
$ACADVER
  1
AC1024
  9
$ACADMAINTVER
 70
6
  9
$DWGCODEPAGE
  3
ANSI_1252
  9
$LASTSAVEDBY
  1
ezdxf
  9
$INSBASE
 10
0.0
 20
0.0
 30
0.0
  9
$EXTMIN
 10
1e+20
 20
1e+20
 30
1e+20
  9
$EXTMAX
 10
-1e+20
 20
-1e+20
 30
-1e+20
  9
$LIMMIN
 10
0.0
 20
0.0
  9
$LIMMAX
 10
420.0
 20
297.0
  9
$ORTHOMODE
 70
0
  9
$REGENMODE
 70
1
  9
$FILLMODE
 70
1
  9
$QTEXTMODE
 70
0
  9
$MIRRTEXT
 70
1
  9
$LTSCALE
 40
1.0
  9
$ATTMODE
 70
1
  9
$TEXTSIZE
 40
2.5
  9
$TRACEWID
 40
1.0
  9
$TEXTSTYLE
  7
Standard
  9
$CLAYER
  8
0
  9
$CELTYPE
  6
ByLayer
  9
$CECOLOR
 62
256
  9
$CELTSCALE
 40
1.0
  9
$DISPSILH
 70
0
  9
$DIMSCALE
 40
1.0
  9
$DIMASZ
 40
2.5
  9
$DIMEXO
 40
0.625
  9
$DIMDLI
 40
3.75
  9
$DIMRND
 40
0.0
  9
$DIMDLE
 40
0.0
  9
$DIMEXE
 40
1.25
  9
$DIMTP
 40
0.0
  9
$DIMTM
 40
0.0
  9
$DIMTXT
 40
2.5
  9
$DIMCEN
 40
2.5
  9
$DIMTSZ
 40
0.0
  9
$DIMTOL
 70
0
  9
$DIMLIM
 70
0
  9
$DIMTIH
 70
0
  9
$DIMTOH
 70
0
  9
$DIMSE1
 70
0
  9
$DIMSE2
 70
0
  9
$DIMTAD
 70
1
  9
$DIMZIN
 70
8
  9
$DIMBLK
  1

  9
$DIMASO
 70
1
  9
$DIMSHO
 70
1
  9
$DIMPOST
  1

  9
$DIMAPOST
  1

  9
$DIMALT
 70
0
  9
$DIMALTD
 70
3
  9
$DIMALTF
 40
0.03937007874
  9
$DIMLFAC
 40
1.0
  9
$DIMTOFL
 70
1
  9
$DIMTVP
 40
0.0
  9
$DIMTIX
 70
0
  9
$DIMSOXD
 70
0
  9
$DIMSAH
 70
0
  9
$DIMBLK1
  1

  9
$DIMBLK2
  1

  9
$DIMSTYLE
  2
ISO-25
  9
$DIMCLRD
 70
0
  9
$DIMCLRE
 70
0
  9
$DIMCLRT
 70
0
  9
$DIMTFAC
 40
1.0
  9
$DIMGAP
 40
0.625
  9
$DIMJUST
 70
0
  9
$DIMSD1
 70
0
  9
$DIMSD2
 70
0
  9
$DIMTOLJ
 70
0
  9
$DIMTZIN
 70
8
  9
$DIMALTZ
 70
0
  9
$DIMALTTZ
 70
0
  9
$DIMUPT
 70
0
  9
$DIMDEC
 70
2
  9
$DIMTDEC
 70
2
  9
$DIMALTU
 70
2
  9
$DIMALTTD
 70
3
  9
$DIMTXSTY
  7
Standard
  9
$DIMAUNIT
 70
0
  9
$DIMADEC
 70
0
  9
$DIMALTRND
 40
0.0
  9
$DIMAZIN
 70
0
  9
$DIMDSEP
 70
44
  9
$DIMATFIT
 70
3
  9
$DIMFRAC
 70
0
  9
$DIMLDRBLK
  1

  9
$DIMLUNIT
 70
2
  9
$DIMLWD
 70
-2
  9
$DIMLWE
 70
-2
  9
$DIMTMOVE
 70
0
  9
$DIMFXL
 40
1.0
  9
$DIMFXLON
 70
0
  9
$DIMJOGANG
 40
0.785398163397
  9
$DIMTFILL
 70
0
  9
$DIMTFILLCLR
 70
0
  9
$DIMARCSYM
 70
0
  9
$DIMLTYPE
  6

  9
$DIMLTEX1
  6

  9
$DIMLTEX2
  6

  9
$DIMTXTDIRECTION
 70
0
  9
$LUNITS
 70
2
  9
$LUPREC
 70
4
  9
$SKETCHINC
 40
1.0
  9
$FILLETRAD
 40
10.0
  9
$AUNITS
 70
0
  9
$AUPREC
 70
2
  9
$MENU
  1
.
  9
$ELEVATION
 40
0.0
  9
$PELEVATION
 40
0.0
  9
$THICKNESS
 40
0.0
  9
$LIMCHECK
 70
0
  9
$CHAMFERA
 40
0.0
  9
$CHAMFERB
 40
0.0
  9
$CHAMFERC
 40
0.0
  9
$CHAMFERD
 40
0.0
  9
$SKPOLY
 70
0
  9
$TDCREATE
 40
2461244.6149884257
  9
$TDUCREATE
 40
2458532.153996898
  9
$TDUPDATE
 40
2461244.6149884257
  9
$TDUUPDATE
 40
2458532.1544311
  9
$TDINDWG
 40
0.0
  9
$TDUSRTIMER
 40
0.0
  9
$USRTIMER
 70
1
  9
$ANGBASE
 50
0.0
  9
$ANGDIR
 70
0
  9
$PDMODE
 70
0
  9
$PDSIZE
 40
0.0
  9
$PLINEWID
 40
0.0
  9
$SPLFRAME
 70
0
  9
$SPLINETYPE
 70
6
  9
$SPLINESEGS
 70
8
  9
$HANDSEED
  5
64
  9
$SURFTAB1
 70
6
  9
$SURFTAB2
 70
6
  9
$SURFTYPE
 70
6
  9
$SURFU
 70
6
  9
$SURFV
 70
6
  9
$UCSBASE
  2

  9
$UCSNAME
  2

  9
$UCSORG
 10
0.0
 20
0.0
 30
0.0
  9
$UCSXDIR
 10
1.0
 20
0.0
 30
0.0
  9
$UCSYDIR
 10
0.0
 20
1.0
 30
0.0
  9
$UCSORTHOREF
  2

  9
$UCSORTHOVIEW
 70
0
  9
$UCSORGTOP
 10
0.0
 20
0.0
 30
0.0
  9
$UCSORGBOTTOM
 10
0.0
 20
0.0
 30
0.0
  9
$UCSORGLEFT
 10
0.0
 20
0.0
 30
0.0
  9
$UCSORGRIGHT
 10
0.0
 20
0.0
 30
0.0
  9
$UCSORGFRONT
 10
0.0
 20
0.0
 30
0.0
  9
$UCSORGBACK
 10
0.0
 20
0.0
 30
0.0
  9
$PUCSBASE
  2

  9
$PUCSNAME
  2

  9
$PUCSORG
 10
0.0
 20
0.0
 30
0.0
  9
$PUCSXDIR
 10
1.0
 20
0.0
 30
0.0
  9
$PUCSYDIR
 10
0.0
 20
1.0
 30
0.0
  9
$PUCSORTHOREF
  2

  9
$PUCSORTHOVIEW
 70
0
  9
$PUCSORGTOP
 10
0.0
 20
0.0
 30
0.0
  9
$PUCSORGBOTTOM
 10
0.0
 20
0.0
 30
0.0
  9
$PUCSORGLEFT
 10
0.0
 20
0.0
 30
0.0
  9
$PUCSORGRIGHT
 10
0.0
 20
0.0
 30
0.0
  9
$PUCSORGFRONT
 10
0.0
 20
0.0
 30
0.0
  9
$PUCSORGBACK
 10
0.0
 20
0.0
 30
0.0
  9
$USERI1
 70
0
  9
$USERI2
 70
0
  9
$USERI3
 70
0
  9
$USERI4
 70
0
  9
$USERI5
 70
0
  9
$USERR1
 40
0.0
  9
$USERR2
 40
0.0
  9
$USERR3
 40
0.0
  9
$USERR4
 40
0.0
  9
$USERR5
 40
0.0
  9
$WORLDVIEW
 70
1
  9
$SHADEDGE
 70
3
  9
$SHADEDIF
 70
70
  9
$TILEMODE
 70
1
  9
$MAXACTVP
 70
64
  9
$PINSBASE
 10
0.0
 20
0.0
 30
0.0
  9
$PLIMCHECK
 70
0
  9
$PEXTMIN
 10
1e+20
 20
1e+20
 30
1e+20
  9
$PEXTMAX
 10
-1e+20
 20
-1e+20
 30
-1e+20
  9
$PLIMMIN
 10
0.0
 20
0.0
  9
$PLIMMAX
 10
420.0
 20
297.0
  9
$UNITMODE
 70
0
  9
$VISRETAIN
 70
1
  9
$PLINEGEN
 70
0
  9
$PSLTSCALE
 70
1
  9
$TREEDEPTH
 70
3020
  9
$CMLSTYLE
  2
Standard
  9
$CMLJUST
 70
0
  9
$CMLSCALE
 40
20.0
  9
$PROXYGRAPHICS
 70
1
  9
$MEASUREMENT
 70
1
  9
$CELWEIGHT
370
-1
  9
$ENDCAPS
280
0
  9
$JOINSTYLE
280
0
  9
$LWDISPLAY
290
0
  9
$INSUNITS
 70
6
  9
$HYPERLINKBASE
  1

  9
$STYLESHEET
  1

  9
$XEDIT
290
1
  9
$CEPSNTYPE
380
0
  9
$PSTYLEMODE
290
1
  9
$FINGERPRINTGUID
  2
{817315BD-A8B5-4662-A5EC-A9C1012EFCF8}
  9
$VERSIONGUID
  2
{2BD957A4-F6D1-4F0F-A620-41A0513847B8}
  9
$EXTNAMES
290
1
  9
$PSVPSCALE
 40
0.0
  9
$OLESTARTUP
290
0
  9
$SORTENTS
280
127
  9
$INDEXCTL
280
0
  9
$HIDETEXT
280
1
  9
$XCLIPFRAME
280
1
  9
$HALOGAP
280
0
  9
$OBSCOLOR
 70
257
  9
$OBSLTYPE
280
0
  9
$INTERSECTIONDISPLAY
280
0
  9
$INTERSECTIONCOLOR
 70
257
  9
$DIMASSOC
280
2
  9
$PROJECTNAME
  1

  9
$CAMERADISPLAY
290
0
  9
$LENSLENGTH
 40
50.0
  9
$CAMERAHEIGHT
 40
0.0
  9
$STEPSPERSEC
 40
24.0
  9
$STEPSIZE
 40
100.0
  9
$3DDWFPREC
 40
2.0
  9
$PSOLWIDTH
 40
0.005
  9
$PSOLHEIGHT
 40
0.08
  9
$LOFTANG1
 40
1.570796326795
  9
$LOFTANG2
 40
1.570796326795
  9
$LOFTMAG1
 40
0.0
  9
$LOFTMAG2
 40
0.0
  9
$LOFTPARAM
 70
7
  9
$LOFTNORMALS
280
1
  9
$LATITUDE
 40
37.795
  9
$LONGITUDE
 40
-122.394
  9
$NORTHDIRECTION
 40
0.0
  9
$TIMEZONE
 70
-8000
  9
$LIGHTGLYPHDISPLAY
280
1
  9
$TILEMODELIGHTSYNCH
280
1
  9
$CMATERIAL
347
20
  9
$SOLIDHIST
280
0
  9
$SHOWHIST
280
1
  9
$DWFFRAME
280
2
  9
$DGNFRAME
280
2
  9
$REALWORLDSCALE
290
1
  9
$INTERFERECOLOR
 62
256
  9
$CSHADOW
280
0
  9
$SHADOWPLANELOCATION
 40
0.0
  0
ENDSEC
  0
SECTION
  2
CLASSES
  0
CLASS
  1
ACDBDICTIONARYWDFLT
  2
AcDbDictionaryWithDefault
  3
ObjectDBX Classes
 90
0
 91
0
280
0
281
0
  0
CLASS
  1
SUN
  2
AcDbSun
  3
SCENEOE
 90
1153
 91
0
280
0
281
0
  0
CLASS
  1
VISUALSTYLE
  2
AcDbVisualStyle
  3
ObjectDBX Classes
 90
4095
 91
0
280
0
281
0
  0
CLASS
  1
MATERIAL
  2
AcDbMaterial
  3
ObjectDBX Classes
 90
1153
 91
0
280
0
281
0
  0
CLASS
  1
SCALE
  2
AcDbScale
  3
ObjectDBX Classes
 90
1153
 91
0
280
0
281
0
  0
CLASS
  1
TABLESTYLE
  2
AcDbTableStyle
  3
ObjectDBX Classes
 90
4095
 91
0
280
0
281
0
  0
CLASS
  1
MLEADERSTYLE
  2
AcDbMLeaderStyle
  3
ACDB_MLEADERSTYLE_CLASS
 90
4095
 91
0
280
0
281
0
  0
CLASS
  1
DICTIONARYVAR
  2
AcDbDictionaryVar
  3
ObjectDBX Classes
 90
0
 91
0
280
0
281
0
  0
CLASS
  1
CELLSTYLEMAP
  2
AcDbCellStyleMap
  3
ObjectDBX Classes
 90
1152
 91
0
280
0
281
0
  0
CLASS
  1
MENTALRAYRENDERSETTINGS
  2
AcDbMentalRayRenderSettings
  3
SCENEOE
 90
1024
 91
0
280
0
281
0
  0
CLASS
  1
ACDBDETAILVIEWSTYLE
  2
AcDbDetailViewStyle
  3
ObjectDBX Classes
 90
1025
 91
0
280
0
281
0
  0
CLASS
  1
ACDBSECTIONVIEWSTYLE
  2
AcDbSectionViewStyle
  3
ObjectDBX Classes
 90
1025
 91
0
280
0
281
0
  0
CLASS
  1
RASTERVARIABLES
  2
AcDbRasterVariables
  3
ISM
 90
0
 91
0
280
0
281
0
  0
CLASS
  1
ACDBPLACEHOLDER
  2
AcDbPlaceHolder
  3
ObjectDBX Classes
 90
0
 91
0
280
0
281
0
  0
CLASS
  1
LAYOUT
  2
AcDbLayout
  3
ObjectDBX Classes
 90
0
 91
0
280
0
281
0
  0
ENDSEC
  0
SECTION
  2
TABLES
  0
TABLE
  2
VPORT
  5
8
330
0
100
AcDbSymbolTable
 70
1
  0
VPORT
  5
23
330
8
100
AcDbSymbolTableRecord
100
AcDbViewportTableRecord
  2
*Active
 70
0
 10
0.0
 20
0.0
 11
1.0
 21
1.0
 12
0.0
 22
0.0
 13
0.0
 23
0.0
 14
0.5
 24
0.5
 15
0.5
 25
0.5
 16
0.0
 26
0.0
 36
1.0
 17
0.0
 27
0.0
 37
0.0
 40
1000.0
 41
1.34
 42
50.0
 43
0.0
 44
0.0
 50
0.0
 51
0.0
 71
0
 72
1000
 73
1
 74
3
 75
0
 76
0
 77
0
 78
0
281
0
 65
0
146
0.0
  0
ENDTAB
  0
TABLE
  2
LTYPE
  5
2
330
0
100
AcDbSymbolTable
 70
3
  0
LTYPE
  5
24
330
2
100
AcDbSymbolTableRecord
100
AcDbLinetypeTableRecord
  2
ByBlock
 70
0
  3

 72
65
 73
0
 40
0.0
  0
LTYPE
  5
25
330
2
100
AcDbSymbolTableRecord
100
AcDbLinetypeTableRecord
  2
ByLayer
 70
0
  3

 72
65
 73
0
 40
0.0
  0
LTYPE
  5
26
330
2
100
AcDbSymbolTableRecord
100
AcDbLinetypeTableRecord
  2
Continuous
 70
0
  3

 72
65
 73
0
 40
0.0
  0
ENDTAB
  0
TABLE
  2
LAYER
  5
1
330
0
100
AcDbSymbolTable
 70
4
  0
LAYER
  5
27
330
1
100
AcDbSymbolTableRecord
100
AcDbLayerTableRecord
  2
0
 70
0
 62
7
  6
Continuous
370
-3
390
13
347
21
  0
LAYER
  5
28
330
1
100
AcDbSymbolTableRecord
100
AcDbLayerTableRecord
  2
Defpoints
 70
0
 62
7
  6
Continuous
290
0
370
-3
390
13
347
21
  0
LAYER
  5
2F
330
1
100
AcDbSymbolTableRecord
100
AcDbLayerTableRecord
  2
CUT
 70
0
 62
3
  6
Continuous
370
-3
390
13
347
21
  0
LAYER
  5
30
330
1
100
AcDbSymbolTableRecord
100
AcDbLayerTableRecord
  2
BEND_LINES
 70
0
 62
1
  6
DASHED
370
-3
390
13
347
21
  0
ENDTAB
  0
TABLE
  2
STYLE
  5
5
330
0
100
AcDbSymbolTable
 70
1
  0
STYLE
  5
29
330
5
100
AcDbSymbolTableRecord
100
AcDbTextStyleTableRecord
  2
Standard
 70
0
 40
0.0
 41
1.0
 50
0.0
 71
0
 42
2.5
  3
txt
  4

  0
ENDTAB
  0
TABLE
  2
VIEW
  5
7
330
0
100
AcDbSymbolTable
 70
0
  0
ENDTAB
  0
TABLE
  2
UCS
  5
6
330
0
100
AcDbSymbolTable
 70
0
  0
ENDTAB
  0
TABLE
  2
APPID
  5
3
330
0
100
AcDbSymbolTable
 70
3
  0
APPID
  5
2A
330
3
100
AcDbSymbolTableRecord
100
AcDbRegAppTableRecord
  2
ACAD
 70
0
  0
APPID
  5
61
330
3
100
AcDbSymbolTableRecord
100
AcDbRegAppTableRecord
  2
HATCHBACKGROUNDCOLOR
 70
0
  0
APPID
  5
62
330
3
100
AcDbSymbolTableRecord
100
AcDbRegAppTableRecord
  2
EZDXF
 70
0
  0
ENDTAB
  0
TABLE
  2
DIMSTYLE
  5
4
330
0
100
AcDbSymbolTable
 70
1
100
AcDbDimStyleTable
  0
DIMSTYLE
105
2B
330
4
100
AcDbSymbolTableRecord
100
AcDbDimStyleTableRecord
  2
Standard
 70
0
 40
1.0
 41
2.5
 42
0.625
 43
3.75
 44
1.25
 45
0.0
 46
0.0
 47
0.0
 48
0.0
 49
2.5
140
2.5
141
2.5
142
0.0
143
0.03937007874
144
1.0
145
0.0
146
1.0
147
0.625
148
0.0
 69
0
 70
0
 71
0
 72
0
 73
0
 74
0
 75
0
 76
0
 77
1
 78
8
 79
3
170
0
171
3
172
1
173
0
174
0
175
0
176
0
177
0
178
0
179
2
271
2
272
2
273
2
274
3
275
0
276
0
277
2
278
44
279
0
280
0
281
0
282
0
283
0
284
8
285
0
286
0
288
0
289
3
290
0
371
-2
372
-2
  0
ENDTAB
  0
TABLE
  2
BLOCK_RECORD
  5
9
330
0
100
AcDbSymbolTable
 70
2
  0
BLOCK_RECORD
  5
17
330
9
100
AcDbSymbolTableRecord
100
AcDbBlockTableRecord
  2
*Model_Space
340
1A
 70
0
280
1
281
0
  0
BLOCK_RECORD
  5
1B
330
9
100
AcDbSymbolTableRecord
100
AcDbBlockTableRecord
  2
*Paper_Space
340
1E
 70
0
280
1
281
0
  0
ENDTAB
  0
ENDSEC
  0
SECTION
  2
BLOCKS
  0
BLOCK
  5
18
330
17
100
AcDbEntity
  8
0
100
AcDbBlockBegin
  2
*Model_Space
 70
0
 10
0.0
 20
0.0
 30
0.0
  3
*Model_Space
  1

  0
ENDBLK
  5
19
330
17
100
AcDbEntity
  8
0
100
AcDbBlockEnd
  0
BLOCK
  5
1C
330
1B
100
AcDbEntity
  8
0
100
AcDbBlockBegin
  2
*Paper_Space
 70
0
 10
0.0
 20
0.0
 30
0.0
  3
*Paper_Space
  1

  0
ENDBLK
  5
1D
330
1B
100
AcDbEntity
  8
0
100
AcDbBlockEnd
  0
ENDSEC
  0
SECTION
  2
ENTITIES
  0
LWPOLYLINE
  5
31
330
17
100
AcDbEntity
  8
CUT
100
AcDbPolyline
 90
73
 70
0
 10
511.316
 20
144.009
 10
511.567
 20
143.934
 10
511.814
 20
143.847
 10
512.056
 20
143.747
 10
512.292
 20
143.634
 10
512.522
 20
143.509
 10
512.745
 20
143.372
 10
512.961
 20
143.224
 10
513.169
 20
143.065
 10
513.368
 20
142.895
 10
513.558
 20
142.714
 10
513.738
 20
142.525
 10
513.908
 20
142.326
 10
514.067
 20
142.118
 10
514.215
 20
141.902
 10
514.352
 20
141.679
 10
514.477
 20
141.449
 10
514.59
 20
141.213
 10
514.69
 20
140.971
 10
514.777
 20
140.724
 10
514.852
 20
140.473
 10
514.913
 20
140.219
 10
514.961
 20
139.961
 10
514.995
 20
139.702
 10
515.015
 20
139.441
 10
515.022
 20
139.179
 10
515.022
 20
-123.321
 10
474.52
 20
-163.823
 10
450.783
 20
-169.321
 10
415.779
 20
-169.321
 10
392.042
 20
-163.823
 10
351.54
 20
-123.321
 10
351.54
 20
139.179
 10
351.547
 20
139.441
 10
351.567
 20
139.702
 10
351.601
 20
139.961
 10
351.649
 20
140.219
 10
351.71
 20
140.473
 10
351.785
 20
140.724
 10
351.872
 20
140.971
 10
351.972
 20
141.213
 10
352.085
 20
141.449
 10
352.21
 20
141.679
 10
352.346
 20
141.902
 10
352.495
 20
142.118
 10
352.654
 20
142.326
 10
352.824
 20
142.525
 10
353.004
 20
142.714
 10
353.194
 20
142.895
 10
353.393
 20
143.065
 10
353.601
 20
143.224
 10
353.817
 20
143.372
 10
354.04
 20
143.509
 10
354.27
 20
143.634
 10
354.506
 20
143.747
 10
354.748
 20
143.847
 10
354.995
 20
143.934
 10
355.246
 20
144.009
 10
355.5
 20
144.07
 10
355.758
 20
144.117
 10
356.017
 20
144.152
 10
356.278
 20
144.172
 10
356.54
 20
144.179
 10
392.042
 20
144.179
 10
415.779
 20
144.179
 10
450.783
 20
144.179
 10
474.52
 20
144.179
 10
510.022
 20
144.179
 10
510.284
 20
144.172
 10
510.545
 20
144.152
 10
510.804
 20
144.117
 10
511.062
 20
144.07
 10
511.316
 20
144.009
  0
LWPOLYLINE
  5
32
330
17
100
AcDbEntity
  8
CUT
100
AcDbPolyline
 90
31
 70
0
 10
438.781
 20
129.179
 10
438.661
 20
130.322
 10
438.305
 20
131.416
 10
437.731
 20
132.412
 10
436.961
 20
133.266
 10
436.031
 20
133.942
 10
434.981
 20
134.41
 10
433.856
 20
134.649
 10
432.706
 20
134.649
 10
431.581
 20
134.41
 10
430.531
 20
133.942
 10
429.601
 20
133.266
 10
428.831
 20
132.412
 10
428.256
 20
131.416
 10
427.901
 20
130.322
 10
427.781
 20
129.179
 10
427.901
 20
128.035
 10
428.256
 20
126.942
 10
428.831
 20
125.946
 10
429.601
 20
125.092
 10
430.531
 20
124.416
 10
431.581
 20
123.948
 10
432.706
 20
123.709
 10
433.856
 20
123.709
 10
434.981
 20
123.948
 10
436.031
 20
124.416
 10
436.961
 20
125.092
 10
437.731
 20
125.946
 10
438.305
 20
126.942
 10
438.661
 20
128.035
 10
438.781
 20
129.179
  0
LWPOLYLINE
  5
33
330
17
100
AcDbEntity
  8
CUT
100
AcDbPolyline
 90
31
 70
0
 10
438.661
 20
68.035
 10
438.781
 20
69.179
 10
438.661
 20
70.322
 10
438.305
 20
71.416
 10
437.731
 20
72.412
 10
436.961
 20
73.266
 10
436.031
 20
73.942
 10
434.981
 20
74.41
 10
433.856
 20
74.649
 10
432.706
 20
74.649
 10
431.581
 20
74.41
 10
430.531
 20
73.942
 10
429.601
 20
73.266
 10
428.831
 20
72.412
 10
428.256
 20
71.416
 10
427.901
 20
70.322
 10
427.781
 20
69.179
 10
427.901
 20
68.035
 10
428.256
 20
66.942
 10
428.831
 20
65.946
 10
429.601
 20
65.092
 10
430.531
 20
64.416
 10
431.581
 20
63.948
 10
432.706
 20
63.709
 10
433.856
 20
63.709
 10
434.981
 20
63.948
 10
436.031
 20
64.416
 10
436.961
 20
65.092
 10
437.731
 20
65.946
 10
438.305
 20
66.942
 10
438.661
 20
68.035
  0
LWPOLYLINE
  5
34
330
17
100
AcDbEntity
  8
CUT
100
AcDbPolyline
 90
31
 70
0
 10
438.305
 20
-65.058
 10
438.661
 20
-63.965
 10
438.781
 20
-62.821
 10
438.661
 20
-61.678
 10
438.305
 20
-60.584
 10
437.731
 20
-59.588
 10
436.961
 20
-58.734
 10
436.031
 20
-58.058
 10
434.981
 20
-57.59
 10
433.856
 20
-57.351
 10
432.706
 20
-57.351
 10
431.581
 20
-57.59
 10
430.531
 20
-58.058
 10
429.601
 20
-58.734
 10
428.831
 20
-59.588
 10
428.256
 20
-60.584
 10
427.901
 20
-61.678
 10
427.781
 20
-62.821
 10
427.901
 20
-63.965
 10
428.256
 20
-65.058
 10
428.831
 20
-66.054
 10
429.601
 20
-66.908
 10
430.531
 20
-67.584
 10
431.581
 20
-68.052
 10
432.706
 20
-68.291
 10
433.856
 20
-68.291
 10
434.981
 20
-68.052
 10
436.031
 20
-67.584
 10
436.961
 20
-66.908
 10
437.731
 20
-66.054
 10
438.305
 20
-65.058
  0
LWPOLYLINE
  5
35
330
17
100
AcDbEntity
  8
CUT
100
AcDbPolyline
 90
31
 70
0
 10
437.731
 20
-141.054
 10
438.305
 20
-140.058
 10
438.661
 20
-138.965
 10
438.781
 20
-137.821
 10
438.661
 20
-136.678
 10
438.305
 20
-135.584
 10
437.731
 20
-134.588
 10
436.961
 20
-133.734
 10
436.031
 20
-133.058
 10
434.981
 20
-132.59
 10
433.856
 20
-132.351
 10
432.706
 20
-132.351
 10
431.581
 20
-132.59
 10
430.531
 20
-133.058
 10
429.601
 20
-133.734
 10
428.831
 20
-134.588
 10
428.256
 20
-135.584
 10
427.901
 20
-136.678
 10
427.781
 20
-137.821
 10
427.901
 20
-138.965
 10
428.256
 20
-140.058
 10
428.831
 20
-141.054
 10
429.601
 20
-141.908
 10
430.531
 20
-142.584
 10
431.581
 20
-143.052
 10
432.706
 20
-143.291
 10
433.856
 20
-143.291
 10
434.981
 20
-143.052
 10
436.031
 20
-142.584
 10
436.961
 20
-141.908
 10
437.731
 20
-141.054
  0
LWPOLYLINE
  5
36
330
17
100
AcDbEntity
  8
CUT
100
AcDbPolyline
 90
73
 70
0
 10
679.625
 20
143.934
 10
679.871
 20
143.847
 10
680.113
 20
143.747
 10
680.35
 20
143.634
 10
680.58
 20
143.509
 10
680.803
 20
143.372
 10
681.019
 20
143.224
 10
681.226
 20
143.065
 10
681.425
 20
142.895
 10
681.615
 20
142.714
 10
681.795
 20
142.525
 10
681.965
 20
142.326
 10
682.125
 20
142.118
 10
682.273
 20
141.902
 10
682.41
 20
141.679
 10
682.535
 20
141.449
 10
682.647
 20
141.213
 10
682.748
 20
140.971
 10
682.835
 20
140.724
 10
682.909
 20
140.473
 10
682.97
 20
140.219
 10
683.018
 20
139.961
 10
683.052
 20
139.702
 10
683.073
 20
139.441
 10
683.08
 20
139.179
 10
683.08
 20
-123.321
 10
642.577
 20
-163.823
 10
626.553
 20
-169.321
 10
591.549
 20
-169.321
 10
575.524
 20
-163.823
 10
535.022
 20
-123.321
 10
535.022
 20
139.179
 10
535.029
 20
139.441
 10
535.05
 20
139.702
 10
535.084
 20
139.961
 10
535.131
 20
140.219
 10
535.192
 20
140.473
 10
535.267
 20
140.724
 10
535.354
 20
140.971
 10
535.454
 20
141.213
 10
535.567
 20
141.449
 10
535.692
 20
141.679
 10
535.829
 20
141.902
 10
535.977
 20
142.118
 10
536.136
 20
142.326
 10
536.306
 20
142.525
 10
536.487
 20
142.714
 10
536.676
 20
142.895
 10
536.876
 20
143.065
 10
537.083
 20
143.224
 10
537.299
 20
143.372
 10
537.522
 20
143.509
 10
537.752
 20
143.634
 10
537.988
 20
143.747
 10
538.23
 20
143.847
 10
538.477
 20
143.934
 10
538.728
 20
144.009
 10
538.983
 20
144.07
 10
539.24
 20
144.117
 10
539.499
 20
144.152
 10
539.76
 20
144.172
 10
540.022
 20
144.179
 10
575.524
 20
144.179
 10
591.549
 20
144.179
 10
626.553
 20
144.179
 10
642.577
 20
144.179
 10
678.08
 20
144.179
 10
678.341
 20
144.172
 10
678.602
 20
144.152
 10
678.862
 20
144.117
 10
679.119
 20
144.07
 10
679.374
 20
144.009
 10
679.625
 20
143.934
  0
LWPOLYLINE
  5
37
330
17
100
AcDbEntity
  8
CUT
100
AcDbPolyline
 90
31
 70
0
 10
614.431
 20
130.322
 10
614.075
 20
131.416
 10
613.5
 20
132.412
 10
612.731
 20
133.266
 10
611.801
 20
133.942
 10
610.75
 20
134.41
 10
609.626
 20
134.649
 10
608.476
 20
134.649
 10
607.351
 20
134.41
 10
606.301
 20
133.942
 10
605.371
 20
133.266
 10
604.601
 20
132.412
 10
604.026
 20
131.416
 10
603.671
 20
130.322
 10
603.551
 20
129.179
 10
603.671
 20
128.035
 10
604.026
 20
126.942
 10
604.601
 20
125.946
 10
605.371
 20
125.092
 10
606.301
 20
124.416
 10
607.351
 20
123.948
 10
608.476
 20
123.709
 10
609.626
 20
123.709
 10
610.75
 20
123.948
 10
611.801
 20
124.416
 10
612.731
 20
125.092
 10
613.5
 20
125.946
 10
614.075
 20
126.942
 10
614.431
 20
128.035
 10
614.551
 20
129.179
 10
614.431
 20
130.322
  0
LWPOLYLINE
  5
38
330
17
100
AcDbEntity
  8
CUT
100
AcDbPolyline
 90
31
 70
0
 10
614.551
 20
69.179
 10
614.431
 20
70.322
 10
614.075
 20
71.416
 10
613.5
 20
72.412
 10
612.731
 20
73.266
 10
611.801
 20
73.942
 10
610.75
 20
74.41
 10
609.626
 20
74.649
 10
608.476
 20
74.649
 10
607.351
 20
74.41
 10
606.301
 20
73.942
 10
605.371
 20
73.266
 10
604.601
 20
72.412
 10
604.026
 20
71.416
 10
603.671
 20
70.322
 10
603.551
 20
69.179
 10
603.671
 20
68.035
 10
604.026
 20
66.942
 10
604.601
 20
65.946
 10
605.371
 20
65.092
 10
606.301
 20
64.416
 10
607.351
 20
63.948
 10
608.476
 20
63.709
 10
609.626
 20
63.709
 10
610.75
 20
63.948
 10
611.801
 20
64.416
 10
612.731
 20
65.092
 10
613.5
 20
65.946
 10
614.075
 20
66.942
 10
614.431
 20
68.035
 10
614.551
 20
69.179
  0
LWPOLYLINE
  5
39
330
17
100
AcDbEntity
  8
CUT
100
AcDbPolyline
 90
31
 70
0
 10
614.431
 20
-63.965
 10
614.551
 20
-62.821
 10
614.431
 20
-61.678
 10
614.075
 20
-60.584
 10
613.5
 20
-59.588
 10
612.731
 20
-58.734
 10
611.801
 20
-58.058
 10
610.75
 20
-57.59
 10
609.626
 20
-57.351
 10
608.476
 20
-57.351
 10
607.351
 20
-57.59
 10
606.301
 20
-58.058
 10
605.371
 20
-58.734
 10
604.601
 20
-59.588
 10
604.026
 20
-60.584
 10
603.671
 20
-61.678
 10
603.551
 20
-62.821
 10
603.671
 20
-63.965
 10
604.026
 20
-65.058
 10
604.601
 20
-66.054
 10
605.371
 20
-66.908
 10
606.301
 20
-67.584
 10
607.351
 20
-68.052
 10
608.476
 20
-68.291
 10
609.626
 20
-68.291
 10
610.75
 20
-68.052
 10
611.801
 20
-67.584
 10
612.731
 20
-66.908
 10
613.5
 20
-66.054
 10
614.075
 20
-65.058
 10
614.431
 20
-63.965
  0
LWPOLYLINE
  5
3A
330
17
100
AcDbEntity
  8
CUT
100
AcDbPolyline
 90
31
 70
0
 10
614.075
 20
-140.058
 10
614.431
 20
-138.965
 10
614.551
 20
-137.821
 10
614.431
 20
-136.678
 10
614.075
 20
-135.584
 10
613.5
 20
-134.588
 10
612.731
 20
-133.734
 10
611.801
 20
-133.058
 10
610.75
 20
-132.59
 10
609.626
 20
-132.351
 10
608.476
 20
-132.351
 10
607.351
 20
-132.59
 10
606.301
 20
-133.058
 10
605.371
 20
-133.734
 10
604.601
 20
-134.588
 10
604.026
 20
-135.584
 10
603.671
 20
-136.678
 10
603.551
 20
-137.821
 10
603.671
 20
-138.965
 10
604.026
 20
-140.058
 10
604.601
 20
-141.054
 10
605.371
 20
-141.908
 10
606.301
 20
-142.584
 10
607.351
 20
-143.052
 10
608.476
 20
-143.291
 10
609.626
 20
-143.291
 10
610.75
 20
-143.052
 10
611.801
 20
-142.584
 10
612.731
 20
-141.908
 10
613.5
 20
-141.054
 10
614.075
 20
-140.058
  0
LWPOLYLINE
  5
3B
330
17
100
AcDbEntity
  8
CUT
100
AcDbPolyline
 90
73
 70
0
 10
863.107
 20
143.934
 10
863.354
 20
143.847
 10
863.596
 20
143.747
 10
863.832
 20
143.634
 10
864.062
 20
143.509
 10
864.285
 20
143.372
 10
864.501
 20
143.224
 10
864.709
 20
143.065
 10
864.908
 20
142.895
 10
865.097
 20
142.714
 10
865.278
 20
142.525
 10
865.448
 20
142.326
 10
865.607
 20
142.118
 10
865.755
 20
141.902
 10
865.892
 20
141.679
 10
866.017
 20
141.449
 10
866.13
 20
141.213
 10
866.23
 20
140.971
 10
866.317
 20
140.724
 10
866.392
 20
140.473
 10
866.453
 20
140.219
 10
866.5
 20
139.961
 10
866.535
 20
139.702
 10
866.555
 20
139.441
 10
866.562
 20
139.179
 10
866.562
 20
-123.321
 10
826.06
 20
-163.823
 10
802.323
 20
-169.321
 10
767.319
 20
-169.321
 10
743.582
 20
-163.823
 10
703.08
 20
-123.321
 10
703.08
 20
139.179
 10
703.086
 20
139.441
 10
703.107
 20
139.702
 10
703.141
 20
139.961
 10
703.189
 20
140.219
 10
703.25
 20
140.473
 10
703.324
 20
140.724
 10
703.412
 20
140.971
 10
703.512
 20
141.213
 10
703.625
 20
141.449
 10
703.75
 20
141.679
 10
703.886
 20
141.902
 10
704.035
 20
142.118
 10
704.194
 20
142.326
 10
704.364
 20
142.525
 10
704.544
 20
142.714
 10
704.734
 20
142.895
 10
704.933
 20
143.065
 10
705.141
 20
143.224
 10
705.356
 20
143.372
 10
705.58
 20
143.509
 10
705.81
 20
143.634
 10
706.046
 20
143.747
 10
706.288
 20
143.847
 10
706.535
 20
143.934
 10
706.786
 20
144.009
 10
707.04
 20
144.07
 10
707.297
 20
144.117
 10
707.557
 20
144.152
 10
707.818
 20
144.172
 10
708.08
 20
144.179
 10
743.582
 20
144.179
 10
767.319
 20
144.179
 10
802.323
 20
144.179
 10
826.06
 20
144.179
 10
861.562
 20
144.179
 10
861.824
 20
144.172
 10
862.085
 20
144.152
 10
862.344
 20
144.117
 10
862.602
 20
144.07
 10
862.856
 20
144.009
 10
863.107
 20
143.934
  0
LWPOLYLINE
  5
3C
330
17
100
AcDbEntity
  8
CUT
100
AcDbPolyline
 90
31
 70
0
 10
790.201
 20
130.322
 10
789.845
 20
131.416
 10
789.27
 20
132.412
 10
788.501
 20
133.266
 10
787.571
 20
133.942
 10
786.52
 20
134.41
 10
785.396
 20
134.649
 10
784.246
 20
134.649
 10
783.121
 20
134.41
 10
782.071
 20
133.942
 10
781.141
 20
133.266
 10
780.371
 20
132.412
 10
779.796
 20
131.416
 10
779.441
 20
130.322
 10
779.321
 20
129.179
 10
779.441
 20
128.035
 10
779.796
 20
126.942
 10
780.371
 20
125.946
 10
781.141
 20
125.092
 10
782.071
 20
124.416
 10
783.121
 20
123.948
 10
784.246
 20
123.709
 10
785.396
 20
123.709
 10
786.52
 20
123.948
 10
787.571
 20
124.416
 10
788.501
 20
125.092
 10
789.27
 20
125.946
 10
789.845
 20
126.942
 10
790.201
 20
128.035
 10
790.321
 20
129.179
 10
790.201
 20
130.322
  0
LWPOLYLINE
  5
3D
330
17
100
AcDbEntity
  8
CUT
100
AcDbPolyline
 90
31
 70
0
 10
790.321
 20
69.179
 10
790.201
 20
70.322
 10
789.845
 20
71.416
 10
789.27
 20
72.412
 10
788.501
 20
73.266
 10
787.571
 20
73.942
 10
786.52
 20
74.41
 10
785.396
 20
74.649
 10
784.246
 20
74.649
 10
783.121
 20
74.41
 10
782.071
 20
73.942
 10
781.141
 20
73.266
 10
780.371
 20
72.412
 10
779.796
 20
71.416
 10
779.441
 20
70.322
 10
779.321
 20
69.179
 10
779.441
 20
68.035
 10
779.796
 20
66.942
 10
780.371
 20
65.946
 10
781.141
 20
65.092
 10
782.071
 20
64.416
 10
783.121
 20
63.948
 10
784.246
 20
63.709
 10
785.396
 20
63.709
 10
786.52
 20
63.948
 10
787.571
 20
64.416
 10
788.501
 20
65.092
 10
789.27
 20
65.946
 10
789.845
 20
66.942
 10
790.201
 20
68.035
 10
790.321
 20
69.179
  0
LWPOLYLINE
  5
3E
330
17
100
AcDbEntity
  8
CUT
100
AcDbPolyline
 90
31
 70
0
 10
790.201
 20
-63.965
 10
790.321
 20
-62.821
 10
790.201
 20
-61.678
 10
789.845
 20
-60.584
 10
789.27
 20
-59.588
 10
788.501
 20
-58.734
 10
787.571
 20
-58.058
 10
786.52
 20
-57.59
 10
785.396
 20
-57.351
 10
784.246
 20
-57.351
 10
783.121
 20
-57.59
 10
782.071
 20
-58.058
 10
781.141
 20
-58.734
 10
780.371
 20
-59.588
 10
779.796
 20
-60.584
 10
779.441
 20
-61.678
 10
779.321
 20
-62.821
 10
779.441
 20
-63.965
 10
779.796
 20
-65.058
 10
780.371
 20
-66.054
 10
781.141
 20
-66.908
 10
782.071
 20
-67.584
 10
783.121
 20
-68.052
 10
784.246
 20
-68.291
 10
785.396
 20
-68.291
 10
786.52
 20
-68.052
 10
787.571
 20
-67.584
 10
788.501
 20
-66.908
 10
789.27
 20
-66.054
 10
789.845
 20
-65.058
 10
790.201
 20
-63.965
  0
LWPOLYLINE
  5
3F
330
17
100
AcDbEntity
  8
CUT
100
AcDbPolyline
 90
31
 70
0
 10
789.845
 20
-140.058
 10
790.201
 20
-138.965
 10
790.321
 20
-137.821
 10
790.201
 20
-136.678
 10
789.845
 20
-135.584
 10
789.27
 20
-134.588
 10
788.501
 20
-133.734
 10
787.571
 20
-133.058
 10
786.52
 20
-132.59
 10
785.396
 20
-132.351
 10
784.246
 20
-132.351
 10
783.121
 20
-132.59
 10
782.071
 20
-133.058
 10
781.141
 20
-133.734
 10
780.371
 20
-134.588
 10
779.796
 20
-135.584
 10
779.441
 20
-136.678
 10
779.321
 20
-137.821
 10
779.441
 20
-138.965
 10
779.796
 20
-140.058
 10
780.371
 20
-141.054
 10
781.141
 20
-141.908
 10
782.071
 20
-142.584
 10
783.121
 20
-143.052
 10
784.246
 20
-143.291
 10
785.396
 20
-143.291
 10
786.52
 20
-143.052
 10
787.571
 20
-142.584
 10
788.501
 20
-141.908
 10
789.27
 20
-141.054
 10
789.845
 20
-140.058
  0
LWPOLYLINE
  5
40
330
17
100
AcDbEntity
  8
CUT
100
AcDbPolyline
 90
73
 70
0
 10
886.732
 20
140.473
 10
886.807
 20
140.724
 10
886.894
 20
140.971
 10
886.994
 20
141.213
 10
887.107
 20
141.449
 10
887.232
 20
141.679
 10
887.369
 20
141.902
 10
887.517
 20
142.118
 10
887.676
 20
142.326
 10
887.846
 20
142.525
 10
888.026
 20
142.714
 10
888.216
 20
142.895
 10
888.415
 20
143.065
 10
888.623
 20
143.224
 10
888.839
 20
143.372
 10
889.062
 20
143.509
 10
889.292
 20
143.634
 10
889.528
 20
143.747
 10
889.77
 20
143.847
 10
890.017
 20
143.934
 10
890.268
 20
144.009
 10
890.522
 20
144.07
 10
890.78
 20
144.117
 10
891.039
 20
144.152
 10
891.3
 20
144.172
 10
891.562
 20
144.179
 10
927.064
 20
144.179
 10
943.088
 20
144.179
 10
978.093
 20
144.179
 10
994.117
 20
144.179
 10
1029.619
 20
144.179
 10
1029.881
 20
144.172
 10
1030.142
 20
144.152
 10
1030.402
 20
144.117
 10
1030.659
 20
144.07
 10
1030.914
 20
144.009
 10
1031.165
 20
143.934
 10
1031.411
 20
143.847
 10
1031.653
 20
143.747
 10
1031.889
 20
143.634
 10
1032.119
 20
143.509
 10
1032.343
 20
143.372
 10
1032.558
 20
143.224
 10
1032.766
 20
143.065
 10
1032.965
 20
142.895
 10
1033.155
 20
142.714
 10
1033.335
 20
142.525
 10
1033.505
 20
142.326
 10
1033.665
 20
142.118
 10
1033.813
 20
141.902
 10
1033.95
 20
141.679
 10
1034.075
 20
141.449
 10
1034.187
 20
141.213
 10
1034.287
 20
140.971
 10
1034.375
 20
140.724
 10
1034.449
 20
140.473
 10
1034.51
 20
140.219
 10
1034.558
 20
139.961
 10
1034.592
 20
139.702
 10
1034.613
 20
139.441
 10
1034.619
 20
139.179
 10
1034.619
 20
-123.321
 10
994.117
 20
-163.823
 10
978.093
 20
-169.321
 10
943.088
 20
-169.321
 10
927.064
 20
-163.823
 10
886.562
 20
-123.321
 10
886.562
 20
139.179
 10
886.569
 20
139.441
 10
886.589
 20
139.702
 10
886.624
 20
139.961
 10
886.671
 20
140.219
 10
886.732
 20
140.473
  0
LWPOLYLINE
  5
41
330
17
100
AcDbEntity
  8
CUT
100
AcDbPolyline
 90
31
 70
0
 10
966.091
 20
129.179
 10
965.971
 20
130.322
 10
965.615
 20
131.416
 10
965.04
 20
132.412
 10
964.271
 20
133.266
 10
963.341
 20
133.942
 10
962.29
 20
134.41
 10
961.166
 20
134.649
 10
960.016
 20
134.649
 10
958.891
 20
134.41
 10
957.841
 20
133.942
 10
956.91
 20
133.266
 10
956.141
 20
132.412
 10
955.566
 20
131.416
 10
955.211
 20
130.322
 10
955.091
 20
129.179
 10
955.211
 20
128.035
 10
955.566
 20
126.942
 10
956.141
 20
125.946
 10
956.91
 20
125.092
 10
957.841
 20
124.416
 10
958.891
 20
123.948
 10
960.016
 20
123.709
 10
961.166
 20
123.709
 10
962.29
 20
123.948
 10
963.341
 20
124.416
 10
964.271
 20
125.092
 10
965.04
 20
125.946
 10
965.615
 20
126.942
 10
965.971
 20
128.035
 10
966.091
 20
129.179
  0
LWPOLYLINE
  5
42
330
17
100
AcDbEntity
  8
CUT
100
AcDbPolyline
 90
31
 70
0
 10
965.971
 20
68.035
 10
966.091
 20
69.179
 10
965.971
 20
70.322
 10
965.615
 20
71.416
 10
965.04
 20
72.412
 10
964.271
 20
73.266
 10
963.341
 20
73.942
 10
962.29
 20
74.41
 10
961.166
 20
74.649
 10
960.016
 20
74.649
 10
958.891
 20
74.41
 10
957.841
 20
73.942
 10
956.91
 20
73.266
 10
956.141
 20
72.412
 10
955.566
 20
71.416
 10
955.211
 20
70.322
 10
955.091
 20
69.179
 10
955.211
 20
68.035
 10
955.566
 20
66.942
 10
956.141
 20
65.946
 10
956.91
 20
65.092
 10
957.841
 20
64.416
 10
958.891
 20
63.948
 10
960.016
 20
63.709
 10
961.166
 20
63.709
 10
962.29
 20
63.948
 10
963.341
 20
64.416
 10
964.271
 20
65.092
 10
965.04
 20
65.946
 10
965.615
 20
66.942
 10
965.971
 20
68.035
  0
LWPOLYLINE
  5
43
330
17
100
AcDbEntity
  8
CUT
100
AcDbPolyline
 90
31
 70
0
 10
965.615
 20
-65.058
 10
965.971
 20
-63.965
 10
966.091
 20
-62.821
 10
965.971
 20
-61.678
 10
965.615
 20
-60.584
 10
965.04
 20
-59.588
 10
964.271
 20
-58.734
 10
963.341
 20
-58.058
 10
962.29
 20
-57.59
 10
961.166
 20
-57.351
 10
960.016
 20
-57.351
 10
958.891
 20
-57.59
 10
957.841
 20
-58.058
 10
956.91
 20
-58.734
 10
956.141
 20
-59.588
 10
955.566
 20
-60.584
 10
955.211
 20
-61.678
 10
955.091
 20
-62.821
 10
955.211
 20
-63.965
 10
955.566
 20
-65.058
 10
956.141
 20
-66.054
 10
956.91
 20
-66.908
 10
957.841
 20
-67.584
 10
958.891
 20
-68.052
 10
960.016
 20
-68.291
 10
961.166
 20
-68.291
 10
962.29
 20
-68.052
 10
963.341
 20
-67.584
 10
964.271
 20
-66.908
 10
965.04
 20
-66.054
 10
965.615
 20
-65.058
  0
LWPOLYLINE
  5
44
330
17
100
AcDbEntity
  8
CUT
100
AcDbPolyline
 90
31
 70
0
 10
965.04
 20
-141.054
 10
965.615
 20
-140.058
 10
965.971
 20
-138.965
 10
966.091
 20
-137.821
 10
965.971
 20
-136.678
 10
965.615
 20
-135.584
 10
965.04
 20
-134.588
 10
964.271
 20
-133.734
 10
963.341
 20
-133.058
 10
962.29
 20
-132.59
 10
961.166
 20
-132.351
 10
960.016
 20
-132.351
 10
958.891
 20
-132.59
 10
957.841
 20
-133.058
 10
956.91
 20
-133.734
 10
956.141
 20
-134.588
 10
955.566
 20
-135.584
 10
955.211
 20
-136.678
 10
955.091
 20
-137.821
 10
955.211
 20
-138.965
 10
955.566
 20
-140.058
 10
956.141
 20
-141.054
 10
956.91
 20
-141.908
 10
957.841
 20
-142.584
 10
958.891
 20
-143.052
 10
960.016
 20
-143.291
 10
961.166
 20
-143.291
 10
962.29
 20
-143.052
 10
963.341
 20
-142.584
 10
964.271
 20
-141.908
 10
965.04
 20
-141.054
  0
LWPOLYLINE
  5
45
330
17
100
AcDbEntity
  8
CUT
100
AcDbPolyline
 90
13
 70
0
 10
-127.34
 20
272.75
 10
-86.838
 20
313.252
 10
-70.813
 20
318.75
 10
-35.809
 20
318.75
 10
-19.785
 20
313.252
 10
20.718
 20
272.75
 10
20.718
 20
-272.75
 10
-19.785
 20
-313.252
 10
-35.809
 20
-318.75
 10
-70.813
 20
-318.75
 10
-86.838
 20
-313.252
 10
-127.34
 20
-272.75
 10
-127.34
 20
272.75
  0
LWPOLYLINE
  5
46
330
17
100
AcDbEntity
  8
CUT
100
AcDbPolyline
 90
63
 70
0
 10
-56.061
 20
-61.018
 10
-56.544
 20
-61.332
 10
-56.991
 20
-61.694
 10
-57.398
 20
-62.101
 10
-57.761
 20
-62.548
 10
-58.074
 20
-63.031
 10
-58.336
 20
-63.544
 10
-58.542
 20
-64.082
 10
-58.691
 20
-64.638
 10
-58.781
 20
-65.206
 10
-58.811
 20
-65.781
 10
-58.811
 20
-70.237
 10
-58.781
 20
-70.812
 10
-58.691
 20
-71.381
 10
-58.542
 20
-71.937
 10
-58.336
 20
-72.474
 10
-58.074
 20
-72.987
 10
-57.761
 20
-73.47
 10
-57.398
 20
-73.917
 10
-56.991
 20
-74.325
 10
-56.544
 20
-74.687
 10
-56.061
 20
-75.0
 10
-55.548
 20
-75.262
 10
-55.011
 20
-75.468
 10
-54.455
 20
-75.617
 10
-53.886
 20
-75.707
 10
-53.311
 20
-75.737
 10
-52.736
 20
-75.707
 10
-52.168
 20
-75.617
 10
-51.612
 20
-75.468
 10
-51.074
 20
-75.262
 10
-50.561
 20
-75.0
 10
-50.078
 20
-74.687
 10
-49.631
 20
-74.325
 10
-49.224
 20
-73.917
 10
-48.862
 20
-73.47
 10
-48.548
 20
-72.987
 10
-48.287
 20
-72.474
 10
-48.08
 20
-71.937
 10
-47.931
 20
-71.381
 10
-47.841
 20
-70.812
 10
-47.811
 20
-70.237
 10
-47.811
 20
-65.781
 10
-47.841
 20
-65.206
 10
-47.931
 20
-64.638
 10
-48.08
 20
-64.082
 10
-48.287
 20
-63.544
 10
-48.548
 20
-63.031
 10
-48.862
 20
-62.548
 10
-49.224
 20
-62.101
 10
-49.631
 20
-61.694
 10
-50.078
 20
-61.332
 10
-50.561
 20
-61.018
 10
-51.074
 20
-60.757
 10
-51.612
 20
-60.55
 10
-52.168
 20
-60.401
 10
-52.736
 20
-60.311
 10
-53.311
 20
-60.281
 10
-53.886
 20
-60.311
 10
-54.455
 20
-60.401
 10
-55.011
 20
-60.55
 10
-55.548
 20
-60.757
 10
-56.061
 20
-61.018
  0
LWPOLYLINE
  5
47
330
17
100
AcDbEntity
  8
CUT
100
AcDbPolyline
 90
63
 70
0
 10
-55.548
 20
75.243
 10
-56.061
 20
74.982
 10
-56.544
 20
74.668
 10
-56.991
 20
74.306
 10
-57.398
 20
73.899
 10
-57.761
 20
73.452
 10
-58.074
 20
72.969
 10
-58.336
 20
72.456
 10
-58.542
 20
71.918
 10
-58.691
 20
71.362
 10
-58.781
 20
70.794
 10
-58.811
 20
70.219
 10
-58.811
 20
65.763
 10
-58.781
 20
65.188
 10
-58.691
 20
64.619
 10
-58.542
 20
64.063
 10
-58.336
 20
63.526
 10
-58.074
 20
63.013
 10
-57.761
 20
62.53
 10
-57.398
 20
62.083
 10
-56.991
 20
61.675
 10
-56.544
 20
61.313
 10
-56.061
 20
61.0
 10
-55.548
 20
60.738
 10
-55.011
 20
60.532
 10
-54.455
 20
60.383
 10
-53.886
 20
60.293
 10
-53.311
 20
60.263
 10
-52.736
 20
60.293
 10
-52.168
 20
60.383
 10
-51.612
 20
60.532
 10
-51.074
 20
60.738
 10
-50.561
 20
61.0
 10
-50.078
 20
61.313
 10
-49.631
 20
61.675
 10
-49.224
 20
62.083
 10
-48.862
 20
62.53
 10
-48.548
 20
63.013
 10
-48.287
 20
63.526
 10
-48.08
 20
64.063
 10
-47.931
 20
64.619
 10
-47.841
 20
65.188
 10
-47.811
 20
65.763
 10
-47.811
 20
70.219
 10
-47.841
 20
70.794
 10
-47.931
 20
71.362
 10
-48.08
 20
71.918
 10
-48.287
 20
72.456
 10
-48.548
 20
72.969
 10
-48.862
 20
73.452
 10
-49.224
 20
73.899
 10
-49.631
 20
74.306
 10
-50.078
 20
74.668
 10
-50.561
 20
74.982
 10
-51.074
 20
75.243
 10
-51.612
 20
75.45
 10
-52.168
 20
75.599
 10
-52.736
 20
75.689
 10
-53.311
 20
75.719
 10
-53.886
 20
75.689
 10
-54.455
 20
75.599
 10
-55.011
 20
75.45
 10
-55.548
 20
75.243
  0
LWPOLYLINE
  5
48
330
17
100
AcDbEntity
  8
CUT
100
AcDbPolyline
 90
31
 70
0
 10
-52.643
 20
-184.677
 10
-53.623
 20
-183.59
 10
-54.806
 20
-182.73
 10
-56.143
 20
-182.135
 10
-57.575
 20
-181.83
 10
-59.038
 20
-181.83
 10
-60.47
 20
-182.135
 10
-61.806
 20
-182.73
 10
-62.99
 20
-183.59
 10
-63.97
 20
-184.677
 10
-64.701
 20
-185.945
 10
-65.153
 20
-187.337
 10
-65.306
 20
-188.792
 10
-65.153
 20
-190.247
 10
-64.701
 20
-191.639
 10
-63.97
 20
-192.906
 10
-62.99
 20
-193.994
 10
-61.806
 20
-194.854
 10
-60.47
 20
-195.449
 10
-59.038
 20
-195.754
 10
-57.575
 20
-195.754
 10
-56.143
 20
-195.449
 10
-54.806
 20
-194.854
 10
-53.623
 20
-193.994
 10
-52.643
 20
-192.906
 10
-51.912
 20
-191.639
 10
-51.459
 20
-190.247
 10
-51.306
 20
-188.792
 10
-51.459
 20
-187.337
 10
-51.912
 20
-185.945
 10
-52.643
 20
-184.677
  0
LWPOLYLINE
  5
49
330
17
100
AcDbEntity
  8
CUT
100
AcDbPolyline
 90
31
 70
0
 10
-51.974
 20
191.639
 10
-52.706
 20
192.906
 10
-53.685
 20
193.994
 10
-54.869
 20
194.854
 10
-56.206
 20
195.449
 10
-57.637
 20
195.754
 10
-59.101
 20
195.754
 10
-60.532
 20
195.449
 10
-61.869
 20
194.854
 10
-63.053
 20
193.994
 10
-64.032
 20
192.906
 10
-64.764
 20
191.639
 10
-65.216
 20
190.247
 10
-65.369
 20
188.792
 10
-65.216
 20
187.337
 10
-64.764
 20
185.945
 10
-64.032
 20
184.677
 10
-63.053
 20
183.59
 10
-61.869
 20
182.73
 10
-60.532
 20
182.135
 10
-59.101
 20
181.83
 10
-57.637
 20
181.83
 10
-56.206
 20
182.135
 10
-54.869
 20
182.73
 10
-53.685
 20
183.59
 10
-52.706
 20
184.677
 10
-51.974
 20
185.945
 10
-51.522
 20
187.337
 10
-51.369
 20
188.792
 10
-51.522
 20
190.247
 10
-51.974
 20
191.639
  0
LWPOLYLINE
  5
4A
330
17
100
AcDbEntity
  8
CUT
100
AcDbPolyline
 90
31
 70
0
 10
-51.459
 20
-232.337
 10
-51.912
 20
-230.945
 10
-52.643
 20
-229.677
 10
-53.623
 20
-228.59
 10
-54.806
 20
-227.73
 10
-56.143
 20
-227.135
 10
-57.575
 20
-226.83
 10
-59.038
 20
-226.83
 10
-60.47
 20
-227.135
 10
-61.806
 20
-227.73
 10
-62.99
 20
-228.59
 10
-63.97
 20
-229.677
 10
-64.701
 20
-230.945
 10
-65.153
 20
-232.337
 10
-65.306
 20
-233.792
 10
-65.153
 20
-235.247
 10
-64.701
 20
-236.639
 10
-63.97
 20
-237.906
 10
-62.99
 20
-238.994
 10
-61.806
 20
-239.854
 10
-60.47
 20
-240.449
 10
-59.038
 20
-240.754
 10
-57.575
 20
-240.754
 10
-56.143
 20
-240.449
 10
-54.806
 20
-239.854
 10
-53.623
 20
-238.994
 10
-52.643
 20
-237.906
 10
-51.912
 20
-236.639
 10
-51.459
 20
-235.247
 10
-51.306
 20
-233.792
 10
-51.459
 20
-232.337
  0
LWPOLYLINE
  5
4B
330
17
100
AcDbEntity
  8
CUT
100
AcDbPolyline
 90
31
 70
0
 10
-51.306
 20
233.792
 10
-51.459
 20
235.247
 10
-51.912
 20
236.639
 10
-52.643
 20
237.906
 10
-53.623
 20
238.994
 10
-54.806
 20
239.854
 10
-56.143
 20
240.449
 10
-57.575
 20
240.754
 10
-59.038
 20
240.754
 10
-60.47
 20
240.449
 10
-61.806
 20
239.854
 10
-62.99
 20
238.994
 10
-63.97
 20
237.906
 10
-64.701
 20
236.639
 10
-65.153
 20
235.247
 10
-65.306
 20
233.792
 10
-65.153
 20
232.337
 10
-64.701
 20
230.945
 10
-63.97
 20
229.677
 10
-62.99
 20
228.59
 10
-61.806
 20
227.73
 10
-60.47
 20
227.135
 10
-59.038
 20
226.83
 10
-57.575
 20
226.83
 10
-56.143
 20
227.135
 10
-54.806
 20
227.73
 10
-53.623
 20
228.59
 10
-52.643
 20
229.677
 10
-51.912
 20
230.945
 10
-51.459
 20
232.337
 10
-51.306
 20
233.792
  0
LWPOLYLINE
  5
4C
330
17
100
AcDbEntity
  8
CUT
100
AcDbPolyline
 90
13
 70
0
 10
168.058
 20
-272.75
 10
168.058
 20
272.75
 10
208.56
 20
313.252
 10
232.296
 20
318.75
 10
267.301
 20
318.75
 10
291.038
 20
313.252
 10
331.54
 20
272.75
 10
331.54
 20
-272.75
 10
291.038
 20
-313.252
 10
267.301
 20
-318.75
 10
232.296
 20
-318.75
 10
208.56
 20
-313.252
 10
168.058
 20
-272.75
  0
LWPOLYLINE
  5
4D
330
17
100
AcDbEntity
  8
CUT
100
AcDbPolyline
 90
63
 70
0
 10
252.036
 20
-75.262
 10
252.549
 20
-75.0
 10
253.031
 20
-74.687
 10
253.479
 20
-74.325
 10
253.886
 20
-73.917
 10
254.248
 20
-73.47
 10
254.562
 20
-72.987
 10
254.823
 20
-72.474
 10
255.029
 20
-71.937
 10
255.178
 20
-71.381
 10
255.269
 20
-70.812
 10
255.299
 20
-70.237
 10
255.299
 20
-65.781
 10
255.269
 20
-65.206
 10
255.178
 20
-64.638
 10
255.029
 20
-64.082
 10
254.823
 20
-63.544
 10
254.562
 20
-63.031
 10
254.248
 20
-62.548
 10
253.886
 20
-62.101
 10
253.479
 20
-61.694
 10
253.031
 20
-61.332
 10
252.549
 20
-61.018
 10
252.036
 20
-60.757
 10
251.498
 20
-60.55
 10
250.942
 20
-60.401
 10
250.374
 20
-60.311
 10
249.799
 20
-60.281
 10
249.224
 20
-60.311
 10
248.655
 20
-60.401
 10
248.099
 20
-60.55
 10
247.562
 20
-60.757
 10
247.049
 20
-61.018
 10
246.566
 20
-61.332
 10
246.118
 20
-61.694
 10
245.711
 20
-62.101
 10
245.349
 20
-62.548
 10
245.036
 20
-63.031
 10
244.774
 20
-63.544
 10
244.568
 20
-64.082
 10
244.419
 20
-64.638
 10
244.329
 20
-65.206
 10
244.299
 20
-65.781
 10
244.299
 20
-70.237
 10
244.329
 20
-70.812
 10
244.419
 20
-71.381
 10
244.568
 20
-71.937
 10
244.774
 20
-72.474
 10
245.036
 20
-72.987
 10
245.349
 20
-73.47
 10
245.711
 20
-73.917
 10
246.118
 20
-74.325
 10
246.566
 20
-74.687
 10
247.049
 20
-75.0
 10
247.562
 20
-75.262
 10
248.099
 20
-75.468
 10
248.655
 20
-75.617
 10
249.224
 20
-75.707
 10
249.799
 20
-75.737
 10
250.374
 20
-75.707
 10
250.942
 20
-75.617
 10
251.498
 20
-75.468
 10
252.036
 20
-75.262
  0
LWPOLYLINE
  5
4E
330
17
100
AcDbEntity
  8
CUT
100
AcDbPolyline
 90
63
 70
0
 10
251.498
 20
60.532
 10
252.036
 20
60.738
 10
252.549
 20
61.0
 10
253.031
 20
61.313
 10
253.479
 20
61.675
 10
253.886
 20
62.083
 10
254.248
 20
62.53
 10
254.562
 20
63.013
 10
254.823
 20
63.526
 10
255.029
 20
64.063
 10
255.178
 20
64.619
 10
255.269
 20
65.188
 10
255.299
 20
65.763
 10
255.299
 20
70.219
 10
255.269
 20
70.794
 10
255.178
 20
71.362
 10
255.029
 20
71.918
 10
254.823
 20
72.456
 10
254.562
 20
72.969
 10
254.248
 20
73.452
 10
253.886
 20
73.899
 10
253.479
 20
74.306
 10
253.031
 20
74.668
 10
252.549
 20
74.982
 10
252.036
 20
75.243
 10
251.498
 20
75.45
 10
250.942
 20
75.599
 10
250.374
 20
75.689
 10
249.799
 20
75.719
 10
249.224
 20
75.689
 10
248.655
 20
75.599
 10
248.099
 20
75.45
 10
247.562
 20
75.243
 10
247.049
 20
74.982
 10
246.566
 20
74.668
 10
246.118
 20
74.306
 10
245.711
 20
73.899
 10
245.349
 20
73.452
 10
245.036
 20
72.969
 10
244.774
 20
72.456
 10
244.568
 20
71.918
 10
244.419
 20
71.362
 10
244.329
 20
70.794
 10
244.299
 20
70.219
 10
244.299
 20
65.763
 10
244.329
 20
65.188
 10
244.419
 20
64.619
 10
244.568
 20
64.063
 10
244.774
 20
63.526
 10
245.036
 20
63.013
 10
245.349
 20
62.53
 10
245.711
 20
62.083
 10
246.118
 20
61.675
 10
246.566
 20
61.313
 10
247.049
 20
61.0
 10
247.562
 20
60.738
 10
248.099
 20
60.532
 10
248.655
 20
60.383
 10
249.224
 20
60.293
 10
249.799
 20
60.263
 10
250.374
 20
60.293
 10
250.942
 20
60.383
 10
251.498
 20
60.532
  0
LWPOLYLINE
  5
4F
330
17
100
AcDbEntity
  8
CUT
100
AcDbPolyline
 90
31
 70
0
 10
260.457
 20
-184.677
 10
259.478
 20
-183.59
 10
258.294
 20
-182.73
 10
256.957
 20
-182.135
 10
255.526
 20
-181.83
 10
254.062
 20
-181.83
 10
252.631
 20
-182.135
 10
251.294
 20
-182.73
 10
250.11
 20
-183.59
 10
249.131
 20
-184.677
 10
248.399
 20
-185.945
 10
247.947
 20
-187.337
 10
247.794
 20
-188.792
 10
247.947
 20
-190.247
 10
248.399
 20
-191.639
 10
249.131
 20
-192.906
 10
250.11
 20
-193.994
 10
251.294
 20
-194.854
 10
252.631
 20
-195.449
 10
254.062
 20
-195.754
 10
255.526
 20
-195.754
 10
256.957
 20
-195.449
 10
258.294
 20
-194.854
 10
259.478
 20
-193.994
 10
260.457
 20
-192.906
 10
261.189
 20
-191.639
 10
261.641
 20
-190.247
 10
261.794
 20
-188.792
 10
261.641
 20
-187.337
 10
261.189
 20
-185.945
 10
260.457
 20
-184.677
  0
LWPOLYLINE
  5
50
330
17
100
AcDbEntity
  8
CUT
100
AcDbPolyline
 90
31
 70
0
 10
261.251
 20
191.639
 10
260.52
 20
192.906
 10
259.54
 20
193.994
 10
258.356
 20
194.854
 10
257.02
 20
195.449
 10
255.588
 20
195.754
 10
254.125
 20
195.754
 10
252.693
 20
195.449
 10
251.356
 20
194.854
 10
250.173
 20
193.994
 10
249.193
 20
192.906
 10
248.462
 20
191.639
 10
248.009
 20
190.247
 10
247.856
 20
188.792
 10
248.009
 20
187.337
 10
248.462
 20
185.945
 10
249.193
 20
184.677
 10
250.173
 20
183.59
 10
251.356
 20
182.73
 10
252.693
 20
182.135
 10
254.125
 20
181.83
 10
255.588
 20
181.83
 10
257.02
 20
182.135
 10
258.356
 20
182.73
 10
259.54
 20
183.59
 10
260.52
 20
184.677
 10
261.251
 20
185.945
 10
261.704
 20
187.337
 10
261.856
 20
188.792
 10
261.704
 20
190.247
 10
261.251
 20
191.639
  0
LWPOLYLINE
  5
51
330
17
100
AcDbEntity
  8
CUT
100
AcDbPolyline
 90
31
 70
0
 10
261.641
 20
-232.337
 10
261.189
 20
-230.945
 10
260.457
 20
-229.677
 10
259.478
 20
-228.59
 10
258.294
 20
-227.73
 10
256.957
 20
-227.135
 10
255.526
 20
-226.83
 10
254.062
 20
-226.83
 10
252.631
 20
-227.135
 10
251.294
 20
-227.73
 10
250.11
 20
-228.59
 10
249.131
 20
-229.677
 10
248.399
 20
-230.945
 10
247.947
 20
-232.337
 10
247.794
 20
-233.792
 10
247.947
 20
-235.247
 10
248.399
 20
-236.639
 10
249.131
 20
-237.906
 10
250.11
 20
-238.994
 10
251.294
 20
-239.854
 10
252.631
 20
-240.449
 10
254.062
 20
-240.754
 10
255.526
 20
-240.754
 10
256.957
 20
-240.449
 10
258.294
 20
-239.854
 10
259.478
 20
-238.994
 10
260.457
 20
-237.906
 10
261.189
 20
-236.639
 10
261.641
 20
-235.247
 10
261.794
 20
-233.792
 10
261.641
 20
-232.337
  0
LWPOLYLINE
  5
52
330
17
100
AcDbEntity
  8
CUT
100
AcDbPolyline
 90
31
 70
0
 10
261.794
 20
233.792
 10
261.641
 20
235.247
 10
261.189
 20
236.639
 10
260.457
 20
237.906
 10
259.478
 20
238.994
 10
258.294
 20
239.854
 10
256.957
 20
240.449
 10
255.526
 20
240.754
 10
254.062
 20
240.754
 10
252.631
 20
240.449
 10
251.294
 20
239.854
 10
250.11
 20
238.994
 10
249.131
 20
237.906
 10
248.399
 20
236.639
 10
247.947
 20
235.247
 10
247.794
 20
233.792
 10
247.947
 20
232.337
 10
248.399
 20
230.945
 10
249.131
 20
229.677
 10
250.11
 20
228.59
 10
251.294
 20
227.73
 10
252.631
 20
227.135
 10
254.062
 20
226.83
 10
255.526
 20
226.83
 10
256.957
 20
227.135
 10
258.294
 20
227.73
 10
259.478
 20
228.59
 10
260.457
 20
229.677
 10
261.189
 20
230.945
 10
261.641
 20
232.337
 10
261.794
 20
233.792
  0
LINE
  5
53
330
17
100
AcDbEntity
  8
BEND_LINES
  6
DASHED
100
AcDbLine
 10
-25.046714665627917
 20
313.25221285621757
 30
0.0
 11
-25.04671466562587
 21
-313.2522128562172
 31
0.0
  0
LINE
  5
54
330
17
100
AcDbEntity
  8
BEND_LINES
  6
DASHED
100
AcDbLine
 10
-76.07547576759055
 20
318.74999999999955
 30
0.0
 11
-76.0754757675885
 21
-318.7499999999998
 31
0.0
  0
LINE
  5
55
330
17
100
AcDbEntity
  8
BEND_LINES
  6
DASHED
100
AcDbLine
 10
216.17809754510662
 20
315.01658966561325
 30
0.0
 11
216.1780975451066
 21
309.01658966561325
 31
0.0
  0
LINE
  5
56
330
17
100
AcDbEntity
  8
BEND_LINES
  6
DASHED
100
AcDbLine
 10
216.1780975451046
 20
-309.0165896656128
 30
0.0
 11
216.17809754510458
 21
-315.0165896656128
 31
0.0
  0
LINE
  5
57
330
17
100
AcDbEntity
  8
BEND_LINES
  6
DASHED
100
AcDbLine
 10
274.91924762745396
 20
316.98544991128864
 30
0.0
 11
274.91924762745396
 21
310.98544991128864
 31
0.0
  0
LINE
  5
58
330
17
100
AcDbEntity
  8
BEND_LINES
  6
DASHED
100
AcDbLine
 10
274.9192476274518
 20
-310.98544991128915
 30
0.0
 11
274.9192476274518
 21
-316.98544991128915
 31
0.0
  0
LINE
  5
59
330
17
100
AcDbEntity
  8
BEND_LINES
  6
DASHED
100
AcDbLine
 10
466.90154799214685
 20
-163.82326668546486
 30
0.0
 11
466.901547992148
 21
144.17894617075416
 31
0.0
  0
LINE
  5
5A
330
17
100
AcDbEntity
  8
BEND_LINES
  6
DASHED
100
AcDbLine
 10
408.1603979098029
 20
144.17894617075436
 30
0.0
 11
408.1603979098019
 21
-169.3210538292468
 31
0.0
  0
LINE
  5
5B
330
17
100
AcDbEntity
  8
BEND_LINES
  6
DASHED
100
AcDbLine
 10
580.7865037843055
 20
-163.8232666854649
 30
0.0
 11
580.7865037843046
 21
144.17894617075413
 31
0.0
  0
LINE
  5
5C
330
17
100
AcDbEntity
  8
BEND_LINES
  6
DASHED
100
AcDbLine
 10
631.8152648862649
 20
144.17894617075427
 30
0.0
 11
631.8152648862659
 21
-169.32105382924524
 31
0.0
  0
LINE
  5
5D
330
17
100
AcDbEntity
  8
BEND_LINES
  6
DASHED
100
AcDbLine
 10
818.4413707607648
 20
-163.82326668546477
 30
0.0
 11
818.4413707607665
 21
144.17894617075422
 31
0.0
  0
LINE
  5
5E
330
17
100
AcDbEntity
  8
BEND_LINES
  6
DASHED
100
AcDbLine
 10
759.7002206784215
 20
144.1789461707545
 30
0.0
 11
759.7002206784198
 21
-169.32105382924667
 31
0.0
  0
LINE
  5
5F
330
17
100
AcDbEntity
  8
BEND_LINES
  6
DASHED
100
AcDbLine
 10
932.3263265529247
 20
-163.82326668546477
 30
0.0
 11
932.3263265529229
 21
144.17894617075416
 31
0.0
  0
LINE
  5
60
330
17
100
AcDbEntity
  8
BEND_LINES
  6
DASHED
100
AcDbLine
 10
983.3550876548832
 20
144.1789461707544
 30
0.0
 11
983.355087654885
 21
-169.3210538292452
 31
0.0
  0
ENDSEC
  0
SECTION
  2
OBJECTS
  0
DICTIONARY
  5
A
330
0
100
AcDbDictionary
281
1
  3
ACAD_COLOR
350
B
  3
ACAD_GROUP
350
C
  3
ACAD_LAYOUT
350
D
  3
ACAD_MATERIAL
350
E
  3
ACAD_MLEADERSTYLE
350
F
  3
ACAD_MLINESTYLE
350
10
  3
ACAD_PLOTSETTINGS
350
11
  3
ACAD_PLOTSTYLENAME
350
12
  3
ACAD_SCALELIST
350
14
  3
ACAD_TABLESTYLE
350
15
  3
ACAD_VISUALSTYLE
350
16
  3
EZDXF_META
350
2D
  0
DICTIONARY
  5
B
330
A
100
AcDbDictionary
281
1
  0
DICTIONARY
  5
C
330
A
100
AcDbDictionary
281
1
  0
DICTIONARY
  5
D
330
A
100
AcDbDictionary
281
1
  3
Model
350
1A
  3
Layout1
350
1E
  0
DICTIONARY
  5
E
330
A
100
AcDbDictionary
281
1
  3
ByBlock
350
1F
  3
ByLayer
350
20
  3
Global
350
21
  0
DICTIONARY
  5
F
330
A
100
AcDbDictionary
281
1
  3
Standard
350
2C
  0
DICTIONARY
  5
10
330
A
100
AcDbDictionary
281
1
  3
Standard
350
22
  0
DICTIONARY
  5
11
330
A
100
AcDbDictionary
281
1
  0
ACDBDICTIONARYWDFLT
  5
12
330
A
100
AcDbDictionary
281
1
  3
Normal
350
13
100
AcDbDictionaryWithDefault
340
13
  0
ACDBPLACEHOLDER
  5
13
330
12
  0
DICTIONARY
  5
14
330
A
100
AcDbDictionary
281
1
  0
DICTIONARY
  5
15
330
A
100
AcDbDictionary
281
1
  0
DICTIONARY
  5
16
330
A
100
AcDbDictionary
281
1
  0
LAYOUT
  5
1A
330
D
100
AcDbPlotSettings
  1

  4
A3
  6

 40
7.5
 41
20.0
 42
7.5
 43
20.0
 44
420.0
 45
297.0
 46
0.0
 47
0.0
 48
0.0
 49
0.0
140
0.0
141
0.0
142
1.0
143
1.0
 70
1024
 72
1
 73
0
 74
5
  7

 75
16
 76
0
 77
2
 78
300
147
1.0
148
0.0
149
0.0
100
AcDbLayout
  1
Model
 70
1
 71
0
 10
0.0
 20
0.0
 11
420.0
 21
297.0
 12
0.0
 22
0.0
 32
0.0
 14
1e+20
 24
1e+20
 34
1e+20
 15
-1e+20
 25
-1e+20
 35
-1e+20
146
0.0
 13
0.0
 23
0.0
 33
0.0
 16
1.0
 26
0.0
 36
0.0
 17
0.0
 27
1.0
 37
0.0
 76
1
330
17
  0
LAYOUT
  5
1E
330
D
100
AcDbPlotSettings
  1

  4
A3
  6

 40
7.5
 41
20.0
 42
7.5
 43
20.0
 44
420.0
 45
297.0
 46
0.0
 47
0.0
 48
0.0
 49
0.0
140
0.0
141
0.0
142
1.0
143
1.0
 70
0
 72
1
 73
0
 74
5
  7

 75
16
 76
0
 77
2
 78
300
147
1.0
148
0.0
149
0.0
100
AcDbLayout
  1
Layout1
 70
1
 71
1
 10
0.0
 20
0.0
 11
420.0
 21
297.0
 12
0.0
 22
0.0
 32
0.0
 14
1e+20
 24
1e+20
 34
1e+20
 15
-1e+20
 25
-1e+20
 35
-1e+20
146
0.0
 13
0.0
 23
0.0
 33
0.0
 16
1.0
 26
0.0
 36
0.0
 17
0.0
 27
1.0
 37
0.0
 76
1
330
1B
  0
MATERIAL
  5
1F
102
{ACAD_REACTORS
330
E
102
}
330
E
100
AcDbMaterial
  1
ByBlock
  2

 70
0
 40
1.0
 71
1
 41
1.0
 91
-1023410177
 42
1.0
 72
1
  3

 73
1
 74
1
 75
1
 44
0.5
 73
0
 45
1.0
 46
1.0
 77
1
  4

 78
1
 79
1
170
1
 48
1.0
171
1
  6

172
1
173
1
174
1
140
1.0
141
1.0
175
1
  7

176
1
177
1
178
1
143
1.0
179
1
  8

270
1
271
1
272
1
145
1.0
146
1.0
273
1
  9

274
1
275
1
276
1
 42
1.0
 72
1
  3

 73
1
 74
1
 75
1
 94
63
  0
MATERIAL
  5
20
102
{ACAD_REACTORS
330
E
102
}
330
E
100
AcDbMaterial
  1
ByLayer
  2

 70
0
 40
1.0
 71
1
 41
1.0
 91
-1023410177
 42
1.0
 72
1
  3

 73
1
 74
1
 75
1
 44
0.5
 73
0
 45
1.0
 46
1.0
 77
1
  4

 78
1
 79
1
170
1
 48
1.0
171
1
  6

172
1
173
1
174
1
140
1.0
141
1.0
175
1
  7

176
1
177
1
178
1
143
1.0
179
1
  8

270
1
271
1
272
1
145
1.0
146
1.0
273
1
  9

274
1
275
1
276
1
 42
1.0
 72
1
  3

 73
1
 74
1
 75
1
 94
63
  0
MATERIAL
  5
21
102
{ACAD_REACTORS
330
E
102
}
330
E
100
AcDbMaterial
  1
Global
  2

 70
0
 40
1.0
 71
1
 41
1.0
 91
-1023410177
 42
1.0
 72
1
  3

 73
1
 74
1
 75
1
 44
0.5
 73
0
 45
1.0
 46
1.0
 77
1
  4

 78
1
 79
1
170
1
 48
1.0
171
1
  6

172
1
173
1
174
1
140
1.0
141
1.0
175
1
  7

176
1
177
1
178
1
143
1.0
179
1
  8

270
1
271
1
272
1
145
1.0
146
1.0
273
1
  9

274
1
275
1
276
1
 42
1.0
 72
1
  3

 73
1
 74
1
 75
1
 94
63
  0
MLINESTYLE
  5
22
102
{ACAD_REACTORS
330
10
102
}
330
10
100
AcDbMlineStyle
  2
Standard
 70
0
  3

 62
256
 51
90.0
 52
90.0
 71
2
 49
0.5
 62
256
  6
BYLAYER
 49
-0.5
 62
256
  6
BYLAYER
  0
MLEADERSTYLE
  5
2C
102
{ACAD_REACTORS
330
F
102
}
330
F
100
AcDbMLeaderStyle
179
2
170
2
171
1
172
0
 90
2
 40
0.0
 41
0.0
173
1
 91
-1056964608
 92
-2
290
1
 42
2.0
291
1
 43
8.0
  3
Standard
 44
4.0
300

342
29
174
1
175
1
176
0
178
1
 93
-1056964608
 45
4.0
292
0
297
0
 46
4.0
 94
-1056964608
 47
1.0
 49
1.0
140
1.0
294
1
141
0.0
177
0
142
1.0
295
0
296
0
143
3.75
271
0
272
9
273
9
  0
DICTIONARY
  5
2D
330
A
100
AcDbDictionary
280
1
281
1
  3
CREATED_BY_EZDXF
350
2E
  3
WRITTEN_BY_EZDXF
350
63
  0
DICTIONARYVAR
  5
2E
330
2D
100
DictionaryVariables
280
0
  1
1.4.4 @ 2026-07-22T09:15:35.695687+00:00
  0
DICTIONARYVAR
  5
63
330
2D
100
DictionaryVariables
280
0
  1
1.4.4 @ 2026-07-22T09:15:35.706583+00:00
  0
ENDSEC
  0
EOF
